<svg xmlns="http://www.w3.org/2000/svg" xmlns:xlink="http://www.w3.org/1999/xlink" width="573.232" height="583" viewBox="0 0 573.232 583">
  <defs>
    <clipPath id="clip-path">
      <rect id="Rectangle_971" data-name="Rectangle 971" width="573.232" height="583" fill="none"/>
    </clipPath>
    <clipPath id="clip-path-3">
      <rect id="Rectangle_966" data-name="Rectangle 966" width="572.245" height="572.924" fill="none"/>
    </clipPath>
  </defs>
  <g id="Group_908" data-name="Group 908" transform="translate(-546.113 -144)">
    <g id="Group_907" data-name="Group 907" transform="translate(546.113 144)">
      <g id="Group_906" data-name="Group 906" clip-path="url(#clip-path)">
        <g id="Group_905" data-name="Group 905">
          <g id="Group_904" data-name="Group 904" clip-path="url(#clip-path)">
            <g id="Group_903" data-name="Group 903" transform="translate(0.987 8.719)" opacity="0.6">
              <g id="Group_902" data-name="Group 902">
                <g id="Group_901" data-name="Group 901" clip-path="url(#clip-path-3)">
                  <path id="Path_5185" data-name="Path 5185" d="M568.163,233.644c-25.694-130.5-155.42-209.381-264.3-219.441-90.2-8.335-199.54,14.4-250.068,98.05-30.959,51.253,7.232,73.825-14.185,187.262C21.072,397.7-12.718,433.075,7.848,483.117c16.815,40.911,55.075,58.841,80.193,71.209,99,48.75,281.347,44.877,389.623-44.052,25.339-20.811,119.563-129,90.5-276.63" transform="translate(-1.426 -12.591)" fill="#98d8f4"/>
                </g>
              </g>
            </g>
            <path id="Path_5186" data-name="Path 5186" d="M610.293,68.3c14.392,14.392,15.908,34.007,2.265,47.65s-32.3,15.659-48.843-.776C548.75,100.213,549.074,80.2,562.67,66.6S596.621,54.634,610.293,68.3Z" transform="translate(-169.888 -17.586)" fill="none" stroke="#536876" stroke-miterlimit="10" stroke-width="1"/>
            <path id="Path_5187" data-name="Path 5187" d="M619.568,32.1c-25.356-25.354-65.481-26.325-90.827-.979A73.953,73.953,0,0,0,521.171,40a68.2,68.2,0,0,0-6.9,11.933,63.457,63.457,0,0,0-2.458,6.3c-.361,1.063-.684,2.144-.98,3.217-.148.555-1.017,2.569-.185,2.9a1.41,1.41,0,0,0,.4.009l7.876.111,3.189.046c.693.009,1.765.3,2.283-.323a4.153,4.153,0,0,0,.528-1.322l.555-1.627a52.316,52.316,0,0,1,2.8-6.35A55.915,55.915,0,0,1,536.4,43.239l2.023-2.025c20.022-20.021,51.7-19.254,71.721.767A56.381,56.381,0,0,1,622.1,59.313c-.37.37-.813.683-1.192,1.063a15.346,15.346,0,1,0,14.771-3.938A70.934,70.934,0,0,0,619.568,32.1Zm16.555,43.676a6.419,6.419,0,1,1,0-9.077A6.418,6.418,0,0,1,636.123,75.776Z" transform="translate(-156.914 -3.872)" fill="none" stroke="#536876" stroke-miterlimit="10" stroke-width="1"/>
            <path id="Path_5188" data-name="Path 5188" d="M505.767,124.172a15.981,15.981,0,0,0,2.385.665A67.545,67.545,0,0,0,524,149.092c30.624,30.624,67.746,24.487,93.1-.868a66.7,66.7,0,0,0,6.887-8.07,63.442,63.442,0,0,0,5.305-8.726,61.1,61.1,0,0,0,3.7-9.243c.306-.989.582-1.987.851-2.994l.36-1.488a1.385,1.385,0,0,0,.083-.767c-.112-.37-.342-.342-.692-.323s-.963-.037-1.461-.037l-6.582-.037-3.023.028a3.649,3.649,0,0,0-1.969.231,1.029,1.029,0,0,0-.388.536l-.417,1.433c-.3.933-.638,1.876-.97,2.819a49.158,49.158,0,0,1-4.7,9.1,52.835,52.835,0,0,1-6.756,8.292c-20.05,19.993-49.352,24.837-73.588.638a53.786,53.786,0,0,1-12.108-18.117c.24-.24.517-.425.758-.665a15.19,15.19,0,0,0,0-21.482A15.281,15.281,0,0,0,502.07,98.29a15.19,15.19,0,0,0,3.7,25.882Zm.185-10.778a6.305,6.305,0,0,1-.555-4.6,6.537,6.537,0,1,1,4.951,7.807A6.749,6.749,0,0,1,505.952,113.394Z" transform="translate(-152.639 -29.195)" fill="none" stroke="#536876" stroke-miterlimit="10" stroke-width="1"/>
            <path id="Path_5189" data-name="Path 5189" d="M169.716,78.43a85.939,85.939,0,0,0-3.78,13.95l-22.08,4.956-.022,20.745,22.1,5.01a87.081,87.081,0,0,0,3.721,13.948l-16.668,15.353,10.353,17.976,21.614-6.7a85.919,85.919,0,0,0,10.227,10.213l-6.757,21.626L206.379,205.9l15.387-16.63a85.981,85.981,0,0,0,13.95,3.779l4.956,22.08,20.744.023,5.011-22.1a87.111,87.111,0,0,0,13.946-3.721l15.355,16.668L313.7,195.64,307,174.027A85.921,85.921,0,0,0,317.215,163.8l21.626,6.756L349.232,152.6,332.6,137.217a85.924,85.924,0,0,0,3.78-13.95l22.08-4.956.022-20.744-22.1-5.011A87,87,0,0,0,332.66,78.61l16.668-15.354L338.975,45.279l-21.614,6.7a85.913,85.913,0,0,0-10.225-10.213l6.756-21.626L295.938,9.75,280.552,26.381A85.991,85.991,0,0,0,266.6,22.6L261.646.522,240.9.5l-5.01,22.1a87.03,87.03,0,0,0-13.947,3.721L206.59,9.655,188.614,20.007l6.7,21.614A85.966,85.966,0,0,0,185.1,51.847l-21.626-6.757L153.085,63.044Zm35.224,2.643a53.4,53.4,0,1,1,19.468,72.968A53.4,53.4,0,0,1,204.94,81.074Z" transform="translate(-44.229 -0.154)" fill="none" stroke="#536876" stroke-miterlimit="10" stroke-width="1"/>
            <path id="Path_5190" data-name="Path 5190" d="M467.719,758.974H352.038L292.332,654.468v91.278c0,14.274,10.411,25.692,23.029,25.692H467.719a4.413,4.413,0,0,0,4.663-4.175v-4.089a4.433,4.433,0,0,0-4.663-4.2" transform="translate(-89.892 -201.249)" fill="#99b9ff"/>
            <path id="Path_5191" data-name="Path 5191" d="M316.832,701.879v51.762a18.731,18.731,0,0,0,18.81,18.873h99.608V701.879Z" transform="translate(-97.426 -215.828)" fill="#fff"/>
            <path id="Path_5192" data-name="Path 5192" d="M435.827,773.091H335.18a19.669,19.669,0,0,1-19.848-19.911v-52.8H435.827ZM317.409,702.457V753.18a17.614,17.614,0,0,0,17.771,17.834h98.569V702.457Z" transform="translate(-96.965 -215.367)" fill="#536876"/>
            <path id="Path_5193" data-name="Path 5193" d="M532.839,565.366l-485.674,1.06a8.445,8.445,0,0,1-8.37-7.38L.107,256.7c-.941-7.356,4.421-14.3,11.823-14.3l479.391.436Z" transform="translate(0 -74.538)" fill="#118bcb"/>
            <path id="Path_5194" data-name="Path 5194" d="M551.623,564.919H75.651a8.454,8.454,0,0,1-8.369-7.4L28.84,257.9a13.888,13.888,0,0,1,13.723-15.7H512.4a8.455,8.455,0,0,1,8.369,7.4l39.228,305.745a8.469,8.469,0,0,1-8.369,9.572" transform="translate(-8.833 -74.477)" fill="#fff"/>
            <path id="Path_5195" data-name="Path 5195" d="M551.163,565.5H75.191a9.515,9.515,0,0,1-9.4-8.307L27.35,257.568a15,15,0,0,1,3.611-11.821A14.848,14.848,0,0,1,42.1,240.7H511.935a9.515,9.515,0,0,1,9.4,8.307l39.229,305.745a9.509,9.509,0,0,1-9.4,10.743M42.1,242.779a12.769,12.769,0,0,0-9.581,4.341A12.925,12.925,0,0,0,29.41,257.3L67.853,556.925a7.432,7.432,0,0,0,7.338,6.493H551.163a7.384,7.384,0,0,0,5.539-2.509,7.48,7.48,0,0,0,1.8-5.892L519.273,249.272a7.433,7.433,0,0,0-7.338-6.494Z" transform="translate(-8.372 -74.016)" fill="#536876"/>
            <path id="Path_5196" data-name="Path 5196" d="M76.333,200.8H493.192c9.2,0,17.572,7.484,18.7,16.718l35.164,288.335c1.138,9.331-5.439,16.9-14.692,16.9H113.16c-9.252,0-17.616-7.566-18.682-16.9l-32.9-288.335c-1.053-9.234,5.551-16.718,14.752-16.718" transform="translate(-18.902 -61.747)" fill="#98d8f4"/>
            <path id="Path_5197" data-name="Path 5197" d="M513.274,227.787l-.785-10.36c-1.116-9.151-9.782-16.439-18.982-16.439H76.646c-9.2,0-15.9,7.288-14.858,16.439l.976,12.754Z" transform="translate(-18.967 -61.804)" fill="#118bcb"/>
            <path id="Path_5198" data-name="Path 5198" d="M94.934,222.958a4.707,4.707,0,0,1-4.766,5.385,6.2,6.2,0,0,1-6-5.385,4.706,4.706,0,0,1,4.766-5.383,6.2,6.2,0,0,1,6,5.383" transform="translate(-25.871 -66.904)" fill="#98d8f4"/>
            <path id="Path_5199" data-name="Path 5199" d="M119.747,222.44a4.7,4.7,0,0,1-4.764,5.385,6.2,6.2,0,0,1-6-5.385,4.7,4.7,0,0,1,4.764-5.383,6.2,6.2,0,0,1,6,5.383" transform="translate(-33.501 -66.745)" fill="#98d8f4"/>
            <path id="Path_5200" data-name="Path 5200" d="M146.811,223.477a4.7,4.7,0,0,1-4.763,5.385,6.2,6.2,0,0,1-6-5.385,4.7,4.7,0,0,1,4.763-5.383,6.2,6.2,0,0,1,6,5.383" transform="translate(-41.823 -67.064)" fill="#98d8f4"/>
            <path id="Path_5201" data-name="Path 5201" d="M252.739,429.376h18.908l2.388,20.444H255.122l3.963,34H233.677l-3.947-34H164L161.485,434.3,215.14,331.341h26.174Zm-65.183,0h39.8l-7.389-63.651-1.49,3.347Z" transform="translate(-49.657 -101.888)" fill="#fff"/>
            <path id="Path_5202" data-name="Path 5202" d="M440.369,418.6q3.913,32.912-6.379,49.651T398.6,484.993q-24.679,0-39.088-16.325T341.044,420.38l-3.092-26.392q-3.85-32.855,6.485-49.261t35.458-16.4q24.922,0,39.072,15.984t18.264,47.9Zm-28.753-28.483q-2.541-21.449-9.566-31.435T382.3,348.7q-12.414,0-17.141,9.46t-2.68,29.55l4.064,34.557q2.515,21.381,9.705,31.871a22.867,22.867,0,0,0,19.945,10.492q12.229,0,16.934-9.7t2.571-30.353Z" transform="translate(-103.599 -100.96)" fill="#fff"/>
            <path id="Path_5203" data-name="Path 5203" d="M603.917,429.376h18.907L625.3,449.82H606.386l4.107,34H585.084l-4.091-34H515.264L512.683,434.3,565.9,331.341h26.174Zm-65.184,0h39.8l-7.66-63.651-1.475,3.347Z" transform="translate(-157.65 -101.888)" fill="#fff"/>
            <path id="Path_5204" data-name="Path 5204" d="M458.839,523.33H112.919c-9.75,0-18.593-7.994-19.713-17.818l-32.9-288.335a16.032,16.032,0,0,1,3.84-12.69A15.741,15.741,0,0,1,76.092,199.3h416.86c9.694,0,18.544,7.909,19.729,17.631L524.117,310.7a1.039,1.039,0,1,1-2.063.251l-11.435-93.762c-1.062-8.715-8.987-15.8-17.666-15.8H76.092a13.692,13.692,0,0,0-10.394,4.49,13.982,13.982,0,0,0-3.326,11.071l32.9,288.335c1,8.809,8.923,15.976,17.65,15.976h345.92a1.039,1.039,0,1,1,0,2.078" transform="translate(-18.508 -61.286)" fill="#536876"/>
            <path id="Path_5205" data-name="Path 5205" d="M479.143,817.614H332.87a1.039,1.039,0,0,1,0-2.078H479.143a3.346,3.346,0,0,0,3.307-3.453v-4.089a3.432,3.432,0,0,0-3.307-3.537h-42.4a1.039,1.039,0,1,1,0-2.077h42.4a5.51,5.51,0,0,1,5.384,5.615v4.089a5.465,5.465,0,0,1-5.384,5.531" transform="translate(-102.038 -246.732)" fill="#536876"/>
            <path id="Path_5206" data-name="Path 5206" d="M208.853,756.448H82.8L94.73,732.969l10.4-20.447,11.618-22.85,10.391-20.437,13.517-26.568a5.808,5.808,0,0,1,10.348,0l13.516,26.566,10.392,20.434,11.618,22.843,10.4,20.46Z" transform="translate(-25.461 -196.646)" fill="#98d8f4"/>
            <path id="Path_5207" data-name="Path 5207" d="M189.982,703.154H131.818l10.391-20.775h37.382Z" transform="translate(-40.534 -209.832)" fill="#118bcb"/>
            <path id="Path_5208" data-name="Path 5208" d="M202.221,765.461H100.027l10.4-20.083h81.4Z" transform="translate(-30.758 -229.204)" fill="#118bcb"/>
            <path id="Path_5209" data-name="Path 5209" d="M207.493,757.374H81.441a1.038,1.038,0,0,1-.927-1.507l11.928-23.652,10.4-20.535,22.01-43.353,13.517-26.579a6.845,6.845,0,0,1,12.2-.009l35.527,69.841,22.328,44.287a1.039,1.039,0,0,1-.927,1.507M83.127,755.3H205.805l-21.566-42.778-35.525-69.837a4.768,4.768,0,0,0-8.5.009L116.31,689.727,104.693,712.62,94.3,733.153Z" transform="translate(-24.723 -196.187)" fill="#536876"/>
            <rect id="Rectangle_967" data-name="Rectangle 967" width="150.048" height="21.791" rx="6.097" transform="translate(45.03 556.016)" fill="#118bcb"/>
            <path id="Path_5210" data-name="Path 5210" d="M210.391,825.28H68.787a5.267,5.267,0,0,1-5.261-5.262V806.673a5.267,5.267,0,0,1,5.261-5.262h141.6a5.267,5.267,0,0,1,5.261,5.262v13.346a5.267,5.267,0,0,1-5.261,5.262m-141.6-21.792a3.188,3.188,0,0,0-3.183,3.184v13.346a3.188,3.188,0,0,0,3.183,3.184h141.6a3.187,3.187,0,0,0,3.183-3.184V806.673a3.187,3.187,0,0,0-3.183-3.184Z" transform="translate(-19.534 -246.434)" fill="#536876"/>
            <path id="Path_5211" data-name="Path 5211" d="M769,441.292c16.387,4.609,37.482,22.348,37.482,54.534,0,23.186-34.153,42.825-34.153,42.825L766.7,524.825s18.826-13.939,17.924-30.214c-.724-13.05-21.765-17.1-21.765-17.1Z" transform="translate(-234.578 -135.698)" fill="#72005d"/>
            <rect id="Rectangle_968" data-name="Rectangle 968" width="11.778" height="13.826" transform="translate(515.731 556.268)" fill="#118bcb"/>
            <rect id="Rectangle_969" data-name="Rectangle 969" width="11.778" height="13.827" transform="matrix(0.973, -0.23, 0.23, 0.973, 481.525, 556.782)" fill="#118bcb"/>
            <path id="Path_5212" data-name="Path 5212" d="M739.359,555.544s3.517,27.808.818,38.6-9.012,110.567-9.012,137.559H715.291l-7.169-127.513-22.153,46.266a19.8,19.8,0,0,0-1.17,11.908l13.081,69.34-14.851,1.024L658.2,656.6a22.107,22.107,0,0,1-.238-11.6L678.1,564.458Z" transform="translate(-202.121 -170.83)"/>
            <path id="Path_5213" data-name="Path 5213" d="M731.334,617.758a1.039,1.039,0,0,1-.81-1.688l8.194-10.242a1.039,1.039,0,0,1,1.622,1.3l-8.194,10.243a1.036,1.036,0,0,1-.812.389" transform="translate(-224.567 -186.173)" fill="#fff"/>
            <path id="Path_5214" data-name="Path 5214" d="M755.776,818.8H741.95l-2.05,10.437a3.2,3.2,0,0,0,3.005,3.9h11.917a3.2,3.2,0,0,0,3-3.9Z" transform="translate(-227.499 -251.783)" fill="#fff"/>
            <path id="Path_5215" data-name="Path 5215" d="M754.36,833.721H742.443a4.034,4.034,0,0,1-3.118-1.494,4.385,4.385,0,0,1-.906-3.648l2.05-10.436a1.039,1.039,0,0,1,1.019-.839h13.826a1.039,1.039,0,0,1,1.019.839l2.051,10.436a4.386,4.386,0,0,1-.908,3.649,4.032,4.032,0,0,1-3.117,1.493m-12.016-14.339-1.886,9.6a2.316,2.316,0,0,0,.473,1.928,1.939,1.939,0,0,0,1.513.736H754.36a1.937,1.937,0,0,0,1.513-.736,2.318,2.318,0,0,0,.474-1.928l-1.886-9.6Z" transform="translate(-227.038 -251.322)"/>
            <path id="Path_5216" data-name="Path 5216" d="M742.149,834.7h0Z" transform="translate(-228.211 -256.672)" fill="#fff"/>
            <path id="Path_5217" data-name="Path 5217" d="M756.027,835.281H741.688a1.039,1.039,0,1,1,0-2.078h14.339a1.039,1.039,0,0,1,0,2.078" transform="translate(-227.75 -256.211)"/>
            <path id="Path_5218" data-name="Path 5218" d="M705.244,814.368l3.787,12.567c.659,2.186-.674,4.5-2.632,4.564l-26.012.881c-1.609.055-2.251-2.439-.892-3.461,4.232-3.181,9.863-7.6,11.41-9.694,3.585-4.857,7.169-.607,7.169-.607s2.561-4.249,7.169-4.249" transform="translate(-208.718 -250.419)" fill="#fff"/>
            <path id="Path_5219" data-name="Path 5219" d="M679.874,832.957a2.6,2.6,0,0,1-2.433-1.835,3.057,3.057,0,0,1,.966-3.495c6.084-4.572,10.061-7.94,11.2-9.481a5.816,5.816,0,0,1,4.43-2.747,5.286,5.286,0,0,1,3.421,1.212,9.67,9.67,0,0,1,7.324-3.744,1.038,1.038,0,0,1,.994.739l3.787,12.568a4.924,4.924,0,0,1-.672,4.27,3.763,3.763,0,0,1-2.92,1.631l-26.011.88h-.085m14.306-15.484h-.087a3.908,3.908,0,0,0-2.814,1.9c-1.292,1.749-5.2,5.083-11.623,9.909a1.017,1.017,0,0,0-.255,1.142c.048.136.19.449.475.449h.013L705.9,830a1.717,1.717,0,0,0,1.3-.766,2.875,2.875,0,0,0,.37-2.461l-3.55-11.782c-3.483.427-5.5,3.669-5.523,3.7a1.039,1.039,0,0,1-1.681.131,4.063,4.063,0,0,0-2.638-1.352" transform="translate(-208.255 -249.957)"/>
            <path id="Path_5220" data-name="Path 5220" d="M685.208,834.249l23.557-1.024Z" transform="translate(-210.702 -256.217)" fill="#fff"/>
            <path id="Path_5221" data-name="Path 5221" d="M684.746,834.826a1.039,1.039,0,0,1-.045-2.077l23.557-1.025a1.025,1.025,0,0,1,1.084.993,1.041,1.041,0,0,1-.993,1.084l-23.557,1.024h-.046" transform="translate(-210.24 -255.755)"/>
            <path id="Path_5222" data-name="Path 5222" d="M727,418.424l12.8,8.706-35.253-1.688,10.16-6.507,1.368-6.3c-1.8-.267-4.283-.448-5.073-1.431-1.394-1.737-.764-7.746-.764-7.746l-1.528-1.2a.646.646,0,0,1-.256-.92c1.3-2.068,2.521-2.735,3.1-4.843.566-2.077.315-1.761,2.551-6.237l13.409-.018.075,10.048s2.058-1.329,3.361.468c.947,1.307-1.15,5.67-2.852,5.671Z" transform="translate(-216.651 -119.999)" fill="#fff"/>
            <path id="Path_5223" data-name="Path 5223" d="M739.346,427.707H739.3l-35.253-1.687a1.039,1.039,0,0,1-.51-1.913l9.8-6.273,1.038-4.782c-1.866-.252-3.741-.551-4.629-1.657-1.389-1.729-1.186-6.148-1.04-7.928l-1.021-.8a1.687,1.687,0,0,1-.555-2.34,18.474,18.474,0,0,1,1.456-1.968,6.416,6.416,0,0,0,1.516-2.593c.076-.277.136-.511.19-.719.382-1.467.514-1.864,2.435-5.709a1.038,1.038,0,0,1,.927-.575l13.409-.019h0a1.039,1.039,0,0,1,1.039,1.032l.064,8.592a3.177,3.177,0,0,1,3.174,1.321c1.035,1.427-.04,3.8-.395,4.5a5.862,5.862,0,0,1-2.33,2.6l-.974,10.665,12.3,8.361a1.038,1.038,0,0,1-.583,1.9M707.4,424.1l28.318,1.355-9.755-6.633a1.04,1.04,0,0,1-.451-.954l1.1-12a1.04,1.04,0,0,1,1.034-.945c.143-.008.731-.377,1.344-1.487a4,4,0,0,0,.664-2.542c-.7-.965-1.826-.28-1.952-.2a1.038,1.038,0,0,1-1.6-.865l-.068-9.016-11.734.017c-1.606,3.228-1.684,3.529-2,4.729-.056.215-.119.456-.2.742a8.364,8.364,0,0,1-1.914,3.366,18.15,18.15,0,0,0-1.1,1.449l1.347,1.06a1.041,1.041,0,0,1,.391.924c-.242,2.321-.234,6.022.541,6.987.412.514,2.388.779,3.568.938.292.039.577.077.848.118a1.039,1.039,0,0,1,.862,1.248l-1.368,6.3a1.042,1.042,0,0,1-.455.655Z" transform="translate(-216.189 -119.538)"/>
            <path id="Path_5224" data-name="Path 5224" d="M730.7,406.859c-2.7.9-5.366-1.214-5.845-1.594-1.877-1.489-3.411-4.142-2.657-5.314.414-.643,1.154-.292,2.125-1.063,1.429-1.134,1.836-3.591,1.063-4.251-.633-.541-1.622.5-2.657,0-1.263-.605-.616-2.544-1.594-4.251-1.6-2.79-5.318-1.107-8.18-4.076-1.868-1.939-2.679-5.169-1.613-6.995a3.731,3.731,0,0,1,1.469-1.379c4.5-2.479,5.176.914,9.559.952,9.02.077,13.443,1.882,15.076,5.62,1.107,2.537-.245,6.579-.9,8.536a28.878,28.878,0,0,0-1.062,3.719c-.422,2.006-.292,2.522-.532,3.719-.168.839-1.065,5.315-4.251,6.377" transform="translate(-218.591 -115.937)"/>
            <path id="Path_5225" data-name="Path 5225" d="M709.446,391.4s3.982,1.472,4.847-.519-.519-3.636,1.645-5.194,7.358-3.2,5.453-5.54-7.7-3.289-9.349-.519-2.857,7.531-3.982,7.617-.708,3.669,1.385,4.155" transform="translate(-217.542 -116.214)" fill="#fff"/>
            <path id="Path_5226" data-name="Path 5226" d="M711.725,392.5a9.84,9.84,0,0,1-3.042-.568c-2.038-.519-2.83-2.854-2.721-4.289a1.836,1.836,0,0,1,1.368-1.87,16.721,16.721,0,0,0,1.48-3.1,32.5,32.5,0,0,1,1.878-4.043,4.92,4.92,0,0,1,4.066-2.181c2.66-.2,5.6.885,6.982,2.574a2.493,2.493,0,0,1,.6,2.115c-.328,1.645-2.342,2.729-4.29,3.778a19.471,19.471,0,0,0-1.963,1.147c-.889.641-.887,1.151-.882,2.168a6.062,6.062,0,0,1-.416,2.6,3.04,3.04,0,0,1-3.06,1.67m-2.381-2.539c1.253.458,3.233.737,3.535.042a4.106,4.106,0,0,0,.245-1.759,4.06,4.06,0,0,1,1.746-3.865,20.952,20.952,0,0,1,2.192-1.289c1.159-.624,3.1-1.668,3.236-2.354.02-.1-.038-.231-.174-.4a6.824,6.824,0,0,0-5.217-1.814,3.079,3.079,0,0,0-2.433,1.17,30.971,30.971,0,0,0-1.742,3.772c-.985,2.4-1.616,3.935-2.7,4.282a2.579,2.579,0,0,0,.267,1.314,1.522,1.522,0,0,0,.915.863.964.964,0,0,1,.125.037" transform="translate(-217.081 -115.753)"/>
            <path id="Path_5227" data-name="Path 5227" d="M682.43,436.856s30.726-8.705,59.916,2.049c2.246,12.941,3.789,24.117,4.865,32.966,1.894,15.581.715,10.606,3.073,33.351,1.465,14.136,1.857,15.432.513,17.924-6.773,12.558-34.065,11.876-44.553,9.218-.745-.189-3.824-1-8.863-2.272-5.769-1.455-10.507-2.6-13.67-3.361a13.057,13.057,0,0,1-5.633-4.609c-3.609-5.512-1.2-12.647,0-17.412,3.073-12.237-.964-12.5,0-34.822a193.439,193.439,0,0,1,4.353-33.031" transform="translate(-207.923 -133.311)" fill="#72005d"/>
            <path id="Path_5228" data-name="Path 5228" d="M765.909,568.872a1.039,1.039,0,0,1-.15-2.066c.557-.082,13.615-2.159,11.888-14.536a1.039,1.039,0,0,1,2.057-.287c2.015,14.433-13.488,16.855-13.644,16.878a1.021,1.021,0,0,1-.151.011" transform="translate(-235.199 -169.46)" fill="#fff"/>
            <path id="Path_5229" data-name="Path 5229" d="M708.049,545.044a1.036,1.036,0,0,1-.729-.3c-12.247-12.072-14.774-30.341-14.875-31.113a1.039,1.039,0,0,1,2.06-.271c.024.182,2.545,18.344,14.274,29.906a1.039,1.039,0,0,1-.729,1.778" transform="translate(-212.925 -157.581)" fill="#fff"/>
            <path id="Path_5230" data-name="Path 5230" d="M653.061,404.9a1.174,1.174,0,0,1,.949-1.11l30.355-9.458-2.633-6.255s-41.1-13.052-60.385,3.6,19.481,57.777,41.364,67.3l20.037-40.225-28.821-12.676a1.174,1.174,0,0,1-.866-1.175" transform="translate(-189.46 -117.838)" fill="#72005d"/>
            <path id="Path_5231" data-name="Path 5231" d="M767.975,248.3a41.8,41.8,0,1,1-41.8-41.8,41.8,41.8,0,0,1,41.8,41.8" transform="translate(-210.448 -63.499)" fill="#fff"/>
            <path id="Path_5232" data-name="Path 5232" d="M725.718,290.67a42.835,42.835,0,1,1,42.834-42.835,42.883,42.883,0,0,1-42.834,42.835m0-83.592a40.757,40.757,0,1,0,40.756,40.756,40.8,40.8,0,0,0-40.756-40.756" transform="translate(-209.987 -63.038)" fill="#536876"/>
            <path id="Path_5233" data-name="Path 5233" d="M759.378,255.163a26.332,26.332,0,1,1-26.332-26.332,26.332,26.332,0,0,1,26.332,26.332" transform="translate(-217.315 -70.366)" fill="#118bcb"/>
            <path id="Path_5234" data-name="Path 5234" d="M727.92,279.242a1.039,1.039,0,0,1-1-1.313,13.015,13.015,0,0,1,24.859-.781,1.039,1.039,0,1,1-1.965.674,10.938,10.938,0,0,0-20.891.655,1.037,1.037,0,0,1-1,.765" transform="translate(-223.516 -82.521)" fill="#fff"/>
            <path id="Path_5235" data-name="Path 5235" d="M729.2,256.872a1.031,1.031,0,0,1-.734-.3l-5.917-5.915a1.039,1.039,0,0,1,1.469-1.469l5.916,5.916a1.039,1.039,0,0,1-.735,1.773" transform="translate(-222.09 -76.53)" fill="#fff"/>
            <path id="Path_5236" data-name="Path 5236" d="M729.2,256.872a1.031,1.031,0,0,1-.734-.3l-5.917-5.915a1.039,1.039,0,0,1,1.469-1.469l5.916,5.916a1.039,1.039,0,0,1-.735,1.773" transform="translate(-222.09 -76.53)" fill="#fff"/>
            <path id="Path_5237" data-name="Path 5237" d="M723.281,256.872a1.039,1.039,0,0,1-.735-1.773l5.916-5.916a1.039,1.039,0,0,1,1.469,1.469l-5.916,5.915a1.033,1.033,0,0,1-.735.3" transform="translate(-222.09 -76.53)" fill="#fff"/>
            <path id="Path_5238" data-name="Path 5238" d="M763.2,256.872a1.031,1.031,0,0,1-.734-.3l-5.917-5.915a1.039,1.039,0,0,1,1.469-1.469l5.916,5.916a1.039,1.039,0,0,1-.735,1.773" transform="translate(-232.545 -76.53)" fill="#fff"/>
            <path id="Path_5239" data-name="Path 5239" d="M757.281,256.872a1.039,1.039,0,0,1-.735-1.773l5.916-5.916a1.039,1.039,0,0,1,1.469,1.469l-5.916,5.915a1.033,1.033,0,0,1-.735.3" transform="translate(-232.545 -76.53)" fill="#fff"/>
          </g>
        </g>
      </g>
    </g>
  </g>
</svg>
