<?xml version="1.0" encoding="UTF-8"?><svg id="Layer_2" xmlns="http://www.w3.org/2000/svg" xmlns:xlink="http://www.w3.org/1999/xlink" viewBox="0 0 583.18 582"><defs><style>.cls-1{fill:none;}.cls-2{clip-path:url(#clippath);}.cls-3{fill:#fff;}.cls-4{fill:#9fb6df;}.cls-5{fill:#a92b91;}.cls-6{fill:#ae3694;}.cls-7{fill:#1a8bcb;}.cls-8{fill:#701e5e;}.cls-9{fill:#a1ddf6;}.cls-10{fill:#9ad8f3;}.cls-11{fill:#5b72b7;}.cls-12{fill:#53bbe8;}.cls-13{fill:#5ec1ee;}.cls-14{clip-path:url(#clippath-1);}.cls-15{clip-path:url(#clippath-2);}.cls-16{opacity:.6;}</style><clipPath id="clippath"><rect class="cls-1" width="583.18" height="582"/></clipPath><clipPath id="clippath-1"><rect class="cls-1" width="583.18" height="582"/></clipPath><clipPath id="clippath-2"><rect class="cls-1" width="583.18" height="581.6"/></clipPath></defs><g id="Layer_1-2"><g id="Group_296" transform="translate(-1219.248 -275)"><g id="Group_295" transform="translate(1219.248 275)"><g class="cls-2"><g id="Group_294"><g id="Group_293"><g class="cls-14"><g id="Group_292"><g id="Group_291" class="cls-16"><g id="Group_290"><g class="cls-15"><g id="Group_289"><path id="Path_3097" class="cls-10" d="M345.24,0c-18.95-.03-191.89,2.6-286.39,144.54C8.55,220.1-25.2,343.66,24.1,410.98c14.56,19.88,22.19,15.51,100.02,62.56,106.84,64.59,106.34,81.22,150.56,96,57.58,19.24,142.65,19.2,206.37-28.05,72.31-53.61,83-142.69,93.71-231.92,10.51-87.56,21.16-176.28-34.74-241.63C482.07,.22,388.92,.07,345.24,0"/></g></g></g></g><path id="Path_3098" class="cls-7" d="M552.21,428.26l-334.5-46.52c-8.4-1.07-14.69-8.22-14.69-16.68l-4.59-233.31s7.62-5.5,11.95-7.6c2.28-1.11,4.85-1.53,7.37-1.21l333.5,42.53c8.4,1.07,14.69,8.22,14.69,16.68v229.16c0,3.91-1.74,7.62-4.77,10.1-2.67,2.19-8.96,6.85-8.96,6.85"/><path id="Path_3099" class="cls-3" d="M542,431.36l-333.5-42.53c-8.4-1.07-14.69-8.22-14.69-16.68V142.99c0-7.22,5.85-13.07,13.07-13.07,.55,0,1.11,.04,1.65,.11l333.5,42.53c8.4,1.07,14.69,8.22,14.69,16.68v229.16c0,7.22-5.85,13.07-13.07,13.07-.55,0-1.1-.04-1.65-.1"/><path id="Path_3100" d="M556.72,252.76c-.58,0-1.05-.47-1.05-1.05v-62.47c-.02-7.93-5.91-14.62-13.77-15.64l-57.72-7.36c-.58-.07-.99-.6-.92-1.17,.07-.58,.6-.99,1.17-.92h.01l57.72,7.36c8.92,1.15,15.6,8.74,15.61,17.73v62.47c0,.58-.47,1.05-1.05,1.05"/><path id="Path_3101" d="M193.81,194.73c-.58,0-1.05-.47-1.05-1.05v-50.69c0-7.8,6.33-14.13,14.13-14.13,.6,0,1.19,.04,1.78,.11l261.83,33.39c.58,.08,.98,.61,.91,1.19-.08,.57-.6,.98-1.17,.91l-261.83-33.39c-6.58-.84-12.6,3.82-13.44,10.4-.06,.5-.1,1.01-.1,1.52v50.69c0,.58-.47,1.05-1.05,1.05"/><path id="Path_3102" class="cls-12" d="M534.91,421.91l-318.44-40.61c-6.11-.78-10.68-5.98-10.68-12.13V148.13c0-4.82,3.91-8.73,8.73-8.73,.37,0,.74,.02,1.1,.07l318.44,40.61c6.11,.78,10.68,5.98,10.68,12.13v221.04c0,4.82-3.91,8.73-8.73,8.73-.37,0-.74-.02-1.1-.07"/><path id="Path_3103" d="M543.65,432.52c-.6,0-1.19-.04-1.79-.11l-13.38-1.71c-.58-.07-.99-.6-.92-1.17s.6-.99,1.17-.92h.01l13.38,1.71c6.58,.84,12.6-3.82,13.44-10.4,.06-.5,.1-1.01,.1-1.52V189.24c-.02-7.93-5.91-14.62-13.77-15.64l-12.98-1.66c-.58-.06-1.01-.57-.95-1.15,.06-.58,.57-1.01,1.15-.95,.02,0,.04,0,.07,0l12.98,1.66c8.92,1.15,15.6,8.74,15.61,17.73v229.16c0,7.8-6.32,14.12-14.12,14.12h0"/><path id="Path_3104" class="cls-7" d="M347.44,566.32L4.45,522.09c-2.43-.29-4.24-2.39-4.16-4.84,.02-1.55,.15-12.47,.15-12.47l181.36-103.68c9.09-5.19,20.84-7.19,31.22-5.86l338.66,43.69c2.04,.26,3.79,1.58,4.59,3.48l.54,1.28s-.29,9.1-.17,11.23c.12,1.8-.82,3.5-2.4,4.38l-176.8,101.09c-9.09,5.19-19.62,7.28-30,5.95"/><path id="Path_3105" class="cls-3" d="M347.44,554.17L5.67,510.02c-2.61-.33-4.46-2.72-4.13-5.33,.19-1.49,1.07-2.8,2.37-3.54l175.85-100.44c9.09-5.19,19.62-7.28,30-5.95l341.77,44.15c2.61,.33,4.46,2.72,4.12,5.33-.19,1.48-1.07,2.79-2.36,3.53l-175.86,100.44c-9.09,5.19-19.62,7.28-30,5.95"/><path id="Path_3106" class="cls-12" d="M414.35,498.42l-296.36-38.56c-2.36-.29-4.03-2.44-3.73-4.8,.17-1.35,.96-2.54,2.15-3.21l69.68-39.4c8.21-4.69,17.72-6.57,27.09-5.37l296.36,38.57c2.36,.29,4.03,2.44,3.73,4.8-.17,1.35-.96,2.54-2.15,3.21l-69.68,39.4c-8.21,4.69-17.72,6.57-27.09,5.37"/><path id="Path_3107" class="cls-11" d="M353.48,555.61c-2.06,0-4.13-.13-6.17-.39L5.54,511.07c-3.19-.41-5.44-3.32-5.03-6.51,.23-1.81,1.3-3.41,2.89-4.32l175.86-100.44c4.51-2.58,9.41-4.43,14.51-5.47,.57-.13,1.13,.22,1.27,.79,.13,.57-.22,1.13-.79,1.27-.02,0-.04,0-.06,.01-4.88,1-9.56,2.77-13.88,5.24L4.44,502.07c-1.78,1.02-2.39,3.29-1.37,5.06,.58,1.01,1.59,1.69,2.74,1.84l341.77,44.15c10.15,1.28,20.44-.76,29.34-5.82l175.86-100.43c.5-.3,1.15-.15,1.45,.35s.15,1.15-.35,1.45c-.02,.01-.04,.02-.05,.03l-175.85,100.44c-7.46,4.24-15.9,6.47-24.48,6.47"/><path id="Path_3108" class="cls-3" d="M385.21,54.08L140.76,22.32c-9.54-1.24-17.27,5.49-17.27,15.03V307.06c0,9.54,7.73,18.28,17.27,19.52l244.45,31.76c9.54,1.24,17.27-5.49,17.27-15.03V73.6c0-9.54-7.73-18.28-17.27-19.51"/><path id="Path_3109" class="cls-8" d="M402.6,85.72v-12.12c0-9.54-7.79-18.28-17.33-19.52L140.73,22.32c-9.54-1.24-17.36,5.49-17.36,15.03v13.81l279.22,34.57Z"/><path id="Path_3110" class="cls-3" d="M146.07,36.29c.06,2.1-1.59,3.85-3.69,3.9-.25,0-.49-.01-.74-.05-2.49-.37-4.36-2.48-4.43-5-.06-2.1,1.59-3.85,3.69-3.91,.25,0,.49,.01,.74,.05,2.49,.37,4.36,2.48,4.43,5"/><path id="Path_3111" class="cls-3" d="M163.79,38.59c.06,2.1-1.59,3.85-3.69,3.9-.25,0-.49-.01-.74-.05-2.49-.37-4.36-2.48-4.43-5-.06-2.1,1.59-3.85,3.69-3.91,.25,0,.49,.01,.74,.05,2.49,.37,4.36,2.48,4.43,5"/><path id="Path_3112" class="cls-3" d="M181.5,40.9c.06,2.1-1.59,3.85-3.69,3.9-.25,0-.49-.01-.74-.05-2.49-.37-4.36-2.48-4.43-5-.06-2.1,1.59-3.85,3.69-3.91,.25,0,.49,.01,.74,.05,2.49,.37,4.36,2.48,4.43,5"/><path id="Path_3113" class="cls-3" d="M388.98,68.91s-.09,0-.14,0l-24.95-3.24c-.58-.07-.99-.59-.93-1.17s.59-.99,1.17-.93h.03l24.95,3.25c.58,.08,.98,.61,.9,1.19-.07,.52-.51,.91-1.03,.91"/><path id="Path_3114" class="cls-3" d="M352.81,64.21s-.09,0-.14,0l-103.33-13.43c-.58-.06-1-.59-.93-1.16,.06-.58,.59-1,1.16-.93h.04l103.33,13.43c.58,.08,.98,.61,.9,1.19-.07,.52-.51,.91-1.03,.91"/><path id="Path_3115" class="cls-3" d="M222.32,47.25s-.09,0-.14,0l-22-2.86c-.58-.07-.99-.59-.93-1.17,.07-.58,.59-.99,1.17-.93h.03l21.99,2.86c.58,.08,.98,.61,.9,1.19-.07,.52-.51,.91-1.03,.91"/><path id="Path_3116" d="M207.77,336.79s-.1,0-.14-.01l-67.01-9.16c-10.02-1.3-18.18-10.53-18.18-20.56V37.34c-.09-4.69,1.87-9.18,5.37-12.3,3.61-3.11,8.39-4.48,13.1-3.77l221.71,28.81c.58,.09,.97,.63,.88,1.2-.08,.56-.59,.95-1.16,.89L140.62,23.36c-4.1-.63-8.28,.56-11.43,3.26-3.04,2.72-4.73,6.64-4.65,10.72V307.06c0,9.01,7.34,17.3,16.35,18.47l67.02,9.16c.58,.08,.98,.61,.9,1.19-.07,.52-.52,.91-1.04,.91"/><path id="Path_3117" d="M402.49,336.79c-.58,0-1.05-.47-1.05-1.05V116.29c0-.58,.48-1.05,1.06-1.05,.58,0,1.05,.47,1.05,1.05v219.44c0,.58-.47,1.05-1.05,1.05"/><path id="Path_3118" class="cls-5" d="M216.66,184.01c7.67-12.41,21.93-20.03,38.5-19.59l1.15-65.41c-47.6-6.03-89.62,15.34-108.75,52.49l69.1,32.51Z"/><path id="Path_3119" class="cls-3" d="M213.4,112.31c-.58,0-1.06-.47-1.06-1.05,0-.48,.32-.89,.78-1.02,10.96-2.98,22.31-4.22,33.66-3.69,.58,0,1.05,.49,1.04,1.07,0,.58-.49,1.05-1.07,1.04-.02,0-.04,0-.06,0-11.12-.52-22.26,.7-33.01,3.62-.09,.03-.19,.04-.28,.04"/><path id="Path_3120" class="cls-3" d="M175.48,132.66c-.58,0-1.05-.47-1.05-1.06,0-.3,.13-.59,.35-.79,8.25-7.32,17.73-13.12,28-17.14,.54-.23,1.16,.03,1.38,.56,.23,.54-.03,1.16-.56,1.38l-.04,.02c-10.04,3.93-19.31,9.6-27.38,16.75-.19,.17-.44,.27-.7,.27"/><path id="Path_3121" class="cls-5" d="M308.49,224.99c-3.9,21.03-23.52,35.42-47.57,33.04-7.07-.72-13.93-2.77-20.23-6.07l-37.52,53.22c17.63,10.33,37.38,16.5,57.76,18.05,59.94,4.35,107.06-34.65,112.29-88.29l-64.73-9.96Z"/><path id="Path_3122" class="cls-3" d="M260.39,314.85h-.08c-2.27-.16-4.57-.4-6.83-.69-12.69-1.66-25.05-5.27-36.64-10.7-.53-.23-.78-.86-.54-1.39,.23-.53,.86-.78,1.39-.54,.02,0,.03,.01,.05,.02,11.39,5.34,23.54,8.89,36.02,10.52,2.23,.29,4.48,.52,6.71,.68,.58,.06,1,.58,.93,1.16-.06,.52-.49,.92-1.01,.94"/><path id="Path_3123" class="cls-3" d="M284.08,314.06c-.58,0-1.06-.47-1.06-1.05,0-.53,.39-.98,.91-1.05,39.33-5.61,69.71-32.89,77.39-69.49,.12-.57,.68-.94,1.25-.82,.57,.12,.94,.68,.82,1.25-7.86,37.48-38.93,65.4-79.16,71.14-.05,0-.1,.01-.15,.01"/><path id="Path_3124" class="cls-5" d="M191.42,297.56l37.87-53.35c-11.33-9.86-18.61-23.86-18.61-38.66,0-3.46,.41-6.9,1.24-10.26l-69.36-32.26c-3.84,10.86-5.78,22.31-5.74,33.83,0,39.86,21.87,77.02,54.6,100.7"/><path id="Path_3125" class="cls-8" d="M276.66,164.73c21.89,6.1,38.72,25.25,40.72,46.48l105.85,16.82v-.13c0-77.65-61.87-152.14-144.68-171.45l-1.9,108.29Z"/><path id="Path_3126" class="cls-3" d="M503.2,359.16c6.29,.93,11,6.24,11.17,12.6v76.84c.14,5.31-4.05,9.72-9.36,9.86-.6,.02-1.21-.03-1.81-.12l-276.15-35.33c-6.29-.93-11-6.24-11.17-12.6v-76.84c-.14-5.31,4.05-9.72,9.36-9.86,.6-.02,1.21,.03,1.8,.12l276.15,35.33Z"/><path id="Path_3127" d="M215.88,411.47c-.58,0-1.05-.47-1.05-1.05v-76.84c-.06-3.14,1.26-6.15,3.6-8.24,2.41-2.08,5.61-3.01,8.75-2.55l209.31,27.37c.58,.08,.98,.62,.89,1.2-.08,.56-.6,.96-1.16,.9l-209.3-27.36c-2.55-.39-5.14,.36-7.1,2.04-1.88,1.69-2.94,4.13-2.88,6.66v76.84c0,.58-.47,1.05-1.05,1.05"/><path id="Path_3128" d="M504.65,459.49c-.53,0-1.06-.03-1.58-.1l-263.08-33.99c-.58-.07-.99-.6-.91-1.18,.07-.58,.6-.99,1.18-.91l263.08,33.99c2.55,.39,5.14-.36,7.1-2.03,1.88-1.69,2.94-4.13,2.88-6.66v-76.84c-.16-5.83-4.48-10.69-10.24-11.55l-34.73-4.44c-.58-.07-.99-.6-.91-1.18,.07-.58,.6-.99,1.18-.91h0l34.73,4.44c6.81,1.01,11.9,6.76,12.09,13.64v76.84c.15,5.86-4.47,10.73-10.33,10.88-.15,0-.29,0-.44,0"/><path id="Path_3129" class="cls-7" d="M475.81,388.96l-200.71-25.68c-2.94-.43-5.15-2.92-5.23-5.89-.06-2.48,1.9-4.55,4.38-4.62,.28,0,.57,.01,.84,.06l200.71,25.68c2.94,.43,5.15,2.92,5.23,5.9,.06,2.48-1.9,4.55-4.38,4.62-.28,0-.57-.01-.84-.06"/><path id="Path_3130" class="cls-7" d="M259.68,356.08c.06,2.48-1.9,4.55-4.38,4.61-.28,0-.56-.01-.84-.06-2.94-.43-5.15-2.92-5.23-5.89-.06-2.48,1.9-4.55,4.38-4.62,.28,0,.57,.01,.84,.06,2.94,.43,5.15,2.92,5.23,5.89"/><path id="Path_3131" class="cls-13" d="M475.81,411.47l-200.71-25.67c-2.94-.43-5.15-2.92-5.23-5.9-.06-2.48,1.9-4.55,4.38-4.62,.28,0,.57,.01,.84,.06l200.71,25.68c2.94,.43,5.15,2.92,5.23,5.9,.06,2.48-1.9,4.55-4.38,4.62-.28,0-.57-.01-.84-.06"/><path id="Path_3132" class="cls-13" d="M259.68,378.59c.06,2.48-1.9,4.55-4.38,4.62-.28,0-.57-.01-.84-.06-2.94-.43-5.15-2.92-5.23-5.9-.06-2.48,1.9-4.55,4.38-4.62,.28,0,.57,.01,.84,.06,2.94,.43,5.15,2.92,5.23,5.9"/><path id="Path_3133" class="cls-13" d="M475.81,433.98l-200.71-25.68c-2.94-.43-5.15-2.92-5.23-5.9-.06-2.48,1.9-4.55,4.38-4.62,.28,0,.57,.01,.84,.06l200.71,25.68c2.94,.43,5.15,2.92,5.23,5.9,.06,2.48-1.9,4.55-4.38,4.62-.28,0-.57-.01-.84-.06"/><path id="Path_3134" class="cls-13" d="M259.68,401.11c.06,2.48-1.9,4.55-4.38,4.62-.28,0-.57-.01-.84-.06-2.94-.43-5.15-2.92-5.23-5.9-.06-2.48,1.9-4.55,4.38-4.62,.28,0,.57,.01,.84,.06,2.94,.43,5.15,2.92,5.23,5.9"/><path id="Path_3135" class="cls-3" d="M396.83,18.64c-23.53,13.75-31.46,43.97-17.71,67.5,3.35,5.73,7.81,10.72,13.13,14.68,.22,.16,.44,.31,.66,.46l4.2,2.74c12.03,6.94,26.42,8.48,39.64,4.23,25.96-8.3,40.68-38.97,31.97-62.03-6.8-18-14.44-24.72-28.6-30.88-21.62-9.41-43.3,3.3-43.3,3.3"/><path id="Path_3136" class="cls-6" d="M420.59,89.23c-11.95-.1-23.85,1.43-35.39,4.55,2.14,2.35,4.5,4.49,7.05,6.39,.22,.16,.44,.31,.66,.46l4.2,2.74c19.4,11.4,44.13,7.71,59.34-8.87-11.64-3.48-23.72-5.25-35.87-5.27"/><path id="Path_3137" d="M421.19,111.04c-8.65-.04-17.13-2.37-24.59-6.76l-4.25-2.77c-.24-.16-.48-.32-.72-.5-2.6-1.94-5.01-4.12-7.2-6.52-.39-.43-.36-1.1,.07-1.49,.12-.11,.27-.19,.43-.24,11.63-3.15,23.63-4.7,35.67-4.59,12.25,.02,24.43,1.81,36.17,5.32,.56,.17,.88,.75,.71,1.31-.05,.16-.13,.3-.24,.42-5.68,6.17-12.85,10.78-20.82,13.39-4.92,1.6-10.06,2.42-15.24,2.43m-34-16.7c1.77,1.81,3.67,3.47,5.7,4.98,.2,.15,.4,.29,.61,.42l4.2,2.74c18.41,10.8,41.8,7.73,56.79-7.46-11.03-3.13-22.44-4.72-33.91-4.74-11.26-.11-22.49,1.26-33.4,4.06"/><path id="Path_3138" d="M453.15,57.48c-4.85-17.49-14.86-40.42-33.64-37.6-18.01,2.7-26.48,22.46-30.38,37.77-1.98,7.95,2.86,15.99,10.81,17.97,1.16,.29,2.35,.44,3.54,.44l35.25,.18c8.2,.05,14.89-6.55,14.94-14.74,0-1.36-.17-2.71-.53-4.02"/><path id="Path_3139" class="cls-3" d="M437.62,37.18s-.03-.12-.03-.12l-32.01-.24-.02,.08c-.43,1.64-.65,3.32-.66,5.02l-.05,9.37c-.1,5.91,2.64,11.5,7.38,15.03l-.13,24.46c-.07,4.87,3.82,8.87,8.68,8.94s8.87-3.82,8.94-8.68c0-.06,0-.11,0-.17l.13-24.1c5.08-3.43,8.1-9.18,8.05-15.31l.05-10.57c0-1.24-.11-2.48-.34-3.7"/><path id="Path_3140" d="M420.92,100.67h-.05c-5.45-.03-9.84-4.47-9.81-9.92h0l.12-23.73c0-.58,.47-1.05,1.05-1.05h0c.58,0,1.05,.48,1.05,1.06l-.12,23.73c-.02,4.28,3.43,7.78,7.71,7.8h.05c4.27,0,7.73-3.45,7.75-7.72l.12-23.82c0-.58,.47-1.05,1.05-1.05h0c.58,0,1.05,.48,1.05,1.06l-.12,23.82c-.03,5.43-4.44,9.81-9.86,9.81"/><path id="Path_3141" d="M421.42,58.84h-.04c-2.06-.01-4.02-.87-5.42-2.37-.4-.42-.38-1.09,.04-1.49,.42-.4,1.09-.38,1.49,.04h0c1,1.09,2.41,1.71,3.88,1.71h.03c1.47,0,2.88-.6,3.89-1.67,.4-.42,1.07-.44,1.49-.04,.42,.4,.44,1.07,.04,1.49h0c-1.4,1.49-3.37,2.34-5.42,2.33"/><path id="Path_3142" d="M421.37,70.35h-.09c-.58,0-1.05-.48-1.05-1.06s.48-1.05,1.06-1.05h.08c4.14-.02,8.08-1.79,10.86-4.86,2.99-3.26,4.64-7.53,4.62-11.95l.06-10.57c.05-8.98-6.61-16.32-14.83-16.37h-.08c-4.29,.02-8.37,1.85-11.25,5.03-3.1,3.37-4.8,7.79-4.79,12.37l-.05,9.37c-.14,6.43,3.34,12.4,9.02,15.44,.52,.26,.73,.89,.47,1.42-.26,.52-.89,.73-1.42,.47h0c-6.39-3.4-10.33-10.1-10.18-17.34l.05-9.37c-.02-5.11,1.9-10.04,5.35-13.8,3.3-3.63,7.98-5.7,12.88-5.7,9.39,.05,16.98,8.34,16.93,18.49l-.06,10.57c.01,4.95-1.84,9.73-5.19,13.37-3.17,3.5-7.67,5.51-12.4,5.53"/><path id="Path_3143" d="M421.15,110.93c-27.69-.02-50.12-22.49-50.1-50.18,.02-27.69,22.49-50.12,50.18-50.1,27.69,.02,50.12,22.49,50.1,50.18,0,3.73-.42,7.44-1.25,11.08-.13,.57-.7,.92-1.26,.79-.57-.13-.92-.7-.79-1.26,5.9-25.87-10.29-51.63-36.16-57.54s-51.63,10.29-57.54,36.16,10.29,51.63,36.16,57.54c20.24,4.62,41.16-4.29,51.86-22.08,.3-.5,.95-.66,1.45-.36,.5,.3,.66,.95,.36,1.45h0c-9.09,15.08-25.4,24.3-43.01,24.32"/><path id="Path_3144" class="cls-3" d="M435.22,263.2c.02-23.29,18.91-42.15,42.2-42.13,23.29,.02,42.15,18.91,42.13,42.2-.02,23.27-18.89,42.13-42.16,42.13-23.3,0-42.17-18.9-42.16-42.2h0"/><path id="Path_3145" d="M477.38,306.45c-23.91-.04-43.26-19.45-43.22-43.35,0-5.03,.89-10.02,2.61-14.74,.2-.55,.81-.83,1.35-.63,.55,.2,.83,.81,.63,1.35h0c-7.81,21.35,3.17,44.99,24.52,52.8,21.35,7.81,44.99-3.17,52.8-24.52,7.81-21.35-3.17-44.99-24.52-52.8-16.42-6-34.83-.98-45.93,12.52-.37,.45-1.04,.52-1.49,.15-.45-.37-.52-1.04-.15-1.49,15.18-18.43,42.42-21.07,60.86-5.9s21.07,42.42,5.9,60.86c-8.21,9.97-20.45,15.75-33.36,15.75"/><path id="Path_3146" class="cls-4" d="M448.46,293.88c16.23,15.34,41.62,15.34,57.85,0-18.87-5.64-38.98-5.64-57.85,0"/><path id="Path_3147" class="cls-3" d="M477.64,296.78h0c-3.68,0-6.66-2.98-6.66-6.66h0v-33.96h13.31v33.96c0,3.68-2.98,6.66-6.65,6.66"/><path id="Path_3148" d="M503.4,268.55c-.84-10.55,3.81-17.13-6.61-29.05-10.79-12.34-20.05-4.07-20.05-4.07,0,0-7.72-6.41-17.85,7-8.94,11.83,2.51,22.44-1.34,29.81s-16.9,11.39-16.9,11.39c0,0,4.18,8.37,9.37,12.06h55.05s11.38-12.39,11.38-15.91c0,0-12.21-.67-13.05-11.22"/><path id="Path_3149" class="cls-7" d="M448.46,293.88c16.23,15.34,41.62,15.34,57.85,0-18.87-5.64-38.98-5.64-57.85,0"/><path id="Path_3150" d="M477.38,306.45c-11.03,.01-21.64-4.21-29.65-11.8l-1.31-1.24,1.72-.54c19.07-5.7,39.4-5.7,58.47,0l1.72,.54-1.31,1.24c-8,7.59-18.62,11.81-29.65,11.8m-26.82-12.09c15.41,13.31,38.24,13.31,53.65,0-17.55-4.87-36.1-4.87-53.65,0"/><path id="Path_3151" class="cls-3" d="M478.28,245.11h-.46l-13.54,13.63v7.47c0,4.81,2.55,9.27,6.7,11.7v12.22c-.04,3.68,2.9,6.69,6.57,6.74,3.68,.04,6.69-2.9,6.74-6.57,0-.05,0-.11,0-.16v-11.99c4.37-2.37,7.09-6.95,7.09-11.93v-7.99c0-7.23-5.86-13.1-13.09-13.11h0"/><path id="Path_3152" d="M477.63,297.84c-4.26,0-7.71-3.46-7.71-7.72v-11.85c0-.58,.47-1.06,1.05-1.06s1.06,.47,1.06,1.05h0v11.85c0,3.09,2.51,5.6,5.6,5.6s5.6-2.51,5.6-5.6v-11.64c0-.58,.48-1.05,1.06-1.05,.58,0,1.05,.47,1.05,1.05v11.64c0,4.26-3.45,7.71-7.71,7.72"/><path id="Path_3153" d="M477.83,280.83c-.58,0-1.06-.47-1.06-1.05,0-.58,.47-1.06,1.05-1.06h0c6.9,0,12.5-5.61,12.5-12.51v-7.99c.02-6.45-5.06-11.77-11.51-12.04h-.11l-13.38,13.23v6.8c0,4.9,2.87,9.35,7.32,11.39,.53,.24,.77,.87,.53,1.4-.24,.53-.87,.77-1.4,.53h0c-5.21-2.39-8.55-7.58-8.56-13.31v-7.24c0-.28,.11-.55,.31-.75l14.01-13.86c.2-.19,.46-.3,.74-.3,.21,0,.42,0,.63,.01,7.58,.32,13.55,6.57,13.53,14.15v7.99c0,8.07-6.54,14.61-14.61,14.62"/><path id="Path_3154" class="cls-3" d="M433.93,158.53c.02-21.95,17.82-39.72,39.77-39.7,21.95,.02,39.72,17.82,39.7,39.77-.02,21.93-17.81,39.7-39.74,39.7-21.95,0-39.74-17.81-39.74-39.77"/><path id="Path_3155" class="cls-9" d="M445.7,187.45c15.39,14.54,39.45,14.54,54.84,0-17.89-5.34-36.95-5.34-54.84,0"/><path id="Path_3156" d="M485.92,135.3c-1.8-1.16-3.9-1.78-6.04-1.78h-12.61c-2.82,0-5.53,1.07-7.59,2.98l-.69,.64c-3.28,3.04-4.42,7.75-2.9,11.96l4.15,11.51,26.59-.17,3.75-12.57c1.42-4.76-.48-9.88-4.65-12.57"/><path id="Path_3157" class="cls-3" d="M479.56,140.42h-.03l-19.45,12.46v7.24c0,4.11,1.88,8,5.11,10.55v11.39c0,4.5,3.67,8.15,8.17,8.14,4.49,0,8.13-3.65,8.14-8.14v-11.08c3.46-2.53,5.51-6.57,5.51-10.86v-7.93c0-5.03-2.9-9.61-7.45-11.76"/><path id="Path_3158" d="M473.35,191.25c-5.08,0-9.2-4.12-9.21-9.21v-11.15h2.11v11.15c0,3.92,3.18,7.1,7.1,7.1s7.1-3.18,7.1-7.1v-10.8h2.11v10.8c0,5.08-4.13,9.2-9.21,9.21"/><path id="Path_3159" d="M473.55,174.63c-.58,0-1.05-.47-1.05-1.06s.47-1.05,1.05-1.05h0c6.85,0,12.4-5.56,12.41-12.4v-7.93c0-6.6-5.36-11.95-11.96-11.96h-12.85v19.88c0,4.86,2.85,9.28,7.27,11.3,.54,.23,.78,.85,.55,1.39-.23,.54-.85,.78-1.39,.55l-.04-.02c-5.18-2.36-8.5-7.53-8.51-13.22v-20.94c0-.58,.47-1.05,1.05-1.05h13.91c7.76,0,14.06,6.3,14.07,14.07v7.93c0,8.01-6.5,14.51-14.52,14.51"/><path id="Path_3160" d="M473.06,199.38c-.3,0-.6,0-.9,0-22.65-.49-40.62-19.24-40.13-41.9,.21-9.94,4.03-19.46,10.73-26.8,.39-.43,1.06-.46,1.49-.07,.43,.39,.46,1.06,.07,1.49-14.5,15.86-13.39,40.48,2.47,54.98,15.86,14.5,40.48,13.39,54.98-2.47s13.39-40.48-2.47-54.98c-7.64-6.99-17.75-10.64-28.09-10.15-.57,.03-1.07-.41-1.1-.98v-.02c-.03-.58,.42-1.07,1-1.1,22.63-1.12,41.88,16.32,43,38.95,1.12,22.63-16.32,41.88-38.95,43-.69,.03-1.39,.05-2.09,.05"/><path id="Path_3161" class="cls-3" d="M126.85,252.1c11.55,1.69,23.31-1.11,32.85-7.84,16.25-11.33,26.53-19.24,26.53-19.24,0,0,.03-6.23,3.51-8.84s5.54-11.49,8.27-11.43l-.98,10.07s8.26-4.01,12.48-6.46,7.12-.99,7.12-.99c0,0-14.63,18.49-19.34,20.2s-7.19,8.81-9.82,12.42l-2.63,3.61s-19.45,33.62-58,30.38v-21.87Z"/><path id="Path_3162" d="M131.98,275.24c-1.7,0-3.44-.07-5.22-.22-.55-.05-.97-.5-.97-1.05v-21.87c0-.58,.48-1.06,1.06-1.06,.07,0,.14,0,.21,.02,11.26,1.6,22.71-1.15,32.03-7.67,14.3-9.97,24.07-17.36,26.1-18.92,.09-1.66,.65-6.7,3.91-9.15,1.44-1.08,2.73-3.63,3.87-5.88,1.58-3.12,2.93-5.83,5.06-5.76,.58,.01,1.04,.5,1.03,1.08,0,.03,0,.05,0,.08l-.79,8.18c2.64-1.3,7.73-3.86,10.72-5.59,4.67-2.7,7.98-1.09,8.12-1.02,.52,.26,.73,.89,.47,1.41-.03,.07-.07,.13-.12,.19-1.52,1.92-14.96,18.77-19.81,20.54-3,1.09-5.12,4.87-6.99,8.2-.71,1.32-1.49,2.61-2.34,3.85l-2.6,3.57c-3.99,6.31-8.97,11.93-14.76,16.64-10.9,9.23-24.7,14.34-38.99,14.43m-4.08-2.25c36.77,2.52,55.84-29.6,56.03-29.93,.02-.03,.04-.06,.06-.09l2.63-3.61c.8-1.17,1.54-2.39,2.21-3.64,2.05-3.65,4.38-7.8,8.11-9.15,3.36-1.22,13.2-12.82,17.84-18.57-1.67-.07-3.32,.38-4.73,1.27-4.21,2.44-12.21,6.33-12.55,6.49-.52,.25-1.16,.04-1.41-.49-.08-.17-.12-.37-.1-.56l.75-7.69c-.68,1.1-1.31,2.23-1.87,3.39-1.31,2.58-2.66,5.24-4.49,6.61-3.02,2.27-3.09,7.95-3.09,8,0,.33-.15,.63-.41,.83-.1,.08-10.48,8.05-26.57,19.27-9.42,6.64-20.96,9.56-32.4,8.22v19.65Z"/><path id="Path_3163" class="cls-8" d="M138.11,249.57l-8.61,35.42s-17.98-2.82-18.9,4.98,1.44,32.82,2.42,41.81,2.59,20.02-8.79,22.88-52.85-5.83-63.71-1.05-14.72-.4-13.82-8.83,3.09-46.99,3.09-46.99l-7.61,25.42-20.74-2.26s4.58-55.63,32.12-66.27,39.67-11.11,60.24-9.36,34.91,6.68,44.3,4.24"/><path id="Path_3164" d="M62.03,201.51c-1.72,3.15-.81,7.09,2.11,9.18,3.25,2.27,6.94,5.56,9.05,9.82,4.38,8.84-.84,14.72-14.25,13.84s-13.83,1.23-25.97,7.23-17.23,2.68-17.48-8.15,11.5-24.1,17.05-26.14c.9-.43,1.75-.94,2.54-1.55,4.68-3.28,5.77-6.67,7.84-8.81,5.15-5.31,17.86-4.39,19.71-.07,.51,1.2,.39,2.74-.62,4.66"/><path id="Path_3165" d="M34.12,195.62c3.56,2.96,5.58,8.46,3.65,10.78s-7.08,.58-10.63-2.38-4.18-6.01-2.25-8.33,5.67-3.02,9.23-.07"/><path id="Path_3166" class="cls-3" d="M37.09,220.3c.82-.56,1.88-.64,2.78-.2,.28-1.74,.66-3.21,.66-3.21-.35-7.33,12.88-9.89,12.88-9.89h.51c1.65,2.15,3.1,4.46,4.31,6.89,.27,.57,.68,1.06,1.19,1.43l2.21,1.61c.72,.52,.88,1.53,.36,2.25-.02,.03-.05,.06-.07,.09l-1.27,1.5c2.94,9.17-2.5,10.13-2.5,10.13-.75,.19-1.52,.33-2.29,.42,1.81,4.9,6.45,13.78,16.5,14.62,.66,.05,1.16,.62,1.11,1.28-.02,.31-.16,.6-.4,.81-4.23,3.64-14.73,10.52-30.98,7.27-.76-.15-1.25-.88-1.1-1.64,.07-.33,.25-.63,.51-.84,3.23-2.6,7.33-9.08,2.53-24.42-.55-.36-1.04-.71-1.46-1.04-1.33,.95-3.58,.23-5.08-1.67-1.54-1.94-1.71-4.36-.39-5.41"/><path id="Path_3167" d="M50.31,257.2c-2.83,0-5.66-.29-8.44-.86-.93-.18-1.68-.89-1.9-1.82-.23-.94,.1-1.92,.86-2.52,2.8-2.26,6.8-8.23,2.29-22.92-.23-.15-.45-.31-.67-.47-1.78,.68-4.18-.21-5.81-2.26-.84-1.03-1.36-2.29-1.49-3.62-.15-1.24,.33-2.46,1.27-3.27h0c.74-.56,1.67-.8,2.59-.67,.18-.96,.37-1.71,.44-2.03-.2-8.02,13.16-10.7,13.73-10.81,.07-.01,.13-.02,.2-.02h.51c.33,0,.64,.16,.84,.42,1.7,2.21,3.18,4.57,4.42,7.06,.2,.41,.49,.77,.86,1.05l2.21,1.61c1.19,.86,1.45,2.53,.59,3.72-.04,.05-.08,.1-.12,.15l-.9,1.06c1.07,3.62,1,6.48-.22,8.51-.71,1.2-1.87,2.06-3.22,2.41-.35,.09-.7,.17-1.07,.23,2.05,4.92,6.48,12.01,15.13,12.73,.92,.07,1.7,.69,1.99,1.56,.29,.86,.02,1.8-.67,2.38-6.57,5.49-14.88,8.46-23.44,8.36m-7.75-30.88c.24,0,.47,.08,.65,.23,.41,.32,.89,.66,1.38,.98,.2,.13,.36,.33,.43,.57,5.06,16.14,.37,22.94-2.87,25.55-.12,.09-.17,.23-.13,.37,.03,.13,.13,.23,.26,.25,15.47,3.09,25.49-3.08,30.08-7.04,.04-.03,.06-.08,.04-.13-.02-.07-.08-.11-.15-.11-10.55-.88-15.43-9.97-17.41-15.31-.2-.55,.08-1.15,.62-1.36,.08-.03,.16-.05,.24-.06,.73-.08,1.45-.21,2.16-.39,.03,0,.05-.01,.07-.02,.79-.23,1.46-.76,1.86-1.48,.91-1.56,.85-4.08-.18-7.29-.11-.35-.03-.72,.2-1l1.27-1.5c.2-.24,.17-.59-.07-.78l-.03-.02-2.21-1.61c-.65-.48-1.17-1.1-1.51-1.83-1.1-2.2-2.4-4.3-3.87-6.27-1.6,.35-12.1,2.88-11.82,8.76,0,.11,0,.21-.03,.32,0,.01-.37,1.44-.64,3.11-.09,.57-.63,.97-1.21,.88-.07-.01-.15-.03-.22-.06-.55-.29-1.21-.27-1.74,.04-.38,.39-.56,.93-.48,1.47,.1,.9,.46,1.76,1.04,2.46,1.23,1.55,2.88,2.02,3.65,1.47,.18-.13,.39-.2,.61-.2"/><path id="Path_3168" d="M53.83,232.53c-4.43,0-6.31-2.3-6.39-2.41-.37-.45-.29-1.12,.16-1.48,.45-.37,1.12-.29,1.48,.16,.09,.11,1.93,2.18,6.6,1.47,.58-.09,1.12,.3,1.21,.88,.09,.58-.3,1.12-.88,1.21h-.01c-.72,.11-1.45,.17-2.17,.17"/><path id="Path_3169" class="cls-3" d="M77.28,531.52l-.66,24.44-8.63,.93-4.27-26.29,13.55,.92Z"/><path id="Path_3170" d="M67.99,557.94c-.52,0-.96-.38-1.04-.89l-4.27-26.3c-.09-.58,.3-1.12,.87-1.21,.08-.01,.16-.02,.24-.01l13.56,.93c.56,.04,1,.52,.98,1.08l-.66,24.44c-.01,.53-.42,.96-.94,1.02l-8.63,.93s-.08,0-.11,0m-3.01-26.21l3.9,24,6.72-.73,.6-22.5-11.22-.77Z"/><path id="Path_3171" class="cls-3" d="M126.25,539.54l1.38,19.46-11.4,.93-4.07-20.4h14.1Z"/><path id="Path_3172" d="M116.22,560.99c-.5,0-.94-.36-1.03-.85l-4.07-20.4c-.11-.57,.26-1.13,.83-1.24,.07-.01,.14-.02,.21-.02h14.1c.55,0,1.01,.43,1.05,.98l1.38,19.46c.04,.58-.39,1.08-.97,1.13l-11.4,.93h-.09m-2.78-20.4l3.64,18.21,9.43-.77-1.23-17.44h-11.83Z"/><path id="Path_3173" class="cls-3" d="M113.17,568.32c-.79-.53-1.28-1.41-1.3-2.36-.07-2.86-.08-8.94,1.07-11.22,1.53-3.03,7.83,1.2,7.83,1.2,0,0,3.69-5.11,5.85-6.19,1.12-.56,7.66,3.8,14.26,9.74,7.23,6.51,10.49,8.58,12.05,14.2,.62,2.34-.78,4.73-3.11,5.34-.27,.07-.54,.12-.81,.13-6.64,.47-20.04-.32-35.84-10.83"/><path id="Path_3174" d="M146.09,580.3c-7.37,0-19.53-1.81-33.5-11.11h0c-1.08-.72-1.74-1.92-1.77-3.21-.1-4.07,.01-9.41,1.18-11.73,.38-.78,1.09-1.34,1.92-1.55,2.12-.56,5.11,.95,6.59,1.81,1.18-1.55,3.79-4.8,5.65-5.73,2.82-1.41,14.92,9.44,15.43,9.9,1.14,1.02,2.18,1.94,3.13,2.77,5.22,4.59,7.84,6.9,9.24,11.92,.43,1.54,.13,3.2-.79,4.5-.94,1.34-2.44,2.19-4.07,2.31-.88,.06-1.89,.1-3,.1m-31.12-25.61c-.17,0-.34,.02-.5,.06-.25,.05-.47,.22-.57,.46-.74,1.46-1.09,5.47-.96,10.72,.01,.61,.32,1.17,.83,1.51h0c15.55,10.35,28.72,11.12,35.18,10.66,1-.07,1.92-.59,2.5-1.42,.56-.79,.74-1.79,.49-2.72-1.23-4.42-3.54-6.46-8.6-10.91-.95-.84-2-1.76-3.15-2.79-6.69-6.02-12.02-9.3-13.22-9.51-1.44,.83-4.01,3.95-5.33,5.79-.33,.46-.97,.58-1.44,.26-1.32-.88-3.73-2.11-5.23-2.11"/><path id="Path_3175" d="M142.79,575.09c-10.64-.06-20.93-3.76-29.17-10.49-.46-.36-.53-1.03-.17-1.48,.36-.46,1.03-.53,1.48-.17h0c16.74,13.36,34.23,9.47,34.4,9.43,.56-.15,1.14,.19,1.29,.75,.15,.56-.19,1.14-.75,1.29-.02,0-.04,0-.06,.01-2.31,.47-4.67,.69-7.03,.65"/><path id="Path_3176" class="cls-3" d="M80.69,561.9l-.13-13.38s-2.68-4.06-6.36-.76c0,0-3.4-4.77-9.71,1.18,0,0-8.88,16.56-12.81,26.4-.84,2.09,.17,4.46,2.25,5.3,.45,.18,.93,.28,1.41,.29,4.08,.09,9.35-.12,11.64-1.68,3.59-2.43,9.73-10.08,12.41-13.52,.85-1.09,1.31-2.45,1.29-3.83"/><path id="Path_3177" d="M56.96,582c-.53,0-1.08,0-1.65-.02-2.83-.07-5.06-2.43-4.99-5.26,.02-.61,.14-1.21,.37-1.78,3.91-9.79,12.78-26.34,12.86-26.51,.05-.1,.12-.19,.21-.27,2.52-2.38,4.96-3.47,7.26-3.24,1.21,.12,2.35,.62,3.27,1.42,.96-.71,2.16-1.03,3.35-.9,1.54,.3,2.91,1.19,3.79,2.49,.11,.17,.17,.37,.18,.57l.13,13.38c.01,1.62-.52,3.21-1.51,4.49-3.18,4.09-9.04,11.31-12.65,13.75-1.85,1.25-5.41,1.88-10.61,1.88m8.37-32.42c-.9,1.7-9.02,16.96-12.68,26.14-.38,.92-.27,1.97,.29,2.8,.54,.82,1.44,1.33,2.43,1.34,5.49,.12,9.41-.4,11.03-1.5,3.49-2.36,9.67-10.08,12.17-13.3,.7-.91,1.08-2.03,1.07-3.18l-.12-13.03c-.53-.69-1.29-1.17-2.14-1.34-.93-.04-1.83,.33-2.46,1.01-.43,.39-1.1,.35-1.49-.08-.03-.03-.05-.06-.07-.09-.64-.77-1.56-1.26-2.56-1.35-1.6-.14-3.48,.74-5.45,2.57"/><path id="Rectangle_476" d="M74.2,546.7h0c.58,0,1.05,.47,1.05,1.05h0v7.21c0,.58-.47,1.05-1.05,1.05h0c-.58,0-1.05-.47-1.05-1.05v-7.21c0-.58,.47-1.05,1.05-1.05h0Z"/><path id="Path_3178" d="M129.71,540.65s3.25-49.13-2.09-93.32-25.2-107.3-25.2-107.3c0,0-21.38-.97-36.93,1.12s-21.71-.06-21.71-.06c0,0-11.61,13.3-10.67,38.29s28.04,130.44,27.02,155.19c6.58,2.86,13.87,3.66,20.92,2.3l-4.89-142.1s10.12,29.25,14.87,49.29c2.15,9.45,5.72,18.52,10.59,26.91,0,0-.29,37.98,8.43,69.5,0,0,10.3,3.22,19.65,.18"/><path id="Path_3179" class="cls-3" d="M112.62,488.32c-.35,0-.67-.17-.87-.46l-7.46-10.86c-.33-.48-.21-1.14,.27-1.47,.48-.33,1.14-.21,1.47,.27h0l7.46,10.86c.33,.48,.21,1.14-.27,1.47-.18,.12-.38,.19-.6,.19"/><path id="Path_3180" class="cls-3" d="M62.45,461.92c-3.16,.1-6.27-.82-8.87-2.61-.48-.34-.59-.99-.25-1.47s.99-.59,1.47-.25l.04,.03c4.67,3.46,11.54,1.78,11.61,1.77,.56-.14,1.14,.2,1.28,.76,.14,.56-.2,1.14-.76,1.28h0c-1.48,.34-3,.51-4.52,.5"/><path id="Path_3181" class="cls-3" d="M43.57,348.91h56.78l-25.08-61.75H18.49l25.08,61.75Z"/><path id="Path_3182" d="M100.35,349.97H43.58c-.43,0-.82-.26-.98-.66l-25.08-61.75c-.22-.54,.04-1.16,.58-1.37,.13-.05,.26-.08,.4-.08h56.78c.43,0,.82,.26,.98,.66l25.08,61.75c.22,.54-.04,1.16-.58,1.37-.13,.05-.26,.08-.4,.08m-56.07-2.11h54.5l-24.22-59.64H20.06l24.22,59.64Z"/><path id="Path_3183" class="cls-3" d="M65.01,329.47s9.89-5.8,14.39-7.03,1.09,2.57-2.15,4.11-3.34,3.59-3.34,3.59c0,0,17.69-.57,19.68-.67s-.99,2.65-6.28,3.54c-.98,2.73-2.85,5.06-5.31,6.61-3.83,2.14-16.3,0-16.3,0,0,0-14.68,6.13-39,5.16-16.09-.64-23.98-13.58-22.95-22.8l15.49,1.44s6.45,14.55,45.77,6.05"/><path id="Path_3184" d="M31.96,345.93c-1.71,0-3.48-.04-5.3-.11-7.16-.12-13.94-3.24-18.69-8.59-3.87-4.5-5.84-10.25-5.26-15.37,.07-.57,.57-.98,1.15-.93l15.49,1.43c.38,.04,.71,.27,.87,.62,.06,.13,6.78,13.57,44.41,5.48,1.3-.76,10.17-5.86,14.49-7.05,.7-.19,2.85-.78,3.4,.72,.74,1.98-3.27,4.63-4.82,5.37-.8,.36-1.52,.88-2.11,1.53,4.49-.15,16.36-.54,17.94-.62,1.57-.08,1.71,1.06,1.72,1.19,.19,1.73-3.52,3.6-7.18,4.33-1.1,2.74-3.05,5.05-5.57,6.6-3.82,2.13-14.45,.54-16.69,.17-2.05,.8-14.24,5.23-33.86,5.23m-27.23-22.8c-.01,4.7,1.71,9.23,4.84,12.73,4.37,4.91,10.6,7.76,17.17,7.86,23.76,.95,38.41-5.02,38.55-5.08,.18-.08,.39-.1,.58-.07,3.37,.58,12.73,1.72,15.6,.12,2.23-1.42,3.92-3.54,4.82-6.02,.12-.37,.44-.65,.83-.71,1.52-.24,2.99-.7,4.38-1.36-5.11,.19-16.97,.57-17.57,.59-.3,.01-.58-.1-.79-.32-.21-.21-.31-.5-.3-.79,.01-.27,.24-2.72,3.93-4.49,1.15-.56,2.19-1.3,3.1-2.2-.07,.02-.14,.04-.22,.06-4.31,1.18-14.03,6.86-14.13,6.92-.1,.06-.2,.1-.31,.12-35.72,7.72-44.95-3.34-46.64-6.09l-13.86-1.29Z"/></g></g></g></g></g></g></g></g></svg>