<svg id="Group_986" data-name="Group 986" xmlns="http://www.w3.org/2000/svg" xmlns:xlink="http://www.w3.org/1999/xlink" width="538.916" height="270" viewBox="0 0 538.916 270">
  <defs>
    <clipPath id="clip-path">
      <rect id="Rectangle_1029" data-name="Rectangle 1029" width="538.916" height="270" fill="none"/>
    </clipPath>
    <clipPath id="clip-path-3">
      <rect id="Rectangle_1018" data-name="Rectangle 1018" width="538.916" height="268.915" fill="none"/>
    </clipPath>
  </defs>
  <g id="Group_985" data-name="Group 985" clip-path="url(#clip-path)">
    <g id="Group_984" data-name="Group 984">
      <g id="Group_983" data-name="Group 983" clip-path="url(#clip-path)">
        <g id="Group_982" data-name="Group 982" transform="translate(0 1.085)" opacity="0.6">
          <g id="Group_981" data-name="Group 981">
            <g id="Group_980" data-name="Group 980" clip-path="url(#clip-path-3)">
              <path id="Path_5773" data-name="Path 5773" d="M422.065,132C379.634,99.3,375.048,13.828,314.057,3.15,245.91-8.78,234.122,46.021,208.689,59.131,162.4,82.991,124.89,25.692,68.469,46.1-7.392,73.539-5,215.7,5.172,270.378l519.648-.191s25.577-39.633,7.824-72.573C512.714,160.63,459.665,160.973,422.065,132" transform="translate(0 -1.463)" fill="#98d8f4"/>
            </g>
          </g>
        </g>
        <path id="Path_5774" data-name="Path 5774" d="M225.2,154.995l-3.873,9.225-1.035.582-6.382-13.022-3.957-8.9-3.626-3.215h-3.379l-1.484,2.225v3.957l2.225,6.317,2.39,7.063-3.626-1.347-2.142.906-1.4,1.814-.577,1.566-.411.742a3.947,3.947,0,0,1-1.191.247c-.212-.082-1.943-.412-1.943-.412h-1.071l-1.4.825-.521,1.648a6.327,6.327,0,0,0-.633,1.151,6.969,6.969,0,0,1-.593,1.158h-2.127l-2.555.576-.824,3.511.577,2.917,2.39,3.873,3.049,3.24,3.873,3.684,11.786,1.813,19.533-1.4L228,164.555Z" transform="translate(-47.79 -36.068)" fill="#fff"/>
        <path id="Path_5775" data-name="Path 5775" d="M267.744,226.5,262.5,233.6l-31.332-47.078s1.777-13.809,2.746-16.877,2.261-6.217,2.18-8.64-1.575-4.987-4.32-4.26-4.916,5.471-4.982,5.713-.389,22.449-.389,22.449-1.534,2.5-2.907,2.5-28.1.162-28.1.162,7.025,5.169,7.268,5.491,3.8,9.448,3.8,9.448l10.74,25.6s24.548,41.587,29.393,47,11.709,5.976,13.889,5.571,9.448-2.907,11.467-4.441,17.119-14.858,17.119-14.858-1.7-10.175-1.05-12.6.808-9.125.808-9.125Z" transform="translate(-50.459 -40.447)" fill="#fff"/>
        <path id="Path_5776" data-name="Path 5776" d="M372.347,67.612s9.015.4,10.833-.6,11.85,4.231,14.431,6.887,7.38,11.453,8.107,17.56a54.132,54.132,0,0,1,.218,10.905L398.43,102l.453-4.871s-.945-9.6-3.2-14.613-3.126-7.125-9.087-9.742a64.213,64.213,0,0,0-12.8-3.812Z" transform="translate(-96.156 -17.273)" fill="#98d8f4"/>
        <path id="Path_5777" data-name="Path 5777" d="M332.8,198.172c-.218.073-8.506,3.2-13.3,8.07s-9.742,9.669-13.886,14.322-10.746,12.441-11.517,16.109c4.537,2.358,18.35,12.391,18.35,12.391l1.527,1.308s-.8,7.415-.945,11.341,2.254,11.487,4.217,16.721,5.365,12.531,7.38,20.448c2.344,9.215,1.472,12.487,1.472,12.487s41.532,8.315,41.968,8.315,58.016-.246,58.016-.246,14.685.582,17.3-3.49,5.853-12.943,4.235-19.776-4.453-31.915-4.453-31.915h1.745s-8.6-29.528-13.115-37.5-7.932-15.064-20.582-24.443c-9.488-6.543-11.6-6.543-11.6-6.543s-14.358,6-21.664,7.088-29.336,3.272-35.225,1.308-9.052-4.58-9.924-6" transform="translate(-75.947 -50.557)" fill="#118bcb"/>
        <path id="Path_5778" data-name="Path 5778" d="M420.528,294.489s-2.426-.218-2.222,1.527,3.476,11.614,3.476,11.778-.382,3.544-.382,3.544l-23.61-4.417s-14.252-2.3-15.459-3.114-3.625-8.5-7.224-9.482-30.963,8.661-31.453,10.633-.059,3.094.691,3.635c.929.671,4.386,1.346,4.386,1.346a4,4,0,0,0-3.613,2.216c-1.019,2.288-.5,2.236.1,3.272s4.307,2.411,4.362,2.575-2.782,2.369-2.4,3.678,5.01,3.4,6.918,3.453,12.767,3,16.312,3.162,11.569.709,11.569.709,19.139,5.126,22.629,6.271,29.675,5.8,31.632,6.392a68.5,68.5,0,0,0,14.007,1.3c3.108-.273,6.864-1.933,7.634-3.272s3.46-6,3.252-9.106-1.126-15.213-1.18-16.031-2.181-17.776-2.236-18.376-2.127-7.416-2.127-7.416Z" transform="translate(-88.693 -74.571)" fill="#fff"/>
        <path id="Path_5779" data-name="Path 5779" d="M345.829,279.4c-.054.374-1.245,7.082-1.245,7.082l2.018.382,1.672,13.432s11.752-.89,15.231-.345,10.742,1,10.742,1l.436-1.544,1.649-12.7,1.419-.516-1.432-6.888Z" transform="translate(-88.987 -72.127)" fill="#fff"/>
        <path id="Path_5780" data-name="Path 5780" d="M399.987,71.291c.145.218,4.267-1.053,9.8,3.436s7.964,5.143,9.55,9.105,3.959,7.889,4.492,13.85,1.2,15.57-.582,20.72-2.713,9.215-5.755,12.859-7.9,6.335-10.121,6.771a17.057,17.057,0,0,1-4.116.291l-.728-7.852a16.743,16.743,0,0,0,6.252,0c3.417-.654,7.2-1.745,8.725-6.18s2.763-8.288,2.036-11.123a37.446,37.446,0,0,0-5.816-10.833c-.289-5.525-.436-15.849-3.854-21.084a27.865,27.865,0,0,0-6.47-7.343Z" transform="translate(-103.294 -18.408)" fill="#fff"/>
        <path id="Path_5781" data-name="Path 5781" d="M428.464,92.832s2.69-5.162,9.6-3.781,10.251,2.763,12.286,7.271,3.649,9.015,3.206,14.1-3.788,11.706-4.151,17.158-2.151,8.37-.785,12.946,2.675,8.138,2.893,9.592.728,2.4-1.308,2.544a17.9,17.9,0,0,1-10.615-2.035c-4.818-2.544-8.848-5.608-9.888-7.78s-3.416-10.178-2.107-12.5,2.762-9.379,3.344-15.122a53.677,53.677,0,0,0-.727-14.686c-.582-2.617-1.745-7.706-1.745-7.706" transform="translate(-110.324 -22.936)" fill="#fff"/>
        <path id="Path_5782" data-name="Path 5782" d="M343.633,92.414s.679-10.1,5.3-15.519,10.861-8,14.367-8c9.453.033,15.487,2.65,19.049,6.212s8.725,10.469,8.8,16.576a68.107,68.107,0,0,1-.436,9.6l-6.4,2.819-1.6-5.219a49.376,49.376,0,0,0-17.23-6.09c.436-1.4.509-7.505.509-7.505s-3.9,2.776-5.089,4.58-2.055,2.274-2.328,2.147S343.531,93,343.531,93Z" transform="translate(-88.715 -17.793)" fill="#fff"/>
        <path id="Path_5783" data-name="Path 5783" d="M352.486,77.478c4.626-5.419,10.86-8,14.367-8a42.992,42.992,0,0,1,5.772.4,39.161,39.161,0,0,0-8.972-.986c-3.506,0-9.741,2.577-14.366,7.995s-5.305,15.521-5.305,15.521l-.1.581,3.322-.244c.131-1.505,1.061-10.327,5.284-15.274" transform="translate(-88.805 -17.793)" fill="#fff"/>
        <path id="Path_5784" data-name="Path 5784" d="M402.058,138.99a.873.873,0,0,1-.092-1.74c18.256-1.956,20.375-22.964,20.013-35.313-.53-18.085-9.377-28.454-27.048-31.7a.872.872,0,0,1-.7-1.015.885.885,0,0,1,1.015-.7c18.347,3.368,27.928,14.593,28.478,33.363.655,22.363-7.006,35.538-21.573,37.1a.8.8,0,0,1-.093.005" transform="translate(-101.804 -17.693)" fill="#2e2e2e"/>
        <path id="Path_5785" data-name="Path 5785" d="M358.606,124.8c.244-7.849-4.041-14.349-9.571-14.521s-10.209,6.051-10.453,13.9,4.041,14.349,9.571,14.521,10.21-6.052,10.453-13.9" transform="translate(-87.434 -28.479)" fill="#98d8f4"/>
        <path id="Path_5786" data-name="Path 5786" d="M348.077,139.276l-.254,0c-6-.188-10.674-7.106-10.416-15.421a18.427,18.427,0,0,1,3.419-10.454,9.752,9.752,0,0,1,7.933-4.291c6,.188,10.674,7.106,10.416,15.421a18.432,18.432,0,0,1-3.42,10.454c-2.087,2.778-4.806,4.294-7.678,4.294m.431-28.427a8.012,8.012,0,0,0-6.288,3.6,16.685,16.685,0,0,0-3.069,9.46c-.228,7.354,3.686,13.465,8.725,13.622,2.386.085,4.684-1.2,6.484-3.594a16.674,16.674,0,0,0,3.069-9.46c.228-7.354-3.686-13.464-8.725-13.621-.065,0-.131,0-.2,0" transform="translate(-87.13 -28.176)" fill="#2e2e2e"/>
        <path id="Path_5787" data-name="Path 5787" d="M346.417,97.994s-1.308,24.137-2.035,29.954,3.053,15.7,8.433,19.048,7.016,1.951,7.016,1.951,1.254,7.047.709,10.046S359.5,164.5,359.5,164.5s-8.615,3.653-13.2,6.162c6.071,9.779,36.422,7.612,39.659,6.289,1.737-.71,23.938-4.611,25.61-8.688-2.182-1.254-16.672-7.4-17.23-8.124-3.6-4.635-5.617-12.953-5.89-16.63s-1.145-9.325-1.145-9.325-2.945-22.247-3.435-23.991a50.31,50.31,0,0,1-.818-6.434s-10.96-5.416-17.012-5.762c-.382-1.763.163-7.488.163-7.488s-4.91,3.9-5.427,5.14a5.259,5.259,0,0,1-1.552,2.222c-.164,0-12.814.127-12.814.127" transform="translate(-88.911 -23.373)" fill="#fff"/>
        <path id="Path_5788" data-name="Path 5788" d="M362.195,152.254c-.571,0-1.058-.026-1.478-.062-7.03-.585-12.108-3.28-15.1-8.012-2.54-4.023-3.54-9.486-2.973-16.239l2.093-24.975a20.673,20.673,0,0,1,.3-2.321.883.883,0,0,1,1.022-.692.872.872,0,0,1,.691,1.022,19.342,19.342,0,0,0-.277,2.137l-2.093,24.975c-.533,6.366.378,11.466,2.71,15.16,2.68,4.245,7.312,6.668,13.765,7.206,1,.084,4.046.334,10.525-1.612a.872.872,0,1,1,.5,1.67,33.822,33.822,0,0,1-9.693,1.742" transform="translate(-88.447 -25.809)" fill="#2e2e2e"/>
        <path id="Path_5789" data-name="Path 5789" d="M405.995,139.623c-.224,0-.45-.01-.677-.029a7.962,7.962,0,0,1-3.371-1.061.872.872,0,1,1,.879-1.507,6.288,6.288,0,1,0,1.153-11.4.872.872,0,1,1-.557-1.653,7.861,7.861,0,0,1,3.239-.39,8.034,8.034,0,0,1-.666,16.039" transform="translate(-103.688 -31.907)" fill="#2e2e2e"/>
        <path id="Path_5790" data-name="Path 5790" d="M410.738,133.773c-.027,0-.056,0-.084,0a.873.873,0,0,1-.786-.952,2.824,2.824,0,0,0-.747-2.3,2.774,2.774,0,0,0-2.27-.705.86.86,0,0,1-.958-.777.873.873,0,0,1,.778-.958,4.454,4.454,0,0,1,3.678,1.2,4.557,4.557,0,0,1,1.255,3.7.871.871,0,0,1-.867.789" transform="translate(-104.818 -33.068)" fill="#2e2e2e"/>
        <path id="Path_5791" data-name="Path 5791" d="M437.054,315.127a.842.842,0,0,1-.16-.016c-.311-.058-31.243-5.8-41.611-7.889-2.931-.591-4.218-2.908-5.581-5.364a18.908,18.908,0,0,0-3.692-5.136.873.873,0,0,1,1.177-1.288,20.6,20.6,0,0,1,4.041,5.577c1.262,2.273,2.259,4.069,4.4,4.5,10.355,2.082,41.273,7.828,41.585,7.886a.872.872,0,0,1-.159,1.73" transform="translate(-99.611 -76.235)" fill="#2e2e2e"/>
        <path id="Path_5792" data-name="Path 5792" d="M447.4,314.5a.873.873,0,0,1-.849-.676l-3.785-16.388a.872.872,0,1,1,1.7-.392l3.786,16.389a.874.874,0,0,1-.655,1.046.849.849,0,0,1-.2.022" transform="translate(-114.335 -76.534)" fill="#2e2e2e"/>
        <path id="Path_5793" data-name="Path 5793" d="M461.078,343.331c-19.186,0-66.343-13.3-68.645-13.955a.873.873,0,0,1,.475-1.68c22.3,6.325,66.462,17.183,73.992,13.037a10.829,10.829,0,0,0,4.778-7.382c2.376-13.07-3.891-42.619-4.514-44.832a.873.873,0,1,1,1.68-.474c.632,2.245,6.981,32.251,4.55,45.62a12.636,12.636,0,0,1-5.651,8.595c-1.355.748-3.672,1.072-6.666,1.072" transform="translate(-101.18 -74.222)" fill="#2e2e2e"/>
        <path id="Path_5794" data-name="Path 5794" d="M286.555,237.172a.873.873,0,0,1-.735-1.341c11.3-17.724,23.247-34.619,45.062-46.5,1.755-.956,10.8-5.254,12.579-6.1,1.018-2.394,1.215-7.046.582-13.84a.873.873,0,0,1,.789-.949.887.887,0,0,1,.949.788c.444,4.775.837,11.528-.875,15.036l-.134.274-.277.131c-.108.051-10.916,5.172-12.779,6.188-21.48,11.7-32.827,27.71-44.425,45.905a.875.875,0,0,1-.737.4m57.568-53.286h0Z" transform="translate(-73.776 -43.499)" fill="#2e2e2e"/>
        <path id="Path_5795" data-name="Path 5795" d="M332.661,326.267h-.021a.873.873,0,0,1-.851-.895c.145-5.853-1.095-12.371-3.9-20.514-1.091-3.164-2.363-6.154-3.591-9.048-2.6-6.114-5.055-11.89-5.424-18.333-.56-9.755,2.316-18.825,5.1-27.6a.872.872,0,0,1,1.663.528c-2.733,8.621-5.56,17.535-5.019,26.97.352,6.14,2.749,11.78,5.287,17.75,1.241,2.919,2.524,5.939,3.635,9.161,2.878,8.346,4.148,15.059,4,21.127a.873.873,0,0,1-.872.85" transform="translate(-82.328 -64.373)" fill="#2e2e2e"/>
        <path id="Path_5796" data-name="Path 5796" d="M368.765,205.807c-6.277,0-11.966-.683-16.209-2.239-3.9-1.426-6.349-3.5-7.291-6.168a.872.872,0,1,1,1.644-.583c.762,2.154,2.863,3.873,6.248,5.114,14.423,5.289,46.1.192,59.217-7.465a.872.872,0,1,1,.879,1.506c-9.576,5.591-28.851,9.836-44.488,9.836" transform="translate(-89.149 -50.188)" fill="#2e2e2e"/>
        <path id="Path_5797" data-name="Path 5797" d="M366.485,257.364a.226.226,0,0,1-.389.205c-4.93-6.15-2.187-11.484-.787-17.862,1.372-6.25-.264-13.073-4.1-16.161a.226.226,0,0,1,.168-.4c8.708,1.616,11.939,10.507,8.961,18.187-2.926,7.547-5.414,9.975-3.852,16.035" transform="translate(-93.257 -57.624)" fill="#fff"/>
        <path id="Path_5798" data-name="Path 5798" d="M254.686,286.77a23.641,23.641,0,0,1-9.413-2.016c-1.291-.555-9.46-6.665-15.5-13.809l-.057.024-2.453-5.7.022.027L198.7,198.549c-6.048-3.256-12.079-10.471-13.792-13.664-1.889-3.519-1.573-6.506.889-8.409a4.054,4.054,0,0,1,3.109-.765,4.687,4.687,0,0,1,3.058,1.762l3.2,4.769a6.168,6.168,0,0,0,3.97,2.75,2.629,2.629,0,0,0,2.016-.46c1.3-1.058,1.865-2.287.375-4.844a.873.873,0,0,1,1.508-.879c1.713,2.943,1.458,5.257-.782,7.076a4.308,4.308,0,0,1-3.357.835,7.906,7.906,0,0,1-5.169-3.491l-3.192-4.759a2.917,2.917,0,0,0-1.876-1.031,2.323,2.323,0,0,0-1.791.418c-1.759,1.36-1.9,3.447-.42,6.2,1.6,2.987,7.6,10.115,13.338,13.086l.277.145,31.075,72.566c5.961,7.027,13.9,12.881,14.829,13.293,7.98,3.425,14.24,1.581,19.312-.673,5.419-2.408,13.78-10.355,17.8-14.173a19.48,19.48,0,0,1,2.667-2.385.873.873,0,0,1,.817,1.542c-.24.169-1.232,1.111-2.282,2.108-4.089,3.887-12.6,11.973-18.293,14.5a27.539,27.539,0,0,1-11.3,2.7" transform="translate(-47.436 -45.364)" fill="#2e2e2e"/>
        <path id="Path_5799" data-name="Path 5799" d="M268.979,240.962a.867.867,0,0,1-.725-.387l-39.061-58.18.044-.328c.071-.543,1.785-13.372,4-19.651,1.39-3.938,1.435-7.656.108-9.04a2.407,2.407,0,0,0-2.636-.383c-3.063.938-5.1,6.666-6.593,10.85l-.14.39a1.643,1.643,0,0,1-3.19.218c-2.42-4.633-4.086-8.667-5.556-12.226a66.5,66.5,0,0,0-3.827-8.276c-1.219-2.052-2.572-3.3-3.908-3.624a2.817,2.817,0,0,0-2.192.355c-1.986,1.256-1.779,2.641-.113,7.562a73.484,73.484,0,0,0,3.356,8.044,23.005,23.005,0,0,1,1.356,3.193l.185.7-.659.458-.653.308-.524-.656A4.231,4.231,0,0,0,203.348,159a3.377,3.377,0,0,0-1.92,4.376l.174.632-.6.462a.968.968,0,0,1-1.164-.111,3.62,3.62,0,0,0-4.207-.732c-1.28.749-1.742,2.375-1.266,4.459a.872.872,0,1,1-1.7.389c-.648-2.833.131-5.209,2.084-6.354a5.04,5.04,0,0,1,4.741-.079,5.078,5.078,0,0,1,3.038-4.582,5.475,5.475,0,0,1,4.6-.09c-.052-.111-.105-.221-.159-.337a74.956,74.956,0,0,1-3.432-8.23c-1.522-4.5-2.527-7.469.834-9.6a4.588,4.588,0,0,1,3.531-.577c1.831.438,3.513,1.929,5,4.428a67.809,67.809,0,0,1,3.939,8.5c1.455,3.526,3.106,7.521,5.489,12.083l0,0,.138-.386c1.7-4.785,3.824-10.74,7.727-11.935,2.3-.7,3.667.075,4.407.846,1.848,1.929,1.955,6.078.278,10.827-1.966,5.567-3.589,16.91-3.874,18.976L269.7,239.6a.872.872,0,0,1-.723,1.358" transform="translate(-49.697 -35.766)" fill="#2e2e2e"/>
        <path id="Path_5800" data-name="Path 5800" d="M413.928,128.075c1.007-7.787-2.623-14.675-8.11-15.385s-10.75,5.027-11.758,12.814,2.624,14.675,8.11,15.385,10.751-5.027,11.758-12.814" transform="translate(-101.72 -29.086)" fill="#98d8f4"/>
        <path id="Path_5801" data-name="Path 5801" d="M407.593,141.9l-.258-.022c-1.105-.092-1.983-.141-2.752-.185-1.045-.06-1.9-.109-2.831-.23-2.943-.381-5.482-2.333-7.151-5.5a18.441,18.441,0,0,1-1.713-10.866c.912-7.046,5.309-12.739,10.453-13.536l.5-.062a.859.859,0,0,1,.972.76.871.871,0,0,1-.759.971l-.473.058c-4.367.676-8.148,5.739-8.962,12.034a16.689,16.689,0,0,0,1.526,9.828c1.4,2.647,3.467,4.273,5.83,4.579.895.116,1.708.162,2.707.22.719.041,1.529.087,2.527.167,2.679-1.619,4.744-6.238,5.548-12.447.534-4.123.889-11.428-2.736-14.012a.873.873,0,0,1,1.014-1.421c4.146,2.957,4.166,10.147,3.454,15.658-.432,3.328-1.943,11.342-6.668,13.883Z" transform="translate(-101.416 -28.792)" fill="#2e2e2e"/>
        <path id="Path_5802" data-name="Path 5802" d="M419.579,128.706c1.007-7.787-2.623-14.675-8.11-15.385s-10.75,5.026-11.758,12.814,2.624,14.675,8.11,15.384,10.751-5.026,11.758-12.813" transform="translate(-103.179 -29.249)" fill="#98d8f4"/>
        <path id="Path_5803" data-name="Path 5803" d="M408.424,142.148a7.858,7.858,0,0,1-1.018-.065c-5.956-.772-9.931-8.111-8.863-16.363a18.43,18.43,0,0,1,4.422-10.071c2.418-2.635,5.362-3.869,8.314-3.5s5.481,2.333,7.149,5.5a18.431,18.431,0,0,1,1.713,10.867c-1.007,7.777-6.142,13.631-11.717,13.631m1.82-28.317a8.268,8.268,0,0,0-5.994,3,16.673,16.673,0,0,0-3.976,9.116c-.945,7.3,2.355,13.76,7.356,14.407,4.978.637,9.835-4.763,10.78-12.061a16.673,16.673,0,0,0-1.526-9.828c-1.4-2.646-3.466-4.273-5.829-4.578a6.073,6.073,0,0,0-.811-.053m9.032,14.573h0Z" transform="translate(-102.876 -28.946)" fill="#2e2e2e"/>
        <path id="Path_5804" data-name="Path 5804" d="M384.133,105.646a.872.872,0,0,1-.8-.528,20.528,20.528,0,0,1-1.57-6.77,35.69,35.69,0,0,0-16.753-5.335l-.8-.055-.01-.806a35.414,35.414,0,0,1,.528-6.229,12.262,12.262,0,0,0-4.152,4.994,9.669,9.669,0,0,1-.694,1.193l-.28.373-.464-.025c-6.7-.355-11.49.008-15.55,1.176l-1.186.341.074-1.232c.556-9.273,3.53-15.953,9.357-21.017a22.761,22.761,0,0,1,10.033-4.64.873.873,0,0,1,.366,1.707,21.016,21.016,0,0,0-9.254,4.248c-5.2,4.517-7.969,10.449-8.672,18.6a50.255,50.255,0,0,1,14.415-.947c.095-.171.2-.368.312-.586a13.363,13.363,0,0,1,5.9-6.3,1.206,1.206,0,0,1,1.33.148,1.248,1.248,0,0,1,.415,1.293,28.68,28.68,0,0,0-.72,6.092,35.813,35.813,0,0,1,17.21,5.865l.378.277-.022.467a18.148,18.148,0,0,0,1.421,6.485.871.871,0,0,1-.8,1.216" transform="translate(-88.421 -17.32)" fill="#2e2e2e"/>
        <path id="Path_5805" data-name="Path 5805" d="M404.234,102.209c-.024,0-.048,0-.073,0a.872.872,0,0,1-.8-.941c.938-11.381-1.279-26.194-17.166-32.15-3.612-1.351-7.6-1.561-12.472-1.471a43.861,43.861,0,0,0-7.666,1.275.872.872,0,1,1-.479-1.677A44.669,44.669,0,0,1,373.65,65.9c4.423-.082,9.061.045,13.158,1.581,17.8,6.669,19.1,24.118,18.295,33.926a.873.873,0,0,1-.869.8" transform="translate(-94.245 -17.014)" fill="#2e2e2e"/>
        <path id="Path_5806" data-name="Path 5806" d="M430.458,260.194l-4.9-15.252a.873.873,0,0,1,1.662-.533l4.434,13.816,39.98-6.717-.087-.337c-3.565-13.782-5.919-22.886-11.818-34.33-9.782-18.976-15.813-24.723-35.855-34.154-2.406-1.131-4.707-2.031-6.739-2.825-3.669-1.433-6.568-2.566-8.518-4.357-4.583-4.211-6.175-15.227-6.7-23.728l-.116-1.728a.872.872,0,0,1,.812-.929.859.859,0,0,1,.929.813l.116,1.731c.719,11.568,2.9,19.576,6.142,22.555,1.708,1.569,4.473,2.65,7.972,4.016,2.057.8,4.388,1.716,6.847,2.873,20.257,9.532,26.768,15.734,36.662,34.932,5.989,11.619,8.363,20.8,11.958,34.693l.564,2.179Z" transform="translate(-103.762 -38.508)" fill="#2e2e2e"/>
        <path id="Path_5807" data-name="Path 5807" d="M313.57,265.641a.864.864,0,0,1-.507-.163l-20.43-14.625a.872.872,0,1,1,1.015-1.418l20.43,14.625a.872.872,0,0,1-.509,1.581" transform="translate(-75.476 -64.372)" fill="#2e2e2e"/>
        <path id="Path_5808" data-name="Path 5808" d="M448.422,152.937a24.106,24.106,0,0,1-16.79-6.421,19.975,19.975,0,0,1-6.028-14.823.873.873,0,0,1,.872-.869h0a.872.872,0,0,1,.869.876,18.267,18.267,0,0,0,5.5,13.562,22.472,22.472,0,0,0,16.523,5.911A.745.745,0,0,0,450,150.8a.841.841,0,0,0,.03-.8c-5.017-10.1-2.179-20.834.1-29.458,1.064-4.021,2.067-7.819,2.132-10.944.215-10.411-4.905-16.727-9.77-19.165-5.005-2.5-9.012-1.919-13.832,2.028a.873.873,0,0,1-1.106-1.35c5.3-4.34,10.146-5.028,15.721-2.239,5.34,2.677,10.963,9.537,10.732,20.762-.07,3.333-1.1,7.228-2.19,11.353-2.32,8.776-4.95,18.722-.226,28.235a2.578,2.578,0,0,1-.093,2.475,2.507,2.507,0,0,1-2.064,1.228c-.337.012-.675.019-1.01.019" transform="translate(-109.91 -22.518)" fill="#2e2e2e"/>
        <path id="Path_5809" data-name="Path 5809" d="M347.758,299.588a.872.872,0,0,1-.867-.791l-.911-9.612a.872.872,0,1,1,1.736-.164l.911,9.612a.872.872,0,0,1-.786.95c-.028,0-.056,0-.084,0" transform="translate(-89.346 -74.434)" fill="#2e2e2e"/>
        <path id="Path_5810" data-name="Path 5810" d="M385.284,301.95a.839.839,0,0,1-.1-.005.873.873,0,0,1-.772-.963l1.371-12.563a.863.863,0,0,1,.961-.772.873.873,0,0,1,.773.963l-1.371,12.563a.872.872,0,0,1-.866.777" transform="translate(-99.272 -74.281)" fill="#2e2e2e"/>
        <path id="Path_5811" data-name="Path 5811" d="M378.5,286.881H343.538l1.3-8.942h32.3Zm-32.94-1.745h30.91l-.826-5.453H346.349Z" transform="translate(-88.717 -71.776)" fill="#2e2e2e"/>
        <path id="Path_5812" data-name="Path 5812" d="M396.143,101.822h-.061a.875.875,0,0,1-.811-.931c.705-10.266-1.481-23.717-15.9-29.494a27.031,27.031,0,0,0-16.186-1.2.872.872,0,1,1-.458-1.683c6.2-1.687,13-.457,17.293,1.262,15.4,6.166,17.742,20.388,17,31.232a.874.874,0,0,1-.87.813" transform="translate(-93.505 -17.486)" fill="#2e2e2e"/>
        <path id="Path_5813" data-name="Path 5813" d="M211.534,180.612c-2.618,0-4.62-2.426-6.272-4.943l-2.868-4.361,1.457-.958,2.869,4.361c3.052,4.646,4.715,4.442,6.036,3.883a1.6,1.6,0,0,0,.82-1.05c.553-1.651.2-5.313-2.626-10.2a.873.873,0,0,1,1.512-.872c2.6,4.5,3.662,8.956,2.769,11.625a3.294,3.294,0,0,1-1.794,2.1,4.827,4.827,0,0,1-1.9.412" transform="translate(-52.267 -42.878)" fill="#2e2e2e"/>
        <path id="Path_5814" data-name="Path 5814" d="M193.219,192.486c-1.789,0-3.65-1.122-5.534-3.335a.873.873,0,0,1,1.329-1.131c1.563,1.839,3.039,2.79,4.325,2.719a2.534,2.534,0,0,0,1.939-1.182c.369-.528.932-2.225-1.774-6.56a.872.872,0,0,1,1.481-.923c2.394,3.836,2.974,6.69,1.725,8.482a4.237,4.237,0,0,1-3.286,1.926c-.068,0-.137.005-.205.005" transform="translate(-48.415 -46.913)" fill="#2e2e2e"/>
        <path id="Path_5815" data-name="Path 5815" d="M354.262,326.49a.885.885,0,0,1-.145-.012c-.748-.126-1.483-.237-2.193-.346-2.807-.424-5.231-.793-6.792-1.806a3.728,3.728,0,0,1-1.892-4.243c.383-2.28,2.994-3.795,5.956-3.431,6.045.722,15.787,2.676,15.885,2.694a.873.873,0,0,1-.344,1.711c-.1-.019-9.771-1.958-15.748-2.674-1.99-.235-3.8.653-4.027,1.989a2.033,2.033,0,0,0,1.122,2.492c1.244.807,3.5,1.148,6.1,1.544.719.109,1.463.222,2.22.349a.872.872,0,0,1-.144,1.733" transform="translate(-88.617 -81.76)" fill="#2e2e2e"/>
        <path id="Path_5816" data-name="Path 5816" d="M353.689,307.587a.982.982,0,0,1-.139-.01c-1.958-.315-4.516-1.018-5.577-2.588a2.733,2.733,0,0,1-.413-2.184,2.978,2.978,0,0,1,1.44-2.368c2.327-1.541,7.264-1.2,16.513,1.14,6.146,1.554,10.267,2.124,10.307,2.131a.872.872,0,0,1,.745.981.86.86,0,0,1-.982.747,104.345,104.345,0,0,1-10.5-2.17c-5.344-1.349-12.722-2.961-15.121-1.374-.462.306-.481.318-.7,1.3a.988.988,0,0,0,.156.823c.547.807,2.153,1.479,4.408,1.84a.873.873,0,0,1-.137,1.734" transform="translate(-89.736 -77.343)" fill="#2e2e2e"/>
        <path id="Path_5817" data-name="Path 5817" d="M381.12,339.633h-.013c-13.782-.2-26.8-3.13-30.7-4.654-2.336-.912-3.754-3.225-3.228-5.269.2-.77,1.207-3.22,5.907-2.607,6.51.862,12.272,1.894,12.329,1.9a.873.873,0,1,1-.309,1.718c-.057-.01-5.78-1.036-12.249-1.891-2.21-.293-3.7.2-3.988,1.31a3.08,3.08,0,0,0,2.172,3.209c3.8,1.482,16.532,4.335,30.092,4.534a.872.872,0,0,1-.013,1.745" transform="translate(-89.629 -84.447)" fill="#2e2e2e"/>
        <path id="Path_5818" data-name="Path 5818" d="M348.989,316h-.047c-.459-.024-4.532-.31-6.129-2.681a4.2,4.2,0,0,1-.44-3.063,4.073,4.073,0,0,1,1.89-2.667c1.975-1.219,15.926,1.554,21.831,2.8a.873.873,0,1,1-.361,1.708c-9.095-1.924-19.275-3.582-20.579-3.012a2.328,2.328,0,0,0-1.075,1.537,2.564,2.564,0,0,0,.181,1.718c.95,1.411,3.77,1.86,4.776,1.915a.872.872,0,0,1-.046,1.743" transform="translate(-88.388 -79.354)" fill="#2e2e2e"/>
        <path id="Path_5819" data-name="Path 5819" d="M316.747,333.421s3.49-1.308,3.49-3.6.109-4.907-9.488-4.689-69.9-.036-69.9-.036L222.524,252.94s.872-4.253-4.726-4.253-107.308-.145-107.308-.145-2.992,1.355-2.92,3.536,19.714,79.708,19.714,79.708a4.608,4.608,0,0,0,2.545,1.381c1.527.218,186.917.254,186.917.254" transform="translate(-27.779 -64.184)" fill="#72005d"/>
        <path id="Path_5820" data-name="Path 5820" d="M237.432,333.931H130.124c-1.672,0-3.807-.751-4.493-4.331l-19.183-77.335a3.654,3.654,0,0,1,.6-3.128,4.776,4.776,0,0,1,3.862-1.576H218.239c3.365,0,4.2,3.217,4.479,4.275l18.04,72.727a.872.872,0,1,1-1.693.419l-18.037-72.717c-.679-2.607-1.791-2.96-2.788-2.96H110.93a3.242,3.242,0,0,0-2.514.91,1.927,1.927,0,0,0-.268,1.658l19.186,77.353c.5,2.63,1.754,2.96,2.789,2.96H237.432a.872.872,0,1,1,0,1.745" transform="translate(-27.461 -63.931)" fill="#2e2e2e"/>
        <path id="Path_5821" data-name="Path 5821" d="M362.2,360.578H291.791a.872.872,0,1,1,0-1.745H362.2a3.167,3.167,0,0,0,3.163-3.163c0-1.859-1.544-3.166-3.755-3.178H286.256a.873.873,0,0,1,0-1.745h75.358c3.187.017,5.5,2.088,5.5,4.923a4.913,4.913,0,0,1-4.907,4.907" transform="translate(-73.699 -90.578)" fill="#2e2e2e"/>
        <path id="Path_5822" data-name="Path 5822" d="M185.821,311.374c-2.971-5.146-1.964-11.291,2.25-13.723s10.039-.234,13.01,4.913,1.963,11.291-2.251,13.724-10.038.233-13.01-4.913" transform="translate(-47.546 -76.61)" fill="#fff"/>
        <path id="Path_5823" data-name="Path 5823" d="M194.775,317.842c-3.756,0-7.7-2.337-10.012-6.334-3.207-5.555-2.054-12.246,2.57-14.914s10.994-.322,14.2,5.231a12.878,12.878,0,0,1,1.674,8.458,8.892,8.892,0,0,1-4.244,6.457,8.322,8.322,0,0,1-4.191,1.1m-8.5-7.206c2.727,4.722,8.027,6.782,11.818,4.594A7.178,7.178,0,0,0,201.487,310a11.12,11.12,0,0,0-1.463-7.3c-2.725-4.72-8.027-6.78-11.818-4.594s-4.657,7.811-1.931,12.533" transform="translate(-47.245 -76.309)" fill="#2e2e2e"/>
        <path id="Path_5824" data-name="Path 5824" d="M507.064,363.394H61.851a.872.872,0,0,1,0-1.745H507.064a.872.872,0,0,1,0,1.745" transform="translate(-15.747 -93.394)" fill="#2e2e2e"/>
        <path id="Path_5825" data-name="Path 5825" d="M591.635,44.01a.552.552,0,0,1-.55-.551V32.3a.551.551,0,0,1,.55-.551h41.179a.556.556,0,0,1,.39.161.548.548,0,0,1,.161.39v11.16a.551.551,0,0,1-.161.39.559.559,0,0,1-.39.161Zm.552-1.1h40.076V32.85H592.187Z" transform="translate(-152.644 -8.199)" fill="#536876"/>
        <path id="Path_5826" data-name="Path 5826" d="M597.894,40.373a.551.551,0,0,1,0-1.1h31.43a.551.551,0,1,1,0,1.1Z" transform="translate(-154.26 -10.141)" fill="#536876"/>
        <path id="Path_5827" data-name="Path 5827" d="M618.118,76.374a.551.551,0,0,1-.551-.551V64.663a.552.552,0,0,1,.551-.551H659.3a.552.552,0,0,1,.551.551v11.16a.552.552,0,0,1-.551.551Zm.552-1.1h40.076V65.215H618.67Z" transform="translate(-159.483 -16.557)" fill="#536876"/>
        <path id="Path_5828" data-name="Path 5828" d="M624.377,72.738a.551.551,0,1,1,0-1.1h31.43a.551.551,0,1,1,0,1.1Z" transform="translate(-161.099 -18.499)" fill="#536876"/>
        <path id="Path_5829" data-name="Path 5829" d="M579.234,108.089a.552.552,0,0,1-.552-.552V96.378a.552.552,0,0,1,.552-.551h41.179a.55.55,0,0,1,.552.551v11.159a.556.556,0,0,1-.162.391.549.549,0,0,1-.39.161Zm.551-1.1h40.076V96.929H579.785Z" transform="translate(-149.441 -24.747)" fill="#536876"/>
        <path id="Path_5830" data-name="Path 5830" d="M585.492,104.452a.551.551,0,1,1,0-1.1h31.43a.551.551,0,1,1,0,1.1Z" transform="translate(-151.057 -26.689)" fill="#536876"/>
        <path id="Path_5831" data-name="Path 5831" d="M542.6,92.523a7.859,7.859,0,0,1-7.628-5.967l-.2-.812H517.675V62.327H498.2a1.081,1.081,0,0,1,0-2.161h33.03V36.052h12.68l.2-.813a7.859,7.859,0,1,1,0,3.787l-.2-.813h-8.771a1.75,1.75,0,0,0-1.748,1.748v20.2h29.885l.2-.813a7.859,7.859,0,1,1,0,3.787l-.2-.813H519.837V81.834a1.75,1.75,0,0,0,1.748,1.748h13.181l.2-.813a7.86,7.86,0,1,1,7.628,9.753m-.059-13.45a5.7,5.7,0,1,0,4.028,1.669,5.659,5.659,0,0,0-4.028-1.669m28.515-23.526a5.7,5.7,0,0,0,0,11.4,5.738,5.738,0,0,0,4.029-1.669,5.7,5.7,0,0,0-4.029-9.727M551.791,31.541a5.737,5.737,0,0,0-4.028,1.669,5.7,5.7,0,0,0,0,8.058,5.737,5.737,0,0,0,4.028,1.67,5.7,5.7,0,1,0,0-11.4" transform="translate(-128.379 -7.559)" fill="#536876"/>
        <path id="Path_5832" data-name="Path 5832" d="M608.635,226.452a.668.668,0,0,1-.668-.668v-2.251a1.622,1.622,0,0,0-2.767-1.147l-1.593,1.593a.667.667,0,0,1-.944,0l-3.565-3.566a.668.668,0,0,1,0-.943l1.593-1.593a1.621,1.621,0,0,0-1.146-2.767h-2.251a.669.669,0,0,1-.668-.669V209.4a.668.668,0,0,1,.668-.668h2.251a1.619,1.619,0,0,0,1.145-2.766l-1.592-1.593a.672.672,0,0,1,0-.946l3.563-3.563a.672.672,0,0,1,.472-.2.66.66,0,0,1,.471.2l1.593,1.593a1.614,1.614,0,0,0,1.148.474,1.566,1.566,0,0,0,.617-.122,1.62,1.62,0,0,0,1-1.5V198.06a.668.668,0,0,1,.668-.669h5.04a.668.668,0,0,1,.668.669v2.251a1.619,1.619,0,0,0,1.622,1.62,1.587,1.587,0,0,0,1.147-.475l1.591-1.592a.668.668,0,0,1,.944,0l3.564,3.565a.674.674,0,0,1,.2.473.666.666,0,0,1-.2.474l-1.59,1.59a1.621,1.621,0,0,0,1.147,2.767h2.25a.668.668,0,0,1,.668.668v5.039a.669.669,0,0,1-.668.669h-2.25a1.621,1.621,0,0,0-1.147,2.767l1.591,1.592a.66.66,0,0,1,.2.473.669.669,0,0,1-.2.472l-3.565,3.564a.666.666,0,0,1-.944,0l-1.591-1.591a1.616,1.616,0,0,0-1.147-.475,1.576,1.576,0,0,0-.618.123,1.613,1.613,0,0,0-1,1.5v2.251a.668.668,0,0,1-.668.668Zm-2.29-5.875a2.958,2.958,0,0,1,2.957,2.957v1.583h3.705v-1.583a2.957,2.957,0,0,1,5.048-2.09l1.12,1.119,2.618-2.62-1.118-1.119a2.934,2.934,0,0,1-.866-2.092,2.976,2.976,0,0,1,.866-2.09,2.932,2.932,0,0,1,2.091-.866h1.581v-3.705h-1.582a2.957,2.957,0,0,1-2.091-5.048l1.118-1.119-2.618-2.621-1.119,1.12a2.957,2.957,0,0,1-5.048-2.09v-1.584H609.3v1.584a2.957,2.957,0,0,1-2.957,2.956,2.982,2.982,0,0,1-2.091-.865l-1.119-1.121-2.619,2.621,1.119,1.119a2.957,2.957,0,0,1-2.089,5.048h-1.584v3.705h1.584a2.955,2.955,0,0,1,2.955,2.957,2.936,2.936,0,0,1-.866,2.092l-1.118,1.12,2.618,2.618,1.12-1.119a2.932,2.932,0,0,1,2.09-.866" transform="translate(-154.075 -50.975)" fill="#536876"/>
        <path id="Path_5833" data-name="Path 5833" d="M614.664,219.88a4.447,4.447,0,1,1,3.145-1.3,4.417,4.417,0,0,1-3.145,1.3m0-7.56a3.133,3.133,0,0,0-2.2.911,3.088,3.088,0,0,0-.912,2.2,3.112,3.112,0,0,0,3.112,3.114,3.113,3.113,0,0,0,2.2-5.314,3.133,3.133,0,0,0-2.2-.911" transform="translate(-157.585 -54.485)" fill="#536876"/>
        <path id="Path_5834" data-name="Path 5834" d="M538.651,275.328a3.19,3.19,0,0,1-3.188-3.189V214.172a3.194,3.194,0,0,1,3.19-3.188h37.806a.668.668,0,0,1,0,1.337H538.653a1.855,1.855,0,0,0-1.853,1.852v4.372h39.659a.668.668,0,0,1,0,1.336H536.8V272.14a1.854,1.854,0,0,0,1.851,1.852h60.49a1.856,1.856,0,0,0,1.853-1.851V233.074a.668.668,0,1,1,1.335,0V272.14a3.19,3.19,0,0,1-3.189,3.189H538.651Z" transform="translate(-138.28 -54.485)" fill="#536876"/>
        <path id="Path_5835" data-name="Path 5835" d="M541.628,217.442a.709.709,0,1,1,.709-.709.711.711,0,0,1-.709.709" transform="translate(-139.689 -55.787)" fill="#536876"/>
        <path id="Path_5836" data-name="Path 5836" d="M546.311,217.442a.709.709,0,1,1,.708-.709.71.71,0,0,1-.708.709" transform="translate(-140.898 -55.787)" fill="#536876"/>
        <path id="Path_5837" data-name="Path 5837" d="M550.994,217.442a.709.709,0,1,1,.708-.709.71.71,0,0,1-.708.709" transform="translate(-142.108 -55.787)" fill="#536876"/>
        <path id="Path_5838" data-name="Path 5838" d="M583.254,273.853a.668.668,0,0,1-.668-.668v-6.3a.669.669,0,0,1,.668-.669h5.633v-5.632a.669.669,0,0,1,.667-.669h3.112V254.95h-9.413a.668.668,0,0,1-.668-.667v-6.3a.668.668,0,0,1,.668-.668h6.893v-4.965H571.32v4.965h6.893a.668.668,0,0,1,.667.668v6.3a.667.667,0,0,1-.667.667H571.32v4.965h6.893a.669.669,0,0,1,.667.669v6.3a.667.667,0,0,1-.667.667H563.09a.667.667,0,0,1-.668-.667v-6.3a.669.669,0,0,1,.668-.669h6.893V254.95H563.09a.667.667,0,0,1-.668-.667v-6.3a.668.668,0,0,1,.668-.668h6.893v-4.965H551.157v4.965h6.894a.668.668,0,0,1,.668.668v6.3a.668.668,0,0,1-.668.667h-9.414v4.965h3.112a.67.67,0,0,1,.669.669v5.632h5.632a.669.669,0,0,1,.668.669v6.3a.668.668,0,0,1-.668.668h-12.6a.668.668,0,0,1-.668-.668v-6.3a.668.668,0,0,1,.668-.669h5.632v-4.965h-3.112a.668.668,0,0,1-.668-.667V254.95h-4.372a.668.668,0,0,1-.668-.667v-6.3a.668.668,0,0,1,.668-.668h6.892v-5.633a.668.668,0,0,1,.668-.668h19.495v-3.7H563.09a.668.668,0,0,1-.668-.669v-6.3a.668.668,0,0,1,.668-.668h15.123a.668.668,0,0,1,.667.668v6.3a.668.668,0,0,1-.667.669H571.32v3.7h19.494a.669.669,0,0,1,.668.668v5.633h6.894a.668.668,0,0,1,.668.668v6.3a.667.667,0,0,1-.668.667H594v5.634a.667.667,0,0,1-.668.667h-3.113v4.965h5.634a.669.669,0,0,1,.668.669v6.3a.668.668,0,0,1-.668.668Zm.668-1.336h11.266v-4.965H583.922Zm-37.806,0h11.266v-4.965H546.116Zm17.643-6.3h13.787v-4.965H563.758Zm20.163-12.6h13.786V248.65H583.922Zm-20.163,0h13.787V248.65H563.758Zm-20.162,0h13.786V248.65H543.6Zm20.162-17.643h13.787v-4.965H563.758Z" transform="translate(-140.035 -59.311)" fill="#536876"/>
        <path id="Path_5839" data-name="Path 5839" d="M248.684,78.229a.637.637,0,0,1-.588-.588.575.575,0,0,1,.588-.588H256.5V66.487H234.713a.574.574,0,0,1-.587-.587V33.243a.574.574,0,0,1,.587-.587h8.325v-17h-8.012l-.345,1.179a6.8,6.8,0,1,1,0-3.629l.337,1.19h8.695a.575.575,0,0,1,.588.587V32.57h12.111V13.588l-1.179-.346a6.759,6.759,0,1,1,3.705,0l-1.179.346V32.57h12.281V14.9a.575.575,0,0,1,.588-.588h8.686l.344-1.179a6.73,6.73,0,0,1,6.483-4.905,6.585,6.585,0,0,1,4.7,1.978,6.755,6.755,0,1,1-11.265,6.633l-.347-1.179h-8.01v17h8.325a.574.574,0,0,1,.587.587V65.9a.575.575,0,0,1-.587.587H257.757V77.053h7.811a.637.637,0,0,1,.587.588.575.575,0,0,1-.587.588Zm-13.3-13h43.564V33.832H235.386Zm50.752-55.82a5.5,5.5,0,1,0,0,10.994,5.493,5.493,0,0,0,3.887-9.378,5.448,5.448,0,0,0-3.887-1.616m-57.941,0a5.5,5.5,0,1,0,5.5,5.5,5.5,5.5,0,0,0-5.5-5.5m28.97-8.058a5.5,5.5,0,0,0-5.5,5.5,5.57,5.57,0,0,0,5.5,5.5,5.5,5.5,0,0,0,0-11" transform="translate(-57.185)" fill="#536876"/>
        <path id="Path_5840" data-name="Path 5840" d="M100.356,160.307a9.772,9.772,0,0,1-2.518-.335.608.608,0,0,1-.452-.587V158.02l-.357-.165a7.8,7.8,0,0,1-1.067-.6l-.33-.223-1.213.755a.6.6,0,0,1-.27.062.6.6,0,0,1-.418-.167,9.094,9.094,0,0,1-2.523-4.241.608.608,0,0,1,.292-.686l1.222-.682-.033-.394c-.014-.18-.021-.358-.021-.536s.007-.354.022-.535l.034-.4-1.223-.683a.607.607,0,0,1-.291-.688,9.091,9.091,0,0,1,2.525-4.235.611.611,0,0,1,.421-.168.6.6,0,0,1,.3.078l1.259.7.314-.219a6.451,6.451,0,0,1,1-.57l.36-.165V142.9a.61.61,0,0,1,.45-.587,9.542,9.542,0,0,1,5.031,0,.609.609,0,0,1,.453.587v1.363l.358.165a7.742,7.742,0,0,1,1.064.6l.332.224,1.213-.757a.617.617,0,0,1,.691.106,9.09,9.09,0,0,1,2.52,4.24.606.606,0,0,1-.291.685l-1.22.682.031.392c.014.181.022.362.022.539s-.008.359-.022.541l-.029.392,1.219.679a.609.609,0,0,1,.291.688,9.1,9.1,0,0,1-2.526,4.235.608.608,0,0,1-.42.168.616.616,0,0,1-.3-.077l-1.259-.7-.315.218a6.492,6.492,0,0,1-1,.57l-.36.164v1.362a.61.61,0,0,1-.45.587,9.751,9.751,0,0,1-2.4.339Zm-4.626-4.347a1.781,1.781,0,0,1,.921.292,6.572,6.572,0,0,0,.955.532,1.712,1.712,0,0,1,.995,1.563l0,.513.5.136a8.157,8.157,0,0,0,2.483,0l.521-.08v-.528a1.714,1.714,0,0,1,1-1.609,6.367,6.367,0,0,0,.957-.533,1.792,1.792,0,0,1,.919-.289,1.86,1.86,0,0,1,.941.231l.537.3.327-.394a7.827,7.827,0,0,0,1.21-2l.208-.505-1.191-.668a.606.606,0,0,1-.3-.645,5.74,5.74,0,0,0,0-2.274.6.6,0,0,1,.3-.639l1.192-.667L108,148.19a7.862,7.862,0,0,0-1.2-2l-.326-.4-.541.3a1.808,1.808,0,0,1-.887.234,1.847,1.847,0,0,1-.981-.293,6.5,6.5,0,0,0-.956-.532,1.712,1.712,0,0,1-.994-1.563l0-.508-.5-.14a8.186,8.186,0,0,0-2.486,0l-.522.079v.529a1.767,1.767,0,0,1-.269.973,1.71,1.71,0,0,1-.73.636,6.461,6.461,0,0,0-.958.533,1.768,1.768,0,0,1-.917.289,1.856,1.856,0,0,1-.941-.231l-.541-.3-.326.394a7.857,7.857,0,0,0-1.208,2l-.21.506,1.193.667a.605.605,0,0,1,.3.644,5.741,5.741,0,0,0,0,2.277.6.6,0,0,1-.3.637l-1.193.665.208.506a7.9,7.9,0,0,0,1.205,2.006l.324.394.543-.3a1.794,1.794,0,0,1,.883-.234Z" transform="translate(-23.549 -36.665)" fill="#536876"/>
        <path id="Path_5841" data-name="Path 5841" d="M102.269,156.72a3.666,3.666,0,1,1,2.589-1.073,3.641,3.641,0,0,1-2.589,1.073m0-6.112a2.449,2.449,0,1,0,0,4.9,2.449,2.449,0,1,0,0-4.9" transform="translate(-25.464 -38.58)" fill="#536876"/>
        <path id="Path_5842" data-name="Path 5842" d="M82.7,167.587a3.055,3.055,0,0,1-3.052-3.053V162.09a.608.608,0,0,1,.607-.608H82.1v-21.4a3.057,3.057,0,0,1,3.053-3.053H109.6a3.055,3.055,0,0,1,3.052,3.054v21.4h1.837a.616.616,0,0,1,.43.178.607.607,0,0,1,.178.43v2.445a3.055,3.055,0,0,1-3.053,3.052Zm-1.837-3.052a1.844,1.844,0,0,0,1.837,1.837h29.34a1.843,1.843,0,0,0,1.837-1.836V162.7H80.867Zm4.281-26.286a1.842,1.842,0,0,0-1.837,1.837v21.4h28.124v-21.4a1.841,1.841,0,0,0-1.835-1.837Z" transform="translate(-20.57 -35.388)" fill="#536876"/>
        <path id="Path_5843" data-name="Path 5843" d="M57.558,198.583a.608.608,0,0,1-.607-.608V188.8h-3.06a.608.608,0,0,1-.428-1.038l11-11a.606.606,0,0,1,.859,0l11,11A.608.608,0,0,1,75.9,188.8h-3.06v9.172a.606.606,0,0,1-.177.428.613.613,0,0,1-.431.18Zm9.78-7.327a.615.615,0,0,1,.43.178.6.6,0,0,1,.177.429v5.5H71.62V188.2a.609.609,0,0,1,.608-.608h2.2l-9.538-9.536-9.535,9.536h2.2a.613.613,0,0,1,.43.179.6.6,0,0,1,.178.43v9.172H61.84v-5.5a.608.608,0,0,1,.608-.608Zm-4.282,6.112h3.675v-4.9H63.056Z" transform="translate(-13.76 -45.602)" fill="#536876"/>
        <path id="Path_5844" data-name="Path 5844" d="M129.7,132.607a.615.615,0,0,1-.43-.178.609.609,0,0,1-.177-.429V107.55a1.831,1.831,0,0,1,1.829-1.829h14.669a1.831,1.831,0,0,1,1.831,1.83V132a.607.607,0,0,1-.607.607Zm11.609-1.214h4.9V106.935h-15.9v24.457h4.9v-4.9h-1.222V125.28h8.549V126.5h-1.222Zm-4.89,0H140.1v-4.9h-3.675Z" transform="translate(-33.338 -27.302)" fill="#536876"/>
        <rect id="Rectangle_1019" data-name="Rectangle 1019" width="1.214" height="1.215" transform="translate(99.424 83.308)" fill="#536876"/>
        <rect id="Rectangle_1020" data-name="Rectangle 1020" width="1.215" height="1.215" transform="translate(104.313 83.308)" fill="#536876"/>
        <rect id="Rectangle_1021" data-name="Rectangle 1021" width="1.215" height="1.215" transform="translate(109.203 83.308)" fill="#536876"/>
        <rect id="Rectangle_1022" data-name="Rectangle 1022" width="1.214" height="1.215" transform="translate(99.424 88.199)" fill="#536876"/>
        <rect id="Rectangle_1023" data-name="Rectangle 1023" width="1.215" height="1.215" transform="translate(104.313 88.199)" fill="#536876"/>
        <rect id="Rectangle_1024" data-name="Rectangle 1024" width="1.215" height="1.215" transform="translate(109.203 88.199)" fill="#536876"/>
        <rect id="Rectangle_1025" data-name="Rectangle 1025" width="1.214" height="1.215" transform="translate(99.424 93.088)" fill="#536876"/>
        <rect id="Rectangle_1026" data-name="Rectangle 1026" width="1.215" height="1.215" transform="translate(104.313 93.088)" fill="#536876"/>
        <rect id="Rectangle_1027" data-name="Rectangle 1027" width="1.215" height="1.215" transform="translate(109.203 93.088)" fill="#536876"/>
        <path id="Path_5845" data-name="Path 5845" d="M59.876,155.091V136.147A20.189,20.189,0,0,1,80.043,115.98H97.772v-3.06a.608.608,0,0,1,.921-.521l6.112,3.667a.609.609,0,0,1,0,1.043l-6.111,3.666a.608.608,0,0,1-.921-.521V117.2H80.042A18.971,18.971,0,0,0,61.09,136.146v18.944Zm39.111-35.908,4.324-2.6-4.324-2.595Z" transform="translate(-15.463 -29.004)" fill="#536876"/>
        <path id="Path_5846" data-name="Path 5846" d="M99.557,188.958a.6.6,0,0,1-.312-.087L93.131,185.2a.608.608,0,0,1,0-1.041l6.113-3.667a.608.608,0,0,1,.921.521v3.06H113a18.971,18.971,0,0,0,18.952-18.95V153.514h1.216v11.609A20.191,20.191,0,0,1,113,185.29H100.165v3.06a.606.606,0,0,1-.308.528.618.618,0,0,1-.3.08m-4.931-4.275,4.324,2.595v-5.19Z" transform="translate(-23.975 -39.644)" fill="#536876"/>
        <path id="Path_5847" data-name="Path 5847" d="M254.649,73.982a3.294,3.294,0,0,1-3.29-3.29V55.15a3.293,3.293,0,0,1,3.29-3.29H260.2l2.645,2.645H274.16a3.3,3.3,0,0,1,3.29,3.29v12.9a3.3,3.3,0,0,1-3.29,3.29Zm0-20.833a2,2,0,0,0-2,2V70.692a2,2,0,0,0,2,2H274.16a2,2,0,0,0,2-2V57.8a2,2,0,0,0-2-2H262.325l-2.645-2.645Zm8.946,15.542V64.723h-3.968V63.434h3.968V59.465h1.289v3.968h3.968v1.289h-3.968v3.968Z" transform="translate(-64.912 -13.393)" fill="#536876"/>
      </g>
    </g>
  </g>
</svg>
