<?xml version="1.0" encoding="UTF-8"?><svg id="Layer_2" xmlns="http://www.w3.org/2000/svg" xmlns:xlink="http://www.w3.org/1999/xlink" viewBox="0 0 580 299"><defs><style>.cls-1,.cls-2{fill:none;}.cls-3{clip-path:url(#clippath);}.cls-4{fill:#e9edf0;}.cls-5{fill:#fff;}.cls-6{fill:#158bcb;}.cls-7{fill:#701e5e;}.cls-8{fill:#546976;}.cls-9{fill:#9ad8f3;}.cls-10{fill:#2e2e2e;}.cls-11{clip-path:url(#clippath-1);}.cls-12{clip-path:url(#clippath-2);}.cls-13{opacity:.6;}.cls-2{stroke:#f5f5f5;}</style><clipPath id="clippath"><rect class="cls-1" x="21" y="15" width="538.92" height="270"/></clipPath><clipPath id="clippath-1"><rect class="cls-1" x="21" y="15" width="538.92" height="270"/></clipPath><clipPath id="clippath-2"><rect class="cls-1" x="21" y="16.09" width="538.92" height="268.92"/></clipPath></defs><g id="Layer_1-2"><g id="Group_1007" transform="translate(-948 -1351)"><g id="Rectangle_21" transform="translate(948 1351)"><rect class="cls-4" width="580" height="299"/><rect class="cls-2" x=".5" y=".5" width="579" height="298"/></g><g id="Group_986" transform="translate(969 1366)"><g class="cls-3"><g id="Group_985"><g id="Group_984"><g class="cls-11"><g id="Group_983"><g id="Group_982" class="cls-13" transform="translate(0 1.085)"><g id="Group_981"><g class="cls-12"><g id="Group_980"><path id="Path_5773" class="cls-9" d="M443.07,146.62c-42.43-32.7-47.02-118.17-108.01-128.85-68.15-11.93-79.94,42.87-105.37,55.98-46.29,23.86-83.8-33.44-140.22-13.03C13.61,88.16,16,230.32,26.17,285l519.65-.19s25.58-39.63,7.82-72.57c-19.93-36.98-72.98-36.64-110.58-65.61"/></g></g></g></g><path id="Path_5774" class="cls-5" d="M198.41,133.93l-3.87,9.23-1.04,.58-6.38-13.02-3.96-8.9-3.63-3.21h-3.38l-1.48,2.23v3.96l2.23,6.32,2.39,7.06-3.63-1.35-2.14,.91-1.4,1.81-.58,1.57-.41,.74c-.38,.14-.78,.23-1.19,.25-.21-.08-1.94-.41-1.94-.41h-1.07l-1.4,.82-.52,1.65c-.25,.36-.46,.75-.63,1.15-.16,.4-.36,.79-.59,1.16h-2.13l-2.55,.58-.82,3.51,.58,2.92,2.39,3.87,3.05,3.24,3.87,3.68,11.79,1.81,19.53-1.4,1.73-21.18-2.8-9.56Z"/><path id="Path_5775" class="cls-5" d="M238.28,201.05l-5.24,7.1-31.33-47.08s1.78-13.81,2.75-16.88,2.26-6.22,2.18-8.64-1.57-4.99-4.32-4.26-4.92,5.47-4.98,5.71-.39,22.45-.39,22.45c0,0-1.53,2.5-2.91,2.5s-28.1,.16-28.1,.16c0,0,7.02,5.17,7.27,5.49s3.8,9.45,3.8,9.45l10.74,25.6s24.55,41.59,29.39,47,11.71,5.98,13.89,5.57,9.45-2.91,11.47-4.44,17.12-14.86,17.12-14.86c0,0-1.7-10.18-1.05-12.6s.81-9.12,.81-9.12l-21.09-13.16Z"/><path id="Path_5776" class="cls-9" d="M297.19,65.34s9.02,.4,10.83-.6,11.85,4.23,14.43,6.89,7.38,11.45,8.11,17.56c.44,3.62,.51,7.27,.22,10.9l-7.51-.36,.45-4.87s-.95-9.6-3.2-14.61-3.13-7.12-9.09-9.74c-4.12-1.71-8.41-2.99-12.8-3.81l-1.45-1.35Z"/><path id="Path_5777" class="cls-6" d="M277.85,162.61c-.22,.07-8.51,3.2-13.3,8.07s-9.74,9.67-13.89,14.32-10.75,12.44-11.52,16.11c4.54,2.36,18.35,12.39,18.35,12.39l1.53,1.31s-.8,7.42-.95,11.34,2.25,11.49,4.22,16.72,5.36,12.53,7.38,20.45c2.34,9.21,1.47,12.49,1.47,12.49,0,0,41.53,8.32,41.97,8.32s58.02-.25,58.02-.25c0,0,14.68,.58,17.3-3.49s5.85-12.94,4.23-19.78-4.45-31.92-4.45-31.92h1.74s-8.6-29.53-13.11-37.5-7.93-15.06-20.58-24.44c-9.49-6.54-11.6-6.54-11.6-6.54,0,0-14.36,6-21.66,7.09s-29.34,3.27-35.23,1.31-9.05-4.58-9.92-6"/><path id="Path_5778" class="cls-5" d="M352.84,234.92s-2.43-.22-2.22,1.53,3.48,11.61,3.48,11.78-.38,3.54-.38,3.54l-23.61-4.42s-14.25-2.3-15.46-3.11-3.62-8.5-7.22-9.48-30.96,8.66-31.45,10.63-.06,3.09,.69,3.64c.93,.67,4.39,1.35,4.39,1.35-1.53-.01-2.93,.85-3.61,2.22-1.02,2.29-.5,2.24,.1,3.27s4.31,2.41,4.36,2.58-2.78,2.37-2.4,3.68,5.01,3.4,6.92,3.45,12.77,3,16.31,3.16,11.57,.71,11.57,.71c0,0,19.14,5.13,22.63,6.27s29.67,5.8,31.63,6.39c4.61,.91,9.31,1.35,14.01,1.3,3.11-.27,6.86-1.93,7.63-3.27s3.46-6,3.25-9.11-1.13-15.21-1.18-16.03-2.18-17.78-2.24-18.38-2.13-7.42-2.13-7.42l-35.06,5.72Z"/><path id="Path_5779" class="cls-5" d="M277.84,222.27c-.05,.37-1.24,7.08-1.24,7.08l2.02,.38,1.67,13.43s11.75-.89,15.23-.35,10.74,1,10.74,1l.44-1.54,1.65-12.7,1.42-.52-1.43-6.89-30.49,.1Z"/><path id="Path_5780" class="cls-5" d="M317.69,67.88c.14,.22,4.27-1.05,9.8,3.44s7.96,5.14,9.55,9.11,3.96,7.89,4.49,13.85,1.2,15.57-.58,20.72-2.71,9.22-5.76,12.86-7.9,6.34-10.12,6.77c-1.36,.26-2.74,.36-4.12,.29l-.73-7.85c2.07,.39,4.19,.39,6.25,0,3.42-.65,7.2-1.74,8.73-6.18s2.76-8.29,2.04-11.12c-1.33-3.91-3.29-7.57-5.82-10.83-.29-5.53-.44-15.85-3.85-21.08-1.71-2.81-3.9-5.3-6.47-7.34l-3.41-2.62Z"/><path id="Path_5781" class="cls-5" d="M339.14,84.9s2.69-5.16,9.6-3.78,10.25,2.76,12.29,7.27,3.65,9.01,3.21,14.1-3.79,11.71-4.15,17.16-2.15,8.37-.79,12.95,2.67,8.14,2.89,9.59,.73,2.4-1.31,2.54c-3.66,.43-7.37-.28-10.61-2.04-4.82-2.54-8.85-5.61-9.89-7.78s-3.42-10.18-2.11-12.5,2.76-9.38,3.34-15.12c.43-4.91,.19-9.85-.73-14.69-.58-2.62-1.74-7.71-1.74-7.71"/><path id="Path_5782" class="cls-5" d="M275.92,89.62s.68-10.1,5.3-15.52,10.86-8,14.37-8c9.45,.03,15.49,2.65,19.05,6.21s8.73,10.47,8.8,16.58c.08,3.21-.06,6.41-.44,9.6l-6.4,2.82-1.6-5.22c-5.31-3.08-11.16-5.15-17.23-6.09,.44-1.4,.51-7.5,.51-7.5,0,0-3.9,2.78-5.09,4.58s-2.05,2.27-2.33,2.15-15.04,.98-15.04,.98l.1-.59Z"/><path id="Path_5783" class="cls-5" d="M284.68,74.68c4.63-5.42,10.86-8,14.37-8,1.93,0,3.86,.14,5.77,.4-2.94-.67-5.95-1-8.97-.99-3.51,0-9.74,2.58-14.37,8s-5.3,15.52-5.3,15.52l-.1,.58,3.32-.24c.13-1.5,1.06-10.33,5.28-15.27"/><path id="Path_5784" class="cls-10" d="M321.25,136.3c-.48,0-.87-.4-.86-.88,0-.44,.34-.81,.77-.86,18.26-1.96,20.38-22.96,20.01-35.31-.53-18.08-9.38-28.45-27.05-31.7-.47-.09-.79-.54-.7-1.01,.09-.47,.54-.78,1.02-.7,18.35,3.37,27.93,14.59,28.48,33.36,.65,22.36-7.01,35.54-21.57,37.1-.03,0-.06,0-.09,0"/><path id="Path_5785" class="cls-9" d="M292.17,111.32c.24-7.85-4.04-14.35-9.57-14.52s-10.21,6.05-10.45,13.9c-.24,7.85,4.04,14.35,9.57,14.52s10.21-6.05,10.45-13.9"/><path id="Path_5786" class="cls-10" d="M281.95,126.1h-.25c-6-.19-10.67-7.11-10.42-15.42,.05-3.75,1.24-7.4,3.42-10.45,1.78-2.64,4.75-4.24,7.93-4.29,6,.19,10.67,7.11,10.42,15.42-.05,3.75-1.24,7.4-3.42,10.45-2.09,2.78-4.81,4.29-7.68,4.29m.43-28.43c-2.55,.13-4.89,1.47-6.29,3.6-1.96,2.77-3.03,6.07-3.07,9.46-.23,7.35,3.69,13.46,8.73,13.62,2.39,.09,4.68-1.2,6.48-3.59,1.96-2.77,3.03-6.07,3.07-9.46,.23-7.35-3.69-13.46-8.73-13.62h-.2"/><path id="Path_5787" class="cls-5" d="M278.51,89.62s-1.31,24.14-2.04,29.95c-.73,5.82,3.05,15.7,8.43,19.05s7.02,1.95,7.02,1.95c0,0,1.25,7.05,.71,10.05s-1.04,5.51-1.04,5.51c0,0-8.61,3.65-13.2,6.16,6.07,9.78,36.42,7.61,39.66,6.29,1.74-.71,23.94-4.61,25.61-8.69-2.18-1.25-16.67-7.4-17.23-8.12-3.6-4.63-5.62-12.95-5.89-16.63s-1.14-9.32-1.14-9.32c0,0-2.95-22.25-3.43-23.99-.41-2.12-.68-4.27-.82-6.43,0,0-10.96-5.42-17.01-5.76-.38-1.76,.16-7.49,.16-7.49,0,0-4.91,3.9-5.43,5.14-.31,.86-.85,1.63-1.55,2.22-.16,0-12.81,.13-12.81,.13"/><path id="Path_5788" class="cls-10" d="M294.75,141.44c-.57,0-1.06-.03-1.48-.06-7.03-.59-12.11-3.28-15.1-8.01-2.54-4.02-3.54-9.49-2.97-16.24l2.09-24.97c.06-.78,.16-1.55,.3-2.32,.1-.47,.55-.78,1.02-.69,.47,.09,.78,.55,.69,1.02h0c-.13,.71-.22,1.42-.28,2.14l-2.09,24.98c-.53,6.37,.38,11.47,2.71,15.16,2.68,4.24,7.31,6.67,13.77,7.21,1,.08,4.05,.33,10.52-1.61,.46-.15,.95,.1,1.1,.55,.15,.46-.1,.95-.55,1.1-.02,0-.03,.01-.05,.01-3.13,1.05-6.39,1.64-9.69,1.74"/><path id="Path_5789" class="cls-10" d="M323.31,122.72c-.22,0-.45,0-.68-.03-1.19-.1-2.34-.46-3.37-1.06-.42-.24-.56-.78-.31-1.19,.24-.42,.78-.56,1.19-.31,3,1.74,6.85,.72,8.59-2.28,1.74-3,.72-6.85-2.28-8.59-1.56-.91-3.44-1.1-5.16-.52-.46,.15-.95-.09-1.11-.55s.09-.95,.55-1.11h0c1.04-.36,2.14-.49,3.24-.39,4.42,.38,7.7,4.27,7.32,8.69-.35,4.15-3.82,7.34-7.99,7.35"/><path id="Path_5790" class="cls-10" d="M326.92,115.7h-.08c-.48-.05-.83-.47-.79-.95,.11-.84-.17-1.68-.75-2.3-.61-.56-1.45-.82-2.27-.71-.47,.06-.9-.28-.96-.75v-.02c-.05-.48,.3-.91,.78-.96,1.34-.18,2.7,.26,3.68,1.2,.95,.98,1.41,2.34,1.26,3.7-.04,.45-.42,.79-.87,.79"/><path id="Path_5791" class="cls-10" d="M358.44,253.89c-.05,0-.11,0-.16-.02-.31-.06-31.24-5.8-41.61-7.89-2.93-.59-4.22-2.91-5.58-5.36-.93-1.91-2.18-3.64-3.69-5.14-.34-.34-.35-.89,0-1.23,.32-.33,.84-.35,1.19-.05,1.65,1.62,3.02,3.5,4.04,5.58,1.26,2.27,2.26,4.07,4.4,4.5,10.36,2.08,41.27,7.83,41.58,7.89,.47,.09,.79,.54,.7,1.01-.08,.42-.44,.72-.86,.72"/><path id="Path_5792" class="cls-10" d="M354.06,252.97c-.41,0-.76-.28-.85-.68l-3.79-16.39c-.11-.47,.18-.94,.65-1.05,.47-.11,.94,.18,1.05,.65l3.79,16.39c.11,.47-.19,.94-.65,1.05-.07,.02-.13,.02-.2,.02"/><path id="Path_5793" class="cls-10" d="M380.9,284.11c-19.19,0-66.34-13.3-68.64-13.95-.46-.14-.73-.62-.59-1.09,.13-.45,.61-.72,1.06-.59,22.3,6.33,66.46,17.18,73.99,13.04,2.57-1.67,4.3-4.36,4.78-7.38,2.38-13.07-3.89-42.62-4.51-44.83-.14-.46,.12-.95,.58-1.09,.46-.14,.95,.12,1.09,.58v.04c.64,2.24,6.99,32.25,4.56,45.62-.58,3.54-2.63,6.66-5.65,8.6-1.36,.75-3.67,1.07-6.67,1.07"/><path id="Path_5794" class="cls-10" d="M233.78,208.67c-.48,0-.87-.39-.87-.87,0-.17,.05-.33,.14-.47,11.3-17.72,23.25-34.62,45.06-46.5,1.76-.96,10.8-5.25,12.58-6.1,1.02-2.39,1.21-7.05,.58-13.84-.04-.48,.31-.9,.79-.95,.48-.04,.9,.31,.95,.79,.44,4.77,.84,11.53-.88,15.04l-.13,.27-.28,.13c-.11,.05-10.92,5.17-12.78,6.19-21.48,11.7-32.83,27.71-44.42,45.9-.16,.25-.44,.4-.74,.4"/><path id="Path_5795" class="cls-10" d="M271.33,276.89h-.02c-.48-.01-.86-.41-.85-.89h0c.14-5.85-1.1-12.37-3.9-20.51-1.09-3.16-2.36-6.15-3.59-9.05-2.6-6.11-5.05-11.89-5.42-18.33-.56-9.76,2.32-18.83,5.1-27.6,.15-.46,.64-.71,1.1-.57,.46,.15,.71,.64,.57,1.1-2.73,8.62-5.56,17.53-5.02,26.97,.35,6.14,2.75,11.78,5.29,17.75,1.24,2.92,2.52,5.94,3.64,9.16,2.88,8.35,4.15,15.06,4,21.13-.01,.47-.4,.85-.87,.85"/><path id="Path_5796" class="cls-10" d="M300.62,170.62c-6.28,0-11.97-.68-16.21-2.24-3.9-1.43-6.35-3.5-7.29-6.17-.16-.45,.08-.95,.53-1.11,.45-.16,.95,.08,1.11,.53h0c.76,2.15,2.86,3.87,6.25,5.11,14.42,5.29,46.1,.19,59.22-7.46,.41-.25,.95-.12,1.2,.29,.25,.41,.12,.95-.29,1.2h-.03c-9.58,5.61-28.85,9.85-44.49,9.85"/><path id="Path_5797" class="cls-5" d="M294.23,214.74c.03,.12-.04,.24-.16,.28-.08,.02-.17,0-.23-.07-4.93-6.15-2.19-11.48-.79-17.86,1.37-6.25-.26-13.07-4.1-16.16-.1-.08-.11-.22-.03-.32,.05-.06,.12-.09,.2-.08,8.71,1.62,11.94,10.51,8.96,18.19-2.93,7.55-5.41,9.98-3.85,16.04"/><path id="Path_5798" class="cls-10" d="M228.25,256.41c-3.24-.02-6.45-.71-9.41-2.02-1.29-.55-9.46-6.67-15.5-13.81l-.06,.02-2.45-5.7,.02,.03-28.59-66.75c-6.05-3.26-12.08-10.47-13.79-13.66-1.89-3.52-1.57-6.51,.89-8.41,.89-.67,2.01-.95,3.11-.76,1.21,.17,2.31,.8,3.06,1.76l3.2,4.77c.89,1.42,2.33,2.41,3.97,2.75,.71,.13,1.44-.04,2.02-.46,1.3-1.06,1.87-2.29,.38-4.84-.23-.42-.08-.95,.34-1.19,.41-.22,.92-.09,1.16,.31,1.71,2.94,1.46,5.26-.78,7.08-.95,.74-2.17,1.04-3.36,.84-2.13-.41-4-1.67-5.17-3.49l-3.19-4.76c-.47-.57-1.14-.94-1.88-1.03-.63-.11-1.28,.04-1.79,.42-1.76,1.36-1.9,3.45-.42,6.2,1.6,2.99,7.6,10.12,13.34,13.09l.28,.15,31.07,72.57c5.96,7.03,13.9,12.88,14.83,13.29,7.98,3.42,14.24,1.58,19.31-.67,5.42-2.41,13.78-10.36,17.8-14.17,.81-.88,1.71-1.67,2.67-2.39,.43-.21,.96-.03,1.17,.4,.2,.41,.05,.91-.35,1.14-.24,.17-1.23,1.11-2.28,2.11-4.09,3.89-12.6,11.97-18.29,14.5-3.53,1.69-7.38,2.61-11.3,2.7"/><path id="Path_5799" class="cls-10" d="M240.28,220.2c-.29,0-.56-.14-.73-.39l-39.06-58.18,.04-.33c.07-.54,1.79-13.37,4-19.65,1.39-3.94,1.43-7.66,.11-9.04-.72-.65-1.76-.8-2.64-.38-3.06,.94-5.1,6.67-6.59,10.85l-.14,.39c-.15,.9-.99,1.5-1.89,1.35-.61-.1-1.12-.54-1.3-1.13-2.42-4.63-4.09-8.67-5.56-12.23-1.08-2.84-2.36-5.61-3.83-8.28-1.22-2.05-2.57-3.3-3.91-3.62-.75-.19-1.54-.06-2.19,.35-1.99,1.26-1.78,2.64-.11,7.56,.96,2.75,2.08,5.43,3.36,8.04,.53,1.03,.99,2.1,1.36,3.19l.18,.7-.66,.46-.65,.31-.52-.66c-1.17-1.47-3.16-1.99-4.9-1.29-1.74,.68-2.6,2.63-1.92,4.37h0l.17,.64-.6,.46c-.37,.23-.84,.18-1.16-.11-1.09-1.13-2.79-1.43-4.21-.73-1.28,.75-1.74,2.38-1.27,4.46,.11,.47-.18,.94-.65,1.05-.47,.11-.94-.18-1.05-.65h0c-.65-2.85,.13-5.22,2.08-6.37,1.47-.81,3.25-.84,4.74-.08,.03-1.99,1.21-3.78,3.04-4.58,1.45-.7,3.13-.74,4.6-.09-.05-.11-.1-.22-.16-.34-1.31-2.67-2.45-5.42-3.43-8.23-1.52-4.5-2.53-7.47,.83-9.6,1.05-.66,2.32-.87,3.53-.58,1.83,.44,3.51,1.93,5,4.43,1.51,2.74,2.82,5.58,3.94,8.5,1.46,3.53,3.11,7.52,5.49,12.08h0l.14-.39c1.7-4.79,3.82-10.74,7.73-11.93,2.3-.7,3.67,.07,4.41,.85,1.85,1.93,1.96,6.08,.28,10.83-1.97,5.57-3.59,16.91-3.87,18.98l38.69,57.63c.27,.4,.16,.94-.24,1.21-.14,.1-.31,.15-.48,.15"/><path id="Path_5800" class="cls-9" d="M333.21,113.99c1.01-7.79-2.62-14.68-8.11-15.39s-10.75,5.03-11.76,12.81,2.62,14.68,8.11,15.38,10.75-5.03,11.76-12.81"/><path id="Path_5801" class="cls-10" d="M327.18,128.11l-.26-.02c-1.11-.09-1.98-.14-2.75-.18-1.05-.06-1.9-.11-2.83-.23-2.94-.38-5.48-2.33-7.15-5.5-1.66-3.36-2.26-7.15-1.71-10.87,.91-7.05,5.31-12.74,10.45-13.54l.5-.06c.47-.07,.9,.26,.97,.73v.03c.06,.48-.28,.91-.75,.97h0l-.47,.06c-4.37,.68-8.15,5.74-8.96,12.03-.5,3.35,.03,6.78,1.53,9.83,1.4,2.65,3.47,4.27,5.83,4.58,.89,.12,1.71,.16,2.71,.22,.72,.04,1.53,.09,2.53,.17,2.68-1.62,4.74-6.24,5.55-12.45,.53-4.12,.89-11.43-2.74-14.01-.39-.29-.47-.83-.18-1.22,.28-.38,.81-.47,1.19-.2,4.15,2.96,4.17,10.15,3.45,15.66-.43,3.33-1.94,11.34-6.67,13.88l-.23,.12Z"/><path id="Path_5802" class="cls-9" d="M337.4,114.46c1.01-7.79-2.62-14.68-8.11-15.39s-10.75,5.03-11.76,12.81c-1.01,7.79,2.62,14.68,8.11,15.38s10.75-5.03,11.76-12.81"/><path id="Path_5803" class="cls-10" d="M326.55,128.2c-.34,0-.68-.02-1.02-.07-5.96-.77-9.93-8.11-8.86-16.36,.41-3.73,1.96-7.24,4.42-10.07,2.42-2.64,5.36-3.87,8.31-3.5s5.48,2.33,7.15,5.5c1.66,3.36,2.26,7.15,1.71,10.87-1.01,7.78-6.14,13.63-11.72,13.63m1.82-28.32c-2.33,.11-4.51,1.2-5.99,3-2.22,2.56-3.61,5.74-3.98,9.12-.95,7.3,2.36,13.76,7.36,14.41,4.98,.64,9.83-4.76,10.78-12.06,.5-3.35-.03-6.78-1.53-9.83-1.4-2.65-3.47-4.27-5.83-4.58-.27-.04-.54-.05-.81-.05"/><path id="Path_5804" class="cls-10" d="M316.71,103.33c-.35,0-.66-.21-.8-.53-.9-2.15-1.44-4.44-1.57-6.77-5.05-3.15-10.81-4.98-16.75-5.33l-.8-.06v-.81c-.02-2.09,.16-4.17,.52-6.23-1.81,1.26-3.24,2.99-4.15,4.99-.2,.41-.43,.81-.69,1.19l-.28,.37-.46-.03c-6.7-.36-11.49,0-15.55,1.18l-1.19,.34,.07-1.23c.56-9.27,3.53-15.95,9.36-21.02,2.91-2.35,6.36-3.94,10.03-4.64,.47-.09,.93,.21,1.03,.69,.09,.46-.2,.91-.66,1.02-3.39,.64-6.56,2.09-9.25,4.25-5.2,4.52-7.97,10.45-8.67,18.6,4.73-1.01,9.59-1.33,14.42-.95,.1-.17,.2-.37,.31-.59,1.22-2.69,3.29-4.91,5.9-6.3,.43-.22,.96-.17,1.33,.15,.38,.31,.54,.82,.42,1.29-.46,2-.7,4.04-.72,6.09,6.15,.44,12.07,2.46,17.21,5.86l.38,.28-.02,.47c.07,2.23,.55,4.43,1.42,6.49,.19,.44-.01,.95-.45,1.14-.11,.05-.23,.07-.35,.07"/><path id="Path_5805" class="cls-10" d="M330.99,100.19h-.07c-.48-.04-.84-.46-.8-.94h0c.94-11.38-1.28-26.2-17.17-32.15-3.61-1.35-7.6-1.56-12.47-1.47-2.59,.2-5.15,.62-7.67,1.28-.46,.13-.95-.14-1.08-.6s.14-.95,.6-1.08c2.64-.69,5.35-1.14,8.07-1.34,4.42-.08,9.06,.04,13.16,1.58,17.8,6.67,19.1,24.12,18.3,33.93-.04,.45-.42,.8-.87,.8"/><path id="Path_5806" class="cls-10" d="M347.7,236.69l-4.9-15.25c-.13-.46,.13-.95,.59-1.08,.45-.13,.91,.11,1.07,.55l4.43,13.82,39.98-6.72-.09-.34c-3.57-13.78-5.92-22.89-11.82-34.33-9.78-18.98-15.81-24.72-35.86-34.15-2.41-1.13-4.71-2.03-6.74-2.82-3.67-1.43-6.57-2.57-8.52-4.36-4.58-4.21-6.17-15.23-6.7-23.73l-.12-1.73c-.03-.48,.33-.9,.81-.93h0c.47-.04,.89,.31,.93,.78v.03l.12,1.73c.72,11.57,2.9,19.58,6.14,22.55,1.71,1.57,4.47,2.65,7.97,4.02,2.06,.8,4.39,1.72,6.85,2.87,20.26,9.53,26.77,15.73,36.66,34.93,5.99,11.62,8.36,20.8,11.96,34.69l.56,2.18-43.34,7.28Z"/><path id="Path_5807" class="cls-10" d="M259.09,216.27c-.18,0-.36-.06-.51-.16l-20.43-14.62c-.4-.27-.49-.82-.22-1.21,.27-.4,.82-.49,1.21-.22h.02l20.43,14.64c.39,.28,.48,.83,.2,1.22-.16,.23-.43,.36-.71,.36"/><path id="Path_5808" class="cls-10" d="M359.51,145.42c-6.22,.1-12.23-2.2-16.79-6.42-3.99-3.89-6.17-9.26-6.03-14.82,0-.48,.39-.87,.87-.87h0c.48,0,.87,.39,.87,.88h0c-.14,5.09,1.86,10.01,5.5,13.56,4.48,4.13,10.44,6.26,16.52,5.91,.26,0,.5-.15,.63-.37,.14-.24,.16-.55,.03-.8-5.02-10.1-2.18-20.83,.1-29.46,1.06-4.02,2.07-7.82,2.13-10.94,.21-10.41-4.9-16.73-9.77-19.17-5.01-2.5-9.01-1.92-13.83,2.03-.38,.29-.93,.22-1.22-.16-.28-.37-.23-.89,.12-1.19,5.3-4.34,10.15-5.03,15.72-2.24,5.34,2.68,10.96,9.54,10.73,20.76-.07,3.33-1.1,7.23-2.19,11.35-2.32,8.78-4.95,18.72-.23,28.24,.39,.79,.36,1.72-.09,2.48-.43,.73-1.21,1.2-2.06,1.23-.34,.01-.67,.02-1.01,.02"/><path id="Path_5809" class="cls-10" d="M279.41,240.15c-.45,0-.83-.34-.87-.79l-.91-9.61c-.05-.48,.29-.91,.77-.96,.48-.05,.91,.29,.96,.77v.03l.91,9.61c.05,.48-.31,.9-.79,.95h-.08"/><path id="Path_5810" class="cls-10" d="M307.01,242.67s-.07,0-.1,0c-.48-.05-.82-.48-.77-.96l1.37-12.56c.05-.47,.47-.82,.94-.77h.02c.48,.05,.83,.49,.77,.96h0l-1.37,12.56c-.05,.44-.42,.78-.87,.78"/><path id="Path_5811" class="cls-10" d="M310.78,230.11h-34.96l1.3-8.94h32.3l1.36,8.94Zm-32.94-1.74h30.91l-.83-5.45h-29.3l-.79,5.45Z"/><path id="Path_5812" class="cls-10" d="M323.64,99.34h-.06c-.48-.03-.84-.45-.81-.93,.7-10.27-1.48-23.72-15.9-29.49-5.15-2.05-10.8-2.47-16.19-1.2-.46,.13-.94-.15-1.07-.61-.13-.46,.15-.94,.61-1.07,6.2-1.69,13-.46,17.29,1.26,15.4,6.17,17.74,20.39,17,31.23-.03,.46-.41,.81-.87,.81"/><path id="Path_5813" class="cls-10" d="M180.27,152.73c-2.62,0-4.62-2.43-6.27-4.94l-2.87-4.36,1.46-.96,2.87,4.36c3.05,4.65,4.71,4.44,6.04,3.88,.41-.21,.71-.6,.82-1.05,.55-1.65,.2-5.31-2.63-10.2-.23-.42-.07-.95,.35-1.18,.41-.22,.92-.08,1.16,.31,2.6,4.5,3.66,8.96,2.77,11.62-.26,.93-.92,1.7-1.79,2.1-.6,.26-1.25,.4-1.9,.41"/><path id="Path_5814" class="cls-10" d="M165.8,160.57c-1.79,0-3.65-1.12-5.53-3.34-.3-.38-.24-.93,.14-1.23,.36-.29,.88-.25,1.19,.1,1.56,1.84,3.04,2.79,4.32,2.72,.8-.07,1.52-.5,1.94-1.18,.37-.53,.93-2.23-1.77-6.56-.25-.41-.13-.95,.28-1.2,.41-.25,.95-.13,1.2,.28,2.39,3.84,2.97,6.69,1.73,8.48-.73,1.13-1.95,1.84-3.29,1.93-.07,0-.14,0-.21,0"/><path id="Path_5815" class="cls-10" d="M286.64,259.73s-.1,0-.14-.01c-.75-.13-1.48-.24-2.19-.35-2.81-.42-5.23-.79-6.79-1.81-1.54-.8-2.33-2.56-1.89-4.24,.38-2.28,2.99-3.8,5.96-3.43,6.05,.72,15.79,2.68,15.89,2.69,.47,.11,.76,.58,.65,1.05-.1,.45-.54,.74-1,.66-.1-.02-9.77-1.96-15.75-2.67-1.99-.23-3.8,.65-4.03,1.99-.32,1,.16,2.07,1.12,2.49,1.24,.81,3.5,1.15,6.1,1.54,.72,.11,1.46,.22,2.22,.35,.48,.08,.8,.52,.72,1-.07,.43-.44,.74-.87,.73"/><path id="Path_5816" class="cls-10" d="M284.95,245.24s-.09,0-.14-.01c-1.96-.32-4.52-1.02-5.58-2.59-.44-.64-.59-1.43-.41-2.18,.06-.98,.6-1.86,1.44-2.37,2.33-1.54,7.26-1.2,16.51,1.14,6.15,1.55,10.27,2.12,10.31,2.13,.48,.07,.81,.5,.74,.98-.06,.47-.49,.81-.96,.75h-.02c-3.53-.55-7.04-1.27-10.5-2.17-5.34-1.35-12.72-2.96-15.12-1.37-.46,.31-.48,.32-.7,1.3-.07,.28-.02,.59,.16,.82,.55,.81,2.15,1.48,4.41,1.84,.48,.08,.8,.53,.72,1.01-.07,.42-.43,.73-.85,.73"/><path id="Path_5817" class="cls-10" d="M312.49,270.19h-.01c-13.78-.2-26.8-3.13-30.7-4.65-2.34-.91-3.75-3.23-3.23-5.27,.2-.77,1.21-3.22,5.91-2.61,6.51,.86,12.27,1.89,12.33,1.9,.48,.07,.8,.52,.73,1-.07,.48-.52,.8-1,.73h-.04c-.06-.02-5.78-1.04-12.25-1.9-2.21-.29-3.7,.2-3.99,1.31-.12,1.45,.78,2.79,2.17,3.21,3.8,1.48,16.53,4.33,30.09,4.53,.48,0,.87,.4,.87,.88s-.4,.87-.88,.87h0"/><path id="Path_5818" class="cls-10" d="M281.6,251.65h-.05c-.46-.02-4.53-.31-6.13-2.68-.53-.93-.69-2.02-.44-3.06,.23-1.11,.92-2.08,1.89-2.67,1.98-1.22,15.93,1.55,21.83,2.8,.47,.09,.78,.55,.69,1.02-.09,.47-.55,.78-1.02,.69h-.03c-9.1-1.93-19.27-3.59-20.58-3.02-.56,.34-.95,.9-1.08,1.54-.14,.58-.08,1.18,.18,1.72,.95,1.41,3.77,1.86,4.78,1.92,.48,.02,.85,.43,.83,.91-.02,.47-.41,.83-.88,.83"/><path id="Path_5819" class="cls-7" d="M309.97,284.24s3.49-1.31,3.49-3.6,.11-4.91-9.49-4.69-69.9-.04-69.9-.04l-18.32-72.16s.87-4.25-4.73-4.25-107.31-.15-107.31-.15c0,0-2.99,1.35-2.92,3.54s19.71,79.71,19.71,79.71c.68,.72,1.57,1.21,2.54,1.38,1.53,.22,186.92,.25,186.92,.25"/><path id="Path_5820" class="cls-10" d="M230.97,285H123.66c-1.67,0-3.81-.75-4.49-4.33l-19.18-77.33c-.29-1.08-.07-2.23,.6-3.13,.98-1.09,2.4-1.67,3.86-1.58h107.33c3.37,0,4.2,3.22,4.48,4.27l18.04,72.73c.12,.47-.17,.94-.64,1.06s-.94-.17-1.06-.64l-18.04-72.72c-.68-2.61-1.79-2.96-2.79-2.96H104.47c-.93-.07-1.85,.26-2.51,.91-.34,.48-.44,1.09-.27,1.66l19.19,77.35c.5,2.63,1.75,2.96,2.79,2.96h107.31c.48,0,.87,.39,.87,.87s-.39,.87-.87,.87h0"/><path id="Path_5821" class="cls-10" d="M309.5,285h-70.41c-.48,0-.87-.39-.87-.87s.39-.87,.87-.87h70.41c1.75,0,3.16-1.42,3.16-3.16,0-1.86-1.54-3.17-3.76-3.18h-75.35c-.48-.02-.86-.42-.84-.9,.02-.46,.38-.83,.84-.84h75.36c3.19,.02,5.5,2.09,5.5,4.92,0,2.71-2.2,4.9-4.91,4.91"/><path id="Path_5822" class="cls-5" d="M159.27,249.76c-2.97-5.15-1.96-11.29,2.25-13.72s10.04-.23,13.01,4.91,1.96,11.29-2.25,13.72-10.04,.23-13.01-4.91"/><path id="Path_5823" class="cls-10" d="M168.53,256.53c-3.76,0-7.7-2.34-10.01-6.33-3.21-5.55-2.05-12.25,2.57-14.91s10.99-.32,14.2,5.23c1.51,2.54,2.1,5.53,1.67,8.46-.36,2.69-1.92,5.06-4.24,6.46-1.28,.73-2.72,1.11-4.19,1.1m-8.5-7.21c2.73,4.72,8.03,6.78,11.82,4.59,1.87-1.13,3.12-3.06,3.4-5.23,.37-2.53-.15-5.11-1.46-7.3-2.73-4.72-8.03-6.78-11.82-4.59s-4.66,7.81-1.93,12.53"/><path id="Path_5824" class="cls-10" d="M512.32,285H67.1c-.48,0-.87-.39-.87-.87s.39-.87,.87-.87h445.21c.48,0,.87,.39,.87,.87s-.39,.87-.87,.87"/><path id="Path_5825" class="cls-8" d="M459.99,50.81c-.3,0-.55-.25-.55-.55v-11.16c0-.3,.25-.55,.55-.55h41.18c.15,0,.29,.06,.39,.16,.1,.1,.16,.24,.16,.39v11.16c0,.15-.06,.29-.16,.39-.1,.1-.24,.16-.39,.16h-41.18Zm.55-1.1h40.08v-10.06h-40.08v10.06Z"/><path id="Path_5826" class="cls-8" d="M464.63,45.23c-.3-.02-.54-.28-.52-.58,.02-.28,.24-.5,.52-.52h31.43c.3-.02,.56,.21,.58,.52,.02,.3-.21,.56-.52,.58-.02,0-.04,0-.07,0h-31.43Z"/><path id="Path_5827" class="cls-8" d="M479.63,74.82c-.3,0-.55-.25-.55-.55h0v-11.16c0-.3,.25-.55,.55-.55h41.18c.3,0,.55,.25,.55,.55v11.16c0,.3-.25,.55-.55,.55h-41.18Zm.55-1.1h40.08v-10.06h-40.08v10.06Z"/><path id="Path_5828" class="cls-8" d="M484.28,69.24c-.3,.02-.56-.21-.58-.52s.21-.56,.52-.58c.02,0,.04,0,.07,0h31.43c.3-.02,.56,.21,.58,.52s-.21,.56-.52,.58c-.02,0-.04,0-.07,0h-31.43Z"/><path id="Path_5829" class="cls-8" d="M450.79,98.34c-.3,0-.55-.25-.55-.55h0v-11.16c0-.3,.25-.55,.55-.55h41.18c.3,0,.55,.24,.55,.55h0v11.16c0,.15-.06,.29-.16,.39-.1,.1-.24,.16-.39,.16h-41.18Zm.55-1.1h40.08v-10.06h-40.08v10.06Z"/><path id="Path_5830" class="cls-8" d="M455.43,92.76c-.3,.02-.56-.21-.58-.52s.21-.56,.52-.58c.02,0,.04,0,.07,0h31.43c.3-.02,.56,.21,.58,.52s-.21,.56-.52,.58c-.02,0-.04,0-.07,0h-31.43Z"/><path id="Path_5831" class="cls-8" d="M435.22,99.96c-3.61,0-6.76-2.46-7.63-5.97l-.2-.81h-17.1v-23.42h-19.47c-.6-.02-1.07-.52-1.05-1.11,.02-.57,.48-1.03,1.05-1.05h33.03v-24.11h12.68l.2-.81c1.05-4.21,5.31-6.78,9.52-5.73,4.21,1.05,6.78,5.31,5.73,9.52-1.05,4.21-5.31,6.78-9.52,5.73-2.83-.7-5.03-2.91-5.73-5.73l-.2-.81h-8.77c-.96,0-1.75,.78-1.75,1.75v20.2h29.89l.2-.81c1.05-4.21,5.31-6.78,9.52-5.73,4.21,1.05,6.78,5.31,5.73,9.52-1.05,4.21-5.31,6.78-9.52,5.73-2.83-.7-5.03-2.91-5.73-5.73l-.2-.81h-43.44v19.51c0,.96,.78,1.75,1.75,1.75h13.18l.2-.81c1.05-4.21,5.31-6.78,9.52-5.74,4.21,1.05,6.78,5.31,5.74,9.52-.87,3.51-4.02,5.97-7.63,5.97m-.06-13.45c-3.15,0-5.7,2.55-5.7,5.7,0,3.15,2.55,5.7,5.7,5.7,3.15,0,5.7-2.55,5.7-5.7,0-1.51-.6-2.96-1.67-4.03-1.07-1.07-2.52-1.67-4.03-1.67m28.52-23.53c-3.15,0-5.7,2.55-5.7,5.7s2.55,5.7,5.7,5.7c1.51,0,2.96-.6,4.03-1.67,2.22-2.23,2.22-5.84,0-8.06-1.07-1.07-2.51-1.66-4.02-1.67m-19.26-24.01c-1.51,0-2.96,.6-4.03,1.67-2.22,2.23-2.22,5.83,0,8.06,1.07,1.07,2.52,1.67,4.03,1.67,3.15,0,5.7-2.55,5.7-5.7,0-3.15-2.55-5.7-5.7-5.7h0"/><path id="Path_5832" class="cls-8" d="M475.56,190.48c-.37,0-.67-.3-.67-.67h0v-2.25c0-.9-.73-1.62-1.62-1.62-.43,0-.84,.17-1.14,.47l-1.59,1.59c-.26,.26-.68,.26-.94,0h0l-3.57-3.57c-.26-.26-.26-.68,0-.94l1.59-1.59c.63-.63,.63-1.66,0-2.29-.3-.3-.72-.47-1.15-.47h-2.25c-.37,0-.67-.3-.67-.67v-5.04c0-.37,.3-.67,.67-.67h2.25c.89,0,1.62-.72,1.62-1.62,0-.43-.17-.85-.48-1.15l-1.59-1.59c-.26-.26-.26-.68,0-.95l3.56-3.56c.12-.13,.29-.2,.47-.2,.18,0,.35,.07,.47,.2l1.59,1.59c.3,.3,.72,.48,1.15,.47,.21,0,.42-.04,.62-.12,.61-.25,1-.84,1-1.5v-2.25c0-.37,.3-.67,.67-.67h5.04c.37,0,.67,.3,.67,.67h0v2.25c0,.89,.72,1.62,1.62,1.62h0c.43,0,.85-.17,1.15-.48l1.59-1.59c.26-.26,.68-.26,.94,0l3.56,3.57c.13,.13,.2,.3,.2,.47,0,.18-.07,.35-.2,.47l-1.59,1.59c-.63,.63-.63,1.66,0,2.29,.3,.3,.72,.47,1.15,.47h2.25c.37,0,.67,.3,.67,.67h0v5.04c0,.37-.3,.67-.67,.67h-2.25c-.9,0-1.62,.73-1.62,1.62,0,.43,.17,.84,.47,1.15l1.59,1.59c.13,.12,.2,.29,.2,.47,0,.18-.07,.35-.2,.47l-3.57,3.56c-.26,.26-.68,.26-.94,0h0l-1.59-1.59c-.3-.3-.72-.48-1.15-.48-.21,0-.42,.04-.62,.12-.61,.25-1,.84-1,1.5v2.25c0,.37-.3,.67-.67,.67h-5.04Zm-2.29-5.88c1.63,0,2.96,1.32,2.96,2.96v1.58h3.71v-1.58c0-1.63,1.32-2.96,2.96-2.96,.78,0,1.54,.31,2.09,.87l1.12,1.12,2.62-2.62-1.12-1.12c-.56-.55-.87-1.31-.87-2.09,0-.78,.31-1.53,.87-2.09,.55-.56,1.31-.87,2.09-.87h1.58v-3.71h-1.58c-1.63,0-2.96-1.32-2.96-2.96,0-.78,.31-1.54,.87-2.09l1.12-1.12-2.62-2.62-1.12,1.12c-1.15,1.15-3.03,1.15-4.18,0-.55-.55-.87-1.31-.87-2.09v-1.58h-3.71v1.58c0,1.63-1.32,2.96-2.96,2.96-.78,0-1.53-.31-2.09-.87l-1.12-1.12-2.62,2.62,1.12,1.12c1.15,1.15,1.15,3.03,0,4.18-.55,.55-1.31,.87-2.09,.87h-1.58v3.71h1.58c1.63,0,2.96,1.32,2.96,2.95h0c0,.79-.31,1.54-.87,2.09l-1.12,1.12,2.62,2.62,1.12-1.12c.55-.56,1.31-.87,2.09-.87"/><path id="Path_5833" class="cls-8" d="M478.08,180.4c-2.46,0-4.45-1.99-4.44-4.45,0-2.46,1.99-4.45,4.45-4.44,2.46,0,4.45,1.99,4.44,4.45,0,1.18-.47,2.31-1.3,3.14-.83,.84-1.97,1.3-3.15,1.3m0-7.56c-.82,0-1.62,.33-2.2,.91-.59,.58-.91,1.37-.91,2.2,0,1.72,1.39,3.11,3.11,3.11h0c1.72,0,3.11-1.4,3.11-3.11,0-.83-.33-1.62-.91-2.2-.58-.58-1.38-.91-2.2-.91"/><path id="Path_5834" class="cls-8" d="M421.37,235.84c-1.76,0-3.19-1.43-3.19-3.19v-57.97c0-1.76,1.43-3.19,3.19-3.19h37.81c.37,0,.67,.3,.67,.67s-.3,.67-.67,.67h-37.81c-1.02,0-1.85,.83-1.85,1.85v4.37h39.66c.37,0,.67,.3,.67,.67,0,.37-.3,.67-.67,.67h-39.66v52.26c0,1.02,.83,1.85,1.85,1.85h60.49c1.02,0,1.85-.83,1.85-1.85v-39.07c-.01-.37,.27-.68,.64-.69s.68,.27,.69,.64c0,.02,0,.03,0,.05v39.07c0,1.76-1.43,3.19-3.19,3.19h-60.49Z"/><path id="Path_5835" class="cls-8" d="M422.94,176.66c-.39,0-.71-.32-.71-.71,0-.39,.32-.71,.71-.71,.39,0,.71,.32,.71,.71h0c0,.39-.32,.71-.71,.71"/><path id="Path_5836" class="cls-8" d="M426.41,176.66c-.39,0-.71-.32-.71-.71,0-.39,.32-.71,.71-.71,.39,0,.71,.32,.71,.71h0c0,.39-.32,.71-.71,.71"/><path id="Path_5837" class="cls-8" d="M429.89,176.66c-.39,0-.71-.32-.71-.71,0-.39,.32-.71,.71-.71,.39,0,.71,.32,.71,.71h0c0,.39-.32,.71-.71,.71"/><path id="Path_5838" class="cls-8" d="M464.22,229.54c-.37,0-.67-.3-.67-.67h0v-6.3c0-.37,.3-.67,.67-.67h5.63v-5.63c0-.37,.3-.67,.67-.67h3.11v-4.97h-9.41c-.37,0-.67-.3-.67-.67v-6.3c0-.37,.3-.67,.67-.67h6.89v-4.96h-18.83v4.96h6.89c.37,0,.67,.3,.67,.67v6.3c0,.37-.3,.67-.67,.67h-6.89v4.97h6.89c.37,0,.67,.3,.67,.67v6.3c0,.37-.3,.67-.67,.67h-15.12c-.37,0-.67-.3-.67-.67h0v-6.3c0-.37,.3-.67,.67-.67h6.89v-4.97h-6.89c-.37,0-.67-.3-.67-.67h0v-6.3c0-.37,.3-.67,.67-.67h6.89v-4.96h-18.83v4.96h6.89c.37,0,.67,.3,.67,.67h0v6.3c0,.37-.3,.67-.67,.67h-9.41v4.97h3.11c.37,0,.67,.3,.67,.67v5.63h5.63c.37,0,.67,.3,.67,.67v6.3c0,.37-.3,.67-.67,.67h-12.6c-.37,0-.67-.3-.67-.67h0v-6.3c0-.37,.3-.67,.67-.67h5.63v-4.96h-3.11c-.37,0-.67-.3-.67-.67v-5.63h-4.37c-.37,0-.67-.3-.67-.67v-6.3c0-.37,.3-.67,.67-.67h6.89v-5.63c0-.37,.3-.67,.67-.67h19.49v-3.7h-6.9c-.37,0-.67-.3-.67-.67h0v-6.3c0-.37,.3-.67,.67-.67h15.12c.37,0,.67,.3,.67,.67v6.3c0,.37-.3,.67-.67,.67h-6.89v3.7h19.49c.37,0,.67,.3,.67,.67v5.63h6.89c.37,0,.67,.3,.67,.67h0v6.3c0,.37-.3,.67-.67,.67h-4.38v5.63c0,.37-.3,.67-.67,.67h-3.11v4.96h5.63c.37,0,.67,.3,.67,.67v6.3c0,.37-.3,.67-.67,.67h-12.6Zm.67-1.34h11.27v-4.96h-11.27v4.96Zm-37.81,0h11.27v-4.96h-11.27v4.96Zm17.64-6.3h13.79v-4.96h-13.79v4.96Zm20.16-12.6h13.79v-4.97h-13.79v4.97Zm-20.16,0h13.79v-4.97h-13.79v4.97Zm-20.16,0h13.79v-4.97h-13.78v4.97Zm20.16-17.64h13.79v-4.96h-13.79v4.96Z"/><path id="Path_5839" class="cls-8" d="M212.5,93.23c-.31-.02-.56-.27-.59-.59,0-.32,.24-.58,.56-.59,0,0,.02,0,.03,0h7.82v-10.57h-21.79c-.32,0-.58-.24-.59-.56,0,0,0-.02,0-.03V48.24c0-.32,.24-.58,.56-.59,0,0,.02,0,.03,0h8.32V30.66h-8.01l-.35,1.18c-1,3.62-4.75,5.74-8.37,4.74-3.62-1-5.74-4.75-4.74-8.37s4.75-5.74,8.37-4.74c2.3,.64,4.1,2.44,4.74,4.74l.34,1.19h8.7c.32,0,.58,.24,.59,.56,0,0,0,.02,0,.03v17.59h12.11V28.59l-1.18-.35c-3.59-1.02-5.67-4.76-4.65-8.35,1.02-3.59,4.76-5.67,8.35-4.65,3.59,1.02,5.67,4.76,4.65,8.35-.64,2.25-2.4,4.01-4.65,4.65l-1.18,.35v18.98h12.28V29.9c0-.32,.24-.58,.56-.59,0,0,.02,0,.03,0h8.69l.34-1.18c.82-2.9,3.47-4.91,6.48-4.91,1.77,0,3.46,.71,4.7,1.98,2.64,2.63,2.65,6.91,.02,9.55-2.63,2.64-6.91,2.65-9.55,.02-.82-.82-1.41-1.83-1.73-2.94l-.35-1.18h-8.01v17h8.33c.32,0,.58,.24,.59,.56,0,0,0,.02,0,.03v32.65c0,.32-.25,.58-.56,.59,0,0-.02,0-.02,0h-21.79v10.57h7.81c.31,.02,.56,.27,.59,.59,0,.32-.24,.58-.56,.59,0,0-.02,0-.03,0h-16.88Zm-13.3-13h43.56v-31.4h-43.56v31.4Zm50.75-55.82c-3.04-.1-5.58,2.28-5.68,5.32-.1,3.04,2.28,5.58,5.32,5.68,.12,0,.24,0,.36,0,3.03,0,5.49-2.46,5.5-5.49,0-1.46-.58-2.86-1.61-3.89-1.03-1.04-2.43-1.62-3.89-1.62m-57.94,0c-3.04,0-5.5,2.46-5.5,5.5s2.46,5.5,5.5,5.5,5.5-2.46,5.5-5.5h0c0-3.04-2.46-5.5-5.5-5.5m28.97-8.06c-3.04,0-5.5,2.46-5.5,5.5,.04,3.02,2.48,5.46,5.5,5.5,3.04,0,5.5-2.46,5.5-5.5s-2.46-5.5-5.5-5.5"/><path id="Path_5840" class="cls-8" d="M97.81,138.64c-.85,0-1.7-.11-2.52-.34-.27-.07-.45-.31-.45-.59v-1.36l-.36-.16c-.37-.17-.73-.37-1.07-.6l-.33-.22-1.21,.76c-.08,.04-.18,.06-.27,.06-.16,0-.31-.06-.42-.17-1.22-1.15-2.09-2.62-2.52-4.24-.07-.27,.05-.55,.29-.69l1.22-.68-.03-.39c-.01-.18-.02-.36-.02-.54s0-.35,.02-.54l.03-.4-1.22-.68c-.24-.14-.36-.42-.29-.69,.44-1.62,1.31-3.08,2.53-4.24,.11-.11,.26-.17,.42-.17,.11,0,.21,.03,.3,.08l1.26,.7,.31-.22c.32-.22,.65-.41,1-.57l.36-.16v-1.36c0-.27,.18-.51,.45-.59,1.65-.45,3.38-.45,5.03,0,.27,.07,.45,.31,.45,.59v1.36l.36,.16c.37,.17,.73,.37,1.06,.6l.33,.22,1.21-.76c.23-.11,.5-.07,.69,.11,1.21,1.15,2.09,2.62,2.52,4.24,.07,.27-.05,.55-.29,.68l-1.22,.68,.03,.39c.01,.18,.02,.36,.02,.54s0,.36-.02,.54l-.03,.39,1.22,.68c.24,.14,.36,.42,.29,.69-.44,1.62-1.31,3.08-2.53,4.24-.11,.11-.26,.17-.42,.17-.1,0-.21-.03-.3-.08l-1.26-.7-.32,.22c-.32,.22-.65,.41-1,.57l-.36,.16v1.36c0,.27-.18,.51-.45,.59-.78,.21-1.59,.33-2.4,.34h-.12Zm-4.63-4.35c.33,.01,.65,.11,.92,.29,.3,.2,.62,.38,.96,.53,.61,.28,1,.89,1,1.56v.51l.5,.14c.82,.13,1.66,.13,2.48,0l.52-.08v-.53c-.02-.69,.37-1.32,1-1.61,.33-.15,.65-.33,.96-.53,.27-.18,.59-.28,.92-.29,.33,0,.65,.07,.94,.23l.54,.3,.33-.39c.5-.6,.91-1.28,1.21-2l.21-.51-1.19-.67c-.23-.13-.35-.39-.3-.65,.15-.75,.15-1.52,0-2.27-.05-.26,.07-.51,.3-.64l1.19-.67-.21-.51c-.3-.72-.7-1.4-1.2-2l-.33-.4-.54,.3c-.27,.15-.58,.23-.89,.23-.35,0-.69-.1-.98-.29-.3-.2-.62-.38-.96-.53-.61-.28-1-.89-.99-1.56v-.51l-.5-.14c-.82-.13-1.66-.13-2.49,0l-.52,.08v.53c0,.34-.09,.68-.27,.97-.18,.28-.43,.5-.73,.64-.33,.15-.65,.33-.96,.53-.27,.18-.59,.28-.92,.29-.33,0-.65-.07-.94-.23l-.54-.3-.33,.39c-.5,.6-.91,1.28-1.21,2l-.21,.51,1.19,.67c.23,.13,.35,.39,.3,.64-.15,.75-.15,1.53,0,2.28,.05,.25-.07,.51-.3,.64l-1.19,.66,.21,.51c.3,.72,.71,1.4,1.21,2.01l.32,.39,.54-.3c.27-.15,.57-.23,.88-.23h.06Z"/><path id="Path_5841" class="cls-8" d="M97.8,133.14c-2.02,0-3.67-1.64-3.67-3.66,0-2.02,1.64-3.67,3.66-3.67,2.02,0,3.67,1.64,3.67,3.66,0,.97-.39,1.91-1.07,2.6-.69,.69-1.62,1.08-2.59,1.07m0-6.11c-1.35,0-2.45,1.1-2.45,2.45s1.1,2.45,2.45,2.45,2.45-1.1,2.45-2.45-1.1-2.45-2.45-2.45h0"/><path id="Path_5842" class="cls-8" d="M83.13,147.2c-1.69,0-3.05-1.37-3.05-3.05v-2.44c0-.34,.27-.61,.61-.61h1.85v-21.4c0-1.69,1.37-3.05,3.05-3.05h24.45c1.69,0,3.05,1.37,3.05,3.05v21.4h1.84c.16,0,.32,.06,.43,.18,.11,.11,.18,.27,.18,.43v2.45c0,1.69-1.37,3.05-3.05,3.05h-29.34Zm-1.84-3.05c0,1.01,.82,1.83,1.84,1.84h29.34c1.01,0,1.83-.82,1.84-1.84v-1.84h-33.01v1.84Zm4.28-26.29c-1.01,0-1.83,.82-1.84,1.84v21.4h28.12v-21.4c0-1.01-.82-1.83-1.83-1.84h-24.45Z"/><path id="Path_5843" class="cls-8" d="M64.8,167.98c-.34,0-.61-.27-.61-.61v-9.17h-3.06c-.34,0-.61-.27-.61-.61,0-.16,.06-.31,.18-.43l11-11c.24-.24,.62-.24,.86,0h0l11,11c.24,.24,.24,.62,0,.86-.11,.11-.26,.18-.42,.18h-3.06v9.17c0,.16-.06,.31-.18,.43-.11,.11-.27,.18-.43,.18h-14.67Zm9.78-7.32c.16,0,.32,.06,.43,.18,.11,.11,.18,.27,.18,.43v5.5h3.68v-9.16c0-.34,.27-.61,.61-.61h2.2l-9.54-9.54-9.53,9.54h2.2c.16,0,.32,.07,.43,.18,.11,.11,.18,.27,.18,.43v9.17h3.68v-5.5c0-.34,.27-.61,.61-.61h4.89Zm-4.28,6.1h3.67v-4.9h-3.67v4.9Z"/><path id="Path_5844" class="cls-8" d="M117.36,120.3c-.16,0-.32-.06-.43-.18-.11-.11-.18-.27-.18-.43v-24.45c0-1.01,.82-1.83,1.83-1.83h14.67c1.01,0,1.83,.82,1.83,1.83v24.45c0,.34-.27,.61-.61,.61h-17.12Zm11.61-1.21h4.9v-24.46h-15.9v24.46h4.9v-4.9h-1.22v-1.21h8.55v1.22h-1.22v4.89Zm-4.89,0h3.68v-4.9h-3.68v4.9Z"/><rect id="Rectangle_1019" class="cls-8" x="120.42" y="98.31" width="1.21" height="1.22"/><rect id="Rectangle_1020" class="cls-8" x="125.31" y="98.31" width="1.22" height="1.22"/><rect id="Rectangle_1021" class="cls-8" x="130.2" y="98.31" width="1.22" height="1.22"/><rect id="Rectangle_1022" class="cls-8" x="120.42" y="103.2" width="1.21" height="1.22"/><rect id="Rectangle_1023" class="cls-8" x="125.31" y="103.2" width="1.22" height="1.22"/><rect id="Rectangle_1024" class="cls-8" x="130.2" y="103.2" width="1.22" height="1.22"/><rect id="Rectangle_1025" class="cls-8" x="120.42" y="108.09" width="1.21" height="1.22"/><rect id="Rectangle_1026" class="cls-8" x="125.31" y="108.09" width="1.22" height="1.22"/><rect id="Rectangle_1027" class="cls-8" x="130.2" y="108.09" width="1.22" height="1.22"/><path id="Path_5845" class="cls-8" d="M65.41,141.09v-18.94c.01-11.13,9.03-20.15,20.17-20.17h17.73v-3.06c0-.34,.27-.61,.61-.61,.11,0,.22,.03,.31,.09l6.11,3.67c.29,.17,.38,.55,.21,.84-.05,.08-.12,.16-.21,.21l-6.11,3.67c-.29,.17-.66,.08-.83-.21-.06-.09-.09-.2-.09-.31v-3.05h-17.73c-10.46,.01-18.94,8.49-18.95,18.95v18.94h-1.21Zm39.11-35.91l4.32-2.6-4.32-2.6v5.19Z"/><path id="Path_5846" class="cls-8" d="M96.58,164.31c-.11,0-.22-.03-.31-.09l-6.11-3.67c-.29-.17-.38-.55-.21-.83,.05-.08,.12-.16,.21-.21l6.11-3.67c.29-.17,.66-.08,.83,.21,.06,.09,.09,.2,.09,.31v3.06h12.84c10.46-.01,18.94-8.49,18.95-18.95v-11.61h1.22v11.61c-.01,11.13-9.04,20.15-20.17,20.17h-12.83v3.06c0,.22-.12,.42-.31,.53-.09,.05-.19,.08-.3,.08m-4.93-4.27l4.32,2.6v-5.19l-4.32,2.6Z"/><path id="Path_5847" class="cls-8" d="M210.74,75.59c-1.82,0-3.29-1.47-3.29-3.29v-15.54c0-1.82,1.47-3.29,3.29-3.29h5.55l2.64,2.65h11.32c1.81,0,3.28,1.48,3.29,3.29v12.9c0,1.81-1.48,3.28-3.29,3.29h-19.51Zm0-20.84c-1.1,0-2,.9-2,2v15.54c0,1.1,.9,2,2,2h19.51c1.1,0,2-.9,2-2v-12.89c0-1.1-.9-2-2-2h-11.83l-2.64-2.65h-5.03Zm8.95,15.54v-3.97h-3.97v-1.29h3.97v-3.97h1.29v3.97h3.97v1.29h-3.97v3.97h-1.29Z"/></g></g></g></g></g></g></g></g></svg>