<svg id="Group_979" data-name="Group 979" xmlns="http://www.w3.org/2000/svg" xmlns:xlink="http://www.w3.org/1999/xlink" width="524.422" height="270" viewBox="0 0 524.422 270">
  <defs>
    <clipPath id="clip-path">
      <rect id="Rectangle_1017" data-name="Rectangle 1017" width="524.422" height="270" fill="none"/>
    </clipPath>
    <clipPath id="clip-path-3">
      <rect id="Rectangle_1014" data-name="Rectangle 1014" width="524.422" height="261.786" fill="none"/>
    </clipPath>
  </defs>
  <g id="Group_978" data-name="Group 978" clip-path="url(#clip-path)">
    <g id="Group_977" data-name="Group 977">
      <g id="Group_976" data-name="Group 976" clip-path="url(#clip-path)">
        <g id="Group_975" data-name="Group 975" transform="translate(0 8.214)" opacity="0.6">
          <g id="Group_974" data-name="Group 974">
            <g id="Group_973" data-name="Group 973" clip-path="url(#clip-path-3)">
              <path id="Path_5693" data-name="Path 5693" d="M410.678,138.445c-41.3-31.83-45.769-115.032-105.14-125.427C239.2,1.4,227.725,54.751,202.967,67.513c-45.06,23.227-81.574-32.551-136.5-12.686C-7.378,81.538-4.875,220.9,5.138,273.162H510.68s24.923-38.776,7.642-70.842c-19.4-36-71.042-35.668-107.643-63.874" transform="translate(0 -11.376)" fill="#98d8f4"/>
            </g>
          </g>
        </g>
        <path id="Path_5694" data-name="Path 5694" d="M362.678,71.58a.637.637,0,0,1-.445-.2L348.583,56.97H312.32c-2.779,0-5.039-2.966-5.039-6.61V42.4H303.2l-13.65,14.415a.627.627,0,0,1-.77.111.618.618,0,0,1-.282-.721L292.64,42.5l-.862-.233c-2.327-.627-4.016-3.35-4.016-6.473V6.61c0-3.645,2.261-6.61,5.039-6.61h46.657c2.779,0,5.041,2.966,5.041,6.61v7.959h14.478c2.779,0,5.039,2.966,5.039,6.61V50.36c0,3.124-1.688,5.847-4.015,6.475l-.861.233,4.147,13.707A.627.627,0,0,1,363,71.5a.642.642,0,0,1-.314.084ZM292.8,1.251c-2.089,0-3.789,2.4-3.789,5.36v29.18c0,2.955,1.7,5.36,3.789,5.36h.71a.629.629,0,0,1,.5.253.636.636,0,0,1,.1.553l-2.692,8.9,1.3.755,9.758-10.266a.623.623,0,0,1,.453-.195h4.355V21.18c0-3.645,2.26-6.61,5.039-6.61h30.928V6.61c0-2.955-1.7-5.36-3.79-5.36Z" transform="translate(-79.979 0)" fill="#536876"/>
        <path id="Path_5695" data-name="Path 5695" d="M532.431,118.214s2.215-8.831.727-12.962c-5.322-1.686-4.925-.76-8.495-3.735s-5.8-8.726-6.105-12.495-2-21.023-2-21.023-1.648-12.692,2.847-16.2c3.5-2.513,27.98-4.711,27.98-4.711s6.595,6.3,7.239,8.528,5.949,14.973,5.949,14.973,4.76,2.068,5.6,4.53.719,4.3-1.141,6.031a31.772,31.772,0,0,1-5.255,3.57s.843,15.568,1.24,18.99,1.735,12.147,3.024,14.577-24.878,19.585-25.256,19.287-7.847-9.321-7.732-9.916,1.371-9.448,1.371-9.448" transform="translate(-143.489 -13.089)" fill="#fff"/>
        <path id="Path_5696" data-name="Path 5696" d="M547.9,161.7l24.853-19.422,9.84,6.131-20.512,38.17Z" transform="translate(-152.281 -39.545)" fill="#fff"/>
        <path id="Path_5697" data-name="Path 5697" d="M534.924,143.11l-7.071,4.661,1.617,29.187,12.329-15.04Z" transform="translate(-146.709 -39.775)" fill="#fff"/>
        <path id="Path_5698" data-name="Path 5698" d="M393.9,169.269s-.843-3.818-2.529-5.107-8.131-1.339-13.833-2.875-7.14-2.777-9.371-4.76-4.265-6.275-3.867-7.041,1.141-2.677,1.141-2.677-2.331-1.735-1.091-3.272,1.934-2.479,3.52-2.429c.248-2.628.6-2.975,2.529-3.372s2.681.388,2.681.388.641-2.024,2.376-1.478,3.074,2.082,4.71,3.768,1.488,2.727,4.066,4.215a52.93,52.93,0,0,0,7.586,3.124l2.43-.2s-4.016-3.52-4.958-6.694-2.628-4.412-1.157-5.883,1.851-2.149,4.628-1.355,7.01,5.847,9.5,7.113a78.46,78.46,0,0,1,10.6,7.2,13.857,13.857,0,0,1,4.434,6.66c.645,2.231,1.788,10.71,1.788,10.71Z" transform="translate(-101.166 -37.044)" fill="#fff"/>
        <path id="Path_5699" data-name="Path 5699" d="M432.758,168.638l-29.323,6.039,8.673,32.179s11.5,35.8,14.577,40.855,9.52,11.4,17.056,11.5,11.3-2.479,13.982-4.462a39.631,39.631,0,0,0,8.23-9.421c1.785-2.975,3.075-5.553,3.075-5.553l-3.471,57.515-.2,13.386,96.684.1-1.487-42.442s20.163-4.164,24.129-7.6,7.5-8.132,7.5-16.594-4.33-28.361-5.388-34.707-9.983-28.955-13.354-34.112-14.544-18.114-31.6-23.4c-3.173,5.95-19.436,36.492-19.436,36.492l-14.477-24.129L494.71,180.148l-1.851-29.683s-18.444,9.52-24.064,15.668a82.808,82.808,0,0,0-13.09,19.7c-2.049,4.826-9.387,20.1-9.387,20.1Z" transform="translate(-112.129 -41.82)" fill="#98d8f4"/>
        <path id="Path_5700" data-name="Path 5700" d="M554.647,64.395s-5.883-5.883-6.743-9.321c-.716-2.867-1.846-9.409-2.2-11.505a.514.514,0,0,0-.709-.395c-1.854.8-7.645,3.142-12.029,3.306-5.288.2-17.32.132-17.32.132L513.13,56l-.264,2.578a8.8,8.8,0,0,1-4.5-5.156c-1.057-3.636-1.189-9.718.265-11.371-1.322-4.231-2.116-8.065.991-12.759s6.677-7.8,16.659-7.668,15.205,1.389,17.783,4.1,6.214,7.008,6.214,7.008,8.462,2.116,11.107,7.537,3.107,9.387,2.908,12.957-1.586,11.9-2.38,12.495c-4.007-3.677-7.272-1.322-7.272-1.322" transform="translate(-141.044 -6.009)" fill="#2e2e2e"/>
        <rect id="Rectangle_1015" data-name="Rectangle 1015" width="64.806" height="73.889" transform="translate(360.978 178.275) rotate(-10.578)" fill="#fff"/>
        <path id="Path_5701" data-name="Path 5701" d="M534.437,107.643c-5.3,0-9.479-1.68-12.456-5.006-2.885-3.223-4.607-7.97-5.118-14.111l-1.891-22.712a20.506,20.506,0,0,1,2.441-11.575A.794.794,0,0,1,518.8,55a18.925,18.925,0,0,0-2.253,10.681l1.891,22.711c.482,5.789,2.071,10.225,4.719,13.186,3.045,3.4,7.566,4.883,13.43,4.384l.175-.016a43.469,43.469,0,0,0,7.313-1.209.794.794,0,0,1,.372,1.543,45.06,45.06,0,0,1-7.554,1.248l-.173.014q-1.175.1-2.288.1" transform="translate(-143.109 -14.96)" fill="#2e2e2e"/>
        <path id="Path_5702" data-name="Path 5702" d="M575.34,93.281a7.246,7.246,0,0,1-2.568-.469.794.794,0,0,1,.561-1.485,5.8,5.8,0,0,0,2.493.347,5.719,5.719,0,1,0-3.178-10.742.793.793,0,0,1-.75-1.4,7.243,7.243,0,0,1,2.846-.84,7.305,7.305,0,0,1,1.212,14.56c-.206.017-.412.026-.617.026" transform="translate(-158.835 -21.865)" fill="#2e2e2e"/>
        <path id="Path_5703" data-name="Path 5703" d="M579.387,87.439a.792.792,0,0,1-.79-.736,2.531,2.531,0,0,0-.843-1.852,2.979,2.979,0,0,0-2.386-.37.794.794,0,0,1-.282-1.562,4.5,4.5,0,0,1,3.642.679,4,4,0,0,1,1.451,2.99.794.794,0,0,1-.735.849h-.057" transform="translate(-159.656 -23.017)" fill="#2e2e2e"/>
        <path id="Path_5704" data-name="Path 5704" d="M538.213,140.99a.793.793,0,0,1-.7-1.167c1.655-3.1,1.241-10.4,1.105-12.8a.793.793,0,0,1,1.583-.09c.248,4.354.381,10.5-1.288,13.635a.792.792,0,0,1-.7.42" transform="translate(-149.368 -35.072)" fill="#2e2e2e"/>
        <path id="Path_5705" data-name="Path 5705" d="M579.361,129.363a.792.792,0,0,1-.734-.495c-2.217-5.435-2.858-21.4-3.2-29.97l-.056-1.37a.8.8,0,0,1,.76-.826.806.806,0,0,1,.825.761l.056,1.371c.315,7.873.973,24.256,3.085,29.436a.792.792,0,0,1-.734,1.092" transform="translate(-159.915 -26.877)" fill="#2e2e2e"/>
        <path id="Path_5706" data-name="Path 5706" d="M557.4,72.953a.8.8,0,0,1-.573-.243C554,69.763,549.141,63.1,548.1,51.348c-6.561,3.935-20.018,5.263-29.166,2.821a.794.794,0,0,1-.562-.971.81.81,0,0,1,.971-.562c8.81,2.353,22.286.99,28.275-2.856a1.313,1.313,0,0,1,2.025,1c.922,11.532,5.618,18,8.336,20.832a.794.794,0,0,1-.573,1.343" transform="translate(-144.065 -13.776)" fill="#2e2e2e"/>
        <path id="Path_5707" data-name="Path 5707" d="M562.454,66.623a.806.806,0,0,1-.238-.037.794.794,0,0,1-.518-1,45.077,45.077,0,0,0,.7-20.243c-1.2-5.877-5.6-10.157-12.729-12.375l-.3-.093-.155-.272c-2.882-5.067-6.657-8.016-11.877-9.28-11.031-2.672-20.416-1.144-25.752,4.185a12.047,12.047,0,0,0-3.379,11.537,5.3,5.3,0,0,0,1.089,2.158.794.794,0,1,1-1.168,1.075,6.88,6.88,0,0,1-1.453-2.825,13.612,13.612,0,0,1,3.79-13.069c5.735-5.73,15.665-7.406,27.246-4.605,5.582,1.352,9.632,4.459,12.727,9.767,9.516,3.064,12.6,9.008,13.513,13.48a45.815,45.815,0,0,1-.74,21.037.792.792,0,0,1-.756.555" transform="translate(-140.713 -5.686)" fill="#2e2e2e"/>
        <path id="Path_5708" data-name="Path 5708" d="M513.669,67.889a.792.792,0,0,1-.348-.081,13.18,13.18,0,0,1-6.271-8.072,15.225,15.225,0,0,1,.945-10.135.793.793,0,1,1,1.428.691,13.744,13.744,0,0,0-.843,9.019,11.7,11.7,0,0,0,5.439,7.071.794.794,0,0,1-.349,1.506" transform="translate(-140.796 -13.661)" fill="#2e2e2e"/>
        <path id="Path_5709" data-name="Path 5709" d="M561.738,186.739l-15.551-25.776,25.7-20.273,11.445,6.714Zm-13.47-25.4,13.405,22.219L581.2,147.993l-9.18-5.384Z" transform="translate(-151.805 -39.103)" fill="#2e2e2e"/>
        <path id="Path_5710" data-name="Path 5710" d="M528.127,180.159l-1.4-33.407,8.132-5.5,7.861,20.185Zm.225-32.589,1.181,28.207,11.385-14.6-6.815-17.5Z" transform="translate(-146.397 -39.26)" fill="#2e2e2e"/>
        <path id="Path_5711" data-name="Path 5711" d="M443.2,266.783q-.616,0-1.243-.023c-8.5-.33-15.947-8.857-22.145-25.347-7.335-19.516-17.488-59.429-17.591-59.83l-.2-.8,30.813-6.346,15.841,44.888a.793.793,0,1,1-1.5.527L431.8,176.266,403.967,182c1.479,5.766,10.6,40.962,17.332,58.86,4.091,10.886,11.007,23.943,20.721,24.318,12.563.494,21.712-6.866,25.8-20.694a.793.793,0,1,1,1.521.449c-4.18,14.137-13.438,21.855-26.143,21.855" transform="translate(-111.736 -48.481)" fill="#2e2e2e"/>
        <path id="Path_5712" data-name="Path 5712" d="M462.634,207.1a.783.783,0,0,1-.326-.07.793.793,0,0,1-.4-1.048l3.508-7.8c2.689-5.987,5.467-12.17,6.832-15.141,6.933-15.083,15.851-23.272,36.7-33.7a.794.794,0,0,1,.71,1.42c-20.473,10.235-29.213,18.239-35.97,32.941-1.365,2.967-4.139,9.144-6.826,15.129l-3.509,7.8a.793.793,0,0,1-.724.468" transform="translate(-128.362 -41.482)" fill="#2e2e2e"/>
        <path id="Path_5713" data-name="Path 5713" d="M488.27,325.171h-.048a.794.794,0,0,1-.745-.838c.019-.322,1.911-32.228,2.181-42.812.223-8.746,2.929-41.813,4.719-63.692.663-8.107,1.215-14.85,1.5-18.587a.776.776,0,0,1,.851-.731.8.8,0,0,1,.731.852c-.282,3.737-.835,10.483-1.5,18.595-1.789,21.862-4.493,54.9-4.714,63.6-.27,10.61-2.164,42.544-2.183,42.865a.794.794,0,0,1-.791.747" transform="translate(-135.487 -55.171)" fill="#2e2e2e"/>
        <path id="Path_5714" data-name="Path 5714" d="M397.458,149.769c-2.816,0-5.153-1.018-8.025-2.267-.807-.352-1.663-.724-2.589-1.1l-.157-.085a18.368,18.368,0,0,1-4.3-4.452,9.344,9.344,0,0,0-2.968-2.982,2.231,2.231,0,0,0-2.212.031,1.1,1.1,0,0,0-.188.713.793.793,0,0,1-.76.825.811.811,0,0,1-.825-.76,2.492,2.492,0,0,1,.827-2.054,3.787,3.787,0,0,1,3.882-.167,10.633,10.633,0,0,1,3.514,3.443,17.139,17.139,0,0,0,3.868,4.051c.908.369,1.748.734,2.542,1.08,4.111,1.788,6.826,2.973,11.523,1.381a.793.793,0,0,1,.508,1.5,14.324,14.324,0,0,1-4.639.838" transform="translate(-104.345 -38.082)" fill="#2e2e2e"/>
        <path id="Path_5715" data-name="Path 5715" d="M427.956,164.158a.794.794,0,0,1-.789-.714c-.782-7.84-1.783-12.938-9.072-17.622l-2.327-1.492c-5.628-3.6-8.452-5.408-12.961-9.458-1.5-1.344-3.038-1.667-4.232-.879a2.288,2.288,0,0,0-1.013,2.557c1.6,4.718,5.3,8.9,6.51,10.277a.794.794,0,0,1-1.19,1.051c-1.266-1.435-5.117-5.8-6.823-10.817a3.891,3.891,0,0,1,1.643-4.391c1.815-1.2,4.119-.817,6.166,1.021,4.413,3.963,7.2,5.748,12.756,9.3l2.331,1.494c7.871,5.059,8.988,10.728,9.792,18.8a.793.793,0,0,1-.711.868.742.742,0,0,1-.079,0" transform="translate(-110.029 -36.682)" fill="#2e2e2e"/>
        <path id="Path_5716" data-name="Path 5716" d="M540.457,219.494h-.008a.793.793,0,0,1-.786-.8c0-.2.253-20.629,4.969-50.1a.793.793,0,1,1,1.566.251c-4.693,29.34-4.945,49.659-4.948,49.86a.794.794,0,0,1-.794.786" transform="translate(-149.992 -46.674)" fill="#2e2e2e"/>
        <path id="Path_5717" data-name="Path 5717" d="M393.88,175.1a.793.793,0,0,1-.728-.479c-.2-.472-.378-.956-.551-1.441a7.725,7.725,0,0,0-1.942-3.443c-.578-.4-4.6-1.013-7.543-1.456a58.679,58.679,0,0,1-9.088-1.773c-6.249-3.17-9.5-7.694-10.03-9.274-.713-2.117-.526-3.643.574-4.669,1.671-1.557,4.334-.131,5.206.336a21.8,21.8,0,0,1,4.007,3.175c1.565,1.441,3.182,2.929,4.463,3.224a24.7,24.7,0,0,0,4.112.2c4.116.018,9.755.042,13.354,2.183a.793.793,0,1,1-.812,1.363c-3.225-1.919-8.614-1.942-12.549-1.96a24.475,24.475,0,0,1-4.461-.237c-1.69-.389-3.386-1.951-5.181-3.6a20.759,20.759,0,0,0-3.683-2.944c-1.682-.9-2.818-1.1-3.375-.575-.219.2-.887.826-.154,3,.383,1.137,3.386,5.4,9.175,8.337a62.526,62.526,0,0,0,8.678,1.649c5.387.814,7.652,1.208,8.362,1.841a9.071,9.071,0,0,1,2.381,4.093c.162.453.323.906.513,1.347a.793.793,0,0,1-.729,1.108" transform="translate(-101.051 -42.206)" fill="#2e2e2e"/>
        <path id="Path_5718" data-name="Path 5718" d="M512.5,315.519l-13.856-74.192,65.265-12.188,13.856,74.192Zm-12-72.925,13.273,71.075,62.145-11.605-13.273-71.075Z" transform="translate(-138.591 -63.686)" fill="#2e2e2e"/>
        <path id="Path_5719" data-name="Path 5719" d="M622.327,356.792a.793.793,0,0,1-.791-.745l-2.563-41.979a.793.793,0,1,1,1.583-.1l2.563,41.979a.793.793,0,0,1-.744.84h-.049" transform="translate(-172.035 -87.057)" fill="#2e2e2e"/>
        <path id="Path_5720" data-name="Path 5720" d="M535.33,364.48h-.01a.8.8,0,0,1-.783-.8l.264-20.1a.738.738,0,0,1,.8-.783.794.794,0,0,1,.783.8l-.264,20.1a.794.794,0,0,1-.794.783" transform="translate(-148.567 -95.273)" fill="#2e2e2e"/>
        <path id="Path_5721" data-name="Path 5721" d="M594.693,271.844c-.4,0-47.8,10.313-47.8,10.313l4.2,27.5s40.029-6.346,45.317-7.272-1.719-30.542-1.719-30.542" transform="translate(-152.002 -75.555)" fill="#98d8f4"/>
        <path id="Path_5722" data-name="Path 5722" d="M549.976,276.786l-4.722-28.94,46.876-9.885-7.454-28.013a.794.794,0,1,1,1.534-.409l7.884,29.631-47.03,9.916,4.235,25.959c7.211-.817,64.142-7.528,74.605-16.842,4.628-4.122,5.735-15.276,3.116-31.41-.909-5.6-4.486-25.22-12.369-42.771-6.091-13.565-16.3-22.857-35.223-32.072a.793.793,0,1,1,.694-1.425c19.04,9.269,29.8,19.092,35.976,32.846,7.962,17.729,11.572,37.524,12.488,43.169,1.57,9.666,3.185,26.784-3.627,32.847-11.5,10.235-73.6,17.035-76.236,17.319Z" transform="translate(-151.546 -41.814)" fill="#2e2e2e"/>
        <path id="Path_5723" data-name="Path 5723" d="M383.185,154.828a.782.782,0,0,1-.251-.04l-.885-.294a27.251,27.251,0,0,1-5.688-2.281,43.022,43.022,0,0,1-4.252-3.785,33.289,33.289,0,0,0-3.5-3.129,2.535,2.535,0,0,0-3.362.284c-1.038,1.3-.323,3.036.411,3.886a.793.793,0,1,1-1.2,1.038,4.638,4.638,0,0,1-.449-5.915,4.071,4.071,0,0,1,5.436-.64,31.438,31.438,0,0,1,3.768,3.333,42.629,42.629,0,0,0,4.054,3.624,27.8,27.8,0,0,0,5.286,2.08l.888.294a.794.794,0,0,1-.251,1.547" transform="translate(-100.925 -39.802)" fill="#2e2e2e"/>
        <path id="Path_5724" data-name="Path 5724" d="M513.893,292.382s-5.545-1.438-7.09,1.438-2.38,2.777-.992,4.512a4.218,4.218,0,0,0,3.025,1.735s-3.307,1.929-2.819,4.262,1.331,3.969,2.373,4.168,1.686.3,1.686.3-2.38.793-2.48,2.974.149,3.917.992,4.264a29.046,29.046,0,0,0,3.223.843s-2.082,2.033-1.091,3.421,1.886,3.272,4.736,2.925a26.892,26.892,0,0,0,6.916-1.983c.661-.358,1.934-18.494,1.438-19.387s-9.916-9.47-9.916-9.47" transform="translate(-140.387 -81.163)" fill="#fff"/>
        <path id="Path_5725" data-name="Path 5725" d="M537.191,286.736a.824.824,0,0,1-.151-.014,8.639,8.639,0,0,1-3.781-1.767c-4.964-4.022-16.594-13.443-19.3-11.546a3.1,3.1,0,0,0-1.611,2.308c-.042,1.205.986,2.667,3.054,4.343a23.183,23.183,0,0,1,5.223,5.444.793.793,0,0,1-1.367.8,22.389,22.389,0,0,0-4.856-5.015c-2.511-2.036-3.7-3.878-3.641-5.632a4.6,4.6,0,0,1,2.285-3.551c3.089-2.157,10.112,2.621,21.208,11.611a7.016,7.016,0,0,0,3.082,1.441.794.794,0,0,1-.149,1.573" transform="translate(-141.959 -75.487)" fill="#2e2e2e"/>
        <path id="Path_5726" data-name="Path 5726" d="M515.992,332.044a5.072,5.072,0,0,1-2.5-.56,3.732,3.732,0,0,1-1.832-2.669c-.706-3.455,1.809-4.631,4.631-5.387a.794.794,0,0,1,.411,1.534c-3.375.9-3.823,1.9-3.488,3.536a2.195,2.195,0,0,0,1.048,1.6c1.958,1.094,6.3-.516,8.9-1.477,4.5-1.664,16.017-7.416,16.133-7.473l1.357-.507a.793.793,0,1,1,.55,1.487l-1.277.472c-.4.205-11.627,5.813-16.213,7.507-2.715,1-5.483,1.935-7.72,1.935" transform="translate(-142.176 -89.104)" fill="#2e2e2e"/>
        <path id="Path_5727" data-name="Path 5727" d="M509.788,300.605c-1.817,0-3.428-.249-4.462-1.275a4.551,4.551,0,0,1-1.1-3.636c.2-4.179,4.927-4.506,10.4-4.883,1.164-.08,2.387-.165,3.644-.288a.794.794,0,0,1,.154,1.581c-1.272.122-2.511.209-3.688.29-5.615.388-8.8.736-8.925,3.378a3.1,3.1,0,0,0,.633,2.433c.828.82,2.581.894,5.14.753a.768.768,0,0,1,.837.747.793.793,0,0,1-.747.837c-.643.037-1.276.065-1.885.065" transform="translate(-140.139 -80.746)" fill="#2e2e2e"/>
        <path id="Path_5728" data-name="Path 5728" d="M510.217,312.556a5.284,5.284,0,0,1-3.011-.854,4.212,4.212,0,0,1-1.859-2.867,5.917,5.917,0,0,1,.905-4.473,6.241,6.241,0,0,1,4.418-2.085.793.793,0,0,1,.178,1.577,4.754,4.754,0,0,0-3.346,1.486,4.332,4.332,0,0,0-.582,3.291,2.633,2.633,0,0,0,1.173,1.755,4.708,4.708,0,0,0,3.855.339.793.793,0,1,1,.4,1.534,8.4,8.4,0,0,1-2.133.3" transform="translate(-140.427 -84.013)" fill="#2e2e2e"/>
        <path id="Path_5729" data-name="Path 5729" d="M511.346,324a4.039,4.039,0,0,1-4.24-4.158c-.155-2.941.65-4.813,5.221-5.68a.793.793,0,1,1,.3,1.559c-3.906.74-4.039,2.017-3.932,4.038A2.783,2.783,0,0,0,509.763,322c.831.56,2.121.561,3.727.005a.794.794,0,0,1,.519,1.5,8.17,8.17,0,0,1-2.663.5" transform="translate(-140.938 -87.314)" fill="#2e2e2e"/>
        <path id="Path_5730" data-name="Path 5730" d="M386.277,149.9a.782.782,0,0,1-.222-.031c-.562-.164-5.539-1.667-7.172-4.01s-5.727-6.075-6.984-6.1a2.362,2.362,0,0,0-1.856.779,1.955,1.955,0,0,0-.409,1.669.793.793,0,1,1-1.556.31,3.558,3.558,0,0,1,.747-3,3.878,3.878,0,0,1,3.1-1.35c2.321.044,6.9,4.83,8.254,6.777,1.113,1.6,4.936,2.992,6.314,3.394a.793.793,0,0,1-.222,1.555" transform="translate(-102.282 -38.404)" fill="#2e2e2e"/>
        <path id="Path_5731" data-name="Path 5731" d="M490.8,373.317H14.291a.793.793,0,1,1,0-1.586H490.8a.793.793,0,1,1,0,1.586" transform="translate(-3.751 -103.317)" fill="#2e2e2e"/>
        <path id="Path_5732" data-name="Path 5732" d="M169.841,343.257s-3.173-1.19-3.173-3.272-.1-4.462,8.627-4.264,63.563-.033,63.563-.033l16.659-65.613s-.793-3.867,4.3-3.867,97.576-.132,97.576-.132,2.645.2,2.578,2.181-4.3,16.989-4.3,16.989L342.12,341.77a4.193,4.193,0,0,1-2.314,1.256c-1.388.2-169.965.231-169.965.231" transform="translate(-46.323 -73.952)" fill="#72005d"/>
        <path id="Path_5733" data-name="Path 5733" d="M366.947,343.7H269.371a.793.793,0,1,1,0-1.586h97.576c.941,0,2.077-.3,2.527-2.65l17.462-70.4a1.74,1.74,0,0,0-.249-1.482,2.974,2.974,0,0,0-2.309-.827H286.823c-.907,0-1.918.321-2.538,2.7l-16.4,66.112a.793.793,0,1,1-1.54-.381l16.4-66.122c.253-.971,1.015-3.9,4.075-3.9H384.4a4.355,4.355,0,0,1,3.532,1.433,3.307,3.307,0,0,1,.549,2.818L371.023,339.8c-.614,3.214-2.556,3.9-4.076,3.9" transform="translate(-74.021 -73.698)" fill="#2e2e2e"/>
        <path id="Path_5734" data-name="Path 5734" d="M244.671,370.487H169.928a4.467,4.467,0,0,1-4.462-4.462c0-2.578,2.1-4.461,4.994-4.476h68.528a.793.793,0,1,1,0,1.586H170.464c-2.007.011-3.412,1.2-3.412,2.89a2.88,2.88,0,0,0,2.876,2.876h74.742a.793.793,0,1,1,0,1.586" transform="translate(-45.989 -100.487)" fill="#2e2e2e"/>
        <path id="Path_5735" data-name="Path 5735" d="M354.895,324.4c2.7-4.68,1.786-10.266-2.046-12.479s-9.128-.212-11.83,4.467-1.786,10.266,2.046,12.479,9.128.212,11.83-4.467" transform="translate(-94.35 -86.445)" fill="#fff"/>
        <path id="Path_5736" data-name="Path 5736" d="M346.188,330.266a7.577,7.577,0,0,1-3.823-1.012c-4.2-2.426-5.252-8.511-2.337-13.562s8.708-7.185,12.914-4.757,5.252,8.511,2.337,13.562a11.7,11.7,0,0,1-5.9,5.163,9.043,9.043,0,0,1-3.193.606m2.927-18.753a9.344,9.344,0,0,0-7.712,4.972c-2.48,4.293-1.691,9.4,1.755,11.4a6.547,6.547,0,0,0,5.662.3,10.114,10.114,0,0,0,5.084-4.473c2.479-4.293,1.692-9.406-1.755-11.4a6.019,6.019,0,0,0-3.033-.795m5.476,12.588h0Z" transform="translate(-94.047 -86.142)" fill="#2e2e2e"/>
        <path id="Path_5737" data-name="Path 5737" d="M172.318,113.912c8.594,3.041,21.948,1.586,24.46,8.462s7.272,25.518,2.644,35.963-15.072,14.94-15.072,14.94l.264,11.5s-32.525-.926-32.79-1.322,4.892-4.892,5.553-11.106-13.09-5.95-12.957-15.867,3.7-25.386,10.18-27.9,17.717-14.676,17.717-14.676" transform="translate(-40.139 -31.66)" fill="#fff"/>
        <path id="Path_5738" data-name="Path 5738" d="M139.9,208.83s-1.058-2.314,2.975-1.586,8.99,3.9,16.99,3.9a103.449,103.449,0,0,0,14.874-1.124s13.355,6.346,18.974,10.908A111.7,111.7,0,0,1,208.782,236.6c2.909,3.768,7.933,14.875,8.727,17.982s11.7,36.889,11.7,36.889L221.938,319.3l-17.849-.2-8.462-25.584-5.157,10.842L187.5,319.1s-33.319-1.058-36.36,1.454.4,6.082.4,6.082H105.785l16.13-80.785Z" transform="translate(-29.401 -57.561)" fill="#118bcb"/>
        <path id="Path_5739" data-name="Path 5739" d="M131.061,207.3a78.973,78.973,0,0,1-8.528,3.306c-4.1,1.256-19.634,9.189-24.46,13.155s-12.032,14.676-13.618,18.378S74.67,266.73,74.67,266.73l-7.239,24.2s-2.942,14.412-2.412,20.427,4.759,12.165,7.6,13.685,8.793,1.653,10.644,1.653,25.518-2.644,25.518-2.644l35.3-5.686-4.3-22.179L102.9,298.264l12.957-36.492Z" transform="translate(-18.053 -57.616)" fill="#118bcb"/>
        <path id="Path_5740" data-name="Path 5740" d="M170.274,330.868s14.818-3.665,17.7-3.3,5.969-1.414,10.891.942S210.591,337.936,212,339.4s5.969,6.649,5.551,8.535-.315,3.56-2.147,3.665a27.5,27.5,0,0,1-4.555-.314s-1.048,1.2-3.823.261-7.906-3.3-8.43-3.508a34.031,34.031,0,0,0-3.822-.472s-5.891,2.332-9.32,3.56a20.628,20.628,0,0,1-8.3.87c-.157,0-4.264-.661-4.264-.661Z" transform="translate(-47.325 -90.959)" fill="#fff"/>
        <path id="Path_5741" data-name="Path 5741" d="M167.218,110.042a31.313,31.313,0,0,1-1.454,9.85c-1.587,4.3-8.66,13.618-13.685,14.544-3.173-.4-6.545-.066-7.338,2.843s-1.322,5.619.727,7.6,8.2,2.446,8.2,2.446.066,8.594-.727,12.891A49.235,49.235,0,0,1,149.7,169.8s-11.767-.992-14.213-1.984-9.85-4.165-11.173-10.247.991-16.263,3.5-20.494,6.545-16.924,8.462-21.353,4.826-11.767,7.47-13.09a37.5,37.5,0,0,1,12.692-2.644c4.43-5.289,11.767-8.528,17.122-7.735s13.42,3.3,16.593,8,5.95,9.453,6.678,15.072.264,15.734,1.057,19.37,4.826,11.3,5.421,15.535.926,9.057-1.785,11.767-7.668,6.479-11.437,7.47a60.319,60.319,0,0,1-8.793,1.388l-2.446-.33.925-6.479s9.123-2.446,11.3-6.545,2.38-13.486,2.38-17.254-2.248-20.692-2.248-20.692l-.727-1.653a20.446,20.446,0,0,1-8.065-.661c-4.628-1.256-6.215-1.256-8.859-3.239a59.475,59.475,0,0,0-6.346-3.966" transform="translate(-34.444 -25.609)" fill="#2e2e2e"/>
        <path id="Path_5742" data-name="Path 5742" d="M193.213,174.578a30.735,30.735,0,0,1-8.814-1.583.793.793,0,1,1,.457-1.518c5.893,1.771,8.662,1.543,9.57,1.466,5.868-.49,10.079-2.695,12.516-6.554,2.121-3.359,2.95-8,2.465-13.785l-1.9-22.71a16.152,16.152,0,0,0-.39-2.577.794.794,0,0,1,1.545-.365,17.826,17.826,0,0,1,.425,2.809l1.9,22.71c.515,6.14-.394,11.108-2.7,14.766-2.716,4.3-7.335,6.754-13.726,7.287-.383.032-.826.056-1.345.056" transform="translate(-51.094 -35.114)" fill="#2e2e2e"/>
        <path id="Path_5743" data-name="Path 5743" d="M158.049,163.938a7.306,7.306,0,1,1,2.34-14.23.793.793,0,1,1-.508,1.5,5.719,5.719,0,1,0,1.05,10.366.793.793,0,1,1,.8,1.37,7.249,7.249,0,0,1-3.066.965c-.207.017-.412.026-.616.026" transform="translate(-41.898 -41.503)" fill="#2e2e2e"/>
        <path id="Path_5744" data-name="Path 5744" d="M156,158.728a.792.792,0,0,1-.788-.717,4.142,4.142,0,0,1,1.139-3.367,4.034,4.034,0,0,1,3.345-1.094.792.792,0,0,1,.708.869.78.78,0,0,1-.87.708,2.505,2.505,0,0,0-2.065.643,2.568,2.568,0,0,0-.679,2.088.793.793,0,0,1-.713.866l-.077,0" transform="translate(-43.132 -42.669)" fill="#2e2e2e"/>
        <path id="Path_5745" data-name="Path 5745" d="M81.712,315.788c-4.69,0-8.16-.414-9.583-1.433-8.278-5.936-11.266-12.692-5.861-35.042a296.332,296.332,0,0,1,15.418-45.357c7.582-16.819,16.483-25.3,35.274-33.619,1.954-.865,3.826-1.6,5.477-2.246,3.519-1.377,6.3-2.465,7.981-4.011,5.3-4.865,5.781-21.974,5.8-27.1a.793.793,0,0,1,.794-.79h0a.793.793,0,0,1,.79.8c-.029,6.78-.7,23.107-6.316,28.263-1.9,1.747-4.8,2.883-8.476,4.321-1.636.64-3.49,1.367-5.413,2.217-18.377,8.135-27.075,16.416-34.469,32.82A294.618,294.618,0,0,0,67.81,279.685c-5.192,21.466-2.445,27.868,5.244,33.381,5.445,3.906,51.187-2.989,69.394-6.15l-3.813-22.692-37.27,3.517,10.041-29.848a.793.793,0,0,1,1.5.505l-9.263,27.533,36.308-3.424,4.319,25.7-.776.134c-5.241.919-43.148,7.445-61.786,7.445" transform="translate(-17.661 -46.19)" fill="#2e2e2e"/>
        <path id="Path_5746" data-name="Path 5746" d="M163.585,141.735a.794.794,0,0,1-.277-1.537c5.706-2.129,13.95-11.21,13.526-23.942a1.125,1.125,0,0,1,.628-1.058,1.146,1.146,0,0,1,1.228.139c9.117,7.4,15.87,8.492,23.225,7.861a.793.793,0,1,1,.136,1.581c-7.526.65-14.456-.414-23.615-7.613.029,13.142-8.4,22.219-14.574,24.521a.779.779,0,0,1-.277.05" transform="translate(-45.246 -31.985)" fill="#2e2e2e"/>
        <path id="Path_5747" data-name="Path 5747" d="M255.055,286.532a.794.794,0,0,1-.752-.542c-.119-.355-11.913-35.6-13.38-39.611-6-16.4-15.178-26.285-33.871-36.464-1.736-.947-7.047-3.924-7.047-3.924l-.216-.122-.108-.223c-1.557-3.191-1.2-9.333-.8-13.672a.793.793,0,1,1,1.58.146c-.577,6.2-.395,10.443.542,12.614,1.027.575,5.287,2.96,6.805,3.788,19.075,10.389,28.454,20.5,34.6,37.313,1.474,4.031,13.275,39.3,13.394,39.654a.792.792,0,0,1-.752,1.044" transform="translate(-55.181 -53.156)" fill="#2e2e2e"/>
        <path id="Path_5748" data-name="Path 5748" d="M224.195,320.435a.779.779,0,0,1-.244-.039.792.792,0,0,1-.51-1c.284-.878.581-1.757.889-2.625a97.894,97.894,0,0,1,3.881-9.013c2.452-5.2,4.768-10.111,5.074-15.443.492-8.58-2.078-16.686-4.563-24.524a.793.793,0,1,1,1.512-.48c2.529,7.976,5.144,16.223,4.635,25.094-.323,5.64-2.7,10.687-5.223,16.031-1.337,2.832-2.718,5.762-3.821,8.865-.3.856-.6,1.719-.874,2.581a.792.792,0,0,1-.755.55" transform="translate(-62.091 -74.142)" fill="#2e2e2e"/>
        <path id="Path_5749" data-name="Path 5749" d="M176.359,211.762a47.07,47.07,0,0,1-20.508-4.56.794.794,0,0,1,.7-1.425c9.227,4.522,21.382,5.623,31.722,2.872a.794.794,0,1,1,.408,1.534,48.121,48.121,0,0,1-12.321,1.579" transform="translate(-43.193 -57.171)" fill="#2e2e2e"/>
        <path id="Path_5750" data-name="Path 5750" d="M178.286,171.788a.793.793,0,0,1-.012-1.586c14.018-.225,23.008-5.8,24.048-14.915.594-5.208-.992-8.749-2.671-12.5-1.394-3.111-2.834-6.33-3.019-10.581-.048-1.085-.072-2.295-.1-3.6-.195-9.634-.491-24.193-10.66-31.08-10.345-7-22.9-5.836-29.193,2.721l-.254.346-.427-.023c-14.789-.758-17.336,7.508-20.276,17.1-.578,1.887-1.175,3.838-1.88,5.721-1.314,3.509-2.724,6.743-4.088,9.868-4.5,10.315-8.053,18.462-3.641,26.7,4.291,8.007,17.08,8.676,23.951,9.036a.793.793,0,0,1,.751.834.761.761,0,0,1-.835.749c-7.182-.375-20.553-1.075-25.266-9.87-4.776-8.914-1.086-17.372,3.586-28.08,1.355-3.108,2.756-6.32,4.057-9.793.687-1.835,1.277-3.762,1.848-5.626,2.845-9.292,5.794-18.9,21.453-18.244,6.893-8.95,20.177-10.154,31.1-2.754,10.849,7.349,11.155,22.4,11.357,32.361.026,1.292.05,2.49.1,3.563.172,3.948,1.488,6.889,2.882,10,1.693,3.78,3.443,7.689,2.8,13.328-1.139,9.981-10.707,16.083-25.6,16.322Z" transform="translate(-34.043 -25.395)" fill="#2e2e2e"/>
        <path id="Path_5751" data-name="Path 5751" d="M238.385,353.283a.792.792,0,0,1-.747-.529l-9.032-25.468a.793.793,0,1,1,1.495-.529l9.032,25.467a.791.791,0,0,1-.747,1.059" transform="translate(-63.525 -90.67)" fill="#2e2e2e"/>
        <path id="Path_5752" data-name="Path 5752" d="M213.057,352.9a5.16,5.16,0,0,1-3.662-1.673.793.793,0,1,1,1.114-1.129c2.425,2.391,4.506.516,4.593.434.575-.531,1.643-1.519-.048-5.166-2.154-4.645-11.228-13.82-16.181-16.359-7.555-3.875-29.135,2.212-29.352,2.272a.793.793,0,1,1-.435-1.524c.911-.259,22.4-6.317,30.511-2.16,5.278,2.707,14.6,12.139,16.9,17.106,1.929,4.162.845,5.925-.316,7a4.758,4.758,0,0,1-3.122,1.2" transform="translate(-46.835 -90.647)" fill="#2e2e2e"/>
        <path id="Path_5753" data-name="Path 5753" d="M180.991,356.175a57.455,57.455,0,0,1-6.777-.583.793.793,0,0,1-.671-.9.8.8,0,0,1,.9-.671c.056.009,5.605.814,7.908.5,3.771-.523,7.9-2.457,10.638-3.737.838-.392,1.553-.726,2.1-.951,1.706-.692,3.932.342,6.755,1.653a36.785,36.785,0,0,0,6.085,2.391c1.246.326,1.723.065,2.138-.254a1.71,1.71,0,0,0,.695-1.492c-.051-3.012-4.912-7.792-6.449-8.9-3.374-2.431-5.88-3.878-12.137-3.516a.763.763,0,0,1-.838-.745.792.792,0,0,1,.746-.838c6.765-.388,9.6,1.251,13.157,3.811,1.547,1.114,7.042,6.278,7.108,10.158a3.3,3.3,0,0,1-1.311,2.775,3.621,3.621,0,0,1-3.511.534,38.068,38.068,0,0,1-6.351-2.485c-2.275-1.06-4.421-2.058-5.487-1.624-.531.217-1.222.541-2.031.918-2.821,1.321-7.085,3.316-11.092,3.872a11.854,11.854,0,0,1-1.578.087" transform="translate(-48.231 -93.962)" fill="#2e2e2e"/>
        <path id="Path_5754" data-name="Path 5754" d="M48.265,123.415a.487.487,0,0,1-.337-.141.426.426,0,0,1-.131-.318v-4.768l-.5-.022a103.461,103.461,0,0,1-19.265-2.342,25.6,25.6,0,0,1-6.109-2.182,4.048,4.048,0,0,1-2.42-2.981V99.413a2.41,2.41,0,0,1,.708-1.659c2.048-2.152,6.436-3.178,9.349-3.856a.84.84,0,0,1,.18-.022.372.372,0,0,1,.253.078.562.562,0,0,1,.109.394v9.686l.414.084a109.558,109.558,0,0,0,16.737,1.808l.542.021v-4.54a.43.43,0,0,1,.131-.319.49.49,0,0,1,.338-.141.438.438,0,0,1,.309.131l11.27,10.772a.457.457,0,0,1,.019.646l-.019.02-11.27,10.772a.433.433,0,0,1-.312.131M20.415,110.832l.043.1a3.866,3.866,0,0,0,1.924,1.921,24.83,24.83,0,0,0,5.868,2.086,103.908,103.908,0,0,0,20.015,2.426.454.454,0,0,1,.443.453v4.072l10.142-9.7-10.142-9.71V106.5a.457.457,0,0,1-.451.454,109.955,109.955,0,0,1-18.7-2.03,29.566,29.566,0,0,1-7.386-2.413,3.58,3.58,0,0,1-.565-.405c-.118-.1-.235-.194-.365-.286l-.821-.586Zm8.13-15.651A28.764,28.764,0,0,0,22.6,97.122c-.991.526-2.017,1.2-2.113,2.156-.11,1.156,1.157,1.944,2.121,2.438a30.457,30.457,0,0,0,5.939,1.935l.645.16V95.02Z" transform="translate(-5.421 -26.091)" fill="#536876"/>
        <path id="Path_5755" data-name="Path 5755" d="M75.179,118.131a.43.43,0,0,1-.44-.42.351.351,0,0,1,0-.039.418.418,0,0,1,.375-.459.393.393,0,0,1,.071,0A96.085,96.085,0,0,0,93.8,114.762a22.843,22.843,0,0,0,5.418-2.017c1.133-.657,1.781-1.4,1.781-2.018v-9.338l-.813.555a10.021,10.021,0,0,1-.934.571,29.528,29.528,0,0,1-7.385,2.414,102.925,102.925,0,0,1-16.617,1.952.437.437,0,0,1-.475-.4.4.4,0,0,1,0-.051.427.427,0,0,1,.385-.467.334.334,0,0,1,.053,0A103.2,103.2,0,0,0,90.9,104.125l.415-.085V94.35c0-.162.131-.477.309-.477,4.958,1.03,8.246,2.365,9.571,3.864a2.619,2.619,0,0,1,.718,1.675v11.31c0,1.018-.731,1.937-2.233,2.812a23.092,23.092,0,0,1-5.649,2.1,97.08,97.08,0,0,1-18.786,2.483Zm17.041-14.319.643-.159a27.538,27.538,0,0,0,5.954-1.942c1.467-.8,2.108-1.472,2.145-2.243.058-.96-.994-1.692-2.139-2.338a27.867,27.867,0,0,0-5.959-1.95l-.643-.16Z" transform="translate(-20.773 -26.091)" fill="#536876" fill-rule="evenodd"/>
        <path id="Path_5756" data-name="Path 5756" d="M62.924,81.192a7.654,7.654,0,1,1,7.486-7.817c0,.055,0,.11,0,.165a7.581,7.581,0,0,1-7.488,7.652m0-14.391A6.739,6.739,0,1,0,69.5,73.7c0-.053,0-.107,0-.161A6.665,6.665,0,0,0,62.924,66.8" transform="translate(-15.316 -18.312)" fill="#536876" fill-rule="evenodd"/>
        <path id="Path_5757" data-name="Path 5757" d="M58.512,84.413c-9.01,0-17.473-5.616-19.265-12.786a.605.605,0,0,1,0-.239c1.791-7.157,10.247-12.774,19.263-12.774S75.981,64.229,77.771,71.4a.436.436,0,0,1,0,.224C75.981,78.8,67.523,84.413,58.507,84.413m0-24.887c-8.25,0-16.436,5.317-18.249,11.851l-.038.138.038.139c1.817,6.532,10,11.847,18.249,11.847s16.436-5.315,18.26-11.847l.04-.139-.04-.138c-1.815-6.534-10-11.851-18.26-11.851" transform="translate(-10.905 -16.291)" fill="#536876" fill-rule="evenodd"/>
        <path id="Path_5758" data-name="Path 5758" d="M661.875,44.693a1.363,1.363,0,0,0-1.355,1.353,27.4,27.4,0,1,1-29.27-27.334l-1.223.9A1.324,1.324,0,0,0,630.8,22a1.417,1.417,0,0,0,.838-.258l4.45-3.352a1.379,1.379,0,0,0,.515-1.1,1.442,1.442,0,0,0-.581-1.1l-4.446-2.966a1.351,1.351,0,0,0-1.483,2.256l.9.581a30.082,30.082,0,1,0,32.234,29.978,1.36,1.36,0,0,0-1.353-1.353" transform="translate(-167.613 -3.623)" fill="#536876"/>
        <path id="Path_5759" data-name="Path 5759" d="M661.875,44.693a1.363,1.363,0,0,0-1.355,1.353,27.4,27.4,0,1,1-29.27-27.334l-1.223.9A1.324,1.324,0,0,0,630.8,22a1.417,1.417,0,0,0,.838-.258l4.45-3.352a1.379,1.379,0,0,0,.515-1.1,1.442,1.442,0,0,0-.581-1.1l-4.446-2.966a1.351,1.351,0,0,0-1.483,2.256l.9.581a30.082,30.082,0,1,0,32.234,29.978,1.36,1.36,0,0,0-1.353-1.353" transform="translate(-167.613 -3.623)" fill="none" stroke="#fff" stroke-miterlimit="10" stroke-width="1"/>
        <path id="Path_5760" data-name="Path 5760" d="M684.164,48.489a1.611,1.611,0,1,1-1.611-1.611,1.611,1.611,0,0,1,1.611,1.611" transform="translate(-189.258 -13.029)" fill="#536876"/>
        <path id="Path_5761" data-name="Path 5761" d="M681.213,40.1a1.611,1.611,0,1,1-1.611-1.611,1.611,1.611,0,0,1,1.611,1.611" transform="translate(-188.438 -10.696)" fill="#536876"/>
        <path id="Path_5762" data-name="Path 5762" d="M675.764,32.236a1.611,1.611,0,1,1-1.611-1.611,1.611,1.611,0,0,1,1.611,1.611" transform="translate(-186.924 -8.512)" fill="#536876"/>
        <path id="Path_5763" data-name="Path 5763" d="M668.365,25.544a1.611,1.611,0,1,1-1.611-1.611A1.611,1.611,0,0,1,668.365,25.544Z" transform="translate(-184.867 -6.652)" fill="#536876"/>
        <path id="Path_5764" data-name="Path 5764" d="M659.432,20.812a1.611,1.611,0,1,1-1.611-1.61,1.611,1.611,0,0,1,1.611,1.61" transform="translate(-182.384 -5.337)" fill="#536876"/>
        <path id="Path_5765" data-name="Path 5765" d="M651.6,50.294a9.815,9.815,0,0,1-2.064.708V41.073h-6.26a8.625,8.625,0,0,0,.453,1.16c1.1,2.321,2,6-2.451,6s-3.547-3.674-2.448-6a8.713,8.713,0,0,0,.451-1.16H628.968v9.733a6.761,6.761,0,0,0,1.29-.514c2.321-1.1,6-2,6,2.449s-3.675,3.546-6,2.451c-.453-.2-.9-.386-1.29-.515V61.7H639.41a8.673,8.673,0,0,1-.58,1.482c-1.1,2.321-2,6,2.451,6s3.547-3.675,2.449-6a8.791,8.791,0,0,1-.58-1.482h6.382V54.482a8.776,8.776,0,0,1,2.061.707c2.321,1.1,5.995,2,5.995-2.448s-3.611-3.545-5.992-2.449" transform="translate(-174.813 -11.416)" fill="#536876"/>
        <path id="Path_5766" data-name="Path 5766" d="M323.036,209.008a11.66,11.66,0,0,1-10.552-6.66l-.1-.206H280.152a3.192,3.192,0,0,1-3.189-3.188V160.621a3.192,3.192,0,0,1,3.189-3.189h42.61a3.194,3.194,0,0,1,3.189,3.189v25.35l.264.074a11.7,11.7,0,0,1-3.179,22.964m0-21.88a10.189,10.189,0,0,0-10.177,10.177c0,.278.015.575.048.932.007.066.042.348.042.348.025.186.051.367.084.547.024.133.051.267.079.4.037.16.079.318.122.474l.032.116c.03.115.055.2.083.291a10.105,10.105,0,0,0,2.176,3.735l.059.066a10.106,10.106,0,0,0,1.272,1.158c.074.056.15.113.228.17.18.131.287.208.4.279q.284.185.579.353c.1.056.2.108.3.16.193.1.35.175.508.248,0,0,.215.1.284.127.244.1.492.191.746.274.086.027.173.054.263.079q.351.1.716.185l.139.033c.26.053.546.1.872.133l.223.023c.366.032.651.047.922.047a10.187,10.187,0,0,0,10.175-10.177c0-.292-.015-.592-.047-.945-.005-.056-.038-.3-.038-.3-.025-.209-.056-.419-.1-.625l-.067-.331c-.044-.2-.1-.4-.154-.6-.044-.157-.073-.258-.086-.3-.1-.295-.193-.559-.3-.808-.023-.056-.138-.3-.138-.3-.077-.167-.154-.334-.238-.495-.064-.121-.131-.239-.2-.356-.09-.154-.162-.272-.237-.388-.087-.139-.177-.276-.271-.408-.041-.06-.084-.116-.127-.171l-.07-.093a10.25,10.25,0,0,0-1.346-1.461l-.087-.079c-.17-.149-.349-.292-.533-.433l-.092-.069a10.062,10.062,0,0,0-2.679-1.428,10.192,10.192,0,0,0-2.259-.525l-.225-.019c-.339-.03-.622-.045-.891-.045m-31.372,13.526H311.82l-.114-.45a11.791,11.791,0,0,1-.373-2.9,11.7,11.7,0,0,1,11.7-11.705c.308,0,.646.017,1.033.051l.392.034V170.835h-32.8Zm-13.211-1.7a1.7,1.7,0,0,0,1.7,1.7h10.022V170.835H278.453Zm1.7-40.033a1.7,1.7,0,0,0-1.7,1.7v8.724h46.008v-8.724a1.7,1.7,0,0,0-1.7-1.7Z" transform="translate(-76.978 -43.756)" fill="#536876"/>
        <path id="Path_5767" data-name="Path 5767" d="M336.369,215.353a.767.767,0,0,1-.541-.224l-2.97-2.971a.765.765,0,0,1,0-1.08.765.765,0,0,1,1.082,0l2.428,2.428,6.712-6.714a.765.765,0,0,1,1.081,0,.75.75,0,0,1,.225.539.762.762,0,0,1-.224.541l-7.253,7.253a.753.753,0,0,1-.541.224" transform="translate(-92.451 -57.414)" fill="#536876"/>
        <path id="Path_5768" data-name="Path 5768" d="M292.882,167.35a1.149,1.149,0,1,1,1.149-1.15,1.151,1.151,0,0,1-1.149,1.15" transform="translate(-81.083 -45.874)" fill="#536876"/>
        <path id="Path_5769" data-name="Path 5769" d="M301.343,167.35a1.149,1.149,0,1,1,1.15-1.15,1.151,1.151,0,0,1-1.15,1.15" transform="translate(-83.434 -45.874)" fill="#536876"/>
        <path id="Path_5770" data-name="Path 5770" d="M284.421,167.35a1.149,1.149,0,1,1,1.15-1.15,1.151,1.151,0,0,1-1.15,1.15" transform="translate(-78.731 -45.874)" fill="#536876"/>
        <path id="Path_5771" data-name="Path 5771" d="M358,50.844h-18.58a2.213,2.213,0,0,0-.7.111l-.054.02-.364.193-.175.133a2.1,2.1,0,0,0-.3.3l-.12.157-.149.272a2.035,2.035,0,0,0-.19.864,2.114,2.114,0,0,0,.2.894L337.7,54l.179.232c.022.025.039.043,4.525,4.533a2.038,2.038,0,0,0,1.448.6h0a2.045,2.045,0,0,0,1.543-3.389l-.9-1.038H358a2.047,2.047,0,1,0,0-4.094" transform="translate(-93.768 -14.131)" fill="#fff"/>
        <path id="Path_5772" data-name="Path 5772" d="M359.724,40.475l-.179-.232c-.022-.026-.038-.044-4.526-4.533a2.031,2.031,0,0,0-1.447-.6h0A2.045,2.045,0,0,0,352.03,38.5l.9,1.038H339.421a2.047,2.047,0,0,0,0,4.093H358a2.221,2.221,0,0,0,.7-.11l.054-.021.364-.192.174-.133a2.2,2.2,0,0,0,.3-.3l.118-.156.149-.273a2.035,2.035,0,0,0,.19-.864,2.094,2.094,0,0,0-.205-.894Z" transform="translate(-93.769 -9.759)" fill="#fff"/>
      </g>
    </g>
  </g>
</svg>
