<?xml version="1.0" encoding="UTF-8"?><svg id="Layer_2" xmlns="http://www.w3.org/2000/svg" xmlns:xlink="http://www.w3.org/1999/xlink" viewBox="0 0 580 299"><defs><style>.cls-1,.cls-2,.cls-3{fill:none;}.cls-4{clip-path:url(#clippath);}.cls-5{fill:#e9edf0;}.cls-6{fill:#fff;}.cls-7{fill:#158bcb;}.cls-8{fill:#701e5e;}.cls-9,.cls-10{fill:#546976;}.cls-11{fill:#9ad8f3;}.cls-12{fill:#2e2e2e;}.cls-13{clip-path:url(#clippath-1);}.cls-14{clip-path:url(#clippath-2);}.cls-2{stroke:#fff;stroke-miterlimit:10;}.cls-15{opacity:.6;}.cls-10{fill-rule:evenodd;}.cls-3{stroke:#f5f5f5;}</style><clipPath id="clippath"><rect class="cls-1" x="28" y="15" width="524.42" height="270"/></clipPath><clipPath id="clippath-1"><rect class="cls-1" x="28" y="15" width="524.42" height="270"/></clipPath><clipPath id="clippath-2"><rect class="cls-1" x="28" y="23.21" width="524.42" height="261.79"/></clipPath></defs><g id="Layer_1-2"><g id="Group_1006" transform="translate(-948 -1351)"><g id="Rectangle_21" transform="translate(948 1351)"><rect class="cls-5" width="580" height="299"/><rect class="cls-3" x=".5" y=".5" width="579" height="298"/></g><g id="Group_979" transform="translate(976 1366)"><g class="cls-4"><g id="Group_978"><g id="Group_977"><g class="cls-13"><g id="Group_976"><g id="Group_975" class="cls-15" transform="translate(0 8.214)"><g id="Group_974"><g class="cls-14"><g id="Group_973"><path id="Path_5693" class="cls-11" d="M438.68,150.28c-41.3-31.83-45.77-115.03-105.14-125.43-66.34-11.62-77.81,41.73-102.57,54.49-45.06,23.23-81.57-32.55-136.5-12.69C20.62,93.38,23.12,232.74,33.14,285h505.54s24.92-38.78,7.64-70.84c-19.4-36-71.04-35.67-107.64-63.87"/></g></g></g></g><path id="Path_5694" class="cls-9" d="M310.7,86.58c-.17,0-.33-.08-.45-.2l-13.65-14.41h-36.26c-2.78,0-5.04-2.97-5.04-6.61v-7.96h-4.08l-13.65,14.42c-.2,.21-.52,.26-.77,.11-.25-.14-.37-.44-.28-.72l4.14-13.71-.86-.23c-2.33-.63-4.02-3.35-4.02-6.47V21.61c0-3.64,2.26-6.61,5.04-6.61h46.66c2.78,0,5.04,2.97,5.04,6.61v7.96h14.48c2.78,0,5.04,2.97,5.04,6.61v29.18c0,3.12-1.69,5.85-4.02,6.47l-.86,.23,4.15,13.71c.08,.28-.03,.58-.29,.72-.1,.05-.2,.08-.31,.08h0ZM240.82,16.25c-2.09,0-3.79,2.4-3.79,5.36v29.18c0,2.96,1.7,5.36,3.79,5.36h.71c.2,0,.38,.09,.5,.25,.12,.16,.15,.36,.1,.55l-2.69,8.9,1.3,.76,9.76-10.27c.12-.12,.28-.2,.45-.19h4.36v-19.97c0-3.65,2.26-6.61,5.04-6.61h30.93v-7.96c0-2.95-1.7-5.36-3.79-5.36h-46.66Z"/><path id="Path_5695" class="cls-6" d="M416.94,120.12s2.22-8.83,.73-12.96c-5.32-1.69-4.92-.76-8.49-3.74s-5.8-8.73-6.1-12.5-2-21.02-2-21.02c0,0-1.65-12.69,2.85-16.2,3.5-2.51,27.98-4.71,27.98-4.71,0,0,6.59,6.3,7.24,8.53s5.95,14.97,5.95,14.97c0,0,4.76,2.07,5.6,4.53s.72,4.3-1.14,6.03c-1.63,1.36-3.39,2.56-5.26,3.57,0,0,.84,15.57,1.24,18.99s1.73,12.15,3.02,14.58-24.88,19.58-25.26,19.29-7.85-9.32-7.73-9.92,1.37-9.45,1.37-9.45"/><path id="Path_5696" class="cls-6" d="M423.62,137.15l24.85-19.42,9.84,6.13-20.51,38.17-14.18-24.88Z"/><path id="Path_5697" class="cls-6" d="M416.22,118.33l-7.07,4.66,1.62,29.19,12.33-15.04-6.88-18.81Z"/><path id="Path_5698" class="cls-6" d="M320.73,147.22s-.84-3.82-2.53-5.11-8.13-1.34-13.83-2.88-7.14-2.78-9.37-4.76-4.27-6.27-3.87-7.04,1.14-2.68,1.14-2.68c0,0-2.33-1.74-1.09-3.27s1.93-2.48,3.52-2.43c.25-2.63,.6-2.98,2.53-3.37s2.68,.39,2.68,.39c0,0,.64-2.02,2.38-1.48s3.07,2.08,4.71,3.77,1.49,2.73,4.07,4.21c2.44,1.24,4.98,2.28,7.59,3.12l2.43-.2s-4.02-3.52-4.96-6.69-2.63-4.41-1.16-5.88,1.85-2.15,4.63-1.35,7.01,5.85,9.5,7.11c3.72,2.11,7.27,4.51,10.6,7.2,2.1,1.74,3.64,4.05,4.43,6.66,.64,2.23,1.79,10.71,1.79,10.71l-25.18,3.96Z"/><path id="Path_5699" class="cls-11" d="M348.63,141.82l-29.32,6.04,8.67,32.18s11.5,35.8,14.58,40.85,9.52,11.4,17.06,11.5,11.3-2.48,13.98-4.46c3.22-2.68,6-5.86,8.23-9.42,1.79-2.98,3.08-5.55,3.08-5.55l-3.47,57.51-.2,13.39,96.68,.1-1.49-42.44s20.16-4.16,24.13-7.6,7.5-8.13,7.5-16.59-4.33-28.36-5.39-34.71-9.98-28.96-13.35-34.11-14.54-18.11-31.6-23.4c-3.17,5.95-19.44,36.49-19.44,36.49l-14.48-24.13-13.22,15.86-1.85-29.68s-18.44,9.52-24.06,15.67c-5.28,5.91-9.69,12.54-13.09,19.7-2.05,4.83-9.39,20.1-9.39,20.1l-13.56-37.29Z"/><path id="Path_5700" class="cls-12" d="M441.6,73.39s-5.88-5.88-6.74-9.32c-.72-2.87-1.85-9.41-2.2-11.51-.04-.28-.31-.47-.59-.43-.04,0-.08,.02-.12,.03-1.85,.8-7.65,3.14-12.03,3.31-5.29,.2-17.32,.13-17.32,.13l-2.52,9.39-.26,2.58c-2.13-1.04-3.76-2.9-4.5-5.16-1.06-3.64-1.19-9.72,.27-11.37-1.32-4.23-2.12-8.06,.99-12.76,3.11-4.69,6.68-7.8,16.66-7.67s15.21,1.39,17.78,4.1,6.21,7.01,6.21,7.01c0,0,8.46,2.12,11.11,7.54s3.11,9.39,2.91,12.96-1.59,11.9-2.38,12.5c-4.01-3.68-7.27-1.32-7.27-1.32"/><rect id="Rectangle_1015" class="cls-6" x="395.21" y="186.7" width="64.81" height="73.89" transform="translate(-33.79 82.3) rotate(-10.58)"/><path id="Path_5701" class="cls-12" d="M419.33,107.68c-5.3,0-9.48-1.68-12.46-5.01-2.89-3.22-4.61-7.97-5.12-14.11l-1.89-22.71c-.34-4.01,.51-8.04,2.44-11.58,.24-.36,.74-.46,1.1-.22,.32,.21,.44,.63,.29,.98-1.78,3.26-2.57,6.98-2.25,10.68l1.89,22.71c.48,5.79,2.07,10.22,4.72,13.19,3.04,3.4,7.57,4.88,13.43,4.38l.17-.02c2.47-.19,4.91-.6,7.31-1.21,.43-.09,.85,.19,.94,.62,.09,.41-.16,.82-.57,.93-2.48,.63-5.01,1.05-7.55,1.25h-.17c-.78,.08-1.55,.11-2.29,.11"/><path id="Path_5702" class="cls-12" d="M444.51,86.42c-.88,0-1.75-.16-2.57-.47-.41-.17-.6-.63-.43-1.04,.16-.39,.6-.59,1-.45,.8,.3,1.65,.42,2.49,.35,3.15-.27,5.48-3.03,5.22-6.18-.27-3.15-3.03-5.48-6.18-5.22-.78,.07-1.53,.29-2.22,.66-.39,.21-.87,.06-1.08-.33-.21-.39-.06-.87,.33-1.07,.88-.47,1.85-.76,2.85-.84,4.02-.33,7.55,2.65,7.89,6.67s-2.65,7.55-6.67,7.89c-.21,.02-.41,.03-.62,.03"/><path id="Path_5703" class="cls-12" d="M447.73,79.42c-.42,0-.76-.32-.79-.74,0-.71-.32-1.38-.84-1.85-.71-.45-1.57-.59-2.39-.37-.43,.06-.84-.23-.9-.67-.06-.41,.21-.81,.62-.89,1.26-.31,2.58-.06,3.64,.68,.89,.74,1.42,1.83,1.45,2.99,.03,.44-.3,.82-.73,.85h-.06"/><path id="Path_5704" class="cls-12" d="M416.85,120.92c-.44,0-.79-.35-.79-.79,0-.13,.03-.26,.09-.37,1.66-3.1,1.24-10.4,1.1-12.8-.01-.44,.33-.8,.77-.82,.42-.01,.78,.31,.82,.73,.25,4.35,.38,10.5-1.29,13.63-.14,.26-.41,.42-.7,.42"/><path id="Path_5705" class="cls-12" d="M447.45,117.49c-.32,0-.61-.2-.73-.49-2.22-5.43-2.86-21.4-3.2-29.97l-.06-1.37c-.01-.44,.32-.8,.76-.83,.44-.01,.8,.33,.83,.76l.06,1.37c.32,7.87,.97,24.26,3.09,29.44,.17,.4-.03,.87-.43,1.03-.1,.04-.2,.06-.3,.06"/><path id="Path_5706" class="cls-12" d="M441.34,74.18c-.22,0-.42-.09-.57-.24-2.83-2.95-7.69-9.61-8.73-21.36-6.56,3.94-20.02,5.26-29.17,2.82-.42-.11-.67-.55-.56-.97,.12-.42,.55-.67,.97-.56,8.81,2.35,22.29,.99,28.28-2.86,.61-.4,1.42-.22,1.82,.38,.12,.18,.19,.4,.21,.62,.92,11.53,5.62,18,8.34,20.83,.3,.32,.29,.82-.02,1.12-.15,.14-.34,.22-.55,.22"/><path id="Path_5707" class="cls-12" d="M449.74,75.94c-.08,0-.16-.01-.24-.04-.42-.13-.65-.58-.52-1h0c1.77-6.61,2.01-13.53,.7-20.25-1.2-5.88-5.6-10.16-12.73-12.38l-.3-.09-.16-.27c-2.88-5.07-6.66-8.02-11.88-9.28-11.03-2.67-20.42-1.14-25.75,4.18-3.1,2.97-4.39,7.36-3.38,11.54,.19,.79,.56,1.53,1.09,2.16,.31,.31,.3,.82-.02,1.12s-.82,.3-1.12-.02l-.03-.03c-.7-.82-1.2-1.78-1.45-2.83-1.16-4.72,.28-9.7,3.79-13.07,5.74-5.73,15.67-7.41,27.25-4.6,5.58,1.35,9.63,4.46,12.73,9.77,9.52,3.06,12.6,9.01,13.51,13.48,1.39,6.97,1.14,14.18-.74,21.04-.1,.33-.41,.56-.76,.56"/><path id="Path_5708" class="cls-12" d="M400.87,69.23c-.12,0-.24-.03-.35-.08-3.09-1.74-5.35-4.65-6.27-8.07-.86-3.39-.52-6.97,.95-10.14,.19-.39,.67-.56,1.06-.37,.39,.19,.56,.67,.37,1.06-1.29,2.82-1.59,6-.84,9.02,.81,2.98,2.76,5.52,5.44,7.07,.39,.19,.55,.67,.36,1.06-.13,.27-.41,.44-.71,.44"/><path id="Path_5709" class="cls-12" d="M437.93,162.64l-15.55-25.78,25.7-20.27,11.45,6.71-21.59,39.33Zm-13.47-25.4l13.41,22.22,19.53-35.57-9.18-5.38-23.75,18.73Z"/><path id="Path_5710" class="cls-12" d="M409.73,155.9l-1.4-33.41,8.13-5.5,7.86,20.18-14.59,18.72Zm.22-32.59l1.18,28.21,11.39-14.6-6.82-17.5-5.75,3.89Z"/><path id="Path_5711" class="cls-12" d="M359.46,233.3c-.41,0-.83,0-1.24-.02-8.5-.33-15.95-8.86-22.14-25.35-7.33-19.52-17.49-59.43-17.59-59.83l-.2-.8,30.81-6.35,15.84,44.89c.15,.41-.07,.87-.49,1.01-.41,.15-.87-.07-1.01-.49l-15.38-43.59-27.83,5.73c1.48,5.77,10.6,40.96,17.33,58.86,4.09,10.89,11.01,23.94,20.72,24.32,12.56,.49,21.71-6.87,25.8-20.69,.12-.42,.56-.67,.98-.55,.42,.12,.67,.56,.55,.98v.02c-4.19,14.14-13.44,21.86-26.15,21.86"/><path id="Path_5712" class="cls-12" d="M362.27,180.62c-.11,0-.22-.02-.33-.07-.4-.18-.58-.65-.4-1.05h0l3.51-7.8c2.69-5.99,5.47-12.17,6.83-15.14,6.93-15.08,15.85-23.27,36.7-33.7,.4-.19,.87-.02,1.06,.38,.18,.38,.03,.84-.35,1.04-20.47,10.24-29.21,18.24-35.97,32.94-1.36,2.97-4.14,9.14-6.83,15.13l-3.51,7.8c-.13,.29-.41,.47-.72,.47"/><path id="Path_5713" class="cls-12" d="M380.78,285h-.05c-.44-.03-.77-.4-.74-.84,.02-.32,1.91-32.23,2.18-42.81,.22-8.75,2.93-41.81,4.72-63.69,.66-8.11,1.21-14.85,1.5-18.59,.02-.43,.39-.76,.82-.73h.03c.44,.04,.76,.42,.73,.85-.28,3.74-.83,10.48-1.5,18.6-1.79,21.86-4.49,54.9-4.71,63.6-.27,10.61-2.16,42.54-2.18,42.86-.02,.42-.37,.75-.79,.75"/><path id="Path_5714" class="cls-12" d="M321.11,126.69c-2.82,0-5.15-1.02-8.02-2.27-.81-.35-1.66-.72-2.59-1.1l-.16-.09c-1.67-1.23-3.13-2.74-4.3-4.45-.75-1.21-1.76-2.23-2.97-2.98-.69-.38-1.53-.37-2.21,.03-.14,.21-.21,.46-.19,.71,.02,.44-.32,.81-.76,.82h0c-.43,0-.8-.33-.83-.76-.06-.78,.25-1.54,.83-2.05,1.16-.77,2.66-.83,3.88-.17,1.42,.86,2.63,2.04,3.51,3.44,1.06,1.55,2.37,2.92,3.87,4.05,.91,.37,1.75,.73,2.54,1.08,4.11,1.79,6.83,2.97,11.52,1.38,.42-.12,.86,.13,.98,.55,.11,.39-.09,.8-.47,.95-1.49,.53-3.06,.82-4.64,.84"/><path id="Path_5715" class="cls-12" d="M345.93,142.48c-.41,0-.75-.31-.79-.71-.78-7.84-1.78-12.94-9.07-17.62l-2.33-1.49c-5.63-3.6-8.45-5.41-12.96-9.46-1.5-1.34-3.04-1.67-4.23-.88-.87,.53-1.28,1.57-1.01,2.56,1.6,4.72,5.3,8.9,6.51,10.28,.28,.33,.24,.84-.09,1.12-.32,.28-.81,.25-1.1-.07-1.27-1.43-5.12-5.8-6.82-10.82-.49-1.67,.18-3.46,1.64-4.39,1.82-1.2,4.12-.82,6.17,1.02,4.41,3.96,7.2,5.75,12.76,9.3l2.33,1.49c7.87,5.06,8.99,10.73,9.79,18.8,.04,.44-.27,.82-.71,.87h0s-.05,0-.08,0"/><path id="Path_5716" class="cls-12" d="M418.46,187.82h0c-.44,0-.79-.36-.79-.8h0c0-.2,.25-20.63,4.97-50.1,.07-.43,.47-.73,.9-.66,.43,.07,.73,.47,.66,.9h0c-4.69,29.35-4.95,49.67-4.95,49.87,0,.44-.36,.79-.79,.79"/><path id="Path_5717" class="cls-12" d="M320.83,147.89c-.32,0-.6-.19-.73-.48-.2-.47-.38-.96-.55-1.44-.34-1.3-1.01-2.48-1.94-3.44-.58-.4-4.6-1.01-7.54-1.46-3.07-.35-6.11-.94-9.09-1.77-6.25-3.17-9.5-7.69-10.03-9.27-.71-2.12-.53-3.64,.57-4.67,1.67-1.56,4.33-.13,5.21,.34,1.46,.9,2.8,1.96,4.01,3.18,1.57,1.44,3.18,2.93,4.46,3.22,1.36,.18,2.74,.25,4.11,.2,4.12,.02,9.76,.04,13.35,2.18,.38,.22,.5,.71,.28,1.09-.22,.38-.71,.5-1.09,.28-3.23-1.92-8.61-1.94-12.55-1.96-1.49,.06-2.98-.02-4.46-.24-1.69-.39-3.39-1.95-5.18-3.6-1.11-1.12-2.35-2.11-3.68-2.94-1.68-.9-2.82-1.1-3.38-.57-.22,.2-.89,.83-.15,3,.38,1.14,3.39,5.4,9.17,8.34,2.85,.75,5.75,1.3,8.68,1.65,5.39,.81,7.65,1.21,8.36,1.84,1.14,1.13,1.96,2.54,2.38,4.09,.16,.45,.32,.91,.51,1.35,.17,.4-.01,.87-.41,1.04-.1,.04-.21,.07-.32,.07"/><path id="Path_5718" class="cls-12" d="M401.91,266.83l-13.86-74.19,65.26-12.19,13.86,74.19-65.27,12.19Zm-12-72.93l13.27,71.07,62.15-11.61-13.27-71.07-62.15,11.61Z"/><path id="Path_5719" class="cls-12" d="M478.29,284.73c-.42,0-.77-.33-.79-.74l-2.56-41.98c-.03-.44,.3-.81,.74-.84,.44-.03,.81,.3,.84,.74h0l2.56,41.98c.03,.44-.31,.81-.74,.84h-.05"/><path id="Path_5720" class="cls-12" d="M414.76,284.21h-.01c-.44,0-.78-.36-.78-.8l.26-20.1c-.03-.41,.28-.76,.69-.78,.04,0,.07,0,.11,0,.44,0,.79,.36,.78,.8l-.26,20.1c0,.43-.36,.78-.79,.78"/><path id="Path_5721" class="cls-11" d="M470.69,211.29c-.4,0-47.8,10.31-47.8,10.31l4.2,27.5s40.03-6.35,45.32-7.27-1.72-30.54-1.72-30.54"/><path id="Path_5722" class="cls-12" d="M426.43,249.97l-4.72-28.94,46.88-9.88-7.45-28.01c-.12-.42,.12-.86,.54-.98s.86,.12,.98,.54v.04l7.89,29.63-47.03,9.92,4.23,25.96c7.21-.82,64.14-7.53,74.6-16.84,4.63-4.12,5.73-15.28,3.12-31.41-.91-5.6-4.49-25.22-12.37-42.77-6.09-13.57-16.3-22.86-35.22-32.07-.4-.18-.58-.65-.4-1.05,.18-.4,.65-.58,1.05-.4,.02,0,.03,.02,.05,.02,19.04,9.27,29.8,19.09,35.98,32.85,7.96,17.73,11.57,37.52,12.49,43.17,1.57,9.67,3.18,26.78-3.63,32.85-11.5,10.23-73.6,17.04-76.24,17.32l-.75,.08Z"/><path id="Path_5723" class="cls-12" d="M310.26,130.03c-.09,0-.17-.01-.25-.04l-.89-.29c-1.98-.54-3.88-1.31-5.69-2.28-1.5-1.17-2.92-2.43-4.25-3.79-1.09-1.12-2.26-2.17-3.5-3.13-1.03-.77-2.48-.65-3.36,.28-1.04,1.3-.32,3.04,.41,3.89,.29,.33,.25,.83-.08,1.12-.33,.29-.83,.25-1.12-.08-1.56-1.61-1.74-4.09-.45-5.91,1.38-1.58,3.73-1.86,5.44-.64,1.34,1.01,2.6,2.12,3.77,3.33,1.27,1.29,2.63,2.5,4.05,3.62,1.69,.87,3.46,1.57,5.29,2.08l.89,.29c.42,.14,.64,.59,.5,1-.11,.32-.41,.54-.75,.54"/><path id="Path_5724" class="cls-6" d="M401.51,226.22s-5.55-1.44-7.09,1.44-2.38,2.78-.99,4.51c.71,.99,1.81,1.62,3.02,1.73,0,0-3.31,1.93-2.82,4.26s1.33,3.97,2.37,4.17,1.69,.3,1.69,.3c0,0-2.38,.79-2.48,2.97s.15,3.92,.99,4.26c1.06,.34,2.13,.62,3.22,.84,0,0-2.08,2.03-1.09,3.42s1.89,3.27,4.74,2.92c2.38-.35,4.71-1.02,6.92-1.98,.66-.36,1.93-18.49,1.44-19.39s-9.92-9.47-9.92-9.47"/><path id="Path_5725" class="cls-12" d="M423.23,226.25c-.05,0-.1,0-.15-.01-1.39-.27-2.68-.88-3.78-1.77-4.96-4.02-16.59-13.44-19.3-11.55-.88,.47-1.47,1.33-1.61,2.31-.04,1.2,.99,2.67,3.05,4.34,2.03,1.52,3.79,3.36,5.22,5.44,.2,.39,.05,.87-.34,1.07-.36,.19-.8,.07-1.03-.27-1.35-1.92-2.99-3.61-4.86-5.02-2.51-2.04-3.7-3.88-3.64-5.63,.14-1.48,.99-2.81,2.28-3.55,3.09-2.16,10.11,2.62,21.21,11.61,.89,.73,1.95,1.22,3.08,1.44,.43,.08,.71,.5,.63,.93-.07,.37-.4,.64-.77,.64"/><path id="Path_5726" class="cls-12" d="M401.82,257.94c-.87,.03-1.73-.16-2.5-.56-.98-.56-1.66-1.55-1.83-2.67-.71-3.45,1.81-4.63,4.63-5.39,.42-.11,.86,.14,.97,.56,.11,.42-.14,.86-.56,.97-3.38,.9-3.82,1.9-3.49,3.54,.09,.67,.47,1.25,1.05,1.6,1.96,1.09,6.3-.52,8.9-1.48,4.5-1.66,16.02-7.42,16.13-7.47l1.36-.51c.41-.16,.87,.04,1.03,.44,.16,.41-.04,.87-.44,1.03h-.04l-1.28,.49c-.4,.2-11.63,5.81-16.21,7.51-2.72,1-5.48,1.93-7.72,1.93"/><path id="Path_5727" class="cls-12" d="M397.65,234.86c-1.82,0-3.43-.25-4.46-1.27-.88-.99-1.28-2.32-1.1-3.64,.2-4.18,4.93-4.51,10.4-4.88,1.16-.08,2.39-.17,3.64-.29,.44-.04,.82,.28,.87,.71s-.28,.82-.71,.87c-1.27,.12-2.51,.21-3.69,.29-5.61,.39-8.8,.74-8.92,3.38-.14,.86,.09,1.75,.63,2.43,.83,.82,2.58,.89,5.14,.75,.42-.04,.8,.27,.83,.7,0,.02,0,.03,0,.05,.03,.44-.31,.81-.75,.84h0c-.64,.04-1.28,.07-1.89,.07"/><path id="Path_5728" class="cls-12" d="M397.79,243.54c-1.07,.03-2.12-.27-3.01-.85-1-.65-1.67-1.69-1.86-2.87-.31-1.55,.02-3.16,.9-4.47,1.13-1.27,2.72-2.02,4.42-2.08,.44-.05,.83,.26,.88,.7s-.26,.83-.7,.88c-1.27,.03-2.47,.56-3.35,1.49-.63,.97-.84,2.16-.58,3.29,.13,.72,.55,1.36,1.17,1.76,1.18,.66,2.58,.78,3.86,.34,.42-.12,.86,.12,.98,.54s-.12,.86-.54,.98c-.02,0-.03,0-.05,.01-.7,.19-1.41,.29-2.13,.3"/><path id="Path_5729" class="cls-12" d="M398.41,251.69c-2.23,.11-4.12-1.6-4.24-3.83,0-.11,0-.22,0-.33-.15-2.94,.65-4.81,5.22-5.68,.43-.08,.85,.2,.93,.63,.08,.43-.2,.85-.63,.93-3.91,.74-4.04,2.02-3.93,4.04-.02,.87,.38,1.7,1.07,2.24,.83,.56,2.12,.56,3.73,0,.42-.13,.86,.1,.99,.52,.12,.4-.08,.83-.48,.98-.85,.31-1.75,.48-2.66,.5"/><path id="Path_5730" class="cls-12" d="M312,126.5c-.08,0-.15-.01-.22-.03-.56-.16-5.54-1.67-7.17-4.01s-5.73-6.07-6.98-6.1c-.7-.03-1.38,.26-1.86,.78-.39,.46-.54,1.08-.41,1.67,.09,.43-.19,.85-.62,.93-.43,.09-.85-.19-.93-.62-.22-1.06,.05-2.17,.75-3,.77-.9,1.91-1.4,3.1-1.35,2.32,.04,6.9,4.83,8.25,6.78,1.11,1.6,4.94,2.99,6.31,3.39,.42,.12,.66,.56,.54,.98-.1,.34-.41,.57-.76,.57"/><path id="Path_5731" class="cls-12" d="M515.05,285H38.54c-.44,0-.79-.35-.79-.79s.35-.79,.79-.79h476.51c.44,0,.79,.35,.79,.79s-.35,.79-.79,.79h0"/><path id="Path_5732" class="cls-8" d="M151.52,284.3s-3.17-1.19-3.17-3.27-.1-4.46,8.63-4.26,63.56-.03,63.56-.03l16.66-65.61s-.79-3.87,4.3-3.87,97.58-.13,97.58-.13c0,0,2.64,.2,2.58,2.18s-4.3,16.99-4.3,16.99l-13.55,56.52c-.62,.66-1.43,1.1-2.31,1.26-1.39,.2-169.96,.23-169.96,.23"/><path id="Path_5733" class="cls-12" d="M320.93,285h-97.58c-.44,0-.79-.35-.79-.79s.35-.79,.79-.79h97.58c.94,0,2.08-.3,2.53-2.65l17.46-70.4c.15-.51,.05-1.05-.25-1.48-.61-.59-1.46-.9-2.31-.83h-97.56c-.91,0-1.92,.32-2.54,2.7l-16.4,66.11c-.11,.43-.54,.68-.96,.58s-.68-.54-.58-.96l16.4-66.12c.25-.97,1.02-3.9,4.08-3.9h97.58c1.33-.09,2.64,.44,3.53,1.43,.6,.81,.8,1.84,.55,2.82l-17.46,70.38c-.61,3.21-2.56,3.9-4.08,3.9"/><path id="Path_5734" class="cls-12" d="M226.68,285h-74.74c-2.46,0-4.46-2-4.46-4.46,0-2.58,2.1-4.46,4.99-4.48h68.53c.44,0,.79,.35,.79,.79,0,.44-.35,.79-.79,.79h-68.53c-2.01,.01-3.41,1.2-3.41,2.89,0,1.59,1.29,2.87,2.88,2.88h74.74c.44,0,.79,.35,.79,.79,0,.44-.35,.79-.79,.79h0"/><path id="Path_5735" class="cls-6" d="M288.54,252.95c2.7-4.68,1.79-10.27-2.05-12.48s-9.13-.21-11.83,4.47-1.79,10.27,2.05,12.48,9.13,.21,11.83-4.47"/><path id="Path_5736" class="cls-12" d="M280.14,259.12c-1.34,0-2.66-.34-3.82-1.01-4.2-2.43-5.25-8.51-2.34-13.56s8.71-7.18,12.91-4.76,5.25,8.51,2.34,13.56c-1.31,2.35-3.4,4.17-5.9,5.16-1.02,.39-2.1,.6-3.19,.61m2.93-18.75c-3.26,.19-6.19,2.08-7.71,4.97-2.48,4.29-1.69,9.4,1.76,11.4,1.74,.95,3.83,1.06,5.66,.3,2.16-.86,3.95-2.44,5.08-4.47,2.48-4.29,1.69-9.41-1.76-11.4-.92-.53-1.97-.8-3.03-.8"/><path id="Path_5737" class="cls-6" d="M160.18,97.25c8.59,3.04,21.95,1.59,24.46,8.46s7.27,25.52,2.64,35.96-15.07,14.94-15.07,14.94l.26,11.5s-32.52-.93-32.79-1.32,4.89-4.89,5.55-11.11-13.09-5.95-12.96-15.87,3.7-25.39,10.18-27.9,17.72-14.68,17.72-14.68"/><path id="Path_5738" class="cls-7" d="M138.5,166.27s-1.06-2.31,2.98-1.59,8.99,3.9,16.99,3.9c4.98-.02,9.95-.39,14.87-1.12,0,0,13.35,6.35,18.97,10.91,5.52,4.72,10.57,9.97,15.07,15.67,2.91,3.77,7.93,14.88,8.73,17.98s11.7,36.89,11.7,36.89l-7.27,27.83-17.85-.2-8.46-25.58-5.16,10.84-2.97,14.74s-33.32-1.06-36.36,1.45,.4,6.08,.4,6.08h-45.75l16.13-80.79,17.98-37.02Z"/><path id="Path_5739" class="cls-7" d="M141.01,164.68c-2.78,1.27-5.62,2.37-8.53,3.31-4.1,1.26-19.63,9.19-24.46,13.15s-12.03,14.68-13.62,18.38-9.79,24.59-9.79,24.59l-7.24,24.2s-2.94,14.41-2.41,20.43,4.76,12.17,7.6,13.68,8.79,1.65,10.64,1.65,25.52-2.64,25.52-2.64l35.3-5.69-4.3-22.18-36.88,2.08,12.96-36.49,15.2-54.47Z"/><path id="Path_5740" class="cls-6" d="M150.95,254.91s14.82-3.67,17.7-3.3,5.97-1.41,10.89,.94,11.73,9.43,13.13,10.89,5.97,6.65,5.55,8.54-.32,3.56-2.15,3.67c-1.52,.02-3.05-.08-4.55-.31,0,0-1.05,1.2-3.82,.26s-7.91-3.3-8.43-3.51c-1.26-.23-2.54-.39-3.82-.47,0,0-5.89,2.33-9.32,3.56-2.68,.85-5.5,1.15-8.3,.87-.16,0-4.26-.66-4.26-.66l-2.62-20.47Z"/><path id="Path_5741" class="cls-12" d="M160.77,99.43c.04,3.34-.45,6.67-1.45,9.85-1.59,4.3-8.66,13.62-13.68,14.54-3.17-.4-6.54-.07-7.34,2.84s-1.32,5.62,.73,7.6,8.2,2.45,8.2,2.45c0,0,.07,8.59-.73,12.89-.75,3.3-1.83,6.51-3.24,9.58,0,0-11.77-.99-14.21-1.98s-9.85-4.16-11.17-10.25,.99-16.26,3.5-20.49,6.54-16.92,8.46-21.35,4.83-11.77,7.47-13.09c4.05-1.61,8.34-2.51,12.69-2.64,4.43-5.29,11.77-8.53,17.12-7.74s13.42,3.3,16.59,8,5.95,9.45,6.68,15.07,.26,15.73,1.06,19.37,4.83,11.3,5.42,15.54,.93,9.06-1.79,11.77-7.67,6.48-11.44,7.47c-2.89,.68-5.83,1.14-8.79,1.39l-2.45-.33,.93-6.48s9.12-2.45,11.3-6.54,2.38-13.49,2.38-17.25-2.25-20.69-2.25-20.69l-.73-1.65c-2.71,.32-5.45,.09-8.07-.66-4.63-1.26-6.21-1.26-8.86-3.24-2.03-1.45-4.15-2.78-6.35-3.97"/><path id="Path_5742" class="cls-12" d="M170.12,154.46c-3-.09-5.97-.63-8.81-1.58-.42-.11-.67-.55-.56-.97,.11-.42,.55-.67,.97-.56,.02,0,.03,0,.04,.01,5.89,1.77,8.66,1.54,9.57,1.47,5.87-.49,10.08-2.7,12.52-6.55,2.12-3.36,2.95-8,2.46-13.79l-1.9-22.71c-.06-.87-.19-1.73-.39-2.58-.09-.43,.18-.85,.61-.94,.41-.09,.82,.17,.93,.58,.22,.92,.36,1.86,.43,2.81l1.9,22.71c.51,6.14-.39,11.11-2.7,14.77-2.72,4.3-7.34,6.75-13.73,7.29-.38,.03-.83,.06-1.35,.06"/><path id="Path_5743" class="cls-12" d="M144.15,137.44c-4.03,0-7.3-3.28-7.3-7.31,0-4.03,3.28-7.3,7.31-7.3,.79,0,1.57,.13,2.32,.38,.42,.12,.67,.56,.55,.98-.12,.42-.56,.67-.98,.55-.03,0-.05-.02-.08-.03-2.99-1.01-6.24,.6-7.24,3.6-1.01,2.99,.6,6.24,3.6,7.24,1.56,.52,3.27,.35,4.7-.48,.38-.22,.86-.09,1.09,.28,.22,.38,.09,.86-.29,1.09-.94,.55-1.98,.88-3.07,.96-.21,.02-.41,.03-.62,.03"/><path id="Path_5744" class="cls-12" d="M140.87,131.06c-.41,0-.75-.31-.79-.72-.15-1.24,.27-2.47,1.14-3.37,.89-.86,2.12-1.26,3.35-1.09,.44,.04,.75,.43,.71,.87h0c-.04,.43-.41,.75-.84,.71h-.03c-.75-.11-1.51,.12-2.07,.64-.53,.56-.78,1.33-.68,2.09,.04,.44-.28,.82-.71,.87h-.08"/><path id="Path_5745" class="cls-12" d="M92.05,284.6c-4.69,0-8.16-.41-9.58-1.43-8.28-5.94-11.27-12.69-5.86-35.04,3.91-15.51,9.06-30.68,15.42-45.36,7.58-16.82,16.48-25.3,35.27-33.62,1.95-.87,3.83-1.6,5.48-2.25,3.52-1.38,6.3-2.46,7.98-4.01,5.3-4.87,5.78-21.97,5.8-27.1,0-.44,.36-.79,.79-.79h0c.44,0,.79,.36,.79,.8h0c-.03,6.78-.7,23.11-6.32,28.27-1.9,1.75-4.8,2.88-8.48,4.32-1.64,.64-3.49,1.37-5.41,2.22-18.38,8.13-27.08,16.42-34.47,32.82-6.31,14.59-11.44,29.66-15.32,45.07-5.19,21.47-2.44,27.87,5.24,33.38,5.44,3.91,51.19-2.99,69.39-6.15l-3.81-22.69-37.27,3.52,10.04-29.85c.17-.41,.63-.6,1.03-.43,.37,.15,.57,.55,.47,.94l-9.26,27.53,36.31-3.42,4.32,25.7-.78,.13c-5.24,.92-43.15,7.45-61.79,7.45"/><path id="Path_5746" class="cls-12" d="M146.34,124.75c-.44,0-.79-.36-.79-.8,0-.33,.21-.62,.51-.74,5.71-2.13,13.95-11.21,13.53-23.94-.02-.45,.23-.86,.63-1.06,.4-.2,.88-.14,1.23,.14,9.12,7.4,15.87,8.49,23.23,7.86,.44-.04,.82,.29,.86,.72,.04,.44-.29,.82-.72,.86h0c-7.53,.65-14.46-.41-23.62-7.61,.03,13.14-8.4,22.22-14.57,24.52-.09,.03-.18,.05-.28,.05"/><path id="Path_5747" class="cls-12" d="M227.87,248.38c-.34,0-.64-.22-.75-.54-.12-.36-11.91-35.6-13.38-39.61-6-16.4-15.18-26.29-33.87-36.46-1.74-.95-7.05-3.92-7.05-3.92l-.22-.12-.11-.22c-1.56-3.19-1.2-9.33-.8-13.67,.04-.44,.43-.76,.86-.72,.44,.04,.76,.43,.72,.86-.58,6.2-.4,10.44,.54,12.61,1.03,.57,5.29,2.96,6.8,3.79,19.07,10.39,28.45,20.5,34.6,37.31,1.47,4.03,13.27,39.3,13.39,39.65,.14,.41-.08,.86-.5,1-.08,.03-.17,.04-.25,.04"/><path id="Path_5748" class="cls-12" d="M190.1,261.29c-.08,0-.17-.01-.24-.04-.42-.13-.65-.58-.51-1h0c.28-.88,.58-1.76,.89-2.63,1.14-3.07,2.44-6.08,3.88-9.01,2.45-5.2,4.77-10.11,5.07-15.44,.49-8.58-2.08-16.69-4.56-24.52-.13-.42,.1-.86,.52-1s.86,.1,1,.52c2.53,7.98,5.14,16.22,4.63,25.09-.32,5.64-2.7,10.69-5.22,16.03-1.34,2.83-2.72,5.76-3.82,8.86-.3,.86-.6,1.72-.87,2.58-.11,.33-.41,.55-.76,.55"/><path id="Path_5749" class="cls-12" d="M161.17,169.59c-7.09,.04-14.1-1.51-20.51-4.56-.39-.2-.54-.68-.34-1.07,.2-.38,.65-.53,1.04-.35,9.23,4.52,21.38,5.62,31.72,2.87,.42-.12,.86,.11,.99,.53,.12,.42-.11,.86-.53,.99-.01,0-.03,0-.04,.01-4.02,1.06-8.16,1.59-12.32,1.58"/><path id="Path_5750" class="cls-12" d="M172.24,161.39c-.44,0-.8-.35-.8-.79s.35-.8,.79-.8h0c14.02-.23,23.01-5.8,24.05-14.91,.59-5.21-.99-8.75-2.67-12.5-1.39-3.11-2.83-6.33-3.02-10.58-.05-1.09-.07-2.29-.1-3.6-.2-9.63-.49-24.19-10.66-31.08-10.35-7-22.9-5.84-29.19,2.72l-.25,.35-.43-.02c-14.79-.76-17.34,7.51-20.28,17.1-.58,1.89-1.18,3.84-1.88,5.72-1.31,3.51-2.72,6.74-4.09,9.87-4.5,10.32-8.05,18.46-3.64,26.7,4.29,8.01,17.08,8.68,23.95,9.04,.44,.02,.77,.4,.75,.83h0c0,.42-.35,.76-.77,.75-.02,0-.04,0-.07,0-7.18-.38-20.55-1.07-25.27-9.87-4.78-8.91-1.09-17.37,3.59-28.08,1.35-3.11,2.76-6.32,4.06-9.79,.69-1.83,1.28-3.76,1.85-5.63,2.85-9.29,5.79-18.9,21.45-18.24,6.89-8.95,20.18-10.15,31.1-2.75,10.85,7.35,11.15,22.4,11.36,32.36,.03,1.29,.05,2.49,.1,3.56,.17,3.95,1.49,6.89,2.88,10,1.69,3.78,3.44,7.69,2.8,13.33-1.14,9.98-10.71,16.08-25.6,16.32h-.01Z"/><path id="Path_5751" class="cls-12" d="M202.86,277.61c-.34,0-.64-.21-.75-.53l-9.03-25.47c-.15-.41,.06-.87,.47-1.02,.41-.15,.87,.06,1.02,.47v.02l9.04,25.47c.15,.41-.07,.86-.48,1.01-.09,.03-.18,.05-.27,.05"/><path id="Path_5752" class="cls-12" d="M194.22,277.25c-1.4-.04-2.72-.64-3.66-1.67-.31-.31-.32-.81,0-1.12,.31-.31,.81-.32,1.12,0,2.43,2.39,4.51,.52,4.59,.43,.57-.53,1.64-1.52-.05-5.17-2.15-4.64-11.23-13.82-16.18-16.36-7.55-3.88-29.13,2.21-29.35,2.27-.42,.14-.86-.09-1-.51-.14-.42,.09-.86,.51-1,.02,0,.04-.01,.06-.02,.91-.26,22.4-6.32,30.51-2.16,5.28,2.71,14.6,12.14,16.9,17.11,1.93,4.16,.85,5.92-.32,7-.86,.76-1.97,1.19-3.12,1.2"/><path id="Path_5753" class="cls-12" d="M160.76,277.21c-2.27-.06-4.53-.26-6.78-.58-.43-.06-.73-.46-.67-.9h0c.07-.43,.47-.73,.9-.67,.06,0,5.6,.81,7.91,.5,3.77-.52,7.9-2.46,10.64-3.74,.84-.39,1.55-.73,2.1-.95,1.71-.69,3.93,.34,6.76,1.65,1.95,.98,3.99,1.78,6.09,2.39,1.25,.33,1.72,.07,2.14-.25,.47-.35,.73-.91,.7-1.49-.05-3.01-4.91-7.79-6.45-8.9-3.37-2.43-5.88-3.88-12.14-3.52-.42,.04-.79-.26-.83-.68,0-.02,0-.04,0-.06-.03-.44,.31-.81,.74-.84h0c6.76-.39,9.6,1.25,13.16,3.81,1.55,1.11,7.04,6.28,7.11,10.16,.05,1.08-.44,2.12-1.31,2.77-1,.78-2.33,.98-3.51,.53-2.19-.64-4.31-1.47-6.35-2.48-2.27-1.06-4.42-2.06-5.49-1.62-.53,.22-1.22,.54-2.03,.92-2.82,1.32-7.09,3.32-11.09,3.87-.52,.06-1.05,.09-1.58,.09"/><path id="Path_5754" class="cls-9" d="M70.84,112.32c-.13,0-.25-.05-.34-.14-.09-.08-.13-.2-.13-.32v-4.77l-.5-.02c-6.48-.18-12.93-.96-19.26-2.34-2.12-.47-4.17-1.2-6.11-2.18-1.26-.52-2.17-1.64-2.42-2.98v-11.25c.01-.62,.27-1.22,.71-1.66,2.05-2.15,6.44-3.18,9.35-3.86,.06-.01,.12-.02,.18-.02,.09,0,.18,.02,.25,.08,.08,.11,.12,.25,.11,.39v9.69l.41,.08c5.52,1.03,11.12,1.64,16.74,1.81l.54,.02v-4.54c0-.12,.04-.24,.13-.32,.09-.09,.21-.14,.34-.14,.12,0,.23,.05,.31,.13l11.27,10.77c.18,.17,.19,.46,.02,.65l-.02,.02-11.27,10.77c-.08,.08-.19,.13-.31,.13m-27.85-12.59l.04,.1c.39,.85,1.07,1.53,1.92,1.92,1.86,.94,3.83,1.64,5.87,2.09,6.58,1.46,13.28,2.27,20.01,2.43,.25,0,.44,.21,.44,.45v4.07l10.14-9.7-10.14-9.71v4.02c0,.25-.2,.45-.45,.45-6.28-.14-12.54-.82-18.7-2.03-2.56-.48-5.04-1.29-7.39-2.41-.2-.12-.39-.25-.57-.4-.12-.1-.24-.19-.36-.29l-.82-.59v9.6Zm8.13-15.65c-2.05,.43-4.04,1.08-5.95,1.94-.99,.53-2.02,1.2-2.11,2.16-.11,1.16,1.16,1.94,2.12,2.44,1.91,.85,3.9,1.5,5.94,1.93l.65,.16v-8.79l-.65,.16Z"/><path id="Path_5755" class="cls-10" d="M82.41,107.04c-.24,0-.43-.18-.44-.42h0s0-.03,0-.04c-.02-.23,.14-.44,.37-.46h0s.05,0,.07,0c6.27-.21,12.5-1.03,18.62-2.45,1.88-.44,3.7-1.12,5.42-2.02,1.13-.66,1.78-1.4,1.78-2.02v-9.34l-.81,.56c-.3,.21-.61,.4-.93,.57-2.34,1.13-4.83,1.94-7.39,2.41-5.48,1.1-11.03,1.75-16.62,1.95-.24,.02-.45-.16-.47-.4h0s0-.04,0-.06c-.02-.23,.15-.44,.38-.47h0s.04,0,.05,0c5.27-.21,10.51-.83,15.69-1.84l.42-.08v-9.69c0-.16,.13-.48,.31-.48,4.96,1.03,8.25,2.36,9.57,3.86,.43,.45,.69,1.05,.72,1.68v11.31c0,1.02-.73,1.94-2.23,2.81-1.78,.94-3.68,1.65-5.65,2.1-6.17,1.44-12.46,2.27-18.79,2.48h-.07Zm17.04-14.31l.64-.16c2.05-.42,4.05-1.07,5.95-1.94,1.47-.8,2.11-1.47,2.14-2.24,.06-.96-.99-1.69-2.14-2.34-1.91-.87-3.91-1.53-5.96-1.95l-.64-.16v8.79Z"/><path id="Path_5756" class="cls-10" d="M75.61,77.88c-4.23,.09-7.73-3.26-7.82-7.49-.09-4.23,3.26-7.73,7.49-7.82,4.23-.09,7.73,3.26,7.82,7.49h0v.17c.04,4.18-3.31,7.6-7.49,7.65m0-14.39c-3.72-.09-6.81,2.86-6.9,6.58-.09,3.72,2.86,6.81,6.58,6.9,3.72,.09,6.81-2.86,6.9-6.58v-.16c.04-3.68-2.9-6.69-6.58-6.74"/><path id="Path_5757" class="cls-10" d="M75.61,83.12c-9.01,0-17.47-5.62-19.26-12.79-.02-.08-.02-.16,0-.24,1.79-7.16,10.25-12.77,19.26-12.77s17.47,5.61,19.26,12.79c.02,.07,.02,.15,0,.22-1.79,7.18-10.25,12.79-19.26,12.79m0-24.89c-8.25,0-16.44,5.32-18.25,11.85l-.04,.14,.04,.14c1.82,6.53,10,11.85,18.25,11.85s16.44-5.32,18.26-11.85l.04-.14-.04-.14c-1.82-6.53-10-11.85-18.26-11.85"/><path id="Path_5758" class="cls-9" d="M522.26,56.07c-.75,0-1.35,.61-1.35,1.35,0,15.13-12.27,27.4-27.4,27.4s-27.4-12.27-27.4-27.4c0-14.41,11.16-26.35,25.53-27.34l-1.22,.9c-.59,.44-.71,1.26-.28,1.85,.25,.33,.63,.53,1.05,.54,.3,0,.59-.09,.84-.26l4.45-3.35c.33-.27,.52-.67,.52-1.1-.02-.44-.23-.84-.58-1.1l-4.45-2.97c-.64-.38-1.47-.18-1.85,.46-.36,.6-.2,1.38,.37,1.79l.9,.58c-16.57,1.19-29.04,15.59-27.85,32.16,1.19,16.57,15.59,29.04,32.16,27.85,15.75-1.13,27.94-14.24,27.93-30.03,0-.75-.61-1.35-1.35-1.35"/><path id="Path_5759" class="cls-2" d="M522.26,56.07c-.75,0-1.35,.61-1.35,1.35,0,15.13-12.27,27.4-27.4,27.4s-27.4-12.27-27.4-27.4c0-14.41,11.16-26.35,25.53-27.34l-1.22,.9c-.59,.44-.71,1.26-.28,1.85,.25,.33,.63,.53,1.05,.54,.3,0,.59-.09,.84-.26l4.45-3.35c.33-.27,.52-.67,.52-1.1-.02-.44-.23-.84-.58-1.1l-4.45-2.97c-.64-.38-1.47-.18-1.85,.46-.36,.6-.2,1.38,.37,1.79l.9,.58c-16.57,1.19-29.04,15.59-27.85,32.16,1.19,16.57,15.59,29.04,32.16,27.85,15.75-1.13,27.94-14.24,27.93-30.03,0-.75-.61-1.35-1.35-1.35"/><path id="Path_5760" class="cls-9" d="M522.91,50.46c0,.89-.72,1.61-1.61,1.61s-1.61-.72-1.61-1.61,.72-1.61,1.61-1.61,1.61,.72,1.61,1.61h0"/><path id="Path_5761" class="cls-9" d="M520.78,44.4c0,.89-.72,1.61-1.61,1.61s-1.61-.72-1.61-1.61,.72-1.61,1.61-1.61,1.61,.72,1.61,1.61h0"/><path id="Path_5762" class="cls-9" d="M516.84,38.72c0,.89-.72,1.61-1.61,1.61s-1.61-.72-1.61-1.61,.72-1.61,1.61-1.61,1.61,.72,1.61,1.61h0"/><path id="Path_5763" class="cls-9" d="M511.5,33.89c0,.89-.72,1.61-1.61,1.61s-1.61-.72-1.61-1.61,.72-1.61,1.61-1.61,1.61,.72,1.61,1.61h0Z"/><path id="Path_5764" class="cls-9" d="M505.05,30.48c0,.89-.72,1.61-1.61,1.61-.89,0-1.61-.72-1.61-1.61s.72-1.61,1.61-1.61h0c.89,0,1.61,.72,1.61,1.61"/><path id="Path_5765" class="cls-9" d="M504.79,53.88c-.66,.31-1.35,.55-2.06,.71v-9.93h-6.26c.12,.4,.27,.78,.45,1.16,1.1,2.32,2,6-2.45,6s-3.55-3.67-2.45-6c.18-.38,.33-.76,.45-1.16h-10.31v9.73c.45-.13,.88-.3,1.29-.51,2.32-1.1,6-2,6,2.45s-3.67,3.55-6,2.45c-.45-.2-.9-.39-1.29-.51v7.02h10.44c-.15,.51-.34,1.01-.58,1.48-1.1,2.32-2,6,2.45,6s3.55-3.68,2.45-6c-.24-.48-.43-.97-.58-1.48h6.38v-7.22c.71,.15,1.41,.39,2.06,.71,2.32,1.1,5.99,2,5.99-2.45s-3.61-3.54-5.99-2.45"/><path id="Path_5766" class="cls-9" d="M274.06,180.25c-4.51,0-8.62-2.59-10.55-6.66l-.1-.21h-32.23c-1.76,0-3.19-1.43-3.19-3.19v-38.33c0-1.76,1.43-3.19,3.19-3.19h42.61c1.76,0,3.19,1.43,3.19,3.19v25.35l.26,.07c6.22,1.75,9.85,8.21,8.1,14.43-1.42,5.05-6.03,8.54-11.28,8.54m0-21.88c-5.62,0-10.17,4.56-10.18,10.18,0,.28,.02,.57,.05,.93,0,.07,.04,.35,.04,.35,.02,.19,.05,.37,.08,.55,.02,.13,.05,.27,.08,.4,.04,.16,.08,.32,.12,.47l.03,.12c.03,.12,.05,.2,.08,.29,.45,1.39,1.19,2.66,2.18,3.74l.06,.07c.39,.42,.82,.81,1.27,1.16,.07,.06,.15,.11,.23,.17,.18,.13,.29,.21,.4,.28,.19,.12,.38,.24,.58,.35,.1,.06,.2,.11,.3,.16,.19,.1,.35,.18,.51,.25,0,0,.21,.1,.28,.13,.24,.1,.49,.19,.75,.27,.09,.03,.17,.05,.26,.08,.23,.07,.47,.13,.72,.18l.14,.03c.26,.05,.55,.1,.87,.13l.22,.02c.37,.03,.65,.05,.92,.05,5.62,0,10.17-4.56,10.17-10.18,0-.29-.02-.59-.05-.95,0-.06-.04-.3-.04-.3-.02-.21-.06-.42-.1-.62l-.07-.33c-.04-.2-.1-.4-.15-.6-.04-.16-.07-.26-.09-.3-.1-.29-.19-.56-.3-.81-.02-.06-.14-.3-.14-.3-.08-.17-.15-.33-.24-.49-.06-.12-.13-.24-.2-.36-.09-.15-.16-.27-.24-.39-.09-.14-.18-.28-.27-.41-.04-.06-.08-.12-.13-.17l-.07-.09c-.4-.53-.85-1.02-1.35-1.46l-.09-.08c-.17-.15-.35-.29-.53-.43l-.09-.07c-.82-.61-1.72-1.09-2.68-1.43-.73-.26-1.49-.44-2.26-.52l-.23-.02c-.34-.03-.62-.04-.89-.04m-31.37,13.53h20.17l-.11-.45c-.24-.95-.37-1.92-.37-2.9,0-6.46,5.23-11.7,11.7-11.71h0c.31,0,.65,.02,1.03,.05l.39,.03v-14.85h-32.8v29.82Zm-13.21-1.7c0,.94,.76,1.7,1.7,1.7h10.02v-29.82h-11.71v28.12Zm1.69-40.03c-.94,0-1.7,.76-1.7,1.7h0v8.72h46.01v-8.72c0-.94-.76-1.7-1.7-1.7h-42.61Z"/><path id="Path_5767" class="cls-9" d="M271.92,172.94c-.2,0-.4-.08-.54-.22l-2.97-2.97c-.3-.3-.3-.78,0-1.08,.3-.3,.78-.3,1.08,0h0l2.43,2.43,6.71-6.71c.3-.3,.78-.3,1.08,0,.14,.14,.23,.34,.23,.54,0,.2-.08,.4-.22,.54l-7.25,7.25c-.14,.14-.34,.23-.54,.22"/><path id="Path_5768" class="cls-9" d="M239.8,136.48c-.63,0-1.15-.51-1.15-1.15s.51-1.15,1.15-1.15c.63,0,1.15,.51,1.15,1.15,0,.63-.51,1.15-1.15,1.15"/><path id="Path_5769" class="cls-9" d="M245.91,136.48c-.63,0-1.15-.52-1.15-1.15s.52-1.15,1.15-1.15c.63,0,1.15,.51,1.15,1.15,0,.63-.52,1.15-1.15,1.15"/><path id="Path_5770" class="cls-9" d="M233.69,136.48c-.63,0-1.15-.52-1.15-1.15s.52-1.15,1.15-1.15c.63,0,1.15,.51,1.15,1.15,0,.63-.52,1.15-1.15,1.15"/><path id="Path_5771" class="cls-6" d="M292.23,51.71h-18.58c-.24,0-.47,.04-.7,.11l-.05,.02-.36,.19-.17,.13c-.11,.09-.21,.19-.3,.3l-.12,.16-.15,.27c-.13,.27-.19,.57-.19,.86,0,.31,.07,.61,.2,.89l.13,.21,.18,.23s.04,.04,4.52,4.53c.38,.39,.9,.6,1.45,.6h0c1.13,0,2.05-.91,2.05-2.04,0-.49-.18-.97-.5-1.35l-.9-1.04h13.51c1.13,0,2.05-.91,2.05-2.04,0-1.13-.91-2.05-2.04-2.05h0"/><path id="Path_5772" class="cls-6" d="M293.96,45.72l-.18-.23s-.04-.04-4.53-4.53c-.38-.39-.9-.6-1.45-.6h0c-1.13,0-2.05,.91-2.05,2.04,0,.5,.18,.97,.5,1.35l.9,1.04h-13.51c-1.13,.03-2.03,.96-2,2.09,.02,1.1,.91,1.98,2,2h18.58c.24,0,.47-.04,.7-.11l.05-.02,.36-.19,.17-.13c.11-.09,.21-.19,.3-.3l.12-.16,.15-.27c.13-.27,.19-.57,.19-.86,0-.31-.07-.61-.2-.89l-.12-.21Z"/></g></g></g></g></g></g></g></g></svg>