<?xml version="1.0" encoding="UTF-8"?><svg id="Layer_2" xmlns="http://www.w3.org/2000/svg" xmlns:xlink="http://www.w3.org/1999/xlink" viewBox="0 0 561.98 582"><defs><style>.cls-1{fill:none;}.cls-2{clip-path:url(#clippath);}.cls-3{fill:#fff;}.cls-4{fill:#9fb6df;}.cls-5{fill:#a92b91;}.cls-6{fill:#0872a1;}.cls-7{fill:#1a8bcb;}.cls-8{fill:#701e5e;}.cls-9{fill:#9ad8f3;}.cls-10{fill:#5b72b7;}.cls-11{fill:#49b7e8;}.cls-12{clip-path:url(#clippath-1);}.cls-13{clip-path:url(#clippath-4);}.cls-14{clip-path:url(#clippath-3);}.cls-15{clip-path:url(#clippath-2);}.cls-16{opacity:.3;}.cls-17{opacity:.6;}</style><clipPath id="clippath"><rect class="cls-1" width="561.98" height="582"/></clipPath><clipPath id="clippath-1"><rect class="cls-1" width="561.98" height="582"/></clipPath><clipPath id="clippath-2"><rect class="cls-1" x="12.24" width="541.1" height="582"/></clipPath><clipPath id="clippath-3"><rect class="cls-1" x="500.13" y="147.47" width="46.12" height="4.01"/></clipPath><clipPath id="clippath-4"><rect class="cls-1" x="499.82" y="156.29" width="46.12" height="4.81"/></clipPath></defs><g id="Layer_1-2"><g class="cls-2"><g id="Group_322"><g id="Group_321"><g class="cls-12"><g id="Group_320"><g id="Group_313" class="cls-17" transform="translate(12.236)"><g id="Group_312"><g class="cls-15"><g id="Group_311"><path id="Path_3390" class="cls-9" d="M318.59,4.19c-38.37-11.94-74.99,4.36-98.4,14.78C127.93,60.04,14.51,184.37,12.56,311.72c-.46,29.8-11.58,138.1,147.01,243.24,100.52,66.64,238.15-2.3,309.32-72.71,58.96-58.33,105.47-159.91,74.62-235.2-19.4-47.35-49-34.54-115.29-115.28-57.38-69.89-62.71-112.98-109.64-127.58"/></g></g></g></g><path id="Path_3391" class="cls-3" d="M403.02,187.25H234.57c-1.93,0-3.5-1.57-3.51-3.5l-.3-92.06c0-1.93,1.55-3.49,3.47-3.5h168.47c1.93,0,3.5,1.57,3.51,3.5l.3,92.06c0,1.92-1.54,3.49-3.47,3.5h-.02"/><path id="Path_3392" class="cls-11" d="M274.29,181.98h-15.79l-.11-32.61h15.79l.11,32.61Z"/><path id="Path_3393" class="cls-11" d="M254.41,181.98h-15.79l-.08-24.1h15.79l.08,24.1Z"/><path id="Path_3394" class="cls-11" d="M294.24,181.98h-15.79l-.16-48.99h15.79l.16,48.99Z"/><path id="Path_3395" class="cls-11" d="M315.07,181.98h-15.79l-.13-39.33h15.79l.13,39.33Z"/><path id="Path_3396" class="cls-11" d="M335.9,181.98h-15.78l-.18-55.73h15.78l.18,55.73Z"/><path id="Path_3397" class="cls-11" d="M356.73,181.33h-15.79l-.13-40.72h15.79l.13,40.72Z"/><path id="Path_3398" class="cls-11" d="M378,181.32h-15.79l-.18-56.53h15.79l.19,56.53Z"/><path id="Path_3399" class="cls-11" d="M398.39,181.32h-15.79l-.23-69.71h15.79l.23,69.71Z"/><path id="Path_3400" d="M249.27,141.79c-.35,0-.63-.28-.63-.63,0-.21,.1-.41,.28-.53l35.73-24.28c.25-.17,.57-.14,.79,.06l15.25,14.31,27.98-19.03c.25-.17,.58-.14,.8,.07l16.57,16.05,46.49-31.52c.29-.2,.68-.12,.88,.17s.12,.68-.17,.88h0l-46.92,31.81c-.25,.17-.58,.14-.8-.07l-16.57-16.05-27.98,19.02c-.25,.17-.57,.14-.79-.06l-15.25-14.31-35.32,23.99c-.1,.07-.23,.11-.36,.11"/><path id="Path_3401" class="cls-7" d="M289.75,116.76c-.02,2.62-2.06,4.78-4.67,4.95-2.44,.16-4.54-1.7-4.7-4.13,0-.1,0-.21,0-.32,.02-2.62,2.06-4.78,4.67-4.95,2.44-.15,4.54,1.7,4.69,4.14,0,.1,0,.21,0,.31"/><path id="Path_3402" class="cls-7" d="M333.66,111.92c-.02,2.62-2.06,4.78-4.67,4.95-2.44,.15-4.54-1.7-4.69-4.14,0-.1,0-.21,0-.31,.02-2.62,2.06-4.78,4.67-4.95,2.44-.15,4.54,1.7,4.69,4.14,0,.1,0,.21,0,.31"/><path id="Path_3403" class="cls-7" d="M305.73,131.05c-.02,2.62-2.06,4.78-4.67,4.95-2.44,.15-4.54-1.7-4.69-4.14,0-.1,0-.21,0-.31,.02-2.62,2.06-4.78,4.67-4.95,2.44-.15,4.54,1.7,4.69,4.14,0,.1,0,.21,0,.31"/><path id="Path_3404" class="cls-7" d="M254.09,140.99c-.02,2.62-2.06,4.78-4.67,4.95-2.44,.15-4.54-1.7-4.69-4.14,0-.1,0-.21,0-.31,.02-2.62,2.06-4.78,4.67-4.95,2.44-.15,4.54,1.7,4.69,4.14,0,.1,0,.21,0,.31"/><path id="Path_3405" d="M249.17,146.57c-2.79,.02-5.07-2.23-5.08-5.02,0-.02,0-.04,0-.07,.02-2.96,2.32-5.39,5.27-5.58,2.79-.17,5.19,1.94,5.36,4.73,0,.12,.01,.23,0,.35-.02,2.96-2.32,5.39-5.27,5.58-.1,0-.19,0-.29,0m.48-9.41c-.07,0-.14,0-.22,0-2.28,.15-4.06,2.03-4.07,4.31-.02,2.09,1.66,3.81,3.75,3.83,.09,0,.19,0,.28,0,2.28-.15,4.06-2.03,4.07-4.31,.02-2.09-1.66-3.8-3.75-3.82-.02,0-.05,0-.07,0"/><path id="Path_3406" class="cls-7" d="M350.73,128.01c-.02,2.62-2.06,4.78-4.67,4.95-2.44,.15-4.54-1.7-4.69-4.14,0-.1,0-.21,0-.31,.02-2.62,2.06-4.78,4.67-4.95,2.44-.15,4.54,1.7,4.69,4.14,0,.1,0,.21,0,.31"/><path id="Path_3407" class="cls-7" d="M397.57,96.57c-.02,2.62-2.06,4.78-4.67,4.95-2.44,.15-4.54-1.7-4.69-4.14,0-.1,0-.21,0-.31,.02-2.62,2.06-4.78,4.67-4.95,2.44-.15,4.54,1.7,4.69,4.14,0,.1,0,.21,0,.31"/><path id="Path_3408" d="M392.64,102.15c-2.79,.02-5.07-2.23-5.08-5.02,0-.02,0-.04,0-.06,.02-2.96,2.32-5.39,5.27-5.58,2.79-.17,5.19,1.94,5.36,4.73,0,.12,.01,.23,0,.35-.02,2.96-2.32,5.39-5.27,5.58-.1,0-.19,0-.29,0m.47-9.41c-.07,0-.15,0-.22,0-2.28,.15-4.06,2.03-4.07,4.31-.02,2.09,1.66,3.81,3.75,3.83,.1,0,.19,0,.29,0,2.28-.15,4.06-2.03,4.07-4.31,.02-2.09-1.66-3.8-3.75-3.82-.02,0-.05,0-.07,0"/><path id="Path_3409" d="M322.13,187.89h-41.47c-.35,0-.63-.28-.63-.63s.28-.63,.63-.63h41.47c.35,0,.63,.28,.63,.63s-.28,.63-.63,.63"/><path id="Path_3410" d="M403.02,187.89h-54.75c-.35,0-.63-.28-.63-.63s.28-.63,.63-.63h54.75c1.57,0,2.85-1.28,2.85-2.85v-.02l-.3-92.06c0-1.58-1.29-2.87-2.87-2.87H234.24c-1.57,0-2.85,1.28-2.85,2.85v.02l.29,89.07c0,.35-.28,.63-.63,.64h0c-.35,0-.63-.28-.63-.63l-.29-89.07c-.01-2.27,1.82-4.13,4.1-4.14h168.48c2.28,0,4.13,1.85,4.14,4.13l.3,92.06c.01,2.27-1.82,4.13-4.1,4.14h-.02"/><path id="Path_3411" class="cls-3" d="M556.98,128.94h-66.65c-2.32,0-4.27,2.51-4.34,5.2l-.95,33.58c-.08,2.69,1.75,4.93,4.07,4.93h7.97l3.24,9.55,7.21-9.55h48.23c2.49-.16,4.41-2.26,4.33-4.76l.96-33.8c.08-2.69-1.74-5.15-4.06-5.15"/><path id="Path_3412" d="M500.31,183.14c-.41,0-.77-.26-.9-.64l-3.02-8.91h-7.29c-1.28-.01-2.49-.54-3.37-1.47-1.12-1.2-1.71-2.79-1.65-4.43l.95-33.58c.09-3.32,2.52-6.12,5.29-6.12h66.65c1.24,.02,2.41,.54,3.26,1.45,1.18,1.26,1.8,2.94,1.74,4.67l-.96,33.8c.07,3.01-2.26,5.53-5.27,5.68h-47.76l-6.92,9.18c-.18,.24-.46,.38-.75,.38m-9.98-53.26c-1.72,0-3.34,2.04-3.4,4.28l-.95,33.58c-.05,1.13,.35,2.23,1.11,3.06,.52,.56,1.25,.88,2.01,.9h7.97c.41,0,.77,.26,.9,.64l2.67,7.86,6.13-8.13c.18-.24,.46-.38,.75-.38h48.23c1.98-.16,3.48-1.86,3.38-3.84l.96-33.8c.05-1.22-.39-2.4-1.21-3.3-.49-.54-1.17-.85-1.9-.88h-66.66Z"/><path id="Path_3413" class="cls-7" d="M502.49,142.66h41.83c1.24-.13,2.2-1.15,2.24-2.4,.07-1.22-.84-2.28-2.05-2.4h-41.83c-1.24,.13-2.2,1.15-2.24,2.4-.07,1.22,.84,2.28,2.05,2.4"/><g id="Group_316" class="cls-16" transform="translate(500.131 147.473)"><g id="Group_315"><g class="cls-14"><g id="Group_314"><path id="Path_3414" class="cls-7" d="M502.2,151.48h41.83c1.16,.06,2.16-.84,2.23-2,.03-1.07-.81-1.97-1.88-2-.06,0-.12,0-.18,0h-41.82c-1.17-.06-2.16,.84-2.23,2-.03,1.07,.81,1.97,1.88,2,.06,0,.12,0,.19,0"/></g></g></g></g><g id="Group_319" class="cls-16" transform="translate(499.824 156.289)"><g id="Group_318"><g class="cls-13"><g id="Group_317"><path id="Path_3415" class="cls-7" d="M501.88,161.1h41.83c1.24-.13,2.2-1.15,2.24-2.4,.07-1.22-.84-2.28-2.05-2.4h-41.82c-1.24,.13-2.2,1.15-2.24,2.4-.07,1.22,.84,2.28,2.05,2.4"/></g></g></g></g><path id="Path_3416" class="cls-3" d="M174.18,193.44l-132.4-1.69c-4.32-.19-7.68-3.84-7.49-8.17v-.05l2.45-132.17c-.04-4.36,3.43-7.94,7.79-8.02l132.4,1.69c4.32,.19,7.68,3.85,7.49,8.17v.05l-2.45,132.17c.04,4.36-3.43,7.94-7.79,8.02"/><path id="Path_3417" class="cls-5" d="M75.55,172.07l-11.38-.15,1.52-82.07,11.38,.15-1.52,82.07Z"/><path id="Path_3418" class="cls-8" d="M75.55,172.07l-11.38-.15,.98-52.95,11.38,.15-.98,52.95Z"/><path id="Path_3419" class="cls-5" d="M96.89,172.34l-11.38-.15,1.3-69.97,11.38,.15-1.3,69.97Z"/><path id="Path_3420" class="cls-8" d="M96.89,172.34l-11.38-.15,.74-40.09,11.38,.15-.74,40.09Z"/><path id="Path_3421" class="cls-5" d="M116.8,172.97l-11.38-.15,1.18-63.54,11.38,.15-1.18,63.54Z"/><path id="Path_3422" class="cls-8" d="M116.8,172.97l-11.38-.14,.55-29.5,11.38,.15-.55,29.5Z"/><path id="Path_3423" class="cls-5" d="M137.24,173.99l-11.38-.15,1.52-82.07,11.38,.15-1.52,82.07Z"/><path id="Path_3424" class="cls-8" d="M137.24,173.99l-11.38-.15,1.27-68.46,11.38,.15-1.27,68.46Z"/><path id="Path_3425" class="cls-5" d="M157.88,173.88l-11.38-.15,1.42-76.4,11.38,.15-1.42,76.4Z"/><path id="Path_3426" class="cls-8" d="M157.88,173.88l-11.38-.15,.93-50.3,11.38,.15-.93,50.3Z"/><path id="Path_3427" class="cls-5" d="M164.99,174.82h-.01l-110.29-1.41c-1.02-.01-1.99-.44-2.69-1.18-.77-.81-1.18-1.89-1.15-3l2.23-97.04c.02-.52,.45-.93,.97-.92,.52,.01,.94,.44,.92,.97l-2.23,97.04c-.02,.61,.21,1.2,.62,1.65,.35,.37,.84,.59,1.36,.6l110.3,1.41c.52,0,.94,.43,.94,.95,0,.52-.43,.94-.95,.94h0"/><path id="Path_3428" class="cls-5" d="M99.93,69.1l-34.2-.44,.12-6.43,34.2,.44-.12,6.43Z"/><path id="Path_3429" class="cls-5" d="M99.87,78.94l-34.2-.44,.12-6.43,34.2,.44-.12,6.43Z"/><path id="Path_3430" d="M174.27,194.38h-.1l-77.87-.99c-.52,0-.94-.43-.94-.95s.43-.94,.95-.94h.01l77.87,.99h.08c3.8-.14,6.8-3.29,6.75-7.1l.92-49.81c0-.51,.43-.93,.94-.93h.02c.52,0,.94,.44,.93,.96l-.92,49.81c.02,4.83-3.81,8.81-8.64,8.95"/><path id="Path_3431" d="M158.8,45.74h-.01l-12.31-.16c-.52,0-.94-.43-.94-.95,0-.52,.43-.94,.95-.94h.01l12.31,.16c.52,0,.94,.43,.94,.95,0,.52-.43,.94-.95,.94"/><path id="Path_3432" d="M34.8,157.23h-.02c-.52,0-.94-.44-.93-.96l1.95-104.92c-.02-4.83,3.81-8.81,8.64-8.95h.11l74.54,.95c.52,0,.94,.43,.94,.95,0,.52-.43,.94-.95,.94h-.01l-74.54-.95h-.08c-3.8,.14-6.8,3.29-6.75,7.1l-1.94,104.92c0,.51-.43,.93-.94,.93"/><path id="Path_3433" class="cls-7" d="M398.33,230.52l-31.08-.87c-2.58-.25-4.52-2.45-4.44-5.04v-.02c-.04-2.71,1.89-4.86,4.31-4.79l31.08,.87c2.58,.25,4.52,2.45,4.44,5.04v.02c.04,2.71-1.89,4.86-4.31,4.79"/><path id="Path_3434" class="cls-7" d="M433.06,231.49l-14.72-.41c-2.58-.25-4.52-2.45-4.44-5.04v-.02c-.04-2.71,1.89-4.86,4.31-4.79l14.72,.41c2.58,.25,4.52,2.45,4.44,5.04v.02c.04,2.71-1.89,4.86-4.31,4.79"/><path id="Path_3435" class="cls-7" d="M433.88,253.18l-65.46-1.83c-2.58-.25-4.52-2.45-4.44-5.04v-.02c-.04-2.71,1.89-4.86,4.31-4.79l65.46,1.83c2.58,.25,4.52,2.45,4.44,5.04v.02c.04,2.71-1.89,4.86-4.31,4.79"/><path id="Path_3436" class="cls-7" d="M422.33,275.13l-51.59-1.44c-2.58-.25-4.52-2.45-4.44-5.04v-.02c-.04-2.71,1.89-4.86,4.31-4.79l51.59,1.44c2.58,.25,4.52,2.45,4.44,5.04v.02c.04,2.71-1.89,4.86-4.31,4.79"/><path id="Path_3437" class="cls-7" d="M426.68,296.3l-55.92-1.57c-2.58-.25-4.52-2.45-4.44-5.04v-.02c-.04-2.71,1.89-4.86,4.31-4.79l55.92,1.57c2.58,.25,4.52,2.45,4.44,5.04v.02c.04,2.71-1.89,4.86-4.31,4.79"/><path id="Path_3438" class="cls-4" d="M153.65,333.24s-3.25,11.13,45.2,13.84,40.34-11.05,40.34-11.05l-50.86-14.82-34.68,12.03Z"/><path id="Path_3439" class="cls-3" d="M202.09,507.75l-.61,22.86-8.07,.87-3.99-24.6,12.68,.87Z"/><path id="Path_3440" d="M193.4,532.43c-.46,0-.86-.34-.93-.79l-3.99-24.6c-.08-.52,.27-1,.78-1.08,.07-.01,.15-.02,.22,0l12.68,.87c.51,.03,.89,.46,.88,.97l-.61,22.86c-.01,.47-.37,.86-.84,.91l-8.07,.87s-.07,0-.1,0m-2.87-24.52l3.66,22.54,6.36-.69,.57-21.13-10.59-.73Z"/><path id="Path_3441" class="cls-3" d="M247.9,515.26l1.29,18.21-10.67,.87-3.81-19.08h13.19Z"/><path id="Path_3442" d="M238.52,535.28c-.45,0-.84-.32-.93-.76l-3.81-19.08c-.1-.51,.23-1.01,.74-1.11,.06-.01,.12-.02,.19-.02h13.19c.5,0,.91,.38,.94,.88l1.29,18.21c.04,.52-.35,.97-.87,1.01l-10.67,.87h-.08m-2.66-19.08l3.42,17.12,8.9-.73-1.16-16.4h-11.16Z"/><path id="Path_3443" class="cls-4" d="M235.67,542.18c-.74-.5-1.19-1.32-1.21-2.21-.07-2.67-.08-8.36,1-10.5,1.43-2.84,7.33,1.12,7.33,1.12,0,0,3.45-4.78,5.47-5.79,1.05-.52,7.17,3.55,13.34,9.11,6.76,6.09,9.82,8.03,11.27,13.28,.58,2.18-.73,4.42-2.91,5-.25,.07-.51,.11-.76,.13-6.21,.44-18.75-.3-33.53-10.13"/><path id="Path_3444" d="M266.46,553.35c-6.88,0-18.26-1.7-31.32-10.38-1-.67-1.6-1.77-1.63-2.97-.1-3.8,.01-8.79,1.1-10.95,.35-.71,1-1.24,1.77-1.43,1.99-.52,4.79,.91,6.16,1.71,1.09-1.44,3.55-4.51,5.29-5.37,2.62-1.3,14.28,9.15,14.39,9.25,1.06,.96,2.04,1.81,2.92,2.6,4.88,4.29,7.33,6.44,8.63,11.13,.4,1.43,.12,2.97-.74,4.18-.87,1.25-2.26,2.03-3.78,2.14-.83,.06-1.76,.1-2.8,.1m-29.12-23.97c-.16,0-.32,.02-.48,.05-.25,.05-.46,.22-.56,.45-.69,1.37-1.03,5.13-.9,10.05,.01,.58,.31,1.12,.79,1.45,14.56,9.69,26.89,10.41,32.93,9.97,.95-.07,1.82-.56,2.37-1.34,.53-.75,.7-1.7,.46-2.58-1.15-4.15-3.32-6.05-8.05-10.22-.89-.79-1.87-1.65-2.94-2.61-6.3-5.68-11.31-8.74-12.4-8.91-1.51,.85-4.11,4.19-5.01,5.44l-.53,.74-.76-.51c-1.24-.83-3.51-1.98-4.92-1.98"/><path id="Path_3445" d="M263.37,548.47c-9.94-.05-19.56-3.52-27.26-9.81-.41-.32-.49-.91-.17-1.33s.91-.49,1.33-.17l.02,.02c15.64,12.48,32.05,8.87,32.22,8.83,.51-.12,1.02,.2,1.13,.71,.12,.51-.2,1.02-.71,1.14h0c-2.16,.44-4.36,.64-6.56,.61"/><path id="Path_3446" class="cls-4" d="M205.28,536.17l-.12-12.52s-2.51-3.8-5.95-.71c0,0-3.18-4.46-9.08,1.1,0,0-8.31,15.49-11.99,24.7-.79,1.95,.16,4.17,2.11,4.96,.42,.17,.87,.26,1.32,.27,3.81,.09,8.74-.12,10.89-1.57,3.36-2.27,9.1-9.43,11.61-12.65,.8-1.02,1.22-2.29,1.21-3.59"/><path id="Path_3447" d="M183.09,554.94c-.5,0-1.01,0-1.54-.02-1.55-.03-2.99-.82-3.84-2.12-.86-1.3-1.03-2.95-.45-4.4,3.66-9.16,11.95-24.64,12.03-24.79l.07-.14,.11-.11c2.35-2.22,4.62-3.23,6.76-3.02,1.13,.12,2.2,.58,3.06,1.34,.9-.67,2.02-.97,3.13-.85,1.43,.28,2.7,1.11,3.52,2.31l.15,.23,.12,12.8c.01,1.51-.48,2.98-1.41,4.17-2.97,3.82-8.46,10.57-11.83,12.85-1.72,1.16-5.05,1.75-9.9,1.75m7.8-30.31c-.83,1.55-8.43,15.87-11.87,24.47-.36,.88-.25,1.87,.27,2.66,.51,.78,1.37,1.26,2.3,1.28,5.15,.12,8.82-.38,10.34-1.41,3.27-2.21,9.06-9.44,11.39-12.45,.66-.86,1.02-1.91,1.01-3l-.11-12.2c-.5-.66-1.23-1.11-2.04-1.28-.88-.04-1.73,.31-2.34,.95l-.79,.71-.61-.86c-.6-.73-1.47-1.2-2.42-1.28-1.53-.14-3.26,.67-5.14,2.42"/><path id="Rectangle_492" d="M199.21,522h0c.52,0,.94,.42,.94,.94h0v6.75c0,.52-.42,.94-.94,.94h0c-.52,0-.94-.42-.94-.94v-6.75c0-.52,.42-.94,.94-.94h0Z"/><path id="Path_3448" d="M251.14,516.29s3.04-45.96-1.95-87.3-23.58-100.37-23.58-100.37c0,0-19.99-.91-34.54,1.05s-20.31-.06-20.31-.06c0,0-10.86,12.44-9.98,35.82s26.24,122.02,25.28,145.17c6.15,2.68,12.98,3.43,19.57,2.16l-4.58-132.93s9.47,27.36,13.91,46.11c2.01,8.84,5.35,17.33,9.91,25.17,0,0-.26,35.52,7.89,65.01,0,0,9.63,3.02,18.38,.16"/><path id="Path_3449" class="cls-3" d="M235.16,467.31c-.31,0-.6-.15-.78-.41l-6.98-10.16c-.3-.43-.2-1.02,.22-1.32,.43-.3,1.02-.2,1.32,.22l.02,.02,6.98,10.16c.3,.43,.19,1.02-.24,1.31-.16,.11-.34,.17-.53,.17"/><path id="Path_3450" class="cls-3" d="M188.21,442.61c-2.95,.09-5.84-.77-8.27-2.44-.42-.31-.51-.9-.2-1.32,.31-.42,.9-.51,1.32-.2,4.4,3.26,10.83,1.67,10.9,1.66,.51-.12,1.02,.2,1.13,.71,.11,.49-.18,.98-.66,1.12-1.38,.32-2.8,.47-4.22,.47"/><path id="Path_3451" class="cls-3" d="M221.41,290.84s11.21,25.22,29.49,30.37,31.01-10.42,30.93-26.49l-6.21-2.06s-6.38,16.47-20.6,12.18-20.83-37.79-20.83-37.79l-12.79,23.78Z"/><path id="Path_3452" d="M257.93,323.18c-2.46-.01-4.91-.37-7.28-1.05-18.5-5.21-29.64-29.85-30.1-30.9-.12-.27-.11-.57,.03-.83l12.79-23.77c.25-.46,.82-.63,1.28-.39,.25,.13,.43,.37,.48,.65,.07,.33,6.65,32.99,20.17,37.07,13.21,3.98,19.2-10.98,19.45-11.62,.18-.47,.7-.71,1.18-.55l6.21,2.06c.39,.13,.65,.49,.65,.89,.05,9.43-4.19,18.54-11.05,23.76-3.95,3.05-8.81,4.7-13.8,4.69m-35.46-32.3c1.55,3.27,12.32,24.82,28.69,29.43,9.08,2.56,15.58-.4,19.42-3.33,6.24-4.75,10.15-12.97,10.3-21.57l-4.75-1.57c-1.59,3.39-8.42,15.83-21.39,11.92-12.42-3.74-19.06-27.99-20.93-35.99l-11.35,21.11Z"/><path id="Path_3453" class="cls-8" d="M153.64,266.51s11.24-14.67,43-11.93c37.92,3.27,40.82,10.77,40.82,10.77l-9.9,20.06,11.62,50.63s-7.94,6.58-26.53,2.88-50.55-8.22-59-5.67l11.78-48.31-11.78-18.42Z"/><path id="Path_3454" d="M223.42,340.99c-3.68-.02-7.35-.41-10.95-1.15-18.83-3.74-50.46-8.13-58.54-5.69-.5,.15-1.03-.13-1.18-.63-.05-.16-.05-.33-.01-.5l11.68-47.92-11.57-18.09c-.21-.34-.2-.77,.05-1.08,.47-.62,11.92-15.05,43.83-12.3,37.43,3.23,41.3,10.55,41.62,11.37,.1,.25,.08,.52-.04,.76l-9.75,19.76,11.54,50.3c.08,.35-.04,.71-.32,.94-.26,.22-5.27,4.23-16.37,4.23m-62.02-9.42c13.09,0,35.95,3.35,51.43,6.42,15.43,3.06,23.37-1.13,25.29-2.36l-11.48-50.01c-.05-.21-.02-.43,.07-.63l9.66-19.58c-1.14-1.33-7.84-7.13-39.81-9.89-27.58-2.38-39.44,8.6-41.74,11.08l11.4,17.83c.14,.22,.18,.48,.12,.73l-11.42,46.83c2.14-.31,4.3-.45,6.47-.42"/><path id="Path_3455" d="M275.61,313.94h-48.86l32.05-58.02h48.86l-32.05,58.02Z"/><path id="Path_3456" d="M275.8,314.26h-49.58l.26-.47,32.14-58.18h49.58l-.26,.47-32.14,58.18Zm-48.51-.63h48.14l31.7-57.39h-48.14l-31.7,57.39Z"/><path id="Path_3457" class="cls-3" d="M276.74,312.11s-.92-4.81,0-8.02,6.61-12.76,8.24-14.75,3.01,19.33-8.24,22.77"/><path id="Path_3458" d="M276.74,313.06c-.45,0-.84-.32-.93-.77-.04-.2-.95-5.07,.02-8.46,.93-3.26,6.68-12.96,8.41-15.09,.31-.42,.85-.58,1.34-.41,1.31,.49,1.49,3.76,1.41,6.42-.22,7.42-2.96,16.11-9.98,18.26-.09,.03-.18,.04-.28,.04m8.2-22.06c-2.17,3.18-6.53,10.71-7.29,13.35-.44,2.13-.49,4.32-.15,6.47,2.63-1.18,4.64-3.62,5.99-7.29,1.42-4.01,1.91-8.3,1.44-12.53"/><path id="Path_3459" class="cls-3" d="M174.49,299.65l37.62-18.13,19.55,3.46c-.97,1.27-2.58,1.87-4.15,1.56-3.23-.54-6.51,.54-8.8,2.88-2.33,2.56-6.25,.93-6.25,.93,0,0-21.28,27.34-40.39,30.87-15.53,2.87-17.24-52.85-17.24-52.85l18.69,16.57,.97,14.72Z"/><path id="Path_3460" d="M170.93,322.27c-1.69-.02-3.33-.64-4.61-1.74-10.98-8.85-12.37-50.38-12.43-52.14-.02-.52,.39-.96,.92-.97,.24,0,.47,.08,.65,.24l18.69,16.57c.19,.16,.3,.4,.32,.64l.88,13.32,36.36-17.52c.18-.09,.38-.11,.58-.08l19.55,3.46c.51,.09,.86,.58,.77,1.1-.02,.13-.07,.25-.15,.36-1.18,1.58-3.16,2.34-5.09,1.96-2.91-.49-5.87,.48-7.94,2.58-2.13,2.34-5.24,1.8-6.62,1.4-3.16,3.95-22.55,27.37-40.55,30.69-.43,.08-.88,.12-1.32,.12m-15.05-51.72c.45,8.83,2.7,41.31,11.63,48.51,1.2,1.07,2.82,1.52,4.4,1.23,18.54-3.42,39.6-30.25,39.81-30.52,.26-.34,.72-.46,1.11-.29,.03,.01,3.34,1.33,5.19-.69,2.51-2.57,6.11-3.76,9.66-3.17,.54,.1,1.11,.07,1.64-.08l-17.06-3.02-37.35,18c-.47,.23-1.03,.03-1.26-.44-.05-.11-.08-.23-.09-.35l-.94-14.33-16.73-14.83Z"/><path id="Path_3461" d="M192.9,241.87c-1.95,1.11-4.2,1.57-6.42,1.3-2.68-.17-13.92-1.98-19.57-11.96-5.54-9.78-3.38-23.27,1.39-25.08,3.42-1.3,7.31,3.76,12.49,1.71,2.29-.91,2.06-2.11,4.5-3.07,4.1-1.62,8.51,.31,11.87,1.84,6.13,2.79,5.54,4.52,10.89,7.17,7.62,3.77,12.77,2.2,13.78,5.14,.81,2.34-1.62,5.77-4.27,7.48-5.49,3.55-10.23-1.49-14.61,1.93-2.71,2.13-3.18,5.75-7.78,11.48-.63,.81-1.39,1.51-2.26,2.06"/><path id="Path_3462" class="cls-3" d="M198.4,249.62c-.06-.88-.11-1.85-.15-2.86,1.66,1.14,3.54,1.68,4.8,1.31,1.56-.46,2.14-1.91,3.09-3.59,.38-.85,.99-1.59,1.75-2.13,.46-.29,.98-.48,1.52-.56,.6-.11,1.03-.64,1-1.25l-.07-.37c-.56-2.94-.53-5.96,.07-8.89l1.19-5.78c-2.88-1.93-4.07-1.97-4.61-1.57-.2,.15-.46,.22-.64,1.11-.88,4.3-4.64,3.02-7.69,1.53s-3.22,4.73-3.22,4.73c0,0-1.44-3.02-4.15-1.26-1.95,1.26,.58,4.57,2.18,6.35l-3.97,12.11c-1.05,3.19-3.82,5.5-7.14,5.96l-5.02,.69s18.47,5.48,33.33,1.57l-8.22-2.19c-2.26-.6-3.89-2.58-4.05-4.91"/><path id="Path_3463" d="M198.51,259.09c-7.25-.08-14.46-1.09-21.45-3.03-.5-.15-.79-.67-.64-1.17,.11-.36,.41-.62,.78-.67l5.02-.69c2.96-.42,5.43-2.48,6.37-5.32l3.8-11.6c-2-2.32-2.92-4.21-2.74-5.62,.09-.72,.5-1.36,1.11-1.74,.87-.63,1.97-.85,3.01-.58,.34,.1,.66,.25,.96,.44,.14-1.32,.8-2.54,1.84-3.38,.77-.45,1.73-.46,2.5,0,1.6,.78,3.87,1.74,5.15,1.11,.69-.43,1.13-1.17,1.19-1.98,.06-.66,.41-1.26,.96-1.65,1.15-.87,2.91-.39,5.74,1.51,.32,.21,.48,.6,.4,.98l-1.19,5.78c-.58,2.81-.61,5.7-.07,8.52l.07,.37s.01,.09,.02,.14c.05,1.08-.72,2.04-1.79,2.22-.42,.07-.82,.21-1.18,.43-.58,.4-1.03,.96-1.32,1.6l-.11,.2c-.13,.23-.26,.46-.38,.68-.8,1.46-1.56,2.84-3.27,3.35-1.37,.29-2.8,.1-4.05-.55,.02,.37,.04,.75,.07,1.13,.13,1.93,1.48,3.56,3.35,4.06l8.22,2.19c.5,.13,.81,.65,.67,1.16-.09,.33-.34,.58-.67,.67-4.05,1.01-8.22,1.5-12.39,1.45m-16.09-3.68c5.6,1.16,15.2,2.59,24.14,1.2l-4.36-1.16c-2.65-.71-4.56-3.02-4.75-5.76-.07-.99-.12-1.97-.15-2.9-.02-.52,.39-.96,.91-.98,.2,0,.4,.05,.57,.17,1.43,.99,3.04,1.46,3.99,1.18,.92-.27,1.39-1.07,2.14-2.44,.12-.23,.25-.46,.39-.7l.1-.19c.44-.92,1.12-1.71,1.97-2.27,.57-.35,1.2-.59,1.86-.69,.11-.02,.2-.12,.21-.23l-.05-.28c-.58-3.06-.56-6.2,.07-9.25l1.06-5.15c-2.36-1.5-2.98-1.25-2.99-1.25-.03,.02-.07,.05-.11,.08s-.1,.11-.17,.47c-.17,1.39-.99,2.61-2.21,3.29-2.01,.99-4.7-.07-6.82-1.1-.45-.22-.62-.11-.69-.07-.74,.45-1.14,2.64-1.17,3.98-.01,.52-.44,.94-.97,.92-.36,0-.68-.22-.83-.54-.27-.56-.75-.99-1.32-1.23-.52-.1-1.05,.03-1.46,.35-.15,.08-.25,.23-.27,.4-.09,.67,.56,2.21,2.63,4.52,.23,.25,.3,.6,.19,.92l-3.97,12.11c-1.17,3.52-4.23,6.08-7.91,6.6h-.06Z"/><path id="Path_3464" d="M198.25,247.7c-.17,0-.34-.05-.49-.14-3.59-2.19-4.02-7.76-4.04-8-.03-.52,.37-.97,.89-1,.51-.03,.95,.35,.99,.86,0,.05,.38,4.84,3.14,6.52,.45,.27,.59,.85,.32,1.3-.17,.28-.48,.45-.81,.45"/><path id="Path_3465" class="cls-3" d="M26.41,512.63l1.58,15.03,10.17,1.19v-17.83l-11.74,1.6Z"/><path id="Path_3466" d="M38.16,529.8s-.07,0-.11,0l-10.17-1.19c-.44-.05-.78-.4-.83-.84l-1.58-15.03c-.05-.51,.31-.97,.81-1.04l11.74-1.6c.52-.07,.99,.29,1.06,.81,0,.04,0,.08,0,.13v17.83c0,.52-.42,.95-.94,.95h0m-9.3-2.99l8.36,.98v-15.68l-9.76,1.33,1.4,13.37Z"/><path id="Path_3467" class="cls-10" d="M39.76,555.03c-6.42,.88-12.92,.88-19.34,0-2.49-.34-4.23-2.63-3.89-5.12,.02-.16,.05-.31,.09-.47,1.8-7.3,4.89-21.14,10.2-27.56l1.32,3.48,1.82-3.28c.25-.45,.7-.75,1.21-.82l3.99-.51c.83-.11,1.61,.45,1.78,1.27l.63,3.02,1.39-3.96,4.64,28.86c.33,2.47-1.39,4.74-3.85,5.09"/><path id="Path_3468" d="M30.15,556.63c-3.3,0-6.59-.22-9.86-.67-3-.41-5.11-3.18-4.69-6.18,.03-.19,.06-.38,.11-.56l.39-1.58c1.84-7.56,4.92-20.21,10-26.36,.33-.4,.93-.46,1.33-.13,.13,.1,.22,.24,.28,.39l.6,1.58,.83-1.5c.4-.71,1.11-1.19,1.91-1.29l3.99-.51c1.22-.15,2.37,.58,2.76,1.75l.28-.8c.15-.41,.55-.66,.98-.63,.43,.04,.78,.36,.85,.79l4.64,28.86c.4,2.98-1.67,5.74-4.65,6.17-3.23,.45-6.48,.67-9.74,.67m-3.6-32.81c-4.23,6.21-6.95,17.39-8.62,24.26l-.39,1.58c-.25,.99-.06,2.03,.51,2.87,.58,.85,1.48,1.41,2.5,1.55,6.33,.87,12.75,.88,19.08,0,1.94-.29,3.29-2.08,3.04-4.03l-4.05-25.15-.16,.45c-.17,.49-.71,.75-1.21,.58-.31-.11-.54-.37-.61-.7l-.63-3.02c-.07-.34-.39-.57-.74-.53l-3.99,.51c-.21,.03-.4,.15-.5,.34l-1.82,3.28c-.25,.46-.83,.62-1.29,.37-.19-.11-.34-.28-.42-.49l-.71-1.87Z"/><path id="Path_3469" d="M27.98,551.79c-2.91,.02-5.8-.29-8.64-.91-.51-.12-.83-.62-.71-1.13,.12-.51,.62-.83,1.13-.71,9.88,2.25,20.21-.64,20.31-.67,.5-.14,1.03,.15,1.17,.65,.14,.5-.15,1.03-.65,1.17-4.12,1.07-8.35,1.61-12.61,1.61"/><path id="Path_3470" d="M25.55,540.61c-.52,0-.95-.41-.96-.93s.41-.95,.93-.96l9.52-.31c.52-.02,.96,.39,.98,.91,.02,.52-.39,.96-.91,.98h0l-9.53,.31h-.03"/><path id="Path_3471" class="cls-3" d="M74.03,504.63l1.52,21.94h12.23l.57-21.94h-14.32Z"/><path id="Path_3472" d="M87.78,527.51h-12.24c-.5,0-.91-.38-.94-.88l-1.52-21.94c-.04-.52,.36-.97,.88-1.01,.02,0,.04,0,.07,0h14.32c.52,0,.95,.42,.95,.94v.03l-.57,21.94c-.01,.51-.43,.92-.94,.92m-11.35-1.89h10.43l.52-20.05h-12.34l1.39,20.05Z"/><path id="Path_3473" class="cls-10" d="M72.35,538.95c-.03,2.08,1.39,3.89,3.41,4.37,7.03,1.64,22.87,5.28,27.39,5.95,5.87,.87,13.07-.92,16.17-4.35s-6.94-11.62-11.7-14.6c-7.08-4.43-13.88-13.18-16.73-13.57s-8.17,7.88-8.17,7.88l-8.7-3.65c-1.06,5.94-1.62,11.95-1.67,17.98"/><path id="Path_3474" d="M106.2,550.44c-1.07,0-2.14-.07-3.19-.23-4.58-.68-20.73-4.4-27.47-5.97-2.45-.58-4.17-2.78-4.14-5.3,.06-6.09,.63-12.16,1.69-18.15,.1-.51,.6-.84,1.11-.74,.06,.01,.12,.03,.18,.05l7.97,3.35c1.71-2.55,5.74-8.04,8.66-7.64,1.65,.23,3.75,2.16,7.32,5.54,2.99,3.03,6.26,5.76,9.78,8.16,3.08,1.93,12.02,8.5,12.69,13.28,.17,.99-.12,2-.79,2.75-2.68,2.97-8.34,4.89-13.82,4.89m-32.91-11.47c-.02,1.63,1.09,3.05,2.68,3.43,6.71,1.56,22.8,5.27,27.32,5.94,5.67,.84,12.55-.97,15.33-4.05,.3-.33,.42-.79,.32-1.22-.45-3.25-7.15-9.03-11.82-11.94-3.62-2.47-6.99-5.28-10.07-8.39-2.53-2.4-5.15-4.89-6.28-5.04-1.36-.19-4.83,3.7-7.25,7.45-.25,.39-.74,.54-1.16,.36l-7.61-3.2c-.89,5.51-1.38,11.08-1.45,16.67"/><path id="Path_3475" d="M106.1,546.4c-12.83,0-29.94-6.91-30.91-7.31-.48-.2-.72-.75-.52-1.23,.2-.48,.75-.72,1.23-.52h0c.31,.13,31.07,12.56,40.02,4.48,.4-.33,1-.27,1.33,.13,.31,.38,.28,.92-.06,1.27-2.56,2.31-6.56,3.18-11.09,3.18"/><path id="Path_3476" d="M92.54,533.13c-.52,0-.95-.42-.95-.94,0-.27,.11-.52,.31-.7l6.22-5.61c.37-.37,.97-.37,1.34,0,.37,.37,.37,.97,0,1.34-.02,.02-.05,.04-.07,.06l-6.22,5.61c-.17,.16-.4,.24-.63,.24"/><path id="Path_3477" d="M22.95,361.6s-3.79,68.58-5.77,92.26,4.64,61.73,4.64,61.73l18.88-.99s1.29-46.27,2.7-59.12c0,0,7.97-17.42,10.34-32.96,2.36-15.54,10.42-40.08,10.42-40.08,0,0,6.54,122.48,7.17,132.11,0,0,14.81,.66,20.11-2.68,0,0,9.41-44.66,8.06-68.96s.13-84.67,.13-84.67l-76.67,3.36Z"/><path id="Path_3478" class="cls-3" d="M39.91,456.42h-5.77c-.52,0-.95-.42-.95-.95s.42-.95,.95-.95h5.77c.52,0,.95,.42,.95,.95s-.42,.95-.95,.95"/><path id="Path_3479" class="cls-3" d="M81.02,492.04h-.02c-.52,0-.94-.44-.93-.96,.21-11.42,12.69-31.8,13.22-32.66,.27-.45,.85-.6,1.29-.33,.45,.27,.6,.85,.33,1.29l-.02,.03c-.13,.21-12.74,20.8-12.94,31.71,0,.51-.43,.93-.94,.93"/><path id="Path_3480" class="cls-3" d="M107.28,254.01c.91-1.04,8.59,6.96,23.31-8.18s12.95-47.58,12.95-47.58c0,0-3.35-13.9-2.48-20.94s1.08-8.07,1.08-8.07c1.79,.38,3.18,1.8,3.51,3.61,.47,3.36,.73,6.75,.77,10.15,3.48-.88,7.06,1.01,8.3,4.38,2.88,6.88-3.04,11.86-3.04,11.86,0,0,28.67,79.77-44.85,86.94l.45-32.16Z"/><path id="Path_3481" d="M106.83,287.12c-.52,0-.95-.42-.95-.95h0l.45-32.18c0-.23,.09-.44,.23-.61,.61-.69,1.46-.39,2.45-.04,2.88,1.02,9.62,3.42,20.9-8.18,13.91-14.3,12.77-44.97,12.68-46.79-.31-1.3-3.33-14.27-2.48-21.19,.86-7,1.08-8.1,1.09-8.15,.1-.49,.57-.82,1.07-.74,2.19,.43,3.89,2.16,4.29,4.35,.46,3.05,.72,6.13,.76,9.22,3.61-.4,7.02,1.72,8.26,5.14,2.59,6.2-1.39,11.03-2.82,12.49,1.65,4.98,12.57,40.59-2.78,64.85-8.31,13.13-22.8,20.79-43.07,22.77h-.09m1.38-32.05l-.42,30.06c19.1-2.08,32.76-9.4,40.6-21.79,15.97-25.23,2.54-63.4,2.4-63.79-.13-.37-.02-.79,.28-1.04,.22-.18,5.34-4.63,2.77-10.77-1.03-2.95-4.16-4.62-7.18-3.83-.5,.14-1.02-.15-1.16-.65-.02-.08-.03-.16-.04-.25-.04-3.34-.29-6.67-.75-9.97-.19-1.08-.86-2.01-1.83-2.53-.15,1.06-.43,3.1-.9,6.92-.84,6.8,2.43,20.47,2.46,20.6,.01,.06,.02,.11,.02,.17,.07,1.34,1.63,33.03-13.21,48.29-12.13,12.47-19.95,9.69-22.89,8.64l-.17-.06"/><path id="Path_3482" class="cls-8" d="M.94,283.59s6.34-40.89,28.72-50.96c22.39-10.06,52.67-8.66,61.02-3.64s28.37,21.98,28.37,21.98l-17.49,32.61s4.4,72.28,.92,91.36c0,0-21.4,2.49-30.47-1.08s-38.91-8.58-53.18-2.03l2.59-91.51-20.49,3.26Z"/><path id="Path_3483" d="M87.4,376.76c-5.73,0-11.8-.45-15.74-2-9.36-3.69-38.87-8.28-52.44-2.05-.47,.22-1.04,0-1.25-.46-.06-.13-.09-.28-.09-.42l2.56-90.37-19.36,3.08c-.51,.08-1-.27-1.08-.78-.02-.1-.02-.2,0-.3,.26-1.69,6.67-41.52,29.27-51.67,22.16-9.96,52.82-9.04,61.89-3.58,8.32,5.01,27.67,21.38,28.49,22.07,.34,.29,.43,.77,.22,1.17l-17.36,32.37c.33,5.55,4.28,72.74,.89,91.32-.07,.41-.41,.72-.82,.77-5.04,.55-10.12,.84-15.19,.86m-49.18-9.04c13.6,0,28.26,2.97,34.14,5.28,7.84,3.09,25.57,1.48,29.31,1.1,3.19-19.76-1.01-89.73-1.05-90.44,0-.17,.03-.35,.11-.5l17.12-31.93c-3.36-2.82-20.26-16.95-27.66-21.4-7.8-4.69-37.85-6.33-60.14,3.69-19.45,8.74-26.64,41.97-27.94,48.94l19.18-3.05c.52-.08,1,.27,1.08,.78,0,.06,.01,.12,.01,.18l-2.55,90.04c5.03-1.95,11.58-2.69,18.4-2.69"/><path id="Path_3484" d="M38.5,353.93c-.52,0-.95-.42-.95-.94,0-.46,.33-.85,.78-.93,33.86-5.98,43.67-29.34,43.77-29.58,.2-.48,.75-.72,1.23-.52,.48,.2,.72,.75,.52,1.23h0c-.1,.24-10.32,24.57-45.19,30.73-.05,0-.11,.01-.17,.01"/><path id="Path_3485" d="M99.95,312.18H56.39l13.64-48.65h43.56l-13.64,48.65Z"/><path id="Path_3486" class="cls-3" d="M4.79,283.75l22.05-9.85s-3.1,37.35,41.5,20.1c-1.04-3.37-1.52-6.88-1.41-10.41,.23-5.61,3.59-.18,4.06,4.38s10.94,2.71,17.23,.91,14.55-.62,0,7.41-17.74,4.45-17.74,4.45c0,0-18.58,26-41.71,20.48-28.44-6.79-23.97-37.46-23.97-37.46"/><path id="Path_3487" d="M35.2,322.92c-2.25,0-4.48-.26-6.67-.79C-.41,315.22,3.8,283.93,3.85,283.61c.05-.32,.25-.59,.55-.73l22.05-9.85c.48-.21,1.04,0,1.25,.48,.07,.15,.09,.31,.08,.46-.01,.13-1,13.5,7.72,20.01,6.72,5.02,17.37,4.83,31.67-.56-.9-3.21-1.3-6.54-1.2-9.88,.03-.8,.14-3.24,1.81-3.29h.04c2.17,0,3.81,4.94,4.09,7.61,.04,.5,.32,.94,.74,1.2,2.51,1.7,9.8,.47,15.29-1.1,3.16-.9,8.22-1.41,9.16,.89,.83,2.02-1.77,4.57-8.45,8.25-11.27,6.22-16.12,5.67-17.96,4.87-2.9,3.72-17.29,20.93-35.5,20.93m-29.53-38.53c-.47,5.15-.01,10.35,1.37,15.34,3.15,10.91,10.53,17.83,21.95,20.56,2.04,.49,4.14,.74,6.24,.74,19.31,0,34.31-20.62,34.48-20.85,.3-.42,.89-.52,1.32-.22,.06,.04,.11,.09,.16,.14,0,0,3.26,2.7,16.58-4.65,7.78-4.29,7.62-5.86,7.61-5.88-.21-.48-3.04-.89-6.9,.21-2.99,.85-13.04,3.44-16.87,.84-.88-.57-1.46-1.52-1.56-2.57-.2-2.03-.89-3.98-2.03-5.67-.09,.41-.14,.82-.14,1.24-.1,3.41,.36,6.81,1.36,10.06,.17,.48-.08,1.01-.55,1.19-15.37,5.94-26.91,6.15-34.31,.61-7.8-5.83-8.54-16.18-8.52-20.12l-20.17,9.02Z"/><path id="Path_3488" d="M63.63,214c-1.9,1.74-5.63,3.87-8.54,2.4-2.17-1.09-3.38-3.92-3.31-7.17-1.15,.18-2.33-.12-3.26-.82-1.45-1.28-1.18-3.63-1.12-5.18,.26-7.14-3.88-8.23-2.87-13.07,.65-2.61,2.18-4.91,4.35-6.5,2.82-2.14,4.73-1.45,9.48-2.69,7.98-2.09,8.24-5.53,13.5-5.55,.3,0,7.46,.08,9.89,5.02,1.98,4.02-.33,8.91-2.72,11.48-3.09,3.33-5.31,1.68-8.41,4.47-5.44,4.9-1.33,12.41-6.99,17.59"/><path id="Path_3489" class="cls-3" d="M79.56,201.27l-.31-.27c-1.58-1.36-3.22-2.94-3.64-4.98-1.78-8.69-9.74-11.84-10.11-3.86-.09,2.01-7.44,1.91-6.57,4.02,2.27,5.51,2.32,4.03-.89,6.05-.37,.01-.73,.1-1.07,.25-1.65,.77-2.23,3-1.3,4.99,.49,1.12,1.45,1.97,2.61,2.34v8.7c0,3.26-1.97,6.2-4.99,7.43l-2.94,1.2s13.7,8.94,27.61-.88l-1.86-.83c-3.27-1.47-5.41-4.67-5.53-8.25v-1.7c.88,.09,1.79,.02,2.66-.22,3.89-1.13,5.18-5.61,4.52-11.18l1.58-.85c.58-.32,.8-1.05,.48-1.63-.07-.13-.16-.24-.27-.33"/><path id="Path_3490" d="M63.91,231.79c-4.95-.04-9.8-1.36-14.07-3.85-.44-.29-.56-.87-.27-1.31,.1-.16,.26-.29,.43-.36l2.94-1.2c2.67-1.09,4.41-3.68,4.4-6.56v-8.05c-2.28-1.14-3.48-3.7-2.9-6.18,.27-1.16,1.05-2.14,2.13-2.65,.37-.17,.76-.28,1.16-.32,.51-.31,.93-.54,1.27-.72,.21-.11,.45-.24,.58-.33-.19-.59-.42-1.16-.68-1.72-.24-.54-.52-1.2-.85-2-.2-.46-.19-.98,.04-1.42,.51-1.06,2.01-1.48,3.74-1.96,.89-.25,2.54-.71,2.75-1.09,.21-4.77,2.97-5.36,3.81-5.43,2.98-.23,6.93,3.22,8.15,9.19,.36,1.78,1.91,3.23,3.33,4.46l.32,.27c.9,.77,.99,2.12,.22,3.02-.17,.2-.38,.36-.61,.49l-1.02,.55c.58,6.21-1.32,10.41-5.26,11.56-.65,.18-1.31,.28-1.99,.29v.71c.12,3.21,2.05,6.08,4.97,7.4l1.86,.83c.48,.21,.69,.77,.47,1.25-.07,.15-.18,.29-.32,.38-4.25,3.08-9.36,4.74-14.6,4.74m-11.38-4.51c3.77,1.87,13.38,5.37,23.47-.85l-.29-.13c-3.59-1.63-5.95-5.14-6.08-9.08l-.02-1.72c0-.52,.42-.95,.94-.95,.03,0,.06,0,.09,0,.78,.08,1.57,.02,2.33-.19,4.41-1.28,4.16-7.54,3.85-10.17-.05-.39,.15-.76,.49-.94l1.58-.85c.12-.07,.17-.22,.1-.34-.01-.03-.03-.05-.06-.07l-.32-.27c-1.66-1.43-3.47-3.15-3.95-5.51-1.06-5.18-4.34-7.83-6.15-7.69-1.22,.1-1.98,1.44-2.08,3.68-.08,1.65-2.13,2.22-4.11,2.78-.87,.19-1.71,.5-2.5,.92,.32,.76,.58,1.38,.81,1.9,1.07,2.47,1.44,3.31-.74,4.47-.36,.19-.81,.43-1.35,.77-.14,.09-.3,.14-.47,.15-.24,0-.48,.06-.7,.17-.56,.28-.97,.8-1.1,1.42-.19,.78-.1,1.6,.26,2.32,.38,.87,1.11,1.54,2.01,1.83,.41,.12,.69,.49,.69,.91v8.7c0,3.65-2.2,6.94-5.58,8.31l-1.12,.45Z"/><path id="Path_3491" d="M70.57,216.43s-.1,0-.14-.01c-3.49-.53-6.59-2.53-8.5-5.5-.26-.45-.11-1.03,.34-1.3,.45-.26,1.03-.11,1.3,.34,1.64,2.46,4.23,4.12,7.15,4.58,.52,.08,.87,.56,.79,1.08-.07,.46-.47,.8-.93,.8"/><path id="Path_3492" class="cls-3" d="M524.47,507.36l3.33,23.37,8.52,.03,.4-22.99-12.25-.42Z"/><path id="Path_3493" d="M536.32,531.71h0l-8.52-.03c-.47,0-.87-.35-.93-.81l-3.33-23.37c-.04-.28,.05-.56,.23-.77,.19-.21,.46-.32,.73-.31l12.25,.42c.52,.02,.92,.45,.91,.96l-.4,22.99c0,.52-.43,.93-.95,.93m-7.7-1.92l6.77,.03,.37-21.13-10.19-.35,3.05,21.45Z"/><path id="Path_3494" class="cls-3" d="M527.51,553.08c4.98,.45,9.99,.42,14.97-.09,2.26-.21,3.92-2.21,3.71-4.47,0-.1-.02-.2-.04-.3-1.03-6.34-3.91-17.53-8.46-22.67l-2.24,3.2-1.33-3.3c-.21-.36-5.86-.59-5.98,.08l-.34,3.23-3.2-3.59,.18,11.79c.02,1.3-.1,2.6-.37,3.88l-.84,4.08c-.54,2.46,.14,5.02,1.83,6.88,.54,.66,1.28,1.11,2.12,1.29"/><path id="Path_3495" d="M533.98,554.34c-2.19,.01-4.39-.09-6.57-.32-1.06-.19-2.01-.75-2.7-1.58-1.9-2.08-2.67-4.96-2.07-7.72l.84-4.08c.25-1.21,.37-2.44,.35-3.67l-.18-11.8c0-.52,.41-.95,.93-.96,.28,0,.54,.11,.72,.32l1.78,2,.12-1.11s0-.04,0-.07c.15-.83,1.08-1,1.38-1.06,.35-.06,5.64-.51,6.34,.66,.03,.04,.05,.09,.07,.13l.68,1.69,1.25-1.77c.17-.24,.43-.38,.72-.4,.29-.01,.57,.1,.76,.32,5.85,6.62,8.41,21.47,8.68,23.14,.23,1.4-.13,2.82-1,3.94-.85,1.11-2.13,1.8-3.52,1.92-3.33,.29-6.19,.4-8.59,.4m-8.4-26.65l.14,9.26c.02,1.37-.11,2.74-.39,4.08l-.84,4.08c-.48,2.15,.12,4.41,1.6,6.04,.39,.49,.92,.84,1.53,.99h0c4.92,.44,9.87,.41,14.79-.09,.87-.07,1.66-.51,2.19-1.2,.54-.7,.77-1.6,.63-2.48-.9-5.53-3.44-15.85-7.47-21.25l-1.53,2.17c-.3,.43-.89,.53-1.32,.23-.15-.1-.27-.25-.33-.42l-1.17-2.91c-1.45-.18-2.92-.2-4.38-.06l-.29,2.72c-.06,.52-.52,.89-1.04,.84-.23-.02-.45-.14-.6-.31l-1.52-1.7Z"/><path id="Path_3496" d="M533.6,550.17c-2.08,.03-4.15-.13-6.2-.49-.51-.1-.84-.6-.74-1.11s.6-.84,1.11-.74c4.67,.69,9.42,.6,14.06-.28,.51-.09,1,.25,1.1,.77,.09,.51-.25,1-.77,1.1-2.83,.5-5.69,.75-8.57,.76"/><path id="Path_3497" d="M538.61,541.21h-7.73c-.52,0-.95-.42-.95-.95s.42-.95,.95-.95h7.73c.52,0,.95,.42,.95,.95s-.42,.95-.95,.95h0"/><path id="Path_3498" class="cls-3" d="M463.33,509.45l-3,27.24-11.46,2.4,.7-31.94,13.76,2.3Z"/><path id="Path_3499" d="M448.88,540.04c-.52,0-.95-.43-.95-.95v-.02l.7-31.94c.01-.52,.44-.94,.97-.92,.04,0,.09,0,.13,.01l13.76,2.3c.49,.08,.84,.54,.78,1.04l-3,27.24c-.04,.41-.35,.74-.74,.82l-11.46,2.4c-.06,.01-.13,.02-.19,.02m1.62-31.78l-.64,29.67,9.62-2.02,2.82-25.67-11.8-1.98Z"/><path id="Path_3500" class="cls-3" d="M465.18,549.68c.25-4.77,.26-13.57-2.65-17.8l-9.17,3.26v-1.96c.02-.6-.42-1.12-1.02-1.18l-5.11-.29c-1.92-.11-3.83,.29-5.55,1.14-5.14,2.53-20.78,9.01-22.94,16.3-.5,1.85,.59,3.75,2.44,4.24,.28,.07,.56,.11,.84,.12,5.15,.15,17.52,.31,39.72-.45,1.85-.06,3.35-1.53,3.44-3.38"/><path id="Path_3501" d="M432.27,554.58c-4.71,0-8.08-.06-10.28-.12-1.4-.05-2.69-.73-3.51-1.86-.79-1.07-1.03-2.44-.65-3.72,2.03-6.82,14.49-12.67,21.19-15.81,.87-.41,1.63-.77,2.24-1.07,1.87-.92,3.94-1.35,6.02-1.24l5.11,.29c1.1,.09,1.94,1.02,1.91,2.13v.62l7.91-2.81c.4-.15,.86,0,1.1,.35,3.06,4.46,3.08,13.43,2.81,18.39-.11,2.34-2.01,4.2-4.35,4.27-13.03,.45-22.67,.58-29.5,.58m14.34-21.94c-1.57,0-3.11,.37-4.52,1.06-.62,.3-1.39,.67-2.28,1.08-5.97,2.8-18.39,8.63-20.18,14.64-.21,.71-.07,1.48,.37,2.07,.48,.65,1.23,1.05,2.04,1.08,5.39,.15,17.7,.3,39.66-.45,1.36-.04,2.46-1.12,2.53-2.48h0c.4-7.5-.37-13.47-2.11-16.61l-8.45,3.01c-.49,.18-1.03-.08-1.21-.57-.04-.1-.05-.21-.05-.32v-1.96c0-.15-.09-.24-.13-.24l-5.11-.29c-.19-.01-.37-.02-.56-.02"/><path id="Path_3502" d="M435.82,550.05c-6.83,0-11.14-.32-11.22-.32-.52-.03-.92-.47-.9-.99,.03-.52,.47-.92,.99-.9,.02,0,.03,0,.05,0,11.93,.66,23.9,.3,35.78-1.07,.52-.07,.99,.29,1.06,.81,.07,.52-.29,.99-.81,1.06h-.04c-8.27,.94-16.59,1.41-24.91,1.4"/><path id="Path_3503" d="M438.66,542.26c-.52,0-.95-.42-.95-.94,0-.3,.15-.59,.39-.77l8.83-6.35c.41-.33,1-.26,1.33,.15,.33,.41,.26,1-.15,1.33-.02,.02-.05,.04-.08,.06l-8.83,6.35c-.16,.12-.35,.18-.55,.18"/><path id="Path_3504" class="cls-7" d="M459.76,332.69s-16.43,112.68-12.93,187.89l5.12,.51c2.76,.27,5.53,.34,8.29,.2l4.86-.24s19.59-114.24,29.37-133.22c0,0,26.6,101.6,27.62,129.12,0,0,11.82,1.19,16.53-.51,2.53-26.56,3.26-54.06,3.39-71.32,.36-49.4-4.36-71.84-6.95-82.49-2.38-9.78-4.93-17.72-6.79-23.09l-6.22-17.74-62.32,10.89Z"/><path id="Path_3505" d="M457.47,522.31c-1.88,0-3.75-.09-5.61-.28l-5.12-.51c-.47-.05-.83-.43-.85-.9-3.47-74.44,12.77-186.94,12.93-188.07,.06-.41,.37-.73,.77-.8l62.32-10.88c.46-.08,.9,.18,1.05,.62l6.22,17.74c2.62,7.57,4.91,15.36,6.82,23.18,3.16,12.99,7.32,35.71,6.97,82.72-.11,14.48-.69,43.01-3.39,71.4-.03,.36-.28,.68-.62,.8-4.86,1.75-16.46,.61-16.95,.56-.47-.05-.83-.43-.85-.9-.92-24.66-22.78-110.31-26.92-126.33-9.91,24.32-28.01,129.46-28.2,130.56-.07,.44-.44,.76-.88,.78l-4.86,.24c-.94,.05-1.88,.07-2.82,.07m-9.74-2.59l4.31,.43c2.71,.27,5.43,.34,8.15,.2l4.1-.21c1.85-10.74,19.9-114.45,29.33-132.74,.24-.46,.81-.65,1.27-.41,.24,.12,.41,.34,.48,.6,.26,1.01,26.12,100.03,27.62,128.49,2.59,.22,10.73,.77,14.75-.35,2.65-28.12,3.22-56.27,3.33-70.61,.34-46.8-3.78-69.36-6.92-82.26-1.89-7.76-4.16-15.5-6.76-23.01l-5.95-16.98-60.85,10.63c-1.34,9.47-16.02,114.98-12.86,186.22"/><path id="Path_3506" d="M495.4,392.08c-.43,0-.8-.29-.91-.7l-2.73-9.95c-.64-2.34-2.53-4.12-4.91-4.6l-2.56-.53c-.51-.11-.84-.61-.73-1.12s.61-.84,1.12-.73l2.56,.53c3.07,.63,5.52,2.93,6.34,5.95l2.73,9.95c.14,.5-.15,1.02-.66,1.17-.08,.02-.17,.03-.25,.03"/><path id="Path_3507" d="M531.5,373.56c-.05,0-.11,0-.16-.01-15.33-2.55-18.46-14.77-18.49-14.89-.11-.51,.21-1.01,.72-1.13,.5-.11,.99,.19,1.12,.68,.11,.45,2.91,11.13,16.96,13.47,.52,.08,.87,.57,.78,1.08-.07,.46-.47,.8-.94,.79"/><path id="Path_3508" d="M459.02,366.15c-.52,0-.95-.42-.94-.95,0-.38,.22-.72,.57-.87,7.82-3.4,7.68-10.5,7.67-10.8-.02-.52,.39-.96,.91-.98h.03c.51,0,.92,.4,.94,.91-.15,5.58-3.62,10.54-8.81,12.6-.12,.05-.25,.08-.38,.08"/><path id="Path_3509" d="M461.08,238.91c10.86-1.23,34.06-3.42,50.01-1.96,5.63,.78,10.95,3.04,15.43,6.54,10.79,9.31,31.14,29.81,34.54,54.41,.49,3.59-1.86,6.96-5.4,7.74l-18.8,4.17s7.5,29.54,6.89,34.64-16.14,13.78-35.56,6.66c-15.15-5.55-36.59-9.97-50.2-5.18-.13,.05-1.43,10.5-1.57,10.52-4.37,.64-8.78-1.07-8.67-7.21l2.07-31.9-24.92-3.29-2.23-.74c-6.49-2.16-10-9.17-7.84-15.66,.07-.21,.14-.41,.22-.62,5.85-14.9,14.69-39.02,31.05-52.35,3.5-2.85,10.49-5.28,14.97-5.79"/><path id="Path_3510" class="cls-3" d="M472.41,337.08h-38.94c-1.69,0-3.16-1.15-3.57-2.79l-13.47-54.32c-.49-1.97,.71-3.97,2.69-4.46,.29-.07,.59-.11,.89-.11h38.94c1.69,0,3.16,1.15,3.57,2.79l13.47,54.32c.49,1.97-.71,3.97-2.69,4.46-.29,.07-.59,.11-.89,.11"/><path id="Path_3511" d="M472.41,338.02h-38.93c-2.13,0-3.98-1.45-4.49-3.51l-13.48-54.32c-.61-2.48,.9-4.99,3.38-5.6,.36-.09,.74-.14,1.11-.14h38.94c2.13,0,3.98,1.45,4.49,3.51l13.47,54.32c.62,2.48-.9,4.99-3.37,5.6-.36,.09-.74,.14-1.12,.14m-52.41-61.68c-1.51,0-2.74,1.22-2.74,2.73,0,.22,.03,.44,.08,.66l13.47,54.32c.3,1.22,1.4,2.08,2.66,2.08h38.94c1.51,0,2.73-1.23,2.73-2.74,0-.22-.03-.44-.08-.66l-13.47-54.32c-.3-1.22-1.4-2.08-2.66-2.08h-38.94Z"/><path id="Path_3512" class="cls-3" d="M422.76,303.17l1.31,5.48,4.71-1.57c2.59-.86,5.08-2.02,7.42-3.43l2.7-1.64c1.75-1.06,4.03-.5,5.09,1.26,.13,.22,.24,.46,.33,.7,1.67,4.73,1.34,12.64-15.62,17.62-9.36,2.74-12.04-9.24-10.83-15.9,.21-1.37,.93-2.61,2-3.48,.78-.62,1.92-.5,2.54,.28,.16,.2,.28,.43,.34,.68"/><path id="Path_3513" d="M426.1,322.93c-1.91,.02-3.77-.69-5.18-1.98-3.79-3.41-4.88-10.5-3.98-15.44,.25-1.59,1.09-3.03,2.34-4.05,1.19-.95,2.92-.76,3.87,.43,.24,.31,.42,.66,.52,1.04h0l1.07,4.49,3.73-1.24c2.53-.84,4.95-1.96,7.23-3.35l2.7-1.64c2.2-1.33,5.06-.62,6.39,1.58,.17,.28,.3,.57,.41,.87,1.08,2.83,.92,5.98-.44,8.69-2.21,4.3-7.52,7.72-15.81,10.15-.93,.28-1.89,.43-2.86,.44m-5.1-20.18c-.19,0-.38,.07-.53,.19-.9,.73-1.49,1.77-1.66,2.91-.82,4.5,.22,10.85,3.39,13.69,1.71,1.5,4.11,1.94,6.25,1.14,7.77-2.28,12.7-5.37,14.66-9.2,1.13-2.24,1.26-4.86,.34-7.2-.28-.79-.9-1.42-1.69-1.7-.78-.28-1.64-.19-2.35,.24l-2.7,1.64c-2.4,1.45-4.95,2.63-7.61,3.52l-4.71,1.57c-.5,.17-1.03-.1-1.2-.6,0-.03-.02-.05-.02-.08l-1.31-5.47c-.07-.28-.29-.51-.56-.6-.09-.03-.19-.05-.28-.05"/><path id="Path_3514" class="cls-3" d="M512.81,271.72c1.95,1.99,4.16,3.71,6.59,5.08,8.17,4.65,27.7,15.92,32.56,20.08,6.19,5.29,9.15,7.26,4.18,20.86-8.11,22.17-45.92-34.75-45.92-34.75,0,0-11.1,2.01-13.6-7.72,0,0-5.79,1.09-8.2,.04-1.13-.54-1.6-1.89-1.07-3.02,.33-.7,1-1.18,1.77-1.27l15.97-2.98c2.2-.39,4.45,.33,6.01,1.93l1.71,1.74Z"/><path id="Path_3515" d="M550.13,323.81c-13.11,0-37.14-35-40.38-39.81-2.42,.25-11.15,.55-13.81-7.66-1.79,.28-5.8,.75-7.9-.16-1.29-.59-2.04-1.97-1.82-3.38,.19-1.43,1.33-2.55,2.77-2.71l15.93-2.97c2.51-.45,5.08,.37,6.86,2.2l1.7,1.74c1.89,1.93,4.03,3.59,6.38,4.92,8.2,4.67,27.79,15.98,32.71,20.18l.55,.46c5.96,5.08,8.96,7.63,3.9,21.44-1.26,3.45-3.31,5.37-6.08,5.7-.27,.03-.54,.05-.81,.05m-39.92-41.77c.32,0,.61,.16,.79,.42,7.56,11.38,29.42,40.64,39.72,39.42,2.03-.24,3.51-1.7,4.52-4.47,4.6-12.58,2.27-14.56-3.35-19.35l-.55-.47c-4.8-4.1-24.27-15.33-32.41-19.97-2.5-1.42-4.79-3.19-6.8-5.25l-1.7-1.74c-1.34-1.38-3.28-2-5.17-1.66l-15.97,2.98c-.62,.02-1.13,.49-1.2,1.1-.1,.57,.19,1.13,.7,1.39,1.76,.76,6.12,.18,7.65-.1,.49-.09,.97,.21,1.09,.69,2.24,8.75,12.1,7.1,12.52,7.03,.05,0,.11-.01,.17-.01"/><path id="Path_3516" class="cls-3" d="M475.8,218.02l-1.2,16.63c-.26,2.17-1.82,3.95-3.93,4.5l-5.84,1.52,3.79,2.89c8.4,6.4,20.04,6.41,28.46,.02l6-4.55-7.26-1.62c-2.09-.47-3.69-2.14-4.07-4.24l-3.21-22.01-12.74,6.85Z"/><path id="Path_3517" d="M482.86,249.29c-5.35,0-10.56-1.74-14.82-4.98l-3.79-2.89c-.42-.32-.49-.91-.18-1.32,.13-.17,.31-.29,.51-.34l5.84-1.52c1.74-.45,3.02-1.92,3.23-3.7l1.19-16.58c.02-.32,.21-.61,.49-.76l12.75-6.86c.46-.25,1.03-.07,1.28,.39,.05,.1,.09,.2,.1,.31l3.2,22.01c.32,1.72,1.63,3.08,3.34,3.45l7.26,1.62c.51,.11,.83,.62,.72,1.13-.05,.22-.17,.41-.35,.55l-6,4.55c-4.25,3.22-9.45,4.96-14.78,4.95m-15.92-8.2l2.24,1.71c8.07,6.12,19.23,6.13,27.32,.02l4.38-3.32-5.27-1.18c-2.46-.55-4.35-2.52-4.79-4.99l-3.02-20.7-11.1,5.97-1.16,16.11c-.29,2.57-2.13,4.7-4.64,5.34l-3.97,1.03Z"/><path id="Path_3518" d="M456.9,194.87c4-2.12,.78,4.47,13.93-6.91,5.24-4.53,5.42,3.93,6.79,2.76,5.03-4.33,4.85-4.19,8.03-4.74,2.1-.36,4.91,2.53,5.75,5.28,1.1,3.62-1.3,5.79-.48,14.13,.58,5.86,2.42,8.73,.73,10.4-1.71,1.68-4.48-.38-6.49,1.32-2.59,2.2,.37,7.08-1.55,10.54-1.21,2.18-5.17,4.75-13.51,4.55-1.36-.04-2.49-1.03-2.72-2.37-.28-1.71-.63-3.88-.78-5.98-.75-10,1.41-13.32-.71-15.03-3.25-2.62-8.77,2.26-11.11-.04-2.43-2.39-3.34-11.02,2.13-13.92"/><path id="Path_3519" class="cls-3" d="M476.79,200.48l-.17,2.73c-.08,1.29-.07,2.58,.03,3.86,.19,2.41,.48,6.56,.46,8.9-.02,3.43-10.63,4.1-10.63,4.1l-1.35-1.5-1.24,.05c-.24,.01-.48-.03-.7-.14-.52-.27-.8-.83-.71-1.41,.5-3.03,1.38-9.72,.41-14.92,4.04-2.9,9.28-3.53,13.89-1.67"/><path id="Path_3520" d="M466.49,221.02c-.27,0-.52-.11-.7-.31l-1.05-1.17-.8,.03c-.41,.02-.81-.06-1.18-.25-.88-.46-1.36-1.42-1.2-2.4,.44-2.68,1.37-9.46,.41-14.6-.06-.34,.06-.69,.33-.91,4.29-3.13,9.9-3.82,14.83-1.82,.38,.15,.63,.53,.6,.94l-.17,2.73c-.08,1.24-.06,2.49,.03,3.73,.18,2.33,.48,6.58,.47,8.98-.03,4.11-9.6,4.92-11.51,5.04h-.06m-1.35-3.39c.27,0,.52,.11,.7,.31l1.04,1.15c4.03-.32,9.28-1.53,9.29-3.13,.02-2.33-.28-6.52-.46-8.82-.1-1.33-.11-2.66-.03-3.99l.12-2.03c-3.97-1.37-8.35-.83-11.87,1.45,.81,5.13,.04,11.33-.51,14.66-.03,.17,.06,.34,.21,.42,.07,.03,.15,.04,.22,.04l1.25-.05h.04"/><path id="Path_3521" class="cls-3" d="M478.65,208.89s.39-6.57,3.34-5.74,2.33,8.05-3.34,5.74"/><path id="Path_3522" class="cls-3" d="M131.97,549.96l32.35-112.15,32.35,112.15h7.75l-35.54-126.54h-9.12l-35.54,126.54h7.75Z"/><path id="Path_3523" d="M205.67,550.9h-9.71l-31.63-109.68-31.64,109.68h-9.71l36.07-128.45,10.55,.02,36.07,128.43Zm-8.29-1.89h5.8l-35.01-124.65h-7.68l-35.01,124.65h5.8l33.06-114.61,33.05,114.61Z"/><path id="Path_3524" class="cls-3" d="M352.03,549.96l32.35-112.15,32.35,112.15h7.75l-35.54-126.54h-9.12l-35.54,126.54h7.75Z"/><path id="Path_3525" d="M425.72,550.9h-9.71l-31.64-109.68-31.63,109.68h-9.71l36.07-128.45,10.55,.02,36.07,128.43Zm-8.29-1.89h5.79l-35.01-124.65h-7.68l-35.01,124.65h5.8l33.06-114.61,33.05,114.61Z"/><rect id="Rectangle_493" class="cls-3" x="125.06" y="413.12" width="299.48" height="12.19"/><path id="Path_3526" d="M425.49,426.25H124.12v-14.08H425.49v14.08Zm-299.48-1.89H423.61v-10.3H126.01v10.3Z"/><path id="Path_3527" class="cls-10" d="M352.28,423.39c-.52,0-.95-.42-.95-.95h0v-6.78c0-.52,.42-.95,.95-.95s.95,.42,.95,.95v6.78c0,.52-.42,.95-.95,.95h0"/><path id="Path_3528" class="cls-6" d="M377.69,411.64h-98.45c-2.31,0-4.18-1.87-4.18-4.18h0v-2.57h106.81v2.57c0,2.31-1.87,4.18-4.18,4.18h0"/><path id="Path_3529" d="M377.69,412.58h-98.45c-2.83,0-5.12-2.3-5.12-5.12v-3.51h108.7v3.51c0,2.83-2.3,5.12-5.12,5.12m-101.69-6.75v1.62c0,1.79,1.45,3.23,3.23,3.23h98.45c1.79,0,3.23-1.45,3.23-3.23v-1.62h-104.92Z"/><path id="Path_3530" class="cls-7" d="M381.87,404.86h-69.32l22.03-64.84c1.35-2.04,3.63-3.27,6.08-3.26h58.6c2.01-.04,3.67,1.55,3.71,3.56,0,.44-.06,.88-.21,1.29-.34,.91-.72,1.8-1.02,2.72l-19.87,60.51Z"/><path id="Path_3531" d="M382.56,405.81h-71.32l22.55-66.29c1.52-2.32,4.11-3.71,6.88-3.69h58.6c1.54-.02,3,.73,3.87,2.01,.84,1.21,1.03,2.75,.52,4.13-.1,.26-.2,.52-.3,.77-.26,.65-.5,1.27-.71,1.91l-20.08,61.16Zm-68.68-1.89h67.32l19.66-59.86c.22-.69,.49-1.36,.74-2.01,.1-.25,.2-.5,.29-.76,.3-.8,.18-1.69-.31-2.39-.52-.76-1.39-1.2-2.31-1.19h-58.6c-2.09-.02-4.05,1.01-5.23,2.73l-21.56,63.47Z"/><path id="Path_3532" class="cls-8" d="M352.86,371.3c-1.02,3.22,.54,6.51,3.47,7.36s6.13-1.08,7.15-4.3-.54-6.51-3.47-7.36-6.13,1.08-7.15,4.3"/></g></g></g></g></g></g></svg>