<?xml version="1.0" encoding="UTF-8"?><svg id="Layer_2" xmlns="http://www.w3.org/2000/svg" xmlns:xlink="http://www.w3.org/1999/xlink" viewBox="0 0 580 299"><defs><style>.cls-1,.cls-2{fill:none;}.cls-3{clip-path:url(#clippath);}.cls-4{fill:#e9edf0;}.cls-5{fill:#fff;}.cls-6{fill:#158bcb;}.cls-7{fill:#701e5e;}.cls-8{fill:#546976;}.cls-9{fill:#9ad8f3;}.cls-10{fill:#2e2e2e;}.cls-11{fill:#526eb4;}.cls-12{clip-path:url(#clippath-1);}.cls-13{clip-path:url(#clippath-2);}.cls-14{opacity:.6;}.cls-2{stroke:#f5f5f5;}</style><clipPath id="clippath"><rect class="cls-1" x="34" y="15" width="512.14" height="270"/></clipPath><clipPath id="clippath-1"><rect class="cls-1" x="34" y="15" width="512.14" height="270"/></clipPath><clipPath id="clippath-2"><rect class="cls-1" x="40.83" y="32" width="505.31" height="253"/></clipPath></defs><g id="Layer_1-2"><g id="Group_1005" transform="translate(-948 -1351)"><g id="Rectangle_21" transform="translate(948 1351)"><rect class="cls-4" width="580" height="299"/><rect class="cls-2" x=".5" y=".5" width="579" height="298"/></g><g id="Group_972" transform="translate(982 1366)"><g class="cls-3"><g id="Group_971"><g id="Group_970"><g class="cls-12"><g id="Group_969"><g id="Group_968" class="cls-14" transform="translate(6.83 17.003)"><g id="Group_967"><g class="cls-13"><g id="Group_966"><path id="Path_5579" class="cls-9" d="M436.53,154.44c-39.8-30.67-44.1-110.83-101.3-120.85-63.92-11.19-74.97,40.21-98.83,52.51-43.42,22.38-78.6-31.36-131.52-12.22-71.16,25.74-68.75,160.02-59.1,210.37l487.23,.76s23.89-38.12,7.24-69.02c-18.69-34.69-68.45-34.37-103.72-61.54"/></g></g></g></g><path id="Path_5580" class="cls-8" d="M73.76,52.4h-22.93c-.41,0-.74,.33-.74,.74s.33,.74,.74,.74h22.93c.41,0,.74-.33,.74-.74s-.33-.74-.74-.74h0"/><path id="Path_5581" class="cls-8" d="M129.05,44.18H50.83c-.41,0-.74,.33-.74,.74s.33,.74,.74,.74h78.22c.41,0,.74-.33,.74-.74s-.33-.74-.74-.74"/><path id="Path_5582" class="cls-8" d="M102.85,60.62H50.83c-.41,0-.74,.33-.74,.74s.33,.74,.74,.74h52.02c.41,0,.74-.33,.74-.74s-.33-.74-.74-.74"/><path id="Path_5583" class="cls-8" d="M68.41,68.85h-17.58c-.41,0-.74,.33-.74,.74s.33,.74,.74,.74h17.58c.41,0,.74-.33,.74-.74s-.33-.74-.74-.74h0Z"/><path id="Path_5584" class="cls-8" d="M46.9,24.04c-1.17-1.17-3.06-1.17-4.23,0-1.17,1.17-1.17,3.06,0,4.23,1.17,1.17,3.06,1.17,4.23,0,1.17-1.17,1.17-3.06,0-4.23h0m-1.05,3.18c-.59,.59-1.55,.59-2.13,0-.59-.59-.59-1.55,0-2.13,.59-.59,1.54-.59,2.13,0,.59,.59,.59,1.54,0,2.13h0"/><path id="Path_5585" class="cls-8" d="M58.06,24.04c-1.17-1.17-3.06-1.17-4.23,0-1.17,1.17-1.17,3.06,0,4.23,1.17,1.17,3.06,1.17,4.23,0,1.17-1.17,1.17-3.06,0-4.23h0m-1.05,3.18c-.59,.59-1.55,.59-2.13,0-.59-.59-.59-1.55,0-2.13,.59-.59,1.54-.59,2.13,0,.59,.59,.59,1.54,0,2.13h0"/><path id="Path_5586" class="cls-8" d="M69.23,24.04c-1.17-1.17-3.06-1.17-4.23,0-1.17,1.17-1.17,3.06,0,4.23,1.17,1.17,3.06,1.17,4.23,0,1.17-1.17,1.17-3.06,0-4.23h0m-1.05,3.18c-.59,.59-1.54,.59-2.13,0-.59-.59-.59-1.54,0-2.13,.59-.59,1.54-.59,2.13,0,.28,.28,.44,.67,.44,1.07,0,.4-.16,.78-.44,1.07"/><path id="Path_5587" class="cls-8" d="M143.06,32.91H34.75c-.41,0-.74,.33-.74,.74v42.45c0,4.62,3.75,8.36,8.37,8.37h93.06c4.62,0,8.36-3.75,8.37-8.37V33.65c0-.41-.33-.74-.74-.74h0m-.74,43.19c0,3.8-3.09,6.88-6.89,6.89H42.37c-3.8,0-6.88-3.09-6.89-6.89V34.39h106.83v41.71Z"/><path id="Path_5588" class="cls-8" d="M135.43,17.92H42.37c-4.62,0-8.37,3.75-8.37,8.37v7.36c0,.41,.33,.74,.74,.74h108.31c.41,0,.74-.33,.74-.74h0v-7.36c0-4.62-3.75-8.36-8.37-8.37m6.89,14.99H35.49v-6.62c0-3.8,3.09-6.88,6.89-6.89h93.06c3.8,0,6.88,3.09,6.89,6.89v6.62h0Z"/><path id="Path_5589" class="cls-8" d="M514.27,94.4c-8.77,0-15.88,7.11-15.88,15.88,0,8.77,7.11,15.88,15.88,15.88,8.77,0,15.88-7.11,15.88-15.88,0-4.21-1.67-8.25-4.65-11.23-2.97-2.99-7.02-4.66-11.23-4.65m10.55,26.43c-5.82,5.82-15.27,5.82-21.09,0-5.82-5.82-5.82-15.27,0-21.09s15.27-5.82,21.09,0c2.8,2.8,4.37,6.59,4.37,10.54,.01,3.96-1.56,7.75-4.37,10.55"/><path id="Path_5590" class="cls-8" d="M539.63,106.72c-.21-.26-.49-.45-.81-.53l-4.77-1.19-.07-.25c-.42-1.5-1.01-2.94-1.75-4.3l-.12-.23,2.56-4.27c.35-.59,.26-1.34-.22-1.82l-3.88-3.88c-.24-.23-.54-.38-.87-.43-.06,0-.12-.01-.18-.01-.27,0-.54,.07-.77,.21l-4.22,2.53-.23-.13c-1.35-.76-2.79-1.36-4.28-1.8l-.25-.07-1.21-4.83c-.17-.66-.76-1.13-1.45-1.13h-5.48c-.68,0-1.28,.47-1.45,1.13l-1.19,4.77-.25,.07c-1.5,.42-2.94,1.01-4.3,1.75l-.22,.12-4.27-2.56c-.23-.14-.5-.21-.77-.21-.06,0-.12,0-.18,.01-.33,.04-.64,.19-.87,.43l-3.88,3.88c-.48,.48-.58,1.23-.22,1.82l2.53,4.22-.13,.23c-.76,1.35-1.36,2.79-1.8,4.28l-.07,.25-4.83,1.21c-.66,.17-1.13,.76-1.13,1.45v5.48c0,.68,.46,1.28,1.13,1.45l4.77,1.19,.07,.25c.42,1.5,1.01,2.94,1.75,4.3l.12,.23-2.56,4.27c-.35,.59-.26,1.34,.22,1.82l3.88,3.88c.24,.23,.54,.38,.87,.43,.06,0,.12,.01,.18,0,.27,0,.54-.07,.77-.21l4.22-2.53,.23,.13c1.35,.76,2.79,1.37,4.28,1.8l.25,.07,1.21,4.83c.17,.66,.76,1.13,1.45,1.13h5.48c.68,0,1.28-.47,1.45-1.13l1.19-4.77,.25-.07c1.5-.42,2.94-1.01,4.3-1.75l.23-.12,4.27,2.56c.23,.14,.5,.21,.77,.21,.06,0,.12,0,.18-.01,.33-.04,.64-.19,.87-.42l3.88-3.88c.48-.48,.58-1.24,.22-1.82l-2.53-4.22,.13-.23c.76-1.35,1.37-2.79,1.8-4.28l.07-.25,4.83-1.21c.66-.17,1.13-.76,1.13-1.45v-5.48c0-.33-.11-.65-.32-.92m-.71,6.82l-5.44,1.36c-.17,.04-.31,.17-.35,.35-.46,1.77-1.18,3.46-2.11,5.03-.09,.15-.09,.35,0,.5l2.84,4.86-4.47,4.38-4.81-2.88c-.15-.09-.34-.09-.49,0-1.58,.92-3.28,1.62-5.05,2.06-.17,.04-.31,.18-.35,.36l-1.42,5.45-6.25-.06-1.36-5.44c-.04-.17-.18-.31-.35-.35-1.77-.46-3.46-1.18-5.03-2.11-.07-.05-.16-.07-.25-.07-.09,0-.18,.02-.25,.07l-4.86,2.85-4.38-4.47,2.88-4.81c.09-.15,.09-.34,0-.49-.92-1.58-1.62-3.28-2.06-5.05-.04-.17-.18-.31-.36-.35l-5.45-1.43,.06-6.25,5.44-1.36c.17-.04,.31-.18,.35-.35,.46-1.77,1.18-3.46,2.11-5.03,.09-.15,.09-.35,0-.5l-2.84-4.86,4.47-4.38,4.81,2.88c.07,.05,.16,.07,.25,.07,.09,0,.17-.02,.24-.07,1.58-.92,3.28-1.62,5.05-2.06,.17-.05,.31-.18,.35-.36l1.42-5.45,6.25,.06,1.36,5.44c.04,.17,.18,.31,.35,.35,1.77,.46,3.46,1.17,5.03,2.11,.07,.05,.16,.07,.25,.07,.09,0,.18-.02,.25-.07l4.86-2.85,4.38,4.47-2.88,4.81c-.09,.15-.09,.34,0,.49,.92,1.58,1.62,3.28,2.06,5.06,.04,.17,.18,.31,.36,.35l5.45,1.42-.07,6.25Z"/><path id="Path_5591" class="cls-8" d="M520.34,113.8c-2.25-2.85-6.19-3.75-9.46-2.16l-.13,.06c-2.59,1.32-4.22,3.98-4.21,6.88v1.39c0,.26,.21,.47,.47,.47h14.53c.26,0,.47-.21,.47-.47v-1.39c0-.13,0-.25-.01-.37-.07-1.61-.65-3.16-1.66-4.42m-12.86,5.72v-.92c0-2.5,1.38-4.8,3.58-5.99l.13-.06c.96-.49,2.02-.75,3.09-.74,3.63,0,6.62,2.85,6.79,6.47,0,.1,0,.21,0,.33v.92h-13.59Z"/><path id="Path_5592" class="cls-8" d="M514.26,108.58c-1.45-.04-2.76-.86-3.42-2.15-.44-.8-.68-1.7-.67-2.61,0-2.62,1.84-4.75,4.09-4.75,.98,.01,1.92,.41,2.62,1.1,.96,.97,1.49,2.29,1.47,3.65,0,.27-.02,.55-.06,.82-.18,2.13-1.9,3.8-4.03,3.93m0-8.87c-1.9,0-3.46,1.84-3.47,4.11,0,.8,.2,1.6,.59,2.3,.55,1.08,1.65,1.78,2.87,1.82,1.82-.13,3.27-1.57,3.41-3.39,.23-1.43-.22-2.88-1.22-3.93-.58-.58-1.36-.91-2.18-.92"/><path id="Path_5593" class="cls-8" d="M170.14,115.91c-1.03,0-1.86-.84-1.86-1.87v-11.68c0-1.03,.84-1.86,1.87-1.86h9.34c1.03,0,1.86,.84,1.86,1.86v11.67c0,1.03-.84,1.86-1.87,1.86h-9.34Zm-.47-1.39h10.29v-12.62h-10.28v12.62Z"/><path id="Path_5594" class="cls-8" d="M207.5,115.9c-1.03,0-1.86-.84-1.86-1.87v-21.01c0-1.03,.84-1.86,1.87-1.86h9.34c1.03,0,1.86,.84,1.86,1.87v21.01c0,1.03-.84,1.86-1.86,1.87h-9.34Zm-.47-1.39h10.28v-21.96h-10.28v21.96Z"/><path id="Path_5595" class="cls-8" d="M188.82,115.9c-1.03,0-1.86-.84-1.86-1.87v-35.03c0-1.03,.84-1.86,1.87-1.86h9.34c1.03,0,1.86,.84,1.86,1.87v35.03c0,1.03-.84,1.86-1.87,1.86h-9.34Zm-.47-1.39h10.28v-35.97h-10.28v35.97Z"/><path id="Path_5596" class="cls-5" d="M392.11,235.37l-3.19,48.19,93-.22-5.23-28.96,5.23-7.72-23.66-12.12-66.15,.83Z"/><path id="Path_5597" class="cls-5" d="M390.7,247.36l-22.52-.26-1.85,36.36,21.94-.45,2.42-35.66Z"/><path id="Path_5598" class="cls-5" d="M406.78,44.01c-5.47,2.84-10.72,6.12-12.76,10.84-2.04,5.38-3.05,11.09-2.98,16.84,.18,4.47,.3,15.69,.3,15.69-.49,4.79-1.23,9.56-2.22,14.28-1.44,5.74-2.4,11.59-2.86,17.48-.12,2.01-.78,13.5,7.26,18.53,9.3,5.82,57.92,1.63,65.32-.41s9.31,4.21,11.1-2.42-.2-16.42-3.61-21.03-10.04-15.33-11.32-19.67-3.04-22.1-4.13-27.7-6.97-19.04-15.12-21.42-22.33-4.47-28.96-1.02"/><path id="Path_5599" class="cls-9" d="M390.88,246.79l-25.96-.44c-.39,0-.69-.32-.69-.71,0-.02,0-.04,0-.06l1.21-6.57s-.45-8.98-.45-8.98c0-.39,.31-.7,.7-.7h.01l25.3,.34,.86,5.14-.98,11.98Z"/><path id="Path_5600" class="cls-6" d="M410.67,119.54s-.77,3.76-2.55,5.23-8.62,5.71-13.17,8.63-9.68,7.48-11.45,10.32-6.89,11.04-7.97,15.88-4.4,22.58-4.4,22.58c0,0-1.6,16.14-1.85,19.52s-1.53,25.83-1.53,25.83v2.23h23.5l.86,5.29,65.51-.57-.89-1.4,4.17-6.59,3.62-5.73,29.28,12.95c1.41-2.66,2.69-5.38,3.83-8.16,.51-1.79,1.47-15.24,.77-19.13s-6.76-22.39-7.59-26.41-7.21-20.99-8.55-23.15-10.33-18.18-14.73-20.67-12.23-7.12-15.12-8.74-11.8-5.49-13.27-7.46c-1.11-1.66-2.05-3.44-2.81-5.29,0,0-5.74,1.79-10.27,3s-15.37,1.85-15.37,1.85"/><path id="Path_5601" class="cls-10" d="M411.88,111.7h-.18c-6.19-.07-10.8-2.11-13.72-6.06-2.48-3.36-3.7-8.08-3.63-14.02l.25-21.99c-.03-1.7,.2-3.39,.69-5.01,.16-.39,.6-.58,1-.43,.39,.16,.58,.6,.43,1-.43,1.45-.63,2.95-.58,4.46l-.26,21.99c-.07,5.6,1.06,10.01,3.33,13.09,2.61,3.55,6.82,5.37,12.5,5.44,.88,0,3.56,.04,9.11-2.07,.39-.15,.84,.05,.99,.44,.15,.39-.05,.84-.44,.99h0c-5.03,1.92-7.82,2.18-9.49,2.18"/><path id="Path_5602" class="cls-10" d="M436.3,93.49h-.08c-1.05,0-2.08-.25-3.02-.72-.38-.19-.54-.65-.35-1.03s.65-.54,1.03-.35c.73,.36,1.54,.55,2.36,.56,1.47,.03,2.88-.54,3.92-1.57,2.18-2.13,2.22-5.62,.09-7.8-1.58-1.62-3.99-2.11-6.08-1.23-.39,.16-.84-.02-1-.41s.02-.84,.41-1c.89-.36,1.85-.55,2.81-.55,3.89,.02,7.03,3.2,7.01,7.09-.02,3.89-3.2,7.03-7.09,7.01h0"/><path id="Path_5603" class="cls-10" d="M439.47,87.11h-.02c-.42-.01-.76-.36-.75-.78,.04-.74-.25-1.46-.8-1.96-.57-.46-1.32-.63-2.03-.47-.42,.07-.81-.2-.89-.62-.07-.42,.2-.81,.62-.89h0c1.17-.24,2.38,.06,3.3,.82,.89,.8,1.38,1.96,1.33,3.16,0,.42-.35,.75-.77,.75"/><path id="Path_5604" class="cls-10" d="M494.1,234.73c-.42,0-.77-.35-.76-.77,0-.13,.03-.25,.09-.36,1.99-3.46,3.45-7.19,4.36-11.07,3.26-16.85-11.24-54.96-16.29-64.76-8.6-16.7-13.19-21.39-28.85-29.52-1.76-.91-3.43-1.71-4.97-2.45-3.53-1.69-6.31-3.02-8.14-4.71-4.84-4.44-5.72-17.07-5.88-20.83-.08-1.92-.16-7.52-.17-7.76,0-.42,.33-.77,.75-.78,.42,0,.76,.34,.78,.75,0,.06,.09,5.82,.17,7.72,.31,7.45,1.89,16.56,5.39,19.77,1.67,1.53,4.36,2.82,7.77,4.45,1.56,.75,3.24,1.55,5.02,2.48,16.03,8.32,20.72,13.12,29.51,30.18,5.84,11.33,19.73,48.7,16.43,65.75-.93,4.04-2.45,7.91-4.51,11.51-.13,.25-.39,.4-.67,.4"/><path id="Path_5605" class="cls-10" d="M365.7,284.33h-.06c-.42-.03-.74-.4-.71-.82h0l2.68-36.58c.02-.41,.38-.73,.79-.71h.03c.42,.03,.74,.4,.71,.82h0l-2.68,36.58c-.03,.4-.36,.71-.76,.71"/><path id="Path_5606" class="cls-10" d="M367.42,230.45h-.03c-.42-.01-.75-.37-.74-.79,.01-.42,1.45-41.74,5.89-60.74,4.39-18.79,9.16-28.46,27.37-39.75l.43-.26c1.26-.77,3.6-2.21,5.91-3.93,2.01-1.49,2.95-2.95,3.12-4.86,.19-2.92,.12-5.85-.21-8.76-.04-.42,.27-.79,.69-.83,.42-.03,.79,.27,.83,.69,.34,3,.41,6.03,.21,9.05-.22,2.36-1.37,4.2-3.74,5.95s-4.74,3.22-6.03,4l-.42,.26c-18.57,11.52-22.55,21.11-26.69,38.8-4.4,18.84-5.83,60.02-5.85,60.44-.01,.41-.35,.74-.76,.74"/><path id="Path_5607" class="cls-10" d="M391.11,235.89l-.02-.75c-.13-4.49-2.6-16.93-5.08-25.59-.7-2.46-1.42-4.52-2.11-6.51-1.75-5.04-3.12-9.02-2.79-15.26,.44-8.2,1.94-16.31,4.47-24.13,.13-.4,.56-.63,.96-.5,.4,.13,.63,.56,.5,.96-2.49,7.69-3.97,15.67-4.4,23.75-.32,5.93,1.02,9.79,2.71,14.68,.66,1.92,1.42,4.1,2.13,6.59,2.38,8.32,4.76,20.12,5.11,25.22l66.33-.39h0c.42,0,.77,.34,.77,.77s-.34,.77-.77,.77l-67.81,.4Z"/><path id="Path_5608" class="cls-10" d="M469.33,138.44c-.42,0-.77-.34-.77-.77,0-.08,.01-.16,.04-.23,4.17-13.08-2.24-22.63-7.38-30.3-1.27-1.9-2.48-3.69-3.44-5.41-4.55-8.11-5.13-13.77-6.19-24.04-.19-1.8-.39-3.75-.63-5.88-1.39-12.38-7.28-27.44-27.46-28.88-6.02-.43-14.73,.14-22.15,5.29-5.63,3.91-9.65,12.3-9.56,19.96,0,2.15,.02,4.2,.04,6.2,.06,6.21,.12,12.07-.46,19.19-.37,3-.92,5.98-1.65,8.91-2.31,10.35-5.47,24.52,1.58,33.32,.26,.33,.21,.81-.12,1.08-.33,.26-.81,.21-1.08-.12-7.51-9.37-4.26-23.96-1.88-34.61,.72-2.86,1.26-5.77,1.62-8.7,.58-7.05,.52-12.88,.45-19.05-.02-2.01-.04-4.06-.04-6.21-.1-8.25,4.1-16.99,10.22-21.23,7.78-5.4,16.88-6,23.14-5.56,21.23,1.52,27.42,17.28,28.87,30.24,.24,2.14,.44,4.09,.63,5.9,1.07,10.4,1.61,15.61,6,23.45,.93,1.67,2.12,3.43,3.38,5.31,5.33,7.95,11.97,17.84,7.57,31.62-.1,.32-.4,.53-.73,.53"/><path id="Path_5609" class="cls-10" d="M411.97,120.04c-.58,0-1.14-.01-1.65-.04-.42-.02-.74-.38-.72-.8h0c0-.41,.33-.73,.74-.73,.02,0,.05,0,.07,0,6.78,.38,20.7-1.98,25.66-4.91,.36-.21,.83-.09,1.05,.27,.21,.36,.09,.83-.27,1.05-4.88,2.88-17.4,5.16-24.87,5.16"/><path id="Path_5610" class="cls-10" d="M437.97,258.27c-.42,0-.77-.34-.77-.77,0-.29,.17-.56,.43-.69,.05-.02,5.15-2.52,8.94-4.05,.97-1.31,7.31-9.89,12.46-18.02,.23-.36,.7-.46,1.06-.24,.36,.23,.46,.7,.24,1.06-5.6,8.84-12.59,18.2-12.66,18.29l-.13,.17-.2,.08c-3.76,1.5-8.98,4.07-9.04,4.09-.1,.05-.22,.08-.34,.08"/><path id="Path_5611" class="cls-10" d="M458.44,282.38c-.15,0-.31-.05-.43-.13-5.7-3.92-21.09-17.07-23.85-30.71-.1-.41,.15-.83,.56-.93,.41-.1,.83,.15,.93,.56,0,.02,0,.04,.01,.06,2.67,13.15,17.67,25.94,23.22,29.76,.35,.24,.44,.71,.21,1.06-.14,.21-.39,.34-.64,.34"/><path id="Path_5612" class="cls-10" d="M458.25,281.23c-.42,0-.77-.34-.77-.76,0-.25,.12-.48,.32-.63,.04-.03,4.53-3.3,6.19-10.54l.04-.19,.13-.15c6.23-7.08,12.02-14.55,17.33-22.35,.24-.35,.71-.44,1.06-.21,.35,.24,.44,.71,.21,1.06h0c-5.31,7.8-11.1,15.27-17.33,22.37-1.84,7.7-6.55,11.11-6.75,11.25-.13,.09-.28,.14-.44,.14"/><path id="Path_5613" class="cls-9" d="M463.51,221.14c-1.02,1.71-1.9,3.5-2.62,5.35-.03,.11-.09,.21-.18,.29-1.51,1.81-2.84,3.76-3.99,5.82-.18,.3-.08,.7,.22,.88l.03,.02,30.06,15.76c.28,.15,.62,.09,.82-.16,1.43-1.65,2.57-3.52,3.38-5.55,.71-2.22,3.41-6.2,4.51-7.76,.21-.29,.13-.7-.16-.9-.04-.03-.08-.05-.13-.07l-31.14-13.91c-.29-.13-.63-.02-.8,.25"/><path id="Path_5614" class="cls-10" d="M482.18,284.05c-.36,0-.68-.26-.75-.61l-5.75-27.98c-.09-.41,.18-.82,.6-.9,.41-.09,.82,.18,.9,.6l5.75,27.98c.08,.42-.18,.82-.6,.9h0c-.05,.01-.1,.02-.15,.02"/><path id="Path_5615" class="cls-10" d="M388.41,283.34h-.06c-.42-.03-.74-.4-.71-.82l3.44-47.45c.02-.42,.38-.73,.8-.71h.02c.42,.03,.74,.4,.71,.82h0l-3.44,47.45c-.03,.4-.36,.71-.76,.71"/><path id="Path_5616" class="cls-10" d="M390.88,247.87h-.01l-25.96-.44c-.81-.01-1.45-.68-1.44-1.49,0-.04,0-.08,0-.12l1.2-6.55c-.04-.9-.45-8.89-.45-8.89-.02-.81,.62-1.48,1.43-1.5,.02,0,.04,0,.06,0l25.01,.43c.42,0,.76,.36,.75,.78-.03,.41-.37,.73-.78,.75l-25.01-.43q.52,8.91,.52,8.99l-1.21,6.63,25.91,.31c.42,0,.76,.35,.76,.77s-.35,.76-.77,.76"/><path id="Path_5617" class="cls-10" d="M433.93,81.36c-.09,0-.18-.02-.26-.04-8.03-2.89-18.96-10.46-23.33-22.28-.15-.4,.06-.84,.45-.98,.4-.15,.84,.06,.98,.45h0c4.19,11.32,14.69,18.59,22.42,21.37,.4,.14,.6,.58,.46,.98-.11,.3-.4,.5-.72,.5"/><path id="Path_5618" class="cls-10" d="M395.37,65.8c-.42,0-.76-.35-.76-.77,0-.37,.26-.68,.63-.75,5.49-.9,10.71-3.05,15.24-6.28,.35-.24,.82-.15,1.06,.2,.24,.35,.15,.82-.2,1.06h-.02c-4.71,3.35-10.11,5.58-15.81,6.52-.05,0-.09,.01-.14,.01"/><path id="Path_5619" class="cls-10" d="M465.55,229.66c-.11,0-.23-.03-.33-.07l-4.71-2.24c-.39-.17-.56-.63-.39-1.01,.17-.39,.63-.56,1.01-.39h.03l4.71,2.25c.38,.18,.54,.64,.36,1.02-.13,.27-.4,.44-.69,.44"/><path id="Path_5620" class="cls-10" d="M375.49,240.14h-.03l-10.07-.33c-.42-.01-.75-.37-.74-.79,.02-.42,.37-.75,.79-.74l10.07,.33c.42,.02,.75,.38,.73,.8-.02,.4-.35,.72-.75,.73"/><path id="Path_5621" class="cls-10" d="M465.71,222.05c-.42,0-.77-.34-.77-.76,0-.1,.02-.2,.06-.29,.6-1.24,1.01-2.57,1.22-3.93,1.04-8.55-9.99-32.07-10.11-32.31-.19-.38-.04-.84,.34-1.03,.38-.19,.84-.04,1.03,.34l.02,.04c.46,.98,11.33,24.16,10.24,33.14-.23,1.5-.67,2.96-1.33,4.32-.12,.29-.4,.47-.71,.48"/><path id="Path_5622" class="cls-10" d="M487.34,250.09c-.24,0-.47-.06-.68-.17l-30.05-15.75c-.34-.18-.6-.5-.7-.88-.1-.37-.05-.76,.15-1.09,1.18-2.13,2.56-4.13,4.14-5.99,.73-1.9,1.62-3.73,2.67-5.47,.37-.59,1.11-.82,1.74-.55l31.16,13.92c.72,.31,1.05,1.14,.74,1.85-.04,.09-.09,.18-.14,.26-.86,1.22-3.71,5.38-4.4,7.55-.8,2.06-1.95,3.97-3.39,5.64l-.12,.15c-.27,.34-.68,.54-1.11,.54m-29.9-17.22l29.94,15.7v-.11c1.31-1.53,2.36-3.28,3.11-5.16,.7-2.19,3.1-5.81,4.53-7.85l-30.92-13.81c-.96,1.62-1.79,3.32-2.48,5.07-.07,.25-.21,.47-.4,.64-1.44,1.71-2.71,3.57-3.78,5.53m37.66,2.46h0Z"/><path id="Path_5623" class="cls-5" d="M331.96,153.22s-6.7-10.69-9.09-12.42-5.07-7.05-3.64-8.82,2.01-2.82,4.54-1.05,8.61,6.55,8.61,6.55c0,0,.81-.62,.67-1.34s.05-17.56,.06-17.7,.66-5.79,3.15-6.41,3.64-.05,4.09,1.3,1.55,14.49,1.55,14.49c0,0,1.58-3.25,4.11-2.3,1.54,.59,2.87,1.62,3.83,2.97,0,0,1.24-2.25,3.4-2.01,1.28,.15,2.42,.87,3.11,1.96l.6,1.43s1.75-2.22,3.61-1.78,3.12,.97,3.23,2.93c-.09,3.19-.49,6.37-1.2,9.48-.41,1.09-1.75,7.74-2.94,9.42-.85,1.25-1.61,2.56-2.28,3.92,0,0,.11,18.75,0,20.09s-.45,18.27-.83,21.34-1.43,14.11-3.59,18.04-5.17,9.28-8.61,9.95-8.95,1.24-12.05,.62-9.7-4.94-11.12-6.3-10.36-14.8-10.36-14.8l1.58-9.52,18.56-13.35,1.67-21.19-.06-4.5-.61-1Z"/><path id="Path_5624" class="cls-5" d="M255.89,108.82s.19,10.47-2.1,13.4-7.45,3.78-7.45,3.78l-1.6,1.44s8.24,5.31,14.69,5.44,13.71,.51,18.11-.45,12.05-3.12,12.25-3.12,2.93-2.17,2.93-2.17c0,0-8.74-3.7-9.44-4.15s-2.17-10.52-2.17-10.52l.77-5.68s6.83-7.85,6.63-10.65,.89-3.98,.89-3.98c0,0,4.96,.57,6.41-1.43s3.14-3.83,2.02-6.01-2.65-4.01-3.37-4.17-5.24-.51-5.24-.51c0,0,5.04-7.28-1.28-11.49s-13.68-8.9-18.66-7.94-17.41,2.87-19.23,7.46-6.89,11.97-6.89,11.97c0,0-4.01,2.27-4.08,4.87s.51,5.5,2.81,6.64,6.06,.6,6.06,.6c0,0,.45,5.44,1.91,7.61s3.87,6.11,4.26,6.5c.63,.82,1.22,1.67,1.77,2.56"/><path id="Path_5625" class="cls-7" d="M244.45,127.51c-2.02,.16-3.99,.74-5.78,1.69-2.25,1.43-12.89,8.25-16.01,11.35s-8.77,11.33-9.63,12.57-10.91,22.29-10.91,22.29l-1.75,2.96,9.4,4.68,19.44,8.15-7.59,20.83,9.79,4.05,4.58-24.56,48.28,9.02-6.03,31.19,3.36,2.31h32.82l-2.06-40.7,18.46-14.02,.14-6.95s-7.56-15.4-9.82-20.46-10.8-15.2-14.44-17.11-13.16-6.88-13.16-6.88c0,0-10.25,4.72-19.62,5.13-7.36,.2-14.72-.59-21.88-2.34-2.69-.63-5.25-1.71-7.58-3.19"/><path id="Path_5626" class="cls-10" d="M281.7,234.61l28.64,.19,3.89,48.41-90.07-.19,3.38-29.72,44.57,8.08,.78-4.69s2.87-2.43,2.55-4.4-.7-3.45-.7-3.45c0,0,3.92-1.53,4.23-3.86,.13-1.54-.18-3.09-.91-4.45l-.7-1.77s2.76-1.62,3.06-1.85c.49-.73,.92-1.5,1.28-2.3"/><path id="Path_5627" class="cls-10" d="M243.46,92.6c-.31,2.88-.85,5.73-1.63,8.52-.96,2.63-2.68,8.01-3.61,9.34s-2.18,3.48-.74,5.2,3.87,4.31,9.95,4.93,7.13-.19,7.13-.19c0,0,1.29-11.85,.43-13.44s-4.26-4.32-4.83-5.76-3.16-9.17-3.16-9.17l-3.54,.57Z"/><path id="Path_5628" class="cls-10" d="M293.52,92.72c.31,2.88,.85,5.73,1.63,8.52,.96,2.63,2.68,8.01,3.61,9.34s2.18,3.48,.74,5.2-3.87,4.31-9.95,4.93-7.13-.19-7.13-.19c0,0-1.29-11.85-.43-13.44s4.26-4.32,4.83-5.76,2.58-9.17,2.58-9.17l4.11,.57Z"/><path id="Path_5629" class="cls-10" d="M278.08,44.07c4.32-6.36,1.92-12.32-9.5-12.3-9.06,.02-15.73,5.29-10.11,12.42l19.61-.12Z"/><path id="Path_5630" class="cls-10" d="M264.7,61.32s-2.49,3.35-2.58,5.45c-.57,.5-14.27,4.33-14.27,4.33l-.37,8.73-3.92-.46s-1.78-12.06-.91-16.38,3.06-10.67,7.13-13.68,8.76-6.28,15.88-6.25,11.8,.84,14.44,2.09,7.23,3.64,9.29,6.51c2.19,3.13,3.77,6.66,4.64,10.38,.55,3.3,.75,6.65,.62,10-.39,2.57-1.06,5.09-2.01,7.51l-3.64,.28s-.05-7.74-1-9.13c-4.98-2.44-20.86-3.16-20.86-3.16,0,0-1.67-5.26-2.44-6.22"/><path id="Path_5631" class="cls-10" d="M224.41,283.72h-.07c-.42-.03-.73-.4-.7-.82h0l4.21-47.88c.04-.42,.41-.73,.83-.7,.42,.03,.74,.4,.7,.83h0l-4.21,47.87c-.03,.4-.36,.7-.76,.7"/><path id="Path_5632" class="cls-6" d="M223.84,252.36l48.28,9.02,12.14-60.84-48.28-9.02-12.14,60.84Z"/><path id="Path_5633" class="cls-10" d="M272.72,262.26l-49.78-9.3,12.44-62.34,49.78,9.3-12.44,62.34Zm-47.98-10.52l46.77,8.73,11.84-59.34-46.77-8.74-11.85,59.34Z"/><path id="Path_5634" class="cls-10" d="M314.54,283.72c-.4,0-.73-.3-.76-.7l-4.21-47.87c-.04-.42,.27-.79,.7-.83s.79,.27,.83,.7l4.21,47.87c.04,.42-.27,.79-.69,.83h-.07"/><path id="Path_5635" class="cls-5" d="M228.72,191.2l-6.92,20.92s29.83,13.33,31.8,13.52,6.24-2.45,7.75-2.77,10.28-4.74,12.48-4.74,4.62-1.94,5.59,.11,.11-.59-1.61,1.28c-2.18,2.03-4.48,3.93-6.89,5.69l-.72,2.44s.62,4.26,2.58,5.07-6.24,2.14-6.24,2.14l7.34,14.03s2.1,2.92,1.72,4.31-7.73,3.23-9.77,2.52-16.98-8.63-16.98-8.63l-3.62-1.07s-28.94-7.89-30.47-8.42-11.41-5.7-14.7-7.16-8.91-8.15-9.26-11.26,2.88-15.71,2.88-15.71l9.06-24.18,25.99,11.9Z"/><path id="Path_5636" class="cls-10" d="M337.98,225.29c-13.72,0-19.34-8.12-25.7-19.49-.22-.36-.11-.83,.25-1.05s.83-.11,1.05,.25c.01,.02,.02,.04,.03,.06,7.45,13.32,12.93,19.2,25.72,18.68,8.29-.32,12.92-6.52,15.02-20.12,3.1-20.05,2.1-49.28,2.09-49.58-.01-.42,.32-.78,.74-.79,.42-.01,.78,.32,.79,.74,.01,.29,1.02,29.67-2.11,49.86-2.23,14.45-7.32,21.06-16.47,21.41-.48,.02-.95,.03-1.41,.03"/><path id="Path_5637" class="cls-10" d="M330.36,189.77h-.05c-.42-.03-.74-.39-.71-.81l2.21-34.4c.01-.41,.35-.73,.76-.72,.02,0,.04,0,.06,0,.42,.03,.74,.39,.71,.81l-2.21,34.4c-.03,.4-.36,.72-.76,.72"/><path id="Path_5638" class="cls-10" d="M315.33,235.11h-33.73c-.42,0-.77-.34-.77-.77s.34-.77,.77-.77h32.16c-.35-10.44-2.89-43.17-4.26-60.96-.3-3.94-.56-7.25-.74-9.59-.03-.42,.28-.79,.7-.82,.42-.02,.78,.29,.82,.71,.18,2.33,.43,5.65,.74,9.59,1.51,19.56,4.05,52.31,4.29,61.82l.02,.79Z"/><path id="Path_5639" class="cls-10" d="M269.74,111.66h-2.79c-10.97-.01-19.87-8.9-19.88-19.88,0-.42,.34-.77,.77-.77s.77,.34,.77,.77c.01,10.13,8.22,18.33,18.35,18.35h2.79c10.13-.01,18.33-8.22,18.35-18.35-.02-.42,.32-.78,.74-.79,.42-.02,.78,.32,.79,.74,0,.02,0,.04,0,.06-.01,10.97-8.91,19.86-19.88,19.88"/><path id="Path_5640" class="cls-10" d="M245.14,93.15c-3.89,0-7.05-3.16-7.05-7.05,0-3.89,3.16-7.05,7.05-7.05,.96,0,1.91,.2,2.8,.58,.4,.14,.61,.58,.47,.98s-.58,.61-.98,.47c-.03-.01-.07-.03-.1-.04-2.8-1.21-6.05,.07-7.26,2.87-1.21,2.8,.07,6.05,2.87,7.26,1.46,.63,3.12,.6,4.56-.08,.38-.19,.84-.04,1.03,.33s.04,.84-.33,1.03c-.01,0-.03,.01-.04,.02-.94,.45-1.98,.68-3.02,.68"/><path id="Path_5641" class="cls-10" d="M241.79,86.56c-.42,0-.76-.34-.77-.76-.07-1.12,.36-2.21,1.16-2.99,.96-.79,2.22-1.14,3.45-.94,.42,.04,.73,.42,.69,.84-.05,.41-.42,.72-.83,.69-.8-.15-1.62,.05-2.27,.54-.47,.5-.71,1.17-.66,1.85,0,.42-.33,.77-.76,.77h-.01Z"/><path id="Path_5642" class="cls-10" d="M291.55,93.15c-1.05,0-2.08-.23-3.02-.68-.39-.17-.56-.62-.39-1.01s.62-.56,1.01-.39c.01,0,.03,.01,.04,.02,2.75,1.31,6.04,.13,7.35-2.62,1.31-2.75,.13-6.04-2.62-7.35-1.44-.68-3.1-.71-4.55-.08-.38,.19-.84,.05-1.03-.33-.19-.38-.05-.84,.33-1.03,.03-.02,.06-.03,.09-.04,3.57-1.55,7.72,.09,9.27,3.67,1.55,3.57-.09,7.72-3.67,9.27-.89,.38-1.84,.58-2.81,.58"/><path id="Path_5643" class="cls-10" d="M294.91,86.56h0c-.42,0-.76-.35-.76-.77h0c.05-.68-.19-1.35-.66-1.85-.64-.49-1.47-.69-2.26-.54-.42,.03-.78-.27-.84-.69-.04-.42,.27-.8,.69-.84h0c1.23-.19,2.48,.15,3.45,.94,.8,.78,1.22,1.87,1.16,2.99,0,.42-.35,.76-.77,.76"/><path id="Path_5644" class="cls-10" d="M293.15,80.79c-.05,0-.11,0-.16-.02-.41-.09-.68-.49-.59-.91,1.27-6.02,3.02-14.26-.41-22.08-6.19-14.09-21.35-14.2-25.85-13.9-8.38,.56-18.43,4.51-21.55,13.92-3.51,10.6-.29,21.39-.25,21.49,.12,.4-.1,.83-.51,.96s-.83-.1-.96-.51h0c-.14-.46-3.4-11.36,.26-22.42,3.36-10.13,14.03-14.37,22.9-14.97,4.75-.32,20.76-.19,27.35,14.81,3.63,8.27,1.83,16.79,.51,23.01-.08,.35-.39,.61-.75,.61"/><path id="Path_5645" class="cls-10" d="M312.06,194.31c-.42,0-.77-.34-.77-.77,0-.24,.12-.47,.31-.62l18.9-13.8c.35-.23,.83-.14,1.06,.22,.22,.33,.15,.78-.16,1.02l-18.9,13.8c-.13,.1-.29,.15-.45,.15"/><path id="Path_5646" class="cls-10" d="M331.14,174.06c-.3,0-.58-.18-.7-.45-2.27-5.07-4.48-9.97-5.63-12.48-6.69-14.56-11.81-23.95-31.84-33.27-1.39-.65-5.62-2.22-8.02-3.1-1.65-.59-2.9-1.96-3.32-3.66-1.27-5.32-1.02-13.68-1.01-14.03,.01-.41,.35-.74,.76-.74h.02c.42,.01,.75,.37,.74,.79h0c0,.08-.26,8.5,.97,13.62,.3,1.2,1.19,2.17,2.36,2.58,2.42,.89,6.7,2.48,8.14,3.15,20.52,9.54,25.75,19.14,32.59,34.02,1.16,2.52,3.36,7.42,5.64,12.49,.17,.39,0,.84-.38,1.01h0c-.1,.04-.21,.07-.31,.07"/><path id="Path_5647" class="cls-10" d="M229.12,191.72c-.1,0-.2-.02-.3-.06l-28.75-12.16c-.39-.17-.57-.62-.41-1.01,.17-.39,.62-.57,1.01-.41h0l28.76,12.16c.39,.17,.57,.62,.41,1-.12,.28-.4,.47-.71,.47"/><path id="Path_5648" class="cls-10" d="M200.24,179.43c-.1,0-.21-.02-.3-.06-.39-.17-.57-.62-.4-1.01h0l1.4-3.25,1.07-2.22c3.52-7.68,7.55-15.11,12.06-22.25,7.32-11.41,12.54-16.5,29.01-24.16,1.44-.67,5.88-2.27,8.39-3.17,1.19-.4,2.09-1.38,2.39-2.6,1.22-5.12,.97-13.33,.96-13.41-.01-.42,.32-.78,.74-.79h0c.42,0,.76,.33,.79,.74,.01,.35,.26,8.5-1,13.82-.43,1.72-1.69,3.11-3.37,3.68-2.49,.89-6.87,2.47-8.26,3.11-16.13,7.5-21.23,12.47-28.37,23.6-4.48,7.09-8.48,14.47-11.97,22.09l-1.06,2.2-1.39,3.22c-.12,.28-.4,.46-.7,.46"/><path id="Path_5649" class="cls-10" d="M288.86,81.26h0c-.42,0-.76-.35-.76-.77,0-.07,.02-6.52-1.05-9.15-3.82-2.31-14.16-3.5-19.44-3.17-.61,.03-1.15-.37-1.3-.96-.44-1.78-.97-3.53-1.6-5.25-.65,1.14-1.08,2.39-1.29,3.68-.1,.54-.24,1.08-.41,1.6-.18,.46-.61,.77-1.1,.79-5.09,.24-11.37,2.19-13.3,3.47v8.67c0,.42-.34,.77-.77,.77s-.77-.34-.77-.77v-9.42l.27-.23c1.85-1.54,8.89-3.71,14.28-4.01,.1-.32,.19-.73,.28-1.18,.26-1.8,.97-3.5,2.06-4.95,.25-.3,.64-.44,1.02-.37,.39,.07,.72,.33,.86,.7,.74,1.94,1.37,3.92,1.87,5.93,5.59-.29,16.35,.94,20.33,3.55l.18,.12,.09,.2c1.3,2.8,1.28,9.71,1.28,10.01,0,.42-.34,.76-.77,.76"/><path id="Path_5650" class="cls-10" d="M252.64,122.09c-7.87,0-13.9-1.98-15.94-5.3-.96-1.54-.97-3.5-.02-5.04,3.19-5.98,5.2-12.51,5.91-19.25,.05-.41,.42-.71,.84-.66h.02c.42,.06,.72,.44,.66,.86h0c-.74,6.93-2.8,13.65-6.09,19.79-.68,1.07-.69,2.43-.02,3.51,1.85,3.01,8.16,4.79,16.1,4.54,.42,0,.76,.33,.79,.74,.01,.42-.32,.78-.74,.79-.51,.01-1.01,.02-1.51,.02"/><path id="Path_5651" class="cls-10" d="M284.33,122.09c-.5,0-1,0-1.51-.02-.42-.01-.75-.37-.74-.79,.02-.42,.37-.74,.79-.74,7.92,.24,14.25-1.54,16.1-4.54,.67-1.08,.66-2.44-.02-3.51-3.29-6.14-5.35-12.86-6.09-19.79-.06-.42,.24-.8,.66-.86s.8,.24,.86,.66h0c.71,6.74,2.72,13.28,5.92,19.25,.95,1.55,.94,3.5-.02,5.04-2.04,3.31-8.08,5.3-15.94,5.3"/><path id="Path_5652" class="cls-10" d="M258.47,45.27c-.23,0-.46-.11-.6-.29-2.85-3.61-2.46-6.42-1.63-8.13,1.62-3.35,6.46-5.52,12.34-5.53h.07c7.5,0,10.39,2.48,11.5,4.57,1.31,2.47,.8,5.64-1.43,8.93-.23,.36-.7,.47-1.06,.24-.36-.23-.47-.7-.24-1.06,0-.02,.02-.03,.03-.05,1.9-2.8,2.38-5.41,1.35-7.35-1.29-2.42-4.89-3.75-10.15-3.75h-.06c-5.3,.01-9.6,1.84-10.96,4.67-.92,1.89-.41,4.15,1.45,6.52,.26,.33,.21,.81-.13,1.07-.13,.11-.3,.16-.47,.16"/><path id="Path_5653" class="cls-10" d="M247.79,247.36c-.06,0-.13,0-.19-.02-.1-.03-10.18-2.55-13.84-3.65-1.72-.52-3.7-1.06-5.85-1.64-12.82-3.5-32.18-8.79-37.14-20.95-1.41-3.46-.1-11.3,3.91-23.3l6.32-18.23c.14-.4,.57-.61,.97-.47,.4,.14,.61,.57,.47,.97l-6.32,18.22c-4.84,14.49-4.82,20.09-3.94,22.23,4.67,11.46,23.6,16.63,36.12,20.05,2.16,.59,4.15,1.14,5.89,1.66,3.62,1.09,13.67,3.6,13.77,3.63,.41,.11,.66,.52,.55,.93-.09,.34-.39,.57-.74,.58"/><path id="Path_5654" class="cls-10" d="M268.64,134.03c-9.36,0-18.44-2.06-25.06-6.15-.34-.25-.41-.73-.16-1.07,.22-.3,.63-.4,.96-.23,12.48,7.71,34.01,7.95,49.01,.54,.38-.19,.84-.03,1.02,.35,.19,.38,.03,.84-.35,1.02-7.96,3.73-16.65,5.62-25.43,5.54"/><path id="Path_5655" class="cls-5" d="M270.73,229.38s9.59,1.38,10.48,4.41,1.7,3.09,.04,4.46c-.87,.79-2.03,1.17-3.2,1.04,0,0,2.74,2.48,1.82,4.58s-2.04,3.48-3.07,3.46-1.65-.05-1.65-.05c0,0,2.09,1.22,1.75,3.3s-.92,3.67-1.78,3.83c-1.07,.11-2.14,.17-3.21,.16,0,0,1.56,2.33,.35,3.45s-2.43,2.72-5.05,1.82c-2.18-.8-4.25-1.89-6.14-3.24-.55-.47,1.84-17.85,2.49-18.59,.27-.31,1.54-1.83,2.94-3.52,.18-.22-4.34-10.29-2.84-11.58,4.2-3.6,15.88-6.66,16.42-4.05,1.44,6.86-9.35,10.53-9.35,10.53"/><path id="Path_5656" class="cls-10" d="M270.73,230.15c-.42,0-.76-.34-.76-.77,0-.19,.07-.37,.2-.51,1.77-1.69,3.8-3.07,6.01-4.11,2.29-1.17,3.55-2.35,3.74-3.5,.07-.96-.33-1.89-1.06-2.5-2.19-2.33-15.03,4.26-20.51,7.08-1.21,.6-2.53,.96-3.87,1.08-.58-.06-1.16-.18-1.72-.34-6.24-1.5-30.45-13.36-31.48-13.86l-.61-.3,7.74-21.72c.14-.4,.57-.61,.96-.47h.01c.4,.15,.61,.59,.46,.98l-7.28,20.43c3.88,1.89,25.02,12.12,30.58,13.45,.45,.13,.9,.23,1.36,.3h.03c1.09-.09,2.15-.4,3.12-.91,12.26-6.29,19.85-9.41,22.33-6.76,1.07,.96,1.61,2.38,1.45,3.81-.29,1.67-1.78,3.17-4.55,4.6-2.05,.96-3.93,2.23-5.58,3.77-.14,.16-.35,.25-.57,.25"/><path id="Path_5657" class="cls-10" d="M269.48,261.06c-2.37,0-5.31-1.71-8.16-3.5-3.99-2.51-13.49-10.03-13.89-10.35-.33-.26-.39-.74-.12-1.08s.74-.39,1.08-.12c.1,.08,9.83,7.79,13.75,10.26,2.26,1.42,6.04,3.79,8.11,3.16,.61-.21,1.09-.69,1.31-1.3,.64-1.48,.42-2.51-2.59-4.03-.38-.18-.55-.64-.37-1.02,.18-.38,.64-.55,1.02-.37,.01,0,.03,.01,.04,.02,2.52,1.27,4.66,2.88,3.3,6.01-.39,1.03-1.22,1.82-2.26,2.16-.39,.12-.8,.18-1.21,.17"/><path id="Path_5658" class="cls-10" d="M278.92,240.21c-1.34-.07-2.67-.3-3.96-.7-.41-.11-.65-.53-.54-.94,.11-.41,.53-.65,.94-.54,2.39,.64,4.06,.92,5.01,.31,.65-.54,1.04-1.33,1.08-2.17,.4-2.52-2.53-3.48-7.76-4.96-1.1-.31-2.25-.64-3.42-1-.4-.13-.63-.56-.5-.96,.13-.4,.56-.63,.96-.5,1.16,.36,2.3,.69,3.38,.99,5.09,1.44,9.49,2.69,8.85,6.67-.09,1.28-.73,2.45-1.76,3.21-.69,.41-1.48,.62-2.28,.59"/><path id="Path_5659" class="cls-10" d="M276.09,248.25c-1.11-.03-2.19-.31-3.17-.83-.39-.17-.56-.63-.38-1.01s.63-.56,1.01-.38c.02,0,.04,.02,.05,.03,1.11,.67,2.47,.84,3.71,.44,.66-.25,1.19-.77,1.45-1.42,.46-1.02,.5-2.18,.1-3.22-.64-1.04-1.67-1.79-2.87-2.07-.4-.13-.62-.57-.49-.97,.13-.4,.57-.62,.97-.49h0c1.59,.4,2.94,1.43,3.76,2.85,.58,1.41,.57,3-.03,4.4-.41,1.07-1.25,1.92-2.32,2.34-.57,.23-1.18,.34-1.8,.34"/><path id="Path_5660" class="cls-10" d="M273.7,255.8c-1.22-.05-2.41-.43-3.43-1.11-.36-.22-.48-.69-.26-1.05,.22-.36,.69-.48,1.05-.26,1.41,.84,2.62,1.1,3.52,.73,.76-.37,1.3-1.07,1.46-1.9,.5-1.89,.63-3.12-2.91-4.59-.38-.18-.55-.63-.38-1.02,.17-.37,.59-.54,.96-.4,4.15,1.73,4.54,3.65,3.8,6.4-.28,1.3-1.15,2.38-2.36,2.92-.46,.18-.95,.28-1.45,.27"/><path id="Path_5661" class="cls-10" d="M357.21,154.78c-.13,0-.25-.03-.36-.09-.37-.2-.51-.67-.31-1.04h0c5.16-9.47,6.24-17.11,6.47-19.96,.22-2.74-.63-4.37-2.52-4.84-.55-.12-1.12-.01-1.59,.3-.56,.34-.97,.88-1.15,1.52l-.88,4.91c-.3,1.88-1.35,3.56-2.92,4.64-.88,.58-1.97,.77-2.99,.51-2.44-.67-3.46-2.44-3.12-5.41,.05-.42,.43-.72,.85-.67,.42,.05,.72,.43,.67,.85h0c-.3,2.58,.59,3.37,2.01,3.76,.62,.14,1.26,.02,1.78-.34,1.2-.86,2.01-2.16,2.22-3.62l.88-4.92c.26-1.05,.92-1.95,1.84-2.52,.82-.53,1.82-.71,2.77-.48,2.65,.66,3.96,2.95,3.68,6.44-.23,2.95-1.35,10.85-6.65,20.57-.13,.25-.39,.4-.67,.4"/><path id="Path_5662" class="cls-10" d="M332.47,155.26c-.27,0-.52-.14-.65-.37-.06-.1-6.07-9.98-9.96-14.12-3.02-3.22-4.4-6.59-3.6-8.79,.53-1.33,1.81-2.21,3.24-2.23,3.57-.43,7.36,3.62,10.42,6.87l.24,.26h0c.31-4.5,.22-8.29,.15-11.64-.14-2.74-.08-5.49,.17-8.22,.31-2.53,1.14-4.32,2.45-5.32,.86-.67,1.96-.95,3.04-.78,3.45,.52,3.69,3.26,4.05,7.41,.2,2.6,.25,5.21,.15,7.82,0,.11,0,.22,0,.33,.95-1.05,2.32-1.61,3.73-1.55,1.75,0,3.33,1.02,4.06,2.61,.93-1.14,2.37-1.75,3.84-1.61,1.97,.23,3.43,1.87,3.92,4.37,.05,.42-.26,.8-.68,.85-.37,.04-.72-.2-.82-.56-.35-1.84-1.3-2.98-2.59-3.14-1.38-.06-2.64,.78-3.12,2.07l-.23,.52-.66-.02c-.38-.05-.68-.35-.73-.73-.07-1.64-1.45-2.91-3.08-2.84h0c-1.65,.04-3.07,1.17-3.48,2.77l-.14,.62-.69,.08-.64-.02-.15-.75c-.09-1.01-.1-2.03-.04-3.04,.1-2.55,.06-5.1-.14-7.65-.4-4.54-.72-5.73-2.76-6.04-.67-.1-1.35,.08-1.89,.49-.96,.73-1.6,2.21-1.86,4.29-.23,2.66-.29,5.33-.15,8,.08,3.38,.16,7.2-.15,11.78,.09,.79-.47,1.51-1.26,1.6-.54,.06-1.08-.19-1.38-.65l-.24-.26c-2.67-2.84-6.35-6.7-9.13-6.4-.85-.02-1.63,.47-1.98,1.24-.58,1.58,.77,4.55,3.27,7.22,4,4.26,9.9,13.97,10.15,14.38,.22,.36,.11,.83-.26,1.05-.12,.07-.26,.11-.4,.11"/><path id="Path_5663" class="cls-10" d="M344.68,140.4c-.84-.03-1.62-.41-2.15-1.06-1.66-1.83-2.38-5.78-1.88-10.31,.05-.42,.43-.72,.85-.68,.42,.05,.72,.42,.68,.84h0c-.54,4.92,.46,7.99,1.49,9.12,.23,.34,.62,.55,1.03,.55,1.26-.01,2.67-.44,3.48-5.25l.77-4.51,1.51,.26-.77,4.51c-.54,3.2-1.55,6.48-4.97,6.53h-.03Z"/><path id="Path_5664" class="cls-10" d="M359.37,141.55c-.74-.01-1.46-.22-2.08-.62-1.64-1-2.18-3.5-1.61-7.42,.06-.42,.45-.71,.87-.65,.42,.06,.71,.45,.65,.87h0c-.64,4.43,.41,5.6,.89,5.9,.58,.39,1.31,.49,1.97,.26,1.04-.4,1.91-1.68,2.51-3.71,.12-.41,.55-.64,.95-.51s.64,.55,.51,.95c-.76,2.54-1.91,4.12-3.43,4.7-.4,.15-.82,.23-1.24,.23"/><path id="Path_5665" class="cls-5" d="M81.61,257.44l-.81,25.51h70.73l-.72-25.3-69.21-.21Z"/><path id="Path_5666" class="cls-5" d="M142.59,57.22c1.66,4.53,2.37,5.74,2.36,8.42s-.96,10.4-.06,13.01c.66,1.97,1.56,3.86,2.68,5.61,.96,1.6,1.54,.25,1.63,2.23s.3,1.85-1.63,2.55c-1.18,.44-2.2,1.22-2.93,2.23,0,0-7.72,14.42-9.7,15.88s-5.23,3.95-5.23,6.76,.76,9.12,2.04,12.38c.79,2.02,1.47,4.09,2.04,6.19,0,0-23.03-1.47-29.09-3.76s-6.25-7.59-6.25-7.59c0,0,5.29-10.4,5.49-14.03s.51-9.57,.51-9.57c0,0-3.51-19.04,1.37-24.21s36.77-16.11,36.77-16.11"/><path id="Path_5667" class="cls-6" d="M99.08,122.62c-.95,.56-1.77,1.33-2.41,2.23-3.08,5.02-5.85,10.21-8.29,15.56-1.4,3.64-5.17,18.69-5.68,22.07s-1.28,21.5-1.28,21.5l-1,31.57-.27,26.22,.38,15.84,72.81-.02v-24.63l-.48-6.83s-16.78,2.81-23.66,2.74-14.1-.45-17.09-1.47-6.32-5.1-8.17-8.93-4.27-20.98-4.27-20.98l32.21-6.35,2.14,11.55,13.61-.8,3.84-.57s-1.22-23.14-1.92-27.04-3.99-20.83-5.76-23.94-8.54-17.75-8.54-17.75c-.45-.54-.93-1.04-1.46-1.5-.2-.05-7.46,.38-11.74-.32-4.04-.62-8.03-1.56-11.93-2.81-1.79-.76-6.44-2.29-6.44-2.29l-4.61-3.06Z"/><path id="Path_5668" class="cls-10" d="M108.88,89.21s.86,.81,.57,2.92-2.25,5.12-3.44,6.46c-.68,.78-1.61,1.31-2.63,1.48,0,0-6.36-3.01-8.28-7.46s-6.24-13.92-6.2-19.14,1.08-14.4,4.38-19.76,11.67-10.62,15.79-11.62,8.23-2.4,14.21-1.89c4.13,.23,8.16,1.3,11.86,3.13,2.54,1.24,8.28,4.07,10.19,4.59s3.4,1.05,3.59,1.53c.48,1.47,.34,3.08-.38,4.45-1.05,2.2-2.28,5.39-6.93,6.02s-11.63,2.45-14.69,5.27-4.28,4.54-4.56,6.36,.73,9.09,2.11,11.58c1.87,2.97,4.68,5.23,7.99,6.41,3.25,1.05,9.43,1.29,9.43,1.29l3.26,.68s.99,8.08-.97,10.86-3.67,6.29-6.98,7.09-6.27,1.47-9.62,1-6.79-3.01-7.65-4.5-2.2-9.33-1.34-12.68c.77-3.7,.8-7.52,.09-11.24-.62-2.11-.45-3.29-3.4-3.84s-5.43-.36-6.37,1.77-2.21,2.69-1.66,5.09c.34,1.46,.89,2.86,1.63,4.16"/><path id="Path_5669" class="cls-10" d="M113.39,91.73h-.02c-.18,0-.36-.02-.54-.04-3.99-.42-6.89-4-6.47-7.99,.2-1.92,1.16-3.68,2.66-4.89,2.32-1.87,5.55-2.14,8.14-.68,.37,.2,.52,.66,.32,1.03-.2,.37-.66,.52-1.03,.32l-.04-.02c-2.76-1.56-6.26-.59-7.82,2.17-1.56,2.76-.59,6.26,2.17,7.82,.68,.39,1.44,.63,2.22,.71,.14,.01,.28,.03,.42,.03,.42,0,.76,.35,.75,.78s-.35,.76-.78,.75"/><path id="Path_5670" class="cls-10" d="M110.35,84.75h-.07c-.42-.04-.73-.41-.69-.83,.09-1.23,.73-2.36,1.74-3.07,1.03-.67,2.3-.83,3.46-.44,.41,.11,.65,.53,.55,.93-.11,.41-.53,.65-.93,.55-.02,0-.04-.01-.05-.02-.72-.25-1.52-.16-2.17,.25-.63,.45-1.02,1.17-1.07,1.94-.04,.39-.37,.69-.76,.69"/><path id="Path_5671" class="cls-10" d="M145.17,90.6c-.42,0-.77-.34-.77-.76,0-.37,.27-.69,.64-.75,3.21-.56,3.6-1.36,3.62-1.91,.04-1.06-.53-1.66-1.92-3.02-1.34-1.31-2.51-2.78-2.53-6.78l-.04-9.52c0-.51-.01-.95-.04-1.39-.08-2.3-.38-4.58-.88-6.82-.13-.4,.09-.83,.49-.97,.4-.13,.83,.09,.97,.49v.02c.56,2.36,.88,4.77,.96,7.19,.03,.45,.04,.92,.05,1.47l.04,9.52c.02,3.69,1.09,4.74,2.03,5.66,1.45,1.42,2.48,2.42,2.41,4.2-.08,2.25-2.65,2.98-4.89,3.37-.04,0-.09,.01-.13,.01"/><path id="Path_5672" class="cls-10" d="M127.95,131.8c-11.89,0-24.3-4.95-30.21-9.12-.35-.24-.43-.72-.18-1.07s.72-.43,1.07-.18c6.67,4.72,21.92,10.45,34.91,8.43,.42-.05,.8,.24,.86,.66,.05,.4-.22,.78-.62,.85-1.93,.29-3.88,.44-5.82,.43"/><path id="Path_5673" class="cls-10" d="M150.9,202.03c-.41,0-.74-.32-.76-.73l-.11-2.2c-1-20.79-2.12-44.35-16.39-67.07-2.46-3.91-3.3-6.02-3.94-9.8-.71-3.74-.78-7.58-.19-11.34,.07-.42,.47-.69,.89-.62s.69,.47,.62,.89v.03c-.56,3.58-.49,7.23,.19,10.79,.6,3.59,1.37,5.49,3.73,9.24,14.48,23.05,15.62,46.83,16.63,67.81l.11,2.2c.02,.42-.3,.78-.73,.8h-.04"/><path id="Path_5674" class="cls-10" d="M153.52,258.29l-74.57-.26v-.75c-.02-.42-.85-42.18,1.96-87.42,.8-12.81,4.31-31.59,16.55-48.31,3.85-6.41,6.01-13.69,6.27-21.16,.05-.41,.38-.72,.79-.74,.42,.01,.76,.36,.75,.79h0c-.27,7.76-2.52,15.33-6.53,21.98-12.05,16.47-15.5,34.95-16.28,47.55-2.6,41.85-2.08,80.72-1.98,86.54l71.54,.25c0-3.38,.04-17.38-.08-30.93,0-.42,.34-.77,.76-.77h0c.41-.02,.76,.3,.77,.72,0,.01,0,.03,0,.04,.14,15.48,.08,31.55,.08,31.71v.76Z"/><path id="Path_5675" class="cls-10" d="M80.5,283.78h-.02c-.42-.01-.76-.36-.75-.78l.63-25.74c0-.41,.34-.75,.75-.75h.03c.42,.01,.76,.36,.75,.78l-.63,25.74c-.01,.42-.35,.75-.76,.75"/><path id="Path_5676" class="cls-10" d="M151.72,284.23c-.42,0-.76-.34-.76-.76l-.37-25.81c0-.42,.33-.77,.75-.78,.41-.02,.76,.3,.78,.71,0,.01,0,.03,0,.04l.37,25.81c0,.42-.33,.77-.75,.78h-.01Z"/><path id="Path_5677" class="cls-10" d="M130.89,111.86c-3.31-.05-6.51-1.18-9.12-3.21-5.7-4.2-4.33-13.73-3.32-20.69l.05-.36c.18-1.25,.56-5.52-2.07-8.17-.27-.32-.23-.81,.09-1.08,.29-.24,.71-.24,1,0,3.13,3.15,2.7,8.05,2.5,9.47l-.05,.36c-.95,6.57-2.25,15.58,2.72,19.24,7.84,5.78,14.78,1.84,17.65-1.41,3.5-3.96,4.2-8.4,4.07-14.21-1.57-.2-3-.24-4.39-.29-3.22,.05-6.42-.49-9.45-1.6-6.72-2.54-10-12.06-8.84-19.35l.07-.23c2.68-5.31,7-9.24,19.37-11.12,5.24-.8,7.32-5.2,7.5-8.74,.03-.37-.21-.7-.57-.8-2.75-.73-5.39-1.81-7.87-3.22-1.48-.76-3.17-1.63-5.37-2.63-9.19-4.19-19.71-3.48-26.06-.93-11.42,4.58-17.82,12.15-19.02,22.49-1.09,10.26,1.65,20.57,7.69,28.94,4.32,6.13,6.81,5.13,6.83,5.12h0s4.86-3.8,4.41-9.75c-.03-.42,.29-.79,.71-.82,.42-.03,.79,.29,.82,.71,.51,6.82-4.88,10.97-5.11,11.15-.45,.26-3.77,1.8-8.92-5.52-6.25-8.68-9.09-19.36-7.96-30,1.28-10.94,8-18.92,19.97-23.74,6.65-2.68,17.67-3.42,27.27,.96,2.24,1.02,3.93,1.89,5.43,2.66,2.37,1.35,4.9,2.39,7.54,3.1,1.07,.28,1.79,1.27,1.73,2.37-.21,4.1-2.65,9.23-8.8,10.17-11.68,1.78-15.64,5.22-18.18,10.19-.99,6.55,1.99,15.33,7.89,17.56,2.87,1.04,5.91,1.55,8.96,1.5,1.74,.03,3.48,.16,5.2,.39l.63,.09,.02,.64c.2,6.5-.47,11.43-4.44,15.92-2.68,3.04-6.53,4.79-10.59,4.82"/><path id="Path_5678" class="cls-11" d="M181.31,182.56l1.91,15.31s11.86-1.64,14.67-1.52,8.55,.88,8.55,.88l1.15-14.1-26.28-.57Z"/><path id="Path_5679" class="cls-10" d="M205.62,216.16h-21.72l-3.16-33.4c-.04-.42,.27-.79,.69-.83,.42-.03,.79,.27,.83,.69l3.03,32.02h18.93l3.03-32.02c.05-.42,.42-.72,.83-.69,.42,.04,.73,.41,.69,.83l-3.15,33.4Z"/><path id="Path_5680" class="cls-5" d="M207.7,176.11h-26.13l-1.55,6.58h29.23l-1.55-6.58Z"/><path id="Path_5681" class="cls-10" d="M210.21,183.45h-31.16l1.91-8.11h27.34l1.91,8.11Zm-29.23-1.53h27.29l-1.19-5.05h-24.92l-1.19,5.05Z"/><path id="Path_5682" class="cls-5" d="M98.93,197.21s2.45,11.42,3.16,15.42,3.57,11.54,6.69,13.25,13.18,3.07,18.8,2.91,25.68-3.13,28.07-3.45,21.74-4.64,21.74-4.64c0,0,7.29,.3,12.06,.06s8.13-.9,10.97-.9,5.56-1.01,5.85-2.02,.54-3.98,.06-4.37c-.31-.28-.51-.65-.58-1.07,0,0,3.26,.03,4-2.1s.48-3.84-.13-4.45c-.75-.88-1.45-1.79-2.1-2.74,.69-.44,1.21-1.12,1.45-1.9,.16-1.06-.23-5.63-2.01-6.05-2.22-.25-4.47-.29-6.7-.14,0,0-9.26,1.87-9.91,1.93s-8.13,1.27-8.13,1.27l-.67-7.07c-1.19,1.96-2.56,3.8-4.1,5.51-1.55,1.4-2.78,2.87-5.29,2.94s-22.12,2.13-26.13,2.3-12.58,.49-12.58,.49l-2.58-11.55-31.93,6.38Z"/><path id="Path_5683" class="cls-10" d="M94.05,198.63l-.16-.73c-.46-2.09-.95-4.17-1.43-6.27-2-8.59-4.06-17.48-4.79-27.04-.03-.42,.28-.79,.7-.82s.79,.28,.82,.7h0c.72,9.45,2.77,18.28,4.75,26.81,.43,1.85,.86,3.7,1.28,5.55l38.24-7.73c-.4-8.03-1.25-16.03-2.54-23.97-1.45-8.89-2.81-17.29-6.08-22.71-.22-.36-.1-.83,.26-1.05,.36-.22,.83-.1,1.05,.26,3.42,5.68,4.81,14.22,6.28,23.26,1.33,8.21,2.2,16.48,2.6,24.79l.04,.66-41.02,8.29Z"/><path id="Path_5684" class="cls-10" d="M200.86,214.19c-.42,0-.77-.34-.77-.76,0-.4,.31-.74,.71-.77,.68-.06,1.36-.1,2.01-.14,2.36-.15,4.4-.27,5.59-.9,.9-.3,1.42-1.23,1.21-2.15-.1-1.22-1.66-2.2-3.46-2.11-5.4,.17-14.19,1.13-14.28,1.14-.42,.05-.8-.26-.84-.68-.05-.42,.26-.8,.68-.84h0c.09,0,8.95-.98,14.4-1.15,2.69-.06,4.87,1.46,5.03,3.52,.25,1.53-.58,3.03-2.02,3.62-1.47,.78-3.67,.92-6.21,1.08-.64,.04-1.3,.08-1.98,.13h-.06"/><path id="Path_5685" class="cls-10" d="M203.99,201.29c-.42,0-.77-.33-.78-.75,0-.42,.33-.77,.75-.78,2-.07,3.23-.35,3.64-.84,.13-.16,.26-.42,.16-1.12-.12-.9-.14-.92-.53-1.23-2.02-1.61-8.75-.75-13.63,.03-5.69,.91-10.9,1.43-10.95,1.44-.42,.04-.8-.27-.84-.69s.27-.8,.69-.84c.05,0,5.22-.52,10.86-1.43,8.44-1.36,12.88-1.27,14.83,.28,.71,.51,1.12,1.34,1.1,2.22,.17,.81-.02,1.65-.51,2.32-.75,.88-2.17,1.29-4.76,1.38h-.03Z"/><path id="Path_5686" class="cls-10" d="M132.72,203.37l-2.35-12.66c-.07-.42,.22-.81,.64-.88,.4-.06,.78,.2,.87,.6l2.11,11.34c4.6-.23,31.6-1.6,39.99-3.29,1.9-.38,2.79-1.98,3.91-4,.91-1.84,2.12-3.51,3.59-4.95,.32-.28,.8-.25,1.08,.07,.27,.31,.25,.78-.05,1.06-1.34,1.32-2.45,2.87-3.28,4.56-1.21,2.18-2.35,4.23-4.95,4.76-9.25,1.86-39.6,3.29-40.89,3.35l-.67,.03Z"/><path id="Path_5687" class="cls-10" d="M123.48,229.55c-6.33,0-11.58-.73-14.54-2.62-5.91-3.78-8.13-15.12-9.9-24.23-.39-1.98-.75-3.84-1.12-5.47-.09-.41,.16-.82,.58-.92,.41-.09,.82,.16,.92,.58,.38,1.65,.74,3.53,1.13,5.52,1.72,8.82,3.86,19.8,9.22,23.23,11.96,7.65,66.58-5.45,67.13-5.58l.14-.03,.14,.02c7.69,1.06,24.02-.88,27.07-1.77,1.28-.27,2.2-1.4,2.21-2.71-.17-1.03-1.46-1.58-3.48-1.5-5.85,.26-11.04,.72-11.1,.72-.42,.02-.78-.3-.81-.72-.02-.4,.27-.75,.67-.8,.05,0,5.28-.47,11.16-.73,4.24-.15,4.94,2.08,5.05,2.78,.31,1.86-1.14,3.8-3.29,4.43-3.19,.93-19.48,2.9-27.56,1.83-2.86,.69-33.62,7.96-53.64,7.96"/><path id="Path_5688" class="cls-10" d="M206.95,207.35h-.07c-.42,0-.76-.36-.75-.78,.02-.42,.36-.75,.78-.75,.03-.02,2.82,.03,3.98-1.39,.27-.46,.38-1,.3-1.54-.06-.59-.38-1.13-.87-1.48-1.1-.6-10.55,.1-19.03,1.14-.41,.06-.79-.22-.85-.63v-.04c-.05-.42,.24-.8,.66-.85,5.5-.67,18.46-2.08,20.13-.85,.82,.6,1.35,1.51,1.47,2.52,.14,.94-.09,1.91-.63,2.69-1.52,1.88-4.6,1.96-5.13,1.96"/><path id="Path_5689" class="cls-10" d="M532.56,284.33H41.59c-.42,0-.77-.34-.77-.77s.34-.77,.77-.77h490.97c.42,0,.77,.34,.77,.77s-.34,.77-.77,.77"/><path id="Path_5690" class="cls-8" d="M346.48,70.95c-11.8-.01-21.35-9.58-21.34-21.38,.01-11.8,9.58-21.35,21.38-21.34,11.8,.01,21.35,9.58,21.34,21.38,0,5.66-2.26,11.09-6.26,15.09-4.01,4.01-9.45,6.26-15.12,6.25m0-41.44c-11.1,0-20.1,9-20.09,20.11,0,11.1,9,20.1,20.11,20.09,11.1,0,20.1-9,20.09-20.11,0-5.32-2.11-10.43-5.87-14.19-3.76-3.79-8.89-5.92-14.23-5.9"/><path id="Path_5691" class="cls-8" d="M342.66,84.15c-.92,0-1.72-.62-1.95-1.52l-1.63-6.5-.33-.1c-2.01-.58-3.94-1.4-5.76-2.42l-.31-.17-5.68,3.41c-.31,.19-.67,.28-1.03,.28-.08,0-.16,0-.24-.01-.44-.06-.86-.26-1.17-.57l-5.22-5.22c-.65-.65-.78-1.66-.3-2.45l3.44-5.75-.17-.31c-1.01-1.83-1.8-3.78-2.36-5.79l-.1-.34-6.43-1.61c-.89-.22-1.52-1.02-1.52-1.95v-7.38c0-.92,.63-1.72,1.52-1.95l6.5-1.63,.1-.33c.58-2.01,1.4-3.94,2.42-5.76l.17-.31-3.41-5.68c-.48-.79-.35-1.8,.3-2.45l5.22-5.22c.65-.65,1.66-.78,2.45-.3l5.74,3.45,.31-.17c1.83-1.01,3.78-1.8,5.79-2.36l.34-.09,1.61-6.43c.22-.89,1.02-1.52,1.94-1.52h7.39c.92,0,1.73,.62,1.95,1.52l1.63,6.5,.33,.1c2.01,.58,3.94,1.4,5.77,2.42l.31,.17,5.68-3.41c.31-.19,.67-.29,1.03-.29,.08,0,.16,0,.24,.01,.44,.06,.86,.26,1.17,.57l5.22,5.22c.65,.65,.78,1.66,.3,2.45l-3.45,5.74,.17,.31c1.01,1.83,1.8,3.78,2.36,5.79l.1,.34,6.43,1.61c.89,.22,1.52,1.02,1.52,1.94v7.38c0,.92-.62,1.73-1.52,1.95l-6.5,1.62-.1,.33c-.58,2.01-1.4,3.94-2.42,5.76l-.17,.31,3.41,5.68c.48,.79,.35,1.8-.3,2.45l-5.22,5.22c-.32,.32-.73,.52-1.17,.57-.08,0-.16,.01-.24,.01-.36,0-.72-.1-1.03-.29l-5.75-3.44-.31,.17c-1.83,1.01-3.78,1.8-5.79,2.36l-.34,.1-1.61,6.43c-.22,.89-1.02,1.52-1.95,1.52h-7.38v.02Zm-9.99-12.11c.12,0,.23,.03,.33,.09,2.11,1.26,4.39,2.22,6.78,2.85,.23,.06,.4,.24,.46,.47l1.83,7.33,8.42,.09,1.92-7.34c.06-.24,.24-.42,.47-.48,2.39-.6,4.68-1.53,6.81-2.78,.2-.12,.46-.12,.66,0l6.48,3.88,6.02-5.89-3.83-6.55c-.12-.21-.12-.47,0-.67,1.26-2.11,2.22-4.39,2.85-6.78,.06-.23,.24-.41,.46-.47l7.33-1.83,.08-8.42-7.34-1.92c-.24-.06-.42-.24-.48-.47-.6-2.39-1.53-4.68-2.77-6.81-.12-.2-.12-.46,0-.66l3.88-6.48-5.89-6.01-6.55,3.83c-.1,.06-.22,.1-.34,.1-.12,0-.23-.03-.33-.09-2.11-1.26-4.39-2.22-6.77-2.85-.23-.06-.4-.24-.46-.47l-1.84-7.33-8.42-.09-1.92,7.34c-.06,.24-.24,.42-.47,.48-2.39,.6-4.68,1.53-6.8,2.78-.2,.12-.46,.12-.66,0l-6.49-3.89-6.02,5.89,3.83,6.55c.12,.21,.12,.47,0,.67-1.26,2.11-2.22,4.39-2.85,6.78-.06,.23-.24,.41-.46,.47l-7.33,1.83-.08,8.42,7.34,1.92c.23,.06,.42,.24,.48,.47,.6,2.39,1.53,4.68,2.78,6.8,.12,.2,.12,.46,0,.66l-3.88,6.48,5.89,6.01,6.55-3.83c.1-.06,.22-.1,.34-.1"/><path id="Path_5692" class="cls-8" d="M350.49,58.61c-1.32,0-2.39-1.05-2.4-2.37,0-.45,.12-.9,.37-1.28l.23-.36-5.02-6.28-.4,.14c-.25,.09-.51,.14-.78,.15-.26,0-.53-.05-.77-.15l-.4-.14-5.02,6.28,.23,.36c.73,1.15,.38,2.67-.77,3.4s-2.67,.38-3.4-.77c-.73-1.15-.38-2.67,.77-3.4,.65-.41,1.44-.49,2.16-.23l.4,.14,5.01-6.27-.23-.37c-.71-1.12-.37-2.6,.75-3.31,1.12-.71,2.6-.37,3.31,.75,.49,.78,.49,1.78,0,2.56l-.23,.37,5.02,6.28,.4-.14c.5-.19,1.06-.19,1.56,0l.4,.14,5.02-6.28-.23-.37c-.73-1.15-.39-2.68,.76-3.41s2.68-.39,3.41,.76,.39,2.68-.76,3.41c-.64,.41-1.44,.5-2.16,.24l-.4-.14-5.02,6.28,.23,.37c.7,1.11,.37,2.59-.75,3.29-.38,.24-.83,.37-1.28,.37m0-4c-.89,0-1.61,.72-1.61,1.61s.72,1.61,1.61,1.61,1.61-.72,1.61-1.61-.72-1.61-1.61-1.61h0m-16.02,0c-.89,0-1.61,.72-1.61,1.61s.72,1.61,1.61,1.61,1.61-.72,1.61-1.61-.72-1.61-1.61-1.61h0m24.03-10.01c-.89,0-1.61,.72-1.61,1.61s.72,1.61,1.61,1.61,1.61-.72,1.61-1.61c0-.89-.72-1.61-1.61-1.61h0m-16.02,0c-.89,0-1.61,.72-1.61,1.61s.72,1.61,1.61,1.61c.89,0,1.61-.72,1.61-1.61,0-.89-.72-1.61-1.61-1.61h0"/></g></g></g></g></g></g></g></g></svg>