<svg id="Group_972" data-name="Group 972" xmlns="http://www.w3.org/2000/svg" xmlns:xlink="http://www.w3.org/1999/xlink" width="512.141" height="270" viewBox="0 0 512.141 270">
  <defs>
    <clipPath id="clip-path">
      <rect id="Rectangle_1013" data-name="Rectangle 1013" width="512.141" height="270" fill="none"/>
    </clipPath>
    <clipPath id="clip-path-3">
      <rect id="Rectangle_1011" data-name="Rectangle 1011" width="505.311" height="252.997" fill="none"/>
    </clipPath>
  </defs>
  <g id="Group_971" data-name="Group 971" clip-path="url(#clip-path)">
    <g id="Group_970" data-name="Group 970">
      <g id="Group_969" data-name="Group 969" clip-path="url(#clip-path)">
        <g id="Group_968" data-name="Group 968" transform="translate(6.83 17.003)" opacity="0.6">
          <g id="Group_967" data-name="Group 967">
            <g id="Group_966" data-name="Group 966" clip-path="url(#clip-path-3)">
              <path id="Path_5579" data-name="Path 5579" d="M405.513,146.872c-39.8-30.669-44.1-110.835-101.3-120.851-63.918-11.189-74.974,40.211-98.829,52.507-43.416,22.379-78.6-31.364-131.517-12.223C2.708,92.042,5.12,226.32,14.768,276.674l487.226.762s23.886-38.123,7.236-69.02c-18.693-34.688-68.45-34.367-103.716-61.544" transform="translate(-9.817 -24.439)" fill="#98d8f4"/>
            </g>
          </g>
        </g>
        <path id="Path_5580" data-name="Path 5580" d="M46.791,53.757H23.865a.741.741,0,0,0,0,1.483H46.791a.741.741,0,0,0,0-1.483h0" transform="translate(-7.036 -16.357)" fill="#536876"/>
        <path id="Path_5581" data-name="Path 5581" d="M102.084,41.936H23.864a.741.741,0,0,0,0,1.483h78.219a.741.741,0,0,0,0-1.483" transform="translate(-7.036 -12.76)" fill="#536876"/>
        <path id="Path_5582" data-name="Path 5582" d="M75.885,65.578H23.865a.741.741,0,0,0,0,1.483H75.885a.741.741,0,0,0,0-1.483" transform="translate(-7.036 -19.954)" fill="#536876"/>
        <path id="Path_5583" data-name="Path 5583" d="M41.444,77.4H23.865a.741.741,0,0,0,0,1.483h17.58a.741.741,0,1,0,0-1.483Z" transform="translate(-7.036 -23.551)" fill="#536876"/>
        <path id="Path_5584" data-name="Path 5584" d="M16.311,12.612a2.99,2.99,0,1,0,0,4.231,2.989,2.989,0,0,0,0-4.231m-1.047,3.182a1.509,1.509,0,1,1,0-2.135,1.509,1.509,0,0,1,0,2.135h0" transform="translate(-3.411 -3.571)" fill="#536876"/>
        <path id="Path_5585" data-name="Path 5585" d="M32.355,12.612a2.99,2.99,0,1,0,0,4.231,2.989,2.989,0,0,0,0-4.231m-1.047,3.182a1.509,1.509,0,1,1,0-2.135,1.509,1.509,0,0,1,0,2.135h0" transform="translate(-8.292 -3.571)" fill="#536876"/>
        <path id="Path_5586" data-name="Path 5586" d="M48.4,12.611a2.991,2.991,0,1,0,0,4.231,2.991,2.991,0,0,0,0-4.231m-1.047,3.182a1.509,1.509,0,1,1,.442-1.067,1.511,1.511,0,0,1-.442,1.067" transform="translate(-13.172 -3.571)" fill="#536876"/>
        <path id="Path_5587" data-name="Path 5587" d="M109.064,25.74H.751a.741.741,0,0,0-.741.741V68.933A8.38,8.38,0,0,0,8.38,77.3h93.056a8.381,8.381,0,0,0,8.37-8.37V26.481a.741.741,0,0,0-.742-.742m-.741,43.194a6.9,6.9,0,0,1-6.888,6.888H8.373a6.9,6.9,0,0,1-6.888-6.888V27.222H108.317Z" transform="translate(-0.003 -7.832)" fill="#536876"/>
        <path id="Path_5588" data-name="Path 5588" d="M101.433,4.193H8.37A8.379,8.379,0,0,0,0,12.563v7.362a.741.741,0,0,0,.741.742H109.054a.741.741,0,0,0,.742-.742V12.563a8.379,8.379,0,0,0-8.369-8.37m6.888,14.991H1.489V12.563A6.9,6.9,0,0,1,8.376,5.676h93.056a6.9,6.9,0,0,1,6.888,6.888v6.621Z" transform="translate(0 -1.276)" fill="#536876"/>
        <path id="Path_5589" data-name="Path 5589" d="M683.367,114.125a15.88,15.88,0,1,0,11.229,4.651,15.779,15.779,0,0,0-11.229-4.651m10.546,26.427a14.913,14.913,0,1,1,4.368-10.546,14.819,14.819,0,0,1-4.368,10.546" transform="translate(-203.101 -34.726)" fill="#536876"/>
        <path id="Path_5590" data-name="Path 5590" d="M704.447,122.157a1.5,1.5,0,0,0-.814-.529l-4.773-1.192-.07-.252a20.454,20.454,0,0,0-1.754-4.3l-.125-.226,2.559-4.267a1.487,1.487,0,0,0-.225-1.822l-3.876-3.876a1.5,1.5,0,0,0-.871-.426,1.436,1.436,0,0,0-.182-.011,1.482,1.482,0,0,0-.767.214L689.331,108l-.227-.127a20.407,20.407,0,0,0-4.281-1.8l-.248-.073-1.207-4.828a1.489,1.489,0,0,0-1.447-1.129h-5.482a1.487,1.487,0,0,0-1.445,1.129l-1.193,4.774-.252.07a20.391,20.391,0,0,0-4.3,1.753l-.225.124-4.268-2.557a1.492,1.492,0,0,0-.769-.214,1.565,1.565,0,0,0-.18.01,1.5,1.5,0,0,0-.872.426l-3.876,3.877a1.491,1.491,0,0,0-.223,1.821l2.53,4.218-.128.227a20.422,20.422,0,0,0-1.8,4.281l-.072.248-4.829,1.208a1.489,1.489,0,0,0-1.128,1.446v5.482a1.489,1.489,0,0,0,1.129,1.447l4.774,1.192.07.252a20.344,20.344,0,0,0,1.753,4.3l.125.226-2.558,4.268a1.486,1.486,0,0,0,.223,1.821l3.875,3.875a1.5,1.5,0,0,0,.872.426,1.592,1.592,0,0,0,.182.01,1.5,1.5,0,0,0,.767-.212l4.218-2.53.228.128a20.333,20.333,0,0,0,4.281,1.8l.248.073,1.208,4.83a1.489,1.489,0,0,0,1.446,1.128h5.483a1.49,1.49,0,0,0,1.446-1.13l1.192-4.774.252-.07a20.41,20.41,0,0,0,4.3-1.753l.226-.124,4.268,2.558a1.5,1.5,0,0,0,.767.212,1.447,1.447,0,0,0,.182-.011,1.5,1.5,0,0,0,.872-.424l3.877-3.877a1.487,1.487,0,0,0,.223-1.821l-2.53-4.219.128-.228a20.369,20.369,0,0,0,1.8-4.282l.072-.248,4.83-1.207a1.488,1.488,0,0,0,1.128-1.446v-5.482a1.524,1.524,0,0,0-.318-.918m-.713,6.823-5.443,1.362a.481.481,0,0,0-.351.346,19.383,19.383,0,0,1-2.114,5.032.488.488,0,0,0,0,.5l2.845,4.861-4.466,4.375-4.81-2.883a.487.487,0,0,0-.493,0,19.405,19.405,0,0,1-5.054,2.061.487.487,0,0,0-.353.356l-1.424,5.45-6.251-.063-1.362-5.443a.483.483,0,0,0-.346-.35,19.389,19.389,0,0,1-5.032-2.114.475.475,0,0,0-.248-.069.492.492,0,0,0-.253.071l-4.86,2.845-4.375-4.466,2.884-4.811a.483.483,0,0,0,0-.492,19.358,19.358,0,0,1-2.061-5.054.487.487,0,0,0-.356-.352l-5.45-1.425.063-6.251,5.442-1.362a.486.486,0,0,0,.351-.346,19.378,19.378,0,0,1,2.114-5.033.487.487,0,0,0,0-.5l-2.844-4.861,4.465-4.375,4.812,2.884a.478.478,0,0,0,.248.069.485.485,0,0,0,.244-.066,19.354,19.354,0,0,1,5.054-2.061.489.489,0,0,0,.352-.356l1.424-5.45,6.252.064,1.362,5.442a.485.485,0,0,0,.346.351,19.389,19.389,0,0,1,5.032,2.113.479.479,0,0,0,.248.07.49.49,0,0,0,.253-.071l4.861-2.845,4.375,4.465-2.884,4.81a.481.481,0,0,0,0,.492,19.386,19.386,0,0,1,2.061,5.056.484.484,0,0,0,.357.352l5.45,1.424Z" transform="translate(-198.817 -30.44)" fill="#536876"/>
        <path id="Path_5591" data-name="Path 5591" d="M693,140.718a7.724,7.724,0,0,0-9.456-2.157l-.128.061a7.713,7.713,0,0,0-4.213,6.885V146.9a.467.467,0,0,0,.466.466H694.2a.467.467,0,0,0,.466-.466v-1.389c0-.127-.006-.252-.011-.374A7.617,7.617,0,0,0,693,140.718m-12.862,5.717v-.922a6.822,6.822,0,0,1,3.576-5.992l.127-.063a6.69,6.69,0,0,1,3.093-.742,6.8,6.8,0,0,1,6.791,6.472c.006.1.006.207.006.329v.917Z" transform="translate(-206.665 -41.922)" fill="#536876"/>
        <path id="Path_5592" data-name="Path 5592" d="M688.518,130.352a3.977,3.977,0,0,1-3.422-2.145,5.3,5.3,0,0,1-.671-2.608c0-2.62,1.836-4.751,4.093-4.751a3.779,3.779,0,0,1,2.62,1.1,5.074,5.074,0,0,1,1.474,3.653,5.215,5.215,0,0,1-.058.821,4.307,4.307,0,0,1-4.035,3.932m0-8.866c-1.9,0-3.46,1.844-3.465,4.113a4.668,4.668,0,0,0,.591,2.3,3.345,3.345,0,0,0,2.869,1.819,3.682,3.682,0,0,0,3.408-3.394A4.636,4.636,0,0,0,690.7,122.4a3.1,3.1,0,0,0-2.178-.916" transform="translate(-208.255 -36.771)" fill="#536876"/>
        <path id="Path_5593" data-name="Path 5593" d="M194.868,138.3a1.87,1.87,0,0,1-1.862-1.865V124.759a1.87,1.87,0,0,1,1.865-1.863h9.338a1.872,1.872,0,0,1,1.863,1.865v11.674a1.872,1.872,0,0,1-1.867,1.864Zm-.472-1.392h10.286V124.289H194.4Z" transform="translate(-58.727 -37.395)" fill="#536876"/>
        <path id="Path_5594" data-name="Path 5594" d="M248.572,134.212a1.871,1.871,0,0,1-1.862-1.867V111.33a1.871,1.871,0,0,1,1.865-1.863h9.338a1.871,1.871,0,0,1,1.862,1.867v21.014a1.871,1.871,0,0,1-1.865,1.865Zm-.472-1.393h10.284V110.861H248.1Z" transform="translate(-75.068 -33.308)" fill="#536876"/>
        <path id="Path_5595" data-name="Path 5595" d="M221.718,128.085a1.872,1.872,0,0,1-1.863-1.866V91.192a1.871,1.871,0,0,1,1.865-1.862h9.339a1.871,1.871,0,0,1,1.862,1.866v35.025a1.871,1.871,0,0,1-1.866,1.864Zm-.471-1.392h10.284V90.723H221.247Z" transform="translate(-66.897 -27.181)" fill="#536876"/>
        <path id="Path_5596" data-name="Path 5596" d="M513.332,316.388l-3.189,48.191,93-.224-5.23-28.959,5.23-7.718-23.664-12.12Z" transform="translate(-155.225 -96.018)" fill="#fff"/>
        <path id="Path_5597" data-name="Path 5597" d="M502.054,333.876l-22.516-.255-1.849,36.358,21.942-.447Z" transform="translate(-145.35 -101.513)" fill="#fff"/>
        <path id="Path_5598" data-name="Path 5598" d="M526.81,40.91c-5.47,2.841-10.716,6.123-12.757,10.844a45.953,45.953,0,0,0-2.983,16.839c.176,4.466.3,15.692.3,15.692a137.206,137.206,0,0,1-2.224,14.276,105.919,105.919,0,0,0-2.864,17.484c-.12,2.014-.781,13.5,7.256,18.53,9.3,5.823,57.917,1.631,65.317-.41s9.312,4.21,11.1-2.424-.2-16.416-3.608-21.029-10.042-15.329-11.317-19.666-3.038-22.1-4.134-27.7S563.925,44.31,555.772,41.93s-22.329-4.465-28.962-1.021" transform="translate(-154.032 -11.895)" fill="#fff"/>
        <path id="Path_5599" data-name="Path 5599" d="M501.307,325.528l-25.963-.443a.7.7,0,0,1-.685-.77l1.207-6.569c0-.022-.455-8.983-.455-8.983a.7.7,0,0,1,.712-.7l25.3.339.859,5.145Z" transform="translate(-144.427 -93.737)" fill="#98d8f4"/>
        <path id="Path_5600" data-name="Path 5600" d="M522.632,148.137s-.765,3.763-2.551,5.23-8.618,5.706-13.175,8.626-9.682,7.476-11.447,10.318-6.886,11.036-7.973,15.883-4.4,22.58-4.4,22.58-1.595,16.137-1.85,19.518-1.531,25.833-1.531,25.833v2.233h23.5l.863,5.294,65.508-.574-.893-1.4,4.166-6.585,3.616-5.726,29.277,12.949a89.474,89.474,0,0,0,3.826-8.165c.511-1.786,1.467-15.245.766-19.135s-6.762-22.389-7.59-26.408-7.208-20.985-8.548-23.154-10.333-18.179-14.734-20.666-12.227-7.123-15.117-8.738-11.8-5.486-13.267-7.463a29.4,29.4,0,0,1-2.807-5.294s-5.74,1.786-10.27,3-15.372,1.85-15.372,1.85" transform="translate(-145.964 -43.6)" fill="#118bcb"/>
        <path id="Path_5601" data-name="Path 5601" d="M535.479,118.195H535.3c-6.187-.069-10.8-2.107-13.715-6.059-2.476-3.36-3.7-8.077-3.628-14.022l.254-21.986a16.371,16.371,0,0,1,.693-5.014.766.766,0,0,1,1.423.568,14.2,14.2,0,0,0-.584,4.464l-.255,21.986c-.065,5.6,1.056,10.01,3.33,13.094,2.614,3.546,6.819,5.374,12.5,5.437.884,0,3.563.038,9.108-2.075a.765.765,0,1,1,.547,1.429c-5.034,1.918-7.819,2.178-9.494,2.178" transform="translate(-157.602 -21.492)" fill="#2e2e2e"/>
        <path id="Path_5602" data-name="Path 5602" d="M576.7,106.648h-.083a7,7,0,0,1-3.019-.716.766.766,0,0,1,.676-1.375,5.457,5.457,0,0,0,2.361.561,5.4,5.4,0,0,0,3.919-1.572,5.518,5.518,0,0,0-5.991-9.035.766.766,0,0,1-.595-1.412,7.576,7.576,0,0,1,2.81-.548,7.049,7.049,0,0,1-.079,14.1" transform="translate(-174.402 -28.161)" fill="#2e2e2e"/>
        <path id="Path_5603" data-name="Path 5603" d="M580.837,101.545h-.018a.766.766,0,0,1-.747-.783,2.47,2.47,0,0,0-.8-1.961,2.417,2.417,0,0,0-2.032-.475.765.765,0,1,1-.266-1.507,3.917,3.917,0,0,1,3.3.82A4,4,0,0,1,581.6,100.8a.765.765,0,0,1-.765.747" transform="translate(-175.368 -29.438)" fill="#2e2e2e"/>
        <path id="Path_5604" data-name="Path 5604" d="M634.808,253.289a.766.766,0,0,1-.673-1.128,40.841,40.841,0,0,0,4.357-11.072c3.261-16.85-11.239-54.956-16.29-64.756-8.605-16.7-13.19-21.387-28.854-29.524-1.76-.913-3.431-1.714-4.974-2.452-3.525-1.688-6.31-3.02-8.144-4.707-4.835-4.441-5.724-17.069-5.882-20.833-.081-1.921-.164-7.521-.168-7.757a.767.767,0,0,1,.754-.778.793.793,0,0,1,.777.753c0,.058.086,5.817.166,7.717.312,7.453,1.892,16.559,5.389,19.771,1.666,1.531,4.359,2.82,7.769,4.452,1.557.747,3.243,1.554,5.019,2.476,16.027,8.324,20.716,13.12,29.509,30.178,5.838,11.328,19.732,48.7,16.432,65.749a42.3,42.3,0,0,1-4.51,11.508.768.768,0,0,1-.675.4" transform="translate(-174.71 -33.556)" fill="#2e2e2e"/>
        <path id="Path_5605" data-name="Path 5605" d="M476.43,370.448h-.057a.765.765,0,0,1-.707-.82l2.679-36.582a.751.751,0,0,1,.819-.708.765.765,0,0,1,.708.819l-2.679,36.582a.764.764,0,0,1-.763.71" transform="translate(-144.734 -101.121)" fill="#2e2e2e"/>
        <path id="Path_5606" data-name="Path 5606" d="M478.912,257.227h-.026a.766.766,0,0,1-.739-.791c.013-.415,1.449-41.745,5.888-60.737,4.391-18.786,9.164-28.46,27.37-39.751l.429-.264c1.259-.774,3.6-2.215,5.914-3.927,2.014-1.492,2.948-2.947,3.123-4.864a49.441,49.441,0,0,0-.21-8.762.766.766,0,0,1,.691-.834.778.778,0,0,1,.833.691,50.95,50.95,0,0,1,.21,9.046c-.217,2.362-1.368,4.2-3.736,5.952s-4.745,3.216-6.025,4l-.423.26c-18.572,11.518-22.552,21.112-26.686,38.8-4.4,18.844-5.835,60.024-5.849,60.438a.765.765,0,0,1-.764.74" transform="translate(-145.489 -41.776)" fill="#2e2e2e"/>
        <path id="Path_5607" data-name="Path 5607" d="M508.891,285.677l-.022-.747c-.132-4.491-2.6-16.926-5.084-25.589-.7-2.459-1.419-4.521-2.109-6.515-1.746-5.043-3.125-9.025-2.791-15.257a94.558,94.558,0,0,1,4.473-24.129.765.765,0,0,1,1.459.463,93.043,93.043,0,0,0-4.4,23.746c-.318,5.935,1.018,9.792,2.709,14.676.664,1.919,1.417,4.1,2.133,6.595,2.384,8.319,4.759,20.124,5.105,25.219l66.334-.392h0a.765.765,0,0,1,0,1.531Z" transform="translate(-151.784 -64.783)" fill="#2e2e2e"/>
        <path id="Path_5608" data-name="Path 5608" d="M589.035,134.938a.766.766,0,0,1-.73-1c4.169-13.081-2.237-22.631-7.384-30.3-1.273-1.9-2.476-3.69-3.44-5.411-4.546-8.111-5.13-13.77-6.19-24.041-.186-1.8-.386-3.746-.626-5.884-1.387-12.378-7.279-27.437-27.462-28.879-6.015-.432-14.735.141-22.153,5.288-5.63,3.906-9.65,12.3-9.557,19.964,0,2.154.021,4.2.041,6.2.064,6.206.124,12.066-.458,19.191a73.253,73.253,0,0,1-1.652,8.909c-2.307,10.35-5.468,24.523,1.582,33.318a.765.765,0,0,1-1.195.957c-7.51-9.367-4.257-23.955-1.881-34.607a72.571,72.571,0,0,0,1.62-8.7c.576-7.053.516-12.881.454-19.05-.02-2.009-.041-4.06-.041-6.21-.1-8.254,4.1-16.989,10.215-21.232,7.784-5.4,16.875-6,23.135-5.557,21.232,1.517,27.421,17.28,28.874,30.236.24,2.142.441,4.094.628,5.9,1.072,10.4,1.611,15.615,6,23.451.934,1.665,2.12,3.433,3.376,5.306,5.332,7.946,11.966,17.836,7.573,31.62a.768.768,0,0,1-.73.534" transform="translate(-153.705 -11.495)" fill="#2e2e2e"/>
        <path id="Path_5609" data-name="Path 5609" d="M542.246,148.1c-.584,0-1.135-.015-1.652-.043a.764.764,0,0,1-.721-.806.732.732,0,0,1,.806-.722c6.778.384,20.7-1.983,25.662-4.908a.765.765,0,1,1,.778,1.318c-4.883,2.878-17.4,5.161-24.873,5.161" transform="translate(-164.271 -43.061)" fill="#2e2e2e"/>
        <path id="Path_5610" data-name="Path 5610" d="M580.313,339.217a.766.766,0,0,1-.339-1.453c.052-.025,5.15-2.523,8.942-4.055.974-1.311,7.311-9.891,12.46-18.025a.765.765,0,1,1,1.293.819c-5.6,8.843-12.585,18.2-12.655,18.294l-.129.172-.2.079c-3.756,1.5-8.984,4.065-9.037,4.092a.768.768,0,0,1-.335.078" transform="translate(-176.343 -95.947)" fill="#2e2e2e"/>
        <path id="Path_5611" data-name="Path 5611" d="M599.447,370.428a.759.759,0,0,1-.433-.134c-5.7-3.916-21.085-17.067-23.854-30.713a.766.766,0,1,1,1.5-.305c2.668,13.148,17.666,25.938,23.22,29.756a.765.765,0,0,1-.434,1.4" transform="translate(-175.004 -103.047)" fill="#2e2e2e"/>
        <path id="Path_5612" data-name="Path 5612" d="M609.468,367.383a.765.765,0,0,1-.445-1.389c.044-.033,4.526-3.3,6.193-10.541l.045-.193.132-.147a228.979,228.979,0,0,0,17.326-22.345.765.765,0,1,1,1.27.855,231.546,231.546,0,0,1-17.326,22.367c-1.837,7.7-6.552,11.111-6.754,11.253a.766.766,0,0,1-.44.141" transform="translate(-185.214 -101.151)" fill="#2e2e2e"/>
        <path id="Path_5613" data-name="Path 5613" d="M614.35,296.166a36.823,36.823,0,0,0-2.625,5.349.58.58,0,0,1-.177.285,38.276,38.276,0,0,0-3.993,5.82.643.643,0,0,0,.252.9l30.059,15.759a.646.646,0,0,0,.821-.163,19.393,19.393,0,0,0,3.381-5.55c.706-2.221,3.41-6.2,4.508-7.763a.648.648,0,0,0-.286-.971l-31.14-13.91a.644.644,0,0,0-.8.249" transform="translate(-184.838 -90.025)" fill="#98d8f4"/>
        <path id="Path_5614" data-name="Path 5614" d="M641.348,373.815a.766.766,0,0,1-.749-.612l-5.753-27.983a.765.765,0,1,1,1.5-.308l5.753,27.983a.767.767,0,0,1-.6.905.778.778,0,0,1-.154.015" transform="translate(-193.165 -104.763)" fill="#2e2e2e"/>
        <path id="Path_5615" data-name="Path 5615" d="M509.076,364.274h-.056a.767.767,0,0,1-.708-.82l3.442-47.447a.755.755,0,0,1,.818-.709.766.766,0,0,1,.708.82l-3.442,47.447a.766.766,0,0,1-.762.71" transform="translate(-154.668 -95.937)" fill="#2e2e2e"/>
        <path id="Path_5616" data-name="Path 5616" d="M500.972,326.412h-.013L475,325.97a1.465,1.465,0,0,1-1.435-1.611l1.2-6.545c-.042-.9-.451-8.892-.451-8.892a1.466,1.466,0,0,1,1.492-1.5l25.007.428a.766.766,0,0,1,.752.779.815.815,0,0,1-.779.752l-25.008-.427c.525,8.914.525,8.914.518,8.994l-1.215,6.63,25.907.31a.765.765,0,0,1-.013,1.531" transform="translate(-144.092 -93.54)" fill="#2e2e2e"/>
        <path id="Path_5617" data-name="Path 5617" d="M564.5,85.172a.79.79,0,0,1-.26-.045c-8.031-2.892-18.962-10.462-23.333-22.275a.765.765,0,0,1,1.435-.532c4.19,11.319,14.694,18.585,22.417,21.366a.766.766,0,0,1-.259,1.486" transform="translate(-164.571 -18.81)" fill="#2e2e2e"/>
        <path id="Path_5618" data-name="Path 5618" d="M519.078,69.556a.766.766,0,0,1-.138-1.519,36.346,36.346,0,0,0,15.239-6.279.765.765,0,1,1,.847,1.274,38.172,38.172,0,0,1-15.808,6.512.875.875,0,0,1-.14.012" transform="translate(-157.711 -18.753)" fill="#2e2e2e"/>
        <path id="Path_5619" data-name="Path 5619" d="M617.9,306.9a.767.767,0,0,1-.328-.074l-4.711-2.236a.766.766,0,1,1,.656-1.384l4.711,2.237a.766.766,0,0,1-.329,1.458" transform="translate(-186.348 -92.236)" fill="#2e2e2e"/>
        <path id="Path_5620" data-name="Path 5620" d="M486.108,322.788h-.026l-10.066-.335a.766.766,0,0,1-.74-.791.778.778,0,0,1,.79-.74l10.066.335a.766.766,0,0,1-.024,1.531" transform="translate(-144.616 -97.649)" fill="#2e2e2e"/>
        <path id="Path_5621" data-name="Path 5621" d="M616.3,280.826a.765.765,0,0,1-.708-1.055,13.963,13.963,0,0,0,1.224-3.929c1.039-8.55-9.995-32.069-10.106-32.307a.765.765,0,1,1,1.384-.651c.463.982,11.333,24.158,10.242,33.143a15.28,15.28,0,0,1-1.327,4.324.768.768,0,0,1-.709.475" transform="translate(-184.587 -73.771)" fill="#2e2e2e"/>
        <path id="Path_5622" data-name="Path 5622" d="M637.845,324.784a1.415,1.415,0,0,1-.681-.175l-30.048-15.754a1.431,1.431,0,0,1-.7-.876,1.389,1.389,0,0,1,.148-1.088A37.078,37.078,0,0,1,610.7,300.9a35.475,35.475,0,0,1,2.669-5.474,1.406,1.406,0,0,1,1.742-.55l31.158,13.919a1.412,1.412,0,0,1,.6,2.109c-.858,1.223-3.713,5.383-4.4,7.554a19.355,19.355,0,0,1-3.388,5.639l-.12.152a1.408,1.408,0,0,1-1.108.537m-29.9-17.223,29.941,15.7-.012-.115A18.156,18.156,0,0,0,641,317.993c.7-2.187,3.1-5.809,4.529-7.853l-30.922-13.814a36.269,36.269,0,0,0-2.484,5.068,1.358,1.358,0,0,1-.4.635,33.276,33.276,0,0,0-3.784,5.532m37.66,2.456,0,.013.006-.008ZM614.016,295.83h0Z" transform="translate(-184.503 -89.689)" fill="#2e2e2e"/>
        <path id="Path_5623" data-name="Path 5623" d="M419.023,180.541s-6.7-10.688-9.09-12.424-5.07-7.046-3.635-8.816,2.009-2.823,4.544-1.053,8.611,6.554,8.611,6.554.813-.622.67-1.34.049-17.56.059-17.7.658-5.786,3.146-6.408,3.642-.047,4.094,1.3,1.551,14.485,1.551,14.485,1.579-3.253,4.115-2.3a8.435,8.435,0,0,1,3.827,2.966s1.244-2.248,3.4-2.009a4.25,4.25,0,0,1,3.109,1.962l.6,1.435s1.747-2.224,3.61-1.782,3.122.969,3.234,2.93a48.582,48.582,0,0,1-1.2,9.479c-.409,1.094-1.753,7.741-2.944,9.417a32.475,32.475,0,0,0-2.28,3.923s.111,18.754,0,20.092-.447,18.275-.83,21.336-1.435,14.113-3.588,18.035-5.166,9.281-8.611,9.951-8.946,1.244-12.055.622-9.7-4.936-11.116-6.3-10.363-14.8-10.363-14.8l1.579-9.52,18.563-13.347,1.673-21.192-.058-4.5Z" transform="translate(-121.066 -42.325)" fill="#fff"/>
        <path id="Path_5624" data-name="Path 5624" d="M311.587,113.709s.191,10.472-2.1,13.395-7.446,3.776-7.446,3.776l-1.6,1.439s8.244,5.31,14.686,5.438,13.714.511,18.115-.447,12.055-3.125,12.247-3.125,2.934-2.166,2.934-2.166-8.738-3.7-9.44-4.149-2.169-10.524-2.169-10.524l.765-5.677s6.825-7.846,6.634-10.652.885-3.978.885-3.978,4.959.568,6.408-1.425,3.145-3.826,2.022-6.015-2.655-4.007-3.37-4.172-5.244-.511-5.244-.511,5.039-7.277-1.276-11.487-13.682-8.9-18.657-7.942-17.413,2.871-19.231,7.463-6.889,11.966-6.889,11.966-4.014,2.272-4.082,4.874.51,5.505,2.807,6.643,6.06.6,6.06.6.446,5.445,1.913,7.614,3.867,6.114,4.261,6.5a30.2,30.2,0,0,1,1.766,2.556" transform="translate(-89.693 -19.888)" fill="#fff"/>
        <path id="Path_5625" data-name="Path 5625" d="M283.211,161.72a14.79,14.79,0,0,0-5.777,1.688c-2.248,1.43-12.888,8.253-16.011,11.35s-8.769,11.326-9.63,12.57-10.908,22.293-10.908,22.293l-1.754,2.958,9.4,4.681,19.436,8.148-7.59,20.826,9.791,4.05,4.581-24.562,48.279,9.016L317,265.927l3.365,2.313h32.817l-2.064-40.7,18.458-14.024.145-6.953s-7.563-15.4-9.819-20.458-10.8-15.2-14.438-17.111-13.164-6.876-13.164-6.876-10.249,4.722-19.624,5.129a83.013,83.013,0,0,1-21.876-2.336,24.875,24.875,0,0,1-7.585-3.187" transform="translate(-72.762 -49.208)" fill="#72005d"/>
        <path id="Path_5626" data-name="Path 5626" d="M330.863,315.651l28.639.191,3.891,48.413-90.065-.191,3.38-29.724,44.574,8.077.778-4.694s2.871-2.427,2.551-4.4-.7-3.445-.7-3.445,3.925-1.53,4.227-3.858a7.99,7.99,0,0,0-.91-4.449l-.7-1.771s2.763-1.617,3.061-1.849a15.447,15.447,0,0,0,1.276-2.3" transform="translate(-83.168 -96.046)" fill="#2e2e2e"/>
        <path id="Path_5627" data-name="Path 5627" d="M298.161,111.286a53.1,53.1,0,0,1-1.627,8.523c-.957,2.631-2.681,8.011-3.613,9.339s-2.176,3.481-.74,5.2,3.874,4.306,9.95,4.928,7.128-.191,7.128-.191,1.291-11.855.43-13.439-4.257-4.317-4.831-5.765-3.158-9.165-3.158-9.165Z" transform="translate(-88.706 -33.689)" fill="#2e2e2e"/>
        <path id="Path_5628" data-name="Path 5628" d="M367.852,111.458a53.1,53.1,0,0,0,1.627,8.523c.957,2.631,2.681,8.011,3.613,9.339s2.176,3.481.74,5.2-3.874,4.306-9.95,4.928-7.128-.191-7.128-.191-1.291-11.855-.431-13.439,4.258-4.317,4.832-5.765,2.582-9.165,2.582-9.165Z" transform="translate(-108.331 -33.742)" fill="#2e2e2e"/>
        <path id="Path_5629" data-name="Path 5629" d="M341.354,36.4c4.318-6.362,1.919-12.323-9.5-12.3-9.062.018-15.735,5.291-10.111,12.421Z" transform="translate(-97.271 -7.334)" fill="#2e2e2e"/>
        <path id="Path_5630" data-name="Path 5630" d="M321.841,58.59s-2.487,3.349-2.583,5.454c-.573.5-14.271,4.33-14.271,4.33L304.62,77.1l-3.924-.455s-1.784-12.062-.909-16.377,3.062-10.668,7.128-13.682,8.756-6.278,15.883-6.248,11.805.843,14.442,2.086,7.229,3.636,9.286,6.506a30,30,0,0,1,4.64,10.381,49.38,49.38,0,0,1,.623,10,34.8,34.8,0,0,1-2.009,7.51l-3.637.28s-.048-7.743-1-9.13c-4.975-2.44-20.858-3.157-20.858-3.157s-1.674-5.262-2.44-6.219" transform="translate(-91.145 -12.273)" fill="#2e2e2e"/>
        <path id="Path_5631" data-name="Path 5631" d="M273.357,364.641l-.068,0a.765.765,0,0,1-.7-.83l4.21-47.87a.774.774,0,0,1,.83-.7.766.766,0,0,1,.7.83l-4.21,47.871a.766.766,0,0,1-.762.7" transform="translate(-82.943 -95.921)" fill="#2e2e2e"/>
        <path id="Path_5632" data-name="Path 5632" d="M272.862,314.555l48.279,9.017,12.145-60.843-48.279-9.016Z" transform="translate(-83.026 -77.199)" fill="#118bcb"/>
        <path id="Path_5633" data-name="Path 5633" d="M321.348,324.072l-49.784-9.3,12.444-62.343,49.784,9.3Zm-47.979-10.517,46.775,8.735,11.844-59.34-46.774-8.736Z" transform="translate(-82.631 -76.809)" fill="#2e2e2e"/>
        <path id="Path_5634" data-name="Path 5634" d="M401.065,364.641a.766.766,0,0,1-.762-.7l-4.21-47.871a.765.765,0,1,1,1.525-.134l4.21,47.87a.765.765,0,0,1-.7.83l-.068,0" transform="translate(-120.522 -95.921)" fill="#2e2e2e"/>
        <path id="Path_5635" data-name="Path 5635" d="M263.286,248.058l-6.919,20.92s29.834,13.332,31.8,13.523,6.244-2.449,7.75-2.775,10.279-4.738,12.479-4.738,4.618-1.94,5.592.113.108-.59-1.615,1.276a74.665,74.665,0,0,1-6.888,5.692l-.718,2.44s.622,4.258,2.583,5.071-6.242,2.137-6.242,2.137l7.343,14.033s2.1,2.919,1.722,4.306-7.729,3.228-9.773,2.523-16.98-8.628-16.98-8.628l-3.624-1.07s-28.943-7.894-30.473-8.42-11.413-5.7-14.7-7.156-8.911-8.153-9.257-11.263,2.876-15.707,2.876-15.707l9.058-24.175Z" transform="translate(-68.564 -71.859)" fill="#fff"/>
        <path id="Path_5636" data-name="Path 5636" d="M425.649,270.752c-13.716,0-19.342-8.116-25.7-19.49a.766.766,0,1,1,1.336-.747c7.445,13.317,12.933,19.205,25.718,18.679,8.285-.32,12.917-6.524,15.019-20.115,3.1-20.052,2.1-49.283,2.089-49.576a.765.765,0,1,1,1.53-.054c.01.295,1.016,29.669-2.106,49.863-2.235,14.454-7.315,21.058-16.472,21.412q-.72.027-1.413.027" transform="translate(-121.665 -60.463)" fill="#2e2e2e"/>
        <path id="Path_5637" data-name="Path 5637" d="M425.641,235.493h-.05a.766.766,0,0,1-.714-.813l2.209-34.4a.738.738,0,0,1,.813-.715.766.766,0,0,1,.715.813l-2.209,34.4a.765.765,0,0,1-.763.716" transform="translate(-129.28 -60.722)" fill="#2e2e2e"/>
        <path id="Path_5638" data-name="Path 5638" d="M389.283,284.5h-33.73a.765.765,0,1,1,0-1.531H387.71c-.353-10.443-2.885-43.166-4.262-60.959-.3-3.942-.561-7.254-.737-9.587a.767.767,0,0,1,.705-.822.778.778,0,0,1,.821.705c.176,2.334.432,5.645.737,9.586,1.514,19.563,4.047,52.306,4.29,61.823Z" transform="translate(-107.954 -64.385)" fill="#2e2e2e"/>
        <path id="Path_5639" data-name="Path 5639" d="M328.934,129.9h-2.79a19.9,19.9,0,0,1-19.878-19.877.765.765,0,1,1,1.531,0,18.368,18.368,0,0,0,18.347,18.346h2.79a18.368,18.368,0,0,0,18.347-18.346.766.766,0,1,1,1.531,0A19.9,19.9,0,0,1,328.934,129.9" transform="translate(-93.19 -33.243)" fill="#2e2e2e"/>
        <path id="Path_5640" data-name="Path 5640" d="M300.408,106.171a7.049,7.049,0,1,1,2.8-13.519.765.765,0,1,1-.608,1.4,5.519,5.519,0,1,0,.173,10.051.765.765,0,1,1,.657,1.381,6.974,6.974,0,0,1-3.025.682" transform="translate(-89.263 -28.016)" fill="#2e2e2e"/>
        <path id="Path_5641" data-name="Path 5641" d="M298.33,100.791a.765.765,0,0,1-.765-.756,3.866,3.866,0,0,1,1.157-2.993,4.352,4.352,0,0,1,3.447-.943.767.767,0,0,1,.689.836.79.79,0,0,1-.835.689,2.875,2.875,0,0,0-2.265.545,2.441,2.441,0,0,0-.662,1.848.765.765,0,0,1-.756.774Z" transform="translate(-90.542 -29.232)" fill="#2e2e2e"/>
        <path id="Path_5642" data-name="Path 5642" d="M368.68,106.171a6.974,6.974,0,0,1-3.025-.682.765.765,0,1,1,.657-1.381,5.518,5.518,0,1,0,.173-10.051.765.765,0,1,1-.609-1.4,7.05,7.05,0,1,1,2.8,13.519" transform="translate(-111.128 -28.016)" fill="#2e2e2e"/>
        <path id="Path_5643" data-name="Path 5643" d="M373.039,100.791h-.009a.765.765,0,0,1-.756-.774,2.438,2.438,0,0,0-.662-1.848,2.877,2.877,0,0,0-2.264-.545.788.788,0,0,1-.836-.689.766.766,0,0,1,.689-.836,4.372,4.372,0,0,1,3.447.943,3.866,3.866,0,0,1,1.157,2.993.765.765,0,0,1-.765.756" transform="translate(-112.129 -29.232)" fill="#2e2e2e"/>
        <path id="Path_5644" data-name="Path 5644" d="M349.855,77.732a.838.838,0,0,1-.159-.017.766.766,0,0,1-.591-.907c1.275-6.02,3.022-14.264-.414-22.079-6.194-14.086-21.345-14.2-25.847-13.9-8.375.561-18.435,4.515-21.554,13.923-3.512,10.6-.285,21.386-.252,21.494a.765.765,0,1,1-1.463.448c-.141-.459-3.4-11.363.262-22.423,3.357-10.128,14.033-14.374,22.9-14.971,4.754-.317,20.756-.189,27.351,14.808,3.634,8.267,1.83,16.79.511,23.012a.767.767,0,0,1-.749.607" transform="translate(-90.707 -11.939)" fill="#2e2e2e"/>
        <path id="Path_5645" data-name="Path 5645" d="M399.332,251.027a.766.766,0,0,1-.452-1.384l18.9-13.8a.766.766,0,0,1,.9,1.238l-18.9,13.8a.767.767,0,0,1-.451.147" transform="translate(-121.275 -71.718)" fill="#2e2e2e"/>
        <path id="Path_5646" data-name="Path 5646" d="M404.994,199a.766.766,0,0,1-.7-.452c-2.275-5.065-4.478-9.966-5.634-12.48-6.69-14.555-11.808-23.95-31.842-33.269-1.391-.648-5.623-2.224-8.022-3.105a5.228,5.228,0,0,1-3.318-3.663c-1.274-5.32-1.019-13.676-1.006-14.029a.765.765,0,0,1,.764-.74h.025a.765.765,0,0,1,.74.791c0,.083-.26,8.5.966,13.622a3.7,3.7,0,0,0,2.358,2.582c2.421.889,6.7,2.483,8.139,3.154,20.519,9.545,25.751,19.144,32.587,34.016,1.156,2.518,3.363,7.424,5.64,12.492a.765.765,0,0,1-.384,1.012.751.751,0,0,1-.313.067" transform="translate(-107.849 -39.942)" fill="#2e2e2e"/>
        <path id="Path_5647" data-name="Path 5647" d="M267.551,248.019a.78.78,0,0,1-.3-.06L238.5,235.8a.766.766,0,0,1,.6-1.412l28.755,12.161a.766.766,0,0,1-.3,1.471" transform="translate(-72.427 -71.301)" fill="#2e2e2e"/>
        <path id="Path_5648" data-name="Path 5648" d="M238.612,204.452a.757.757,0,0,1-.3-.063.765.765,0,0,1-.4-1.006l1.4-3.253,1.07-2.223a189.845,189.845,0,0,1,12.064-22.253c7.32-11.407,12.538-16.5,29.008-24.159,1.441-.671,5.875-2.274,8.39-3.168a3.694,3.694,0,0,0,2.395-2.6c1.219-5.125.966-13.33.964-13.413a.764.764,0,0,1,.739-.79.8.8,0,0,1,.79.74c.012.346.262,8.5-1,13.82a5.216,5.216,0,0,1-3.37,3.682c-2.489.887-6.873,2.468-8.256,3.114-16.127,7.5-21.228,12.472-28.367,23.6a188.5,188.5,0,0,0-11.972,22.089l-1.059,2.2-1.389,3.223a.765.765,0,0,1-.7.462" transform="translate(-72.372 -40.021)" fill="#2e2e2e"/>
        <path id="Path_5649" data-name="Path 5649" d="M348.047,85.932h0a.766.766,0,0,1-.762-.769c0-.067.018-6.518-1.052-9.154-3.817-2.31-14.16-3.5-19.439-3.169a1.268,1.268,0,0,1-1.3-.961,51.09,51.09,0,0,0-1.6-5.249,10.9,10.9,0,0,0-1.288,3.68,11.86,11.86,0,0,1-.412,1.6,1.224,1.224,0,0,1-1.1.786c-5.092.243-11.366,2.189-13.295,3.468v8.671a.765.765,0,1,1-1.531,0V75.416l.275-.228c1.846-1.54,8.887-3.712,14.28-4.014.1-.321.186-.726.282-1.183a10.837,10.837,0,0,1,2.057-4.948,1.089,1.089,0,0,1,1.024-.371,1.129,1.129,0,0,1,.865.7,51.761,51.761,0,0,1,1.873,5.93c5.587-.285,16.347.943,20.332,3.547l.184.121.093.2c1.3,2.8,1.282,9.713,1.28,10.006a.766.766,0,0,1-.765.761" transform="translate(-93.19 -19.674)" fill="#2e2e2e"/>
        <path id="Path_5650" data-name="Path 5650" d="M306.976,140.69c-7.867,0-13.905-1.984-15.943-5.3a4.8,4.8,0,0,1-.019-5.045,52.58,52.58,0,0,0,5.914-19.251.756.756,0,0,1,.857-.661.766.766,0,0,1,.662.858,54.042,54.042,0,0,1-6.088,19.786,3.307,3.307,0,0,0-.021,3.511c1.85,3.006,8.164,4.789,16.1,4.542a.794.794,0,0,1,.788.742.766.766,0,0,1-.741.79c-.509.015-1.014.024-1.51.024" transform="translate(-88.334 -33.601)" fill="#2e2e2e"/>
        <path id="Path_5651" data-name="Path 5651" d="M358.836,140.69c-.5,0-1-.009-1.51-.024a.766.766,0,0,1-.741-.79.788.788,0,0,1,.789-.742c7.917.244,14.25-1.535,16.1-4.542a3.305,3.305,0,0,0-.021-3.511,54.043,54.043,0,0,1-6.088-19.786.766.766,0,0,1,1.519-.2A52.579,52.579,0,0,0,374.8,130.35a4.8,4.8,0,0,1-.019,5.045c-2.038,3.312-8.077,5.3-15.943,5.3" transform="translate(-108.501 -33.601)" fill="#2e2e2e"/>
        <path id="Path_5652" data-name="Path 5652" d="M321.409,37.407a.764.764,0,0,1-.6-.292c-2.85-3.614-2.46-6.415-1.631-8.13,1.619-3.349,6.463-5.52,12.341-5.532h.068c7.5,0,10.391,2.482,11.5,4.567,1.311,2.466.8,5.639-1.433,8.931a.766.766,0,1,1-1.266-.861c1.9-2.8,2.378-5.41,1.348-7.352-1.286-2.422-4.89-3.753-10.15-3.753h-.062c-5.3.01-9.6,1.842-10.965,4.667-.916,1.894-.413,4.147,1.455,6.515a.765.765,0,0,1-.6,1.239" transform="translate(-96.934 -7.137)" fill="#2e2e2e"/>
        <path id="Path_5653" data-name="Path 5653" d="M282.124,304.105a.823.823,0,0,1-.186-.022c-.1-.026-10.182-2.546-13.841-3.649-1.721-.519-3.7-1.059-5.847-1.645-12.817-3.5-32.184-8.79-37.137-20.949-1.412-3.465-.1-11.3,3.911-23.3l6.324-18.231a.765.765,0,1,1,1.446.5l-6.321,18.222c-4.839,14.488-4.815,20.086-3.942,22.228,4.668,11.459,23.6,16.628,36.123,20.049,2.16.589,4.153,1.135,5.886,1.656,3.625,1.093,13.67,3.6,13.77,3.628a.766.766,0,0,1-.184,1.508" transform="translate(-68.33 -71.748)" fill="#2e2e2e"/>
        <path id="Path_5654" data-name="Path 5654" d="M326.146,167.782c-9.357,0-18.436-2.059-25.059-6.149a.766.766,0,0,1,.8-1.3c12.479,7.71,34.008,7.946,49.012.54a.765.765,0,0,1,.678,1.372,58.6,58.6,0,0,1-25.435,5.541" transform="translate(-91.504 -48.751)" fill="#2e2e2e"/>
        <path id="Path_5655" data-name="Path 5655" d="M336.009,303.108s9.593,1.384,10.482,4.406,1.7,3.094.042,4.457a4.068,4.068,0,0,1-3.2,1.039s2.74,2.477,1.817,4.583-2.043,3.483-3.066,3.465-1.651-.054-1.651-.054,2.09,1.221,1.751,3.3-.917,3.669-1.782,3.83a27.909,27.909,0,0,1-3.211.156s1.563,2.333.352,3.447-2.43,2.716-5.052,1.823a25.963,25.963,0,0,1-6.137-3.244c-.552-.469,1.842-17.847,2.487-18.591.266-.307,1.538-1.833,2.937-3.518.182-.218-4.344-10.294-2.84-11.584,4.2-3.6,15.876-6.661,16.425-4.05,1.441,6.864-9.353,10.533-9.353,10.533" transform="translate(-99.277 -88.727)" fill="#fff"/>
        <path id="Path_5656" data-name="Path 5656" d="M318.368,291.763a.765.765,0,0,1-.566-1.278,22.337,22.337,0,0,1,6.012-4.105c2.286-1.172,3.546-2.349,3.745-3.5a2.987,2.987,0,0,0-1.062-2.5c-2.187-2.329-15.027,4.261-20.513,7.076a10.936,10.936,0,0,1-3.872,1.077,9.947,9.947,0,0,1-1.721-.343c-6.238-1.5-30.455-13.361-31.483-13.864l-.613-.3,7.743-21.716a.758.758,0,0,1,.978-.465.767.767,0,0,1,.465.979L270.2,273.257c3.884,1.892,25.017,12.122,30.576,13.455a9.777,9.777,0,0,0,1.362.3h.028a8.31,8.31,0,0,0,3.124-.911c12.261-6.289,19.845-9.408,22.328-6.759a4.44,4.44,0,0,1,1.453,3.806c-.29,1.668-1.78,3.172-4.553,4.6a21.6,21.6,0,0,0-5.58,3.771.764.764,0,0,1-.565.249" transform="translate(-81.636 -76.618)" fill="#2e2e2e"/>
        <path id="Path_5657" data-name="Path 5657" d="M328.694,347.017c-2.368,0-5.313-1.707-8.164-3.5-3.993-2.51-13.487-10.033-13.889-10.353a.765.765,0,1,1,.951-1.2c.1.078,9.83,7.79,13.752,10.256,2.26,1.42,6.042,3.792,8.108,3.159a2.12,2.12,0,0,0,1.307-1.3c.64-1.48.415-2.51-2.592-4.032a.766.766,0,1,1,.692-1.366c2.515,1.274,4.657,2.882,3.305,6.005a3.607,3.607,0,0,1-2.259,2.159,4.051,4.051,0,0,1-1.213.173" transform="translate(-93.216 -100.96)" fill="#2e2e2e"/>
        <path id="Path_5658" data-name="Path 5658" d="M348.019,318.681a15.988,15.988,0,0,1-3.957-.7.765.765,0,1,1,.4-1.477c2.389.641,4.06.915,5.005.308a3,3,0,0,0,1.079-2.172c.4-2.519-2.532-3.479-7.758-4.959-1.1-.311-2.248-.637-3.424-1a.766.766,0,0,1,.458-1.462c1.163.365,2.3.687,3.383.993,5.093,1.442,9.492,2.687,8.852,6.674A4.384,4.384,0,0,1,350.3,318.1a4.1,4.1,0,0,1-2.278.586" transform="translate(-103.097 -93.467)" fill="#2e2e2e"/>
        <path id="Path_5659" data-name="Path 5659" d="M346.4,330.9a7.091,7.091,0,0,1-3.17-.833.766.766,0,1,1,.685-1.369,4.528,4.528,0,0,0,3.709.444,2.549,2.549,0,0,0,1.455-1.425,4.178,4.178,0,0,0,.1-3.221,4.591,4.591,0,0,0-2.866-2.069.765.765,0,1,1,.481-1.453,6.021,6.021,0,0,1,3.758,2.846,5.7,5.7,0,0,1-.031,4.4,4.063,4.063,0,0,1-2.324,2.338,4.746,4.746,0,0,1-1.8.34" transform="translate(-104.309 -97.654)" fill="#2e2e2e"/>
        <path id="Path_5660" data-name="Path 5660" d="M342.865,341.892a6.719,6.719,0,0,1-3.435-1.111.765.765,0,0,1,.788-1.312c1.406.843,2.624,1.1,3.519.734a2.684,2.684,0,0,0,1.456-1.9c.5-1.888.629-3.118-2.912-4.592a.766.766,0,0,1,.587-1.414c4.146,1.725,4.535,3.653,3.8,6.4a4.149,4.149,0,0,1-2.361,2.924,3.835,3.835,0,0,1-1.448.271" transform="translate(-103.168 -101.093)" fill="#2e2e2e"/>
        <path id="Path_5661" data-name="Path 5661" d="M460.435,188.88a.752.752,0,0,1-.365-.094.765.765,0,0,1-.306-1.038c5.163-9.465,6.243-17.111,6.467-19.959.216-2.738-.634-4.366-2.525-4.837a2.043,2.043,0,0,0-1.586.3,2.575,2.575,0,0,0-1.15,1.517l-.876,4.906a6.95,6.95,0,0,1-2.923,4.643,3.78,3.78,0,0,1-2.992.515c-2.441-.673-3.463-2.441-3.124-5.409a.765.765,0,1,1,1.521.174c-.295,2.578.59,3.368,2.011,3.758a2.26,2.26,0,0,0,1.781-.341,5.426,5.426,0,0,0,2.223-3.625l.879-4.917a4.118,4.118,0,0,1,1.841-2.521,3.576,3.576,0,0,1,2.766-.483c2.65.66,3.957,2.949,3.682,6.442-.232,2.946-1.346,10.849-6.65,20.572a.763.763,0,0,1-.673.4" transform="translate(-137.227 -49.101)" fill="#2e2e2e"/>
        <path id="Path_5662" data-name="Path 5662" d="M422.7,182.176a.765.765,0,0,1-.655-.368c-.061-.1-6.07-9.979-9.956-14.125-3.022-3.224-4.4-6.594-3.6-8.795a3.539,3.539,0,0,1,3.242-2.232c3.568-.426,7.364,3.621,10.421,6.865l.244.257v0c.307-4.5.222-8.294.148-11.639a59.18,59.18,0,0,1,.166-8.221c.314-2.532,1.139-4.322,2.455-5.321a3.98,3.98,0,0,1,3.041-.783c3.45.522,3.691,3.264,4.055,7.414a65.757,65.757,0,0,1,.146,7.823c0,.111-.006.22-.008.327a4.764,4.764,0,0,1,3.729-1.553,4.457,4.457,0,0,1,4.057,2.612,4.426,4.426,0,0,1,3.836-1.611c1.972.232,3.435,1.865,3.915,4.37a.766.766,0,0,1-1.5.287c-.352-1.842-1.3-2.984-2.589-3.136a3.185,3.185,0,0,0-3.121,2.073l-.234.522-.66-.021a.855.855,0,0,1-.73-.726,2.965,2.965,0,0,0-3.087-2.843,3.69,3.69,0,0,0-3.484,2.768l-.136.619-.687.076-.637-.02-.152-.746a20.071,20.071,0,0,1-.037-3.041,64.645,64.645,0,0,0-.141-7.647c-.4-4.54-.721-5.725-2.758-6.035a2.5,2.5,0,0,0-1.888.49c-.961.728-1.6,2.211-1.861,4.288a58.4,58.4,0,0,0-.154,8c.075,3.377.159,7.2-.151,11.777a1.441,1.441,0,0,1-2.641.95l-.244-.258c-2.674-2.838-6.346-6.7-9.127-6.4a2.118,2.118,0,0,0-1.983,1.24c-.577,1.579.769,4.549,3.275,7.222,4,4.263,9.9,13.966,10.147,14.376a.765.765,0,0,1-.653,1.163" transform="translate(-124.226 -41.918)" fill="#2e2e2e"/>
        <path id="Path_5663" data-name="Path 5663" d="M444.733,174.977a2.9,2.9,0,0,1-2.151-1.057c-1.657-1.827-2.377-5.779-1.876-10.314a.78.78,0,0,1,.845-.677.765.765,0,0,1,.678.845c-.543,4.92.462,7.988,1.487,9.12a1.279,1.279,0,0,0,1.03.553c1.257-.015,2.667-.436,3.479-5.249l.768-4.515,1.508.257-.766,4.512c-.541,3.2-1.554,6.484-4.971,6.526Z" transform="translate(-134.05 -49.575)" fill="#2e2e2e"/>
        <path id="Path_5664" data-name="Path 5664" d="M465.959,178.1a4,4,0,0,1-2.079-.617c-1.636-1-2.176-3.5-1.606-7.424a.765.765,0,1,1,1.515.221c-.644,4.435.408,5.6.891,5.9a2.224,2.224,0,0,0,1.974.265c1.037-.4,1.908-1.68,2.514-3.709a.765.765,0,1,1,1.467.439c-.759,2.536-1.914,4.117-3.433,4.7a3.46,3.46,0,0,1-1.242.23" transform="translate(-140.593 -51.547)" fill="#2e2e2e"/>
        <path id="Path_5665" data-name="Path 5665" d="M68.087,348.473l-.806,25.514h70.73l-.717-25.3Z" transform="translate(-20.472 -106.033)" fill="#fff"/>
        <path id="Path_5666" data-name="Path 5666" d="M136.783,60.683c1.659,4.528,2.371,5.741,2.36,8.42s-.957,10.4-.063,13.012a25.72,25.72,0,0,0,2.679,5.613c.957,1.595,1.54.255,1.631,2.233s.3,1.85-1.631,2.551a6.363,6.363,0,0,0-2.934,2.233s-7.718,14.415-9.7,15.883-5.23,3.954-5.23,6.761.76,9.124,2.041,12.375a59.745,59.745,0,0,1,2.041,6.187s-23.026-1.467-29.086-3.764-6.251-7.59-6.251-7.59,5.294-10.4,5.486-14.033.51-9.568.51-9.568-3.508-19.04,1.371-24.206,36.772-16.106,36.772-16.106" transform="translate(-28.19 -18.464)" fill="#fff"/>
        <path id="Path_5667" data-name="Path 5667" d="M85.26,154.685a7.794,7.794,0,0,0-2.407,2.233,145.325,145.325,0,0,0-8.292,15.563c-1.4,3.636-5.166,18.689-5.677,22.07s-1.275,21.5-1.275,21.5l-1,31.573-.271,26.217.379,15.839,72.814-.02V265.034l-.482-6.826s-16.775,2.808-23.664,2.744-14.1-.447-17.094-1.467-6.315-5.1-8.165-8.93-4.272-20.977-4.272-20.977l32.21-6.355L120.2,234.77l13.613-.8,3.838-.575s-1.223-23.139-1.924-27.045-3.989-20.827-5.758-23.936-8.541-17.749-8.541-17.749a13.838,13.838,0,0,0-1.456-1.5c-.2-.055-7.462.383-11.736-.319a77.879,77.879,0,0,1-11.927-2.809c-1.787-.763-6.443-2.293-6.443-2.293Z" transform="translate(-20.185 -47.067)" fill="#118bcb"/>
        <path id="Path_5668" data-name="Path 5668" d="M98.895,85.179s.861.813.574,2.918-2.249,5.119-3.445,6.458a4.469,4.469,0,0,1-2.631,1.483s-6.362-3.014-8.276-7.463-6.237-13.923-6.2-19.137S80,55.04,83.3,49.682s11.672-10.62,15.787-11.625,8.226-2.4,14.207-1.892A30.641,30.641,0,0,1,125.158,39.3c2.535,1.244,8.276,4.066,10.19,4.592s3.4,1.053,3.588,1.531a5.763,5.763,0,0,1-.383,4.449c-1.053,2.2-2.281,5.393-6.929,6.021s-11.632,2.446-14.694,5.269-4.278,4.542-4.555,6.361.728,9.091,2.115,11.578a15.694,15.694,0,0,0,7.989,6.41c3.253,1.053,9.425,1.287,9.425,1.287l3.263.676s.994,8.084-.967,10.858-3.673,6.287-6.979,7.09-6.272,1.474-9.62.995-6.793-3.014-7.654-4.5-2.2-9.328-1.339-12.677A28.7,28.7,0,0,0,108.7,78c-.622-2.105-.447-3.286-3.4-3.844s-5.435-.358-6.373,1.767-2.214,2.69-1.656,5.091a15.741,15.741,0,0,0,1.627,4.162" transform="translate(-24.011 -10.972)" fill="#2e2e2e"/>
        <path id="Path_5669" data-name="Path 5669" d="M111.024,103.931H111c-.178-.006-.358-.018-.538-.038a7.266,7.266,0,0,1-3.808-12.876,7.279,7.279,0,0,1,8.145-.679.766.766,0,1,1-.752,1.334,5.737,5.737,0,1,0-3.426,10.7c.14.013.282.025.422.029a.765.765,0,0,1-.021,1.531" transform="translate(-31.633 -27.202)" fill="#2e2e2e"/>
        <path id="Path_5670" data-name="Path 5670" d="M109.4,98.264l-.072,0a.767.767,0,0,1-.691-.834,4.111,4.111,0,0,1,1.738-3.067,4.008,4.008,0,0,1,3.464-.44.765.765,0,1,1-.441,1.464,2.51,2.51,0,0,0-2.168.247,2.581,2.581,0,0,0-1.068,1.939.766.766,0,0,1-.762.694" transform="translate(-33.054 -28.516)" fill="#2e2e2e"/>
        <path id="Path_5671" data-name="Path 5671" d="M158.934,94.684a.765.765,0,0,1-.13-1.519c3.207-.557,3.6-1.357,3.623-1.912.035-1.062-.529-1.659-1.923-3.023-1.336-1.307-2.506-2.782-2.526-6.78l-.038-9.523c0-.511-.013-.954-.044-1.394a36.8,36.8,0,0,0-.885-6.822.765.765,0,1,1,1.46-.457,37.146,37.146,0,0,1,.952,7.192c.033.448.045.924.047,1.474l.038,9.522c.019,3.689,1.09,4.738,2.034,5.662,1.451,1.42,2.475,2.423,2.414,4.2-.077,2.246-2.654,2.979-4.891,3.367a.651.651,0,0,1-.132.012" transform="translate(-47.764 -19.083)" fill="#2e2e2e"/>
        <path id="Path_5672" data-name="Path 5672" d="M121.685,163.292c-11.885,0-24.3-4.945-30.208-9.121a.765.765,0,1,1,.884-1.25c6.671,4.718,21.917,10.447,34.912,8.425a.766.766,0,0,1,.237,1.513,38.033,38.033,0,0,1-5.825.432" transform="translate(-27.736 -46.488)" fill="#2e2e2e"/>
        <path id="Path_5673" data-name="Path 5673" d="M158.485,228.7a.766.766,0,0,1-.764-.728l-.106-2.2c-1-20.79-2.125-44.355-16.393-67.066-2.457-3.911-3.3-6.017-3.938-9.8a33.268,33.268,0,0,1-.189-11.342.765.765,0,1,1,1.5.3,31.429,31.429,0,0,0,.2,10.789c.6,3.586,1.368,5.487,3.725,9.238,14.481,23.05,15.621,46.827,16.626,67.806l.106,2.2a.764.764,0,0,1-.727.8h-.038" transform="translate(-41.589 -41.671)" fill="#2e2e2e"/>
        <path id="Path_5674" data-name="Path 5674" d="M139.121,280.318l-74.567-.264-.015-.747c-.008-.417-.839-42.18,1.97-87.417.8-12.808,4.311-31.586,16.546-48.31a44.019,44.019,0,0,0,6.266-21.16.839.839,0,0,1,.785-.744.766.766,0,0,1,.746.786,45.6,45.6,0,0,1-6.531,21.975c-12.047,16.473-15.5,34.945-16.285,47.548-2.6,41.853-2.078,80.722-1.98,86.544l71.539.253c.01-3.378.039-17.382-.081-30.926a.766.766,0,0,1,.759-.773.744.744,0,0,1,.772.758c.137,15.478.079,31.553.079,31.713Z" transform="translate(-19.601 -37.023)" fill="#2e2e2e"/>
        <path id="Path_5675" data-name="Path 5675" d="M66.5,374.406h-.019a.766.766,0,0,1-.747-.783l.628-25.742a.751.751,0,0,1,.784-.747.766.766,0,0,1,.747.783l-.629,25.742a.766.766,0,0,1-.765.747" transform="translate(-20 -105.625)" fill="#2e2e2e"/>
        <path id="Path_5676" data-name="Path 5676" d="M168.713,375.016a.764.764,0,0,1-.765-.755l-.368-25.806a.766.766,0,0,1,.754-.776.745.745,0,0,1,.777.755l.367,25.806a.766.766,0,0,1-.754.776Z" transform="translate(-50.991 -105.789)" fill="#2e2e2e"/>
        <path id="Path_5677" data-name="Path 5677" d="M120.5,107.5a15.264,15.264,0,0,1-9.124-3.205c-5.7-4.2-4.327-13.731-3.323-20.689l.051-.359c.18-1.248.563-5.524-2.067-8.174A.766.766,0,0,1,107.124,74c3.129,3.154,2.7,8.047,2.5,9.472l-.052.36c-.949,6.573-2.249,15.577,2.716,19.237,7.841,5.781,14.784,1.836,17.65-1.408,3.5-3.964,4.2-8.4,4.074-14.208-1.573-.2-3-.243-4.387-.29a26.3,26.3,0,0,1-9.449-1.6c-6.723-2.541-10-12.058-8.841-19.352l.072-.226c2.683-5.315,7-9.24,19.374-11.119,5.242-.8,7.319-5.2,7.5-8.735a.775.775,0,0,0-.567-.8,33.224,33.224,0,0,1-7.867-3.22c-1.484-.763-3.165-1.627-5.368-2.63-9.192-4.186-19.715-3.48-26.064-.928C87,43.135,80.6,50.7,79.392,61.04a41.927,41.927,0,0,0,7.686,28.942c4.316,6.133,6.812,5.132,6.834,5.121h0c-.015,0,4.858-3.8,4.414-9.753a.765.765,0,1,1,1.526-.113c.509,6.822-4.879,10.974-5.108,11.148-.45.26-3.769,1.8-8.917-5.52a43.464,43.464,0,0,1-7.956-30c1.281-10.936,8-18.922,19.975-23.736,6.654-2.676,17.666-3.416,27.269.955,2.237,1.019,3.935,1.892,5.434,2.661a32.014,32.014,0,0,0,7.537,3.1,2.31,2.31,0,0,1,1.726,2.368c-.215,4.105-2.65,9.232-8.8,10.167-11.678,1.775-15.643,5.216-18.184,10.19-.988,6.55,1.988,15.332,7.888,17.563a25.079,25.079,0,0,0,8.958,1.5,43.367,43.367,0,0,1,5.2.392l.633.093.02.64c.2,6.5-.472,11.427-4.441,15.917A14.262,14.262,0,0,1,120.5,107.5" transform="translate(-23.611 -10.637)" fill="#2e2e2e"/>
        <path id="Path_5678" data-name="Path 5678" d="M211.739,240.838l1.914,15.309s11.863-1.638,14.67-1.521,8.548.883,8.548.883l1.148-14.1Z" transform="translate(-64.428 -73.282)" fill="#4671f0"/>
        <path id="Path_5679" data-name="Path 5679" d="M235.8,274.167H214.082l-3.162-33.4a.765.765,0,0,1,.689-.834.776.776,0,0,1,.834.691l3.032,32.016H234.4l3.032-32.016a.782.782,0,0,1,.834-.691.765.765,0,0,1,.689.834Z" transform="translate(-64.177 -73.005)" fill="#2e2e2e"/>
        <path id="Path_5680" data-name="Path 5680" d="M237.56,231.568H211.431l-1.548,6.581h29.226Z" transform="translate(-63.863 -70.461)" fill="#fff"/>
        <path id="Path_5681" data-name="Path 5681" d="M239.653,238.579H208.494l1.908-8.11h27.341Zm-29.226-1.531H237.72L236.531,232H211.614Z" transform="translate(-63.44 -70.127)" fill="#2e2e2e"/>
        <path id="Path_5682" data-name="Path 5682" d="M93.326,259.1s2.452,11.42,3.161,15.419,3.569,11.541,6.688,13.254,13.183,3.072,18.8,2.909,25.678-3.131,28.065-3.454,21.742-4.645,21.742-4.645,7.288.3,12.064.064,8.13-.9,10.968-.9,5.563-1.009,5.846-2.02.541-3.979.057-4.366a1.854,1.854,0,0,1-.581-1.065s3.258.033,4-2.1.484-3.839-.129-4.452a33.441,33.441,0,0,1-2.1-2.742,3.485,3.485,0,0,0,1.451-1.9c.161-1.064-.234-5.63-2.009-6.049a37.708,37.708,0,0,0-6.7-.143s-9.264,1.87-9.908,1.935-8.133,1.265-8.133,1.265l-.673-7.071a36.64,36.64,0,0,1-4.1,5.506c-1.548,1.4-2.776,2.866-5.291,2.938s-22.125,2.134-26.126,2.3-12.582.486-12.582.486l-2.581-11.549Z" transform="translate(-28.397 -76.894)" fill="#fff"/>
        <path id="Path_5683" data-name="Path 5683" d="M83.524,238.849l-.163-.733c-.463-2.085-.948-4.172-1.435-6.27-2-8.593-4.058-17.479-4.79-27.042a.765.765,0,1,1,1.526-.117c.723,9.447,2.772,18.276,4.755,26.814.431,1.855.861,3.7,1.275,5.55l38.24-7.726a215.536,215.536,0,0,0-2.538-23.97c-1.446-8.89-2.812-17.287-6.081-22.713a.765.765,0,1,1,1.311-.79c3.422,5.678,4.81,14.217,6.281,23.257a220.275,220.275,0,0,1,2.6,24.788l.041.665Z" transform="translate(-23.47 -55.221)" fill="#2e2e2e"/>
        <path id="Path_5684" data-name="Path 5684" d="M235.536,282.643a.765.765,0,0,1-.06-1.528c.685-.056,1.357-.1,2.007-.138,2.364-.146,4.405-.272,5.586-.9a1.836,1.836,0,0,0,1.208-2.153c-.1-1.222-1.665-2.2-3.458-2.111-5.4.167-14.194,1.133-14.282,1.143a.765.765,0,1,1-.167-1.522c.088-.009,8.945-.982,14.4-1.153,2.691-.058,4.871,1.465,5.033,3.522a3.329,3.329,0,0,1-2.017,3.623c-1.472.782-3.667.918-6.209,1.076-.641.039-1.3.081-1.981.134l-.061,0" transform="translate(-68.672 -83.458)" fill="#2e2e2e"/>
        <path id="Path_5685" data-name="Path 5685" d="M234.641,264.646a.765.765,0,0,1-.024-1.531c2-.065,3.227-.346,3.642-.836.135-.159.26-.416.164-1.12-.121-.9-.144-.918-.532-1.227-2.021-1.61-8.747-.753-13.631.033-5.687.913-10.9,1.434-10.949,1.438a.765.765,0,1,1-.151-1.523c.051,0,5.217-.52,10.856-1.428,8.442-1.356,12.876-1.271,14.829.284a2.658,2.658,0,0,1,1.1,2.217,2.868,2.868,0,0,1-.513,2.315c-.747.882-2.171,1.293-4.762,1.377Z" transform="translate(-64.65 -78.351)" fill="#2e2e2e"/>
        <path id="Path_5686" data-name="Path 5686" d="M140.862,264.623l-2.349-12.658a.766.766,0,0,1,1.506-.278l2.106,11.344c4.6-.225,31.6-1.6,39.99-3.289,1.9-.383,2.789-1.978,3.91-4a18.266,18.266,0,0,1,3.585-4.947.766.766,0,0,1,1.033,1.131,16.775,16.775,0,0,0-3.28,4.559c-1.208,2.177-2.349,4.233-4.947,4.755-9.252,1.861-39.6,3.289-40.888,3.349Z" transform="translate(-42.142 -76.252)" fill="#2e2e2e"/>
        <path id="Path_5687" data-name="Path 5687" d="M117.429,293.834c-6.33,0-11.582-.726-14.541-2.621-5.914-3.783-8.126-15.12-9.9-24.227-.385-1.977-.748-3.838-1.122-5.473a.765.765,0,0,1,1.492-.341c.378,1.65.744,3.527,1.133,5.519,1.721,8.824,3.863,19.8,9.225,23.234,11.959,7.654,66.584-5.445,67.134-5.578l.141-.033.143.019c7.691,1.062,24.023-.877,27.065-1.765a2.782,2.782,0,0,0,2.207-2.713c-.17-1.029-1.464-1.581-3.476-1.5-5.851.255-11.043.718-11.095.722a.766.766,0,0,1-.137-1.525c.052,0,5.279-.471,11.164-.728,4.243-.148,4.94,2.082,5.054,2.782.306,1.858-1.137,3.8-3.289,4.432-3.193.932-19.48,2.9-27.558,1.831-2.859.688-33.623,7.965-53.639,7.965" transform="translate(-27.946 -79.288)" fill="#2e2e2e"/>
        <path id="Path_5688" data-name="Path 5688" d="M241.363,273.13h-.074a.765.765,0,0,1-.748-.781.789.789,0,0,1,.781-.75c.028-.015,2.825.034,3.982-1.392a2.334,2.334,0,0,0,.3-1.535,2.107,2.107,0,0,0-.865-1.483c-1.1-.6-10.549.1-19.034,1.135a.747.747,0,0,1-.852-.667.766.766,0,0,1,.668-.852c5.5-.667,18.464-2.084,20.131-.845a3.636,3.636,0,0,1,1.47,2.522,3.755,3.755,0,0,1-.631,2.69c-1.521,1.876-4.6,1.958-5.13,1.958" transform="translate(-68.417 -80.776)" fill="#2e2e2e"/>
        <path id="Path_5689" data-name="Path 5689" d="M501.548,386.449H10.582a.765.765,0,1,1,0-1.531H501.548a.765.765,0,1,1,0,1.531" transform="translate(-2.987 -117.122)" fill="#2e2e2e"/>
        <path id="Path_5690" data-name="Path 5690" d="M439.816,61.735a21.36,21.36,0,1,1,15.12-6.251,21.36,21.36,0,0,1-15.12,6.251m0-41.443a20.1,20.1,0,1,0,14.231,5.9,19.976,19.976,0,0,0-14.231-5.9" transform="translate(-127.333 -5.785)" fill="#536876"/>
        <path id="Path_5691" data-name="Path 5691" d="M430.2,69.153a2,2,0,0,1-1.946-1.518l-1.627-6.5-.335-.1a27.41,27.41,0,0,1-5.764-2.42l-.31-.172-5.679,3.412a2.016,2.016,0,0,1-1.033.285,1.928,1.928,0,0,1-.245-.015,2.021,2.021,0,0,1-1.172-.574l-5.219-5.219a2,2,0,0,1-.3-2.45l3.444-5.747-.167-.31a27.4,27.4,0,0,1-2.361-5.789l-.095-.342-6.428-1.606a2,2,0,0,1-1.519-1.946V30.761a2.006,2.006,0,0,1,1.519-1.947l6.5-1.627.1-.335a27.5,27.5,0,0,1,2.419-5.765l.173-.31L406.749,15.1a2,2,0,0,1,.3-2.45l5.219-5.22a2,2,0,0,1,2.45-.3l5.745,3.445.31-.168a27.4,27.4,0,0,1,5.789-2.361l.34-.095,1.607-6.429A2,2,0,0,1,430.451,0h7.385a2,2,0,0,1,1.947,1.518l1.627,6.5.333.1a27.441,27.441,0,0,1,5.766,2.419l.31.172L453.5,7.3a2,2,0,0,1,1.033-.287,2.057,2.057,0,0,1,.245.015,2.017,2.017,0,0,1,1.172.574l5.219,5.219a2,2,0,0,1,.3,2.452l-3.447,5.738.167.31a27.467,27.467,0,0,1,2.362,5.79l.095.34,6.428,1.606A2,2,0,0,1,468.593,31v7.38a2,2,0,0,1-1.518,1.947l-6.5,1.625-.1.333a27.449,27.449,0,0,1-2.42,5.764l-.172.31,3.412,5.683a2,2,0,0,1-.3,2.45l-5.219,5.219a2.021,2.021,0,0,1-1.174.573,2.188,2.188,0,0,1-.243.014,2.014,2.014,0,0,1-1.032-.287l-5.746-3.444-.31.167a27.439,27.439,0,0,1-5.789,2.362l-.34.095-1.608,6.428a2,2,0,0,1-1.945,1.518h-7.38Zm-9.981-12.113a.639.639,0,0,1,.333.092,26.117,26.117,0,0,0,6.776,2.847.654.654,0,0,1,.465.465l1.835,7.329,8.419.086,1.918-7.338a.65.65,0,0,1,.473-.479,26.105,26.105,0,0,0,6.807-2.775.655.655,0,0,1,.662,0l6.476,3.877L460.4,55.25,456.571,48.7a.654.654,0,0,1,0-.673,26.09,26.09,0,0,0,2.848-6.775.649.649,0,0,1,.465-.465l7.33-1.835.084-8.419-7.338-1.92a.652.652,0,0,1-.479-.473,26.1,26.1,0,0,0-2.775-6.806.647.647,0,0,1,0-.661l3.877-6.476L454.69,8.184l-6.545,3.831a.656.656,0,0,1-.341.1.641.641,0,0,1-.332-.091A26.1,26.1,0,0,0,440.7,9.174a.656.656,0,0,1-.465-.465L438.4,1.38l-8.419-.086-1.918,7.34a.65.65,0,0,1-.473.479,26.14,26.14,0,0,0-6.8,2.775.647.647,0,0,1-.661,0L413.643,8l-6.015,5.893,3.832,6.546a.652.652,0,0,1,0,.673,26.116,26.116,0,0,0-2.846,6.776.653.653,0,0,1-.465.465l-7.329,1.833-.085,8.421,7.34,1.918a.65.65,0,0,1,.477.475,26.1,26.1,0,0,0,2.776,6.8.646.646,0,0,1,0,.66l-3.877,6.479,5.893,6.014,6.545-3.829a.635.635,0,0,1,.337-.1" transform="translate(-121.543 0)" fill="#536876"/>
        <path id="Path_5692" data-name="Path 5692" d="M446.8,56.136a2.384,2.384,0,0,1-2.03-3.655l.225-.364-5.021-6.276-.4.139a2.343,2.343,0,0,1-.776.145,2.378,2.378,0,0,1-.775-.145l-.4-.139-5.022,6.276.227.364a2.465,2.465,0,1,1-1.24-1l.4.14L437,45.349l-.226-.365a2.4,2.4,0,1,1,4.058,0l-.225.365,5.022,6.276.4-.141a2.193,2.193,0,0,1,1.561,0l.4.14,5.021-6.276-.226-.365a2.472,2.472,0,1,1,1.25,1l-.4-.141-5.023,6.276.226.365a2.385,2.385,0,0,1-2.027,3.657m0-4a1.608,1.608,0,1,0,1.608,1.608,1.608,1.608,0,0,0-1.608-1.608m-16.018,0a1.608,1.608,0,1,0,1.608,1.608,1.608,1.608,0,0,0-1.608-1.608m24.028-10.012a1.608,1.608,0,1,0,1.608,1.609,1.608,1.608,0,0,0-1.608-1.609m-16.018,0a1.608,1.608,0,1,0,1.609,1.609,1.608,1.608,0,0,0-1.609-1.609" transform="translate(-130.313 -12.53)" fill="#536876"/>
      </g>
    </g>
  </g>
</svg>
