<?xml version="1.0" encoding="UTF-8"?><svg id="Layer_2" xmlns="http://www.w3.org/2000/svg" xmlns:xlink="http://www.w3.org/1999/xlink" viewBox="0 0 479.2 333.46"><defs><style>.cls-1,.cls-2{fill:none;}.cls-3{clip-path:url(#clippath);}.cls-4{fill:#fff;}.cls-5{fill:#158bcb;}.cls-6{fill:#701e5e;}.cls-2{stroke:#158bcb;stroke-miterlimit:10;}</style><clipPath id="clippath"><rect class="cls-1" width="479.2" height="333.46"/></clipPath></defs><g id="Layer_1-2"><g id="Group_174" transform="translate(-447.451 -2319.047)"><g id="Group_173" transform="translate(447.451 2319.047)"><g class="cls-3"><g id="Group_172" transform="translate(0 0)"><path id="Path_1904" class="cls-5" d="M207.91,327.47h0l-119.92-.19c-.33,0-.6-.27-.6-.61l.19-119.92c0-.33,.27-.6,.61-.6h0l35.85,.06c.57-12.88,11.22-23,24.11-22.93h.04c12.91-.05,23.54,10.11,24.08,23.01l35.85,.06c.33,0,.6,.27,.6,.61l-.06,36.12c13.33,.51,23.72,11.72,23.21,25.05-.48,12.65-10.64,22.78-23.29,23.22l-.06,35.54c0,.33-.27,.6-.61,.6"/><path id="Path_1905" class="cls-5" d="M329.54,207.57h0l-121.16-.19c-.33,0-.6-.27-.6-.61l.06-36.41c0-.33,.27-.6,.61-.6h0c.33,0,.6,.27,.6,.61l-.06,35.8,119.95,.19,.06-35.9c0-.33,.27-.6,.6-.6,12.8-.15,23.06-10.64,22.91-23.44-.14-12.56-10.27-22.72-22.83-22.91-.33,0-.6-.27-.6-.61l.06-36.48-36.19-.07c-.33,0-.59-.27-.6-.59-.22-12.6-10.53-22.69-23.14-22.65h-.04c-12.59-.06-22.9,9.99-23.16,22.58,0,.33-.27,.59-.6,.59h0l-36.19-.07-.06,36.19c0,.33-.27,.6-.61,.6h0c-.33,0-.6-.27-.6-.61l.06-36.8c0-.33,.27-.6,.61-.6h0l36.22,.07c.58-13.01,11.33-23.23,24.35-23.17h.04c13.04-.05,23.78,10.22,24.32,23.24l36.22,.07c.33,0,.6,.27,.6,.61l-.06,36.5c13.46,.51,23.96,11.83,23.45,25.29-.48,12.77-10.75,23.01-23.53,23.45l-.06,35.91c0,.33-.27,.6-.6,.6"/><path id="Path_1906" class="cls-5" d="M305.81,267.04c0,12.96,10.52,23.46,23.48,23.45h0v36.92h-120.77v-36.92c12.96,0,23.47-10.51,23.47-23.47s-10.51-23.47-23.47-23.47v-36.92h120.77v36.92c-12.96,0-23.48,10.5-23.48,23.46v.02"/><path id="Path_1907" class="cls-5" d="M360.32,28.75c-2.89-12.66,5.03-25.26,17.68-28.15,12.23-2.79,24.5,4.51,27.88,16.59l35.27-8.95,9.02,35.54c12.62-3.06,25.34,4.69,28.4,17.32,3.01,12.43-4.46,24.99-16.83,28.27l8.87,34.97-116.11,29.46-29.46-116.11,35.28-8.95Z"/><path id="Path_1908" class="cls-4" d="M381.83,142.46c.7-3.1-1.52-6.24-4.96-7.01s-6.78,1.12-7.48,4.23,1.52,6.24,4.96,7.01,6.78-1.12,7.48-4.22"/><path id="Path_1909" class="cls-6" d="M375.88,147.27c-.55,0-1.09-.06-1.62-.18-1.72-.37-3.25-1.37-4.28-2.8-.99-1.36-1.36-3.07-1-4.71,.75-3.32,4.33-5.35,7.98-4.54,1.72,.37,3.25,1.37,4.28,2.8,.99,1.36,1.36,3.07,1,4.71-.75,2.87-3.39,4.83-6.35,4.72m-.55-11.58c-2.57-.1-4.87,1.59-5.54,4.07-.31,1.41,0,2.89,.86,4.05,.91,1.26,2.26,2.14,3.78,2.47,3.2,.72,6.33-1.04,6.98-3.91,.31-1.41,0-2.89-.86-4.05-.91-1.26-2.26-2.14-3.78-2.46-.47-.11-.96-.16-1.44-.16"/><path id="Path_1910" class="cls-4" d="M382.91,140.57c.17-.84-.35-1.67-1.18-1.88-.81-.19-1.62,.3-1.81,1.11,0,.02,0,.04-.01,.05-.17,.84,.35,1.67,1.18,1.88,.81,.19,1.62-.3,1.81-1.11,0-.02,0-.04,.01-.05"/><path id="Path_1911" class="cls-6" d="M381.45,142.19c-.15,0-.31-.02-.45-.05-1.05-.26-1.71-1.31-1.49-2.37,.21-1.04,1.22-1.71,2.26-1.49,.02,0,.04,0,.06,.01,1.05,.26,1.71,1.31,1.49,2.37-.18,.89-.96,1.53-1.87,1.53m-.07-3.12c-.2,0-.4,.06-.58,.17-.25,.16-.42,.41-.48,.7-.13,.62,.25,1.23,.87,1.38,.58,.14,1.17-.21,1.31-.79v-.05c.15-.63-.25-1.25-.88-1.39-.08-.02-.16-.03-.24-.03"/><path id="Path_1912" class="cls-4" d="M376.37,146.99c-1.13-.02-2.26-.16-3.36-.42-.05,.37-.21,4.14-.21,4.14,1.23,.84,2.74,1.16,4.2,.89,3.12-.73,2.47-1.57,2.47-1.57l-.31-3.78c-.88,.39-1.82,.64-2.78,.73"/><path id="Path_1913" class="cls-6" d="M375.97,152.14c-1.22-.03-2.4-.4-3.41-1.09-.11-.08-.18-.22-.17-.35,.02-.39,.16-3.8,.21-4.18,.01-.12,.08-.22,.18-.29,.1-.07,.22-.09,.33-.07,1.05,.26,2.14,.4,3.22,.41,.91-.1,1.8-.33,2.64-.7,.12-.06,.27-.06,.39,.02,.12,.07,.2,.19,.21,.33l.31,3.69c.08,.19,.09,.41,.01,.61-.22,.62-1.13,1.11-2.79,1.49-.37,.09-.75,.13-1.13,.13m-2.74-1.65c1.09,.69,2.4,.94,3.68,.71,2.06-.48,2.2-.97,2.2-.97-.04-.04-.06-.1-.05-.16l-.27-3.21c-.76,.28-1.56,.46-2.37,.55h0c-1.01,0-2.03-.11-3.02-.33-.05,.76-.11,2.27-.17,3.42"/><path id="Path_1914" class="cls-6" d="M378.05,269.71l-.23,7.16-21.55,.39,11.1-9.16,10.68,1.6Z"/><path id="Path_1915" class="cls-6" d="M351.37,243.64l1.53,7-20.8,5.65,8.52-11.6,10.75-1.05Z"/><path id="Path_1916" class="cls-6" d="M379.71,140.51c.71,.31-.62-.4-1.02-.5-1.34-.36-2.8-.66-4.18-.91-3.25-.59-11.31-3.27-7.05-8.32,2.3-2.73,3.6,1.18,5.77,.78,1.42-.26,2.03-2.01,3.3-2.19,3.55-.51,3.43,2.65,5.93,3.84,1.23,.59,3.11,.08,3.38,1.97s-1.7,6.91-3.37,7.78c-.9,.47,.72-2.91-.06-3.67-1.44-1.39-3.07,1.06-2.69,1.22"/><path id="Path_1917" class="cls-6" d="M324.06,220.48c-.46,0-.84-.36-.84-.82s.36-.84,.82-.84h0l44.45-.98c.46,0,.84,.35,.85,.82,.01,.46-.35,.84-.81,.85l-44.45,.98h-.02Z"/><path id="Path_1918" class="cls-6" d="M395.09,333.46c-.37,0-.69-.24-.8-.58l-42.78-136.38c-.14-.44,.11-.91,.55-1.05,.44-.14,.91,.11,1.05,.55l42.78,136.38c.14,.44-.11,.91-.55,1.05-.08,.03-.16,.04-.25,.04"/><path id="Path_1919" class="cls-6" d="M330.39,249.96c-.46,0-.84-.36-.84-.82s.36-.84,.82-.84l45.61-1c.45,.01,.82,.36,.85,.81,0,.46-.36,.84-.81,.85l-45.61,1h-.02Z"/><path id="Path_1920" class="cls-6" d="M336.52,279.75c-.46,0-.84-.36-.84-.82s.36-.84,.82-.84h0l41.53-.91c.45-.02,.84,.34,.85,.8v.02c.01,.46-.35,.84-.81,.85l-41.53,.91h-.02Z"/><path id="Path_1921" class="cls-6" d="M341.11,310.9c-.46,0-.84-.36-.84-.82s.36-.84,.82-.84l45.61-1c.45-.02,.83,.32,.85,.77v.05c.01,.46-.35,.84-.81,.85h0l-45.61,1h-.02Z"/><path id="Path_1922" class="cls-4" d="M338.82,245.9l14.77-2.94-2.76-31.23,8.26-5.83,.17-9.22s-.24,29.46,.64,34.66,5.43,37.01,5.43,37.01l15.95-.82s-5.86-33.91-5.47-37.4,2.64-30.41,2.64-30.41l-26.57-11.71s-17.58,16.13-18.85,19.99,5.8,37.9,5.8,37.9"/><path id="Path_1923" class="cls-6" d="M365.33,268.78c-.21,0-.38-.15-.41-.36-.04-.32-4.56-31.86-5.43-37-.55-3.26-.67-15.73-.68-24.8l-7.55,5.32,2.74,30.99c.02,.21-.12,.4-.33,.45l-14.77,2.94c-.22,.04-.44-.1-.49-.32-.29-1.39-7.07-34.19-5.78-38.11s18.25-19.51,18.97-20.17c.12-.11,.3-.14,.45-.07l26.57,11.71c.16,.07,.26,.24,.25,.42-.02,.27-2.26,26.96-2.64,30.42-.37,3.39,5.41,36.95,5.47,37.29,.02,.12,0,.24-.08,.33-.07,.09-.18,.15-.3,.16l-15.95,.82h-.02Zm-6.07-72.5h0c.23,0,.41,.19,.41,.42,0,.3-.23,29.48,.64,34.59,.82,4.84,4.86,33.04,5.38,36.64l15.1-.78c-.73-4.25-5.76-33.73-5.4-37.06,.35-3.25,2.37-27.15,2.62-30.1l-26.05-11.48c-6.11,5.61-17.57,16.69-18.54,19.63s3.27,25.43,5.72,37.28l14-2.78-2.72-30.85c-.01-.15,.05-.29,.17-.38l8.09-5.7,.17-9.01c0-.23,.19-.41,.42-.41"/><path id="Path_1924" class="cls-5" d="M352.59,147.99l-3.29,3.98,7,7.82-5.21,29.08s2.33,.14,10.56,4.66,13.58,7.41,16.32,6.45,7.54-31.69,7.54-31.69l17.7-13.03-8.92-9.6s-5.35,2.2-8.5,3.16-3.7,.27-9.74,.69-23.46-1.51-23.46-1.51"/><path id="Path_1925" class="cls-4" d="M394.71,145.66s6.17-6.58,7.55-10.84,1.92-28.67,1.92-28.67l1.78-7.96s.82,.27,1.51,5.08,6.31,26.2,4.8,33.2-10.84,17.7-10.84,17.7l-6.72-8.51Z"/><path id="Path_1926" class="cls-6" d="M401.43,154.58h0c-.12,0-.24-.06-.32-.16l-6.72-8.51c-.13-.16-.12-.39,.02-.54,.06-.07,6.13-6.57,7.46-10.68,1.34-4.15,1.9-28.31,1.9-28.55l1.79-8.04c.03-.11,.1-.21,.2-.27,.1-.06,.23-.07,.34-.03,.4,.13,1.16,1.01,1.79,5.41,.17,1.2,.66,3.45,1.27,6.29,1.86,8.66,4.68,21.74,3.53,27.05-1.51,7.02-10.55,17.44-10.93,17.88-.08,.09-.19,.14-.31,.14m-6.17-8.9l6.19,7.83c1.66-1.97,9.11-11.05,10.42-17.13,1.11-5.14-1.8-18.64-3.53-26.7-.61-2.86-1.1-5.12-1.28-6.35-.15-1.38-.46-2.75-.91-4.06l-1.56,6.98c-.01,.92-.56,24.45-1.93,28.71-1.25,3.86-6.22,9.44-7.4,10.73"/><path id="Path_1927" class="cls-4" d="M349.58,151.01s-8.78-2.88-10.01-11.39,5.62-21.67,5.62-21.67l7.54,29.77-3.15,3.29Z"/><path id="Path_1928" class="cls-6" d="M349.58,151.43s-.09,0-.13-.02c-.09-.03-9.04-3.06-10.3-11.72-1.24-8.54,5.38-21.39,5.67-21.93,.11-.2,.36-.28,.56-.18,.1,.05,.18,.15,.21,.27l7.54,29.77c.04,.14,0,.29-.1,.39l-3.15,3.29c-.08,.08-.19,.13-.3,.13m-4.52-32.28c-1.54,3.22-6.09,13.49-5.08,20.42,1.07,7.37,8.09,10.42,9.49,10.96l2.8-2.93-7.21-28.45Z"/><path id="Path_1929" class="cls-6" d="M346.28,333.46c-.4,0-.74-.28-.81-.67l-27.04-137.53c-.08-.45,.23-.88,.68-.96,.44-.07,.86,.21,.95,.64l27.04,137.53c.09,.45-.2,.89-.65,.98h0c-.05,.01-.11,.02-.16,.02"/><path id="Path_1930" class="cls-4" d="M359.85,177.43c-.23,0-.42-.19-.41-.42,0-.22,.17-.4,.39-.41,.13,0,13.4-.88,17.86-8.29,.11-.2,.36-.28,.56-.17s.28,.36,.17,.56c0,.01-.01,.02-.02,.03-4.7,7.8-17.97,8.66-18.53,8.7h-.02Z"/><path id="Path_1931" class="cls-6" d="M31.17,190.73c-3.83-.04-6.9-3.17-6.86-7s3.17-6.9,7-6.86c3.8,.04,6.86,3.13,6.86,6.93-.03,3.84-3.16,6.94-7,6.93m0-13c-3.35,.04-6.04,2.79-6,6.15,.04,3.35,2.79,6.04,6.15,6,3.33-.04,6-2.75,6-6.07-.02-3.37-2.78-6.09-6.15-6.07"/><path id="Path_1932" class="cls-6" d="M27.82,186.01c-1.25,.02-2.28-.97-2.31-2.22-.02-1.25,.97-2.28,2.22-2.31,1.25-.02,2.28,.97,2.31,2.22,0,.01,0,.03,0,.04,0,1.24-.98,2.25-2.22,2.26m0-3.67c-.78-.02-1.43,.59-1.45,1.37-.02,.78,.59,1.43,1.37,1.45,.78,.02,1.43-.59,1.45-1.37v-.04c.01-.77-.6-1.4-1.37-1.41"/><path id="Path_1933" class="cls-6" d="M30.79,318.93l.57,7.31,20.81,.72-11.16-9.51-10.22,1.48Z"/><path id="Path_1934" class="cls-6" d="M6.98,316.48l-.44,7.32,20.51,3.6-9.74-10.97-10.32,.04Z"/><path id="Path_1935" class="cls-6" d="M40.73,319.35h-.01l-9.89-.35c-.21,0-.38-.16-.41-.36l-4.68-31.05c-.02-.12,.02-.25,.1-.35,.08-.1,.21-.15,.33-.14l16.88,.55c.12,0,.22,.06,.3,.14,.08,.09,.12,.2,.11,.32l-2.32,30.85c-.01,.22-.2,.4-.43,.4m-9.52-1.19l9.12,.32,2.25-29.99-15.92-.52,4.54,30.19Z"/><path id="Path_1936" class="cls-6" d="M15.78,319.9s-.09,0-.13-.02l-8.87-2.82c-.18-.06-.31-.23-.3-.42l.93-30.92c0-.12,.06-.23,.15-.31,.09-.08,.21-.12,.32-.1l16.48,1.66c.24,.02,.41,.23,.38,.47,0,.02,0,.04-.01,.07l-8.53,32.08c-.05,.19-.22,.32-.41,.32m-8.43-3.56l8.13,2.59,8.29-31.17-15.52-1.56-.9,30.14Z"/><path id="Path_1937" class="cls-5" d="M19.22,229.29c-.61,3.56-1.84,6.99-3.63,10.12-2.96,5.16-9.55,17.29-11.17,25.21S-.93,281.92,.22,284.97s1.24,2.48,4.68,2.77c3.44,.29,5.73-.76,10.12-.1s8.6,4.01,15.85,4.11c7.25,.1,18.15-3.25,18.15-3.25l-9.74-59.21s-5.92,2.01-10.89,1.62c-3.1-.25-6.17-.8-9.17-1.62"/><path id="Path_1938" class="cls-4" d="M19.52,228.78s3.22,2.17,10.2,2.11c6.98-.05,9.78-.84,9.78-.84,0,0,.79-9.88,.74-11.47s2.22-6.02,1.21-9.88c-1.11-4.28-3.49-4.6-6.61-9.41-2.6-4.01-3.96-6.34-3.96-6.34-.86,1.04-2.23,1.5-3.54,1.21-1.63-.22-3.24-.59-4.81-1.11,0,0-3.75,.1-5.18,6.45s-.9,9.04-.11,14,2.27,15.27,2.27,15.27"/><path id="Path_1939" class="cls-6" d="M29.47,231.32c-6.85,0-10.05-2.1-10.18-2.19-.1-.07-.17-.17-.18-.29-.01-.1-1.49-10.36-2.27-15.27l-.09-.56c-.74-4.63-1.19-7.43,.2-13.61,1.48-6.59,5.42-6.78,5.58-6.78,.05,0,.1,0,.15,.02,1.54,.51,3.12,.87,4.72,1.09,1.15,.26,2.36-.13,3.13-1.03,.09-.12,.22-.19,.37-.19,.15,0,.28,.08,.36,.21,.01,.02,1.39,2.37,3.95,6.32,.99,1.51,2.12,2.91,3.39,4.19,1.59,1.42,2.73,3.28,3.27,5.34,.7,2.71-.12,5.61-.72,7.74-.25,.72-.41,1.47-.49,2.23,.05,1.59-.71,11.11-.74,11.52-.01,.18-.14,.33-.31,.38-.12,.03-2.94,.81-9.89,.86h-.26m-9.55-2.8c.72,.41,3.94,1.96,9.8,1.95,3.14,.05,6.29-.2,9.38-.76,.13-1.69,.76-9.72,.71-11.11,.06-.85,.24-1.69,.52-2.49,.57-2.03,1.35-4.81,.71-7.3-.5-1.92-1.57-3.65-3.06-4.97-1.31-1.31-2.48-2.76-3.49-4.31-1.89-2.92-3.15-4.97-3.68-5.86-.98,.81-2.27,1.15-3.52,.93-1.63-.22-3.24-.59-4.81-1.1-.5,.05-3.47,.6-4.71,6.11-1.36,6.02-.92,8.76-.19,13.29l.09,.56c.72,4.53,2.03,13.61,2.24,15.08"/><path id="Path_1940" class="cls-6" d="M29.45,184.38c.84-.42,.13-1.98,.37-2.45,.18-.36,2.37-.92,2.81-1.25,.31-.23,1.98-2.24,2.24-2.24,.93,0,2.52,3.55,2.66,3.55,.28,0,0-.56,.05-.83,.4-2,1.73-4.16,.16-6.05-1.66-1.99-3.35-.24-5.32-.52-1.47-.21-2.46-1.92-3.91-2.24-3.37-.75-5.68,3.94-8.13,5.58-2.65,1.77-6.29,1.9-9.17,3.34-1.57,.73-2.93,1.84-3.96,3.23-4.1,6.37,3.41,6.18,2.56,9.91-1.03,4.45-10.38,9.29-4.27,14.28,2.14,1.79,5.3,1.63,7.25-.36,3.55-3.16,12.88-14.53,13.81-19.19,.46-2.32-.98-4.6-.3-6.27s2.51-.79,3.02-.39l.14,1.91Z"/><path id="Path_1941" class="cls-4" d="M30.69,190.22l-.52,3.18c-.77,.56-1.73,.81-2.68,.69-1.09-.14-2.16-.38-3.2-.73l1.93-5.02c.57,.56,1.22,1.02,1.94,1.36,.8,.34,1.65,.52,2.52,.51"/><path id="Path_1942" class="cls-6" d="M27.9,194.54c-.14,0-.29,0-.45-.02-1.12-.14-2.22-.39-3.29-.75-.11-.04-.2-.12-.25-.22-.05-.11-.05-.23-.01-.33l1.93-5.02c.05-.14,.17-.24,.32-.27,.14-.03,.29,.02,.39,.12,.53,.52,1.14,.95,1.81,1.27,.73,.31,1.53,.47,2.32,.47,.13,0,.25,.05,.34,.15,.08,.1,.12,.22,.1,.35l-.52,3.18c-.02,.1-.07,.19-.14,.25-.73,.55-1.63,.84-2.55,.82m-3.04-1.45c.87,.27,1.77,.47,2.67,.58,.78,.09,1.58-.09,2.25-.51l.41-2.52c-.76-.05-1.5-.23-2.2-.54-.57-.27-1.1-.61-1.59-1.01l-1.55,4.01Z"/><path id="Path_1943" class="cls-6" d="M24.7,196.01c9.5-3.24,13.42,20.1,13.42,20.1l-13.94,4.31s-8.98-21.17,.52-24.41"/><path id="Path_1944" class="cls-4" d="M40.67,216.96s8.22-.75,10.69-.04,7.35,4.31,7.35,4.31l-13.59,.97s-3.12,.57-3.91-.04c-.49-.39-.92-.85-1.28-1.36l.75-3.83Z"/><path id="Path_1945" class="cls-6" d="M42.71,222.86c-.62,.05-1.23-.08-1.77-.38-.53-.42-.99-.91-1.37-1.47-.06-.09-.08-.21-.06-.31l.75-3.83c.04-.19,.19-.33,.38-.34,.34-.03,8.33-.74,10.84-.03s7.28,4.23,7.48,4.38c.19,.14,.23,.41,.09,.6-.07,.1-.19,.16-.31,.17l-13.59,.97c-.8,.15-1.62,.23-2.43,.24m-2.33-2.17c.31,.42,.67,.8,1.08,1.12,.4,.31,2.17,.22,3.58-.04l12.45-.89c-1.53-1.07-4.53-3.07-6.25-3.56-2.09-.6-8.68-.1-10.21,.03l-.65,3.33Z"/><path id="Path_1946" class="cls-4" d="M45.38,222.24l13.15-.31,8.66-18.38,12.27,.53-9.02,20.1h-25.51l.44-1.94Z"/><path id="Path_1947" class="cls-6" d="M70.45,224.6h-25.51c-.24,0-.43-.19-.43-.43,0-.03,0-.06,.01-.09l.44-1.94c.04-.19,.21-.33,.41-.33l12.89-.3,8.55-18.15c.07-.16,.23-.25,.4-.24l12.27,.53c.24,.01,.42,.21,.41,.45,0,.05-.01,.1-.04,.15l-9.02,20.1c-.07,.15-.22,.25-.39,.25m-24.97-.85h24.7l8.65-19.27-11.36-.49-8.54,18.13c-.07,.15-.21,.24-.38,.24l-12.82,.3-.25,1.09Z"/><path id="Path_1948" class="cls-4" d="M25.88,219.6s2.8,9.78,10.29,12.13,30.18-4.64,30.18-4.64c0,0,6.36-7.12,6.79-8.34s-3.88,3.26-3.88,3.26c0,0,4.07-5.99,3.79-6.32s-4.91,4.98-4.91,4.98c0,0,2.79-5.43,2.37-5.57s-4.45,5.57-4.45,5.57c0,0,.61-4.02-.23-3.36s-1.38,4.54-2.72,5.44-19.73-.11-21.63-.56-4.75-5.98-4.75-5.98l-10.84,3.41Z"/><path id="Path_1949" class="cls-6" d="M40.25,232.64c-1.42,.04-2.84-.13-4.21-.5-7.62-2.39-10.45-12.01-10.57-12.42-.06-.22,.06-.45,.28-.52l10.84-3.41c.2-.06,.41,.03,.51,.21,1.07,2.07,3.23,5.47,4.47,5.76,2.12,.5,20.06,1.36,21.3,.62,.64-.42,1.13-1.87,1.53-3.04,.19-.87,.59-1.69,1.16-2.38,.19-.18,.48-.21,.71-.08,.16,.09,.53,.31,.4,2.18,3.31-4.59,3.66-4.47,3.97-4.37,.13,.05,.23,.15,.29,.28,.06,.14,.19,.46-1.02,3.07,2.55-2.78,2.93-2.78,3.1-2.79,.14,0,.27,.07,.36,.17,.18,.21,.38,.45-1.57,3.52,1.16-1,1.37-.87,1.57-.75,.23,.15,.31,.46,.18,.71-.44,1.27-6.22,7.75-6.88,8.49-.05,.06-.12,.1-.19,.12-.79,.24-16.82,5.14-26.23,5.14m-13.83-12.76c.62,1.83,3.54,9.46,9.88,11.45,7.01,2.2,28.07-4.08,29.82-4.61,1.66-1.86,4-4.57,5.41-6.36-.62,.59-1.32,1.29-1.96,1.95-.17,.17-.44,.17-.61,0-.14-.14-.17-.37-.06-.54,1.07-1.57,2.18-3.28,2.9-4.49-.93,.96-2.2,2.35-3.35,3.67-.14,.16-.38,.2-.56,.07-.18-.12-.24-.36-.14-.55,.69-1.35,1.4-2.82,1.86-3.88-.86,1.07-2.1,2.74-3.21,4.31-.12,.16-.32,.22-.51,.15-.18-.07-.29-.27-.26-.46,.14-.86,.21-1.73,.21-2.6-.24,.53-.45,1.07-.63,1.62-.46,1.35-.99,2.89-1.87,3.47-1.59,1.05-20.3-.11-21.97-.5-1.82-.43-4.18-4.6-4.87-5.88l-10.09,3.17Z"/><path id="Path_1950" class="cls-4" d="M13.82,268.17c-.59,0-1.17-.03-1.75-.1-.23-.03-.4-.24-.37-.48,.03-.23,.24-.4,.48-.37,6.1,.76,16.7-3.16,20.7-9.16,.13-.2,.4-.25,.59-.12,.2,.13,.25,.4,.12,.59-3.86,5.81-13.23,9.64-19.76,9.64"/><path id="Path_1951" class="cls-4" d="M23.99,278.01c-.24,0-.43-.19-.43-.43,0-.18,.12-.35,.29-.41,6.2-2.12,9.13-6.43,12.24-11,.13-.2,.39-.26,.59-.13,.2,.13,.26,.39,.13,.59v.02c-3.2,4.69-6.21,9.11-12.68,11.32-.04,.02-.09,.02-.14,.02"/><path id="Path_1952" class="cls-5" d="M185.12,146.29c0-13.01,10.54-23.56,23.55-23.57h0l-.04-37-121.08,.12,.12,121.11,36.97-.04v-.51c-.1-13.02,10.38-23.65,23.4-23.75,13.02-.1,23.65,10.38,23.75,23.4,0,.1,0,.2,0,.3v.51l36.97-.04-.04-37c-13.01,.02-23.58-10.51-23.6-23.53v-.02"/><path id="Path_1953" class="cls-4" d="M208.44,170.97h0c-13.58-.11-24.49-11.2-24.39-24.77,.11-13.46,11.02-24.33,24.48-24.39h0c.33,.01,.59,.3,.58,.63-.01,.32-.27,.57-.58,.58-12.91,.09-23.29,10.63-23.2,23.54,.09,12.74,10.37,23.06,23.11,23.2,.33,.02,.59,.3,.58,.63-.01,.32-.27,.57-.58,.58"/><path id="Path_1954" class="cls-4" d="M207.91,327.47h0l-119.92-.19c-.33,0-.6-.27-.6-.61l.19-119.92c0-.33,.27-.6,.61-.6h0l35.85,.06c.57-12.88,11.22-23,24.11-22.93h.04c12.91-.05,23.54,10.11,24.08,23.01l35.85,.06c.33,0,.6,.27,.6,.61l-.06,36.12c13.33,.51,23.72,11.72,23.21,25.05-.48,12.65-10.64,22.78-23.29,23.22l-.06,35.54c0,.33-.27,.6-.61,.6m-119.31-1.4l118.71,.19,.06-35.52c0-.33,.27-.6,.6-.6,12.67-.14,22.82-10.53,22.68-23.2-.14-12.43-10.17-22.49-22.6-22.67-.33,0-.6-.27-.6-.61l.06-36.1-35.83-.06c-.33,0-.59-.26-.6-.59-.21-12.47-10.41-22.46-22.89-22.42h-.04c-12.46-.07-22.67,9.88-22.92,22.34,0,.33-.27,.59-.6,.59h0l-35.83-.06-.2,118.7Z"/><path id="Path_1955" class="cls-5" d="M104.26,21.57c.2,.02-8.06-.07-9.33-.07-9.28,0-15.23,13.29-7,18.78,8.53,5.69,15.91-2.84,23.32-5.31,7.1-2.37,10.14,3.5,15.93,4.66,4.37,.87,10.11-5.65,13.75-9.78,.86-.97,1.6-1.82,2.18-2.4,2.22-2.22,5.95,.88,8.16-.78,2.28-1.71,3.34-4.6,2.72-7.38-2.89-14.46-16.64-7.17-24.61-5.57-4.75,.95-9.27-4.35-13.21,.91-2.01,2.45-4.59,4.36-7.51,5.57-1.43,.57-5.93,1.18-4.4,1.36"/><path id="Path_1956" class="cls-6" d="M144.41,36.35c-1.62,0-3.19-.55-4.43-1.59-1.31-1.08-2.13-2.64-2.28-4.33-.22-3.7,2.58-6.9,6.28-7.18,1.85-.19,3.7,.37,5.13,1.56,1.31,1.08,2.13,2.64,2.28,4.33,.22,3.7-2.58,6.9-6.28,7.18-.23,.02-.46,.03-.69,.03m.26-12.28c-.2,0-.41,0-.61,.03-3.24,.23-5.69,3.02-5.51,6.26h0c.13,1.46,.84,2.82,1.97,3.75,1.26,1.04,2.88,1.53,4.5,1.36,3.23-.23,5.69-3.01,5.51-6.25-.13-1.46-.84-2.82-1.97-3.75-1.09-.91-2.47-1.4-3.89-1.39"/><path id="Path_1957" class="cls-4" d="M137.28,28.05c-.07-1.06,.72-1.97,1.77-2.07,1.02-.12,1.95,.61,2.07,1.63v.05c.07,1.06-.71,1.98-1.77,2.07-1.02,.12-1.95-.61-2.07-1.63v-.05"/><path id="Path_1958" class="cls-6" d="M139.16,30.17c-.55,0-1.07-.19-1.49-.54-.47-.39-.75-.95-.8-1.55-.08-1.29,.87-2.41,2.16-2.53,.63-.07,1.25,.12,1.74,.52,.47,.39,.75,.95,.8,1.55,.09,1.29-.87,2.41-2.15,2.53-.08,0-.17,.01-.25,.01m.1-3.78c-.05,0-.1,0-.16,0-.82,.07-1.44,.79-1.39,1.62,.03,.38,.21,.72,.5,.96,.31,.25,.71,.37,1.11,.33,.82-.07,1.44-.79,1.39-1.61-.03-.38-.21-.72-.5-.96-.27-.22-.6-.34-.95-.34"/><path id="Path_1959" class="cls-4" d="M141.28,35.04c.99,.43,2.05,.93,2.05,.93-.31,.82-.71,1.6-1.19,2.33-1.07,.16-2.15,.2-3.22,.13-3.24-.46-3.81-1.61-3.81-1.61l3.18-4.28c.89,.95,1.89,1.79,2.99,2.5"/><path id="Path_1960" class="cls-6" d="M139.82,38.91c-.32,0-.63-.02-.95-.06-3.36-.48-4.06-1.7-4.13-1.84-.07-.14-.06-.32,.04-.45l3.18-4.28c.07-.1,.19-.16,.31-.17,.12,0,.25,.04,.33,.13,.85,.92,1.8,1.73,2.85,2.41,1,.43,2.07,.94,2.07,.94,.15,.07,.24,.22,.24,.38-.28,.91-.7,1.77-1.25,2.55-.07,.11-.18,.18-.3,.2-.79,.11-1.59,.17-2.39,.18m-4.16-2.1c.97,.72,2.13,1.14,3.33,1.2,.97,.07,1.94,.04,2.9-.1,.34-.55,.65-1.12,.93-1.71-.39-.18-1.06-.49-1.71-.77-1.02-.62-1.96-1.37-2.77-2.24l-2.68,3.62Z"/><path id="Path_1961" class="cls-6" d="M143.21,123.72l.81,7.26,20.49,.02-11.3-9.09-10,1.81Z"/><path id="Path_1962" class="cls-6" d="M166.26,122.57l1.01,7.9,20.49,.02-11.3-9.09-10.21,1.17Z"/><path id="Path_1963" class="cls-6" d="M142.68,38.69c3.89,.53,7.38,2.66,9.62,5.88,3.53,5.33,3.95,9.14,3.95,9.14l-4.78,13.22-2.15-.07-6.65-28.17Z"/><path id="Path_1964" class="cls-2" d="M142.68,38.69c3.89,.53,7.38,2.66,9.62,5.88,3.53,5.33,3.95,9.14,3.95,9.14l-4.78,13.22-2.15-.07-6.65-28.17Z"/><path id="Path_1965" class="cls-4" d="M164.79,86.19h4.23l-4.27,36.65,13.43-1.82s7.35-36.65,4.13-43.49-42.49-5.23-42.49-5.23l24.97,13.9Z"/><path id="Path_1966" class="cls-6" d="M164.75,123.27c-.24,0-.43-.19-.42-.43,0-.02,0-.03,0-.05l4.21-36.18h-3.75c-.07,0-.14-.02-.21-.05l-24.97-13.89c-.21-.11-.29-.37-.18-.57,.07-.14,.21-.22,.36-.23,1.61-.07,39.58-1.54,42.89,5.48,3.24,6.89-3.79,42.26-4.1,43.76-.04,.18-.18,.31-.36,.34l-13.43,1.82s-.04,0-.06,0m.15-37.51h4.12c.24,0,.43,.19,.42,.43,0,.02,0,.03,0,.05l-4.21,36.11,12.59-1.71c.69-3.5,7.08-36.61,4.1-42.93-2.43-5.17-28.77-5.42-40.56-5.05l23.54,13.1Z"/><path id="Path_1967" class="cls-4" d="M150.79,85.89s-31.51,4.76-32.72-5.44c-2.01-16.91,43.04-6.88,46.82,1.11,2.62,5.54-8.86,40.57-8.86,40.57l-13.69,1.21,8.46-37.45Z"/><path id="Path_1968" class="cls-6" d="M142.34,123.76c-.23,0-.43-.19-.43-.42,0-.03,0-.06,.01-.09l8.32-36.85c-3.83,.53-23.59,2.97-30.34-2.17-1.24-.87-2.06-2.22-2.26-3.72-.51-4.28,1.85-7.3,6.84-8.73,12.2-3.51,37.88,3.46,40.78,9.6,2.66,5.63-8.37,39.45-8.84,40.89-.05,.16-.2,.28-.37,.29l-13.69,1.21h-.04m8.46-38.3c.12,0,.23,.05,.31,.14,.09,.1,.13,.25,.1,.38l-8.32,36.88,12.83-1.13c3.97-12.14,10.79-35.77,8.79-39.99-2.8-5.93-27.86-12.58-39.78-9.15-4.59,1.32-6.69,3.95-6.23,7.81,.17,1.28,.87,2.42,1.93,3.15,7.03,5.36,30.07,1.95,30.31,1.92,.02,0,.04,0,.06,0"/><path id="Path_1969" class="cls-4" d="M125.58,42.19l9.69-5.34c.97,.83,2.11,1.43,3.34,1.76,1.22,.19,2.47,.08,3.64-.31,2.67,2.09,5.1,4.49,7.22,7.13,1.97,2.48,3.5,4.33,2.1,10.93s-2.94,12.13-2.94,12.13l-21.92-2.41-1.13-23.91Z"/><path id="Path_1970" class="cls-6" d="M148.63,68.93h-.05l-21.92-2.41c-.21-.02-.37-.19-.38-.4l-1.13-23.91c0-.16,.08-.31,.22-.39l9.7-5.34c.16-.09,.35-.07,.48,.05,.91,.78,1.99,1.35,3.14,1.67,1.14,.18,2.31,.08,3.41-.29,.14-.05,.28-.02,.4,.06,2.7,2.12,5.15,4.54,7.3,7.21,2.04,2.57,3.62,4.54,2.18,11.29-1.39,6.54-2.93,12.1-2.94,12.15-.05,.18-.22,.31-.41,.31m-21.51-3.22l21.2,2.33c.36-1.31,1.65-6.17,2.84-11.75,1.35-6.35-.04-8.1-1.97-10.52-2.07-2.58-4.43-4.93-7.02-6.99-1.18,.37-2.43,.45-3.64,.25-1.21-.31-2.33-.88-3.3-1.67l-9.21,5.07,1.1,23.28Z"/><path id="Path_1971" class="cls-4" d="M125.58,42.19l9.69-5.34c.97,.83,2.11,1.43,3.34,1.76,1.22,.19,2.47,.08,3.64-.31,2.67,2.09,5.1,4.49,7.22,7.13,1.97,2.48,3.5,4.33,2.1,10.93s-2.94,12.13-2.94,12.13l-21.92-2.41-1.13-23.91Z"/><path id="Path_1972" class="cls-6" d="M148.63,68.93h-.05l-21.92-2.41c-.21-.02-.37-.19-.38-.4l-1.13-23.91c0-.16,.08-.31,.22-.39l9.7-5.34c.16-.09,.35-.07,.48,.05,.91,.78,1.99,1.35,3.14,1.67,1.14,.18,2.31,.08,3.41-.29,.14-.05,.28-.02,.4,.06,2.7,2.12,5.15,4.54,7.3,7.21,2.04,2.57,3.62,4.54,2.18,11.29-1.39,6.54-2.93,12.1-2.94,12.15-.05,.18-.22,.31-.41,.31m-21.51-3.22l21.2,2.33c.36-1.31,1.65-6.17,2.84-11.75,1.35-6.35-.04-8.1-1.97-10.52-2.07-2.58-4.43-4.93-7.02-6.99-1.18,.37-2.43,.45-3.64,.25-1.21-.31-2.33-.88-3.3-1.67l-9.21,5.07,1.1,23.28Z"/><path id="Path_1973" class="cls-6" d="M130.9,61.8c-3.93-4.78,9.48-17.11-1.74-20.92-6.73-2.28-17.46,20.26-11.68,28.84,5.97,8.87,32.75,2.03,32.75,2.03l1.77-5.3s-17.17,.12-21.1-4.66"/><path id="Path_1974" class="cls-2" d="M130.9,61.8c-3.93-4.78,9.48-17.11-1.74-20.92-6.73-2.28-17.46,20.26-11.68,28.84,5.97,8.87,32.75,2.03,32.75,2.03l1.77-5.3s-17.17,.12-21.1-4.66Z"/><path id="Path_1975" class="cls-6" d="M177.12,73.94h0l-27.81-.27c-.14,0-.27-.07-.35-.18-.08-.11-.1-.26-.05-.39l7.54-21.41c.04-.18,.21-.31,.4-.28l28.81,.22c.24,0,.42,.2,.42,.43,0,.05-.01,.1-.03,.15l-8.54,21.46c-.07,.16-.22,.27-.4,.27m-27.21-1.11l26.93,.26,8.2-20.61-27.89-.22-7.24,20.57Z"/><rect id="Rectangle_357" class="cls-4" x="139.44" y="73.76" width="37.63" height="1.99"/><path id="Path_1976" class="cls-6" d="M177.08,76.18h-37.63c-.23,0-.42-.19-.42-.43v-1.99c0-.23,.19-.42,.42-.42h37.64c.23,0,.42,.19,.42,.42v1.99c0,.23-.19,.43-.42,.43m-37.21-.85h36.78v-1.14h-36.78v1.14Z"/><path id="Path_1977" class="cls-6" d="M169.58,64.83c-1.04-.15-1.77-1.11-1.63-2.15,.15-1.04,1.11-1.77,2.15-1.63,.94,.13,1.65,.94,1.65,1.89-.08,1.12-1.05,1.96-2.17,1.89m0-2.93c-.57,.14-.93,.72-.79,1.29,.14,.57,.72,.93,1.29,.79,.48-.12,.82-.55,.82-1.04-.09-.65-.67-1.11-1.32-1.04"/><path id="Path_1978" class="cls-6" d="M143.37,120.4c-.23,0-.43-.19-.43-.42,0-.22,.17-.4,.38-.43l13.74-1.41c.23-.03,.43,.13,.46,.35v.03c.03,.23-.14,.44-.38,.47l-13.74,1.41h-.04"/><path id="Path_1979" class="cls-6" d="M165.11,119.32c-.23,0-.43-.18-.44-.41,0-.22,.16-.41,.38-.43l13.96-1.97c.23-.03,.44,.13,.48,.36,.03,.23-.13,.45-.36,.48l-13.96,1.97s-.04,0-.06,0"/></g></g></g></g></g></svg>