<?xml version="1.0" encoding="UTF-8"?><svg id="Layer_2" xmlns="http://www.w3.org/2000/svg" xmlns:xlink="http://www.w3.org/1999/xlink" viewBox="0 0 517.91 582"><defs><style>.cls-1{fill:none;}.cls-2{clip-path:url(#clippath);}.cls-3{fill:#fff;}.cls-4{fill:#8e267d;}.cls-5{fill:#cddcf1;}.cls-6{fill:#43b4e7;}.cls-7{fill:#1a8bcb;}.cls-8{fill:#701e5e;}.cls-9{fill:#9ad8f3;}.cls-10{fill:#5b72b7;}.cls-11{clip-path:url(#clippath-1);}.cls-12{clip-path:url(#clippath-4);}.cls-13{clip-path:url(#clippath-3);}.cls-14{clip-path:url(#clippath-2);}.cls-15{opacity:.6;}</style><clipPath id="clippath"><rect class="cls-1" width="517.91" height="582"/></clipPath><clipPath id="clippath-1"><rect class="cls-1" width="517.91" height="582"/></clipPath><clipPath id="clippath-2"><rect class="cls-1" width="517.91" height="522.41"/></clipPath><clipPath id="clippath-3"><rect class="cls-1" x="23.36" y="400.7" width="455.64" height="121.71"/></clipPath><clipPath id="clippath-4"><rect class="cls-1" width="517.91" height="582"/></clipPath></defs><g id="Layer_1-2"><g class="cls-2"><g id="Group_286"><g id="Group_283"><g class="cls-11"><g id="Group_282"><g id="Group_278" class="cls-15"><g id="Group_277"><g class="cls-14"><g id="Group_276"><path id="Path_2976" class="cls-9" d="M112.03,23.35c105.15-57.99,246.03,2.26,319.44,69.04,20.97,19.08,71.82,66.67,83.83,142.95,14.91,94.75-33.91,209.61-145.88,258.73-121.88,53.47-258.66,28.8-322.44-53.46C-12.67,363.69-.22,247.09,4.05,214.73,9.05,176.77,23.93,71.93,112.03,23.35"/></g></g></g></g><g id="Group_281" class="cls-15" transform="translate(23.362 400.699)"><g id="Group_280"><g class="cls-13"><g id="Group_279"><path id="Path_2977" class="cls-9" d="M23.36,400.7c6.23,14.21,14.16,27.62,23.61,39.92,63.78,82.26,200.56,106.93,322.44,53.46,45.01-19.52,83.17-52.03,109.59-93.38H23.36Z"/></g></g></g></g></g></g></g><rect id="Rectangle_443" class="cls-3" x="314.46" y="178.17" width="69.67" height="223.03"/><g id="Group_285"><g class="cls-12"><g id="Group_284"><path id="Path_2978" class="cls-10" d="M384.13,402.13h-69.67c-.52,0-.94-.42-.94-.94h0V178.17c0-.52,.42-.94,.94-.94h69.67c.52,0,.94,.42,.94,.94v223.03c0,.52-.42,.94-.94,.94m-68.73-1.87h67.8V179.1h-67.8v221.16Z"/><path id="Path_2979" class="cls-7" d="M314.51,401.19h-31.07V198.22l31.07-20.05v223.03Z"/><path id="Path_2980" class="cls-10" d="M314.51,402.13h-31.07c-.52,0-.94-.42-.94-.94h0V198.22c0-.32,.16-.61,.43-.79l31.07-20.05c.43-.28,1.01-.15,1.29,.28,.1,.15,.15,.33,.15,.51v223.02c0,.52-.42,.94-.94,.94h0m-30.13-1.87h29.2V179.88l-29.2,18.85v201.53Z"/><rect id="Rectangle_444" class="cls-7" x="322.77" y="193.69" width="12.08" height="189.74"/><rect id="Rectangle_445" class="cls-7" x="343.25" y="193.69" width="12.08" height="189.74"/><rect id="Rectangle_446" class="cls-7" x="363.74" y="193.69" width="12.08" height="189.74"/><rect id="Rectangle_447" class="cls-3" x="241.14" y="112.45" width="43.55" height="163.48"/><path id="Path_2981" class="cls-10" d="M284.69,276.87h-43.55c-.52,0-.94-.42-.94-.93h0V112.45c0-.52,.42-.94,.94-.94h43.55c.52,0,.94,.42,.94,.94h0v163.48c0,.52-.42,.94-.94,.94h0m-42.61-1.87h41.68V113.39h-41.68v161.61Z"/><rect id="Rectangle_448" class="cls-7" x="250.29" y="120.75" width="26.05" height="11.2"/><path id="Path_2982" class="cls-7" d="M241.17,275.93h-19.42V124.99l19.42-12.54v163.48Z"/><path id="Path_2983" class="cls-10" d="M241.17,276.87h-19.42c-.52,0-.94-.42-.94-.94h0V124.98c0-.32,.16-.61,.43-.79l19.42-12.54c.43-.28,1.01-.16,1.29,.28,.1,.15,.15,.33,.15,.51v163.48c0,.52-.42,.94-.94,.94h0m-18.48-1.87h17.55V114.17l-17.55,11.33v149.5Z"/><rect id="Rectangle_449" class="cls-3" x="233.9" y="139.66" width="69.67" height="261.53"/><path id="Path_2984" class="cls-10" d="M303.56,402.13h-69.67c-.52,0-.94-.42-.94-.94h0V139.66c0-.52,.42-.94,.94-.94h69.67c.52,0,.94,.42,.94,.94h0V401.19c0,.52-.42,.94-.94,.94h0m-68.73-1.87h67.8V140.6h-67.8V400.26Z"/><path id="Path_2985" class="cls-7" d="M233.95,401.19h-31.07V159.72l31.07-20.05V401.19Z"/><path id="Path_2986" class="cls-10" d="M233.95,402.13h-31.07c-.52,0-.94-.42-.94-.94h0V159.72c0-.32,.16-.61,.43-.79l31.07-20.05c.43-.28,1.01-.16,1.29,.28,.1,.15,.15,.33,.15,.51V401.19c0,.52-.42,.94-.94,.94h0m-30.13-1.87h29.2V141.38l-29.2,18.85v240.03Z"/><rect id="Rectangle_450" class="cls-7" x="243.05" y="152.85" width="49.7" height="11.39"/><rect id="Rectangle_451" class="cls-7" x="243.05" y="176.5" width="49.7" height="11.39"/><rect id="Rectangle_452" class="cls-7" x="243.05" y="200.14" width="49.7" height="11.39"/><rect id="Rectangle_453" class="cls-7" x="243.05" y="223.78" width="49.7" height="11.39"/><rect id="Rectangle_454" class="cls-7" x="243.05" y="247.43" width="49.7" height="11.39"/><rect id="Rectangle_455" class="cls-7" x="243.05" y="271.07" width="49.7" height="11.39"/><rect id="Rectangle_456" class="cls-7" x="243.05" y="294.71" width="49.7" height="11.39"/><rect id="Rectangle_457" class="cls-7" x="243.05" y="318.36" width="49.7" height="11.39"/><rect id="Rectangle_458" class="cls-7" x="243.05" y="342" width="49.7" height="11.39"/><rect id="Rectangle_459" class="cls-7" x="243.05" y="365.64" width="49.7" height="11.39"/><rect id="Rectangle_460" class="cls-3" x="149.25" y="214.71" width="69.67" height="186.49"/><path id="Path_2987" class="cls-10" d="M218.92,402.13h-69.67c-.52,0-.94-.42-.94-.94V214.71c0-.52,.42-.94,.94-.94h69.67c.52,0,.94,.42,.94,.94h0v186.49c0,.52-.42,.94-.94,.94m-68.73-1.87h67.8V215.64h-67.8v184.62Z"/><path id="Path_2988" class="cls-7" d="M149.31,401.19h-31.07V234.76l31.07-20.05v186.49Z"/><path id="Path_2989" class="cls-10" d="M149.3,402.13h-31.07c-.52,0-.94-.42-.94-.94V234.76c0-.32,.16-.61,.43-.79l31.07-20.05c.43-.28,1.01-.15,1.29,.28,.1,.15,.15,.33,.15,.51v186.49c0,.52-.42,.94-.94,.94m-30.13-1.87h29.2V216.42l-29.2,18.85v164.99Z"/><rect id="Rectangle_461" class="cls-5" x="157.56" y="230.23" width="12.08" height="24.17"/><rect id="Rectangle_462" class="cls-7" x="178.04" y="230.23" width="12.08" height="24.17"/><rect id="Rectangle_463" class="cls-5" x="198.53" y="230.23" width="12.08" height="24.17"/><rect id="Rectangle_464" class="cls-5" x="157.56" y="270.06" width="12.08" height="24.17"/><rect id="Rectangle_465" class="cls-7" x="178.04" y="270.06" width="12.08" height="24.17"/><rect id="Rectangle_466" class="cls-5" x="198.53" y="270.06" width="12.08" height="24.17"/><rect id="Rectangle_467" class="cls-5" x="157.56" y="309.88" width="12.08" height="24.17"/><rect id="Rectangle_468" class="cls-7" x="178.04" y="309.88" width="12.08" height="24.17"/><rect id="Rectangle_469" class="cls-5" x="198.53" y="309.88" width="12.08" height="24.17"/><rect id="Rectangle_470" class="cls-5" x="157.56" y="349.71" width="12.08" height="24.17"/><rect id="Rectangle_471" class="cls-7" x="178.04" y="349.71" width="12.08" height="24.17"/><rect id="Rectangle_472" class="cls-5" x="198.53" y="349.71" width="12.08" height="24.17"/><path id="Path_2990" class="cls-7" d="M306.81,440.7l-54.7-.48c-2.84,0-5.14-2.31-5.14-5.15,0-.35,.04-.71,.11-1.05l8.65-39.84c.75-3.36,3.75-5.74,7.2-5.7l46.92,.42-3.05,51.82Z"/><path id="Path_2991" d="M306.81,441.64h0l-54.7-.48c-1.85-.01-3.59-.86-4.74-2.3-1.14-1.42-1.57-3.27-1.18-5.04l8.65-39.84c.84-3.77,4.19-6.44,8.05-6.44h.07l46.92,.42c.52,0,.93,.43,.93,.94,0,.02,0,.03,0,.05l-3.05,51.82c-.03,.49-.44,.88-.93,.88m-43.94-52.23c-2.98,0-5.56,2.06-6.22,4.97l-8.65,39.84c-.27,1.22,.03,2.5,.82,3.48,.8,1.01,2.01,1.59,3.3,1.6l53.81,.48,2.94-49.95-45.94-.41h-.06"/><path id="Path_2992" class="cls-10" d="M313.81,440.76l-10.61-.09c-2.84,0-5.14-2.31-5.13-5.16,0-.35,.04-.71,.11-1.05l9.53-43.88c.22-1,1.12-1.71,2.14-1.7l2.73,.02c1.13,0,2.06,.87,2.15,1.99l3.34,45.39c.16,2.31-1.59,4.32-3.91,4.47-.11,0-.23,.01-.34,0"/><path id="Path_2993" d="M313.85,441.7h-.05l-10.61-.09c-1.85-.01-3.59-.86-4.74-2.3-1.14-1.42-1.57-3.27-1.18-5.04l9.53-43.88c.32-1.42,1.58-2.43,3.04-2.43h.03l2.73,.02c1.61,.02,2.94,1.26,3.07,2.86l3.34,45.38c.1,1.42-.39,2.82-1.37,3.85-.98,1.04-2.35,1.63-3.78,1.63m-4.02-51.89c-.58,0-1.08,.4-1.21,.96l-9.53,43.88c-.27,1.22,.03,2.5,.82,3.48,.8,1,2.01,1.59,3.3,1.6l10.61,.09c1.8,.03,3.29-1.41,3.31-3.21,0-.09,0-.18,0-.27l-3.34-45.38c-.06-.64-.59-1.12-1.22-1.13l-2.73-.02h0"/><path id="Path_2994" d="M299.65,410.68h-.03l-42.83-.38c-.52-.02-.92-.45-.9-.97,.02-.49,.42-.89,.91-.9h0l42.83,.38c.83,.02,1.57-.54,1.77-1.35l3.92-15.73c.12-.5,.63-.81,1.13-.68,.5,.12,.81,.63,.68,1.13l-3.92,15.73c-.41,1.64-1.88,2.78-3.57,2.77"/><path id="Path_2995" class="cls-3" d="M283.1,409.6l-1.24,4.78c-.21,.81-.94,1.38-1.78,1.37l-8.48-.08c-.76,0-1.38-.62-1.38-1.39,0-.13,.02-.26,.05-.38l1.28-4.41,11.55,.1Z"/><path id="Path_2996" d="M280.09,416.68h-.03l-8.48-.08c-.73,0-1.42-.35-1.86-.94-.43-.58-.57-1.33-.36-2.02l1.28-4.41c.12-.4,.48-.67,.9-.67h0l11.55,.1c.52,0,.93,.43,.93,.94,0,.08-.01,.15-.03,.23l-1.24,4.78c-.31,1.22-1.41,2.07-2.67,2.07m-7.85-6.24l-1.08,3.73c-.04,.13-.01,.27,.07,.38,.09,.12,.22,.19,.37,.18l8.48,.08h0c.4,0,.76-.27,.86-.66l.94-3.63-9.64-.09Z"/><path id="Path_2997" d="M295.48,437.52h0l-45.5-.4c-.52-.02-.92-.45-.9-.97,.02-.49,.42-.89,.91-.9h0l45.5,.4c.52,.02,.92,.45,.9,.97-.02,.49-.42,.89-.91,.9"/><path id="Path_2998" d="M273.76,386.75l-3.55-.03c-.95-.01-1.74,.75-1.75,1.7l7.03,.06c0-.95-.77-1.73-1.72-1.73"/><path id="Path_2999" d="M302.22,387l-3.55-.03c-.95-.01-1.74,.75-1.75,1.7l7.03,.07c0-.95-.77-1.73-1.72-1.73"/><path id="Path_3000" d="M301.29,386.9l.6-3.36c.43-1.92-.77-3.83-2.69-4.27-.3-.07-.6-.1-.9-.09l-21.3-.19c-2.5,.05-4.63,1.83-5.14,4.27l-.6,3.36,1.95,.47,.42-2.74c.33-1.85,1.85-3.67,3.73-3.66l19.97,.18c1.53-.05,2.82,1.15,2.87,2.68,0,.24-.01,.47-.07,.7l-.47,2.61h1.63Z"/><path id="Path_3001" class="cls-10" d="M297.21,377.79l-19.57-.17c-.85,.04-1.55,.67-1.68,1.51l-.3,1.82c-.17,.66,.23,1.33,.89,1.5,.09,.02,.19,.04,.28,.04l19.57,.17c.85-.04,1.55-.67,1.68-1.51l.3-1.82c.17-.66-.23-1.33-.89-1.5-.09-.02-.19-.04-.28-.04"/><path id="Path_3002" class="cls-7" d="M303.13,437.6c-.52,0-.94-.42-.94-.94,0-.34,.18-.65,.48-.82l6.89-3.8,.36-40.05c0-.51,.42-.93,.94-.93h0c.52,0,.93,.43,.93,.94h0l-.36,40.6c0,.34-.19,.65-.48,.81l-7.37,4.07c-.14,.08-.29,.12-.45,.12"/><path id="Path_3003" class="cls-3" d="M137.84,563.79l16.42-3.22c-3.2-4.1-4.03-8.74-3.27-17.19l-10.22-.57-2.93,20.98Z"/><path id="Path_3004" d="M136.73,564.96l3.23-23.14,12.05,.67-.09,.96c-.75,8.33,.06,12.66,3.08,16.53l.94,1.2-19.2,3.77Zm4.85-21.17l-2.63,18.83,13.71-2.69c-2.5-3.82-3.25-8.31-2.68-15.67l-8.4-.47Z"/><path id="Path_3005" class="cls-3" d="M137.26,555.1c-.8,2.47-2.55,9.47-3.33,13.68-.48,2.65,1.09,5.24,3.65,6.04,7.23,2.27,24.69,2.91,39.19,4.15,1.72,.08,3.28-1.04,3.76-2.69,3.12-8.13-12.43-11.27-27.36-20.41-.72,.52-1.49,.96-2.3,1.34-2.64,1.02-5.6,.78-8.03-.65l-3.39-2.22c-.67-.44-1.57-.26-2.02,.41-.07,.11-.13,.23-.17,.36"/><path id="Path_3006" d="M177.03,579.92c-.11,0-.22,0-.33-.01-3.71-.32-7.67-.6-11.5-.87-11.53-.82-22.42-1.59-27.9-3.32-3.02-.94-4.86-3.99-4.29-7.1,.78-4.21,2.53-11.23,3.36-13.8,.4-1.26,1.75-1.95,3.01-1.55,.21,.07,.4,.16,.58,.28l3.39,2.22c2.16,1.26,4.78,1.48,7.12,.59,.75-.35,1.46-.76,2.14-1.24l.51-.38,.54,.33c4.36,2.58,8.84,4.94,13.44,7.07,9.36,4.51,16.76,8.07,14.3,14.47-.6,1.92-2.36,3.25-4.38,3.31m-38.87-24.54c-.81,2.5-2.55,9.53-3.3,13.57-.4,2.18,.9,4.32,3.01,4.98,5.27,1.66,16.56,2.46,27.47,3.24,3.84,.27,7.8,.55,11.52,.87,1.31,.05,2.48-.83,2.8-2.1,1.75-4.57-3.66-7.44-13.37-12.11-4.03-1.94-8.58-4.13-13.09-6.85-.62,.4-1.27,.76-1.93,1.07-2.93,1.15-6.23,.88-8.94-.72l-3.39-2.22c-.24-.16-.56-.09-.72,.14-.03,.04-.05,.08-.06,.13"/><path id="Path_3007" class="cls-3" d="M133.42,570.69c-.02,.07-.03,.12-.03,.15-.49,2.65,1.64,3.78,4.02,5.01,7.2,3.74,37.59,3.21,37.59,3.21,0,0,4.02,.29,5.23-2.07,.21-.3,.36-.64,.45-1.01,.07-.47,.14-2.17,.14-2.17-15.18,1.62-25.05,.88-38.67-2.35-2.81-.73-5.55-1.7-8.2-2.89,0,0-.17,.61-.53,2.11"/><path id="Path_3008" d="M170.97,580.03c-8.59,0-28.2-.34-33.99-3.34-2.41-1.25-5.14-2.66-4.51-6.02,0-.03,.02-.08,.04-.16v-.03c.37-1.51,.54-2.13,.55-2.15,.14-.5,.66-.79,1.15-.65,.07,.02,.14,.05,.21,.09,2.57,1.15,5.23,2.08,7.95,2.79,13.96,3.31,23.63,3.89,38.35,2.33,.51-.05,.98,.32,1.03,.83,0,.05,0,.09,0,.14,0,.18-.08,1.76-.15,2.27-.06,.39-.2,.76-.42,1.09-.04,.07-.08,.14-.12,.21-1.42,2.76-5.57,2.61-6.09,2.58-.35,0-1.82,.03-4.01,.03m-36.64-9.12v.03l-.03,.08c-.33,1.79,.82,2.59,3.54,4,6.91,3.59,36.84,3.11,37.14,3.11,.03,0,.06,0,.08,0,.95,.07,3.57-.09,4.33-1.56,.06-.11,.12-.21,.18-.31,.09-.12,.15-.26,.17-.4,.02-.17,.05-.57,.08-1-14.35,1.45-24.05,.8-37.89-2.48-2.5-.67-4.96-1.49-7.36-2.47-.07,.27-.15,.6-.24,1"/><path id="Path_3009" d="M154.44,563.74c-.52,0-.93-.42-.93-.94,0-.3,.15-.58,.4-.76l4.54-3.16c.43-.29,1.01-.17,1.3,.26,.28,.42,.18,.98-.23,1.28l-4.54,3.16c-.16,.11-.34,.17-.54,.17"/><path id="Path_3010" d="M160.21,566.37c-.52,0-.94-.42-.94-.94,0-.31,.15-.6,.41-.77l3.97-2.72c.43-.29,1.01-.18,1.3,.24s.18,1.01-.24,1.3l-3.97,2.72c-.16,.11-.34,.16-.53,.16"/><path id="Path_3011" class="cls-3" d="M195.03,561.01l11.54,3.65,6.02-6.32c-6.55-3.38-4.58-10.3-4.39-14.71l-11.64-.49-1.52,17.88Z"/><path id="Path_3012" d="M206.85,565.73l-12.81-4.05,1.66-19.51,13.47,.57-.04,.94c-.03,.72-.11,1.49-.19,2.31-.41,4.21-.88,8.97,4.07,11.53l1.11,.57-7.28,7.65Zm-10.82-5.39l10.27,3.25,4.8-5.04c-4.95-3.25-4.41-8.71-4.01-12.76,.04-.44,.08-.86,.12-1.27l-9.79-.41-1.38,16.23Z"/><path id="Path_3013" class="cls-3" d="M193.36,557.36c-.7,4.12-1.16,8.28-1.37,12.45-.1,2.88,1.97,5.37,4.82,5.8,13.82,1.92,27.8,2.52,41.74,1.8,1.84-.2,3.31-1.63,3.55-3.46,2.02-9.11-14.13-11.61-31.36-18.88l-3.11,2.88c-1.65,1.53-4.06,1.92-6.1,.98l-5.97-2.74c-.79-.36-1.71-.01-2.07,.77-.06,.13-.1,.26-.12,.4"/><path id="Path_3014" d="M227.7,578.68c-10.38,0-20.75-.72-31.04-2.14-3.31-.51-5.72-3.41-5.61-6.76,.21-4.21,.68-8.41,1.39-12.57,.22-1.36,1.51-2.29,2.87-2.06,.22,.04,.43,.1,.64,.19l5.97,2.74c1.7,.78,3.7,.46,5.07-.82l3.55-3.29,.56,.23c4.29,1.81,8.61,3.36,12.42,4.72,11.84,4.24,21.18,7.59,19.49,15.22-.34,2.24-2.15,3.96-4.4,4.19-3.55,.23-7.24,.34-10.9,.34m-32.8-21.7c-.1,0-.2,.03-.29,.07-.18,.09-.3,.26-.33,.46-.7,4.08-1.15,8.2-1.36,12.33-.08,2.4,1.65,4.48,4.02,4.85,13.76,1.92,27.66,2.52,41.53,1.79,1.43-.16,2.55-1.3,2.7-2.73,1.34-6.03-6.9-8.97-18.3-13.06-3.67-1.31-7.81-2.8-11.96-4.53l-2.66,2.47c-1.92,1.79-4.74,2.24-7.12,1.14l-5.97-2.74c-.08-.04-.17-.06-.26-.06"/><path id="Path_3015" class="cls-3" d="M192.02,569.12s-.02,.47-.03,.69c-.09,2.87,1.98,5.36,4.82,5.8,13.82,1.92,27.8,2.52,41.74,1.8,1.84-.2,3.31-1.63,3.55-3.46,.11-.76,.15-1.53,.12-2.29l-1.1,.03c-15.7,.39-31.4-.38-46.98-2.31l-2.11-.26Z"/><path id="Path_3016" d="M227.7,578.68c-10.38,0-20.75-.72-31.04-2.14-3.31-.51-5.72-3.41-5.61-6.76,0-.23,.03-.7,.03-.7,.02-.52,.46-.92,.98-.89,.02,0,.05,0,.07,0l2.11,.26c15.54,1.91,31.19,2.68,46.85,2.3l1.1-.03c.51-.01,.94,.39,.96,.9,.04,.85,0,1.7-.14,2.53-.34,2.24-2.15,3.96-4.4,4.19-3.55,.23-7.24,.34-10.9,.34m-34.78-8.51c.09,2.28,1.77,4.17,4.02,4.52,13.76,1.92,27.66,2.52,41.53,1.79,1.43-.17,2.55-1.3,2.7-2.73,.07-.37,.1-.75,.1-1.13h-.15c-15.74,.38-31.49-.39-47.12-2.32l-1.09-.13Z"/><path id="Path_3017" d="M214.6,566.21c-.52,0-.94-.42-.94-.94,0-.25,.1-.49,.28-.66l5.7-5.64c.37-.36,.96-.36,1.32,0,.36,.37,.36,.96,0,1.32h0l-5.7,5.64c-.18,.17-.41,.27-.66,.27"/><path id="Path_3018" d="M221.11,568.07c-.52,0-.94-.42-.94-.94,0-.22,.08-.44,.23-.61l5.08-5.92c.32-.4,.91-.47,1.32-.15,.4,.32,.47,.91,.15,1.32-.01,.02-.03,.03-.04,.05l-5.08,5.92c-.18,.21-.44,.33-.71,.33"/><path id="Path_3019" d="M176.58,425.24c1.75,5.14,8.43,39.79,10.31,53.36,1.7,12.35,5.28,57.89,5.79,66.74,.05,.76,.68,1.36,1.44,1.36h16.71c.74,0,1.36-.56,1.44-1.3,.92-9.18,8.74-60.66,7.89-85.52-.94-27.15-13.12-59.45-15.46-68.34s-5.25-29.95-5.25-29.95l-56.29,8.74s-7.09,45.6-10.15,73.17c-1.35,12.13-1.53,51.54,.82,72.61,1.52,13.65,2.94,22.35,3.49,27.09,.26,2.2,2.12,3.85,4.33,3.85h12.37c.79,0,1.43-.63,1.45-1.42,.07-5.68,2.5-23.68,6.12-42.21,4.22-21.53,8.9-55.24,11.24-68.81,.77-4.49,1.45-9.64,2-14.53,0,0,0,.03,1.75,5.17"/><path id="Path_3020" class="cls-5" d="M175.21,424.79s-.07,0-.11,0c-.51-.06-.88-.52-.82-1.03h0c.39-3.45,.69-6.6,.92-8.96,.44-4.64,2.83-8.87,6.57-11.65,.43-.28,1.01-.15,1.29,.28,.25,.39,.18,.92-.18,1.22-3.32,2.46-5.44,6.21-5.83,10.32-.22,2.37-.53,5.53-.92,8.99-.05,.47-.45,.83-.93,.83"/><path id="Path_3021" class="cls-5" d="M141.16,397.49c-.52-.01-.93-.44-.92-.95,0-.49,.4-.9,.9-.92,7.07-.16,10.38-7.22,11.47-10.25,.16-.49,.69-.76,1.18-.59,.49,.16,.76,.69,.59,1.18l-.02,.05c-1.23,3.39-4.96,11.28-13.19,11.48h-.02"/><path id="Path_3022" class="cls-5" d="M202.83,396.31s-.07,0-.11,0c-7.47-.85-9.2-8.12-9.07-11.85,0-.51,.42-.91,.93-.9h.04c.52,.02,.92,.45,.9,.97-.01,.39-.19,9.06,7.41,9.92,.51,.06,.88,.52,.82,1.04-.05,.47-.45,.83-.92,.83"/><path id="Path_3023" class="cls-3" d="M166.81,256.79l1.3-26.4,19.07,9.94-.39,16.69c-.18,3.72-3.06,12.89-3.06,12.89-3.95,2.83-9.74-4.88-13.7-7.7l-.92-.65c-1.54-1.09-2.4-2.89-2.29-4.77"/><path id="Path_3024" d="M181.81,271.49c-2.92,0-6.08-2.93-8.95-5.58-1.07-1.04-2.2-2.02-3.39-2.92l-.92-.65c-1.8-1.27-2.82-3.39-2.69-5.59l1.3-26.39c.03-.52,.47-.91,.98-.89,.13,0,.27,.04,.38,.1l19.07,9.94c.31,.17,.51,.5,.5,.85l-.4,16.69c-.19,3.82-2.99,12.77-3.11,13.15-.06,.19-.18,.36-.35,.48-.71,.53-1.57,.81-2.45,.81m-12.84-39.59l-1.23,24.94h0c-.09,1.57,.62,3.06,1.9,3.96l.92,.65c1.25,.95,2.45,1.98,3.58,3.08,3.06,2.83,6.51,6.02,8.79,4.78,.51-1.65,2.77-9.16,2.92-12.33l.38-16.08-17.26-8.99Z"/><path id="Path_3025" d="M196.33,200.46c-5.12-.35,1.26,4.96-17.61-.75-7.52-2.27-3.8,6.52-5.75,5.93-7.21-2.16-6.96-2.09-10.5-1.21-2.34,.58-3.91,4.85-3.51,8.05,.53,4.23,4.03,5.36,7.03,14.31,2.11,6.29,1.53,10.09,4.05,11.03,2.54,.95,4.47-2.43,7.33-1.6,3.7,1.08,2.89,7.45,6.48,10.14,2.26,1.69,7.55,2.53,16.08-1.48,1.38-.65,2.11-2.19,1.72-3.67-.5-1.89-1.15-4.28-1.95-6.51-3.85-10.62-7.61-13.06-6.21-15.78,2.15-4.17,10.12-1.68,11.48-5.11,1.42-3.57-1.63-12.86-8.64-13.34"/><path id="Path_3026" class="cls-3" d="M178.26,218.48l1.43,2.73c.68,1.29,1.26,2.62,1.75,3.99,.92,2.57,2.68,6.91,3.64,9.36,3.08,7.89,12.9-.63,12.9-.63l.7-2.15,1.31-.52c.26-.1,.48-.26,.66-.46,.41-.51,.45-1.23,.08-1.77-1.92-2.89-5.92-9.37-7.32-15.16-5.51-1.14-11.22,.6-15.15,4.62"/><path id="Path_3027" d="M179.18,218.61c.34,.49,.66,.95,.95,1.42,.14,.24,.28,.48,.41,.73,.17,.31,.33,.63,.48,.94,.31,.64,.6,1.28,.88,1.93,.27,.65,.51,1.33,.75,1.95,.96,2.55,1.98,5.1,2.99,7.65l.38,.96c.11,.28,.24,.55,.38,.81,.26,.49,.61,.91,1.05,1.26,.92,.63,2.07,.83,3.14,.55,1.24-.27,2.43-.74,3.53-1.38,1.14-.64,2.22-1.39,3.23-2.22l-.28,.42c.24-.72,.47-1.43,.72-2.15v-.03c.1-.25,.29-.46,.55-.55,.42-.15,.84-.27,1.27-.36,.36-.07,.49-.12,.64-.36,.11-.22,.11-.49-.02-.71-.01-.03-.03-.05-.05-.08l-.09-.13-.18-.28-.36-.55c-.96-1.48-1.89-2.99-2.77-4.53-1.85-3.08-3.28-6.38-4.27-9.83l.66,.68c-.62-.13-1.24-.22-1.87-.26-.65-.04-1.3-.05-1.95-.01-1.3,.07-2.58,.3-3.82,.67-1.24,.38-2.43,.91-3.54,1.58-.56,.34-1.09,.71-1.6,1.11-.26,.19-.5,.41-.75,.62l-.13,.11s-.05,.02-.08,.03c-.06,0-.14,0-.25,0m-1.85-.28c.15-.25,.32-.48,.5-.71,.1-.11,.2-.23,.3-.33l.15-.15,.1-.09c.27-.24,.54-.49,.83-.71,.57-.46,1.16-.88,1.77-1.27,2.5-1.53,5.35-2.4,8.28-2.51,.73-.03,1.45-.02,2.18,.04,.75,.05,1.48,.17,2.21,.35,.33,.08,.59,.35,.66,.68,.4,1.66,.93,3.28,1.58,4.85,.64,1.6,1.37,3.17,2.17,4.7s1.67,3.05,2.6,4.51l.35,.55,.18,.27,.09,.14c.04,.07,.08,.14,.12,.21,.28,.57,.3,1.24,.05,1.83-.12,.3-.3,.58-.52,.81-.22,.21-.47,.39-.74,.52-.38,.22-.77,.42-1.18,.6l.55-.58c-.22,.72-.46,1.44-.68,2.16h0c-.05,.17-.15,.31-.28,.42-1.1,.93-2.28,1.75-3.53,2.47-1.27,.76-2.66,1.31-4.1,1.63-.78,.16-1.59,.19-2.38,.09-.85-.12-1.65-.45-2.33-.96-.66-.5-1.2-1.14-1.6-1.87-.19-.34-.36-.69-.5-1.05l-.38-.96c-1-2.55-2.03-5.1-2.99-7.7-.24-.66-.45-1.29-.7-1.91s-.51-1.23-.8-1.83l-.99-1.99c-.35-.74-.67-1.49-.97-2.22"/><path id="Path_3028" class="cls-3" d="M180.22,227.99s-3.44-6.58-6.11-4.38,1.31,9.34,6.11,4.38"/><path id="Path_3029" d="M193.25,229.76c-.14,0-.28,0-.42-.02-.76-.15-1.42-.64-1.76-1.34-1.12-2.25-1.16-4.89-.09-7.16,.27-.62,.78-1.1,1.41-1.34,.82-.32,1.74-.3,2.55,.08,1.16,.51,1.77,1.74,1.87,3.77,.12,2.52-.32,4.21-1.35,5.18-.6,.56-1.39,.86-2.21,.84m.3-8.22c-.16,0-.31,.03-.45,.08-.16,.05-.3,.16-.38,.31-1.37,3.41-.12,5.74,.36,5.95,.4,.06,.8-.06,1.1-.33,.34-.32,.88-1.23,.77-3.73-.04-.84-.2-1.9-.75-2.14-.2-.09-.41-.14-.63-.14"/><path id="Path_3030" d="M177.11,223.38c-.52,0-.94-.42-.94-.94,0-.48,.36-.88,.83-.93l16.03-1.84c.51-.06,.98,.31,1.04,.82s-.31,.98-.82,1.04l-16.03,1.84s-.07,0-.11,0"/><path id="Path_3031" d="M200.24,228.18c-.52,0-.94-.42-.94-.94,0-.32,.16-.61,.43-.79,.85-1.57,.92-3.46,.17-5.09-.09-.2-.26-.34-.48-.38-.83,.03-1.63,.33-2.28,.86-.41,.31-1,.24-1.31-.17s-.24-1,.17-1.31c.21-.16,2.08-1.55,3.79-1.21,.74,.15,1.38,.62,1.73,1.29,.88,1.8,1.01,3.87,.36,5.77-.15,.77-.6,1.45-1.26,1.89-.12,.05-.25,.08-.38,.08"/><path id="Path_3032" class="cls-4" d="M203.96,286.13s5.29,21.38,10.32,27.42,15.11,13.08,26.94,14.09c0,0,6.7-.43,2.48,11.7-.68,1.97-2.44,3.36-4.51,3.58-9.07,.93-34.45,1.58-44.3-18.3-12.08-24.4,9.06-38.49,9.06-38.49"/><path id="Path_3033" d="M231.83,344.22c-11.98,0-29.74-2.98-37.77-19.19-12.31-24.85,9.16-39.54,9.38-39.68,.43-.29,1.01-.17,1.3,.26,.06,.09,.1,.19,.13,.29,.05,.21,5.29,21.24,10.13,27.04,4.76,5.71,14.49,12.73,26.25,13.75,1.41,0,2.75,.65,3.61,1.77,1.64,2.16,1.55,5.92-.27,11.17-.8,2.31-2.87,3.94-5.3,4.2-2.48,.25-4.97,.38-7.46,.38m-28.42-56.5c-3.1,2.52-5.72,5.58-7.73,9.03-4.81,8.42-4.79,17.65,.06,27.45,9.45,19.08,33.48,18.79,43.37,17.78,1.71-.18,3.15-1.33,3.72-2.95,1.99-5.73,1.41-8.28,.57-9.41-.5-.66-1.29-1.05-2.12-1.05-.04,0-.09,0-.13,0-12.35-1.05-22.58-8.42-27.58-14.42-4.42-5.3-8.89-21.55-10.16-26.43"/><path id="Path_3034" class="cls-8" d="M165.29,254.38c-3.06,1.91-5.95,4.07-8.65,6.47-5.57,4.73-14.03,4.99-18.96,16.71-8.57,20.4-6.07,64.23,1.92,86.41,1.61,4.46,.69,14.82,.69,14.82l44.66-.36,6.01-17.19,3.31,16.84,11.78-.15s-7.18-37.49-2.1-62.85c2.11-10.49,6.78-27.88-5.04-43.45-2.69-3.55-8.05-9.77-10.44-13.53l-2.9,2.9c-.58,.14-1.19,4.65-1.86,4.76-7.11,1.23-9.13-2.01-14.08-7.25l-4.35-4.14Z"/><path id="Path_3035" d="M140.3,379.73c-.52,0-.94-.42-.94-.93,0-.03,0-.06,0-.08,0-.1,.87-10.21-.64-14.42-8.04-22.35-10.68-66.17-1.9-87.09,3.53-8.4,8.86-11.16,13.57-13.6,2-.94,3.9-2.1,5.64-3.46,2.74-2.44,5.68-4.63,8.79-6.57,.36-.2,.81-.15,1.1,.14l4.35,4.14c.56,.59,1.06,1.13,1.53,1.64,3.85,4.17,5.83,6.3,11.44,5.42,.23-.62,.42-1.26,.58-1.9,.41-1.53,.64-2.42,1.21-2.77l2.79-2.79c.37-.37,.96-.37,1.32,0,.05,.05,.09,.1,.13,.16,1.55,2.44,4.41,5.98,6.93,9.11,1.3,1.62,2.54,3.14,3.46,4.36,11.3,14.88,7.91,31.23,5.66,42.04-.15,.75-.3,1.47-.44,2.16-4.99,24.88,2.03,62.11,2.1,62.48,.1,.51-.23,1-.74,1.1-.05,.01-.11,.02-.17,.02l-11.78,.15c-.45,0-.84-.31-.93-.76l-2.65-13.46-4.87,13.94c-.13,.37-.48,.62-.88,.63l-44.66,.36h0Zm24.87-124.18c-2.77,1.82-5.42,3.83-7.92,6.01-1.85,1.46-3.86,2.7-5.99,3.7-4.64,2.4-9.44,4.89-12.71,12.66-8.39,19.97-5.95,63.83,1.94,85.73,1.37,3.8,1.01,11.42,.82,14.2l42.99-.35,5.79-16.57c.17-.49,.71-.74,1.19-.57,.31,.11,.54,.38,.61,.7l3.16,16.08,9.9-.13c-1.12-6.4-6.48-39.3-1.9-62.11,.14-.7,.29-1.42,.45-2.17,2.18-10.48,5.47-26.33-5.32-40.53-.91-1.19-2.13-2.71-3.43-4.32-2.24-2.78-4.75-5.88-6.42-8.31l-2.09,2.09s-.05,.05-.08,.07c-.21,.57-.39,1.15-.53,1.74-.51,1.9-.81,3.05-1.76,3.21-6.85,1.19-9.48-1.65-13.44-5.94-.47-.51-.96-1.04-1.48-1.59l-3.79-3.61Z"/><path id="Path_3036" d="M202.15,337.6c-.52,0-.94-.42-.94-.93-.1-7.3,.52-14.59,1.84-21.76,.14-.7,.29-1.42,.45-2.17,.62-2.98,1.32-6.36,1.77-10.01,.06-.51,.53-.88,1.04-.81,.51,.06,.88,.53,.81,1.04-.46,3.73-1.17,7.15-1.8,10.16-.15,.75-.31,1.47-.44,2.16-1.29,7.06-1.9,14.22-1.8,21.39,0,.52-.42,.94-.93,.94"/><path id="Path_3037" class="cls-3" d="M242.86,331.68c-1.02,1.5-4.17,5.48-.42,7.92,.97,.63,6.84,1.42,8.38,2.17,2.28,1.11,3.99,3.45,7.52,4.78,6.55,2.45,10.62,.82,14.08-2.77s-6.23-15.53-13.16-14.93-14.92,.64-16.4,2.83"/><path id="Path_3038" d="M264.05,348.66c-2.07-.05-4.11-.46-6.04-1.23-1.86-.75-3.58-1.79-5.1-3.1-.77-.66-1.61-1.23-2.5-1.71-1.36-.46-2.76-.81-4.18-1.06-1.48-.2-2.93-.59-4.31-1.18-1.09-.64-1.87-1.7-2.14-2.94-.46-2.34,1.19-4.71,2.07-5.98l.22-.31c1.38-2.04,5.83-2.44,12.99-2.93,1.37-.09,2.76-.19,4.11-.3,5.39-.46,11.76,5.67,13.95,10.27,1.28,2.68,1.26,4.9-.04,6.25-2.74,2.84-5.65,4.22-9.05,4.22m-4.28-18.89c-.15,0-.29,0-.43,.02-1.36,.12-2.76,.21-4.14,.31-4.73,.32-10.63,.73-11.57,2.11h0l-.23,.33c-.73,1.04-2.08,2.99-1.77,4.55,.18,.74,.66,1.36,1.32,1.73,1.2,.4,2.42,.7,3.67,.91,1.57,.26,3.11,.66,4.61,1.2,1.01,.54,1.97,1.18,2.84,1.93,1.37,1.19,2.92,2.14,4.6,2.82,5.47,2.05,9.38,1.29,13.08-2.54,.71-.73,.6-2.24-.3-4.14-2.09-4.4-7.54-9.23-11.67-9.23"/><path id="Path_3039" class="cls-3" d="M248.45,333.66c-.45-.95-.26-2.08,.48-2.83,1.68-1.94,5.17-5.6,7.63-5.39,2.9,.25,6.6,3.48,5.47,9-.72,3.53-3.88,1.8-4.3,.4-.45-1.49-1.11-3.14-1.87-2.46-.83,.74-5.5,4.77-7.41,1.27"/><path id="Path_3040" d="M260.12,337.46c-1.46-.05-2.76-.98-3.28-2.34-.16-.6-.39-1.19-.68-1.75-1.46,1.24-3.92,2.96-6.09,2.58-1.06-.2-1.96-.88-2.44-1.85h0c-.65-1.29-.41-2.85,.6-3.89,2.36-2.73,5.73-5.94,8.42-5.71,1.97,.23,3.76,1.29,4.92,2.9,1.51,2.08,2.01,4.73,1.39,7.22-.5,2.46-2.06,2.8-2.7,2.83h-.13m-3.91-6.16c.13,0,.25,.02,.37,.05,.83,.23,1.42,1.17,2.04,3.23,.29,.59,.88,.98,1.54,1.01,.46-.02,.78-.47,.95-1.33,.51-1.97,.12-4.07-1.05-5.73-.85-1.18-2.14-1.96-3.58-2.16-1.45-.12-4,1.77-6.84,5.07-.47,.46-.62,1.16-.37,1.77,.2,.47,.61,.8,1.11,.9,1.33,.23,3.38-1.1,4.85-2.41,.26-.25,.61-.39,.98-.4"/><path id="Path_3041" class="cls-3" d="M191.07,305.85c-7.45-18.74-15.45-36.27-24.76-50.98,6.74,4.8,12.47,11.54,20.72,5.93,2.22,13.37,5.57,29.46,4.04,45.04"/><path id="Path_3042" d="M191.07,306.78c-.38,0-.73-.23-.87-.59-8.64-21.71-16.48-37.86-24.68-50.82-.28-.44-.15-1.02,.29-1.29,.32-.2,.73-.19,1.04,.03,1.1,.78,2.17,1.61,3.21,2.42,5.41,4.2,10.08,7.83,16.44,3.5,.43-.29,1.01-.18,1.3,.25,.08,.11,.13,.24,.15,.37,.27,1.61,.55,3.25,.84,4.94,2.14,12.43,4.56,26.52,3.21,40.35-.05,.48-.45,.84-.93,.85m-21.36-48.16c6.85,11.5,13.53,25.41,20.71,43.11,.58-12.29-1.57-24.73-3.48-35.83-.21-1.21-.41-2.4-.61-3.57-6.54,3.65-11.69,.1-16.62-3.71"/><path id="Path_3043" class="cls-3" d="M166.57,252.24c5.39,4.01,13.31,7.51,18.8,8.15-1.71,5.01-.41,5.59-4.35,9.94-9.94-5.8-11.88-11.37-15.97-16.56-.37-.47-.28-1.15,.19-1.52,.39-.3,.93-.3,1.32,0"/><path id="Path_3044" d="M181.03,271.26c-.17,0-.33-.04-.47-.13-7.79-4.55-10.76-8.91-13.62-13.13-.86-1.27-1.67-2.47-2.61-3.66-.68-.88-.51-2.15,.37-2.83,.71-.55,1.7-.56,2.43-.02h0c5.39,4.01,13.11,7.36,18.35,7.97,.51,.06,.88,.52,.82,1.04,0,.07-.02,.13-.04,.2-.4,1.18-.72,2.38-.95,3.59-.44,2.12-.73,3.52-3.59,6.67-.18,.2-.43,.31-.69,.31m-15.11-18.32s-.08,.02-.11,.06c-.08,.09-.05,.13-.01,.18,.98,1.24,1.85,2.53,2.69,3.77,2.66,3.93,5.42,7.98,12.35,12.18,1.43-1.41,2.35-3.24,2.64-5.23,.15-.74,.34-1.63,.67-2.75-5.46-.94-12.88-4.26-18.14-8.17-.03-.02-.06-.04-.09-.04"/><path id="Path_3045" class="cls-3" d="M184.96,261.84c2.28-2.61,3.13-6.17,2.28-9.53,4.25,2.62,6.36,6.93,7.25,12.22-2.93-2.84-6.53-2.86-9.53-2.69"/><path id="Path_3046" d="M194.49,265.47c-.24,0-.48-.09-.65-.26-2.62-2.54-5.8-2.59-8.82-2.43-.52,.03-.96-.37-.98-.88-.01-.24,.06-.47,.22-.65,2.09-2.39,2.87-5.65,2.08-8.73-.11-.51,.21-1,.71-1.11,.23-.05,.48-.01,.69,.11,4.14,2.55,6.65,6.76,7.68,12.86,.09,.51-.26,.99-.77,1.08-.05,0-.1,.01-.15,.01m-7.67-4.62c2.17-.07,4.31,.42,6.23,1.44-.69-3.04-2.29-5.81-4.59-7.92,.13,2.28-.44,4.54-1.64,6.48"/><path id="Path_3047" class="cls-7" d="M136.57,458.72l-54.7-.48c-2.84,0-5.14-2.31-5.14-5.15,0-.35,.04-.71,.11-1.05l8.65-39.84c.75-3.36,3.75-5.74,7.2-5.7l46.92,.42-3.05,51.82Z"/><path id="Path_3048" d="M136.57,459.66h0l-54.7-.48c-1.85-.01-3.59-.86-4.75-2.3-1.14-1.41-1.57-3.27-1.18-5.04l8.65-39.84c.85-3.79,4.23-6.48,8.12-6.44l46.92,.42c.52,0,.93,.43,.93,.94,0,.02,0,.03,0,.05l-3.05,51.82c-.03,.49-.44,.88-.93,.88m-43.94-52.24c-2.98,0-5.56,2.06-6.22,4.97l-8.65,39.84c-.27,1.22,.03,2.5,.82,3.48,.8,1,2.01,1.59,3.3,1.6l53.81,.48,2.94-49.95-45.94-.41h-.06"/><path id="Path_3049" class="cls-6" d="M143.58,458.78l-10.62-.09c-2.84,0-5.14-2.31-5.14-5.15,0-.35,.04-.71,.11-1.05l9.53-43.88c.22-1,1.12-1.71,2.14-1.7l2.73,.02c1.13,0,2.06,.87,2.15,1.99l3.34,45.38c.16,2.31-1.59,4.32-3.91,4.47-.11,0-.23,.01-.34,0"/><path id="Path_3050" d="M143.61,459.72h-.05l-10.62-.09c-1.85-.01-3.59-.86-4.75-2.3-1.14-1.42-1.57-3.27-1.18-5.04l9.53-43.88c.32-1.42,1.58-2.43,3.04-2.43h.03l2.73,.02c1.61,.02,2.94,1.26,3.07,2.86l3.34,45.38c.1,1.42-.39,2.82-1.37,3.85-.98,1.04-2.35,1.63-3.78,1.63m-4.02-51.88c-.58,0-1.08,.4-1.21,.96l-9.53,43.88c-.27,1.22,.03,2.5,.82,3.48,.8,1,2.01,1.59,3.3,1.6l10.62,.09c.93,.02,1.81-.36,2.44-1.04,.62-.65,.93-1.54,.87-2.44l-3.34-45.39c-.06-.64-.59-1.12-1.22-1.13l-2.73-.02h-.01"/><path id="Path_3051" d="M129.42,428.7h-.03l-42.83-.38c-.52-.02-.92-.45-.9-.97,.02-.49,.42-.89,.91-.9h0l42.83,.38h.02c.83,0,1.55-.55,1.75-1.35l3.91-15.73c.12-.5,.63-.81,1.13-.68,.5,.12,.81,.63,.68,1.13l-3.91,15.73c-.41,1.64-1.88,2.78-3.57,2.77"/><path id="Path_3052" class="cls-3" d="M112.86,427.62l-1.24,4.78c-.21,.81-.94,1.38-1.78,1.37l-8.48-.08c-.76,0-1.38-.62-1.38-1.39,0-.13,.02-.25,.05-.38l1.28-4.41,11.55,.1Z"/><path id="Path_3053" d="M109.86,434.7h-.03l-8.48-.08c-.73,0-1.42-.35-1.85-.94-.43-.58-.57-1.33-.37-2.02l1.28-4.41c.12-.4,.48-.67,.9-.67h0l11.55,.1c.52,0,.93,.43,.93,.94,0,.08-.01,.15-.03,.23l-1.24,4.78c-.31,1.22-1.41,2.07-2.67,2.07m-7.85-6.24l-1.08,3.73c-.04,.13-.01,.27,.07,.38,.09,.12,.22,.19,.37,.18l8.48,.08h0c.4,0,.76-.27,.85-.66l.94-3.63-9.64-.09Z"/><path id="Path_3054" d="M125.25,455.55h0l-45.5-.4c-.52-.02-.92-.45-.9-.97,.02-.49,.42-.89,.91-.9h0l45.5,.4c.52,.02,.92,.45,.9,.97-.02,.49-.42,.89-.91,.9"/><path id="Path_3055" d="M103.52,404.77l-3.55-.03c-.95-.01-1.74,.75-1.75,1.7l7.03,.06c0-.95-.77-1.73-1.72-1.73"/><path id="Path_3056" d="M131.99,405.02l-3.55-.03c-.95-.01-1.74,.75-1.75,1.7l7.03,.06c0-.95-.77-1.73-1.72-1.73"/><path id="Path_3057" d="M131.06,404.92l.6-3.36c.43-1.92-.77-3.83-2.69-4.27-.29-.07-.59-.1-.89-.09l-21.3-.19c-2.5,.05-4.63,1.83-5.14,4.27l-.6,3.36,1.95,.47,.42-2.74c.33-1.85,1.85-3.67,3.73-3.66l19.97,.18c1.53-.05,2.82,1.15,2.87,2.68,0,.24-.01,.47-.07,.71l-.47,2.61h1.62Z"/><path id="Path_3058" class="cls-10" d="M126.97,395.81l-19.57-.17c-.85,.04-1.55,.67-1.68,1.51l-.3,1.82c-.17,.66,.23,1.33,.89,1.5,.09,.02,.19,.04,.28,.04l19.57,.17c.85-.04,1.55-.67,1.68-1.51l.3-1.82c.17-.66-.23-1.33-.89-1.5-.09-.02-.19-.04-.28-.04"/><path id="Path_3059" class="cls-7" d="M132.9,455.61c-.52,0-.94-.42-.94-.94,0-.34,.18-.65,.48-.82l6.89-3.8,.36-40.05c0-.51,.42-.93,.94-.93h0c.52,0,.93,.43,.93,.94h0l-.36,40.6c0,.34-.19,.65-.48,.81l-7.37,4.07c-.14,.08-.29,.12-.45,.12"/><path id="Path_3060" class="cls-3" d="M112.99,381.23c-.4,2.11-1.29,4.1-2.6,5.81-2.15,2.76-4.91,8.78-3.94,13.01,.72,3.11,9.69,4.61,11.15,3.96,1.95-.86-.07-9.29,2.64-8.7,4.97,1.09,4.17-2.9,3.18-6.18s-2.69-9-2.69-9l-7.74,1.1Z"/><path id="Path_3061" d="M116.42,405.08c-2.76-.08-5.48-.72-7.99-1.87-1.66-.83-2.63-1.82-2.89-2.95-1.05-4.53,1.77-10.8,4.11-13.8,1.21-1.58,2.03-3.41,2.41-5.37l.1-.69,9.24-1.31,.23,.78s1.69,5.72,2.69,8.99c.78,2.57,1.31,5.15-.05,6.62-.85,.92-2.27,1.18-4.22,.75-.02,0-.04,0-.06,0-.32,.3-.39,2.38-.43,3.49-.08,2.43-.15,4.52-1.57,5.16-.5,.17-1.03,.24-1.56,.22m-2.65-23.02c-.48,2.01-1.38,3.9-2.64,5.55-2.05,2.63-4.66,8.34-3.76,12.23,.12,.51,.72,1.07,1.7,1.59,2.92,1.55,7.46,1.99,8.16,1.72,.35-.31,.42-2.39,.46-3.5,.07-2.2,.13-4.1,1.2-4.93,.44-.34,1.02-.46,1.56-.32,1.22,.27,2.09,.2,2.45-.19,.82-.89-.07-3.84-.37-4.8-.77-2.54-1.96-6.56-2.46-8.23l-6.29,.89Z"/><path id="Path_3062" class="cls-8" d="M156.98,269.54c3.01,1.95,5.21,4.93,6.18,8.38,1.65,5.96,1.83,15.57-8.19,25.59-16.4,16.4-28.28,21.98-29.33,78.96l-16.36,.18s-5.03-37.27,1.56-55.76c5.91-16.56,20.47-54.75,35.55-59.85,2.41-.82,8.46,1.11,10.59,2.5"/><path id="Path_3063" d="M109.27,383.59c-.47,0-.86-.35-.93-.81-.21-1.53-4.99-37.71,1.61-56.2,8.92-25.01,22.43-55.79,36.13-60.42,2.82-.95,9.17,1.15,11.4,2.6,3.2,2.07,5.54,5.24,6.57,8.91,1.79,6.45,1.78,16.29-8.43,26.5-1.56,1.56-3.07,3.02-4.54,4.43-13.68,13.17-23.57,22.68-24.51,73.89,0,.51-.42,.91-.93,.92l-16.36,.18h0Zm38.58-115.81c-.39-.01-.79,.04-1.16,.15-10.29,3.48-22.38,23.98-34.97,59.28-5.91,16.56-2.3,48.94-1.62,54.5l14.62-.16c1.06-51.19,11.15-60.89,25.07-74.3,1.46-1.4,2.97-2.86,4.51-4.4,9.57-9.57,9.61-18.7,7.95-24.68-.91-3.23-2.97-6.02-5.79-7.84-2.65-1.47-5.6-2.34-8.62-2.55"/><path id="Path_3064" d="M151.58,307.75c-.52,0-.94-.42-.94-.94,0-.25,.1-.5,.29-.67,.99-.95,2.16-2.09,3.37-3.3,9.57-9.57,9.61-18.7,7.95-24.68-.64-2.29-1.87-4.38-3.57-6.05-.36-.37-.35-.96,.02-1.32,.36-.35,.94-.36,1.3,0,1.92,1.9,3.32,4.28,4.05,6.88,1.79,6.45,1.78,16.29-8.43,26.5-1.22,1.23-2.4,2.37-3.39,3.32-.17,.17-.41,.26-.65,.26"/><path id="Path_3065" class="cls-7" d="M353.64,353.79c0,11.24-23.94,13.05-39.55,13.05s-17.09-5.17-17.09-16.41,12.66-20.35,28.27-20.35,28.37,12.47,28.37,23.71"/><path id="Path_3066" class="cls-3" d="M289.55,366.33l-4.27,7.09c-1.29,2.25-2.4,4.6-3.32,7.03-1.24,3.62-.8,7.61,1.21,10.87l11.3-18.16-4.92-6.83Z"/><path id="Path_3067" d="M283.16,392.27h0c-.32,0-.63-.17-.8-.45-2.16-3.5-2.64-7.78-1.29-11.67,.94-2.47,2.06-4.87,3.38-7.17l4.29-7.13c.27-.44,.84-.59,1.28-.32,.11,.07,.2,.15,.28,.25l4.91,6.83c.22,.31,.24,.72,.04,1.04l-11.3,18.17c-.17,.27-.47,.44-.8,.44m6.45-24.23l-3.54,5.88c-1.26,2.2-2.34,4.49-3.23,6.86-.99,2.84-.85,5.95,.39,8.68l10.1-16.24-3.72-5.17Z"/><path id="Path_3068" class="cls-3" d="M318.81,538.2l3.1,22h-10.16l-6.62-23.9,13.68,1.9Z"/><path id="Path_3069" d="M321.91,561.14h-10.16c-.42,0-.79-.28-.9-.69l-6.62-23.9c-.14-.5,.15-1.01,.65-1.15,.12-.03,.25-.04,.38-.03l13.68,1.9c.42,.06,.74,.38,.8,.8l3.1,22c.07,.51-.29,.99-.8,1.06-.04,0-.09,0-.13,0m-9.45-1.87h8.37l-2.86-20.24-11.57-1.61,6.05,21.84Z"/><path id="Path_3070" class="cls-3" d="M276.95,578.13h46.38c2.42,0,4.27-2.43,3.92-5.15-.8-6.16-2.21-16.16-3.42-20.24-1.82-6.09-7.68,3.61-7.68,3.61l-6.48-6.2s-27.53,13.08-34.55,23.8c-1.13,1.72-.06,4.17,1.83,4.17"/><path id="Path_3071" d="M323.33,579.07h-46.38c-1.17-.01-2.24-.68-2.77-1.72-.67-1.23-.61-2.73,.16-3.9,7.08-10.81,33.79-23.59,34.93-24.13,.35-.17,.77-.1,1.05,.17l5.66,5.41c1.27-1.89,3.95-5.38,6.31-5.08,1.14,.15,1.97,1.04,2.45,2.66,1.25,4.2,2.7,14.58,3.45,20.39,.23,1.64-.26,3.31-1.34,4.57-.87,1.03-2.15,1.63-3.51,1.64m-13.84-27.78c-3.99,1.95-27.35,13.66-33.59,23.18-.38,.6-.41,1.36-.08,1.98,.21,.43,.64,.72,1.12,.74h46.38c.81-.01,1.58-.38,2.1-1,.73-.85,1.05-1.98,.89-3.09-.74-5.76-2.18-16.02-3.39-20.09-.11-.38-.43-1.28-.89-1.34-1.18-.15-3.72,2.9-5.09,5.17-.27,.44-.84,.58-1.29,.32-.06-.04-.11-.08-.16-.12l-6.01-5.75Z"/><path id="Path_3072" d="M323.09,575.06h-43.33c-.52-.02-.92-.45-.9-.97,.02-.49,.41-.89,.9-.9h43.33c.52-.02,.95,.39,.97,.9,.02,.52-.39,.95-.9,.97-.02,0-.04,0-.06,0"/><path id="Path_3073" class="cls-3" d="M375.26,521.96c.96,2.46,11.79,27.62,11.79,27.62l-8.15,10.21-5.63-6.58-11.12-28.79,13.11-2.46Z"/><path id="Path_3074" d="M378.9,560.73c-.27,0-.53-.12-.71-.33l-5.63-6.58c-.07-.08-.12-.17-.16-.27l-11.12-28.79c-.19-.48,.05-1.02,.54-1.21,.05-.02,.11-.04,.16-.05l13.11-2.46c.44-.08,.88,.16,1.04,.58,.94,2.41,11.67,27.34,11.77,27.59,.14,.32,.09,.68-.13,.95l-8.15,10.21c-.17,.22-.44,.35-.72,.35h-.02m-4.82-8l4.79,5.6,7.09-8.88c-1.48-3.44-9.48-22.05-11.28-26.42l-11.26,2.11,10.66,27.59Z"/><path id="Path_3075" class="cls-3" d="M393.2,547.8c1.44,1.4,1.92,3.52,1.22,5.4-2.37,6.41-8.79,20.61-20.23,24.79-9.1,3.33-15.34,3.34-18.81,2.84-1.27-.19-2.14-1.37-1.95-2.63,.05-.31,.16-.62,.33-.89,3.81-6.15,12.79-21.32,13.61-29.15,1.04-9.96,12.88,1.92,12.88,1.92l6.38-8.66,6.58,6.37Z"/><path id="Path_3076" d="M358.9,582c-1.22,0-2.45-.08-3.66-.24-1.08-.15-2.01-.84-2.47-1.83-.47-1-.4-2.17,.18-3.11,3.78-6.1,12.67-21.12,13.47-28.75,.26-2.49,1.2-4.04,2.77-4.6,3.48-1.23,8.85,3.29,10.92,5.21l5.74-7.8c.16-.22,.41-.35,.67-.38,.27-.02,.54,.07,.73,.26l6.58,6.37c1.71,1.66,2.28,4.17,1.45,6.4-2.29,6.17-8.89,21-20.78,25.34-4.98,1.95-10.26,3.01-15.61,3.14m11.64-36.88c-.24,0-.48,.03-.71,.11-.84,.3-1.36,1.32-1.54,3.03-.84,8.01-9.89,23.33-13.74,29.54-.25,.4-.28,.9-.08,1.33,.19,.42,.58,.71,1.04,.77,3.51,.5,9.55,.42,18.36-2.8,11.16-4.08,17.48-18.31,19.67-24.24,.57-1.54,.18-3.26-1-4.4h0l-5.8-5.62-5.74,7.8c-.16,.22-.41,.36-.68,.38-.27,.02-.54-.08-.73-.27-2.32-2.32-6.56-5.63-9.04-5.63"/><path id="Path_3077" d="M360.42,577.28c-.52,0-.94-.42-.94-.94,0-.46,.34-.85,.79-.92,23.94-3.69,29.72-23.99,29.77-24.19,.14-.5,.66-.78,1.16-.64,.48,.14,.77,.64,.65,1.13-.06,.22-6.12,21.67-31.29,25.55-.05,0-.1,.01-.15,.01"/><path id="Path_3078" d="M372.05,563.65c-.15,0-.29-.03-.42-.1l-8.09-4.08c-.46-.24-.63-.81-.39-1.27,.24-.44,.78-.62,1.23-.41l8.09,4.08c.46,.23,.65,.8,.41,1.26-.16,.31-.48,.51-.83,.51"/><path id="Path_3079" d="M305.13,565.76c-.32,0-.61-.16-.79-.43l-5.54-8.58c-.3-.42-.19-1.01,.23-1.3,.42-.3,1.01-.19,1.3,.23,.01,.02,.02,.04,.03,.05l5.55,8.58c.28,.43,.16,1.01-.28,1.29-.15,.1-.33,.15-.51,.15"/><path id="Path_3080" d="M328.13,343.56s22.27,18.05,27.46,36.67c4.32,15.48,12.41,105.79,12.41,105.79,0,0,12.95,36.04,13.6,46.52,0,0-10.28,7.33-18.17,6.21l-18-43.62c-2.52-3.48-4.52-7.32-5.91-11.39-1.94-6.12-18.3-63.71-18.3-63.71,0,0-1.32,85.16,1.26,121.4,0,0-11.74,1.8-18.75,.27,0,0-2.68-29.56-5.87-36.8s-3.87-18.57-2.85-29.42-9.7-72.45-6.92-126.8l40.03-5.12Z"/><path id="Path_3081" class="cls-3" d="M345.26,374.51h0c-7.86-.05-13.66-2.04-17.24-5.93-2.42-2.63-3.73-6.1-3.63-9.67,.05-.51,.51-.89,1.02-.84,.5,.05,.87,.48,.84,.99-.04,3.06,1.1,6.03,3.17,8.28,3.21,3.47,8.54,5.26,15.85,5.3,.52,.02,.92,.45,.9,.97-.02,.49-.41,.89-.91,.9"/><path id="Path_3082" class="cls-3" d="M362.14,507.38s-.06,0-.09,0c-.34-.03-8.26-.9-14.67-9.3-.3-.42-.21-1,.21-1.31,.4-.29,.97-.22,1.28,.17,5.92,7.76,13.3,8.57,13.37,8.58,.51,.05,.89,.51,.83,1.03-.05,.47-.45,.84-.92,.84"/><path id="Path_3083" class="cls-3" d="M325.3,441.55c-.42,0-.79-.29-.9-.7l-10.16-38.9-9.54-4.98c-.46-.25-.63-.81-.38-1.27,.24-.45,.79-.62,1.25-.39l9.91,5.17c.23,.12,.41,.34,.47,.59l10.27,39.3c.13,.5-.17,1.01-.67,1.14-.08,.02-.16,.03-.24,.03"/><path id="Path_3084" class="cls-8" d="M355.6,380.23c1.26,4.34-8.78-31.37-30.32-29.81-19.16,1.39-37.11,3.74-41.31,2.5-.48-.14-.81-.56-.84-1.05-.37-6.24-2.4-47.19,6.47-70.41,1.88-4.24,5.54-7.44,10-8.74,8.6-1.94,14.86-4.68,24.33-5.32,7.25-.49,21.42,.79,25.85,1.75,4.47,.97,7.2,2.89,6.03,5.83l-7.41,18.14c-3.74,9.32-3.28,19.81,1.26,28.77,.04,.07,.08,.15,.11,.22,3.81,7.4,6.5,49.25,5.84,58.11"/><path id="Path_3085" class="cls-8" d="M297.43,338.28c-1.7-.4-7.68-1.79-8.72-2.24-1.82-.6-3.2-2.11-3.65-3.97-1.28-4.01-1.33-6.46-1.01-7.93,.26-1.22,1.3-2.11,2.55-2.19,5.75-.36,32.39-1.84,35.54-5,3.61-3.63,3.61-9.07,8.47-24.66s11.72-19.95,11.72-19.95c0,0,14.49-9.46,19.6,11.14,0,0,3.77,12.76-6.21,33.24-6.61,13.56-25.04,29.36-58.28,21.56"/><path id="Path_3086" d="M310.87,339.08c-8.25-.06-16.46-1.14-24.45-3.23-.5-.11-.82-.62-.7-1.12s.62-.82,1.12-.7h.04c32.89,8.37,54.91-1.29,63.78-12.09,.33-.4,.92-.46,1.32-.13,.4,.33,.46,.92,.13,1.32-5.32,6.49-13.9,11.46-24.15,13.99-5.6,1.34-11.33,2-17.09,1.97"/><path id="Path_3087" d="M287.06,323.45c-.52,0-.93-.43-.93-.95,0-.48,.38-.88,.86-.92,10.44-.74,32.54-4.05,34.62-5.42,5.41-3.56,7.11-6.77,12.14-22.86,4.78-15.32,11.45-20.02,12.07-20.43,1.54-1.13,3.26-1.99,5.08-2.55,.5-.14,1.02,.14,1.16,.64,.14,.5-.14,1.02-.64,1.16-1.61,.5-3.13,1.26-4.49,2.26l-.07,.05c-.06,.04-6.64,4.44-11.33,19.43-4.82,15.44-6.71,19.8-12.89,23.86-2.86,1.89-27.1,5.13-35.52,5.72h-.07"/><path id="Path_3088" class="cls-3" d="M283.33,324.59c-.97-.08-7.67-.42-8.64-.38-9.99,.41-14.18,4.33-17.9,9.48s1.46,10.77,5.98,9.64,12.12-3.98,23.12-10.63c1.25-.76,3.35-1.09,3.23-2.55-.21-2.54-.66-5.15-5.79-5.55"/><path id="Path_3089" d="M261.6,344.4c-2.35-.06-4.53-1.26-5.83-3.22-1.68-2.45-1.58-5.71,.26-8.05,4.19-5.79,8.77-9.46,18.62-9.86,1.03-.04,7.81,.31,8.75,.39,5.68,.44,6.41,3.54,6.65,6.4,.14,1.73-1.46,2.42-2.63,2.93-.36,.14-.71,.31-1.04,.5-11.45,6.92-19.03,9.66-23.38,10.74-.46,.11-.93,.17-1.4,.17m13.3-19.26h-.17c-9.14,.37-13.22,3.61-17.18,9.09-1.38,1.7-1.47,4.1-.22,5.9,1.11,1.76,3.18,2.66,5.22,2.28,4.22-1.05,11.61-3.72,22.86-10.53,.41-.23,.83-.44,1.27-.62,.9-.39,1.54-.69,1.51-1.06-.18-2.23-.36-4.34-4.93-4.69-1.02-.08-7-.39-8.36-.39"/><path id="Path_3090" class="cls-3" d="M275.02,335.29c1.29,.03,2.32,1.1,2.29,2.4,0,.3-.07,.6-.19,.88-.07,.15-.14,.3-.23,.46-1.58,2.89-6.93,7.77-10.49,8.36s-5.7-6.76-3.96-8.96c2.39-3.03,9.55-3.21,12.58-3.14"/><path id="Path_3091" d="M266,348.37c-1.61-.12-3.04-1.1-3.73-2.57-1.41-2.39-1.98-6.15-.56-7.94,2.56-3.24,9.45-3.59,13.33-3.5,1.1,.03,2.12,.6,2.71,1.54,.58,.92,.67,2.07,.22,3.06-.08,.17-.16,.35-.27,.53-1.65,3.02-7.19,8.17-11.16,8.83-.18,.03-.37,.05-.56,.05m8.02-12.15c-5.42,0-9.44,1.03-10.84,2.8-.71,.89-.52,3.76,.7,5.83,.41,.69,1.27,1.82,2.37,1.63,3.28-.55,8.37-5.24,9.83-7.89,.08-.14,.14-.27,.2-.4,.19-.42,.15-.91-.1-1.29-.25-.4-.69-.66-1.17-.67-.33,0-.66-.01-.99-.01"/><path id="Path_3092" d="M321.34,256.43c1.68,1.51,3.79,2.44,6.04,2.65,2.67,.4,14.11,1.03,21.8-7.58,7.54-8.43,8.3-22.16,4-24.96-3.09-2.01-8,2.13-12.65-.99-2.06-1.38-1.57-2.51-3.77-3.98-3.69-2.47-8.43-1.51-12.07-.73-6.63,1.43-6.41,3.26-12.24,4.72-8.3,2.08-13.03-.56-14.65,2.11-1.3,2.13,.36,6.02,2.6,8.27,4.64,4.66,10.38,.72,13.95,5.03,2.21,2.67,1.9,6.34,5.2,12.96,.44,.93,1.05,1.78,1.78,2.51"/><path id="Path_3093" class="cls-3" d="M314.85,262.89c.25-.85,.51-1.8,.76-2.79-1.88,.77-3.84,.9-5,.26-1.43-.79-1.69-2.34-2.27-4.19-.19-.92-.63-1.77-1.27-2.47-.4-.38-.86-.68-1.37-.88-.57-.23-.87-.85-.71-1.44l.15-.35c1.18-2.77,1.8-5.74,1.83-8.75l.07-5.94c3.24-1.29,4.42-1.07,4.87-.55,.16,.19,.4,.31,.39,1.23-.05,4.42,3.92,3.96,7.24,3.15s2.16,5.35,2.16,5.35c0,0,2.06-2.66,4.35-.35,1.64,1.66-1.55,4.37-3.5,5.77l1.32,12.76c.35,3.36,3.51,3.33,6.68,4.49l8.55,2.14s-22.37,9.95-36.15,2.92l7.39-2.53c2.53-1.36,3.88-5.56,4.54-7.82"/><path id="Path_3094" d="M315,276.7c-4.31,.12-8.59-.79-12.49-2.63-.46-.24-.64-.8-.41-1.26,.11-.22,.3-.38,.53-.46l7.31-2.5c2.3-1.3,3.59-5.75,4.02-7.22,.11-.38,.22-.76,.32-1.12-1.37,.38-2.82,.26-4.11-.32-1.57-.86-2.02-2.38-2.49-3.98-.07-.24-.14-.49-.22-.75l-.07-.22c-.15-.69-.48-1.33-.96-1.86-.31-.3-.67-.53-1.07-.68-1-.41-1.55-1.5-1.27-2.55,.01-.04,.03-.09,.04-.13l.15-.35c1.13-2.66,1.73-5.51,1.76-8.4l.06-5.94c0-.38,.24-.72,.59-.86,3.19-1.26,5.01-1.36,5.92-.3,.47,.5,.7,1.17,.62,1.85-.11,.82,.17,1.63,.76,2.21,1.14,.9,3.58,.44,5.32,.02,.85-.27,1.78-.07,2.44,.54,.84,1.05,1.22,2.39,1.08,3.73,.34-.13,.69-.21,1.05-.24,1.08-.03,2.11,.41,2.83,1.21,.52,.5,.78,1.21,.72,1.93-.12,1.42-1.43,3.08-3.89,4.93l1.26,12.23c.2,1.9,1.41,2.33,3.93,3.04,.68,.19,1.37,.39,2.09,.65l8.5,2.13c.5,.13,.81,.63,.68,1.14-.07,.28-.26,.51-.53,.63-.68,.3-12.61,5.53-24.46,5.53m-9.48-3.36c10.4,3.77,24.66-.65,30.51-2.82l-5.73-1.43s-.06-.02-.1-.03c-.67-.24-1.35-.44-2.01-.62-2.43-.69-4.94-1.4-5.28-4.65l-1.31-12.76c-.03-.33,.11-.66,.38-.86,2.54-1.84,3.51-3.22,3.56-3.9,.02-.17-.05-.35-.18-.46-.34-.41-.84-.66-1.38-.67-.62,.11-1.19,.44-1.58,.93-.32,.41-.91,.48-1.31,.16-.27-.22-.41-.56-.34-.91,.25-1.33,.33-3.58-.31-4.18-.06-.05-.21-.2-.71-.08-2.3,.56-5.17,1.03-6.93-.37-1.05-.93-1.6-2.3-1.46-3.7,.01-.16,0-.32-.04-.48-.06-.06-.09-.09-.12-.13,0,0-.55-.39-3.23,.59l-.06,5.31c-.03,3.13-.68,6.23-1.9,9.11l-.11,.27c-.02,.12,.05,.24,.17,.29,.62,.25,1.19,.61,1.68,1.08,.71,.74,1.21,1.65,1.45,2.65l.06,.21c.08,.27,.16,.52,.23,.77,.45,1.52,.74,2.4,1.6,2.87,.89,.49,2.57,.36,4.19-.3,.48-.2,1.03,.03,1.22,.51,.08,.19,.09,.39,.04,.58-.23,.9-.48,1.85-.77,2.82-.84,2.9-2.28,6.92-4.99,8.38-.04,.02-.09,.04-.14,.06l-5.1,1.74Z"/><path id="Path_3095" d="M315.03,261.04c-.52,0-.94-.42-.93-.94,0-.4,.25-.75,.63-.88,3.09-1.07,4.48-5.7,4.49-5.75,.14-.5,.67-.78,1.16-.64,.5,.14,.78,.67,.64,1.16-.07,.23-1.68,5.61-5.67,6.99-.1,.03-.2,.05-.31,.05"/></g></g></g></g></g></g></svg>