<?xml version="1.0" encoding="UTF-8"?><svg id="Layer_2" xmlns="http://www.w3.org/2000/svg" xmlns:xlink="http://www.w3.org/1999/xlink" viewBox="0 0 334.98 335.08"><defs><style>.cls-1{fill:none;}.cls-2{clip-path:url(#clippath);}.cls-3{fill:#fff;}.cls-4{fill:#cddcf1;}.cls-5{fill:#d69cc6;}.cls-6{fill:#158bcb;}.cls-7{fill:#701e5e;}.cls-8{fill:#9ad8f3;}.cls-9{fill:#5b72b7;}.cls-10{clip-path:url(#clippath-1);}.cls-11{clip-path:url(#clippath-3);}.cls-12{clip-path:url(#clippath-2);}.cls-13{opacity:.6;}</style><clipPath id="clippath"><rect class="cls-1" width="334.98" height="335.08"/></clipPath><clipPath id="clippath-1"><rect class="cls-1" width="334.98" height="335.08"/></clipPath><clipPath id="clippath-2"><rect class="cls-1" x=".43" width="334.56" height="332.99"/></clipPath><clipPath id="clippath-3"><rect class="cls-1" width="334.98" height="335.08"/></clipPath></defs><g id="Layer_1-2"><g class="cls-2"><g id="Group_182"><g id="Group_179" transform="translate(0 0)"><g class="cls-10"><g id="Group_178"><g id="Group_177" class="cls-13" transform="translate(0.426 0)"><g id="Group_176"><g class="cls-12"><g id="Group_175"><path id="Path_1980" class="cls-8" d="M72.72,15.07c67.95-37.41,158.97,1.46,206.41,44.55,13.55,12.31,46.41,43.02,54.17,92.23,9.64,61.14-21.91,135.24-94.26,166.94-78.75,34.5-166.8,1.8-208.02-51.27C-7.52,217.87,.19,159.43,2.95,138.55,6.18,114.05,15.8,46.41,72.72,15.07"/></g></g></g></g></g></g></g><path id="Path_1981" class="cls-3" d="M281.7,334.45h-19.55V94.16l19.35-1.37,.2,241.65Z"/><g id="Group_181" transform="translate(0 0)"><g class="cls-11"><g id="Group_180"><path id="Path_1982" d="M281.7,335.05h-19.55c-.33,0-.61-.27-.61-.61V94.16c0-.32,.25-.58,.56-.6l19.35-1.37c.33-.02,.62,.23,.65,.56v.04l.2,241.65c0,.33-.27,.61-.61,.61m-18.94-1.21h18.33l-.2-240.4-18.14,1.28v239.12Z"/><path id="Path_1983" class="cls-7" d="M334.11,334.45h-52.41c-.11,0-.2-.12-.2-.27V93.07c0-.16,.09-.28,.2-.27l52.41,2.77c.1,0,.19,.13,.19,.27v238.33c0,.15-.09,.27-.2,.27"/><path id="Path_1984" d="M334.11,335.05h-52.41c-.46-.02-.82-.41-.8-.87h0V93.08c0-.25,.1-.49,.27-.66,.15-.15,.36-.22,.57-.21l52.42,2.77c.45,.04,.78,.43,.76,.88v238.33c.03,.46-.33,.85-.79,.88h-.01m-52-1.21h51.59V96.15l-51.59-2.72v240.41Z"/><path id="Path_1985" class="cls-5" d="M316.91,209.08c-.33,0-.61-.27-.61-.61V110.9c0-.33,.28-.6,.61-.6,.33,0,.59,.27,.6,.6v97.58c0,.33-.27,.61-.61,.61"/><path id="Path_1986" class="cls-5" d="M300.33,174.31c-.33,0-.61-.27-.61-.61v-28.79c0-.33,.26-.61,.6-.61,.33,0,.61,.26,.61,.6h0v28.8c0,.33-.27,.61-.61,.61"/><path id="Path_1987" class="cls-5" d="M300.33,273.02c-.33,0-.61-.27-.61-.61v-49.68c0-.33,.26-.61,.6-.61,.33,0,.61,.26,.61,.6h0v49.69c0,.33-.27,.61-.61,.61"/><path id="Path_1988" class="cls-3" d="M215.78,334.47h-19.46V155.08l19.35-6.11,.11,185.5Z"/><path id="Path_1989" d="M215.78,335.08h-19.46c-.33,0-.61-.27-.61-.61V155.08c0-.26,.17-.5,.42-.58l19.35-6.11c.32-.1,.66,.08,.76,.39,.02,.06,.03,.12,.03,.18l.11,185.5c0,.33-.27,.61-.61,.61m-18.85-1.21h18.24l-.1-184.07-18.14,5.73v178.34Z"/><path id="Path_1990" class="cls-7" d="M268.28,334.47h-52.41c-.11,0-.2-.09-.2-.2h0V149.19c0-.11,.08-.2,.19-.21h0l52.41,2.12c.11,0,.19,.1,.19,.21v182.95c0,.11-.08,.2-.19,.21h0"/><path id="Path_1991" d="M268.29,335.08h-52.41c-.45,0-.8-.37-.8-.82V149.19c0-.22,.09-.44,.25-.59,.16-.15,.37-.23,.58-.22l52.42,2.12c.43,.02,.77,.38,.77,.81v182.96c0,.45-.35,.81-.8,.82m-52-1.21h51.59V151.69l-51.59-2.09v184.27Z"/><path id="Path_1992" class="cls-5" d="M242.09,246.08c-.33,0-.61-.27-.61-.61v-82.17c0-.33,.28-.6,.61-.6,.33,0,.59,.27,.6,.6v82.17c0,.33-.27,.61-.61,.61"/><path id="Path_1993" class="cls-5" d="M228.25,190.72c-.33,0-.61-.27-.61-.61v-14.01c0-.33,.27-.61,.61-.61s.61,.27,.61,.61v14.01c0,.33-.27,.61-.61,.61"/><path id="Path_1994" class="cls-5" d="M228.25,283.65c-.33,0-.61-.27-.61-.61v-69.77c0-.33,.27-.61,.61-.61s.61,.27,.61,.61v69.77c0,.33-.27,.61-.61,.61"/><path id="Path_1995" class="cls-5" d="M255.93,218.33c-.33,0-.61-.27-.61-.61v-14.01c0-.33,.28-.6,.61-.6,.33,0,.59,.27,.6,.6v14.01c0,.33-.27,.61-.61,.61"/><path id="Path_1996" class="cls-3" d="M150.33,334.47h-19.35v-103.1l19.35-4.24v107.34Z"/><path id="Path_1997" d="M150.33,335.08h-19.35c-.33,0-.61-.27-.61-.61v-103.1c0-.28,.2-.53,.48-.59l19.35-4.24c.33-.07,.65,.14,.72,.46,0,.04,.01,.09,.01,.13v107.35c0,.33-.27,.61-.61,.61m-18.75-1.21h18.14v-105.99l-18.14,3.98v102.01Z"/><path id="Path_1998" class="cls-7" d="M203.13,334.47h-52.81v-107.12c0-.12,.1-.22,.22-.22h0l52.58,1.76v105.58Z"/><path id="Path_1999" d="M203.74,335.08h-54.02v-107.73c0-.22,.09-.44,.25-.59,.16-.16,.38-.24,.6-.23l53.17,1.78v106.77Zm-52.81-1.21h51.59v-104.39l-51.59-1.73v106.11Z"/><path id="Path_2000" class="cls-5" d="M164.36,304.52c-.33,0-.61-.27-.61-.61v-63.95c0-.33,.27-.61,.61-.61s.61,.27,.61,.61h0v63.95c0,.33-.27,.61-.61,.61"/><path id="Path_2001" class="cls-5" d="M192.04,311.99c-.33,0-.61-.27-.61-.61v-63.96c0-.33,.27-.61,.61-.61s.61,.27,.61,.61v63.95c0,.33-.27,.61-.61,.61"/><path id="Path_2002" class="cls-5" d="M178.2,286.94c-.33,0-.61-.27-.61-.61v-13.09c0-.33,.27-.61,.61-.61s.61,.27,.61,.61v13.09c0,.33-.27,.61-.61,.61"/><path id="Path_2003" class="cls-3" d="M85.25,334.47h-19.54v-51.14l19.35-3.82,.18,54.95Z"/><path id="Path_2004" d="M85.25,335.08h-19.54c-.33,0-.61-.27-.61-.61v-51.14c0-.29,.21-.54,.49-.59l19.35-3.82c.33-.06,.65,.15,.71,.48,0,.04,.01,.08,.01,.12l.18,54.95c0,.33-.27,.61-.6,.61h0m-18.93-1.21h18.32l-.18-53.61-18.14,3.58v50.03Z"/><path id="Path_2005" class="cls-7" d="M137.69,334.48h-52.44c-.1,0-.18-.08-.18-.18h0v-54.58c0-.1,.08-.18,.18-.18h0l52.44,.86c.1,0,.18,.08,.18,.18v53.73c0,.1-.08,.18-.18,.18h0"/><path id="Path_2006" d="M137.69,335.08h-52.44c-.44,0-.79-.35-.79-.79v-54.58c0-.21,.08-.42,.24-.56,.15-.15,.36-.23,.57-.23l52.44,.86c.43,0,.77,.36,.78,.79v53.73c0,.44-.35,.79-.79,.79m-52.02-1.21h51.59v-52.89l-51.59-.84v53.73Z"/><path id="Path_2007" class="cls-5" d="M121.91,322.09c-.33,0-.61-.27-.61-.61v-32.54c0-.33,.27-.61,.61-.61s.61,.27,.61,.61v32.54c0,.33-.27,.61-.61,.61"/><path id="Path_2008" class="cls-5" d="M105.33,310.5c-.33,0-.61-.27-.61-.61v-9.6c0-.33,.28-.6,.61-.6,.33,0,.6,.27,.6,.6v9.6c0,.33-.27,.61-.61,.61"/><path id="Path_2009" class="cls-3" d="M20.14,334.47H.61v-26.78l19.35-3.26,.18,30.04Z"/><path id="Path_2010" d="M20.14,335.08H.61c-.33,0-.61-.27-.61-.61v-26.78c0-.3,.21-.55,.5-.6l19.35-3.27c.33-.06,.64,.17,.7,.5,0,.03,0,.06,0,.1l.18,30.04c0,.33-.27,.61-.6,.61h0m-18.93-1.21H19.53l-.18-28.72-18.14,3.07v25.65Z"/><path id="Path_2011" class="cls-7" d="M72.58,334.48H20.14c-.1,0-.18-.04-.18-.1v-29.84c0-.06,.08-.1,.19-.1l52.44,.47c.1,0,.18,.05,.18,.1v29.37c0,.05-.08,.1-.18,.1"/><path id="Path_2012" d="M72.58,335.08H20.15c-.41,.03-.76-.29-.79-.7h0v-29.85c0-.18,.07-.35,.2-.48,.17-.15,.38-.23,.6-.23l52.44,.47c.41-.03,.75,.28,.78,.69v29.4c-.02,.41-.37,.73-.78,.71h-.01m-52.02-1.21h51.59v-28.37l-51.59-.46v28.83Z"/><path id="Path_2013" class="cls-5" d="M56.8,327.98c-.33,0-.61-.27-.61-.61v-17.79c0-.33,.27-.61,.61-.61s.61,.27,.61,.61v17.79c0,.33-.27,.61-.61,.61"/><path id="Path_2014" class="cls-5" d="M40.23,321.64c-.33,0-.61-.27-.61-.61v-5.25c0-.33,.27-.61,.61-.61s.61,.27,.61,.61h0v5.25c0,.33-.27,.61-.61,.61"/><path id="Path_2015" class="cls-3" d="M188.62,199.16c-1.12-.8-9.63-17-9.63-17l-9.55,9.68,15.66,13.46,3.51-6.13Z"/><path id="Path_2016" d="M185.11,205.91c-.15,0-.29-.05-.4-.15l-15.66-13.46c-.25-.22-.28-.6-.07-.85,0-.01,.02-.02,.03-.03l9.55-9.68c.24-.24,.62-.24,.86,0,.04,.04,.08,.09,.11,.15,3.21,6.11,8.61,16.07,9.45,16.79,.25,.18,.32,.52,.16,.79l-3.51,6.14c-.09,.16-.24,.27-.42,.3-.03,0-.07,0-.1,0m-14.77-14.1l14.61,12.56,2.94-5.13c-1.71-2.24-6.88-11.95-9.04-16.05l-8.51,8.62Z"/><path id="Path_2017" class="cls-3" d="M144.08,208.49l-11.01,14.5-7.08-1.57,9.53-17.94,8.56,5.01Z"/><path id="Path_2018" d="M133.07,223.6s-.09,0-.13-.02l-7.08-1.57c-.33-.07-.53-.4-.46-.73,.01-.05,.03-.1,.06-.15l9.53-17.94c.16-.3,.52-.41,.82-.25h.02l8.56,5.02c.29,.17,.39,.54,.22,.83-.01,.02-.03,.04-.04,.06l-11.01,14.5c-.11,.15-.29,.24-.48,.24m-6.17-2.6l5.93,1.31,10.36-13.65-7.42-4.35-8.86,16.68Z"/><path id="Path_2019" d="M211.41,119.46s-58.55-6.65-76.16,8.28c-19.88,16.85,39.13,70.7,39.13,70.7l10.12-10.08-20.97-37.01,54.27-15.41-6.39-16.48Z"/><path id="Path_2020" d="M243.71,149.37c-8.53,2.71-23.79,6.2-45.11,5.91-6.34,.08-12.14,3.57-15.17,9.14-6.32,12.39-18.8,31.11-41.07,49.06l-11.06-6.12,27.15-61.11c2.48-5.58,7.11-9.92,12.85-12.02l53.8-19.72s16.68-4.66,24.86,10.23c1.46,2.66,4.17-2.09,4.82,.05,2.21,7.36-3.74,22.26-11.06,24.58"/><path id="Path_2021" class="cls-4" d="M145.5,174.53c-.34,0-.61-.27-.61-.61,0-.09,.02-.17,.05-.25l12.54-27.66c2.72-5.75,7.61-10.19,13.59-12.34l25.77-9.45c.32-.11,.66,.05,.77,.37,.11,.31-.05,.65-.36,.77l-25.77,9.45c-5.68,2.04-10.32,6.24-12.9,11.69l-12.54,27.67c-.1,.22-.31,.36-.55,.36"/><path id="Path_2022" class="cls-4" d="M164.32,194.05c-.33,0-.6-.27-.6-.61,0-.14,.05-.28,.15-.39,3.96-4.62,7.66-9.47,11.06-14.52,.18-.28,.56-.36,.84-.18,.28,.18,.36,.56,.18,.84l-.02,.03c-3.43,5.09-7.15,9.97-11.14,14.63-.12,.13-.28,.21-.46,.21"/><path id="Path_2023" class="cls-9" d="M138.13,219.04c.5,1.81,1.57,6.9,2.02,9.97,.27,1.92-.93,3.74-2.8,4.25-5.26,1.42-17.84,1.36-28.3,1.82-1.25,0-2.33-.85-2.63-2.06-1.99-5.89,9.01-7.72,19.89-13.71,.21-.12,.47-.11,.67,.04,.12,.09,.28,.2,.47,.32,2.16,1.2,4.78,1.21,6.96,.05l2.17-1.3c.5-.3,1.14-.14,1.44,.36,.05,.08,.09,.17,.11,.26"/><path id="Path_2024" d="M108.95,235.7c-1.47-.05-2.73-1.05-3.11-2.47-1.57-4.63,3.83-6.97,10.66-9.93,2.92-1.27,6.24-2.7,9.51-4.5,.42-.23,.93-.2,1.32,.07,.12,.08,.27,.19,.45,.3,1.97,1.07,4.34,1.09,6.32,.04l2.17-1.3c.78-.47,1.8-.22,2.27,.57,.08,.13,.14,.27,.18,.41,.53,1.88,1.59,6.99,2.03,10.05,.32,2.22-1.07,4.33-3.24,4.92-3.98,1.08-11.83,1.31-20.14,1.56-2.76,.08-5.61,.17-8.29,.29h-.12m17.67-15.84c-3.35,1.83-6.7,3.28-9.64,4.56-7.15,3.1-11.14,5.02-9.99,8.43,.21,.96,1.05,1.64,2.03,1.64,2.69-.12,5.54-.2,8.31-.29,7.88-.23,16.02-.48,19.86-1.52,1.58-.43,2.59-1.96,2.35-3.57-.43-2.94-1.49-8.06-2-9.9-.04-.14-.13-.25-.27-.3-.13-.05-.27-.04-.39,.03l-2.17,1.3c-2.38,1.28-5.24,1.26-7.6-.06-.2-.13-.37-.24-.5-.34"/><path id="Path_2025" class="cls-3" d="M140.46,230.4l.02,.11c.28,1.92-1.55,3.11-3.29,3.93-5.18,2.43-26.11,1.04-26.92,.98h-.04c-.26,0-2.92,0-3.68-1.65-.1-.24-.16-.5-.19-.76-.06-.44-.03-.89,.07-1.33,.07-.34,.41-.56,.76-.49h.02c3.89,1,12.96,1.75,22.02,.73,4.02-.45,6.19-.84,10.04-3.22,.3-.18,.69-.08,.87,.22,.04,.07,.07,.14,.08,.21,.07,.37,.16,.81,.25,1.27"/><path id="Path_2026" d="M123.44,236.48c-6.14,0-12.05-.38-13.21-.46-.55,0-3.33-.05-4.24-2-.13-.3-.21-.62-.24-.94-.06-.51-.04-1.03,.08-1.54,.07-.33,.28-.62,.57-.8,.28-.18,.63-.23,.95-.14,4.16,1.06,13.21,1.68,21.8,.71,4.09-.46,6.12-.87,9.79-3.13,.34-.21,.77-.24,1.14-.08,.38,.17,.65,.51,.73,.91l.25,1.27c.01,.07,.02,.12,.03,.14,.35,2.39-1.91,3.75-3.64,4.56-2.5,1.18-8.35,1.5-14.01,1.5m-13.2-1.67h.08c7.44,.51,22.59,.96,26.62-.93,2.22-1.04,3.13-2.06,2.95-3.29l-.02-.08h0l-.25-1.27s-.01-.03-.03-.03c-3.88,2.38-6.12,2.83-10.31,3.3-8.73,.98-17.97,.35-22.24-.74l-.63-.1,.59,.13c-.09,.36-.11,.74-.06,1.11,.02,.2,.06,.4,.14,.59,.61,1.32,3.02,1.3,3.12,1.3h.02Z"/><path id="Path_2027" d="M125.56,224.69c-.13,0-.26-.04-.37-.12l-3.18-2.42c-.27-.2-.33-.57-.14-.85,.2-.27,.57-.33,.85-.14l.02,.02,3.18,2.42c.27,.2,.32,.58,.11,.85-.11,.15-.29,.24-.48,.24"/><path id="Path_2028" d="M121.34,226.42c-.13,0-.26-.04-.36-.12l-2.78-2.09c-.27-.19-.34-.57-.15-.84,.19-.27,.57-.34,.84-.15l.03,.02,2.78,2.08c.27,.2,.32,.58,.12,.85-.11,.15-.29,.24-.49,.24"/><path id="Path_2029" class="cls-9" d="M180.38,201.04l6.21-5.45,9.63,5.95c1.46,.96,2.02,2.82,1.34,4.42-1.21,2.66-2.74,5.16-4.56,7.45-4.02,4.94-6.04,12.91-11.91,13.45s-5.69,.18-6.93-1.26,1.07-7.35,2.67-11.3c1.31-3.22,3.55-13.27,3.55-13.27"/><path id="Path_2030" d="M177.33,227.72c-1.99,0-2.54-.41-3.39-1.42-.07-.09-.15-.18-.24-.28-1.29-1.49,.03-5.67,2.56-11.93,1.27-3.14,3.5-13.08,3.52-13.18l.04-.19,6.69-5.87,10.01,6.19c1.71,1.12,2.37,3.31,1.57,5.19-1.23,2.71-2.79,5.25-4.64,7.58-1.25,1.63-2.36,3.36-3.33,5.17-2.29,3.98-4.66,8.1-8.98,8.5-1.69,.16-2.9,.24-3.82,.24m3.6-26.35c-.33,1.45-2.31,10.15-3.54,13.18-.95,2.34-3.83,9.45-2.77,10.68,.09,.1,.17,.2,.25,.29,.85,1.02,1.03,1.23,6.17,.76,3.7-.34,5.81-4.01,8.04-7.9,1.01-1.87,2.16-3.65,3.45-5.33,1.79-2.25,3.29-4.7,4.47-7.32,.56-1.33,.1-2.87-1.11-3.66l-9.24-5.71-5.72,5.02Z"/><path id="Path_2031" d="M182.69,210.12h-4.4c-.33,0-.61-.27-.61-.61s.27-.61,.61-.61h4.4c.33,0,.61,.27,.61,.61s-.27,.61-.61,.61"/><path id="Path_2032" d="M181.99,213.86h-4.4c-.33,0-.61-.27-.61-.61s.27-.61,.61-.61h4.4c.33,0,.61,.27,.61,.61s-.27,.61-.61,.61h0"/><path id="Path_2033" class="cls-3" d="M175.23,226.6s5.06,.27,8-3.5,12.93-21.66,12.93-21.66l1.9,1.21c.97,.62,1.3,1.87,.77,2.89-2.4,4.6-8.97,16.6-14,20.38-6.26,4.71-9.6,.67-9.6,.67"/><path id="Path_2034" d="M179.14,228.81c-1.65,.03-3.23-.63-4.38-1.82-.15-.19-.18-.44-.07-.66,.11-.22,.33-.35,.57-.33,.07,0,4.8,.19,7.49-3.26,2.87-3.69,12.78-21.4,12.88-21.58,.16-.29,.53-.4,.82-.23l.03,.02,1.9,1.21c1.23,.79,1.65,2.38,.98,3.68-2.57,4.92-9.09,16.77-14.17,20.59-1.7,1.44-3.82,2.28-6.05,2.39m-2.22-1.69c1.37,.68,3.9,1.07,7.54-1.67,4.89-3.67,11.3-15.34,13.82-20.18,.39-.74,.15-1.65-.55-2.1l-1.36-.87c-1.75,3.11-10,17.75-12.67,21.18-1.7,2.06-4.13,3.36-6.78,3.64"/><path id="Path_2035" class="cls-3" d="M136.32,34.37l10.35,5.59c2.19,1.19,3.94,3.05,4.98,5.31,3.14,6.78,11.04,21.38,21.32,22.5,11.16,1.23,22.23-11.42,25.63-15.7,.37-.46,1.04-.54,1.51-.17,.13,.1,.23,.24,.3,.39l7.9,16.9c.16,.35,.13,.76-.09,1.07-2.21,3.13-14.71,19.4-33.47,16.45-18.7-2.94-25.13-28.54-26.22-33.57-.1-.47-.49-.81-.97-.84-2.68-.09-5.04-1.79-5.97-4.31-.78-1.84-1.13-3.83-1.02-5.82,.04-.41-.16-.8-.51-1.01-1.38-.84-4.68-3.07-5.3-5.6-.13-.58,.22-1.15,.8-1.29,.26-.06,.53-.02,.76,.1"/><path id="Path_2036" d="M179.28,87.67c-1.55,0-3.09-.12-4.62-.36-19.06-3-25.6-28.88-26.72-34.04-.04-.2-.21-.35-.41-.37-2.92-.1-5.49-1.96-6.5-4.7-.82-1.93-1.18-4.01-1.06-6.1,.02-.17-.07-.34-.22-.43-1.45-.88-4.9-3.23-5.57-5.97-.16-.64,.07-1.31,.6-1.71,.52-.41,1.25-.47,1.83-.15l10.35,5.59c2.3,1.25,4.14,3.21,5.24,5.59,2.92,6.29,10.78,21.05,20.83,22.15,.49,.05,.97,.08,1.46,.08,10.43,0,20.64-11.8,23.63-15.55,.58-.73,1.63-.85,2.36-.27,.2,.16,.37,.37,.48,.6l7.9,16.9c.25,.55,.2,1.18-.15,1.68-2.15,3.04-12.96,17.06-29.44,17.06m-43.46-52.82c-.11,0-.21,.04-.29,.1-.15,.11-.21,.29-.17,.46,.58,2.37,3.99,4.6,5.03,5.22,.55,.33,.86,.95,.8,1.58-.1,1.9,.23,3.8,.98,5.55,.83,2.3,2.99,3.86,5.44,3.93,.75,.05,1.37,.59,1.53,1.32,1.09,5.02,7.44,30.22,25.72,33.1,18.36,2.89,30.61-12.99,32.88-16.2,.1-.14,.11-.31,.04-.46l-7.9-16.9c-.11-.23-.38-.33-.62-.23-.07,.03-.12,.08-.17,.13-3.22,4.06-14.64,17.19-26.17,15.92-10.67-1.17-18.8-16.37-21.8-22.85-.99-2.14-2.65-3.9-4.72-5.03l-10.36-5.58c-.07-.04-.14-.06-.22-.06"/><path id="Path_2037" d="M148.74,50.29c-1.59-.03-2.94-1.18-3.23-2.74-.15-.95-.69-1.79-1.48-2.33-.2-.19-.43-.4-.69-.65-.66-.64-1.1-1.49-1.23-2.4-.12-.61,.14-1.23,.66-1.57,.52-.36,1.2-.37,1.73-.04l3.64,2.28c.28,.18,.37,.55,.19,.84-.18,.28-.55,.37-.83,.19l-3.64-2.28c-.13-.08-.29-.08-.41,.01-.12,.07-.17,.21-.15,.34,.09,.66,.4,1.28,.88,1.75,.25,.24,.48,.45,.67,.63,.97,.7,1.63,1.76,1.84,2.94,.16,1.03,1.04,1.8,2.09,1.8,.33,0,.6,.26,.62,.59,.01,.33-.25,.61-.58,.62h-.09"/><path id="Path_2038" class="cls-7" d="M247.41,42.25c-6.73-1.58-9.53-1.6-33.98-.72-5.98,.22-13.08,7.72-13.79,13.65,1.9,5.7,10.67,33.82-4.64,55.79-2.58,3.69-5.67,6.99-9.18,9.81,3.12,2.56,6.71,4.48,10.57,5.65,7.89,2.34,11.85-.19,18.21,0,16.81,.5,22.98,19.23,33.84,16.88,2.9-.63,6.74-2.89,10.35-10.48,2.33-7.17,3.96-14.55,4.87-22.03,2.1-17.98,.13-36.19-5.76-53.31-1.19-3.73-2.57-13.39-10.5-15.25"/><path id="Path_2039" class="cls-7" d="M187.65,59.23s12.84-16.18,24.17-17.47l-5.58,42.83-18.59-25.37Z"/><path id="Path_2040" class="cls-7" d="M280.61,77.69s-1.93-14.7-4.72-21.62c-6.19-15.35-30.85-14.54-30.85-14.54l4.43,40.54,31.14-4.38Z"/><path id="Path_2041" class="cls-3" d="M258.86,77.69s4.33,14.52,2.9,20.32c-2,8.16-28.53,13.75-30.36,14.15s-10.31-1.45-13.91,1.81c-2.15,1.95-3.67,1.71-6.29,2.1-.85,.16-1.41,.97-1.26,1.82,.13,.73,.84,1.79,2.73,1.79,1.48,.03,2.96-.19,4.37-.65,.3-.09,.62,.09,.71,.39,.06,.19,0,.4-.13,.55-1.2,1.23-2.2,2.63-2.99,4.15-1.46,4.49,.37,9.1,10.45,1.4,4.17-3.18,5.24-5.44,7.5-6.03s31.05-4.09,36.28-6.46c7.52-3.41,10.36-25.35,8.79-36.31-.66-4.6-18.79,.98-18.79,.98"/><path id="Path_2042" d="M216.78,130.26c-.67,.02-1.33-.17-1.89-.55-1.38-.98-1.69-3.14-.83-5.78,.79-1.58,1.82-3.03,3.06-4.31l-.85,.22c-1.16,.34-2.37,.48-3.58,.43-2.16,0-3.14-1.24-3.33-2.29-.1-.59,.04-1.19,.39-1.67,.32-.46,.82-.77,1.38-.85,.52-.08,.99-.13,1.44-.18,1.68,0,3.3-.63,4.54-1.77,2.79-2.53,8.07-2.21,11.56-1.99,.87,.09,1.75,.11,2.63,.04l.09-.02c12.88-2.77,28.42-8.01,29.81-13.68,1.37-5.58-2.85-19.86-2.9-20.01l-.17-.58,.57-.18c1.5-.46,14.77-4.44,18.5-2.07,.58,.34,.97,.93,1.07,1.59,1.55,10.82-1.18,33.34-9.14,36.95-3.8,1.72-19,3.92-29.06,5.37-3.74,.54-6.7,.97-7.32,1.13-1.14,.3-1.98,1.12-3.25,2.37-1.26,1.28-2.61,2.47-4.03,3.56-3.71,2.84-6.62,4.26-8.68,4.26m.42-11.86c.43,0,.83,.23,1.04,.6,.26,.45,.19,1.01-.17,1.38-1.13,1.17-2.09,2.49-2.85,3.92-.67,2.05-.52,3.78,.38,4.42,.67,.47,2.9,1.07,9.13-3.68,1.38-1.07,2.69-2.22,3.92-3.46,1.36-1.33,2.34-2.29,3.79-2.67,.69-.18,3.38-.57,7.45-1.16,9.38-1.35,25.09-3.62,28.73-5.27,6.9-3.13,10.09-24.13,8.44-35.67-.05-.31-.24-.59-.52-.74-2.64-1.67-12.61,.76-16.93,2.04,.8,2.81,4.04,14.77,2.74,20.06-1.92,7.81-24.01,13.13-30.73,14.57l-.09,.02c-.98,.1-1.97,.09-2.95-.02-3.29-.2-8.26-.5-10.67,1.68-1.42,1.31-3.28,2.05-5.22,2.07-.43,.05-.89,.1-1.39,.17-.23,.04-.44,.17-.57,.36-.16,.22-.22,.49-.18,.75,.04,.22,.32,1.29,2.13,1.29,1.11,.05,2.21-.08,3.28-.4,.27-.07,.58-.15,.95-.24,.1-.02,.19-.03,.29-.03"/><path id="Path_2043" class="cls-3" d="M224.91,36.82l1-6.22c-.38-8.95,13.07-10.93,11.86-11.03l-.72,16.98c-.08,1.96,1.19,3.71,3.07,4.24,2.13,.6,4.66,1.32,5.43,1.52-1.82-.09-14.43,5.4-28.73-.6l5.12-1.52c1.56-.46,2.71-1.78,2.97-3.38"/><path id="Path_2044" d="M230.98,45.13c-4.94,.02-9.83-.95-14.39-2.85-.31-.13-.45-.48-.32-.79,.07-.17,.21-.3,.39-.35l5.12-1.52c1.33-.4,2.32-1.53,2.54-2.9l.99-6.16c-.19-5.13,3.73-8.93,11.65-11.29l.38-.12s.03-.03,.04-.04c.12-.11,.29-.16,.45-.15,.32,0,.59,.25,.63,.57,.03,.14,0,.29-.09,.42l-.7,16.63c-.08,1.68,1.01,3.18,2.63,3.64,2.04,.58,4.64,1.31,5.42,1.52,.32,.09,.52,.42,.43,.74-.07,.28-.33,.46-.61,.45-.68,.09-1.35,.23-2.01,.43-4.08,1.13-8.29,1.72-12.53,1.78m-12.29-3.33c10.52,3.81,19.97,1.53,24.3,.44-.97-.27-2.06-.58-3.03-.85-2.16-.6-3.61-2.62-3.51-4.85l.68-16.04c-7.23,2.2-10.8,5.59-10.61,10.09,0,.04,0,.08,0,.12l-1,6.22-.6-.1,.6,.1c-.3,1.83-1.62,3.33-3.39,3.86l-3.43,1.02Z"/><path id="Path_2045" d="M217.57,2.09c3.5-.46-.65,3.49,12.07-1.26,5.07-1.89,2.9,4.35,4.21,3.87,4.86-1.8,4.69-1.74,7.16-1.28,1.64,.31,2.9,3.19,2.77,5.43-.18,2.95-2.53,3.88-4.2,10.2-1.17,4.44-.61,7.05-2.3,7.81-1.71,.77-3.18-1.5-5.11-.8-2.5,.9-1.66,5.28-4.01,7.29-1.48,1.27-5.08,2.07-11.12-.35-.98-.4-1.55-1.43-1.34-2.47,.26-1.33,.6-3.01,1.06-4.59,2.18-7.52,4.66-9.36,3.58-11.19-1.66-2.8-7.03-.74-8.12-3.06-1.13-2.41,.56-8.97,5.35-9.6"/><path id="Path_2046" class="cls-3" d="M230.78,13.81l-.87,1.95c-.41,.92-.75,1.87-1.03,2.83-.52,1.82-1.44,4.93-2.09,6.64-.95,2.5-8.89,.1-8.89,.1l-.58-1.46-.93-.3c-.18-.05-.34-.16-.47-.29-.31-.34-.36-.83-.14-1.22,1.19-2.08,3.66-6.74,4.37-10.81,3.74-1.02,7.75-.06,10.62,2.56"/><path id="Path_2047" d="M223.87,26.99c-2.08-.09-4.15-.45-6.14-1.07-.18-.05-.32-.19-.39-.36l-.47-1.2-.65-.21c-.28-.09-.54-.25-.74-.46-.48-.53-.57-1.31-.21-1.93,1.06-1.85,3.59-6.57,4.3-10.61,.04-.22,.19-.4,.4-.47,3.95-1.11,8.2-.09,11.22,2.68,.2,.18,.26,.46,.15,.7l-.87,1.95c-.4,.89-.73,1.82-1,2.76-.5,1.75-1.44,4.94-2.1,6.68-.44,1.17-1.86,1.54-3.5,1.54m-5.51-2.14c2.99,.86,7.38,1.48,7.87,.18,.65-1.7,1.57-4.86,2.07-6.59,.29-.99,.64-1.97,1.06-2.91l.68-1.54c-2.58-2.19-6.06-3.03-9.36-2.25-.92,3.74-2.39,7.32-4.37,10.63-.09,.17-.07,.38,.06,.52,.06,.06,.13,.1,.21,.12l.93,.3c.17,.06,.31,.19,.38,.35l.47,1.19Z"/><path id="Path_2048" class="cls-3" d="M229.85,20.48s2.08-4.7,4-3.29-.49,6.52-4,3.29"/><path id="Path_2049" class="cls-6" d="M130.57,126.8h83.74c.49,0,.89-.4,.89-.89h0v-3.7h-85.52v3.7c0,.49,.4,.89,.89,.89h0"/><path id="Path_2050" d="M211.99,127.41h-79.09c-2.11,0-3.82-1.71-3.82-3.82v-1.98h86.73v1.98c0,2.11-1.71,3.82-3.82,3.82m-81.7-4.59v.77c0,1.44,1.17,2.61,2.61,2.61h79.09c1.44,0,2.61-1.17,2.61-2.61v-.77h-84.31Z"/><path id="Path_2051" class="cls-6" d="M129.69,122.29h48.94l-15.55-45.77c-.95-1.44-2.57-2.31-4.29-2.3h-41.37c-1.42-.03-2.59,1.1-2.62,2.51,0,.31,.04,.62,.15,.92,.24,.64,.51,1.27,.72,1.92l14.03,42.72Z"/><path id="Path_2052" d="M179.47,122.9h-50.22l-14.17-43.13c-.15-.45-.33-.91-.5-1.35-.07-.18-.14-.36-.21-.55-.36-.95-.22-2.02,.36-2.86,.61-.88,1.61-1.4,2.68-1.39h41.37c1.93-.01,3.74,.96,4.8,2.58l.07,.14,15.82,46.57Zm-49.34-1.21h47.66l-15.26-44.89c-.84-1.24-2.25-1.97-3.74-1.96h-41.37c-.67-.01-1.3,.32-1.68,.87-.36,.51-.44,1.16-.22,1.74,.07,.18,.14,.36,.21,.54,.18,.46,.36,.93,.52,1.41l13.89,42.3Z"/><path id="Path_2053" class="cls-7" d="M147.85,97.64c.27,1.75-.93,3.4-2.68,3.67s-3.4-.93-3.67-2.68c-.25-1.58,.71-3.11,2.25-3.57,1.84-.41,3.67,.75,4.1,2.59"/></g></g></g></g></g></g></svg>