<?xml version="1.0" encoding="UTF-8"?><svg id="Layer_2" xmlns="http://www.w3.org/2000/svg" xmlns:xlink="http://www.w3.org/1999/xlink" viewBox="0 0 582.64 582"><defs><style>.cls-1,.cls-2{fill:none;}.cls-3{clip-path:url(#clippath);}.cls-4{opacity:.05;}.cls-5{opacity:.1;}.cls-6{fill:#f8f7f7;}.cls-7{fill:#04787c;}.cls-8{fill:#05519b;}.cls-9{fill:#036c70;}.cls-10{fill:#fff;}.cls-11{fill:#a165aa;}.cls-12{fill:#934e89;}.cls-13{fill:#9fb6df;}.cls-14{fill:#85489c;}.cls-15{fill:#9457a3;}.cls-16{fill:#94688f;}.cls-17{fill:#cddcf1;}.cls-18{fill:#d8d8d8;}.cls-19{fill:#a86dae;}.cls-20{fill:#158bcb;}.cls-21{fill:#0b508f;}.cls-22{fill:#41c2cd;}.cls-23{fill:#179ba1;}.cls-24{fill:#701e5e;}.cls-25{fill:#546976;}.cls-26{fill:#9ad8f3;}.cls-27{fill:#5b72b7;}.cls-28{fill:#555daa;}.cls-29{fill:#38a6de;}.cls-30{fill:#2e76bc;}.cls-31{fill:#55b8e5;}.cls-32{fill:#733795;}.cls-33{fill:#4f58a7;}.cls-34{fill:#7980be;}.cls-35{clip-path:url(#clippath-1);}.cls-36{clip-path:url(#clippath-4);}.cls-37{clip-path:url(#clippath-3);}.cls-38{clip-path:url(#clippath-2);}.cls-39{clip-path:url(#clippath-7);}.cls-40{clip-path:url(#clippath-8);}.cls-41{clip-path:url(#clippath-6);}.cls-42{clip-path:url(#clippath-5);}.cls-43{clip-path:url(#clippath-9);}.cls-44{clip-path:url(#clippath-60);}.cls-45{clip-path:url(#clippath-69);}.cls-46{clip-path:url(#clippath-20);}.cls-47{clip-path:url(#clippath-21);}.cls-48{clip-path:url(#clippath-24);}.cls-49{clip-path:url(#clippath-23);}.cls-50{clip-path:url(#clippath-22);}.cls-51{clip-path:url(#clippath-25);}.cls-52{clip-path:url(#clippath-44);}.cls-53{clip-path:url(#clippath-45);}.cls-54{clip-path:url(#clippath-40);}.cls-55{clip-path:url(#clippath-42);}.cls-56{clip-path:url(#clippath-41);}.cls-57{clip-path:url(#clippath-47);}.cls-58{clip-path:url(#clippath-43);}.cls-59{clip-path:url(#clippath-46);}.cls-60{clip-path:url(#clippath-48);}.cls-61{clip-path:url(#clippath-49);}.cls-62{clip-path:url(#clippath-84);}.cls-63{clip-path:url(#clippath-88);}.cls-64{clip-path:url(#clippath-86);}.cls-65{clip-path:url(#clippath-81);}.cls-66{clip-path:url(#clippath-83);}.cls-67{clip-path:url(#clippath-85);}.cls-68{clip-path:url(#clippath-80);}.cls-69{clip-path:url(#clippath-87);}.cls-70{clip-path:url(#clippath-82);}.cls-71{clip-path:url(#clippath-89);}.cls-72{clip-path:url(#clippath-27);}.cls-73{clip-path:url(#clippath-28);}.cls-74{clip-path:url(#clippath-26);}.cls-75{clip-path:url(#clippath-29);}.cls-76{clip-path:url(#clippath-34);}.cls-77{clip-path:url(#clippath-35);}.cls-78{clip-path:url(#clippath-36);}.cls-79{clip-path:url(#clippath-37);}.cls-80{clip-path:url(#clippath-39);}.cls-81{clip-path:url(#clippath-33);}.cls-82{clip-path:url(#clippath-32);}.cls-83{clip-path:url(#clippath-30);}.cls-84{clip-path:url(#clippath-38);}.cls-85{clip-path:url(#clippath-31);}.cls-86{clip-path:url(#clippath-53);}.cls-87{clip-path:url(#clippath-54);}.cls-88{clip-path:url(#clippath-50);}.cls-89{clip-path:url(#clippath-51);}.cls-90{clip-path:url(#clippath-52);}.cls-91{clip-path:url(#clippath-55);}.cls-92{clip-path:url(#clippath-56);}.cls-93{clip-path:url(#clippath-57);}.cls-94{clip-path:url(#clippath-58);}.cls-95{clip-path:url(#clippath-79);}.cls-96{clip-path:url(#clippath-61);}.cls-97{clip-path:url(#clippath-64);}.cls-98{clip-path:url(#clippath-62);}.cls-99{clip-path:url(#clippath-68);}.cls-100{clip-path:url(#clippath-67);}.cls-101{clip-path:url(#clippath-73);}.cls-102{clip-path:url(#clippath-59);}.cls-103{clip-path:url(#clippath-65);}.cls-104{clip-path:url(#clippath-63);}.cls-105{clip-path:url(#clippath-66);}.cls-106{clip-path:url(#clippath-70);}.cls-107{clip-path:url(#clippath-75);}.cls-108{clip-path:url(#clippath-72);}.cls-109{clip-path:url(#clippath-78);}.cls-110{clip-path:url(#clippath-71);}.cls-111{clip-path:url(#clippath-77);}.cls-112{clip-path:url(#clippath-74);}.cls-113{clip-path:url(#clippath-76);}.cls-114{clip-path:url(#clippath-14);}.cls-115{clip-path:url(#clippath-13);}.cls-116{clip-path:url(#clippath-12);}.cls-117{clip-path:url(#clippath-10);}.cls-118{clip-path:url(#clippath-15);}.cls-119{clip-path:url(#clippath-17);}.cls-120{clip-path:url(#clippath-16);}.cls-121{clip-path:url(#clippath-19);}.cls-122{clip-path:url(#clippath-11);}.cls-123{clip-path:url(#clippath-18);}.cls-2{stroke:#546976;stroke-miterlimit:10;stroke-width:2px;}.cls-124{opacity:.15;}.cls-125{opacity:.2;}.cls-126{opacity:.3;}.cls-127{opacity:.67;}.cls-128{opacity:.6;}.cls-129{opacity:0;}.cls-130{opacity:0;}</style><clipPath id="clippath"><rect class="cls-1" width="582.64" height="582"/></clipPath><clipPath id="clippath-1"><rect class="cls-1" width="582.64" height="582"/></clipPath><clipPath id="clippath-2"><rect class="cls-1" x="-.05" width="581" height="581"/></clipPath><clipPath id="clippath-3"><rect class="cls-1" width="582.64" height="582"/></clipPath><clipPath id="clippath-4"><rect class="cls-1" x="173.57" y="454.69" width="11.31" height="22.41"/></clipPath><clipPath id="clippath-5"><rect class="cls-1" x="174.97" y="455.23" width="9.9" height="19.41"/></clipPath><clipPath id="clippath-6"><rect class="cls-1" x="173.75" y="458.3" width="9.37" height="18.8"/></clipPath><clipPath id="clippath-7"><rect class="cls-1" x="173.75" y="457.22" width="9.37" height="18.8"/></clipPath><clipPath id="clippath-8"><rect class="cls-1" x="174.51" y="455.58" width="9.9" height="19.39"/></clipPath><clipPath id="clippath-9"><rect class="cls-1" x="174.49" y="456.08" width="9.91" height="19.36"/></clipPath><clipPath id="clippath-10"><rect class="cls-1" x="173.64" y="454.69" width="9.49" height="18.31"/></clipPath><clipPath id="clippath-11"><rect class="cls-1" x="173.75" y="457.74" width="9.37" height="18.8"/></clipPath><clipPath id="clippath-12"><rect class="cls-1" x="173.75" y="456.09" width="9.37" height="18.41"/></clipPath><clipPath id="clippath-13"><rect class="cls-1" x="173.75" y="456.09" width="9.37" height="18.3"/></clipPath><clipPath id="clippath-14"><rect class="cls-1" x="173.75" y="456.46" width="9.37" height="18.81"/></clipPath><clipPath id="clippath-15"><rect class="cls-1" x="173.75" y="456.82" width="9.37" height="18.8"/></clipPath><clipPath id="clippath-16"><rect class="cls-1" x="174.3" y="456.61" width="9.9" height="18.29"/></clipPath><clipPath id="clippath-17"><rect class="cls-1" x="173.76" y="456.6" width="9.59" height="17.85"/></clipPath><clipPath id="clippath-18"><rect class="cls-1" x="173.57" y="455.6" width="9.9" height="18.28"/></clipPath><clipPath id="clippath-19"><rect class="cls-1" x="173.91" y="457.47" width="9.9" height="18.27"/></clipPath><clipPath id="clippath-20"><rect class="cls-1" x="173.64" y="455.02" width="9.49" height="18.3"/></clipPath><clipPath id="clippath-21"><rect class="cls-1" x="173.64" y="455.32" width="9.49" height="18.3"/></clipPath><clipPath id="clippath-22"><rect class="cls-1" x="310.31" y="39.36" width="10.13" height="22.4"/></clipPath><clipPath id="clippath-23"><rect class="cls-1" x="310.31" y="44.98" width="8.4" height="16.77"/></clipPath><clipPath id="clippath-24"><rect class="cls-1" x="310.31" y="44.98" width="8.4" height="15.67"/></clipPath><clipPath id="clippath-25"><rect class="cls-1" x="315.86" y="41.88" width="2.82" height="1.38"/></clipPath><clipPath id="clippath-26"><rect class="cls-1" x="310.31" y="44.98" width="9.67" height="14.68"/></clipPath><clipPath id="clippath-27"><rect class="cls-1" x="314.68" y="40.25" width="5.26" height="3.09"/></clipPath><clipPath id="clippath-28"><rect class="cls-1" x="314.94" y="40.74" width="5.03" height="2.6"/></clipPath><clipPath id="clippath-29"><rect class="cls-1" x="310.31" y="44.94" width="9.66" height="15.15"/></clipPath><clipPath id="clippath-30"><rect class="cls-1" x="314.35" y="39.36" width="4.32" height="3.91"/></clipPath><clipPath id="clippath-31"><rect class="cls-1" x="310.31" y="44.98" width="8.36" height="12.35"/></clipPath><clipPath id="clippath-32"><rect class="cls-1" x="310.31" y="44.98" width="8.42" height="16.22"/></clipPath><clipPath id="clippath-33"><rect class="cls-1" x="316.48" y="42.43" width="2.06" height=".82"/></clipPath><clipPath id="clippath-34"><rect class="cls-1" x="310.31" y="44.98" width="8.4" height="14.17"/></clipPath><clipPath id="clippath-35"><rect class="cls-1" x="314.95" y="40.75" width="3.8" height="2.52"/></clipPath><clipPath id="clippath-36"><rect class="cls-1" x="310.31" y="44.98" width="8.41" height="14.07"/></clipPath><clipPath id="clippath-37"><rect class="cls-1" x="314.95" y="40.75" width="3.76" height="2.52"/></clipPath><clipPath id="clippath-38"><rect class="cls-1" x="310.31" y="44.98" width="8.39" height="14.94"/></clipPath><clipPath id="clippath-39"><rect class="cls-1" x="315.22" y="41.12" width="3.5" height="2.15"/></clipPath><clipPath id="clippath-40"><rect class="cls-1" x="310.31" y="44.98" width="8.4" height="15.26"/></clipPath><clipPath id="clippath-41"><rect class="cls-1" x="315.48" y="41.49" width="3.23" height="1.79"/></clipPath><clipPath id="clippath-42"><rect class="cls-1" x="315.32" y="41.3" width="4.45" height="2.06"/></clipPath><clipPath id="clippath-43"><rect class="cls-1" x="310.31" y="44.98" width="9.47" height="14.59"/></clipPath><clipPath id="clippath-44"><rect class="cls-1" x="310.31" y="44.98" width="8.58" height="14.2"/></clipPath><clipPath id="clippath-45"><rect class="cls-1" x="315.29" y="41.3" width="3.6" height="1.99"/></clipPath><clipPath id="clippath-46"><rect class="cls-1" x="314.62" y="40.26" width="4.4" height="3.04"/></clipPath><clipPath id="clippath-47"><rect class="cls-1" x="310.31" y="44.98" width="8.74" height="13.57"/></clipPath><clipPath id="clippath-48"><rect class="cls-1" x="316.17" y="42.17" width="3.26" height="1.21"/></clipPath><clipPath id="clippath-49"><rect class="cls-1" x="310.31" y="44.98" width="9.08" height="15.44"/></clipPath><clipPath id="clippath-50"><rect class="cls-1" x="310.31" y="44.98" width="8.35" height="12.64"/></clipPath><clipPath id="clippath-51"><rect class="cls-1" x="314.45" y="39.69" width="4.23" height="3.57"/></clipPath><clipPath id="clippath-52"><rect class="cls-1" x="314.54" y="39.98" width="4.13" height="3.28"/></clipPath><clipPath id="clippath-53"><rect class="cls-1" x="310.31" y="44.98" width="8.35" height="12.93"/></clipPath><clipPath id="clippath-54"><rect class="cls-1" x="516.39" y="452.15" width="7.18" height="22.02"/></clipPath><clipPath id="clippath-55"><rect class="cls-1" x="516.5" y="452.29" width="7.08" height="19.46"/></clipPath><clipPath id="clippath-56"><rect class="cls-1" x="516.5" y="455.43" width="5.29" height="18.74"/></clipPath><clipPath id="clippath-57"><rect class="cls-1" x="516.43" y="454.34" width="5.38" height="18.8"/></clipPath><clipPath id="clippath-58"><rect class="cls-1" x="516.43" y="452.73" width="6.7" height="19.43"/></clipPath><clipPath id="clippath-59"><rect class="cls-1" x="516.42" y="453.23" width="6.65" height="19.39"/></clipPath><clipPath id="clippath-60"><rect class="cls-1" x="516.48" y="454.84" width="5.31" height="18.83"/></clipPath><clipPath id="clippath-61"><rect class="cls-1" x="516.42" y="453.21" width="5.38" height="18.47"/></clipPath><clipPath id="clippath-62"><rect class="cls-1" x="516.42" y="453.21" width="5.38" height="18.38"/></clipPath><clipPath id="clippath-63"><rect class="cls-1" x="516.42" y="453.58" width="5.37" height="18.85"/></clipPath><clipPath id="clippath-64"><rect class="cls-1" x="516.45" y="453.94" width="5.35" height="18.8"/></clipPath><clipPath id="clippath-65"><rect class="cls-1" x="516.42" y="453.74" width="6.45" height="18.31"/></clipPath><clipPath id="clippath-66"><rect class="cls-1" x="516.44" y="453.74" width="5.57" height="17.92"/></clipPath><clipPath id="clippath-67"><rect class="cls-1" x="516.39" y="452.72" width="5.75" height="18.34"/></clipPath><clipPath id="clippath-68"><rect class="cls-1" x="516.44" y="454.59" width="6.04" height="18.33"/></clipPath><clipPath id="clippath-69"><rect class="cls-1" x="516.49" y="452.15" width="5.29" height="17.6"/></clipPath><clipPath id="clippath-70"><rect class="cls-1" x="516.5" y="452.44" width="5.29" height="17.62"/></clipPath><clipPath id="clippath-71"><rect class="cls-1" x="20.89" y="291.61" width="36.68" height="36.68"/></clipPath><clipPath id="clippath-72"><rect class="cls-1" x="26.92" y="302.16" width="14.01" height="22.41"/></clipPath><clipPath id="clippath-73"><rect class="cls-1" x="27.55" y="302.7" width="13.37" height="19.43"/></clipPath><clipPath id="clippath-74"><rect class="cls-1" x="27" y="305.76" width="12.29" height="18.81"/></clipPath><clipPath id="clippath-75"><rect class="cls-1" x="26.93" y="304.68" width="12.26" height="18.84"/></clipPath><clipPath id="clippath-76"><rect class="cls-1" x="27.09" y="303.06" width="13.41" height="19.42"/></clipPath><clipPath id="clippath-77"><rect class="cls-1" x="27.08" y="303.54" width="13.38" height="19.23"/></clipPath><clipPath id="clippath-78"><rect class="cls-1" x="26.93" y="302.16" width="12.23" height="17.62"/></clipPath><clipPath id="clippath-79"><rect class="cls-1" x="26.93" y="305.2" width="12.25" height="18.82"/></clipPath><clipPath id="clippath-80"><rect class="cls-1" x="26.93" y="303.55" width="12.27" height="18.41"/></clipPath><clipPath id="clippath-81"><rect class="cls-1" x="26.93" y="303.55" width="12.27" height="18.33"/></clipPath><clipPath id="clippath-82"><rect class="cls-1" x="27" y="303.93" width="12.29" height="18.76"/></clipPath><clipPath id="clippath-83"><rect class="cls-1" x="26.93" y="304.28" width="12.35" height="18.79"/></clipPath><clipPath id="clippath-84"><rect class="cls-1" x="26.94" y="304.06" width="13.34" height="18.31"/></clipPath><clipPath id="clippath-85"><rect class="cls-1" x="27" y="304.06" width="12.51" height="17.92"/></clipPath><clipPath id="clippath-86"><rect class="cls-1" x="26.92" y="303.07" width="12.65" height="18.3"/></clipPath><clipPath id="clippath-87"><rect class="cls-1" x="26.93" y="304.93" width="12.94" height="18.3"/></clipPath><clipPath id="clippath-88"><rect class="cls-1" x="26.92" y="302.5" width="12.16" height="17.62"/></clipPath><clipPath id="clippath-89"><rect class="cls-1" x="26.92" y="302.78" width="12.23" height="17.65"/></clipPath></defs><g id="Layer_1-2"><g class="cls-3"><g id="Group_672"><g id="Group_411"><g class="cls-35"><g id="Group_410"><g id="Group_409" class="cls-128" transform="translate(-0.039 0)"><g id="Group_408"><g class="cls-38"><g id="Group_407"><path id="Path_4119" class="cls-26" d="M125.55,26.29c118-65.28,276.08,2.54,358.46,77.72,23.53,21.48,80.59,75.06,94.07,160.94,16.74,106.67-38.05,235.97-163.7,291.28-136.77,60.2-289.68,3.15-361.26-89.46C-13.81,380.16-.41,278.18,4.38,241.74,9.99,199,26.69,80.99,125.55,26.29"/></g></g></g></g></g></g></g><rect id="Rectangle_564" class="cls-10" x="194.11" y="112.7" width="143.32" height="143.32"/><rect id="Rectangle_565" class="cls-10" x="351.77" y="112.7" width="143.32" height="143.32"/><rect id="Rectangle_566" class="cls-10" x="194.11" y="270.36" width="143.32" height="143.32"/><rect id="Rectangle_567" class="cls-10" x="351.77" y="270.36" width="143.32" height="143.32"/><g id="Group_671"><g class="cls-37"><g id="Group_670"><path id="Path_4120" d="M309.84,157.09c-7.72-8.36-19.21-10.12-27.83-7.76-10.92,2.98-16.43,12.43-20.31,19.1-6.87,11.78-3.55,16.05-8.95,22.89-9.56,12.12-32.74,4.1-44.03,13.4-27.12,22.37-12.34,59.33,11.7,76.78,16.03,11.64,37.85,4.91,43.78,3.08,18.01-5.56,47.85-16.45,50.74-42.45,1.94-17.48-15.9-31.5-6.32-46.07,2.44-3.71,4.46-4.72,6.28-9.36,2.95-7.54,3.61-20.23-5.06-29.6"/><path id="Path_4121" d="M281.64,159.15c4.1-3.33,1.51-13.15-1.12-18.44-.98-1.99-4.89-8.32-10.68-7.98-5.95,.35-12.14,7.8-10.02,15.71,2.66,9.89,17.02,14.61,21.82,10.71"/><path id="Path_4122" class="cls-20" d="M253.94,219.43c12.38-4.04,31.24-6.94,53.79,.24,8.22,2.64,14.13,9.85,15.13,18.42l18.37,105.75c.91,7.69-9.36,15.16-16.6,17.9-7.56,2.86-18.99,5.58-35.18,5.58-17.35,0-38.31-.1-45.35-3.18-.21-.09-.42-.19-.64-.29-9.04-4.28-14.44-13.77-13.5-23.73l3.74-15.54c4.12-17.14,6.04-34.74,5.69-52.37l-.6-30.78c-.47-9.91,5.73-18.91,15.15-22.01"/><path id="Path_4123" class="cls-20" d="M340.66,264.87s-14.66-40.61-31.1-44.51l8.36,57.54,22.74-13.03Z"/><path id="Path_4124" class="cls-20" d="M213.34,294.16c-6.28-4.97-10.32-10.45-8.08-18.14,2.01-6.92,10.15-23.65,12.36-29.67,7.57-20.61,23.25-25.22,29.36-26.68,.96-.23,11.83-1.67,11.83-1.67l-6.54,63.08-32.14,17.05-6.78-3.95Z"/><path id="Path_4125" class="cls-24" d="M282.59,298.04l72-.11c1.82,0,3.41-1.25,3.85-3.02l12.21-50.8c.52-2.13-.78-4.28-2.9-4.8-.31-.08-.63-.12-.96-.12l-72,.11c-1.82,0-3.41,1.25-3.85,3.02l-12.22,50.8c-.52,2.13,.78,4.28,2.9,4.8,.31,.08,.63,.12,.96,.12"/><path id="Path_4126" d="M282.59,299.09c-2.77,0-5.02-2.25-5.02-5.02,0-.4,.05-.81,.15-1.2l12.21-50.79c.55-2.24,2.56-3.82,4.87-3.82l72-.11h0c2.77,0,5.02,2.25,5.02,5.02,0,.4-.05,.81-.15,1.2l-12.22,50.79c-.55,2.24-2.56,3.82-4.87,3.83l-72,.11h0Zm0-2.1h0l72-.11c1.34,0,2.51-.92,2.83-2.22l12.21-50.79c.22-.87,.02-1.8-.54-2.51-.56-.7-1.4-1.11-2.3-1.12l-72,.11c-1.34,0-2.51,.92-2.83,2.22l-12.21,50.79c-.39,1.56,.56,3.15,2.13,3.54,.23,.06,.47,.09,.71,.09h0Z"/><path id="Path_4127" class="cls-10" d="M331.02,269.57c-.87,2.81-3.86,4.37-6.66,3.5s-4.37-3.86-3.5-6.66c.83-2.66,3.58-4.23,6.29-3.6,2.93,.8,4.66,3.83,3.87,6.76"/><path id="Path_4128" class="cls-10" d="M366.44,263.45l-.92,3.65c-.34,1.35-1.71,2.17-3.06,1.83-.16-.04-.31-.1-.46-.17l-12.18-5.78c-1.48-.71-3.27-.09-3.98,1.4-.05,.11-.1,.23-.14,.35-1.14,3.47-.18,9.63,15.33,15.92,9.47,3.84,9.81-6.56,8.27-12.91-.44-1.71-1.45-3.23-2.86-4.29"/><path id="Path_4129" d="M364.7,282.53c-1.4-.04-2.78-.35-4.06-.91-15.75-6.39-17.36-12.89-15.93-17.22,.36-1.09,1.17-1.97,2.23-2.43,1.07-.46,2.28-.43,3.33,.06l12.18,5.78c.73,.35,1.61,.03,1.96-.7,.04-.09,.07-.18,.1-.27l.92-3.65c.14-.56,.71-.9,1.27-.76,.12,.03,.23,.08,.34,.15,1.63,1.21,2.79,2.95,3.29,4.91,1.12,4.6,1.29,10.96-1.91,13.72-1.03,.88-2.35,1.35-3.71,1.32m-16.17-18.78c-.26,0-.53,.05-.77,.16-.5,.21-.89,.63-1.06,1.15-1.62,4.92,3.61,10.11,14.72,14.62,2.51,1.02,4.4,1,5.61-.05,2.31-2,2.26-7.43,1.24-11.64-.23-.92-.66-1.79-1.27-2.52l-.47,1.89c-.48,1.91-2.42,3.07-4.33,2.59-.23-.06-.45-.14-.66-.24l-12.18-5.78c-.26-.12-.55-.19-.84-.19"/><path id="Path_4130" class="cls-10" d="M258.53,247.87s-32.33,18.22-39,23.93-13.9,10.05-4.47,22.51c8.02,10.59,22.13,1.12,47.01-34.57,1.24-1.64,3.04-2.77,5.06-3.15,2.49-.56,6.12-2.53,7.79-9.08,0,0,6.25,.89,10.05-.85,.99-.47,1.42-1.65,.95-2.64-.28-.6-.84-1.02-1.49-1.12l-14.39-2.29c-2.37-.42-4.8,.36-6.48,2.09l-5.03,5.16Z"/><path id="Path_4131" d="M222.42,299.46c-3.18,0-5.94-1.51-8.21-4.5-9.3-12.3-3.01-17.56,3.09-22.65,.51-.43,1.03-.86,1.54-1.3,6.52-5.59,36.47-22.53,39.04-23.98l4.92-5.05c1.92-1.98,4.7-2.87,7.42-2.39l14.38,2.29c1.33,.21,2.36,1.27,2.53,2.6,.2,1.32-.51,2.61-1.73,3.15-3.17,1.45-7.76,1.22-9.71,1.03-1.97,6.59-6.03,8.45-8.33,8.96-1.76,.33-3.34,1.3-4.43,2.73-18.48,26.5-31.28,38.92-40.31,39.1h-.2m46.34-57.89c-1.68,0-3.29,.68-4.46,1.88l-5.02,5.16c-.07,.07-.15,.13-.24,.18-.32,.18-32.32,18.23-38.83,23.82-.52,.45-1.04,.88-1.56,1.31-6.07,5.07-10.86,9.07-2.76,19.77,1.91,2.52,4.1,3.72,6.69,3.67,8.18-.16,20.82-12.66,38.62-38.2,1.39-1.86,3.42-3.14,5.7-3.58,2.36-.53,5.49-2.4,7-8.31,.13-.52,.63-.86,1.16-.78,.06,0,5.99,.82,9.47-.76,.37-.16,.59-.56,.52-.96-.04-.42-.37-.75-.78-.81l-14.39-2.29c-.36-.07-.73-.1-1.1-.1"/><path id="Path_4132" class="cls-10" d="M294.5,199.96c1.74,.87,3.85,.52,5.22-.87,1.46-1.47,2.75-3.12,3.83-4.89l1.98,.04c.63,.01,1.16-.48,1.19-1.11l.34-7.72c1.24-1.88,2.02-4.03,2.27-6.27,.24-2.87-2.32-8.02-4.9-9.28-3.5-1.71-9.83-2.63-13.13,2.33-1.42,2.13-3.72,3.66-5.12,3.41-1.31-.23-1.85-1.36-2.5-2.52-1.21-2.17-4.21-4.21-7.09-.78-2.92,3.47-.9,6.66,.92,9.33,.73,1.07-.06,4.06-.36,5.32l-4.27,18.2c-1.1,4.68-4.44,8.51-8.93,10.23l-4.57,1.75s5.05,15.32,25.28,14.89c15.44-.33,14.26-13,14.26-13l-2.03-.89c-5.31-2.34-8.21-8.11-6.93-13.77l1.36-6.01,3.2,1.61Z"/><path id="Path_4133" d="M283.81,233.08c-20.07,0-25.39-15.46-25.45-15.62-.17-.53,.1-1.11,.62-1.31l4.57-1.75c4.16-1.59,7.27-5.15,8.28-9.49l4.34-18.5c.71-2.96,.63-3.91,.44-4.19-1.63-2.4-4.36-6.42-.85-10.59,1.68-2,3.38-2.3,4.49-2.19,1.85,.3,3.46,1.46,4.31,3.13l.12,.23c.58,1.05,.94,1.65,1.64,1.77,.76,.13,2.72-.95,4.06-2.96,3.37-5.06,9.86-4.94,14.47-2.69,3.08,1.51,5.75,7.18,5.49,10.31-.26,2.31-1.04,4.54-2.28,6.5l-.33,7.45c-.06,1.2-1.06,2.13-2.26,2.11l-1.38-.03c-1.05,1.65-2.28,3.18-3.66,4.57-1.69,1.71-4.28,2.14-6.43,1.07l-2-1.01-1.06,4.7c-1.16,5.17,1.49,10.43,6.33,12.58l2.03,.89c.35,.15,.59,.48,.62,.86,.2,3.45-.94,6.85-3.18,9.48-2.65,2.98-6.72,4.54-12.1,4.66-.29,0-.57,0-.85,0m-23.08-15.35c1.44,3.23,7.33,13.59,23.89,13.24,4.77-.1,8.33-1.43,10.58-3.96,1.72-2.04,2.67-4.63,2.67-7.3l-1.42-.63c-5.76-2.55-8.92-8.82-7.53-14.97l1.36-6.01c.13-.57,.69-.92,1.26-.79,.08,.02,.17,.05,.24,.09l3.2,1.61h0c1.34,.66,2.95,.39,4-.67,1.4-1.42,2.64-2.99,3.67-4.7,.19-.32,.54-.51,.92-.5l1.98,.04c.05,0,.11-.03,.11-.08,0,0,0-.02,0-.02l.34-7.72c0-.18,.06-.35,.15-.5,1.15-1.74,1.87-3.73,2.12-5.81,.21-2.59-2.21-7.22-4.32-8.25-2.74-1.34-8.73-2.65-11.8,1.97-1.43,2.15-4.08,4.24-6.18,3.87-1.72-.31-2.46-1.64-3.11-2.82l-.12-.22c-.53-1.06-1.52-1.82-2.68-2.06-1.08,0-2.09,.55-2.69,1.45-2.3,2.74-.98,5.17,.98,8.06,.87,1.27,.41,3.6-.13,5.86l-.07,.29-4.27,18.2c-1.18,5.01-4.76,9.12-9.57,10.96l-3.57,1.38Z"/><path id="Path_4134" class="cls-10" d="M293.45,517.2l-10.72,31.99s11.68-1,12.8-.78,14.78-29.17,14.78-29.17l-16.85-2.04Z"/><path id="Path_4135" d="M282.72,550.24c-.58,0-1.05-.47-1.05-1.05,0-.11,.02-.23,.05-.34l10.72-31.99c.16-.47,.63-.77,1.12-.71l16.85,2.04c.58,.07,.99,.59,.92,1.17-.01,.11-.04,.22-.09,.31-.03,.07-3.46,7.44-6.98,14.68-7.46,15.37-7.93,15.28-8.95,15.08-.74-.11-6.95,.32-12.5,.79h-.09m11.45-31.9l-9.94,29.66c3.27-.27,8.97-.7,10.92-.67,1.69-2.26,8.88-17.16,13.58-27.23l-14.56-1.76Zm1.51,29.03h0"/><path id="Path_4136" class="cls-10" d="M285.18,542.16s16.12-6.61,19.11,1.69c3.79,10.55,9.72,26.65,9.72,26.65,.84,2.35-.38,4.93-2.73,5.78-.38,.14-.77,.22-1.17,.25-5.89,.47-14.68,.86-18.78-.58-6.46-2.27-17.19-22.73-17.19-22.73l3.31-17.41s5.85-.83,7.73,6.35"/><path id="Path_4137" d="M300.62,578.01c-3.81,0-7.37-.27-9.63-1.07-6.66-2.34-16.65-21.1-17.77-23.23-.11-.21-.14-.45-.1-.68l3.31-17.41c.08-.44,.44-.78,.89-.84,.07,0,6.15-.78,8.55,6.01,2.87-1.03,10.74-3.47,15.68-1.27,1.75,.74,3.11,2.19,3.73,3.98,3.75,10.43,9.66,26.48,9.72,26.64,1.04,2.89-.46,6.08-3.35,7.13-.47,.17-.95,.27-1.45,.31-2.96,.24-6.36,.43-9.58,.43m-25.37-24.95c3.08,5.82,11.55,20.19,16.44,21.9,2.99,1.05,9.5,1.23,18.35,.52,1.91-.15,3.33-1.82,3.18-3.73-.02-.31-.09-.61-.19-.9-.06-.15-5.97-16.22-9.72-26.65-.43-1.26-1.38-2.27-2.61-2.77-5.18-2.31-15.01,1.66-15.11,1.7-.54,.22-1.15-.04-1.37-.57-.02-.04-.03-.09-.04-.13-1.25-4.76-4.39-5.51-5.83-5.59l-3.08,16.22Z"/><path id="Path_4138" d="M309.88,570.61h-16.56c-.58,0-1.05-.48-1.04-1.06,0-.58,.47-1.04,1.04-1.04h16.56c.58,0,1.05,.48,1.04,1.06,0,.58-.47,1.04-1.04,1.04"/><path id="Path_4139" class="cls-10" d="M263.04,525.06l3.64,32.18,14.65-4.02-1.13-28.99-17.17,.83Z"/><path id="Path_4140" d="M266.69,558.29c-.53,0-.98-.4-1.04-.93l-3.64-32.18c-.06-.58,.35-1.1,.93-1.16,.02,0,.04,0,.07,0l17.17-.83c.58-.03,1.07,.42,1.1,1h0l1.13,29c.02,.49-.3,.92-.77,1.05l-14.65,4.02c-.09,.02-.18,.04-.28,.04m-2.47-32.23l3.38,29.85,12.67-3.47-1.05-27.1-14.99,.73Z"/><path id="Path_4141" class="cls-10" d="M265.31,580.95h23.19c2.84,0,5.14-2.3,5.14-5.13,0-.25-.02-.51-.06-.76-.77-5.24-3.3-13.92-10.86-25.87-.83-1.31-2.26-2.1-3.81-2.1h-7.05c-1.22,0-2.24,.92-2.36,2.13l-.53,5.09-2.13-2.19c-.61-.64-1.63-.66-2.26-.04-.19,.18-.33,.41-.41,.66-2.43,7.43-3.78,15.17-4,22.98-.05,2.84,2.21,5.19,5.06,5.24,.03,0,.06,0,.09,0"/><path id="Path_4142" d="M288.49,582h-23.19c-3.42,0-6.2-2.78-6.2-6.2,0-.03,0-.07,0-.1,.22-7.92,1.58-15.76,4.05-23.29,.46-1.39,1.96-2.15,3.35-1.69,.41,.13,.77,.36,1.07,.67l.57,.59,.3-2.86c.18-1.75,1.65-3.07,3.41-3.07h7.05c1.91,0,3.68,.97,4.7,2.59,7.68,12.14,10.23,20.99,11.01,26.28,.5,3.38-1.84,6.53-5.22,7.03-.3,.04-.61,.07-.91,.07m-22.81-29.32s-.09,0-.13,.02c-.19,.04-.34,.18-.4,.36-2.4,7.33-3.73,14.97-3.95,22.68-.04,2.26,1.77,4.13,4.03,4.17h23.25c2.26,0,4.09-1.82,4.09-4.08,0-.2-.01-.4-.04-.6-.75-5.09-3.22-13.63-10.7-25.46-.64-1-1.74-1.6-2.92-1.61h-7.05c-.68,0-1.25,.51-1.32,1.19l-.53,5.09c-.06,.58-.57,1-1.15,.94-.25-.03-.48-.14-.65-.32l-2.14-2.19c-.1-.11-.25-.17-.4-.17"/><path id="Path_4143" d="M288.51,576.46h-23.48c-.58,0-1.05-.48-1.04-1.06,0-.58,.47-1.04,1.04-1.04h23.48c.58,0,1.05,.48,1.04,1.06,0,.58-.47,1.04-1.04,1.04"/><path id="Path_4144" d="M318.08,331.81c-.6-1.48-1.84-2.62-3.37-3.1-23.17-6.89-48.19-3.29-68.47,9.85-1.44,.92-2.35,2.47-2.48,4.17-1.1,15.46-5.2,96.3,20.37,192.02l17.23-1.23,3.51-163.66s25.52,60,4.77,155.48l17.92,3.31s26.22-34.48,30.92-87.16c4.15-46.61-15.75-98.36-20.4-109.68"/><path id="Path_4145" class="cls-17" d="M286.38,385.91c-.57,0-1.03-.45-1.05-1.02l-.46-15.55c-.11-3.43,1.52-6.68,4.33-8.65l6.71-4.72c.47-.33,1.13-.22,1.46,.25,.33,.47,.22,1.13-.26,1.46l-6.71,4.72c-2.23,1.56-3.52,4.14-3.44,6.87l.46,15.55c.02,.58-.44,1.06-1.02,1.08h-.03"/><path id="Path_4146" class="cls-10" d="M464.84,95.94c.27-2.1,2.05-3.68,4.17-3.68h105.05c3.82,0,6.91,3.1,6.9,6.92,0,.29-.02,.59-.06,.88l-10.95,80.8c-.27,2.1-2.06,3.68-4.17,3.68h-108.61c-2.1,0-3.8-1.7-3.8-3.8,0-.17,.01-.34,.03-.51l11.43-84.29Z"/><path id="Path_4147" class="cls-26" d="M475.46,173.23l1.01-7.23c.14-.97-.54-1.86-1.5-2-.08-.01-.17-.02-.25-.02h-6.62c-.88,0-1.63,.65-1.75,1.52l-1.02,7.23c-.14,.97,.54,1.86,1.51,2,.08,.01,.16,.02,.25,.02h6.62c.88,0,1.63-.65,1.75-1.52"/><path id="Path_4148" class="cls-26" d="M492.31,173.22l1.67-11.91c.13-.97-.56-1.86-1.52-1.99-.08-.01-.15-.02-.23-.01h-6.62c-.89,0-1.64,.66-1.76,1.54l-1.68,11.91c-.13,.97,.56,1.86,1.53,1.99,.08,0,.15,.01,.23,.01h6.63c.89,0,1.64-.66,1.76-1.54"/><path id="Path_4149" class="cls-26" d="M509.19,173.24l2.75-19.12c.14-.97-.54-1.86-1.5-2-.08-.01-.17-.02-.25-.02h-6.62c-.88,0-1.63,.65-1.75,1.52l-2.76,19.12c-.14,.97,.54,1.86,1.5,2,.08,.01,.17,.02,.25,.02h6.62c.88,0,1.63-.65,1.75-1.52"/><path id="Path_4150" class="cls-20" d="M526.04,173.22l4.55-34.92c.13-.97-.56-1.86-1.53-1.99-.08,0-.15-.01-.23-.01h-6.62c-.89,0-1.64,.66-1.76,1.54l-4.55,34.92c-.13,.97,.56,1.86,1.53,1.99,.08,0,.15,.01,.23,.01h6.63c.89,0,1.64-.66,1.76-1.54"/><path id="Path_4151" class="cls-26" d="M542.89,173.21l3.5-27.55c.12-.97-.56-1.86-1.53-1.98-.07,0-.15-.01-.22-.01h-6.62c-.89,0-1.64,.66-1.76,1.55l-3.51,27.55c-.12,.97,.56,1.86,1.53,1.98,.07,0,.15,.01,.22,.01h6.63c.89,0,1.64-.66,1.76-1.55"/><path id="Path_4152" class="cls-20" d="M559.76,173.23l6.1-44.41c.13-.97-.54-1.86-1.51-2-.08-.01-.16-.02-.24-.02h-6.62c-.88,0-1.63,.65-1.75,1.53l-6.11,44.41c-.13,.97,.54,1.86,1.51,2,.08,.01,.16,.02,.24,.02h6.62c.88,0,1.63-.65,1.75-1.53"/><path id="Path_4153" class="cls-25" d="M463.3,108.39s-.1,0-.14,0c-.57-.08-.98-.61-.9-1.18h0l1.55-11.41c.34-2.62,2.57-4.58,5.21-4.59h38.85c.58,0,1.05,.47,1.05,1.05s-.47,1.05-1.05,1.05h-38.85c-1.59,0-2.93,1.19-3.13,2.76l-1.55,11.41c-.07,.52-.51,.91-1.04,.91"/><path id="Path_4154" class="cls-25" d="M490.91,185.59h-33.74c-2.68,0-4.85-2.17-4.85-4.85,0-.22,.01-.43,.04-.65l7.93-58.46c.08-.57,.61-.98,1.18-.9,.57,.08,.98,.61,.9,1.18l-7.93,58.46c-.2,1.51,.86,2.89,2.36,3.09,.12,.02,.24,.02,.36,.02h33.74c.58,0,1.05,.47,1.05,1.05s-.47,1.05-1.05,1.05h0"/><path id="Path_4155" class="cls-25" d="M565.78,185.59h-62.94c-.58,0-1.05-.47-1.05-1.05s.47-1.05,1.05-1.05h62.94c1.59,0,2.93-1.19,3.13-2.76l10.96-80.81c.41-3.21-1.85-6.15-5.06-6.56-.24-.03-.49-.05-.74-.05h-50.72c-.58,0-1.05-.47-1.05-1.05s.47-1.05,1.05-1.05h50.72c4.4,0,7.96,3.57,7.95,7.97,0,.34-.02,.68-.07,1.02l-10.96,80.81c-.34,2.62-2.57,4.58-5.21,4.59"/><path id="Path_4156" class="cls-26" d="M522.5,116.72h-47.81c-1.36,.03-2.49-1.05-2.51-2.41-.03-1.36,1.05-2.49,2.41-2.51,.03,0,.07,0,.1,0h47.8c1.36,.03,2.44,1.15,2.41,2.51-.03,1.32-1.09,2.39-2.41,2.41"/><path id="Path_4157" class="cls-26" d="M500.31,106.97h-23.99c-1.36-.03-2.44-1.15-2.41-2.51,.03-1.32,1.09-2.39,2.41-2.41h23.99c1.36,.03,2.44,1.15,2.41,2.51-.03,1.32-1.09,2.39-2.41,2.41"/><path id="Path_4158" class="cls-20" d="M476.5,147.5c0,2.34-1.9,4.24-4.24,4.24s-4.24-1.9-4.24-4.24,1.9-4.24,4.24-4.24,4.24,1.9,4.24,4.24h0"/><path id="Path_4159" class="cls-25" d="M472.26,152.79c-2.92,0-5.29-2.37-5.29-5.29,0-2.92,2.37-5.29,5.29-5.29,2.92,0,5.29,2.37,5.29,5.29,0,2.92-2.37,5.29-5.29,5.29m0-8.48c-1.76,0-3.19,1.43-3.19,3.19,0,1.76,1.43,3.19,3.19,3.19,1.76,0,3.19-1.43,3.19-3.19h0c0-1.76-1.43-3.19-3.19-3.19"/><path id="Path_4160" class="cls-20" d="M530.27,119.75c0,2.34-1.9,4.24-4.24,4.24s-4.24-1.9-4.24-4.24,1.9-4.24,4.24-4.24,4.24,1.9,4.24,4.24h0"/><path id="Path_4161" class="cls-25" d="M526.03,125.04c-2.92,0-5.29-2.37-5.29-5.29,0-2.92,2.37-5.29,5.29-5.29,2.92,0,5.29,2.37,5.29,5.29,0,2.92-2.37,5.29-5.29,5.29m0-8.48c-1.76,0-3.19,1.43-3.19,3.19,0,1.76,1.43,3.19,3.19,3.19,1.76,0,3.19-1.43,3.19-3.19h0c0-1.76-1.43-3.19-3.19-3.19"/><path id="Path_4162" class="cls-20" d="M546.41,123.73c0,2.34-1.9,4.24-4.24,4.24s-4.24-1.9-4.24-4.24,1.9-4.24,4.24-4.24,4.24,1.9,4.24,4.24h0"/><path id="Path_4163" class="cls-25" d="M542.17,129.03c-2.92,0-5.29-2.37-5.29-5.29,0-2.92,2.37-5.29,5.29-5.29,2.92,0,5.29,2.37,5.29,5.29,0,2.92-2.37,5.29-5.29,5.29m0-8.48c-1.76,0-3.19,1.43-3.19,3.19,0,1.76,1.43,3.19,3.19,3.19,1.76,0,3.19-1.43,3.19-3.19h0c0-1.76-1.43-3.19-3.19-3.19"/><path id="Path_4164" class="cls-20" d="M566.79,109.48c0,2.34-1.9,4.24-4.24,4.24s-4.24-1.9-4.24-4.24,1.9-4.24,4.24-4.24,4.24,1.9,4.24,4.24h0"/><path id="Path_4165" class="cls-25" d="M562.55,114.77c-2.92,0-5.29-2.37-5.29-5.29,0-2.92,2.37-5.29,5.29-5.29,2.92,0,5.29,2.37,5.29,5.29,0,2.92-2.37,5.29-5.29,5.29m0-8.48c-1.76,0-3.19,1.43-3.19,3.19,0,1.76,1.43,3.19,3.19,3.19,1.76,0,3.19-1.43,3.19-3.19h0c0-1.76-1.43-3.19-3.19-3.19"/><path id="Path_4166" class="cls-25" d="M480.46,145.8c-.58,0-1.05-.47-1.05-1.05,0-.38,.21-.74,.54-.92l38.15-21.07c.51-.27,1.15-.07,1.42,.44,.26,.5,.09,1.12-.4,1.4l-38.16,21.07c-.16,.09-.33,.13-.51,.13"/><path id="Path_4167" class="cls-25" d="M549.12,120.05c-.58,0-1.05-.47-1.05-1.05,0-.35,.18-.68,.47-.88l6.63-4.35c.48-.33,1.13-.2,1.46,.27,.33,.48,.2,1.13-.27,1.46l-.03,.02-6.63,4.35c-.17,.11-.37,.17-.58,.17"/><path id="Path_4168" class="cls-10" d="M253.55,62.81c.01,29.85-24.18,54.06-54.03,54.07-29.85,.01-54.06-24.18-54.07-54.03-.01-29.85,24.18-54.06,54.03-54.07,29.85-.01,54.06,24.18,54.08,54.03h0"/><path id="Path_4169" class="cls-12" d="M200.56,62.93l28.71,44.96c24.94-16.52,31.77-50.13,15.25-75.07-.47-.71-.95-1.4-1.45-2.09l-42.51,32.21Z"/><path id="Path_4170" class="cls-24" d="M211.15,9.85l-10.58,53.08,42.52-32.19c-7.76-10.61-19.11-18.03-31.94-20.89"/><path id="Path_4171" class="cls-16" d="M216.12,62.71c0,9.12-7.38,16.51-16.5,16.51-9.12,0-16.51-7.38-16.51-16.5,0-9.12,7.38-16.51,16.5-16.51,9.12,0,16.51,7.38,16.51,16.5"/><path id="Path_4172" class="cls-25" d="M199.5,117.93c-30.43,0-55.1-24.66-55.11-55.09,0-30.43,24.66-55.1,55.09-55.11h.02c30.43,0,55.1,24.67,55.1,55.1,0,14.61-5.8,28.62-16.12,38.95-10.31,10.37-24.33,16.19-38.95,16.15h-.03Zm0-108.1h-.02c-29.27,0-53,23.74-52.99,53.01,0,29.27,23.74,53,53.01,52.99h.02c29.27,0,52.99-23.74,52.99-53.01,0-14.06-5.6-27.55-15.55-37.49-9.92-9.96-23.41-15.55-37.46-15.51"/><path id="Path_4173" d="M52.35,238.83c-.53,0-.86,0-.9,0l.05-2.1c2.06,.04,4.11-.06,6.16-.3l.29,2.08c-1.86,.23-3.72,.33-5.59,.32"/><path id="Path_4174" class="cls-10" d="M101.79,260.38l12.33,.02c1.02,0,1.85-.83,1.85-1.85h0l-.09-67.01c0-1.14-.92-2.07-2.06-2.08l-31.25-.06,19.23,70.97Z"/><path id="Path_4175" class="cls-10" d="M101.79,260.38l12.33,.02c.58,0,1.12-.27,1.47-.73,.44-.82,.63-1.76,.55-2.68,0-1.65-.27-64.95-.27-64.95,.1-1.18-.78-2.21-1.96-2.31-.04,0-.07,0-.11,0l-31.25-.06,19.23,70.72Z"/><path id="Path_4176" class="cls-25" d="M114.12,261.45h0l-12.33-.02c-.58,0-1.05-.47-1.05-1.05h0c-.01-.57,.44-1.04,1.01-1.05,.01,0,.03,0,.04,0l12.33,.02h0c.25,0,.48-.12,.63-.31h0c.26-.65,.38-1.35,.34-2.05,0-1.63-.26-64.32-.27-64.95,0-.75-.42-1.27-1.02-1.27l-31.25-.06c-.58,0-1.05-.47-1.05-1.05s.47-1.05,1.05-1.05h0l31.25,.06c1.76,.04,3.15,1.49,3.12,3.25,0,.04,0,.08,0,.12,0,.63,.27,63.32,.27,64.96,.09,1.15-.17,2.3-.75,3.3-.54,.73-1.4,1.16-2.32,1.16"/><path id="Path_4177" class="cls-10" d="M110.78,215.92l-9.38,47.65c-.13,.67-.72,1.15-1.4,1.15l-72.06-.14c-.79,0-1.43-.65-1.43-1.44,0-.09,0-.18,.03-.27l14.23-72.25c.13-.67,.72-1.15,1.4-1.15l72.06,.14c.79,0,1.43,.65,1.43,1.44,0,.09,0,.18-.03,.27l-3.88,19.81-.96,4.79Z"/><path id="Path_4178" class="cls-25" d="M100,265.77h0l-72.06-.14c-1.37,0-2.48-1.12-2.47-2.5,0-.16,.02-.31,.05-.47l14.23-72.25c.23-1.16,1.24-2,2.42-2h0l72.06,.14c1.37,0,2.48,1.12,2.47,2.49,0,.16-.02,.31-.05,.47l-3.89,19.81c-.12,.57-.68,.93-1.25,.8-.55-.12-.91-.65-.81-1.2l3.89-19.81c.02-.11,0-.23-.08-.32-.07-.09-.18-.14-.29-.14l-72.06-.14h0c-.18,0-.33,.13-.36,.3l-14.23,72.25c-.02,.11,0,.23,.08,.32,.07,.09,.18,.14,.29,.14l72.06,.14h0c.18,0,.33-.13,.36-.3l9.38-47.65c.11-.57,.66-.94,1.23-.83,.57,.11,.94,.66,.83,1.23h0l-9.38,47.65c-.23,1.16-1.24,2-2.42,2"/><path id="Path_4179" class="cls-27" d="M89.15,265.74c-.05,.04-.1,.09-.15,.13l.15-.13Z"/><path id="Path_4180" class="cls-26" d="M41.77,212.95l13.73,.03-2.55,12.92-13.73-.03,2.55-12.92Z"/><path id="Path_4181" class="cls-26" d="M38.65,228.68l13.73,.03-2.55,12.92-13.73-.03,2.55-12.92Z"/><path id="Path_4182" class="cls-26" d="M58.29,212.98l13.73,.03-2.55,12.92-13.73-.03,2.55-12.92Z"/><path id="Path_4183" class="cls-26" d="M55.17,228.71l13.73,.03-2.55,12.92-13.73-.03,2.55-12.92Z"/><path id="Path_4184" class="cls-26" d="M74.81,213.01l13.73,.03-2.55,12.92-13.73-.03,2.55-12.92Z"/><path id="Path_4185" class="cls-26" d="M71.69,228.74l13.73,.03-2.55,12.92-13.73-.03,2.55-12.92Z"/><path id="Path_4186" class="cls-20" d="M91.33,213.04l13.73,.03-2.55,12.92-13.73-.03,2.55-12.92Z"/><path id="Path_4187" class="cls-20" d="M88.21,228.78l13.73,.03-2.55,12.92-13.73-.03,2.55-12.92Z"/><path id="Path_4188" class="cls-25" d="M51.41,196.39h0c-3.98-.02-7.19-3.26-7.17-7.24,0-1.89,.77-3.71,2.1-5.05,1.33-1.34,3.15-2.09,5.04-2.09,.14,0,.3,0,.45,.01,.58,.04,1.02,.54,.99,1.11-.04,.58-.54,1.02-1.11,.99-.11,0-.22-.01-.32-.01-1.33,0-2.61,.53-3.55,1.47-.96,.95-1.49,2.25-1.49,3.6,0,2.8,2.27,5.08,5.07,5.1,.58,0,1.05,.47,1.05,1.05s-.47,1.05-1.05,1.05"/><path id="Path_4189" class="cls-25" d="M60.66,196.4h0c-3.98-.02-7.19-3.26-7.17-7.24,.01-1.89,.76-3.71,2.1-5.05,1.33-1.34,3.15-2.09,5.04-2.09,.15,0,.3,0,.45,.01,.58,.04,1.02,.54,.98,1.12-.04,.58-.54,1.02-1.12,.98h0c-.11,0-.21-.01-.32-.01-1.34,0-2.62,.53-3.56,1.48-.96,.95-1.49,2.25-1.49,3.6,0,2.8,2.27,5.08,5.07,5.1,.58,0,1.05,.47,1.05,1.05s-.47,1.05-1.05,1.05"/><path id="Path_4190" class="cls-25" d="M69.91,196.42h0c-3.96-.02-7.16-3.24-7.17-7.2-.01-3.95,3.18-7.16,7.12-7.18h.02c.15,0,.3,0,.45,.01,.58,.04,1.02,.54,.99,1.11-.04,.58-.54,1.02-1.11,.99h0c-.11,0-.23,0-.32-.01-1.33,0-2.61,.53-3.56,1.47-.96,.95-1.49,2.25-1.49,3.6,0,2.8,2.27,5.08,5.07,5.1,.58,0,1.05,.47,1.05,1.05s-.47,1.05-1.05,1.05h0"/><path id="Path_4191" class="cls-25" d="M79.16,196.44h0c-3.96-.02-7.16-3.24-7.17-7.2-.02-3.95,3.17-7.16,7.12-7.18h.02c.14,0,.3,0,.45,.01,.58,.04,1.02,.54,.99,1.11-.04,.58-.54,1.02-1.11,.99h0c-.11,0-.21-.01-.32-.01-1.33,0-2.61,.53-3.56,1.47-.96,.95-1.49,2.25-1.49,3.6,0,2.81,2.27,5.08,5.07,5.1,.58,0,1.05,.47,1.05,1.05s-.47,1.05-1.05,1.05"/><path id="Path_4192" class="cls-25" d="M88.42,196.46h0c-3.98-.02-7.19-3.26-7.17-7.24,0-1.89,.77-3.71,2.1-5.05,1.33-1.34,3.15-2.09,5.03-2.09,.14,0,.3,0,.45,.01,.58,.04,1.02,.54,.98,1.12-.04,.58-.54,1.02-1.12,.98h0c-.11,0-.21-.01-.32-.01-1.33,0-2.61,.53-3.55,1.47-.96,.95-1.49,2.25-1.49,3.6,0,2.8,2.27,5.08,5.07,5.1,.58,0,1.05,.47,1.05,1.05s-.47,1.05-1.05,1.05"/><path id="Path_4193" class="cls-25" d="M97.67,196.47h0c-3.96-.02-7.16-3.24-7.17-7.2-.01-3.95,3.18-7.16,7.12-7.18h.02c.15,0,.3,0,.45,.01,.58,.04,1.02,.54,.99,1.11-.04,.58-.54,1.02-1.12,.99h0c-.11,0-.22-.01-.32-.01-1.33,0-2.61,.53-3.55,1.47-.96,.95-1.49,2.25-1.49,3.6,0,2.8,2.27,5.08,5.07,5.1,.58,0,1.05,.47,1.05,1.05s-.47,1.05-1.05,1.05"/><path id="Path_4194" class="cls-25" d="M106.39,196.49h0c-3.98-.02-7.19-3.26-7.17-7.24,.01-1.89,.76-3.71,2.1-5.05,1.33-1.34,3.15-2.09,5.04-2.09h.01c2.49,0,4.8,1.3,6.1,3.42,.29,.5,.12,1.14-.38,1.43-.48,.28-1.1,.13-1.41-.33-.92-1.5-2.55-2.42-4.31-2.42h0c-2.79,0-5.05,2.27-5.04,5.06h0c0,2.82,2.27,5.09,5.07,5.11,.58,0,1.05,.47,1.05,1.05s-.47,1.05-1.05,1.05h0"/><path id="Path_4195" class="cls-10" d="M487.53,461.38c.64-18.85,16.27-33.7,35.12-33.36,18.55,.28,33.37,15.55,33.09,34.1,0,.18,0,.36-.01,.54-.64,18.85-16.27,33.7-35.12,33.36-18.55-.28-33.37-15.55-33.09-34.1,0-.18,0-.36,.01-.54"/><path id="Path_4196" class="cls-25" d="M521.26,497.08c-.22,0-.45,0-.67,0-19.14-.29-34.41-16.04-34.12-35.18,0-.18,0-.37,.01-.55,.67-19.41,16.77-34.7,36.2-34.38,19.14,.29,34.41,16.04,34.12,35.18,0,.18,0,.37-.01,.55-.67,19.15-16.36,34.34-35.52,34.38m-32.68-35.67c-.56,17.97,13.55,32.99,31.52,33.55,.18,0,.35,0,.53,.01,18.27,.3,33.41-14.08,34.06-32.34,.56-17.97-13.55-32.99-31.52-33.55-.17,0-.35,0-.52-.01-18.27-.31-33.42,14.08-34.06,32.34"/><path id="Path_4197" class="cls-10" d="M291.94,53.21c-1.23-14.8,9.76-27.8,24.56-29.04,14.8-1.23,27.8,9.76,29.04,24.56,1.23,14.7-9.62,27.65-24.32,29.01-14.85,1.25-27.92-9.71-29.28-24.54"/><path id="Path_4198" class="cls-25" d="M318.66,78.92c-6.45,0-12.7-2.26-17.66-6.4-12.04-10-13.69-27.88-3.68-39.91,4.71-5.67,11.45-9.28,18.78-10.07,7.34-.71,14.66,1.55,20.32,6.27,12.04,10,13.69,27.88,3.68,39.91-4.71,5.67-11.45,9.28-18.78,10.07-.89,.08-1.77,.13-2.66,.13m-25.68-25.81c.61,6.94,3.99,13.35,9.36,17.79,5.23,4.37,11.99,6.46,18.78,5.8,14.41-1.56,24.83-14.5,23.27-28.91-.73-6.78-4.07-13-9.32-17.36-5.23-4.37-11.99-6.46-18.78-5.8-14.28,1.47-24.7,14.19-23.31,28.48Z"/><path id="Path_4199" class="cls-10" d="M65.48,314.25c-.29,15.18-12.59,27.53-27.47,27.59s-26.7-12.21-26.41-27.4,12.59-27.54,27.47-27.59,26.7,12.21,26.41,27.4"/><path id="Path_4200" class="cls-25" d="M37.9,343.76c-7.5,.03-14.7-2.98-19.94-8.35-5.49-5.59-8.47-13.16-8.26-20.99,.31-16.2,13.49-29.43,29.38-29.49h.1c9.55-.01,18.45,4.86,23.59,12.91,.31,.49,.17,1.14-.31,1.45-.49,.31-1.14,.17-1.45-.31-4.77-7.48-13.04-11.99-21.92-11.94-14.76,.05-27,12.36-27.29,27.43-.2,7.26,2.56,14.29,7.65,19.47,4.87,4.99,11.57,7.78,18.54,7.72,14.76-.05,27-12.36,27.29-27.43,.02-.58,.49-1.03,1.07-1.03,.58,.01,1.04,.49,1.03,1.07-.31,16.2-13.49,29.43-29.38,29.49h-.1"/><path id="Path_4201" class="cls-10" d="M435.81,58.13h-19.47c-2.41,0-4.59,1.42-5.58,3.62l-5.09,11.21-6.32-11.61c-1.07-1.98-3.13-3.21-5.38-3.22h-17.91c-3.41-.02-6.16-2.8-6.14-6.21V13.47c-.02-3.41,2.73-6.19,6.14-6.21h59.75c3.41,.02,6.16,2.8,6.14,6.21V51.92c.02,3.41-2.73,6.19-6.14,6.21"/><path id="Path_4202" class="cls-25" d="M405.67,74.01c-.38,0-.74-.21-.92-.55l-6.32-11.61c-.88-1.64-2.6-2.66-4.46-2.67h-17.91c-1.91,0-3.75-.76-5.09-2.13-1.35-1.37-2.11-3.21-2.1-5.13V13.47c-.01-3.99,3.2-7.24,7.19-7.26h59.75c3.99,.02,7.21,3.27,7.19,7.26V51.92c0,1.92-.75,3.77-2.1,5.13-1.34,1.37-3.18,2.14-5.09,2.13h-19.47c-2,0-3.8,1.18-4.63,3l-5.09,11.21c-.17,.36-.52,.6-.92,.61h-.04m-29.6-65.7c-2.83,.02-5.11,2.33-5.09,5.16V51.92c0,1.37,.54,2.68,1.5,3.66,.95,.97,2.25,1.51,3.6,1.51h17.91c2.63,0,5.05,1.45,6.3,3.76l5.31,9.76,4.22-9.29c1.16-2.57,3.72-4.22,6.54-4.23h19.47c1.35,0,2.65-.54,3.6-1.51,.96-.97,1.5-2.29,1.5-3.66V13.47c.02-2.83-2.26-5.14-5.09-5.16h-59.76Z"/><path id="Path_4203" class="cls-25" d="M385.7,23.63c-.58,0-1.05-.47-1.05-1.05s.47-1.05,1.05-1.05l42.98-.11c.58,0,1.05,.47,1.05,1.05,0,.58-.47,1.05-1.05,1.05l-42.98,.11h0Z"/><path id="Path_4204" class="cls-25" d="M384.69,33.81c-.58,0-1.05-.47-1.05-1.05,0-.58,.47-1.05,1.05-1.05l31.85-.08h0c.58,0,1.05,.47,1.05,1.05,0,.58-.47,1.05-1.05,1.05l-31.85,.08Z"/><path id="Path_4205" class="cls-25" d="M385.88,44.24c-.58,0-1.05-.47-1.05-1.05,0-.58,.47-1.05,1.05-1.05l42.98-.11c.58,0,1.05,.47,1.05,1.05,0,.58-.47,1.05-1.05,1.05l-42.98,.11Z"/><path id="Path_4206" class="cls-25" d="M538.27,258.99c-.2,0-.4-.06-.57-.17-16.16-10.52-36.98-10.61-53.22-.22-.49,.31-1.14,.17-1.45-.32s-.17-1.14,.32-1.45c16.94-10.83,38.65-10.74,55.5,.23,.49,.32,.62,.97,.3,1.45-.19,.3-.52,.48-.88,.48"/><path id="Path_4207" class="cls-25" d="M484.49,343.5c-.2,0-.39-.06-.55-.16-12.33-7.66-20.82-20.19-23.38-34.48-.1-.57,.28-1.12,.85-1.22,.57-.1,1.12,.28,1.22,.85,2.45,13.7,10.6,25.72,22.42,33.06,.49,.31,.64,.95,.34,1.45-.19,.31-.53,.5-.89,.5"/><path id="Path_4208" class="cls-25" d="M541.57,340.56c-.58,0-1.05-.47-1.05-1.05,0-.33,.15-.63,.41-.83,9.48-7.33,15.95-17.88,18.18-29.65,.11-.57,.66-.94,1.23-.84,.57,.11,.94,.66,.84,1.23-2.32,12.28-9.07,23.29-18.96,30.93-.18,.14-.41,.22-.64,.22"/><path id="Path_4209" class="cls-10" d="M500.07,325.81c-11.3,6.88-14.88,21.62-8,32.91,1.67,2.75,3.89,5.13,6.5,7.01,.11,.08,.22,.15,.33,.22l2.06,1.29c5.9,3.26,12.9,3.88,19.27,1.7,12.52-4.26,19.39-19.27,14.96-30.38-3.46-8.67-7.23-11.87-14.15-14.73-10.58-4.38-20.98,1.98-20.98,1.98"/><path id="Path_4210" class="cls-20" d="M512.23,359.85c-5.8,.06-11.56,.9-17.13,2.52,1.06,1.12,2.22,2.14,3.48,3.04,.11,.08,.22,.15,.33,.22l2.06,1.29c9.51,5.36,21.48,3.35,28.72-4.83-5.68-1.58-11.56-2.34-17.45-2.24"/><path id="Path_4211" d="M512.34,370.94c-4.16,0-8.25-1.08-11.89-3.1l-2.11-1.32c-.13-.08-.26-.16-.38-.25-1.31-.94-2.53-2-3.63-3.17-.4-.42-.38-1.09,.04-1.48,.12-.11,.27-.2,.42-.24,5.66-1.65,11.52-2.51,17.41-2.56,6-.1,11.97,.67,17.75,2.28,.56,.16,.89,.73,.73,1.29-.04,.16-.12,.3-.23,.42-4.59,5.19-11.19,8.16-18.11,8.15m-15.22-8.05c.65,.59,1.34,1.15,2.05,1.66,.09,.06,.18,.12,.27,.18l2.06,1.29c8.51,4.78,19.14,3.4,26.16-3.38-5.05-1.25-10.24-1.83-15.44-1.75-5.1,.05-10.17,.72-15.11,1.99"/><path id="Path_4212" d="M527.74,344.15c-2.51-8.44-7.57-19.48-16.65-17.95-8.72,1.47-12.65,11.13-14.41,18.6-.89,3.88,1.54,7.74,5.41,8.63,.56,.13,1.14,.19,1.71,.18l17.11-.22c3.98-.04,7.16-3.3,7.12-7.28,0-.66-.11-1.32-.29-1.96"/><path id="Path_4213" class="cls-10" d="M520.03,334.44s-.01-.06-.01-.06l-15.53,.16v.04c-.2,.8-.3,1.62-.28,2.44l.06,4.55c0,2.87,1.38,5.56,3.71,7.23l.15,11.87c.01,2.36,1.94,4.27,4.3,4.25s4.27-1.94,4.25-4.3v-.07l-.15-11.69c2.43-1.71,3.85-4.53,3.77-7.5l-.07-5.13c0-.6-.07-1.2-.2-1.79"/><path id="Path_4214" d="M512.4,365.93c-2.91,0-5.28-2.34-5.33-5.26l-.15-11.52c0-.58,.46-1.06,1.04-1.06,.57-.02,1.05,.43,1.06,1,0,.01,0,.03,0,.04l.15,11.52c.03,1.76,1.46,3.18,3.22,3.18h.04c1.78-.03,3.2-1.49,3.18-3.27l-.15-11.56c0-.58,.46-1.06,1.04-1.06h0c.57-.02,1.04,.42,1.06,.99,0,.02,0,.03,0,.05l.15,11.56c.04,2.94-2.31,5.36-5.26,5.39h-.07"/><path id="Path_4215" d="M512.28,345.63c-1.14,0-2.23-.46-3.02-1.29-.4-.42-.39-1.08,.03-1.49,.42-.4,1.08-.39,1.48,.03,.4,.42,.95,.65,1.53,.64,.57,0,1.11-.24,1.5-.67,.39-.43,1.06-.46,1.48-.06,.43,.39,.46,1.06,.06,1.48h0c-.78,.84-1.87,1.33-3.02,1.35h-.05"/><path id="Path_4216" d="M512.39,351.22c-.58,0-1.05-.46-1.06-1.04,0-.58,.46-1.05,1.04-1.06h0c3.84-.05,6.92-3.52,6.87-7.75l-.07-5.13c-.05-4.06-3.09-7.33-6.8-7.28-1.94,.04-3.78,.9-5.06,2.36-1.38,1.57-2.12,3.59-2.08,5.68l.06,4.55c-.02,2.92,1.61,5.6,4.21,6.93,.52,.25,.74,.88,.49,1.4-.25,.52-.88,.74-1.4,.49h0c-3.31-1.68-5.4-5.08-5.4-8.8l-.06-4.55c-.05-2.61,.88-5.15,2.61-7.11,1.67-1.91,4.06-3.02,6.59-3.06,4.87-.08,8.85,4.13,8.92,9.35l.07,5.13c.07,5.38-3.94,9.81-8.94,9.88h-.01"/><path id="Path_4217" d="M512.25,370.91c-13.74,0-24.86-11.15-24.86-24.88,0-13.74,11.15-24.86,24.88-24.86,13.74,0,24.86,11.15,24.86,24.88,0,1.7-.18,3.39-.52,5.06-.13,.57-.69,.92-1.26,.79-.55-.13-.91-.67-.8-1.22,2.57-12.32-5.32-24.39-17.64-26.96s-24.39,5.32-26.96,17.64,5.32,24.39,17.64,26.96c9.63,2.01,19.47-2.39,24.39-10.91,.28-.51,.92-.69,1.43-.41s.69,.92,.41,1.43l-.02,.03c-4.45,7.7-12.66,12.44-21.56,12.46"/><path id="Path_4218" class="cls-10" d="M441.63,279.97c.01-13.15,10.68-23.8,23.83-23.79,13.15,.01,23.8,10.68,23.79,23.83-.01,13.14-10.67,23.79-23.81,23.79-13.16,0-23.82-10.67-23.81-23.83h0"/><path id="Path_4219" class="cls-24" d="M448.68,297.3c9.22,8.71,23.64,8.71,32.86,0-10.72-3.2-22.14-3.2-32.86,0"/><path id="Path_4220" d="M465.11,304.89c-6.38,0-12.52-2.43-17.15-6.82-.42-.4-.44-1.06-.04-1.48,.12-.13,.28-.23,.45-.28,10.92-3.26,22.56-3.26,33.48,0,.55,.17,.86,.76,.69,1.31-.05,.17-.15,.33-.28,.45-4.63,4.39-10.77,6.83-17.15,6.82m-14.29-7.11c8.35,6.68,20.22,6.68,28.58,0-9.37-2.43-19.21-2.43-28.58,0"/><path id="Path_4221" d="M472.78,266.05c-1.08-.7-2.34-1.07-3.62-1.07h-7.56c-1.69,0-3.31,.64-4.55,1.79l-.41,.38c-1.96,1.82-2.65,4.64-1.74,7.17l2.48,6.9,15.93-.1,2.25-7.54c.85-2.85-.29-5.92-2.79-7.53"/><path id="Path_4222" class="cls-10" d="M468.84,269.06l-.1-.05-11.44,7.43v4.48c0,2.46,1.13,4.79,3.06,6.32v6.83c0,2.7,2.19,4.89,4.89,4.89s4.89-2.19,4.89-4.89v-6.65c2.07-1.52,3.3-3.93,3.3-6.5v-4.75c0-3.07-1.8-5.85-4.59-7.11"/><path id="Path_4223" d="M465.37,290.04c-.58,0-1.05-.47-1.05-1.05s.47-1.05,1.05-1.05c3.87,0,7.01-3.14,7.02-7.02v-4.75c0-3.72-3.02-6.74-6.74-6.75h-7.29v11.5c0,2.75,1.61,5.25,4.11,6.39,.53,.24,.76,.86,.52,1.39s-.86,.76-1.39,.52c-3.25-1.48-5.34-4.73-5.34-8.3v-12.55c0-.58,.47-1.05,1.05-1.05h8.34c4.88,0,8.84,3.96,8.85,8.85v4.75c0,5.03-4.08,9.11-9.12,9.12"/><path id="Path_4224" d="M465.11,304.89c-13.81,0-25.01-11.19-25.01-25,0-13.81,11.19-25.01,25-25.01,9.42,0,18.04,5.29,22.3,13.69,.26,.52,.05,1.15-.46,1.41-.52,.26-1.15,.05-1.41-.46-5.72-11.28-19.51-15.78-30.78-10.06-11.28,5.72-15.78,19.51-10.06,30.78,5.72,11.28,19.51,15.78,30.78,10.06,5.43-2.76,9.54-7.57,11.42-13.36,.18-.55,.77-.85,1.32-.68,.55,.18,.85,.77,.68,1.32-3.35,10.31-12.95,17.29-23.78,17.31"/><path id="Path_4225" d="M465.25,300c-3.28,0-5.93-2.66-5.94-5.94v-6.83c0-.58,.48-1.05,1.06-1.04,.58,0,1.04,.47,1.04,1.04v6.82c0,2.12,1.72,3.83,3.84,3.83,2.12,0,3.83-1.72,3.83-3.83v-6.48c0-.58,.47-1.05,1.04-1.06,.58,0,1.05,.47,1.06,1.04h0v6.49c0,3.28-2.66,5.93-5.94,5.94"/><path id="Path_4226" class="cls-10" d="M533.56,280.03c-.08-13.26,10.61-24.07,23.87-24.15,13.26-.08,24.07,10.61,24.15,23.87,.08,13.25-10.6,24.06-23.86,24.15-13.27,.08-24.09-10.61-24.17-23.87"/><path id="Path_4227" d="M557.57,304.96c-13.86-.02-25.08-11.28-25.06-25.14,0-2.86,.5-5.7,1.46-8.39,.2-.55,.8-.83,1.34-.64,.55,.2,.83,.8,.64,1.34h0c-4.28,11.95,1.94,25.11,13.89,29.4,11.95,4.28,25.11-1.94,29.4-13.89s-1.94-25.11-13.89-29.4c-9.19-3.29-19.46-.42-25.61,7.16-.37,.45-1.03,.52-1.48,.15s-.52-1.03-.15-1.48h0c8.73-10.75,24.52-12.38,35.27-3.65,10.75,8.73,12.38,24.52,3.65,35.27-4.72,5.81-11.8,9.21-19.29,9.26h-.17"/><path id="Path_4228" class="cls-13" d="M541.22,297.46c9.3,8.68,23.76,8.59,32.94-.21-10.77-3.14-22.22-3.07-32.94,.21"/><path id="Path_4229" class="cls-10" d="M557.84,299h0c-2.09,.01-3.8-1.67-3.81-3.77h0l-.13-19.34,7.58-.05,.12,19.34c.01,2.09-1.67,3.8-3.76,3.82h0"/><path id="Path_4230" d="M572.41,282.83c-.52-6,2.11-9.77-3.87-16.52-6.19-6.99-11.43-2.24-11.43-2.24,0,0-4.42-3.62-10.14,4.05-5.05,6.77,1.51,12.77-.65,16.98s-9.58,6.55-9.58,6.55c0,0,2.41,4.75,5.38,6.83l31.35-.2s6.43-7.1,6.42-9.1c0,0-6.96-.34-7.47-6.34"/><path id="Path_4231" class="cls-31" d="M541.22,297.46c9.3,8.68,23.76,8.59,32.94-.21-10.77-3.14-22.22-3.07-32.94,.21"/><path id="Path_4232" d="M557.57,304.96c-6.34,0-12.44-2.4-17.07-6.73l-1.32-1.23,1.71-.54c10.93-3.35,22.59-3.42,33.56-.22l1.72,.52-1.3,1.24c-4.61,4.43-10.75,6.92-17.15,6.95h-.16m-14.21-7.04c8.42,6.65,20.33,6.58,28.66-.19-9.41-2.38-19.28-2.32-28.66,.19"/><path id="Path_4233" class="cls-10" d="M558.02,269.57h-.26l-7.66,7.81,.03,4.26c.02,2.74,1.49,5.27,3.86,6.64l.05,6.96c-.02,2.09,1.66,3.8,3.76,3.82s3.8-1.66,3.82-3.76c0-.04,0-.08,0-.11l-.04-6.83c2.48-1.37,4.02-3.98,4-6.82l-.03-4.55c-.03-4.12-3.39-7.44-7.51-7.42"/><path id="Path_4234" d="M557.82,300.05c-2.66,0-4.82-2.15-4.84-4.81l-.04-6.75c0-.58,.46-1.05,1.04-1.06h0c.57-.01,1.04,.44,1.06,1.01,0,.01,0,.02,0,.03l.04,6.74c-.02,1.51,1.2,2.75,2.71,2.77,1.51,.02,2.75-1.2,2.77-2.71,0-.03,0-.07,0-.1l-.04-6.63c0-.58,.46-1.05,1.04-1.06h0c.58,0,1.05,.47,1.05,1.04l.04,6.63c.01,2.67-2.14,4.85-4.81,4.87h-.03Z"/><path id="Path_4235" d="M557.89,290.37c-.58,0-1.05-.47-1.05-1.05,0-.58,.47-1.05,1.05-1.05h0c3.68-.03,6.65-3.03,6.62-6.72l-.03-4.55c-.01-3.38-2.66-6.17-6.03-6.36l-7.3,7.31,.02,3.69c.02,2.62,1.56,4.98,3.95,6.05,.53,.24,.77,.86,.53,1.39s-.86,.77-1.39,.53c-3.14-1.41-5.16-4.52-5.19-7.96l-.03-4.12c0-.28,.11-.55,.31-.75l7.93-7.94c.2-.2,.46-.31,.74-.31,.13,0,.25,0,.38,0,4.56,.16,8.17,3.9,8.19,8.45l.03,4.55c.03,4.84-3.87,8.8-8.71,8.83h0Z"/><path id="Path_4236" class="cls-2" d="M81.11,444.2l-.48-1.62c-.45-1.51-1.89-2.51-3.47-2.39l-2.6,.2c-1.28,.09-2.51-.56-3.15-1.67-.13-.23-.27-.46-.41-.68-.66-1.05-.7-2.37-.09-3.45l1.45-2.55c.76-1.34,.52-3.02-.59-4.08l-1.14-1.09c-1.16-1.11-2.93-1.25-4.25-.33l-2.13,1.49c-1.07,.74-2.47,.8-3.59,.15-.2-.11-.39-.22-.59-.32-1.11-.58-1.81-1.73-1.81-2.99v-2.92c.02-1.56-1.04-2.92-2.56-3.28l-1.43-.34c-1.55-.37-3.14,.4-3.82,1.84l-1.17,2.48c-.55,1.16-1.71,1.9-2.99,1.92-.21,0-.41,.01-.62,.02-1.28,.07-2.5-.6-3.13-1.72l-1.33-2.4c-.77-1.39-2.42-2.05-3.93-1.58l-1.4,.44c-1.49,.46-2.46,1.9-2.35,3.45l.21,2.91c.09,1.25-.53,2.45-1.61,3.11-.19,.12-.38,.24-.57,.36-1.08,.72-2.48,.75-3.59,.09l-2.22-1.34c-1.37-.83-3.14-.57-4.21,.62l-1.06,1.16c-1.03,1.14-1.16,2.83-.32,4.11l1.62,2.45c.68,1.04,.74,2.36,.15,3.46-.13,.23-.25,.47-.37,.71-.57,1.15-1.74,1.88-3.03,1.88l-2.62-.02c-1.58-.01-2.95,1.08-3.3,2.62l-.37,1.65c-.34,1.51,.4,3.05,1.78,3.74l2.49,1.24c1.12,.56,1.84,1.7,1.86,2.96,0,.29,.02,.57,.03,.86,.07,1.26-.57,2.45-1.65,3.09l-2.4,1.41c-1.34,.78-1.96,2.37-1.52,3.85l.48,1.62c.45,1.51,1.89,2.51,3.47,2.39l2.6-.2c1.28-.09,2.51,.56,3.15,1.67,.13,.23,.27,.46,.41,.68,.66,1.05,.7,2.37,.09,3.45l-1.45,2.55c-.76,1.34-.52,3.02,.59,4.08l1.14,1.09c1.16,1.11,2.93,1.25,4.25,.33l2.13-1.49c1.07-.74,2.47-.8,3.59-.15,.2,.11,.39,.22,.59,.32,1.11,.58,1.81,1.73,1.81,2.99v2.92c-.02,1.56,1.04,2.92,2.56,3.28l1.43,.34c1.55,.37,3.14-.4,3.82-1.84l1.17-2.49c.55-1.16,1.71-1.9,2.99-1.92,.21,0,.41-.01,.62-.02,1.28-.07,2.5,.6,3.13,1.72l1.33,2.4c.77,1.39,2.42,2.05,3.94,1.58l1.4-.44c1.49-.46,2.46-1.89,2.35-3.45l-.21-2.91c-.09-1.25,.53-2.45,1.61-3.11,.19-.12,.38-.24,.57-.36,1.08-.72,2.48-.75,3.59-.09l2.22,1.34c1.37,.83,3.14,.57,4.21-.62l1.06-1.17c1.03-1.14,1.16-2.83,.31-4.11l-1.62-2.45c-.68-1.04-.74-2.36-.14-3.46,.13-.23,.25-.47,.37-.71,.57-1.15,1.74-1.88,3.03-1.88l2.62,.02c1.58,.01,2.95-1.08,3.3-2.62l.37-1.65c.34-1.51-.4-3.05-1.78-3.74l-2.49-1.24c-1.12-.56-1.84-1.7-1.86-2.95,0-.29-.02-.57-.03-.86-.07-1.26,.57-2.45,1.65-3.09l2.4-1.4c1.34-.78,1.97-2.37,1.53-3.86Zm-28.99,27.08c-9.3,2.81-19.11-2.45-21.92-11.74-.03-.11-.06-.22-.1-.33-2.9-9.47,2.3-19.51,11.71-22.6,9.3-2.81,19.11,2.45,21.92,11.74,.03,.11,.06,.22,.1,.33,2.9,9.47-2.3,19.51-11.71,22.6Z"/><path id="Path_4237" class="cls-25" d="M107.73,444.89c-.1,0-.21,0-.31,0l-2.89-.17c-2.39-.14-4.36-1.91-4.75-4.26l-.8-4.71c-.2-1.14-1.02-2.06-2.13-2.4-.49-.15-.98-.32-1.46-.49-1.12-.42-2.38-.15-3.23,.68l-3.09,3.08c-1.74,1.73-4.45,1.99-6.49,.63l-2.52-1.69c-1.95-1.31-2.77-3.78-1.97-5.99l1.61-4.5c.37-1.07,.12-2.27-.65-3.1-.38-.42-.76-.85-1.13-1.29-.75-.92-1.96-1.32-3.11-1.03l-4.23,1.08c-2.34,.58-4.77-.53-5.86-2.68l-1.42-2.85c-1.06-2.12-.54-4.68,1.27-6.21l3.5-2.97c.88-.75,1.26-1.93,.98-3.05-.14-.58-.26-1.17-.38-1.76-.2-1.13-1.03-2.06-2.13-2.39l-4.39-1.29c-2.27-.67-3.79-2.8-3.68-5.17l.15-3.18c.12-2.41,1.9-4.41,4.28-4.82l4.32-.73c1.16-.2,2.1-1.06,2.42-2.19,.16-.55,.33-1.09,.51-1.63,.37-1.08,.12-2.27-.66-3.1l-3.3-3.48c-1.62-1.7-1.87-4.29-.62-6.28l1.62-2.57c1.31-2.07,3.9-2.92,6.19-2.05l4.06,1.56c1.12,.42,2.38,.16,3.23-.68,.37-.36,.76-.7,1.14-1.05,.88-.75,1.26-1.93,.98-3.06l-1.17-4.63c-.59-2.31,.5-4.73,2.62-5.82l2.57-1.33c2.17-1.11,4.81-.56,6.35,1.33l2.86,3.54c.75,.92,1.96,1.32,3.11,1.03,.48-.11,.96-.21,1.44-.31,1.16-.21,2.1-1.06,2.42-2.2l1.19-4.4c.64-2.34,2.84-3.92,5.27-3.78l2.89,.17c2.39,.14,4.36,1.91,4.75,4.26l.8,4.71c.2,1.14,1.02,2.06,2.13,2.4,.49,.16,.98,.32,1.46,.49,1.12,.42,2.38,.16,3.23-.68l3.09-3.08c1.74-1.73,4.45-1.99,6.49-.63l2.52,1.69c1.95,1.31,2.77,3.78,1.98,5.99l-1.61,4.5c-.38,1.07-.12,2.27,.65,3.1,.38,.42,.76,.85,1.13,1.29,.75,.92,1.96,1.32,3.11,1.03l4.23-1.08c2.34-.58,4.77,.53,5.86,2.68l1.42,2.85c1.06,2.12,.53,4.68-1.27,6.21l-3.5,2.97c-.88,.75-1.26,1.93-.98,3.05,.14,.58,.26,1.17,.37,1.76,.2,1.13,1.03,2.06,2.13,2.39l4.39,1.29c2.27,.67,3.79,2.8,3.68,5.17l-.15,3.18c-.12,2.41-1.9,4.41-4.28,4.82l-4.32,.73c-1.16,.2-2.11,1.06-2.42,2.2-.16,.55-.33,1.09-.51,1.63-.37,1.08-.12,2.27,.66,3.1l3.3,3.48c1.62,1.7,1.88,4.29,.62,6.28l-1.62,2.57c-1.31,2.07-3.9,2.92-6.19,2.05l-4.05-1.56c-1.12-.42-2.38-.16-3.23,.68-.37,.36-.76,.7-1.15,1.05-.88,.75-1.26,1.93-.98,3.06l1.17,4.63c.59,2.31-.5,4.73-2.62,5.82l-2.57,1.33c-2.17,1.11-4.81,.56-6.35-1.33l-2.87-3.53c-.75-.92-1.96-1.32-3.11-1.03-.48,.11-.96,.21-1.44,.31-1.16,.21-2.1,1.06-2.42,2.2l-1.19,4.4c-.61,2.23-2.64,3.79-4.96,3.79m-13.41-14.33c.61,0,1.21,.11,1.79,.31,.46,.16,.92,.32,1.39,.47,1.85,.57,3.23,2.13,3.56,4.04l.8,4.71c.23,1.39,1.4,2.44,2.81,2.52l2.88,.17c1.44,.08,2.73-.85,3.11-2.24l1.19-4.4c.52-1.91,2.09-3.35,4.04-3.71,.45-.09,.91-.19,1.36-.29,1.93-.47,3.96,.21,5.22,1.75l2.87,3.54c.91,1.11,2.47,1.44,3.75,.79l2.57-1.33c1.26-.64,1.9-2.07,1.55-3.44l-1.17-4.63c-.47-1.89,.16-3.88,1.63-5.15,.37-.32,.73-.65,1.09-.99,1.44-1.4,3.56-1.83,5.43-1.11l4.05,1.56c1.35,.52,2.88,.01,3.66-1.21l1.62-2.57c.74-1.17,.59-2.7-.37-3.71l-3.3-3.47c-1.32-1.4-1.75-3.41-1.12-5.22,.17-.51,.34-1.03,.49-1.55,.54-1.91,2.13-3.34,4.09-3.67l4.32-.73c1.4-.24,2.45-1.43,2.53-2.85l.15-3.18c.07-1.4-.83-2.66-2.17-3.05l-4.39-1.29c-1.86-.55-3.25-2.1-3.6-4.01-.11-.56-.23-1.11-.36-1.67-.46-1.89,.18-3.88,1.66-5.14l3.5-2.97c1.07-.9,1.38-2.42,.75-3.67l-1.42-2.85c-.64-1.27-2.08-1.93-3.46-1.59l-4.23,1.08c-1.93,.49-3.97-.18-5.23-1.72-.35-.42-.71-.82-1.07-1.22-1.3-1.41-1.72-3.42-1.08-5.22l1.61-4.5c.47-1.31-.01-2.77-1.17-3.54l-2.52-1.69c-1.2-.8-2.81-.65-3.84,.37l-3.09,3.08c-1.43,1.4-3.54,1.86-5.42,1.17-.46-.17-.92-.32-1.38-.47-1.85-.57-3.23-2.14-3.56-4.05l-.8-4.71c-.23-1.39-1.4-2.44-2.81-2.52l-2.88-.17c-1.44-.09-2.74,.85-3.11,2.24l-1.19,4.39c-.52,1.91-2.1,3.35-4.04,3.71-.45,.09-.91,.18-1.36,.29-1.93,.47-3.96-.21-5.22-1.75l-2.86-3.54c-.91-1.12-2.47-1.44-3.75-.79l-2.57,1.33c-1.26,.64-1.9,2.07-1.55,3.44l1.17,4.63c.47,1.89-.16,3.88-1.63,5.15-.37,.32-.73,.65-1.09,.99-1.45,1.38-3.56,1.82-5.43,1.11l-4.06-1.57c-1.35-.52-2.88-.01-3.66,1.21l-1.62,2.57c-.74,1.17-.59,2.7,.36,3.71l3.3,3.48c1.32,1.4,1.75,3.41,1.12,5.22-.17,.51-.33,1.03-.49,1.55-.54,1.91-2.13,3.34-4.09,3.67l-4.32,.73c-1.4,.24-2.45,1.43-2.53,2.85l-.15,3.18c-.07,1.4,.83,2.66,2.17,3.05l4.39,1.29c1.86,.55,3.25,2.1,3.6,4.01,.11,.56,.23,1.11,.36,1.67,.46,1.89-.18,3.88-1.67,5.14l-3.5,2.97c-1.07,.9-1.38,2.42-.75,3.67l1.42,2.85c.64,1.27,2.08,1.93,3.46,1.59l4.23-1.08c1.93-.49,3.97,.18,5.23,1.72,.35,.42,.71,.82,1.07,1.22,1.3,1.41,1.71,3.42,1.08,5.22l-1.61,4.5c-.47,1.31,.01,2.77,1.17,3.54l2.52,1.69c1.2,.8,2.81,.65,3.83-.37l3.09-3.08c.97-.96,2.28-1.49,3.64-1.48m14.41-10.84c-2.64,0-5.26-.42-7.76-1.24-6.6-2.16-12.04-6.89-15.1-13.12-6.4-12.81-1.48-28.46,10.96-34.88,5.9-3.07,12.79-3.62,19.1-1.53,6.6,2.16,12.04,6.89,15.1,13.12,6.4,12.81,1.48,28.46-10.96,34.88-3.5,1.82-7.39,2.77-11.34,2.77m-.56-49.91c-3.61,0-7.17,.87-10.37,2.54-11.42,5.9-15.93,20.29-10.04,32.08,2.81,5.72,7.81,10.07,13.87,12.06,5.78,1.91,12.08,1.41,17.48-1.4,11.42-5.9,15.93-20.29,10.04-32.08-2.81-5.73-7.81-10.07-13.87-12.06-2.29-.75-4.69-1.14-7.1-1.14"/><path id="Path_4238" class="cls-10" d="M1.65,134.18c0-9.15,7.25-16.66,16.39-16.97,5.56-24,29.53-38.95,53.54-33.38,17.35,4.02,30.64,17.97,33.82,35.49,8.87,.91,15.61,8.38,15.61,17.3v.12c-.06,5.89-4.86,10.63-10.75,10.62H14.88c-7.13,.03-12.99-5.61-13.22-12.73,0-.15,0-.29,0-.44"/><path id="Path_4239" class="cls-25" d="M110.25,148.4H14.88c-7.68,0-13.99-6.08-14.27-13.75,0-.16,0-.31,0-.47-.04-9.42,7.21-17.27,16.6-17.98,6.12-24.47,30.91-39.34,55.38-33.22,17.13,4.28,30.26,18.06,33.71,35.38,9.07,1.3,15.8,9.08,15.77,18.24v.13c-.08,6.46-5.34,11.66-11.8,11.66M61.5,83.72c-20.3-.09-37.94,13.93-42.44,33.72-.11,.46-.51,.8-.99,.81-8.59,.26-15.41,7.32-15.38,15.92,0,.14,0,.28,0,.41,.25,6.54,5.63,11.71,12.18,11.71H110.26c5.31,0,9.63-4.27,9.7-9.57v-.12c.03-8.39-6.32-15.42-14.66-16.25-.47-.05-.84-.4-.93-.86-3.73-20.73-21.79-35.81-42.86-35.78"/><path id="Path_4240" class="cls-24" d="M60.19,111.34l-10.72-11.11-10.72,11.11h3.9v18.53c0,3.11,2.52,5.63,5.63,5.63h2.39c3.11,0,5.63-2.52,5.63-5.63h0v-18.53h3.9Z"/><path id="Path_4241" class="cls-24" d="M82.78,124.38l-10.72,11.11-10.72-11.11h3.9v-18.53c0-3.11,2.52-5.63,5.63-5.63h2.39c3.11,0,5.63,2.52,5.63,5.63h0v18.53h3.9Z"/><path id="Path_4242" class="cls-25" d="M258.52,159.89c-.37,0-.71-.19-.9-.5l-27.41-44.59c-.3-.49-.15-1.14,.34-1.44,.49-.3,1.14-.15,1.44,.34l27.41,44.59c.3,.49,.15,1.14-.34,1.44-.17,.1-.35,.16-.55,.16"/><path id="Path_4243" class="cls-25" d="M186.9,241.84c-.07,0-.14,0-.21-.02l-63.24-12.9c-.57-.1-.95-.65-.85-1.22,.1-.57,.65-.95,1.22-.85h.05l63.24,12.91c.57,.12,.94,.67,.82,1.24-.1,.49-.53,.84-1.03,.84"/><path id="Path_4244" class="cls-25" d="M165.7,362.76c-.58,0-1.05-.47-1.05-1.05,0-.38,.2-.72,.53-.91l58.72-33.83c.5-.29,1.14-.12,1.43,.39s.12,1.14-.39,1.43h0l-58.73,33.83c-.16,.09-.34,.14-.52,.14"/><path id="Path_4245" class="cls-25" d="M489.99,429.23c-.27,0-.54-.11-.73-.3l-128.29-124.15c-.42-.4-.45-1.06-.05-1.48s1.06-.45,1.48-.05l.03,.02,128.29,124.16c.41,.41,.42,1.07,.02,1.48-.2,.2-.46,.31-.75,.32"/><path id="Path_4246" class="cls-25" d="M380.38,232.99c-.58,0-1.05-.47-1.05-1.05,0-.33,.16-.64,.42-.84l62.3-46.44c.47-.35,1.12-.25,1.47,.21,.35,.47,.25,1.12-.21,1.47h0l-62.29,46.44c-.18,.14-.4,.21-.63,.21"/><path id="Path_4247" class="cls-25" d="M370.35,231.01c-.12,0-.25-.02-.37-.07-.54-.2-.82-.81-.62-1.35l5.32-14.29c.2-.54,.81-.82,1.35-.62,.54,.2,.82,.81,.62,1.35h0l-5.32,14.29c-.15,.41-.55,.68-.98,.68"/><path id="Path_4248" class="cls-25" d="M379.62,243.63c-.58,0-1.05-.47-1.05-1.05,0-.51,.37-.95,.87-1.04l38.92-6.84c.57-.11,1.12,.26,1.23,.83s-.26,1.12-.83,1.23h-.04l-38.92,6.85c-.06,.01-.12,.02-.18,.02"/><path id="Path_4249" class="cls-25" d="M343.74,222.83c-.12,0-.23-.02-.34-.06-.55-.19-.84-.79-.65-1.34l2.75-7.94c.19-.55,.79-.84,1.34-.65,.55,.19,.84,.79,.65,1.34h0l-2.75,7.94c-.15,.42-.54,.71-.99,.71m5.5-15.88c-.58,0-1.05-.47-1.05-1.05,0-.12,.02-.23,.06-.34l2.75-7.94c.19-.55,.79-.84,1.34-.65,.55,.19,.84,.79,.65,1.34l-2.75,7.94c-.15,.42-.54,.71-.99,.71m5.5-15.87c-.12,0-.23-.02-.34-.06-.55-.19-.84-.79-.65-1.34l2.75-7.94c.19-.55,.79-.84,1.34-.65,.55,.19,.84,.79,.65,1.34l-2.75,7.94c-.15,.42-.54,.71-.99,.71m5.5-15.87c-.12,0-.23-.02-.34-.06-.55-.19-.84-.79-.65-1.34h0l2.75-7.94c.19-.55,.79-.84,1.34-.65,.55,.19,.84,.79,.65,1.34l-2.75,7.94c-.15,.42-.54,.71-.99,.71m5.5-15.87c-.12,0-.23-.02-.34-.06-.55-.19-.84-.79-.65-1.34h0l2.75-7.94c.19-.55,.79-.84,1.34-.65,.55,.19,.84,.79,.65,1.34l-2.75,7.94c-.15,.42-.54,.71-.99,.71m5.5-15.88c-.12,0-.23-.02-.34-.06-.55-.19-.84-.79-.65-1.34h0l2.75-7.94c.19-.55,.79-.84,1.34-.65,.55,.19,.84,.79,.65,1.34l-2.75,7.94c-.15,.42-.54,.71-.99,.71m5.5-15.87c-.12,0-.23-.02-.34-.06-.55-.19-.84-.79-.65-1.34l2.75-7.94c.19-.55,.79-.84,1.34-.65,.55,.19,.84,.79,.65,1.34l-2.75,7.94c-.15,.42-.55,.71-.99,.71m5.5-15.88c-.58,0-1.05-.47-1.05-1.05,0-.12,.02-.23,.06-.34l2.75-7.94c.19-.55,.79-.84,1.34-.65,.55,.19,.84,.79,.65,1.34l-2.75,7.94c-.15,.42-.55,.71-.99,.71m5.5-15.87c-.12,0-.23-.02-.34-.06-.55-.19-.84-.79-.65-1.34l2.75-7.94c.19-.55,.79-.84,1.34-.65s.84,.79,.65,1.34l-2.75,7.94c-.15,.42-.55,.71-.99,.71m5.5-15.87c-.12,0-.23-.02-.34-.06-.55-.19-.84-.79-.65-1.33h0l2.75-7.94c.19-.55,.79-.84,1.34-.65s.84,.79,.65,1.34l-2.75,7.94c-.15,.42-.54,.71-.99,.71"/><path id="Path_4250" class="cls-25" d="M189.97,195.56c-.19,0-.37-.05-.53-.14l-7.26-4.23c-.51-.28-.69-.92-.41-1.43s.92-.69,1.43-.41l.04,.02,7.26,4.23c.5,.29,.67,.94,.38,1.44-.19,.32-.53,.52-.91,.52m-14.52-8.46c-.19,0-.37-.05-.53-.14l-7.26-4.23c-.51-.28-.69-.92-.41-1.43,.28-.51,.92-.69,1.43-.41l.04,.02,7.26,4.23c.5,.29,.67,.94,.38,1.44-.19,.32-.53,.52-.91,.52m-14.52-8.46c-.19,0-.37-.05-.53-.14l-7.26-4.23c-.5-.29-.68-.93-.4-1.43,.29-.5,.93-.68,1.43-.4h.02l7.26,4.24c.5,.29,.67,.93,.38,1.44-.19,.32-.53,.52-.91,.52m-14.52-8.46c-.19,0-.37-.05-.53-.14l-7.26-4.23c-.51-.28-.69-.92-.41-1.43,.28-.51,.92-.69,1.43-.41l.04,.02,7.26,4.23c.5,.29,.67,.94,.38,1.44-.19,.32-.53,.52-.91,.52m-14.52-8.46c-.19,0-.37-.05-.53-.14l-7.26-4.23c-.5-.29-.68-.93-.4-1.43,.29-.5,.93-.68,1.43-.4h.02l7.26,4.24c.5,.29,.67,.94,.38,1.44-.19,.32-.53,.52-.91,.52"/><path id="Path_4251" class="cls-25" d="M73.85,311.38c-.58,0-1.05-.47-1.05-1.05,0-.51,.37-.95,.87-1.03,2.61-.44,5.38-.91,8.29-1.4,.57-.1,1.11,.29,1.21,.86,.1,.57-.29,1.11-.86,1.21h0c-2.91,.49-5.67,.96-8.29,1.4-.06,0-.12,.01-.18,.02m16.58-2.79c-.58,0-1.05-.47-1.05-1.05,0-.51,.37-.94,.87-1.03l8.29-1.38c.57-.08,1.11,.32,1.19,.89,.08,.55-.29,1.07-.84,1.18l-8.29,1.38c-.06,0-.12,.01-.17,.01m16.58-2.76c-.58,0-1.05-.47-1.05-1.05,0-.51,.37-.95,.88-1.04l8.29-1.37c.57-.09,1.11,.29,1.21,.86,.09,.57-.29,1.11-.87,1.21h0l-8.29,1.37c-.06,0-.12,.01-.17,.02m16.58-2.74c-.58,0-1.05-.47-1.05-1.05,0-.51,.37-.95,.88-1.03l8.29-1.37c.57-.09,1.11,.29,1.21,.86,.09,.57-.29,1.11-.87,1.21h0l-8.29,1.37c-.06,0-.11,.01-.17,.01m16.58-2.73c-.58,0-1.05-.47-1.05-1.05,0-.52,.37-.96,.89-1.04l8.29-1.36c.57-.08,1.11,.31,1.19,.89,.08,.56-.29,1.08-.85,1.19l-8.29,1.36c-.06,0-.11,.01-.17,.01m16.58-2.72c-.58,0-1.05-.47-1.05-1.05,0-.52,.37-.96,.89-1.04l8.29-1.36c.57-.1,1.12,.28,1.22,.85,.1,.57-.28,1.12-.85,1.22h-.03l-8.29,1.36c-.06,0-.11,.01-.17,.01m16.58-2.71c-.58,0-1.05-.47-1.05-1.05,0-.52,.37-.96,.89-1.04l8.29-1.35c.57-.09,1.11,.29,1.21,.87,.09,.57-.29,1.11-.87,1.21l-8.29,1.35c-.06,0-.11,.01-.17,.01m16.59-2.71c-.58,0-1.05-.47-1.05-1.05,0-.52,.37-.96,.89-1.04l8.29-1.35c.57-.09,1.11,.3,1.21,.87,.09,.57-.3,1.11-.87,1.21l-8.29,1.35c-.06,0-.11,.01-.17,.01"/><path id="Path_4252" class="cls-25" d="M431.87,287.18c-.06,0-.11,0-.16-.01l-8.3-1.31c-.57-.08-.97-.61-.89-1.19s.61-.97,1.19-.89h.03l8.3,1.31c.57,.09,.96,.63,.87,1.2-.08,.51-.52,.88-1.03,.89m-16.6-2.62c-.06,0-.11,0-.16-.01l-8.3-1.31c-.57-.09-.96-.63-.87-1.2,.09-.57,.63-.96,1.2-.87l8.3,1.31c.57,.09,.96,.63,.87,1.2-.08,.51-.52,.88-1.03,.89m-16.59-2.62c-.06,0-.11,0-.16-.01l-8.3-1.31c-.57-.1-.95-.64-.86-1.21,.1-.56,.62-.94,1.18-.86l8.3,1.31c.57,.09,.96,.63,.87,1.2-.08,.51-.52,.88-1.03,.89"/><path id="Path_4253" class="cls-10" d="M155.29,465.06c.04-16.31,13.23-29.54,29.54-29.63,16.18-.09,29.37,12.95,29.47,29.13,0,.08,0,.16,0,.24-.04,16.32-13.23,29.55-29.55,29.63-16.18,.09-29.37-12.95-29.47-29.13,0-.08,0-.16,0-.24"/><path id="Path_4254" class="cls-25" d="M184.63,495.49c-16.76,.02-30.36-13.56-30.38-30.32,0-.04,0-.07,0-.11,.06-16.88,13.71-30.57,30.59-30.68h.14c16.76-.02,30.37,13.56,30.38,30.32,0,.04,0,.07,0,.11-.06,16.88-13.71,30.57-30.59,30.68h-.14m.35-59.01h-.13c-15.73,.1-28.44,12.85-28.5,28.59-.04,15.6,12.58,28.28,28.18,28.32,.03,0,.07,0,.1,0h.13c15.73-.1,28.44-12.85,28.5-28.58,.04-15.6-12.58-28.28-28.18-28.32-.03,0-.07,0-.1,0"/><path id="Path_4255" class="cls-11" d="M175.31,448.53h25c.86,0,1.55,.68,1.56,1.54h0v29.7c0,.86-.7,1.55-1.56,1.55h-25c-.86,0-1.55-.69-1.56-1.55v-29.69c0-.86,.69-1.55,1.55-1.55h0"/><path id="Path_4256" class="cls-19" d="M201.86,450.08c0-.41-.16-.81-.46-1.09-.29-.29-.69-.46-1.1-.46h-25c-.41,0-.81,.16-1.1,.46-.29,.29-.46,.68-.46,1.09v29.69c0,.86,.7,1.55,1.56,1.55h18.36v-24.6h8.19v-6.64Z"/><path id="Path_4257" class="cls-32" d="M193.67,473.13h8.19v6.65c0,.86-.69,1.55-1.55,1.55h-6.66l.02-8.2Z"/><rect id="Rectangle_568" class="cls-14" x="193.67" y="464.93" width="8.2" height="8.2"/><rect id="Rectangle_569" class="cls-15" x="193.67" y="456.72" width="8.2" height="8.2"/><g id="Group_465" class="cls-127" transform="translate(173.567 454.69)"><g id="Group_464"><g class="cls-36"><g id="Group_463"><g id="Group_414" class="cls-4" transform="translate(1.407 0.542)"><g id="Group_413"><g class="cls-42"><g id="Group_412"><path id="Path_4258" d="M183.71,455.23h-8.15c-.32,0-.58,.25-.59,.57h0v18.25c0,.33,.26,.59,.59,.59h8.15c.64,0,1.16-.52,1.17-1.16v-17.11c-.01-.64-.53-1.15-1.17-1.14"/></g></g></g></g><g id="Group_417" class="cls-5" transform="translate(0.181 3.611)"><g id="Group_416"><g class="cls-41"><g id="Group_415"><path id="Path_4259" d="M181.55,458.3h-7.8v18.8h7.8c.85,.02,1.55-.65,1.57-1.5v-15.8c-.02-.85-.72-1.52-1.57-1.5"/></g></g></g></g><g id="Group_420" class="cls-125" transform="translate(0.181 2.528)"><g id="Group_419"><g class="cls-39"><g id="Group_418"><path id="Path_4260" d="M181.55,457.22h-7.8v18.8h7.8c.85,.02,1.55-.66,1.57-1.51h0v-15.79c-.02-.85-.72-1.52-1.57-1.5"/></g></g></g></g><g id="Group_423" class="cls-5" transform="translate(0.942 0.894)"><g id="Group_422"><g class="cls-40"><g id="Group_421"><path id="Path_4261" d="M183.25,455.58h-8.15c-.33,0-.59,.26-.59,.59v18.21c0,.33,.26,.59,.59,.59h8.15c.64-.01,1.16-.54,1.16-1.18v-17.02c.01-.65-.5-1.18-1.15-1.19h-.01Z"/></g></g></g></g><g id="Group_426" class="cls-5" transform="translate(0.922 1.388)"><g id="Group_425"><g class="cls-43"><g id="Group_424"><path id="Path_4262" d="M183.23,456.08h-8.15c-.32,0-.58,.26-.58,.58h0v18.06c0,.32,.25,.58,.57,.59h0l8.03,.13c.7-.05,1.25-.61,1.3-1.31v-16.85c.01-.63-.5-1.16-1.13-1.17h-.02l-.03-.03Z"/></g></g></g></g><g id="Group_429" class="cls-129" transform="translate(0.076)"><g id="Group_428"><g class="cls-117"><g id="Group_427"><path id="Path_4263" d="M181.91,454.69h-8.15v15.32h-.11v2.4c0,.33,.26,.59,.59,.59l6.52-1.19c.65,0,2.39-.56,2.39-1.21v-14.75c0-.65-.55-1.18-1.2-1.17h-.03Z"/></g></g></g></g><g id="Group_432" class="cls-125" transform="translate(0.181 3.051)"><g id="Group_431"><g class="cls-122"><g id="Group_430"><path id="Path_4264" d="M181.55,457.74h-7.8v18.8h7.8c.85,.01,1.55-.66,1.57-1.51v-15.81c-.03-.84-.73-1.5-1.57-1.48"/></g></g></g></g><g id="Group_435" class="cls-126" transform="translate(0.181 1.397)"><g id="Group_434"><g class="cls-116"><g id="Group_433"><path id="Path_4265" d="M181.55,456.09h-7.8v18.41h7.8c.85,.01,1.55-.66,1.57-1.51v-15.4c-.02-.85-.72-1.52-1.57-1.5"/></g></g></g></g><g id="Group_438" class="cls-126" transform="translate(0.181 1.397)"><g id="Group_437"><g class="cls-115"><g id="Group_436"><path id="Path_4266" d="M181.55,456.09h-7.8v18.3h7.8c.85,.01,1.55-.66,1.57-1.51v-15.3c-.03-.84-.73-1.5-1.57-1.48"/></g></g></g></g><g id="Group_441" class="cls-126" transform="translate(0.181 1.768)"><g id="Group_440"><g class="cls-114"><g id="Group_439"><path id="Path_4267" d="M181.55,456.46h-7.8v18.81h7.8c.85,.01,1.55-.66,1.57-1.51v-15.78c-.02-.85-.72-1.53-1.57-1.52Z"/></g></g></g></g><g id="Group_444" class="cls-125" transform="translate(0.181 2.129)"><g id="Group_443"><g class="cls-118"><g id="Group_442"><path id="Path_4268" d="M181.55,456.82h-7.8v18.8h7.8c.85,.02,1.55-.66,1.57-1.51h0v-15.79c-.02-.85-.72-1.52-1.57-1.5"/></g></g></g></g><g id="Group_447" class="cls-5" transform="translate(0.732 1.92)"><g id="Group_446"><g class="cls-120"><g id="Group_445"><path id="Path_4269" d="M183.03,456.61h-8.15c-.33,0-.59,.26-.59,.59v17.11c0,.33,.26,.59,.59,.59h8.15c.65,0,1.17-.53,1.17-1.18v-15.93c0-.65-.52-1.17-1.17-1.18Z"/></g></g></g></g><g id="Group_450" class="cls-125" transform="translate(0.19 1.91)"><g id="Group_449"><g class="cls-119"><g id="Group_448"><path id="Path_4270" d="M182.13,456.61h-8.15c-.08-.01-.15-.01-.23,0v17.83c.08,.01,.15,.01,.23,0h8.15c.63,.03,1.17-.45,1.22-1.07v-15.58c0-.65-.53-1.18-1.18-1.18h-.04Z"/></g></g></g></g><g id="Group_453" class="cls-126" transform="translate(0 0.913)"><g id="Group_452"><g class="cls-123"><g id="Group_451"><path id="Path_4271" d="M180.08,455.6h-5.92c-.33,0-.59,.26-.59,.59v17.11c0,.32,.26,.58,.58,.58h8.16c.64,0,1.16-.52,1.17-1.16v-15.44c0-.69-1.59-1.08-1.76-1.27-.5-.27-1.07-.41-1.63-.4"/></g></g></g></g><g id="Group_456" class="cls-5" transform="translate(0.342 2.776)"><g id="Group_455"><g class="cls-121"><g id="Group_454"><path id="Path_4272" d="M182.64,457.47h-8.15c-.31-.01-.58,.24-.59,.55h0v17.13c0,.33,.26,.59,.59,.59h8.15c.65,0,1.17-.52,1.17-1.17h0v-15.94c0-.64-.52-1.16-1.16-1.16h-.01"/></g></g></g></g><g id="Group_459" class="cls-5" transform="translate(0.076 0.333)"><g id="Group_458"><g class="cls-46"><g id="Group_457"><path id="Path_4273" d="M181.91,455.02h-8.15v15.31h-.11v2.4c0,.32,.26,.58,.58,.58h0l6.52-1.19c.65,0,2.39-.56,2.39-1.21v-14.72c0-.65-.53-1.18-1.18-1.18h-.05Z"/></g></g></g></g><g id="Group_462" class="cls-124" transform="translate(0.076 0.628)"><g id="Group_461"><g class="cls-47"><g id="Group_460"><path id="Path_4274" d="M181.91,455.32h-8.15v15.31h-.11v2.4c0,.33,.26,.59,.59,.59l6.52-1.19c.65,0,2.39-.56,2.39-1.21v-14.74c0-.65-.53-1.17-1.18-1.17h-.05Z"/></g></g></g></g></g></g></g></g><path id="Path_4275" class="cls-32" d="M165.94,455.55h15.62c.86,0,1.56,.7,1.57,1.56v15.62c0,.86-.71,1.56-1.57,1.56h-15.62c-.86,.02-1.58-.66-1.6-1.52h0v-15.67c0-.86,.7-1.56,1.56-1.56h.04"/><path id="Path_4276" class="cls-10" d="M169.09,459.08h2.47l4.27,7.87c.22,.33,.39,.61,.5,.81-.06-.51-.08-1.02-.08-1.54v-7.14h2.13v11.68h-2.3l-4.46-7.78c-.17-.26-.32-.53-.45-.81,.06,.56,.08,1.13,.07,1.69v6.84h-2.16v-11.62Z"/><path id="Path_4277" class="cls-28" d="M335.33,44.98h-8.96c-.95,0-.73,.81-.73,1.76v8.71c0,3.15,2.55,5.7,5.7,5.7s5.7-2.55,5.7-5.7v-8.72c.02-.95-.75-1.74-1.7-1.76h-.02Z"/><path id="Path_4278" class="cls-28" d="M331.32,35.54c2.16-.05,3.94,1.66,3.99,3.82s-1.66,3.94-3.82,3.99-3.94-1.66-3.99-3.82c0-.03,0-.06,0-.09-.02-2.13,1.69-3.88,3.82-3.91"/><path id="Path_4279" class="cls-34" d="M312.03,44.98h14.89c.96,.01,1.73,.8,1.72,1.76h0v10.67c.11,5.06-3.91,9.25-8.97,9.36-5.06,.11-9.25-3.91-9.36-8.97,0-.13,0-.26,0-.38v-10.67c-.02-.95,.75-1.74,1.7-1.76h.02Z"/><path id="Path_4280" class="cls-34" d="M319.48,32.42c3.02-.06,5.52,2.33,5.58,5.35s-2.33,5.52-5.35,5.58-5.52-2.33-5.58-5.35c0-.04,0-.08,0-.11-.03-2.99,2.37-5.43,5.35-5.47"/><g id="Group_561" class="cls-127" transform="translate(310.312 39.357)"><g id="Group_560"><g class="cls-50"><g id="Group_559"><g id="Group_468" class="cls-5" transform="translate(0 5.627)"><g id="Group_467"><g class="cls-49"><g id="Group_466"><path id="Path_4281" d="M312.03,44.98c-.96,0-1.73,.78-1.72,1.74h0v10.67c0,1.52,.35,3.02,1.05,4.36h5.81c.84,.01,1.53-.66,1.54-1.5v-15.28h-6.68Z"/></g></g></g></g><g id="Group_471" class="cls-125" transform="translate(0 5.627)"><g id="Group_470"><g class="cls-48"><g id="Group_469"><path id="Path_4282" d="M312.03,44.98c-.96,0-1.73,.78-1.72,1.74h0v10.67c0,1.11,.2,2.22,.58,3.26h6.28c.84,.01,1.53-.66,1.54-1.5v-14.17h-6.68Z"/></g></g></g></g><g id="Group_474" class="cls-125" transform="translate(5.55 2.528)"><g id="Group_473"><g class="cls-51"><g id="Group_472"><path id="Path_4283" d="M318.69,43.26c-.07-.78-.73-1.38-1.51-1.38h-1.31c.78,.74,1.76,1.22,2.82,1.38"/></g></g></g></g><g id="Group_477" class="cls-5" transform="translate(0 5.627)"><g id="Group_476"><g class="cls-74"><g id="Group_475"><path id="Path_4284" d="M312.03,44.98c-.96,0-1.73,.78-1.72,1.74h0v10.67c0,.77,.09,1.53,.27,2.27h8.25c.64-.01,1.15-.54,1.14-1.18h0v-13.51h-7.94Z"/></g></g></g></g><g id="Group_480" class="cls-5" transform="translate(4.363 0.893)"><g id="Group_479"><g class="cls-72"><g id="Group_478"><path id="Path_4285" d="M314.68,40.25c.85,1.86,2.7,3.06,4.75,3.09,.17,0,.34,0,.5-.05v-1.85c0-.64-.5-1.16-1.14-1.17l-4.11-.02Z"/></g></g></g></g><g id="Group_483" class="cls-5" transform="translate(4.629 1.387)"><g id="Group_482"><g class="cls-73"><g id="Group_481"><path id="Path_4286" d="M314.94,40.74c.95,1.61,2.67,2.59,4.53,2.6,.17,0,.33,0,.49-.05v-1.35c0-.64-.5-1.16-1.14-1.17h-3.89v-.03Z"/></g></g></g></g><g id="Group_486" class="cls-5" transform="translate(0 5.588)"><g id="Group_485"><g class="cls-75"><g id="Group_484"><path id="Path_4287" d="M312.03,44.98c-.96,0-1.73,.78-1.72,1.74h0v10.67c0,.88,.12,1.75,.35,2.6l8.02,.1c.69-.06,1.24-.61,1.28-1.3v-13.85l-7.93,.04Z"/></g></g></g></g><g id="Group_489" class="cls-129" transform="translate(4.039)"><g id="Group_488"><g class="cls-83"><g id="Group_487"><path id="Path_4288" d="M318.68,43.26v-2.74c0-.64-.51-1.16-1.15-1.17h-3.18c.54,2.04,2.24,3.57,4.33,3.91"/></g></g></g></g><g id="Group_492" class="cls-129" transform="translate(0 5.627)"><g id="Group_491"><g class="cls-85"><g id="Group_490"><path id="Path_4289" d="M312.03,44.98c-.96,0-1.73,.78-1.72,1.74h0v10.62l6.04-.82c.64,0,2.33-.56,2.33-1.21v-10.33h-6.64Z"/></g></g></g></g><g id="Group_495" class="cls-125" transform="translate(0 5.627)"><g id="Group_494"><g class="cls-82"><g id="Group_493"><path id="Path_4290" d="M312.03,44.98c-.96,0-1.73,.78-1.72,1.74h0v10.67c0,1.31,.28,2.6,.81,3.8h6.08c.84,0,1.52-.67,1.53-1.51h0v-14.7h-6.7Z"/></g></g></g></g><g id="Group_498" class="cls-125" transform="translate(6.169 3.07)"><g id="Group_497"><g class="cls-81"><g id="Group_496"><path id="Path_4291" d="M318.54,43.24c-.27-.5-.8-.82-1.37-.82h-.69c.62,.42,1.32,.7,2.06,.82"/></g></g></g></g><g id="Group_501" class="cls-126" transform="translate(0 5.627)"><g id="Group_500"><g class="cls-76"><g id="Group_499"><path id="Path_4292" d="M312.03,44.98c-.96,0-1.73,.78-1.72,1.74h0v10.67c0,.59,.05,1.18,.16,1.76h6.71c.84,0,1.52-.67,1.53-1.51v-12.66h-6.68Z"/></g></g></g></g><g id="Group_504" class="cls-126" transform="translate(4.638 1.397)"><g id="Group_503"><g class="cls-77"><g id="Group_502"><path id="Path_4293" d="M318.71,43.27v-1.02c-.01-.84-.69-1.51-1.53-1.5h-2.23c.82,1.37,2.22,2.29,3.8,2.52h-.04Z"/></g></g></g></g><g id="Group_507" class="cls-126" transform="translate(0 5.627)"><g id="Group_506"><g class="cls-78"><g id="Group_505"><path id="Path_4294" d="M312.03,44.98c-.96,0-1.73,.78-1.72,1.74h0v10.67c0,.55,.05,1.11,.15,1.65h6.72c.84,0,1.53-.67,1.54-1.51v-12.56h-6.69Z"/></g></g></g></g><g id="Group_510" class="cls-126" transform="translate(4.638 1.397)"><g id="Group_509"><g class="cls-79"><g id="Group_508"><path id="Path_4295" d="M318.71,43.27v-1.02c-.01-.84-.7-1.51-1.54-1.5h-2.23c.82,1.36,2.2,2.28,3.76,2.52Z"/></g></g></g></g><g id="Group_513" class="cls-126" transform="translate(0 5.627)"><g id="Group_512"><g class="cls-84"><g id="Group_511"><path id="Path_4296" d="M312.03,44.98c-.96,0-1.73,.78-1.72,1.74h0v10.67c0,.85,.11,1.7,.34,2.53h6.52c.84,0,1.52-.67,1.53-1.51v-13.43h-6.67Z"/></g></g></g></g><g id="Group_516" class="cls-126" transform="translate(4.904 1.768)"><g id="Group_515"><g class="cls-80"><g id="Group_514"><path id="Path_4297" d="M318.71,43.28v-.63c-.01-.84-.7-1.52-1.54-1.52h-1.96c.83,1.15,2.09,1.93,3.5,2.15"/></g></g></g></g><g id="Group_519" class="cls-125" transform="translate(0 5.627)"><g id="Group_518"><g class="cls-54"><g id="Group_517"><path id="Path_4298" d="M312.03,44.98c-.96,0-1.73,.78-1.72,1.74h0v10.67c0,.97,.15,1.93,.45,2.85h6.42c.84,.01,1.53-.66,1.54-1.5v-13.76h-6.68Z"/></g></g></g></g><g id="Group_522" class="cls-125" transform="translate(5.17 2.129)"><g id="Group_521"><g class="cls-56"><g id="Group_520"><path id="Path_4299" d="M318.71,43.27v-.28c-.01-.84-.69-1.51-1.53-1.5h-1.7c.83,.96,1.97,1.59,3.23,1.78"/></g></g></g></g><g id="Group_525" class="cls-5" transform="translate(5.009 1.948)"><g id="Group_524"><g class="cls-55"><g id="Group_523"><path id="Path_4300" d="M319.48,43.34h.3v-.87c0-.64-.5-1.16-1.14-1.17h-3.31c.99,1.3,2.52,2.06,4.15,2.06v-.03Z"/></g></g></g></g><g id="Group_528" class="cls-5" transform="translate(0 5.627)"><g id="Group_527"><g class="cls-58"><g id="Group_526"><path id="Path_4301" d="M319.77,44.98h-7.74c-.96,0-1.73,.78-1.72,1.74h0v10.67c0,.73,.09,1.46,.26,2.18h8.06c.64,0,1.15-.51,1.15-1.15v-13.44Z"/></g></g></g></g><g id="Group_531" class="cls-125" transform="translate(0 5.627)"><g id="Group_530"><g class="cls-52"><g id="Group_529"><path id="Path_4302" d="M312.03,44.98c-.96,0-1.73,.78-1.72,1.74h0v10.67c0,.6,.06,1.2,.17,1.79h7.26c.64,0,1.15-.52,1.15-1.16v-13.04h-6.86Z"/></g></g></g></g><g id="Group_534" class="cls-125" transform="translate(4.98 1.939)"><g id="Group_533"><g class="cls-53"><g id="Group_532"><path id="Path_4303" d="M318.89,43.28v-.81c0-.64-.51-1.17-1.15-1.18h-2.45c.88,1.12,2.18,1.84,3.6,1.99Z"/></g></g></g></g><g id="Group_537" class="cls-126" transform="translate(4.305 0.902)"><g id="Group_536"><g class="cls-59"><g id="Group_535"><path id="Path_4304" d="M319.02,43.3v-1.36c0-.68-1.55-1.07-1.72-1.27-.5-.28-1.06-.42-1.64-.41h-1.05c.81,1.73,2.49,2.89,4.4,3.04Z"/></g></g></g></g><g id="Group_540" class="cls-126" transform="translate(0 5.627)"><g id="Group_539"><g class="cls-57"><g id="Group_538"><path id="Path_4305" d="M312.03,44.98c-.96,0-1.73,.78-1.72,1.74h0v10.67c0,.39,.02,.77,.07,1.16h7.54c.64,0,1.15-.52,1.14-1.16h0v-12.41h-7.02Z"/></g></g></g></g><g id="Group_543" class="cls-5" transform="translate(5.855 2.813)"><g id="Group_542"><g class="cls-60"><g id="Group_541"><path id="Path_4306" d="M319.39,43.33c0-.63-.5-1.15-1.13-1.16h-2.09c.92,.76,2.07,1.19,3.26,1.21l-.04-.05Z"/></g></g></g></g><g id="Group_546" class="cls-5" transform="translate(0 5.627)"><g id="Group_545"><g class="cls-61"><g id="Group_544"><path id="Path_4307" d="M312.03,44.98c-.96,0-1.73,.78-1.72,1.74h0v10.67c0,1.03,.16,2.05,.49,3.02h7.44c.63,0,1.15-.53,1.14-1.16v-14.26l-7.35-.02Z"/></g></g></g></g><g id="Group_549" class="cls-5" transform="translate(0 5.627)"><g id="Group_548"><g class="cls-88"><g id="Group_547"><path id="Path_4308" d="M312.03,44.98c-.96,0-1.73,.78-1.72,1.74h0v10.9l6.03-.82c.64,0,2.33-.56,2.33-1.21v-10.59l-6.63-.03Z"/></g></g></g></g><g id="Group_552" class="cls-5" transform="translate(4.134 0.333)"><g id="Group_551"><g class="cls-89"><g id="Group_550"><path id="Path_4309" d="M318.68,43.26v-2.4c.01-.64-.5-1.17-1.14-1.18h-3.09c.64,1.88,2.27,3.26,4.23,3.58Z"/></g></g></g></g><g id="Group_555" class="cls-124" transform="translate(4.23 0.627)"><g id="Group_554"><g class="cls-90"><g id="Group_553"><path id="Path_4310" d="M318.68,43.27v-2.11c0-.64-.5-1.16-1.14-1.17h-2.99c.71,1.74,2.28,2.99,4.13,3.28"/></g></g></g></g><g id="Group_558" class="cls-124" transform="translate(0 5.627)"><g id="Group_557"><g class="cls-86"><g id="Group_556"><path id="Path_4311" d="M312.03,44.98c-.96,0-1.73,.78-1.72,1.74h0v11.19l6.01-.81c.64,0,2.34-.57,2.34-1.21v-10.91h-6.62Z"/></g></g></g></g></g></g></g></g><path id="Path_4312" class="cls-33" d="M301.91,40.22h15.28c.85,.01,1.54,.71,1.53,1.56v15.62c0,.85-.68,1.55-1.53,1.56h-15.28c-.85,0-1.53-.7-1.53-1.55v-15.63c0-.85,.68-1.55,1.53-1.56"/><path id="Path_4313" class="cls-10" d="M314.09,46.05h-3.42v9.4h-2.25v-9.4h-3.43v-2.31h9.11v2.31Z"/><path id="Path_4314" class="cls-21" d="M538.9,454.95c-.11-.51-.61-.84-1.13-.73h-.05l-3.58,.96c-.88-3.32-2.4-6.43-4.47-9.17-.53-.7-1.09-1.38-1.69-2.02-.35-.39-.95-.42-1.34-.06-.02,.02-.04,.04-.06,.06l-9.99,10.01s-.06,.06-.08,.09c-.11,.19-.08,.42,.07,.58,1.2,1.29,2.06,2.85,2.52,4.55,.5,1.87,.5,3.83,0,5.7-.47,1.68-1.33,3.24-2.5,4.53-.19,.19-.19,.49,0,.67h0l9.96,9.93c.37,.38,.98,.38,1.36,.01,.01-.01,.02-.03,.04-.04,2.93-3.15,5.04-6.97,6.16-11.12l3.57,.95c.52,.14,1.05-.17,1.19-.68v-.03c1.1-4.69,1.1-9.57,0-14.26l.02,.06Z"/><path id="Path_4315" class="cls-30" d="M538.9,454.95c-.06-.25-.22-.47-.45-.61-.23-.14-.5-.17-.76-.1l-18.63,4.98c.5,1.87,.5,3.83,0,5.7l18.62,5c.52,.14,1.05-.17,1.19-.68v-.03c1.1-4.69,1.1-9.57,0-14.26h.02Z"/><path id="Path_4316" class="cls-29" d="M516.57,454.67c-.14-.16-.17-.39-.07-.58l.08-.1,10-10.05c.39-.38,1.01-.38,1.39,0h.01c.6,.66,1.16,1.33,1.68,2.04,2.07,2.74,3.59,5.85,4.47,9.17l-15.04,4.02c-.46-1.7-1.33-3.26-2.53-4.54v.04Z"/><path id="Path_4317" class="cls-8" d="M519.1,464.85c-.45,1.69-1.29,3.26-2.46,4.56-.19,.19-.19,.49,0,.67h0l9.98,9.98c.35,.39,.95,.42,1.34,.06,.02-.02,.04-.04,.06-.06,2.93-3.15,5.04-6.97,6.15-11.12l-15.08-4.09Z"/><g id="Group_612" class="cls-127" transform="translate(516.392 452.147)"><g id="Group_611"><g class="cls-87"><g id="Group_610"><g id="Group_564" class="cls-4" transform="translate(0.104 0.143)"><g id="Group_563"><g class="cls-91"><g id="Group_562"><path id="Path_4318" d="M523.55,470.56v-17.11c0-.64-.5-1.15-1.14-1.16h-4.18l-1.59,1.69-.08,.1c-.1,.19-.08,.42,.07,.58,1.2,1.29,2.06,2.85,2.52,4.55,.5,1.87,.5,3.83,0,5.7-.13,.48-.29,.95-.48,1.41-.49,1.15-1.17,2.21-2.01,3.13-.19,.19-.19,.49,0,.67h0l1.62,1.63h4.06c.63-.03,1.14-.5,1.23-1.12l-.03-.07Z"/></g></g></g></g><g id="Group_567" class="cls-5" transform="translate(0.103 3.279)"><g id="Group_566"><g class="cls-92"><g id="Group_565"><path id="Path_4319" d="M521.79,472.72v-15.8c-.02-.84-.72-1.51-1.56-1.5h-3.01c.89,1.12,1.53,2.42,1.9,3.8,.5,1.87,.5,3.83,0,5.7-.45,1.67-1.3,3.21-2.48,4.49-.19,.19-.19,.49,0,.67h0l4.08,4.08c.64-.19,1.08-.77,1.08-1.44Z"/></g></g></g></g><g id="Group_570" class="cls-125" transform="translate(0.034 2.195)"><g id="Group_569"><g class="cls-93"><g id="Group_568"><path id="Path_4320" d="M521.79,471.63v-15.79c-.02-.84-.71-1.52-1.56-1.5h-3.8c0,.12,.04,.23,.11,.32,1.2,1.29,2.06,2.85,2.52,4.55,.5,1.87,.5,3.83,0,5.7-.13,.48-.29,.95-.48,1.41-.47,1.13-1.12,2.18-1.94,3.09-.19,.19-.19,.49,0,.67h0l3.05,3.05h.56c.84,.02,1.54-.64,1.56-1.48v-.03h-.02Z"/></g></g></g></g><g id="Group_573" class="cls-5" transform="translate(0.039 0.58)"><g id="Group_572"><g class="cls-94"><g id="Group_571"><path id="Path_4321" d="M523.09,470.96v-17.06c0-.64-.53-1.16-1.17-1.17h-4.08l-1.27,1.28s-.05,.06-.07,.09c-.11,.18-.09,.42,.06,.58,1.2,1.28,2.07,2.84,2.52,4.54,.98,3.59,.06,7.44-2.44,10.2-.19,.19-.19,.5,0,.68l2.03,2.04h3.26c.65,.02,1.18-.49,1.2-1.14h0s-.02-.05-.04-.06Z"/></g></g></g></g><g id="Group_576" class="cls-5" transform="translate(0.027 1.084)"><g id="Group_575"><g class="cls-102"><g id="Group_574"><path id="Path_4322" d="M523.07,471.26v-16.86c0-.64-.51-1.16-1.15-1.17h-4.55l-.81,.81s-.05,.06-.08,.1c-.11,.19-.08,.42,.07,.58,1.2,1.29,2.06,2.85,2.52,4.54,.5,1.87,.5,3.83,0,5.7-.47,1.69-1.32,3.25-2.5,4.54-.18,.18-.19,.48,0,.66h0l2.45,2.45h2.73c.72-.05,1.29-.63,1.32-1.35Z"/></g></g></g></g><g id="Group_579" class="cls-125" transform="translate(0.085 2.689)"><g id="Group_578"><g class="cls-44"><g id="Group_577"><path id="Path_4323" d="M521.79,472.15v-15.81c-.02-.85-.71-1.52-1.56-1.51h-3.49c.78,.88,1.43,1.88,1.9,2.96,.18,.46,.34,.92,.47,1.4,.5,1.87,.5,3.83,0,5.7-.13,.48-.29,.95-.48,1.41-.48,1.15-1.16,2.21-2.01,3.14-.18,.18-.19,.48,0,.66h0l3.57,3.57c.84,.04,1.56-.61,1.6-1.46h0s0-.04,0-.05Z"/></g></g></g></g><g id="Group_582" class="cls-126" transform="translate(0.027 1.064)"><g id="Group_581"><g class="cls-96"><g id="Group_580"><path id="Path_4324" d="M521.79,470.11v-15.4c-.02-.84-.71-1.52-1.56-1.5h-2.85l-.82,.81s-.06,.06-.08,.1c-.11,.19-.08,.42,.07,.58,1.2,1.29,2.06,2.85,2.52,4.54,.5,1.87,.5,3.83,0,5.7-.13,.48-.3,.95-.49,1.41-.48,1.15-1.16,2.21-2.01,3.14-.18,.18-.19,.48,0,.66h0l1.52,1.53h2.09c.85,.04,1.57-.61,1.61-1.46h0v-.1Z"/></g></g></g></g><g id="Group_585" class="cls-126" transform="translate(0.027 1.064)"><g id="Group_584"><g class="cls-98"><g id="Group_583"><path id="Path_4325" d="M521.79,470.02v-15.3c-.02-.84-.71-1.52-1.56-1.5h-2.85l-.82,.81s-.06,.06-.08,.1c-.11,.19-.08,.42,.07,.58,1.2,1.29,2.06,2.85,2.52,4.54,.5,1.87,.5,3.83,0,5.7-.13,.48-.3,.95-.49,1.41-.48,1.15-1.16,2.21-2.01,3.14-.18,.18-.19,.48,0,.66h0l1.44,1.44h2.18c.85,.04,1.58-.63,1.61-1.48h0v-.1Z"/></g></g></g></g><g id="Group_588" class="cls-126" transform="translate(0.024 1.435)"><g id="Group_587"><g class="cls-104"><g id="Group_586"><path id="Path_4326" d="M521.79,470.88v-15.78c-.02-.85-.71-1.53-1.56-1.52h-3.26l-.41,.41s-.06,.06-.08,.1c-.11,.19-.08,.42,.07,.58,1.2,1.29,2.06,2.85,2.52,4.55,.5,1.87,.5,3.83,0,5.7-.47,1.68-1.33,3.24-2.5,4.53-.19,.19-.19,.49,0,.67h0l2.29,2.3h1.32c.85,.01,1.55-.66,1.57-1.51l.04-.04Z"/></g></g></g></g><g id="Group_591" class="cls-125" transform="translate(0.057 1.796)"><g id="Group_590"><g class="cls-97"><g id="Group_589"><path id="Path_4327" d="M521.79,471.23v-15.79c-.02-.84-.71-1.52-1.56-1.5h-3.64l-.08,.1c-.1,.19-.08,.42,.07,.58,1.2,1.29,2.06,2.85,2.52,4.55,.5,1.87,.5,3.83,0,5.7-.13,.48-.29,.95-.48,1.41-.47,1.15-1.14,2.21-1.98,3.14-.19,.19-.19,.49,0,.67h0l2.65,2.65h.95c.84,.02,1.54-.64,1.56-1.48v-.03h-.01Z"/></g></g></g></g><g id="Group_594" class="cls-5" transform="translate(0.031 1.588)"><g id="Group_593"><g class="cls-103"><g id="Group_592"><path id="Path_4328" d="M522.87,470.87v-15.95c0-.64-.52-1.17-1.16-1.18h-4.9l-.26,.26s-.05,.06-.07,.09c-.11,.19-.09,.42,.07,.58,3.85,4.16,3.86,10.57,.02,14.74-.19,.19-.19,.5,0,.68h0l1.9,1.95h3.16c.31,0,.6-.12,.82-.34,.21-.22,.34-.5,.34-.81l.08-.02Z"/></g></g></g></g><g id="Group_597" class="cls-125" transform="translate(0.048 1.588)"><g id="Group_596"><g class="cls-105"><g id="Group_595"><path id="Path_4329" d="M521.97,470.49v-15.58c0-.65-.52-1.17-1.17-1.18h-3.96l-.26,.26-.08,.09c-.1,.19-.08,.42,.07,.58,3.84,4.15,3.87,10.55,.07,14.74-.18,.19-.18,.49,0,.68l1.56,1.56h2.63c.64,0,1.17-.51,1.18-1.15h-.04Z"/></g></g></g></g><g id="Group_600" class="cls-126" transform="translate(0 0.571)"><g id="Group_599"><g class="cls-100"><g id="Group_598"><path id="Path_4330" d="M522.14,469.86v-15.46c0-.69-1.58-1.07-1.76-1.27-.5-.27-1.06-.41-1.64-.41h-.95l-1.26,1.26-.08,.1c-.1,.19-.08,.42,.07,.58,1.2,1.29,2.06,2.85,2.52,4.54,.5,1.87,.5,3.83,0,5.7-.45,1.69-1.31,3.25-2.49,4.54-.18,.18-.19,.47,0,.66h0l.95,.96h3.44c.64,.02,1.18-.48,1.2-1.12h0s0-.06,0-.08Z"/></g></g></g></g><g id="Group_603" class="cls-5" transform="translate(0.046 2.443)"><g id="Group_602"><g class="cls-99"><g id="Group_601"><path id="Path_4331" d="M522.48,471.71v-15.96c0-.64-.52-1.16-1.16-1.16h-4.76v.08c1.2,1.29,2.06,2.85,2.52,4.55,.5,1.87,.5,3.83,0,5.7-.47,1.68-1.33,3.24-2.5,4.53-.19,.19-.19,.49,0,.67h0l2.79,2.79h1.9c.31,0,.6-.12,.82-.34,.24-.22,.38-.54,.39-.87Z"/></g></g></g></g><g id="Group_606" class="cls-5" transform="translate(0.1)"><g id="Group_605"><g class="cls-45"><g id="Group_604"><path id="Path_4332" d="M521.79,468.05v-14.72c0-.65-.51-1.17-1.16-1.18h-2.18l-1.82,1.84s-.06,.06-.08,.1c-.11,.19-.08,.42,.07,.58,1.2,1.29,2.06,2.85,2.52,4.55,.5,1.87,.5,3.83,0,5.7-.48,1.67-1.34,3.21-2.51,4.5-.08,.09-.13,.21-.13,.33l2.85-.52c.67,.02,2.43-.58,2.43-1.19Z"/></g></g></g></g><g id="Group_609" class="cls-124" transform="translate(0.107 0.295)"><g id="Group_608"><g class="cls-106"><g id="Group_607"><path id="Path_4333" d="M521.79,468.34v-14.73c0-.65-.52-1.17-1.17-1.17h-2.45l-1.53,1.55s-.05,.06-.07,.1c-.11,.19-.09,.42,.07,.58,1.2,1.29,2.06,2.85,2.52,4.55,.5,1.87,.5,3.83,0,5.7-.48,1.67-1.34,3.22-2.52,4.5-.08,.09-.13,.21-.13,.33,0,.12,.04,.23,.11,.31l2.79-.51c.6,0,2.37-.57,2.37-1.21Z"/></g></g></g></g></g></g></g></g><path id="Path_4334" class="cls-30" d="M504.6,452.68h15.62c.86,0,1.55,.7,1.56,1.56v15.62c0,.86-.7,1.55-1.56,1.56h-15.62c-.86,0-1.55-.7-1.56-1.56v-15.63c0-.86,.7-1.55,1.56-1.56"/><path id="Path_4335" class="cls-6" d="M512.31,461.31c.11,.22,.2,.45,.26,.69,.06-.23,.14-.46,.25-.67l2.33-4.4c.18-.33,.53-.53,.9-.53,.56,0,1.02,.44,1.03,1,0,.19-.05,.37-.14,.53l-3.22,5.61c-.09,.16-.13,.33-.13,.51v2.85c0,.56-.46,1.02-1.03,1.03h-.21c-.57,0-1.03-.46-1.03-1.03v-2.8c0-.18-.04-.35-.13-.5l-3.16-5.7c-.28-.48-.12-1.1,.36-1.38h.02c.16-.1,.33-.14,.51-.14h.2c.4-.02,.77,.2,.95,.55l2.24,4.38Z"/><g id="Group_615" class="cls-130" transform="translate(20.889 291.613)"><g id="Group_614"><g class="cls-110"><g id="Group_613"><rect id="Rectangle_637" class="cls-18" x="20.89" y="291.61" width="36.68" height="36.68"/></g></g></g></g><path id="Path_4336" class="cls-9" d="M38.05,293.66c6.15,0,11.13,4.98,11.13,11.13s-4.98,11.13-11.13,11.13-11.13-4.98-11.13-11.13,4.98-11.13,11.13-11.13h0"/><path id="Path_4337" class="cls-23" d="M48.45,305.07c5.26,0,9.52,4.26,9.52,9.52,0,5.26-4.26,9.52-9.52,9.52-5.26,0-9.52-4.26-9.52-9.52,0-5.26,4.26-9.52,9.52-9.52"/><path id="Path_4338" class="cls-22" d="M39.22,315.92c4.2,0,7.61,3.41,7.61,7.61s-3.41,7.61-7.61,7.61-7.61-3.41-7.61-7.61,3.41-7.61,7.61-7.61h0"/><g id="Group_669" class="cls-127" transform="translate(26.92 302.163)"><g id="Group_668"><g class="cls-108"><g id="Group_667"><g id="Group_618" class="cls-4" transform="translate(0.632 0.533)"><g id="Group_617"><g class="cls-101"><g id="Group_616"><path id="Path_4339" d="M39.82,302.7h-11.68c-.32,0-.58,.25-.59,.57h0v5.17c1.55,4.45,5.74,7.44,10.46,7.46,.32,0,.64,0,.95-.05v.06c-3.59,.1-6.62,2.69-7.27,6.22h8.08c.64,0,1.16-1.28,1.16-2.69v-15.57c0-.62-.48-1.14-1.1-1.17"/></g></g></g></g><g id="Group_621" class="cls-5" transform="translate(0.081 3.602)"><g id="Group_620"><g class="cls-112"><g id="Group_619"><path id="Path_4340" d="M37.67,305.76h-10.66c.5,5.74,5.31,10.14,11.07,10.14,.32,0,.64,0,.95-.05v.06c-4.17,.1-7.47,3.54-7.41,7.71-.01,.32,.01,.64,.08,.95h5.98c.85,.04,1.58-.62,1.62-1.47v-15.83c-.03-.85-.73-1.53-1.59-1.51h-.04Z"/></g></g></g></g><g id="Group_624" class="cls-125" transform="translate(0.014 2.519)"><g id="Group_623"><g class="cls-107"><g id="Group_622"><path id="Path_4341" d="M37.66,304.68h-10.73v.1c0,6.14,4.97,11.12,11.11,11.12h.02c.32,0,.64,0,.95-.05v.06c-4.13,.09-7.43,3.47-7.43,7.6h6.06c.85,.01,1.54-.66,1.56-1.51v-15.81c-.02-.84-.69-1.51-1.53-1.51"/></g></g></g></g><g id="Group_627" class="cls-5" transform="translate(0.166 0.894)"><g id="Group_626"><g class="cls-113"><g id="Group_625"><path id="Path_4342" d="M39.36,303.06h-11.68c-.33,0-.59,.26-.59,.59v2.97c.9,5.36,5.53,9.29,10.97,9.29,.32,0,.64,0,.95-.05v.06c-3.72,.09-6.83,2.87-7.34,6.56h7.67c.64,0,1.16-.52,1.16-1.16h0v-17.07c.01-.65-.5-1.18-1.15-1.19h0Z"/></g></g></g></g><g id="Group_630" class="cls-5" transform="translate(0.157 1.378)"><g id="Group_629"><g class="cls-111"><g id="Group_628"><path id="Path_4343" d="M39.29,303.54h-11.63c-.32,0-.58,.26-.58,.58v2.38c.84,5.41,5.5,9.4,10.98,9.4,.32,0,.64,0,.95-.05v.06c-3.85,.08-7.03,3.03-7.4,6.86h7.68c.65,0,1.17-.52,1.17-1.17h0v-16.88c0-.64-.52-1.17-1.16-1.18h0Z"/></g></g></g></g><g id="Group_633" class="cls-129" transform="translate(0.007)"><g id="Group_632"><g class="cls-109"><g id="Group_631"><path id="Path_4344" d="M27.25,302.16c-1.46,5.96,2.19,11.97,8.15,13.43,.87,.21,1.76,.32,2.66,.32,.32,0,.64,0,.95-.05v.06c-2.67,.06-5.12,1.53-6.44,3.86l4.21-.5c.64,0,2.38-.56,2.38-1.21v-14.74c-.01-.65-.53-1.17-1.18-1.18h-10.73Z"/></g></g></g></g><g id="Group_636" class="cls-125" transform="translate(0.014 3.042)"><g id="Group_635"><g class="cls-95"><g id="Group_634"><path id="Path_4345" d="M37.66,305.2h-10.73c.23,5.97,5.13,10.7,11.11,10.7,.32,0,.64,0,.95-.05v.06c-4.13,.09-7.43,3.47-7.43,7.6v.5h6.02c.85,.03,1.57-.63,1.6-1.48h0v-15.85c-.03-.82-.7-1.47-1.52-1.48Z"/></g></g></g></g><g id="Group_639" class="cls-126" transform="translate(0.009 1.388)"><g id="Group_638"><g class="cls-68"><g id="Group_637"><path id="Path_4346" d="M37.66,303.55h-10.66c-.69,6.1,3.69,11.6,9.79,12.29,.42,.05,.85,.07,1.27,.07,.32,0,.64,0,.95-.05v.06c-3.53,.08-6.55,2.58-7.27,6.05h5.89c.84,.02,1.54-.66,1.56-1.5h0v-15.4c-.02-.84-.7-1.51-1.53-1.51Z"/></g></g></g></g><g id="Group_642" class="cls-126" transform="translate(0.009 1.388)"><g id="Group_641"><g class="cls-65"><g id="Group_640"><path id="Path_4347" d="M37.66,303.55h-10.66c-.69,6.1,3.69,11.6,9.79,12.29,.42,.05,.85,.07,1.27,.07,.32,0,.64,0,.95-.05v.06c-3.5,.08-6.5,2.54-7.25,5.96h5.87c.85,0,1.54-.67,1.56-1.52v-15.29c-.02-.84-.7-1.51-1.53-1.51Z"/></g></g></g></g><g id="Group_645" class="cls-126" transform="translate(0.081 1.768)"><g id="Group_644"><g class="cls-70"><g id="Group_643"><path id="Path_4348" d="M37.67,303.93h-10.66v.81c0,6.14,4.97,11.12,11.11,11.13h.96v.06c-3.81,.08-6.97,2.98-7.39,6.77h6.01c.86,.03,1.57-.64,1.6-1.5h0v-15.75c-.02-.85-.72-1.53-1.57-1.51h-.06Z"/></g></g></g></g><g id="Group_648" class="cls-125" transform="translate(0.014 2.12)"><g id="Group_647"><g class="cls-66"><g id="Group_646"><path id="Path_4349" d="M37.66,304.28h-10.73v.5c0,6.14,4.97,11.12,11.11,11.13h0c.32,0,.64,0,.95-.05v.06c-3.92,.14-7.09,3.24-7.32,7.16h6.03c.85,.01,1.55-.66,1.57-1.51v-15.77c-.02-.85-.72-1.53-1.57-1.51h-.05Z"/></g></g></g></g><g id="Group_651" class="cls-5" transform="translate(0.024 1.901)"><g id="Group_650"><g class="cls-62"><g id="Group_649"><path id="Path_4350" d="M39.15,304.06h-11.68c-.22,0-.43,.12-.52,.32v.38c0,6.14,4.98,11.12,11.12,11.12,.32,0,.64,0,.95-.05v.06c-3.69,.09-6.78,2.82-7.33,6.47h7.44c.73-.82,1.14-1.87,1.16-2.96v-14.15c0-.65-.52-1.17-1.17-1.17h0l.03-.02Z"/></g></g></g></g><g id="Group_654" class="cls-125" transform="translate(0.081 1.901)"><g id="Group_653"><g class="cls-67"><g id="Group_652"><path id="Path_4351" d="M38.24,304.06h-11.23v.7c0,6.14,4.98,11.12,11.12,11.12,.32,0,.64,0,.95-.05v.06c-3.55,.08-6.56,2.61-7.27,6.08h6.54c.65,0,1.17-.52,1.17-1.17h0v-15.56c.01-.65-.5-1.18-1.15-1.19h-.12Z"/></g></g></g></g><g id="Group_657" class="cls-126" transform="translate(0 0.903)"><g id="Group_656"><g class="cls-64"><g id="Group_655"><path id="Path_4352" d="M37.82,303.47c-.5-.27-1.06-.41-1.63-.41h-9.12c-.99,6.02,3.09,11.71,9.11,12.7h.01c.63,.11,1.26,.16,1.9,.14,.32,0,.64,0,.95-.05v.06c-3.32,.06-6.21,2.27-7.15,5.45h6.52c.63,0,1.14-.51,1.16-1.14v-15.51c0-.65-1.58-1.03-1.76-1.23Z"/></g></g></g></g><g id="Group_660" class="cls-5" transform="translate(0.014 2.766)"><g id="Group_659"><g class="cls-69"><g id="Group_658"><path id="Path_4353" d="M38.76,304.93h-11.82c.09,6.08,5.04,10.96,11.12,10.96,.32,0,.64-.02,.95-.06v.06c-4.03,.09-7.28,3.31-7.42,7.34h7.14c.64,0,1.16-.52,1.16-1.16v-15.97c0-.64-.52-1.16-1.16-1.17h.03Z"/></g></g></g></g><g id="Group_663" class="cls-5" transform="translate(0 0.333)"><g id="Group_662"><g class="cls-63"><g id="Group_661"><path id="Path_4354" d="M27.16,302.5c-1.27,6,2.56,11.89,8.55,13.18,.75,.16,1.52,.24,2.29,.24,.32,0,.64,0,.95-.05v.06c-2.83,.05-5.39,1.67-6.65,4.2l4.4-.51c.64,0,2.38-.57,2.38-1.21v-14.74c0-.65-.52-1.17-1.17-1.17h-10.75Z"/></g></g></g></g><g id="Group_666" class="cls-124" transform="translate(0.003 0.618)"><g id="Group_665"><g class="cls-71"><g id="Group_664"><path id="Path_4355" d="M27.12,302.78c-1.13,6.01,2.83,11.81,8.85,12.93h0c.69,.13,1.38,.19,2.08,.19,.32,0,.64,0,.95-.05v.06c-2.94,.07-5.57,1.83-6.77,4.51l4.54-.54c.64,0,2.38-.56,2.38-1.2v-14.73c0-.65-.53-1.18-1.18-1.18h-10.86Z"/></g></g></g></g></g></g></g></g><path id="Path_4356" class="cls-7" d="M22.05,303.02h15.62c.86,0,1.56,.7,1.56,1.56v15.64c0,.86-.69,1.56-1.55,1.57h-15.63c-.87,0-1.57-.7-1.57-1.57v-15.64c0-.87,.7-1.57,1.57-1.57Z"/><path id="Path_4357" class="cls-10" d="M27.71,312.29c-.38-.24-.71-.57-.95-.95-.22-.42-.33-.89-.32-1.36-.02-.64,.19-1.27,.61-1.76,.44-.49,1-.86,1.62-1.05,.71-.23,1.46-.35,2.21-.34,.98-.03,1.96,.11,2.9,.41v2.05c-.4-.25-.85-.43-1.31-.53-.5-.12-1.01-.19-1.53-.19-.55-.02-1.09,.09-1.58,.33-.38,.17-.62,.54-.63,.95,0,.25,.09,.49,.27,.67,.2,.21,.44,.38,.7,.51,.3,.14,.76,.34,1.35,.59l.19,.08c.59,.22,1.15,.5,1.69,.82,.9,.52,1.42,1.5,1.36,2.53,.02,.66-.18,1.3-.57,1.83-.39,.48-.92,.84-1.52,1.02-.7,.22-1.43,.33-2.17,.32-.66,0-1.31-.06-1.96-.17-.56-.09-1.11-.24-1.63-.46v-2.17c.5,.35,1.05,.61,1.63,.77,.58,.18,1.17,.28,1.78,.29,.56,.04,1.12-.08,1.62-.34,.34-.19,.55-.56,.55-.95,0-.28-.11-.55-.31-.74-.24-.24-.51-.43-.81-.58-.36-.18-.89-.42-1.59-.71-.56-.22-1.1-.51-1.6-.85Z"/></g></g></g></g></g></g></svg>