<?xml version="1.0" encoding="UTF-8"?><svg id="Layer_2" xmlns="http://www.w3.org/2000/svg" xmlns:xlink="http://www.w3.org/1999/xlink" viewBox="0 0 340.93 335.87"><defs><style>.cls-1{fill:none;}.cls-2{clip-path:url(#clippath);}.cls-3{fill:#fff;}.cls-4{fill:#158bcb;}.cls-5{fill:#701e5e;}</style><clipPath id="clippath"><rect class="cls-1" width="340.93" height="335.87"/></clipPath></defs><g id="Layer_1-2"><g class="cls-2"><g id="Group_195"><path id="Path_2351" d="M275.34,165.29c0,71.18-57.7,128.88-128.88,128.88-71.18,0-128.88-57.7-128.88-128.88,0-71.18,57.7-128.88,128.88-128.88h0c71.18,0,128.88,57.7,128.88,128.88h0"/><path id="Path_2352" d="M146.46,295.87c-72.12,0-130.58-58.46-130.58-130.58S74.34,34.71,146.46,34.71s130.58,58.46,130.58,130.58c-.08,72.09-58.5,130.5-130.58,130.58m0-257.76c-70.24,0-127.17,56.94-127.17,127.17s56.94,127.17,127.17,127.17,127.17-56.94,127.17-127.17c-.08-70.2-56.97-127.09-127.17-127.17"/><path id="Path_2353" class="cls-5" d="M259.46,165.29c0,71.18-57.7,128.88-128.88,128.88-71.18,0-128.88-57.7-128.88-128.88,0-71.18,57.7-128.88,128.88-128.88h0c71.18,0,128.88,57.7,128.88,128.88"/><path id="Path_2354" d="M130.58,295.87C58.46,295.87,0,237.41,0,165.29S58.46,34.71,130.58,34.71s130.58,58.46,130.58,130.58c-.08,72.09-58.5,130.5-130.58,130.58m0-257.76C60.35,38.12,3.41,95.05,3.41,165.29s56.94,127.17,127.17,127.17,127.17-56.94,127.17-127.17c-.08-70.2-56.97-127.09-127.17-127.17"/><path id="Path_2355" class="cls-3" d="M216.5,165.29c0,47.45-38.47,85.92-85.92,85.92s-85.92-38.47-85.92-85.92,38.47-85.92,85.92-85.92h0c47.45,0,85.92,38.47,85.92,85.92"/><path id="Path_2356" class="cls-5" d="M173.54,165.29c0,23.73-19.23,42.96-42.96,42.96s-42.96-19.23-42.96-42.96,19.23-42.96,42.96-42.96h0c23.73,0,42.96,19.23,42.96,42.96h0"/><path id="Path_2357" class="cls-3" d="M129.21,166.84l22.09-24.75,3.3,3.3-24.75,22.09c-.19,.17-.47,.15-.64-.04-.15-.17-.15-.43,0-.6"/><path id="Path_2358" d="M129.55,169.31c-1.2,0-2.16-.99-2.15-2.18,0-.52,.2-1.03,.54-1.42h0l22.09-24.75c.62-.7,1.7-.77,2.4-.14,.03,.02,.05,.05,.08,.07l3.3,3.3c.67,.67,.67,1.75,0,2.41-.02,.02-.05,.04-.07,.07l-24.75,22.09c-.39,.36-.91,.56-1.44,.56m21.82-24.74l-6.23,6.98,6.98-6.22-.75-.75Z"/><path id="Path_2359" class="cls-3" d="M151.27,145.42c-1.28-1.28-1.28-3.35,0-4.63h0l9.1-9.1,4.63,4.63-9.1,9.1c-1.28,1.28-3.35,1.28-4.63,0h0"/><path id="Path_2360" d="M153.59,148.09c-2.75,0-4.98-2.23-4.98-4.98,0-1.32,.52-2.58,1.46-3.52l9.1-9.1c.67-.67,1.75-.67,2.41,0l4.63,4.63c.67,.66,.67,1.74,0,2.4h0l-9.1,9.11c-.93,.94-2.2,1.46-3.52,1.46m6.78-13.98l-7.89,7.89c-.61,.61-.61,1.61,0,2.22,.62,.6,1.6,.6,2.22,0l7.89-7.89-2.22-2.22Z"/><path id="Path_2361" class="cls-3" d="M157.89,138.81c-2.19-2.19-2.19-5.75,0-7.94h0L263.99,24.77c2.19-2.19,5.75-2.19,7.94,0,2.19,2.19,2.19,5.75,0,7.94l-106.1,106.1c-2.19,2.19-5.75,2.19-7.94,0h0"/><path id="Path_2362" d="M161.86,142.16c-4.04,0-7.32-3.27-7.32-7.32,0-1.94,.77-3.81,2.15-5.18L262.78,23.56c2.85-2.87,7.49-2.88,10.35-.03,2.87,2.85,2.88,7.49,.03,10.35l-.03,.03-106.1,106.1c-1.37,1.38-3.23,2.15-5.18,2.14M267.96,24.83c-1.04,0-2.03,.41-2.76,1.14l-106.1,106.1c-1.53,1.53-1.53,4,0,5.53s4,1.53,5.53,0L270.72,31.5c1.53-1.53,1.53-4,0-5.53-.73-.73-1.73-1.15-2.77-1.15"/><path id="Path_2363" class="cls-4" d="M232.98,55.77l-3.29-15.97c-1.3-6.29,.66-12.82,5.2-17.36L255.25,2.09c.51-.51,1.35-.52,1.86,0,.18,.18,.31,.41,.36,.67l4.87,23.66-29.36,29.36Z"/><path id="Path_2364" d="M232.98,57.48c-.81,0-1.51-.57-1.67-1.36l-3.29-15.97c-1.42-6.86,.71-13.97,5.67-18.91L254.05,.88c1.18-1.18,3.09-1.19,4.27,0,.42,.42,.71,.95,.83,1.54l4.87,23.66c.12,.56-.06,1.14-.46,1.55l-29.36,29.36c-.32,.32-.75,.5-1.21,.5M255.95,3.81l-19.84,19.84c-4.15,4.13-5.93,10.08-4.74,15.81l2.65,12.87,26.47-26.47-4.54-22.05Z"/><path id="Path_2365" class="cls-4" d="M240.92,63.71l15.97,3.29c6.29,1.3,12.82-.66,17.36-5.2l20.35-20.36c.51-.51,.51-1.35,0-1.86-.18-.18-.41-.31-.67-.36l-23.66-4.87-29.36,29.36Z"/><path id="Path_2366" d="M260.77,69.1c-1.42,0-2.83-.14-4.22-.43l-15.97-3.29c-.92-.19-1.52-1.09-1.33-2.01,.07-.33,.23-.63,.46-.86l29.36-29.36c.41-.41,.99-.58,1.55-.47l23.66,4.87c1.63,.33,2.69,1.93,2.35,3.56-.12,.58-.41,1.12-.83,1.54l-20.35,20.35c-3.89,3.9-9.18,6.1-14.69,6.1m-16.4-6.42l12.87,2.65c5.73,1.19,11.68-.59,15.81-4.74l19.84-19.84-22.05-4.54-26.47,26.47Z"/><path id="Path_2367" class="cls-3" d="M266.96,42.63l19.23,3.6-19.23-3.6Z"/><path id="Path_2368" d="M286.2,47.94c-.11,0-.21,0-.32-.03l-19.23-3.6c-.93-.17-1.53-1.06-1.36-1.99,.17-.93,1.06-1.53,1.99-1.36l19.23,3.6c.93,.18,1.53,1.07,1.36,1.99-.15,.8-.85,1.38-1.67,1.39"/><path id="Path_2369" class="cls-3" d="M259.15,50.45l19.23,3.6-19.23-3.6Z"/><path id="Path_2370" d="M278.38,55.75c-.11,0-.21,0-.32-.03l-19.23-3.6c-.93-.17-1.54-1.06-1.36-1.99,.17-.93,1.06-1.54,1.99-1.36l19.23,3.6c.93,.18,1.53,1.07,1.36,1.99-.15,.8-.85,1.38-1.67,1.39"/><path id="Path_2371" class="cls-3" d="M229.87,62.86l3.97,3.97-3.97-3.97Z"/><path id="Path_2372" d="M233.84,68.53c-.45,0-.89-.18-1.21-.5l-3.96-3.97c-.66-.68-.64-1.75,.03-2.41,.66-.64,1.72-.64,2.38,0l3.97,3.97c.67,.67,.67,1.75,0,2.41-.32,.32-.75,.5-1.21,.5"/><path id="Path_2373" class="cls-3" d="M234.46,58.27l3.96,3.97-3.96-3.97Z"/><path id="Path_2374" d="M238.43,63.94c-.45,0-.89-.18-1.21-.5l-3.97-3.97c-.66-.68-.64-1.75,.03-2.41,.66-.64,1.72-.64,2.38,0l3.97,3.97c.67,.67,.67,1.75,0,2.41-.32,.32-.75,.5-1.21,.5"/><path id="Path_2375" class="cls-3" d="M239.05,53.68l3.97,3.97-3.97-3.97Z"/><path id="Path_2376" d="M243.02,59.35c-.45,0-.89-.18-1.21-.5l-3.97-3.97c-.68-.66-.69-1.74-.03-2.41,.66-.68,1.74-.69,2.41-.03l.03,.03,3.97,3.97c.67,.67,.67,1.75,0,2.41-.32,.32-.75,.5-1.21,.5"/><path id="Path_2377" class="cls-3" d="M129.85,168.38l24.75,22.09-3.3,3.3-22.09-24.75c-.17-.19-.15-.47,.04-.64,.17-.15,.43-.15,.6,0"/><path id="Path_2378" d="M127.38,168.72c0-1.2,.99-2.16,2.18-2.15,.52,0,1.03,.2,1.42,.54h0l24.75,22.09c.7,.62,.77,1.7,.14,2.4-.02,.03-.05,.05-.07,.08l-3.3,3.3c-.67,.67-1.75,.67-2.41,0-.02-.02-.04-.05-.07-.07l-22.09-24.75c-.36-.39-.56-.91-.56-1.44m24.74,21.82l-6.98-6.23,6.22,6.98,.75-.75Z"/><path id="Path_2379" class="cls-3" d="M151.27,190.44c1.28-1.28,3.35-1.28,4.63,0h0l9.1,9.1-4.63,4.63-9.1-9.1c-1.28-1.28-1.28-3.35,0-4.63h0"/><path id="Path_2380" d="M148.61,192.76c0-2.75,2.23-4.98,4.99-4.98,1.32,0,2.58,.52,3.51,1.46l9.1,9.1c.67,.67,.67,1.75,0,2.41l-4.63,4.63c-.67,.67-1.75,.67-2.41,0l-9.1-9.1c-.94-.93-1.46-2.2-1.46-3.52m13.98,6.78l-7.89-7.89c-.61-.61-1.61-.61-2.22,0-.59,.62-.59,1.6,0,2.22l7.89,7.89,2.22-2.22Z"/><path id="Path_2381" class="cls-3" d="M157.89,197.06c2.19-2.19,5.75-2.19,7.94,0h0l106.1,106.1c2.19,2.19,2.19,5.75,0,7.94-2.19,2.19-5.75,2.19-7.94,0l-106.1-106.1c-2.19-2.19-2.19-5.75,0-7.94h0"/><path id="Path_2382" d="M154.54,201.03c0-4.04,3.27-7.32,7.31-7.33,1.95,0,3.81,.77,5.19,2.15l106.1,106.1c2.82,2.9,2.76,7.53-.14,10.35-2.84,2.77-7.37,2.77-10.21,0l-106.1-106.1c-1.38-1.37-2.15-3.23-2.14-5.18m117.33,106.1c0-1.04-.41-2.03-1.14-2.77l-106.1-106.1c-1.53-1.52-4.01-1.51-5.53,.03-1.51,1.52-1.51,3.98,0,5.5l106.1,106.1c1.53,1.53,4,1.53,5.53,0,.73-.73,1.15-1.73,1.15-2.77"/><path id="Path_2383" class="cls-4" d="M240.92,272.16l15.97-3.29c6.29-1.3,12.82,.66,17.36,5.2l20.35,20.35c.51,.51,.51,1.35,0,1.86-.18,.18-.41,.31-.67,.36l-23.66,4.87-29.36-29.35Z"/><path id="Path_2384" d="M239.22,272.15c0-.17,.02-.33,.07-.49,.18-.6,.68-1.05,1.29-1.18l15.97-3.29c6.85-1.42,13.96,.71,18.91,5.67l20.36,20.35c1.18,1.18,1.19,3.09,0,4.27-.42,.42-.95,.71-1.54,.83l-23.65,4.87c-.56,.12-1.14-.06-1.55-.46l-29.36-29.36c-.32-.32-.5-.75-.5-1.21m53.67,22.96l-19.84-19.84c-4.13-4.15-10.08-5.93-15.81-4.74l-12.87,2.65,26.47,26.47,22.05-4.54Z"/><path id="Path_2385" class="cls-4" d="M232.98,280.1l-3.29,15.97c-1.3,6.29,.66,12.82,5.2,17.36l20.35,20.35c.51,.51,1.35,.51,1.86,0,.18-.18,.31-.41,.36-.67l4.87-23.66-29.35-29.36Z"/><path id="Path_2386" d="M227.6,299.94c0-1.42,.14-2.83,.43-4.22l3.29-15.97c.19-.92,1.09-1.52,2.01-1.33,.33,.07,.63,.23,.86,.46l29.36,29.36c.41,.41,.58,.99,.46,1.55l-4.87,23.66c-.33,1.63-1.93,2.69-3.56,2.36-.58-.12-1.12-.41-1.54-.83l-20.35-20.35c-3.9-3.89-6.1-9.18-6.1-14.69m6.42-16.4l-2.65,12.87c-1.19,5.73,.59,11.68,4.74,15.81l19.84,19.84,4.54-22.05-26.47-26.47Z"/><path id="Path_2387" class="cls-3" d="M254.06,306.14l-3.6,19.23,3.6-19.23Z"/><path id="Path_2388" d="M248.76,325.37c0-.11,0-.21,.03-.32l3.6-19.23c.17-.93,1.06-1.53,1.99-1.36,.93,.17,1.53,1.06,1.36,1.99h0l-3.6,19.23c-.18,.93-1.07,1.53-1.99,1.36-.8-.15-1.38-.85-1.39-1.67"/><path id="Path_2389" class="cls-3" d="M246.24,298.32l-3.6,19.23,3.6-19.23Z"/><path id="Path_2390" d="M240.94,317.55c0-.11,0-.21,.03-.32l3.6-19.23c.17-.93,1.06-1.54,1.99-1.36,.93,.17,1.54,1.06,1.36,1.99l-3.6,19.23c-.18,.93-1.07,1.53-1.99,1.36-.8-.15-1.38-.85-1.39-1.67"/><path id="Path_2391" class="cls-3" d="M233.84,269.04l-3.97,3.97,3.97-3.97Z"/><path id="Path_2392" d="M228.17,273.01c0-.45,.18-.89,.5-1.21l3.97-3.97c.68-.66,1.75-.64,2.41,.03,.64,.66,.64,1.72,0,2.38l-3.97,3.97c-.67,.67-1.75,.67-2.41,0-.32-.32-.5-.75-.5-1.21"/><path id="Path_2393" class="cls-3" d="M238.42,273.63l-3.97,3.97,3.97-3.97Z"/><path id="Path_2394" d="M232.76,277.6c0-.45,.18-.89,.5-1.21l3.97-3.97c.66-.68,1.74-.69,2.41-.03,.68,.66,.69,1.74,.03,2.41l-.03,.03-3.97,3.97c-.67,.67-1.75,.67-2.41,0-.32-.32-.5-.75-.5-1.21"/><path id="Path_2395" class="cls-3" d="M243.02,278.22l-3.97,3.97,3.97-3.97Z"/><path id="Path_2396" d="M237.34,282.19c0-.45,.18-.89,.5-1.21l3.97-3.97c.66-.68,1.74-.69,2.41-.03,.68,.66,.69,1.74,.03,2.41l-.03,.03-3.97,3.97c-.67,.67-1.75,.67-2.41,0-.32-.32-.5-.75-.5-1.21"/><path id="Path_2397" class="cls-3" d="M132.29,167.8l33.12-1.88v4.67l-33.12-1.88c-.25-.01-.44-.22-.43-.47,.01-.23,.2-.42,.43-.43"/><path id="Path_2398" d="M130.78,169.79c-.84-.85-.83-2.23,.02-3.07,.37-.37,.87-.59,1.39-.62l33.12-1.88c.94-.05,1.74,.67,1.8,1.61,0,.03,0,.06,0,.09v4.67c0,.94-.77,1.7-1.71,1.7-.03,0-.06,0-.09,0l-33.12-1.88c-.53-.03-1.03-.25-1.41-.62m32.92-2.06l-9.33,.53,9.33,.53v-1.06Z"/><path id="Path_2399" class="cls-3" d="M163.03,168.26c0-1.81,1.47-3.27,3.27-3.27h12.87v6.55h-12.87c-1.81,0-3.27-1.47-3.27-3.27"/><path id="Path_2400" d="M162.79,171.78c-1.94-1.95-1.94-5.1,0-7.04,.93-.93,2.2-1.45,3.52-1.46h12.87c.94,0,1.7,.76,1.71,1.69h0v6.56c0,.94-.76,1.71-1.71,1.71h-12.87c-1.32,0-2.59-.52-3.52-1.46m14.68-5.09h-11.16c-.87,0-1.57,.7-1.57,1.57,.02,.86,.71,1.55,1.57,1.57h11.16v-3.14Z"/><path id="Path_2401" class="cls-3" d="M172.39,168.26c0-3.1,2.51-5.62,5.61-5.62h150.05c3.1,0,5.61,2.52,5.61,5.62,0,3.1-2.51,5.61-5.61,5.61H178.01c-3.1,0-5.62-2.51-5.62-5.61h0"/><path id="Path_2402" d="M172.83,173.43c-2.86-2.86-2.86-7.49,0-10.35,1.37-1.38,3.24-2.15,5.18-2.15h150.05c4.04,.05,7.28,3.36,7.23,7.4-.05,3.98-3.26,7.19-7.23,7.23H178.01c-1.94,0-3.81-.77-5.18-2.14m157.99-7.94c-.73-.73-1.73-1.15-2.76-1.15H178.01c-2.16,0-3.91,1.76-3.9,3.91,0,2.15,1.75,3.9,3.9,3.9h150.05c2.16,0,3.91-1.75,3.91-3.91,0-1.04-.41-2.03-1.15-2.76"/><path id="Path_2403" class="cls-4" d="M284.21,162.64l8.97-13.62c3.53-5.37,9.53-8.6,15.95-8.6h28.79c.73,0,1.32,.59,1.32,1.31,0,.26-.08,.51-.22,.73l-13.28,20.17h-41.52Z"/><path id="Path_2404" d="M283,163.85c-.12-.12-.22-.25-.3-.4-.3-.55-.27-1.22,.08-1.75l8.97-13.62c3.84-5.85,10.38-9.37,17.38-9.36h28.79c1.67,0,3.02,1.35,3.02,3.02,0,.59-.17,1.17-.5,1.66l-13.28,20.17c-.32,.48-.85,.77-1.42,.77h-41.51c-.45,0-.89-.18-1.21-.5m54.19-21.71h-28.07c-5.85,0-11.32,2.93-14.53,7.83l-7.23,10.97h37.44l12.38-18.8Z"/><path id="Path_2405" class="cls-4" d="M284.21,173.87l8.97,13.62c3.53,5.37,9.53,8.6,15.95,8.6h28.79c.73,0,1.32-.59,1.32-1.31,0-.26-.08-.51-.22-.73l-13.28-20.17h-41.52Z"/><path id="Path_2406" d="M294.43,191.71c-1-1-1.9-2.1-2.68-3.29l-8.97-13.62c-.52-.78-.31-1.84,.47-2.36,.28-.19,.61-.29,.95-.29h41.52c.57,0,1.11,.29,1.42,.77l13.28,20.17c.92,1.39,.53,3.27-.86,4.18-.49,.33-1.07,.5-1.66,.5h-28.78c-5.51,0-10.8-2.18-14.7-6.07m-7.06-16.13l7.23,10.97c3.21,4.89,8.68,7.84,14.53,7.83h28.06l-12.38-18.8h-37.44Z"/><path id="Path_2407" class="cls-3" d="M317.52,177.38l11.05,16.14-11.05-16.14Z"/><path id="Path_2408" d="M327.37,194.73c-.07-.07-.14-.16-.2-.24l-11.05-16.14c-.53-.78-.33-1.84,.44-2.37,.78-.53,1.84-.33,2.37,.44l11.05,16.14c.53,.78,.33,1.84-.45,2.37-.68,.46-1.59,.38-2.17-.2"/><path id="Path_2409" class="cls-3" d="M306.47,177.38l11.05,16.14-11.05-16.14Z"/><path id="Path_2410" d="M316.32,194.73c-.07-.07-.14-.16-.2-.24l-11.06-16.14c-.53-.78-.33-1.84,.44-2.37,.78-.53,1.84-.33,2.37,.44l11.05,16.14c.53,.78,.33,1.84-.45,2.37-.68,.46-1.59,.38-2.17-.2"/><path id="Path_2412" d="M275.79,172.27c-.32-.32-.5-.75-.5-1.21v-5.61c0-.94,.76-1.71,1.71-1.71s1.71,.76,1.71,1.71h0v5.61c0,.94-.77,1.71-1.71,1.7-.45,0-.88-.18-1.2-.5"/><path id="Path_2414" d="M282.28,172.27c-.32-.32-.5-.75-.5-1.21v-5.61c0-.94,.76-1.71,1.71-1.71s1.71,.76,1.71,1.71h0v5.61c0,.94-.77,1.71-1.71,1.7-.45,0-.88-.18-1.2-.5"/><path id="Path_2416" d="M288.77,172.27c-.32-.32-.5-.75-.5-1.21v-5.61c0-.94,.76-1.7,1.7-1.7s1.7,.76,1.7,1.7v5.61c0,.94-.76,1.71-1.71,1.71-.45,0-.89-.18-1.21-.5"/></g></g></g></svg>