<?xml version="1.0" encoding="UTF-8"?><svg id="Layer_2" xmlns="http://www.w3.org/2000/svg" xmlns:xlink="http://www.w3.org/1999/xlink" viewBox="0 0 624.28 582"><defs><style>.cls-1{fill:none;}.cls-2{clip-path:url(#clippath);}.cls-3{fill:#fff;}.cls-4{fill:#cddcf1;}.cls-5{fill:#d6d6d6;}.cls-6{fill:#1a8bcb;}.cls-7{fill:#701e5e;}.cls-8{fill:#9ad8f3;}.cls-9{fill:#5b72b7;}.cls-10{fill:#2ea5ce;}.cls-11{fill:#33a0c6;}.cls-12{fill:#53bbe8;}.cls-13{fill:#531248;}.cls-14{fill:#76c6ea;}.cls-15{clip-path:url(#clippath-1);}.cls-16{clip-path:url(#clippath-2);}.cls-17{opacity:.6;}</style><clipPath id="clippath"><rect class="cls-1" width="624.28" height="582"/></clipPath><clipPath id="clippath-1"><rect class="cls-1" width="624.28" height="582"/></clipPath><clipPath id="clippath-2"><rect class="cls-1" x="60.97" width="563.31" height="559.86"/></clipPath></defs><g id="Layer_1-2"><g class="cls-2"><g id="Group_302"><g id="Group_301"><g class="cls-15"><g id="Group_300"><g id="Group_299" class="cls-17" transform="translate(60.965)"><g id="Group_298"><g class="cls-16"><g id="Group_297"><path id="Path_3185" class="cls-8" d="M538.86,550.15c38.26-20.1,53.71-60.35,63.59-86.08,38.93-101.4,30.64-282.21-64.73-380.55-22.32-23.01-96.22-113.84-296.8-73.18C113.8,36.1,61.55,193.21,60.97,300.88c-.48,89.2,41.4,201.83,122.13,235.63,50.76,21.26,63.53-11,175.35,0,96.79,9.51,133.61,38.23,180.41,13.64"/></g></g></g></g><path id="Path_3186" class="cls-11" d="M108,92.01v223.47l183.25,14.24V50.25l-163.88,19.9c-11.05,1.34-19.36,10.72-19.36,21.85"/><path id="Path_3187" class="cls-4" d="M123.16,161.77v109l153.7,4.07v-127.78l-153.7,14.71Z"/><path id="Path_3188" class="cls-3" d="M240.01,250.92c-.33,0-.64-.16-.83-.43l-50.17-71.38c-.32-.46-.21-1.09,.25-1.42,.46-.32,1.09-.21,1.42,.25l50.17,71.38c.32,.46,.21,1.09-.25,1.42-.17,.12-.37,.18-.58,.18"/><path id="Path_3189" class="cls-3" d="M268.44,256.54c-.33,0-.64-.16-.83-.43l-64-90.05c-.33-.46-.22-1.09,.24-1.42,.46-.33,1.09-.22,1.42,.24l64,90.05c.33,.46,.22,1.09-.24,1.42-.17,.12-.38,.19-.59,.19"/><path id="Path_3190" class="cls-12" d="M589.82,89.59v223.62l-298.63,16.51V50.25h5.49l263.27,8.48c16.65,.54,29.88,14.19,29.87,30.86"/><path id="Path_3191" class="cls-10" d="M476.78,147.16v172.74l-77.9,3.89V146.29l77.9,.88Z"/><path id="Path_3192" class="cls-4" d="M443.32,205.74v-51.56l25.09,.27v51.31l-25.09-.02Z"/><path id="Path_3193" class="cls-4" d="M409.48,205.71v-51.65l25.09,.24v51.44l-25.09-.02Z"/><path id="Path_3194" class="cls-4" d="M468.41,212.77v54.82l-25.09,1.02v-55.83h25.09Z"/><path id="Path_3195" class="cls-4" d="M434.57,212.77v56.17l-25.09,1.02v-57.19h25.09Z"/><path id="Path_3196" class="cls-6" d="M398.88,324.81c-.56,0-1.02-.45-1.02-1.02V146.29c0-.27,.11-.53,.3-.72,.19-.19,.45-.3,.73-.29l77.9,.88c.55,0,1,.46,1,1.02v92.1c0,.56-.46,1.02-1.02,1.02s-1.02-.46-1.02-1.02v-91.1l-75.86-.85v175.42l76.83-3.83c.56-.03,1.04,.4,1.07,.96,.03,.56-.4,1.04-.97,1.07l-77.9,3.89h-.05"/><path id="Path_3197" class="cls-4" d="M387.62,146.16v125.28l-81.66,3.16V145.3l81.66,.86Z"/><path id="Path_3198" class="cls-3" d="M381.88,246.74c-.33,0-.64-.16-.83-.43l-44.22-62.91c-.32-.46-.21-1.09,.25-1.42s1.09-.21,1.42,.25h0l44.22,62.91c.32,.46,.21,1.09-.25,1.42-.17,.12-.37,.18-.58,.18"/><path id="Path_3199" class="cls-3" d="M375.77,225.1c-.33,0-.64-.16-.83-.43l-50.17-71.38c-.32-.46-.21-1.09,.25-1.42,.46-.32,1.09-.21,1.42,.25l50.17,71.38c.32,.46,.21,1.09-.25,1.42-.17,.12-.37,.18-.58,.18"/><path id="Path_3200" class="cls-4" d="M569.6,148.21v116.18l-81.66,3.18v-120.28l81.66,.92Z"/><path id="Path_3201" class="cls-3" d="M551.16,261.6c-.33,0-.64-.16-.83-.43l-53.04-75.78c-.33-.45-.23-1.09,.22-1.42s1.09-.23,1.42,.22l.03,.04,53.04,75.78c.32,.46,.21,1.09-.25,1.42-.17,.12-.37,.18-.58,.18"/><path id="Path_3202" class="cls-3" d="M539.09,225.63c-.33,0-.64-.16-.83-.43l-45.16-64.61c-.31-.47-.17-1.1,.3-1.41,.45-.29,1.05-.19,1.37,.24l45.16,64.61c.32,.46,.21,1.09-.25,1.42-.17,.12-.37,.18-.58,.18"/><path id="Path_3203" class="cls-3" d="M563.28,181.26c-.33,0-.64-.16-.83-.43l-19.65-28.07c-.31-.47-.19-1.1,.28-1.41,.45-.3,1.06-.19,1.38,.24l19.65,28.07c.32,.46,.21,1.09-.25,1.42-.17,.12-.38,.18-.58,.18"/><path id="Path_3204" class="cls-6" d="M569.6,246.62c-.56,0-1.02-.45-1.02-1.02v-96.39l-79.62-.9v85.7c0,.56-.46,1.02-1.02,1.02s-1.02-.46-1.02-1.02h0v-86.72c0-.27,.11-.53,.3-.72,.2-.19,.46-.29,.73-.29l81.66,.92c.55,0,1,.46,1,1.02v97.39c0,.56-.45,1.02-1.02,1.02"/><path id="Path_3205" class="cls-5" d="M231.3,138.35l2.45,.08c7.4,.24,13.5-6.27,13.61-14.54l.21-15.42-29.31,2.85-.16,11.64c-.11,8.27,5.79,15.16,13.2,15.4"/><path id="Path_3206" class="cls-13" d="M234.14,139.45c-.14,0-.28,0-.42,0l-2.45-.08c-7.94-.25-14.3-7.62-14.18-16.43l.16-11.64c0-.52,.4-.95,.92-1l29.31-2.85c.56-.06,1.05,.35,1.11,.91,0,.04,0,.08,0,.12l-.21,15.42c-.02,4.41-1.79,8.64-4.93,11.73-2.49,2.43-5.83,3.8-9.31,3.82m-2.81-2.12l2.45,.08c3.08,.08,6.06-1.1,8.26-3.25,2.75-2.72,4.29-6.43,4.3-10.29l.2-14.28-27.28,2.65-.15,10.73c-.11,7.7,5.37,14.15,12.21,14.37"/><path id="Path_3207" class="cls-13" d="M202.19,141.68l2.45,.08c7.4,.24,13.5-6.27,13.61-14.54l.21-15.42-29.36,2.26-.11,12.22c-.11,8.27,5.79,15.16,13.2,15.4"/><path id="Path_3208" class="cls-5" d="M173.07,145.02l2.45,.08c7.4,.24,13.5-6.27,13.61-14.54l.25-15.95-29.35,3.38-.16,11.64c-.12,8.27,5.79,15.16,13.2,15.4"/><path id="Path_3209" class="cls-13" d="M175.91,146.12c-.14,0-.28,0-.42,0l-2.45-.08c-7.94-.25-14.3-7.62-14.18-16.43l.16-11.64c0-.51,.39-.94,.9-1l29.34-3.37c.56-.06,1.06,.34,1.13,.89,0,.04,0,.09,0,.13l-.25,15.95c-.02,4.41-1.79,8.63-4.93,11.73-2.49,2.43-5.83,3.8-9.31,3.82m-14.87-27.23l-.15,10.74c-.11,7.71,5.37,14.15,12.21,14.37l2.45,.08c3.08,.08,6.06-1.1,8.26-3.25,2.75-2.72,4.3-6.42,4.31-10.29l.23-14.79-27.31,3.14Z"/><path id="Path_3210" class="cls-13" d="M143.96,148.36l2.45,.08c7.4,.24,13.5-6.27,13.61-14.54l.23-16.26-29.32,3.68-.16,11.64c-.12,8.27,5.79,15.16,13.2,15.4"/><path id="Path_3211" class="cls-5" d="M114.84,151.69l2.45,.08c7.4,.24,13.5-6.27,13.61-14.54l.23-16.56-29.31,2.7-.18,12.92c-.12,8.27,5.79,15.16,13.2,15.4"/><path id="Path_3212" class="cls-13" d="M117.68,152.8c-.14,0-.28,0-.42,0l-2.45-.08c-7.94-.25-14.3-7.62-14.18-16.43l.18-12.92c0-.52,.4-.95,.92-1l29.31-2.7c.56-.05,1.05,.36,1.11,.92,0,.04,0,.07,0,.11l-.23,16.56c-.02,4.41-1.79,8.64-4.93,11.73-2.49,2.43-5.83,3.8-9.31,3.82m-14.85-28.5l-.17,12.01c-.11,7.7,5.37,14.15,12.21,14.37l2.45,.08c3.08,.08,6.06-1.1,8.26-3.25,2.75-2.72,4.29-6.43,4.3-10.29l.21-15.43-27.27,2.51Z"/><path id="Path_3213" class="cls-13" d="M85.73,155.03l2.45,.08c7.4,.24,13.5-6.27,13.61-14.54l.23-16.36-29.31,2.85-.18,12.58c-.11,8.27,5.79,15.16,13.2,15.4"/><path id="Path_3214" class="cls-5" d="M218.21,112.09l29.44-3.08,42.43-57.47-29.44,3.08-42.43,57.47Z"/><path id="Path_3215" class="cls-13" d="M218.21,113.11c-.56,0-1.02-.45-1.02-1.02,0-.22,.07-.43,.2-.6l42.43-57.47c.17-.23,.43-.38,.71-.41l29.44-3.08c.56-.06,1.06,.35,1.12,.9,.03,.25-.04,.51-.19,.71l-42.43,57.47c-.17,.23-.43,.38-.71,.41l-29.44,3.08s-.07,0-.11,0m42.98-57.52l-40.8,55.26,26.7-2.8,40.8-55.26-26.7,2.8Z"/><path id="Path_3216" class="cls-13" d="M188.87,114.87l29.44-3.08,42.52-57.6-29.53,3.21-42.43,57.47Z"/><path id="Path_3217" class="cls-5" d="M159.58,118.04l29.44-3.08,42.43-57.47-29.44,3.08-42.43,57.47Z"/><path id="Path_3218" class="cls-13" d="M159.58,119.06c-.56,0-1.02-.46-1.02-1.02,0-.22,.07-.43,.2-.6l42.43-57.47c.17-.23,.43-.38,.71-.41l29.44-3.08c.56-.06,1.06,.35,1.12,.9,.03,.25-.04,.51-.19,.71l-42.43,57.47c-.17,.23-.43,.38-.71,.41l-29.44,3.08s-.07,0-.11,0m42.98-57.53l-40.8,55.26,26.7-2.8,40.8-55.26-26.7,2.8Z"/><path id="Path_3219" class="cls-13" d="M130.28,121.22l29.44-3.08,42.55-57.61-29.55,3.22-42.43,57.47Z"/><path id="Path_3220" class="cls-5" d="M100.99,124.39l29.44-3.08,42.43-57.47-29.44,3.08-42.43,57.47Z"/><path id="Path_3221" class="cls-13" d="M100.99,125.4c-.56,0-1.02-.45-1.02-1.02,0-.22,.07-.43,.2-.6l42.43-57.47c.17-.23,.43-.38,.71-.41l29.44-3.09c.56-.06,1.06,.35,1.12,.9,.03,.25-.04,.51-.19,.71l-42.43,57.47c-.17,.23-.43,.38-.71,.41l-29.44,3.08s-.07,0-.11,0m42.98-57.52l-40.8,55.26,26.7-2.8,40.8-55.26-26.7,2.8Z"/><path id="Path_3222" class="cls-13" d="M72,127.57l29.44-3.08,42.61-57.67-29.62,3.28-42.43,57.47Z"/><path id="Path_3223" class="cls-3" d="M70.44,128.64c-.56,0-1.02-.45-1.02-1.01,0-.52,.39-.97,.92-1.02l177.16-19c.56-.06,1.06,.34,1.12,.9,.06,.56-.34,1.06-.9,1.12h0l-177.16,19s-.07,0-.11,0"/><path id="Path_3224" class="cls-7" d="M364.84,106.43l-30.74,.19-43.13-56.67,32.1,1.23,41.77,55.25Z"/><path id="Path_3225" class="cls-7" d="M575.38,58.3l35.37,49.29-30.74,.19-36.19-50.29,31.56,.81Z"/><path id="Path_3226" class="cls-3" d="M543.82,57.41l36.19,50.37-30.74,.19-37.01-51.37,31.56,.81Z"/><path id="Path_3227" class="cls-7" d="M512.26,56.51l37.01,51.46-30.74,.19-37.83-52.45,31.56,.81Z"/><path id="Path_3228" class="cls-3" d="M480.7,55.62l37.83,51.76-30.74,.19-38.65-52.76,31.56,.81Z"/><path id="Path_3229" class="cls-7" d="M449.15,54.73l38.65,52.07-30.74,.19-39.47-53.07,31.56,.81Z"/><path id="Path_3230" class="cls-3" d="M417.59,53.83l39.47,53.15-30.74,.19-40.29-54.15,31.56,.81Z"/><path id="Path_3231" class="cls-7" d="M386.03,52.94l40.29,53.46-30.74,.19-41.11-54.46,31.56,.81Z"/><path id="Path_3232" class="cls-3" d="M354.47,51.97l41.11,54.62-30.74,.19-41.98-55.81,31.61,1Z"/><path id="Path_3233" class="cls-7" d="M352.41,137.05l-5.89,.04c-6.83,.04-12.39-5.47-12.43-12.29,0-.04,0-.07,0-.11v-18.06l30.74-.19v18.06c0,6.89-5.54,12.49-12.43,12.55"/><path id="Path_3234" class="cls-3" d="M383.15,136.86l-5.89,.04c-6.83,.04-12.39-5.47-12.43-12.29,0-.04,0-.07,0-.11l.51-19.33h28.84l1.39,19.14c0,6.89-5.54,12.49-12.43,12.55"/><path id="Path_3235" class="cls-7" d="M413.89,136.67l-5.89,.04c-6.83,.04-12.39-5.47-12.43-12.29,0-.04,0-.07,0-.11v-18.06l30.74-.19v18.06c0,6.89-5.54,12.49-12.43,12.55"/><path id="Path_3236" class="cls-3" d="M444.63,136.48l-5.89,.04c-6.83,.04-12.39-5.47-12.43-12.29,0-.04,0-.07,0-.11v-18.06l30.74-.19v18.06c0,6.89-5.54,12.49-12.43,12.55"/><path id="Path_3237" class="cls-7" d="M475.37,136.29l-5.89,.04c-6.83,.04-12.39-5.47-12.43-12.29,0-.04,0-.07,0-.11v-18.06l30.74-.19v18.06c0,6.89-5.54,12.49-12.43,12.55"/><path id="Path_3238" class="cls-3" d="M506.11,136.1l-5.89,.04c-6.83,.04-12.39-5.47-12.43-12.29,0-.04,0-.07,0-.11v-18.06l30.5,.8,.24,17.07c0,6.89-5.54,12.49-12.43,12.55"/><path id="Path_3239" class="cls-7" d="M536.85,135.91l-5.89,.04c-6.83,.04-12.39-5.46-12.43-12.29,0-.04,0-.07,0-.11v-18.06l30.74-.19v18.06c0,6.89-5.54,12.49-12.43,12.55"/><path id="Path_3240" class="cls-7" d="M596.67,135.55l-2.58,.02c-7.78,.05-14.08-6.54-14.08-14.72l-2.28-14.8,31.03,.44,2,14.18c0,8.18-6.3,14.84-14.08,14.89"/><path id="Path_3241" class="cls-3" d="M567.59,135.72l-5.89,.04c-6.83,.04-12.39-5.46-12.43-12.29,0-.04,0-.07,0-.11l.92-17.32h27.53l2.28,17.13c0,6.89-5.54,12.49-12.43,12.55"/><path id="Path_3242" class="cls-3" d="M610.75,107.44h0l-277.39-1.12c-.56,0-1.02-.46-1.02-1.02s.46-1.02,1.02-1.02h0l277.39,1.12c.56,0,1.02,.46,1.02,1.02s-.46,1.02-1.02,1.02"/><path id="Path_3243" class="cls-14" d="M172.54,439.66l-111.94-1.11c-20.24,0-37.56-13.22-41.1-33.33L.33,296.49c-2.08-11.46,5.53-22.43,16.98-24.5,1.2-.22,2.42-.33,3.64-.34H93.99l78.55,168.01Z"/><path id="Path_3244" class="cls-14" d="M105.75,572.6h-18.41v-134.24l18.42,.7v133.54Z"/><path id="Path_3245" class="cls-14" d="M140.03,550.14H57.19c-12.92,0-23.4,10.48-23.4,23.4H163.43c0-12.92-10.48-23.4-23.4-23.4h0"/><path id="Path_3246" d="M30.61,356.61c-.49,0-.91-.35-1-.84l-9.29-52.78c-.07-.56,.33-1.06,.89-1.13,.51-.06,.99,.27,1.11,.78l9.29,52.78c.1,.55-.27,1.08-.82,1.18h0c-.06,.01-.12,.02-.18,.02"/><path id="Path_3247" d="M135.92,184c7.35-.65,12.5,6.05,16.61,16.21,3.36,8.29,2.04,15.19-2.5,19.74-14.68,14.71-30.61,57.14-52.39,70.05-17.37,10.3-53.75,8.39-70.55-12.96-15.97-20.3-18.4-49.7-.33-62.93,16.25-11.89,31.38,8.49,48.63-2.57,17-10.9,16.73-19.94,26.79-25.26,10.8-5.71,12.88-.43,33.73-2.28"/><path id="Path_3248" class="cls-9" d="M240.74,507.1c-.15,.64,7.34,34.93,7.34,34.93l-17.22-2.88-5.19-28.99,15.07-3.05Z"/><path id="Path_3249" class="cls-3" d="M238.94,530.78c1.25-1.09,2.82-1.74,4.48-1.83,2.91-.05,5.57,1.66,6.71,4.34,2.99,6.64,10.86,25.13,13.09,40.25,.79,5.34-3.24,9.69-9.52,6.19-10.29-5.74-24.57-18.91-32.05-38.35-.87-2.23-.54-4.75,.86-6.68,1.33-1.85,2.85-3.56,4.52-5.1,1.74-1.54,4.35-1.59,6.14-.1l1.62,1.33c1.21,1,2.96,.98,4.16-.03"/><path id="Path_3250" d="M257.93,582c-1.67-.05-3.31-.53-4.74-1.4-10.8-6.02-25.01-19.39-32.5-38.88-1-2.55-.63-5.43,.99-7.65,1.37-1.91,2.93-3.67,4.67-5.26,2.11-1.89,5.29-1.94,7.46-.13l1.62,1.33c.83,.68,2.03,.67,2.86-.02,1.42-1.24,3.21-1.97,5.09-2.07,3.32-.06,6.36,1.89,7.68,4.94,3.22,7.15,10.94,25.42,13.17,40.51,.47,3.16-.59,6.06-2.76,7.55-1.04,.71-2.27,1.08-3.53,1.06m-27.8-52.6c-.9,0-1.76,.33-2.43,.93-1.63,1.49-3.1,3.15-4.38,4.95-1.2,1.66-1.48,3.81-.73,5.72,7.29,18.98,21.1,31.98,31.59,37.83,2.41,1.34,4.58,1.5,6.12,.44s2.26-3.19,1.9-5.59c-2.19-14.84-9.83-32.9-13.01-39.98-.98-2.29-3.25-3.77-5.74-3.74-1.43,.08-2.79,.65-3.87,1.6-1.57,1.33-3.87,1.34-5.46,.04l-1.62-1.33c-.67-.56-1.51-.86-2.38-.86"/><path id="Path_3251" d="M259.3,575.98c-1.37,0-16.02-.85-33.69-35.77-.26-.5-.07-1.11,.42-1.37s1.11-.07,1.37,.42l.02,.03c17.58,34.76,31.74,34.65,31.89,34.66,.56-.02,1.03,.42,1.05,.98s-.42,1.03-.98,1.05h-.08"/><path id="Path_3252" d="M248.28,556.82c-.56,0-1.02-.46-1.01-1.02,0-.42,.26-.79,.64-.94l8.17-3.22c.53-.19,1.11,.09,1.3,.62,.18,.5-.06,1.06-.55,1.27l-8.17,3.22c-.12,.05-.25,.07-.37,.07"/><path id="Path_3253" d="M245.41,550.56c-.56,0-1.02-.45-1.02-1.01,0-.42,.26-.8,.65-.95l9.58-3.73c.52-.2,1.11,.06,1.32,.58,.2,.52-.06,1.11-.58,1.32h0l-9.58,3.73c-.12,.05-.24,.07-.37,.07"/><path id="Path_3254" class="cls-9" d="M167.25,507.01c-.88,3.64-1.49,7.34-1.83,11.07-1.24,11.3,11.41,21.77,11.41,21.77l-29.96-4.04,1.15-26.15,19.24-2.64Z"/><path id="Path_3255" class="cls-3" d="M153.78,528.21c1.76-.58,1.36-3.29,2.79-4.58,2.17-1.93,4.88-1.89,7.46-.59,6.46,3.26,24.11,12.62,35.27,22.95,3.94,3.65,3.52,9.59-3.54,10.86-11.57,2.08-30.88,.93-48.82-9.43-2.07-1.19-3.39-3.35-3.5-5.74-.1-3.62,.03-7.24,.4-10.85,.38-2.3,2.37-3.98,4.71-3.97h2.09c1.57,0,1.66,1.84,3.15,1.35"/><path id="Path_3256" d="M185.28,558.75c-13.63-.06-27.02-3.66-38.84-10.45-2.38-1.36-3.89-3.84-4.01-6.57-.1-3.69,.03-7.38,.41-11.05,.45-2.79,2.87-4.84,5.7-4.83h2.1c.87,.03,1.68,.42,2.24,1.08,.39,.38,.39,.38,.58,.31,.43-.14,.63-.64,.96-1.66,.23-1.02,.74-1.96,1.48-2.71,2.34-2.09,5.4-2.35,8.6-.74,6.96,3.51,24.36,12.8,35.5,23.11,2.33,2.16,3.32,5.07,2.58,7.6-.44,1.5-1.88,4.15-6.63,5-3.52,.61-7.09,.91-10.66,.89m-36.75-30.86c-1.83,0-3.4,1.31-3.69,3.12-.35,3.53-.48,7.09-.39,10.64,.09,2.04,1.23,3.89,3,4.9,17.5,10.11,36.34,11.44,48.13,9.31,2.72-.49,4.51-1.76,5.04-3.57,.43-2.08-.35-4.22-2.01-5.54-10.95-10.14-28.15-19.32-35.04-22.79-1.7-.86-4.18-1.48-6.33,.44-.44,.52-.75,1.14-.89,1.81-.35,1.11-.8,2.49-2.26,2.97-.96,.32-2.03,0-2.65-.8-.37-.36-.52-.49-.82-.49h-2.1Z"/><path id="Path_3257" d="M184.99,553.51c-7.59,0-19.04-2.06-35.68-9.51-.52-.21-.77-.8-.56-1.32,.21-.52,.8-.77,1.32-.56,.02,0,.05,.02,.07,.03,35.09,15.72,46.28,6.75,46.39,6.66,.42-.37,1.07-.32,1.43,.1,.37,.42,.32,1.07-.1,1.43h0c-.26,.23-3.81,3.18-12.88,3.18"/><path id="Path_3258" d="M176.64,542.73c-.56,0-1.02-.46-1.02-1.02,0-.18,.05-.35,.13-.5l4.33-7.69c.28-.49,.9-.66,1.39-.39s.66,.9,.39,1.39l-4.33,7.69c-.18,.32-.52,.52-.89,.52"/><path id="Path_3259" d="M170.51,539.69c-.56,0-1.02-.45-1.02-1.02,0-.19,.05-.37,.15-.53l4.88-8.01c.29-.48,.92-.63,1.4-.34,.48,.29,.63,.92,.34,1.4h0l-4.88,8.01c-.18,.3-.51,.49-.87,.49"/><path id="Path_3260" d="M86.06,375.16s104.88-4.55,116.35,6.1c15.55,14.44,42.27,134.68,42.27,134.68l-25.8,7.23s-38.87-98.68-48.5-98.68-100.44-3.24-100.44-3.24l16.12-46.1Z"/><path id="Path_3261" d="M65.43,371.84s-13.83,40.61-2.82,48.02,90.35,6.78,87.6,5.85-7.1,66.49-7.1,92.42l24.98,.96s39.81-104.26,35.52-115.9c-7.68-20.83-65.56-27.86-84.47-30.64-3.89-.57-53.71-.7-53.71-.7"/><path id="Path_3262" class="cls-4" d="M190.42,460.77c-.56,0-1.02-.46-1.02-1.02,0-.11,.02-.21,.05-.31,.9-2.81,1.79-5.56,2.67-8.27,6.98-21.57,13.01-40.19,10.53-47.66-5.27-15.89-44.86-22.02-57.87-24.03-.56-.08-.94-.6-.86-1.15,.08-.56,.6-.94,1.15-.86h.02c23.11,3.58,54.42,10.1,59.49,25.4,2.69,8.11-3.14,26.12-10.52,48.93-.87,2.7-1.76,5.46-2.67,8.26-.13,.42-.53,.71-.97,.71"/><path id="Path_3263" class="cls-3" d="M77.86,248.72s.37-6.69-3.76,63.1c0,0,2.85,54,3.2,60.1s53.17,3.44,53.17,3.44c6.25-27.39,5.57-58.82,1.21-92.39l9.05-.81,.63-21.1c-1.64-6.21-8.55-10.68-13.2-12.34-12.37-5.56-34.3-3.77-50.29,0"/><path id="Path_3264" d="M106.76,376.94c-.91,0-1.83,0-2.75-.01-6.14,.03-12.27-.28-18.38-.9-6.43-.78-9.23-2-9.35-4.06-.35-6.02-3.17-59.56-3.2-60.1,0-.04,0-.08,0-.11,1.74-29.28,2.68-45.1,3.19-53.6,.25-4.25,.4-6.67,.48-8.03l.08-1.34c0-.05,0-.1,.01-.15v-.13h.02c.11-.69,.47-1.02,1.06-.99,.1,0,.2,.03,.29,.06,15.33-3.54,37.46-5.58,50.31,.18,4.27,1.54,11.95,5.99,13.8,13.02,.02,.09,.04,.19,.03,.29l-.63,21.1c-.02,.51-.41,.94-.92,.98l-8,.72c4.72,36.99,4.28,66.99-1.36,91.7-.1,.44-.49,.77-.94,.79-.12,0-11.6,.57-23.76,.57m-31.64-65.12c.11,2.03,2.85,54.1,3.2,60.03,0,.03,.46,2.86,25.7,3.05,11.26,.09,22.62-.39,25.63-.52,5.47-24.56,5.8-54.43,1.02-91.28-.07-.56,.32-1.07,.87-1.14h.04l8.15-.73,.6-20.05c-1.5-5.36-7.52-9.71-12.52-11.5l-.07-.03c-12.35-5.55-33.88-3.56-48.91-.1-.18,2.95-.91,15.01-3.71,62.28"/><path id="Path_3265" class="cls-7" d="M145.57,374.63l-2.29-111.31c-.78-5.2-2.61-7.3-6.96-10.21-2.16-1.36-4.53-2.35-7.02-2.9,0,0-1.23-.7-1.5,6.05-.13,3.29,4.05,39.83,4.8,71.14,.52,21.92-2.75,41.07-2.53,45.28,.02,.31,14.44,3.2,15.41,2.23l.09-.29Z"/><path id="Path_3266" d="M109.42,307.3c-.56,0-1.02-.45-1.02-1.01,0-.38,.21-.73,.54-.9,12.46-6.56,13.28-25.07,13.29-25.26,.02-.56,.49-1,1.05-.98s1,.49,.98,1.05h0c-.03,.81-.89,19.87-14.37,26.98-.15,.08-.31,.12-.47,.12"/><path id="Path_3267" class="cls-7" d="M86.78,247.79c-8.17-.53-16.05,3.13-20.91,9.72-8.13,11.11-9.12,23.77-7.59,33.95,2.6,17.28,13.47,36.96,12.97,42.33-.24,2.61-3.01,21.14-13.47,37.73-8.61,13.66-8.24,43.79-6.56,44.78,11.34,6.61,29.93,20.02,52.07,21.61,4.09,.3,7.43-1.82,8.02-5.13,2.36-13.23,8.7-51.6,9.65-87.61,.82-31.19-21.39-78.56-22.37-82.62-2.37-9.86-11.83-14.75-11.83-14.75"/><path id="Path_3268" class="cls-7" d="M98.4,331.2c10.36,23.69,28.88,29.33,59.27,33.37l-3.24,8.96c-45.4,5.67-53.94-3.31-72.3-27.35l16.28-14.98Z"/><path id="Path_3269" class="cls-7" d="M142.28,289.71c2.32,19.6,32.96,48.66,49.44,55.06l-11.05,8.34c-14.24,.51-32.76-15.9-39.16-21.71l.78-41.68Z"/><path id="Path_3270" class="cls-3" d="M172.94,347.23c.41-.82,1.12-1.45,1.98-1.77,.62-.23,1.22-.51,1.8-.82l8.02-4.26c1.5-.74,3.65,.98,5.21,1.49,4.71,1.55,14.46,5.19,13.65,8.61-.87,3.69-9.24,1.94-12.22,1.2-.68-.17-6.84,2.06-8.78,2.21-1.64,.23-3.29-.19-4.62-1.17-.62-.31-1.3-.47-1.99-.46-1.11,0-2.16-.48-2.86-1.34l-.02-.02c-.76-.96-.9-2.27-.34-3.36l.16-.31Z"/><path id="Path_3271" d="M181.72,354.95c-1.29,.04-2.57-.31-3.65-1.02-.17-.1-.36-.2-.55-.31-.47-.24-1-.36-1.52-.34-1.41,0-2.75-.62-3.64-1.72-1.02-1.27-1.21-3.02-.47-4.48l.16-.31c.53-1.05,1.44-1.86,2.54-2.27,.57-.21,1.13-.47,1.67-.76l8.02-4.26c1.54-.75,3.25,.11,4.62,.8,.45,.24,.91,.45,1.39,.63,10.24,3.36,15.07,6.67,14.33,9.81-.22,.9-.8,1.68-1.6,2.15-2.78,1.7-8.52,.64-11.76-.17-.46,.05-2.08,.53-3.28,.89-1.72,.58-3.49,1.02-5.28,1.32-.35,.03-.67,.04-.97,.04m3.86-13.73c-.13,0-.26,.02-.38,.08l-7.99,4.24c-.62,.34-1.27,.63-1.94,.88-.62,.23-1.13,.69-1.42,1.28l-.16,.31c-.37,.73-.28,1.62,.23,2.26,.51,.63,1.28,.99,2.09,.98,.85,0,1.7,.19,2.46,.58,.22,.11,.42,.23,.62,.34,1.02,.67,2.26,.92,3.46,.72,1.65-.3,3.27-.72,4.86-1.24,2.96-.88,3.71-1.07,4.25-.93,4.81,1.2,8.76,1.37,10.31,.43,.34-.18,.58-.5,.67-.88,.33-1.41-3.59-4.33-12.98-7.41-.57-.21-1.13-.45-1.66-.74-.74-.44-1.55-.74-2.4-.88"/><path id="Path_3272" class="cls-4" d="M75.86,390.04c-3.68-.04-7.31-.8-10.71-2.22-.52-.21-.77-.8-.56-1.33,.21-.52,.8-.77,1.33-.56,20.39,8.23,30.73-10.3,31.16-11.1,.28-.49,.9-.65,1.39-.37,.47,.27,.64,.86,.4,1.34-.09,.17-7.94,14.24-23.01,14.24"/><path id="Path_3273" class="cls-4" d="M144.76,333.07c-.55,0-1-.43-1.01-.98l-1.09-30.38c-.03-.56,.39-1.04,.95-1.08,.56-.03,1.04,.39,1.08,.95,0,.02,0,.04,0,.05l1.09,30.38c.02,.56-.42,1.03-.98,1.05h-.04"/><path id="Path_3274" class="cls-4" d="M129.35,376.23c-11.45,0-17.07-2.46-24.21-5.58-1.81-.79-3.67-1.61-5.78-2.46-6.12-2.46-10.56-6.26-14.38-12.32-1.76-2.79-3.26-5.76-4.71-8.63-1.28-2.52-2.59-5.14-4.07-7.58-.28-.49-.1-1.11,.39-1.39,.47-.26,1.06-.12,1.35,.34,1.52,2.51,2.85,5.16,4.14,7.72,1.43,2.83,2.91,5.76,4.61,8.47,3.06,5.23,7.78,9.29,13.42,11.52,2.14,.86,4.02,1.68,5.84,2.48,9.4,4.11,15.61,6.83,35.74,4.66,1.65-.18,8.06-.12,9.7-.05,.56,.04,.98,.53,.94,1.09-.04,.53-.49,.94-1.02,.94-1.73-.07-7.97-.12-9.4,.04-4.17,.48-8.37,.73-12.57,.77"/><path id="Path_3275" class="cls-4" d="M120.21,355.19c-.16,0-.32-.04-.46-.11l-7.18-3.67-.13-.14c-4.58-5.2-8.02-14.14-11.06-23.03-.18-.53,.1-1.11,.63-1.29,.53-.18,1.11,.1,1.29,.63,2.94,8.6,6.25,17.24,10.53,22.2l6.84,3.5c.5,.26,.7,.87,.44,1.37-.17,.34-.52,.55-.9,.55"/><path id="Path_3276" class="cls-3" d="M150.45,368.75c.41-.82,1.12-1.45,1.98-1.77,.62-.23,1.22-.51,1.8-.82l8.02-4.26c1.5-.74,3.65,.98,5.21,1.49,4.71,1.55,14.46,5.19,13.65,8.61-.87,3.69-9.24,1.94-12.22,1.2-.68-.17-6.84,2.06-8.78,2.21-1.64,.23-3.29-.19-4.62-1.17-.62-.31-1.3-.47-1.99-.46-1.11,0-2.16-.48-2.86-1.34l-.02-.02c-.76-.96-.9-2.27-.34-3.36l.16-.31Z"/><path id="Path_3277" d="M159.23,376.46c-1.29,.05-2.57-.31-3.65-1.02-.17-.1-.35-.2-.55-.31-.47-.24-1-.36-1.52-.35-1.41,0-2.75-.62-3.64-1.72-1.02-1.27-1.21-3.02-.47-4.48l.16-.31c.53-1.05,1.44-1.86,2.54-2.27,.57-.21,1.13-.47,1.67-.76l8.02-4.26c1.54-.75,3.25,.11,4.62,.8,.45,.24,.91,.45,1.39,.63,10.24,3.37,15.07,6.67,14.33,9.81-.22,.9-.8,1.68-1.6,2.15-2.78,1.69-8.51,.64-11.76-.17-.47,.05-2.08,.53-3.28,.89-1.72,.58-3.49,1.02-5.28,1.32-.35,.03-.67,.04-.97,.04m3.86-13.73c-.13,0-.26,.02-.38,.08l-7.99,4.24c-.62,.34-1.27,.63-1.94,.88-.62,.23-1.13,.69-1.42,1.28l-.16,.31c-.37,.73-.28,1.62,.23,2.26,.51,.63,1.28,.99,2.09,.98,.85,0,1.7,.19,2.46,.58,.22,.11,.42,.23,.62,.34,1.02,.67,2.26,.92,3.46,.72,1.65-.3,3.27-.72,4.86-1.24,2.96-.88,3.71-1.07,4.25-.93,4.81,1.21,8.76,1.37,10.31,.43,.34-.18,.59-.5,.68-.88,.33-1.41-3.59-4.33-12.98-7.41-.57-.21-1.13-.46-1.66-.74-.74-.44-1.55-.74-2.4-.88"/><path id="Path_3278" class="cls-3" d="M145.15,234.2c1.06-.14,1.8-1.12,1.66-2.18,0-.05-.02-.1-.03-.15-1.52-6.83-.94-18.54-1.16-18.21-2.44,3.58-7.51-.91-14.74-1.2-4.31-.17-5.96,2.38-6.6,4.47-.14,.44-.61,.69-1.05,.55-.18-.06-.34-.18-.45-.34-1.05-1.63-2.85-3.02-5.52-.34-2.97,2.97-.48,9.87,2.2,12.13-.65,.74-10.92,11.82-18.8,20.14-1.45,1.53-1.38,3.94,.15,5.38,.1,.1,.21,.19,.32,.27l7,5.32c4.38,3.32,10.36,3.55,14.98,.58l1.08-.7c.99-.63,1.28-1.95,.64-2.94-.07-.11-.15-.21-.24-.31l-2.12-2.25c-1.72-2.04-1.4-4.63-.3-6.79l4.33-7.34c.99,1.26,2.14,2.4,3.41,3.39,2.22,1.61,5.28,1.36,7.21-.58,2.57-2.33,4.5-5.28,5.63-8.56l2.41-.33Z"/><path id="Path_3279" d="M116.04,263.7c-3.08,0-6.07-1-8.53-2.86l-7-5.32c-2.12-1.61-2.54-4.64-.93-6.76,.11-.14,.22-.27,.34-.4,6.91-7.3,15.66-16.71,18.13-19.4-1.86-2.24-2.97-5.02-3.15-7.93-.18-1.81,.41-3.61,1.64-4.95,.96-1.16,2.4-1.82,3.91-1.78,1.24,.19,2.32,.92,2.98,1.98,.72-2.04,2.59-5.02,7.5-4.83,2.69,.19,5.35,.74,7.9,1.63,3.57,1.11,5.01,1.4,5.96,.01,.25-.37,.72-.53,1.15-.4,.77,.24,.77,.45,.77,3.12,0,3.58,0,11.02,1.08,15.85,.18,.8,.01,1.63-.45,2.3-.47,.68-1.21,1.13-2.03,1.25l-1.79,.25c-1.22,3.2-3.17,6.07-5.69,8.38-2.28,2.27-5.88,2.56-8.49,.68-.98-.73-1.88-1.56-2.67-2.48l-3.61,6.12c-.62,1.22-1.46,3.64,.21,5.61l2.09,2.21c1.19,1.26,1.13,3.25-.13,4.44-.14,.13-.29,.25-.45,.36l-1.08,.7c-2.27,1.46-4.92,2.23-7.62,2.23m4.06-47.39c-.83,.14-1.58,.56-2.12,1.21-.8,.95-1.18,2.19-1.04,3.42,.16,2.71,1.29,5.26,3.18,7.2,.43,.36,.49,1,.12,1.43v.02c-.65,.72-10.75,11.62-18.84,20.16-1.06,1.12-1.01,2.89,.11,3.95,.07,.07,.15,.13,.23,.2l7,5.32c4.04,3.05,9.55,3.27,13.82,.54l1.08-.7c.52-.33,.67-1.02,.34-1.54-.04-.06-.08-.11-.13-.16l-2.12-2.25c-1.8-2.14-1.96-5.02-.47-7.94l4.36-7.39c.29-.48,.91-.64,1.39-.36,.1,.06,.19,.14,.27,.23,.93,1.2,2.01,2.27,3.21,3.2,1.82,1.33,4.34,1.13,5.92-.48,2.45-2.21,4.29-5,5.35-8.12,.12-.38,.44-.66,.83-.71l2.41-.34c.26-.04,.49-.18,.64-.4,.14-.2,.19-.46,.14-.7-1.13-5.05-1.12-12.64-1.12-16.29v-.07c-1.79,.73-4.07,.02-6.44-.72-2.38-.84-4.86-1.36-7.38-1.54-2.91-.11-4.79,1.15-5.59,3.75-.3,.98-1.34,1.53-2.32,1.22-.41-.13-.77-.4-1.01-.76-.35-.67-.96-1.17-1.69-1.38-.04,0-.09,0-.13,0"/><path id="Path_3280" class="cls-3" d="M125.11,238.37l1.38,1.93-1.38-1.93Z"/><path id="Path_3281" d="M126.49,241.31c-.33,0-.64-.16-.83-.42l-1.38-1.93c-.33-.46-.22-1.09,.23-1.42,.46-.33,1.09-.22,1.42,.23h0l1.38,1.93c.33,.46,.22,1.09-.23,1.42-.17,.12-.38,.19-.59,.19"/><path id="Path_3282" class="cls-7" d="M194.07,372.25l24.31-71.64c1.49-2.26,4.02-3.62,6.73-3.61h64.8c2.22-.04,4.06,1.72,4.11,3.94,0,.49-.07,.97-.23,1.43-.38,1-.79,1.99-1.13,3.01l-21.97,66.99h0c-.07,3.92-3.26,7.07-7.19,7.07h-119.58c-3.97,0-7.19-3.23-7.19-7.2h57.36Z"/><path id="Path_3283" d="M263.49,380.47h-119.58c-4.53,0-8.21-3.68-8.21-8.22,0-.56,.45-1.02,1.02-1.02h56.63l24.08-70.95c.03-.08,.06-.16,.11-.23,1.67-2.56,4.53-4.09,7.58-4.07h64.8c1.7-.02,3.29,.81,4.25,2.21,.93,1.33,1.14,3.03,.57,4.55-.11,.29-.22,.57-.33,.86-.28,.72-.55,1.41-.78,2.11l-21.93,66.88c-.2,4.39-3.8,7.86-8.2,7.88m-125.67-7.2c.5,2.98,3.07,5.16,6.09,5.17h119.58c3.36-.02,6.1-2.71,6.17-6.07,0-.15,.04-.29,.1-.42l21.93-66.87c.25-.76,.54-1.5,.82-2.22,.11-.28,.22-.56,.33-.84,.33-.89,.2-1.89-.34-2.67-.58-.85-1.55-1.34-2.58-1.33h-64.8c-2.32-.02-4.5,1.12-5.81,3.04l-24.27,71.52c-.14,.41-.53,.69-.96,.69h-56.25Z"/><path id="Path_3284" class="cls-6" d="M242.23,333.72c-.91,3.03,.48,6.14,3.12,6.94s5.51-1.02,6.42-4.05-.48-6.14-3.12-6.94-5.51,1.02-6.42,4.05"/><path id="Path_3285" class="cls-3" d="M383.24,378.26H95.54c-5.36,0-9.53,5.04-8.92,10.79l19.87,188.31h14.35l-12.44-176.74c-.31-2.86,1.76-5.44,4.62-5.75,.11-.01,.22-.02,.33-.03h246.96c4.33,0,7.74,3.97,7.42,8.64l-12.31,174.98h14.35l20.2-192.07c.46-4.34-2.69-8.14-6.73-8.14"/><path id="Path_3286" d="M370.68,579.48h-16.35l.08-1.09,12.31-174.98c.16-2.03-.53-4.03-1.9-5.54-1.15-1.27-2.78-2-4.5-2.01H113.35c-1.05,0-2.05,.45-2.76,1.23-.85,.94-1.28,2.18-1.18,3.45l12.51,177.83h-16.35l-19.96-189.22c-.35-3.14,.64-6.28,2.74-8.64,1.82-2.07,4.44-3.26,7.19-3.27H383.24c2.15,0,4.19,.93,5.61,2.55,1.63,1.83,2.4,4.27,2.13,6.71l-20.3,192.98Zm-14.17-2.03h12.34l20.11-191.16c.21-1.86-.38-3.73-1.62-5.14-1.03-1.19-2.53-1.87-4.1-1.88H95.54c-2.18,.01-4.25,.96-5.68,2.6-1.71,1.93-2.52,4.5-2.23,7.07l19.77,187.4h12.34l-12.36-175.65c-.14-1.83,.49-3.63,1.72-4.98,1.09-1.19,2.63-1.88,4.25-1.88h246.97c2.28,0,4.45,.97,5.99,2.66,1.76,1.92,2.64,4.48,2.45,7.07l-12.24,173.89Z"/></g></g></g></g></g></g></svg>