<svg id="Group_995" data-name="Group 995" xmlns="http://www.w3.org/2000/svg" xmlns:xlink="http://www.w3.org/1999/xlink" width="617.376" height="622.82" viewBox="0 0 617.376 622.82">
  <defs>
    <clipPath id="clip-path">
      <rect id="Rectangle_1035" data-name="Rectangle 1035" width="617.376" height="622.82" fill="none"/>
    </clipPath>
    <clipPath id="clip-path-3">
      <rect id="Rectangle_1033" data-name="Rectangle 1033" width="572.245" height="572.924" transform="translate(45.131 16.027)" fill="none"/>
    </clipPath>
  </defs>
  <g id="Group_1000" data-name="Group 1000" clip-path="url(#clip-path)">
    <g id="Group_999" data-name="Group 999">
      <g id="Group_998" data-name="Group 998" clip-path="url(#clip-path)">
        <g id="Group_997" data-name="Group 997" opacity="0.6">
          <g id="Group_996" data-name="Group 996">
            <g id="Group_995-2" data-name="Group 995" clip-path="url(#clip-path-3)">
              <path id="Path_5896" data-name="Path 5896" d="M611.868,237.079c-25.694-130.5-155.42-209.381-264.3-219.441-90.2-8.335-199.54,14.4-250.068,98.05-30.959,51.253,7.232,73.825-14.185,187.262-18.538,98.185-52.328,133.56-31.762,183.6,16.815,40.911,55.075,58.841,80.193,71.209,99,48.75,281.347,44.877,389.623-44.052,25.339-20.811,119.563-129,90.5-276.63" fill="#98d8f4"/>
            </g>
          </g>
        </g>
        <path id="Path_5897" data-name="Path 5897" d="M382.107,49.71c16.865,16.865,18.641,39.85,2.654,55.837s-37.85,18.35-57.235-.909c-17.536-17.532-17.157-40.983-1.225-56.92S366.086,33.7,382.107,49.71Z" fill="none" stroke="#536876" stroke-miterlimit="10" stroke-width="1"/>
        <path id="Path_5898" data-name="Path 5898" d="M408.178,23.361C378.466-6.35,331.446-7.488,301.745,22.213a86.607,86.607,0,0,0-8.87,10.405A79.891,79.891,0,0,0,284.789,46.6a74.416,74.416,0,0,0-2.88,7.383c-.423,1.245-.8,2.512-1.148,3.769-.174.651-1.192,3.011-.217,3.4a1.632,1.632,0,0,0,.468.01l9.23.13,3.737.054c.812.011,2.068.352,2.675-.378a4.876,4.876,0,0,0,.619-1.549l.65-1.907a61.38,61.38,0,0,1,3.281-7.441,65.541,65.541,0,0,1,9.517-13.658l2.37-2.372c23.462-23.461,60.583-22.563,84.044.9a66.09,66.09,0,0,1,14.011,20.31c-.434.434-.953.8-1.4,1.246a17.982,17.982,0,1,0,17.309-4.615A83.111,83.111,0,0,0,408.178,23.361Zm19.4,51.18a7.522,7.522,0,1,1,0-10.638h0a7.522,7.522,0,0,1,0,10.636Z" fill="none" stroke="#536876" stroke-miterlimit="10" stroke-width="1"/>
        <path id="Path_5899" data-name="Path 5899" d="M279.834,101.579a18.684,18.684,0,0,0,2.795.779A79.168,79.168,0,0,0,301.2,130.781c35.886,35.886,79.386,28.694,109.1-1.017a78.311,78.311,0,0,0,8.07-9.457,74.4,74.4,0,0,0,6.216-10.225,71.53,71.53,0,0,0,4.336-10.832c.359-1.158.682-2.328,1-3.508L430.338,94a1.614,1.614,0,0,0,.1-.9c-.131-.434-.4-.4-.81-.379s-1.129-.043-1.712-.043l-7.713-.044-3.543.033a4.274,4.274,0,0,0-2.307.271,1.2,1.2,0,0,0-.455.628l-.488,1.679c-.352,1.094-.748,2.2-1.137,3.3a57.594,57.594,0,0,1-5.508,10.663,61.911,61.911,0,0,1-7.916,9.717c-23.495,23.428-57.832,29.1-86.232.747a63.027,63.027,0,0,1-14.189-21.229c.281-.282.606-.5.888-.78a17.8,17.8,0,0,0,0-25.173h0a17.847,17.847,0,1,0-19.475,29.085Zm.217-12.63a7.384,7.384,0,0,1-.65-5.39,7.66,7.66,0,1,1,5.8,9.148h0A7.909,7.909,0,0,1,280.051,88.949Z" fill="none" stroke="#536876" stroke-miterlimit="10" stroke-width="1"/>
        <path id="Path_5900" data-name="Path 5900" d="M26.382,81.741a85.989,85.989,0,0,0-3.78,13.95L.522,100.647.5,121.392l22.1,5.01a87.088,87.088,0,0,0,3.721,13.948L9.653,155.7l10.353,17.976,21.614-6.7a85.859,85.859,0,0,0,10.227,10.213L45.09,198.818l17.955,10.393,15.387-16.63a85.986,85.986,0,0,0,13.95,3.779l4.956,22.08,20.744.023,5.011-22.1a87.064,87.064,0,0,0,13.946-3.721l15.355,16.668,17.972-10.359-6.7-21.613a85.948,85.948,0,0,0,10.215-10.227l21.626,6.756L205.9,155.911l-16.632-15.383a85.889,85.889,0,0,0,3.78-13.95l22.08-4.956.022-20.744-22.1-5.011a86.963,86.963,0,0,0-3.722-13.946l16.668-15.354L195.641,48.59l-21.614,6.7A85.914,85.914,0,0,0,163.8,45.077l6.756-21.626L152.6,13.061,137.218,29.692a85.987,85.987,0,0,0-13.952-3.781L118.312,3.833,97.566,3.811l-5.01,22.1a87.076,87.076,0,0,0-13.947,3.721L63.256,12.966,45.28,23.318l6.7,21.614A86.006,86.006,0,0,0,41.766,55.158L20.14,48.4,9.751,66.355Zm35.224,2.643a53.4,53.4,0,1,1,19.468,72.968A53.4,53.4,0,0,1,61.606,84.384h0Z" fill="none" stroke="#536876" stroke-miterlimit="10" stroke-width="1"/>
        <path id="Path_5901" data-name="Path 5901" d="M421.971,565.032H306.29L246.584,460.526V551.8c0,14.274,10.411,25.692,23.029,25.692H421.971a4.414,4.414,0,0,0,4.662-4.149v-4.115a4.432,4.432,0,0,0-4.654-4.2h-.009" fill="#99b9ff"/>
        <path id="Path_5902" data-name="Path 5902" d="M263.55,493.358V545.12a18.731,18.731,0,0,0,18.588,18.873h99.83V493.358Z" fill="#fff"/>
        <path id="Path_5903" data-name="Path 5903" d="M383.006,565.031H282.359a19.669,19.669,0,0,1-19.849-19.488c0-.141,0-.282,0-.423v-52.8h120.5ZM264.588,494.4V545.12a17.614,17.614,0,0,0,17.392,17.833c.126,0,.253,0,.379,0h98.569V494.4Z" fill="#536876"/>
        <path id="Path_5904" data-name="Path 5904" d="M576.983,498.135,91.309,499.2a8.446,8.446,0,0,1-8.37-7.38L44.251,189.469c-.941-7.356,4.421-14.3,11.823-14.3l479.391.436Z" fill="#118bcb"/>
        <path id="Path_5905" data-name="Path 5905" d="M586.934,497.749H110.962a8.454,8.454,0,0,1-8.369-7.4L64.151,190.73a13.89,13.89,0,0,1,13.723-15.7H547.711a8.455,8.455,0,0,1,8.369,7.4l39.228,305.745a8.469,8.469,0,0,1-8.369,9.572" fill="#fff"/>
        <path id="Path_5906" data-name="Path 5906" d="M586.935,498.791H110.963a9.515,9.515,0,0,1-9.4-8.307L63.122,190.859a15,15,0,0,1,3.611-11.821,14.848,14.848,0,0,1,11.139-5.047H547.707a9.515,9.515,0,0,1,9.4,8.307l39.229,305.745a9.507,9.507,0,0,1-9.4,10.743M77.872,176.07a12.769,12.769,0,0,0-9.581,4.341,12.926,12.926,0,0,0-3.109,10.18l38.443,299.625a7.432,7.432,0,0,0,7.338,6.493H586.935a7.384,7.384,0,0,0,5.539-2.509,7.479,7.479,0,0,0,1.8-5.892L555.045,182.563a7.433,7.433,0,0,0-7.338-6.494Z" fill="#536876"/>
        <path id="Path_5907" data-name="Path 5907" d="M101.575,146.36H518.434c9.2,0,17.572,7.484,18.7,16.718L572.3,451.413c1.138,9.331-5.439,16.9-14.692,16.9H138.4c-9.252,0-17.616-7.566-18.682-16.9L86.82,163.078c-1.053-9.234,5.551-16.718,14.752-16.718" fill="#98d8f4"/>
        <path id="Path_5908" data-name="Path 5908" d="M538.451,173.29l-.785-10.36c-1.116-9.151-9.782-16.439-18.982-16.439H101.823c-9.2,0-15.9,7.288-14.858,16.439l.976,12.754Z" fill="#118bcb"/>
        <path id="Path_5909" data-name="Path 5909" d="M113.207,163.361a4.707,4.707,0,0,1-4.766,5.385,6.2,6.2,0,0,1-6-5.385,4.707,4.707,0,0,1,4.766-5.383,6.2,6.2,0,0,1,6,5.383" fill="#98d8f4"/>
        <path id="Path_5910" data-name="Path 5910" d="M130.39,163a4.7,4.7,0,0,1-4.764,5.385,6.2,6.2,0,0,1-6-5.385,4.7,4.7,0,0,1,4.764-5.383,6.2,6.2,0,0,1,6,5.383" fill="#98d8f4"/>
        <path id="Path_5911" data-name="Path 5911" d="M149.132,163.72a4.7,4.7,0,0,1-3.963,5.336,4.763,4.763,0,0,1-.8.049,6.2,6.2,0,0,1-6-5.385,4.7,4.7,0,0,1,4.763-5.383,6.2,6.2,0,0,1,6,5.383" fill="#98d8f4"/>
        <path id="Path_5912" data-name="Path 5912" d="M484.475,469.351H138.555c-9.75,0-18.593-7.994-19.713-17.818L85.942,163.2a16.032,16.032,0,0,1,3.84-12.69,15.742,15.742,0,0,1,11.946-5.187h416.86c9.694,0,18.544,7.909,19.729,17.631l11.436,93.769a1.039,1.039,0,1,1-2.063.251L536.255,163.21c-1.062-8.715-8.987-15.8-17.666-15.8H101.728a13.694,13.694,0,0,0-10.394,4.49,13.982,13.982,0,0,0-3.326,11.071l32.9,288.335c1,8.809,8.923,15.976,17.65,15.976h345.92a1.039,1.039,0,1,1,0,2.078" fill="#536876"/>
        <path id="Path_5913" data-name="Path 5913" d="M421.249,578.189H274.976a1.039,1.039,0,0,1,0-2.078H421.249a3.347,3.347,0,0,0,3.309-3.383c0-.023,0-.047,0-.07v-4.089a3.432,3.432,0,0,0-3.307-3.537h-42.4a1.039,1.039,0,0,1-.064-2.077c.022,0,.043,0,.064,0h42.4a5.51,5.51,0,0,1,5.384,5.615v4.089a5.465,5.465,0,0,1-5.384,5.531" fill="#536876"/>
        <path id="Path_5914" data-name="Path 5914" d="M601.671,192.108a41.8,41.8,0,1,1-41.8-41.8,41.8,41.8,0,0,1,41.8,41.8" fill="#fff"/>
        <path id="Path_5915" data-name="Path 5915" d="M559.875,234.939A42.835,42.835,0,1,1,602.709,192.1h0a42.882,42.882,0,0,1-42.834,42.835m0-83.592A40.757,40.757,0,1,0,600.631,192.1v0a40.8,40.8,0,0,0-40.756-40.756" fill="#536876"/>
        <path id="Path_5916" data-name="Path 5916" d="M551.254,187.649a1.03,1.03,0,0,1-.734-.3l-5.917-5.915a1.039,1.039,0,0,1,1.469-1.469l5.916,5.916a1.039,1.039,0,0,1-.735,1.773" fill="#fff"/>
        <path id="Path_5917" data-name="Path 5917" d="M588.364,192.1a28.489,28.489,0,1,1-28.489-28.489A28.489,28.489,0,0,1,588.364,192.1" fill="#118bcb"/>
        <path id="Path_5918" data-name="Path 5918" d="M572.368,198.354a1.1,1.1,0,0,1,.3.04,1.124,1.124,0,0,1,.786,1.381,14.081,14.081,0,0,1-26.9.845,1.124,1.124,0,1,1,2.126-.73,11.834,11.834,0,0,0,22.6-.709,1.123,1.123,0,0,1,1.083-.827" fill="#fff"/>
        <path id="Path_5919" data-name="Path 5919" d="M574.8,186.337a.937.937,0,0,1-.937-.937,3.8,3.8,0,1,0-7.61,0,.937.937,0,1,1-1.873,0,5.678,5.678,0,0,1,11.357,0,.937.937,0,0,1-.937.937" fill="#fff"/>
        <path id="Path_5920" data-name="Path 5920" d="M554.436,186.337a.937.937,0,0,1-.937-.937,3.805,3.805,0,0,0-7.61,0,.936.936,0,1,1-1.873,0,5.678,5.678,0,0,1,11.357,0,.937.937,0,0,1-.937.937" fill="#fff"/>
        <path id="Path_5921" data-name="Path 5921" d="M488.1,556.546s-8.267,10.968-7.676,18.182l-.168,2.791L463,561.817l2.41-.977c3.82-2.611,7.853-4.164,10.072-8.223Z" fill="#118bcb"/>
        <path id="Path_5922" data-name="Path 5922" d="M483.389,571.13l-.267,3.4a41.664,41.664,0,0,0,3.252,19.7L488.421,599a1.49,1.49,0,0,1-.113,1.391l-.135.212c-1.5,2.355-8.132,4.385-16.515-1.3-5.186-3.517-15.7-13.28-22.9-30.337a2.662,2.662,0,0,1,.738-3.076c3.266-2.74,11.326-8.993,17.614-9.7a1.179,1.179,0,0,1,1.325,1.152l.061,6.769a5.482,5.482,0,0,0,5.556,5.433l7.758-.1a1.56,1.56,0,0,1,1.576,1.682" fill="#fff"/>
        <path id="Path_5923" data-name="Path 5923" d="M482.091,603.957c-2.638,0-6.44-.756-10.985-3.839-2.4-1.629-14.82-10.771-23.252-30.768a3.631,3.631,0,0,1,1.012-4.213c3.265-2.738,11.566-9.186,18.138-9.919a2.2,2.2,0,0,1,1.7.535,2.149,2.149,0,0,1,.722,1.587l.061,6.768a4.5,4.5,0,0,0,4.5,4.459h.061l7.758-.1a2.521,2.521,0,0,1,1.891.8,2.55,2.55,0,0,1,.68,1.939l-.267,3.4a40.827,40.827,0,0,0,3.175,19.236l2.047,4.769a2.474,2.474,0,0,1-.188,2.31l-.135.211a6.807,6.807,0,0,1-4.433,2.584,12.334,12.334,0,0,1-2.478.241M467.25,557.173h-.028c-6.038.674-13.964,6.848-17.091,9.472a1.67,1.67,0,0,0-.463,1.94c8.216,19.485,20.22,28.328,22.543,29.9,5.673,3.846,9.93,3.716,11.961,3.3a4.948,4.948,0,0,0,3.171-1.715l.135-.212a.506.506,0,0,0,.039-.473l-2.048-4.77a42.8,42.8,0,0,1-3.328-20.166l.267-3.4a.572.572,0,0,0-.154-.439.522.522,0,0,0-.428-.182l-7.758.1a6.55,6.55,0,0,1-4.608-1.843,6.419,6.419,0,0,1-1.945-4.565l-.061-6.769a.168.168,0,0,0-.059-.131.217.217,0,0,0-.145-.053m16.139,13.956h0Z"/>
        <path id="Path_5924" data-name="Path 5924" d="M487.553,598.252a.986.986,0,0,1-.391-.081l-1.071-.465a23.655,23.655,0,0,1-12.728-13.482l-.716-1.947a.274.274,0,0,0-.258-.192.277.277,0,0,0-.279.159l-.924,1.821a2.469,2.469,0,0,1-3.963.612,52.854,52.854,0,0,1-11.8-18.406l-1.466-3.861a.984.984,0,1,1,1.84-.7l1.466,3.86A50.9,50.9,0,0,0,468.626,583.3a.5.5,0,0,0,.8-.124l.925-1.82a2.262,2.262,0,0,1,4.139.245l.716,1.947A21.676,21.676,0,0,0,486.875,595.9l1.07.464a.984.984,0,0,1-.392,1.887"/>
        <path id="Path_5925" data-name="Path 5925" d="M550.975,587.346s-.947,10.8,3.528,15.92l1.394,2.2-20.991-1.114,1.014-2.3c1.8-4.088,3.19-10.666,2.838-14.962Z" fill="#118bcb"/>
        <path id="Path_5926" data-name="Path 5926" d="M553.857,596.286l2.108,2.17a36.961,36.961,0,0,0,15.026,9.376l4.376,1.43a1.323,1.323,0,0,1,.861.891l.061.214c.688,2.38-1.843,7.985-10.539,10.238-5.232,1.356-17.352,2.609-32.337-2.106a4.112,4.112,0,0,1-2.851-4.117c.194-4.3.952-11.958,3.844-16.046a1.015,1.015,0,0,1,1.511-.168l4.547,3.928a4.863,4.863,0,0,0,6.873-.518l4.476-5.228a1.385,1.385,0,0,1,2.044-.064" fill="#fff"/>
        <path id="Path_5927" data-name="Path 5927" d="M554.34,622.82a70.758,70.758,0,0,1-21.222-3.383,5.1,5.1,0,0,1-3.538-5.1c.2-4.341.978-12.265,4.023-16.571a2,2,0,0,1,1.383-.83,2.042,2.042,0,0,1,1.575.486l4.547,3.928a3.878,3.878,0,0,0,5.482-.413l4.476-5.228a2.368,2.368,0,0,1,3.5-.111h0l2.107,2.17A36.124,36.124,0,0,0,571.3,606.9l4.376,1.43a2.307,2.307,0,0,1,1.5,1.553l.061.213a6.142,6.142,0,0,1-.886,4.554c-1.056,1.853-3.806,5.215-10.352,6.911a48.181,48.181,0,0,1-11.657,1.263m-19.066-23.907c-2.819,3.886-3.542,11.388-3.728,15.513a3.127,3.127,0,0,0,2.163,3.134c17.135,5.393,29.492,2.689,31.794,2.092,5.846-1.515,8.234-4.4,9.137-5.982a4.289,4.289,0,0,0,.7-3.031l-.062-.212a.339.339,0,0,0-.222-.23l-4.375-1.43a38.083,38.083,0,0,1-15.426-9.626l-2.108-2.169a.432.432,0,0,0-.3-.121.4.4,0,0,0-.291.139l-4.476,5.228a5.847,5.847,0,0,1-8.264.622Z"/>
        <path id="Path_5928" data-name="Path 5928" d="M550.744,615.175a46.939,46.939,0,0,1-16.545-3.007l-3.431-1.285a.984.984,0,0,1,.691-1.843l3.43,1.286a45,45,0,0,0,18.417,2.809.334.334,0,0,0,.292-.456L552.927,611a2.118,2.118,0,0,1,2.732-2.759l1.716.665a19.124,19.124,0,0,0,14.975-.528l.937-.441a.984.984,0,0,1,.838,1.781l-.937.441a21.1,21.1,0,0,1-16.524.582l-1.716-.665a.15.15,0,0,0-.193.2l.671,1.682a2.3,2.3,0,0,1-2.011,3.151q-1.338.074-2.671.074"/>
        <path id="Path_5929" data-name="Path 5929" d="M513.271,410.669S504.8,438.7,519.243,458.6c19.464,26.807,8.343,88.656,18.084,130.244a1.747,1.747,0,0,0,1.725,1.342l11.8-.128a1.746,1.746,0,0,0,1.672-1.3c2.776-10.37,21.409-80.562,20.81-94.552-.136-3.192-.542-6.914-1.1-10.826a187.162,187.162,0,0,0-16.764-54.615l-12.976-26.922Z"/>
        <path id="Path_5930" data-name="Path 5930" d="M504.132,407.5s-10.657,19.806-5.941,40.643a63.422,63.422,0,0,1-7.375,46.257c-4.941,8.039-13.992,28.316-17.173,58.457a2.387,2.387,0,0,0,.72,1.972,18.686,18.686,0,0,0,12,5.086,2.4,2.4,0,0,0,1.9-.81c4.9-5.573,33.131-38.287,43.162-64.309,11-28.541,13.063-75.97,13.063-75.97s-27.386,2.894-40.363-11.326"/>
        <path id="Path_5931" data-name="Path 5931" d="M530.067,503.539a.985.985,0,0,1-.981-.913c-1.2-16.612-3.322-33.374-10.64-43.453-5.585-7.693-8.486-17.4-8.624-28.857a.984.984,0,1,1,1.968-.023c.133,11.04,2.908,20.368,8.249,27.725,7.608,10.477,9.788,27.563,11.01,44.466a.983.983,0,0,1-.91,1.052l-.072,0" fill="#caddff"/>
        <path id="Path_5932" data-name="Path 5932" d="M525.832,295.974c-5.093,1.906-6.222,8.032-9.817,11.56-4.482,4.4-10.921,3.592-16.262,1.436-5.97-2.411-11.492-7.146-18.075-4.108-5.4,2.495-7,7.527-7.282,13.041a20.181,20.181,0,0,1-.918,5.631,7.244,7.244,0,0,1-2.685,3.708c-2.057,1.361-4.721,1.176-7.187,1.18-11.9.018-6.374,11.78-2.37,17.715,5.008,7.423,13.291,12.449,22.008,14.274a16.26,16.26,0,0,0,10.314-.866c2.477-1.188,4.463-3.171,6.611-4.884,5.6-4.466,13.35-2.189,19.46-6.07,9.291-5.9,13.583-17.607,20.091-26.042,4.046-5.244,8.984-11.01,10.906-17.462,1.331-4.466.04-18.156-7.862-14.885a21.218,21.218,0,0,0-3.924,2.682c-4.3,3.058-8.544,1.419-13.008,3.09"/>
        <path id="Path_5933" data-name="Path 5933" d="M502.354,339.813s25.3-12.55,48.6-7.362c0,0,13.951,8.2,11.553,23.766a234.233,234.233,0,0,0-2.826,34.552c-.036,6.929-2.4,27.415-4.088,29.818-3.628,5.176-10.43,2.8-27.554,1.312-20.119-1.75-22.545-5.6-26.68-10.06-2.754-2.97-.737-14.151-.407-16.19,1.655-10.214,7.142-26.4,1.4-55.836" fill="#72005d"/>
        <path id="Path_5934" data-name="Path 5934" d="M540.611,345.14l6.4-8.365c3.853-6.312,12.373-8.677,19.257-11.379,28.546-11.208,30.427-38.616,32.714-50.7l10.193.534s13.065,67.052-51.664,86.585Z" fill="#72005d"/>
        <path id="Path_5935" data-name="Path 5935" d="M468.515,266.865c9.868,33.5,21.985,52.493,42.421,73.259,0,0,6.966,54.134-37.815-10.947-15.469-22.482-11.487-60.085-11.487-60.085Z" fill="#72005d"/>
        <path id="Path_5936" data-name="Path 5936" d="M468.353,268.871a8.409,8.409,0,0,0,1.539-1.244c2.462-2.5,6.473-8.664,2.763-11.737-2.787-2.309-7.757-1.053-10.568.51-3.513,1.955-2.67,7.22-1.194,10.281,1.638,3.4,4.754,3.875,7.46,2.19" fill="#fff"/>
        <path id="Path_5937" data-name="Path 5937" d="M465.307,270.8a5.394,5.394,0,0,1-1.5-.211,6.2,6.2,0,0,1-3.8-3.479c-1.632-3.384-2.552-9.257,1.6-11.568,2.517-1.4,8.2-3.289,11.674-.408a5,5,0,0,1,1.853,3.741c.185,3.631-2.891,7.766-4.544,9.444a9.383,9.383,0,0,1-1.719,1.389,6.772,6.772,0,0,1-3.566,1.092m3.045-1.927h0Zm.265-13.266a13.547,13.547,0,0,0-6.052,1.655c-2.943,1.637-2.044,6.386-.786,8.994a3.885,3.885,0,0,0,6.053,1.781,7.362,7.362,0,0,0,1.357-1.1c1.677-1.7,4.12-5.229,3.982-7.965a3.065,3.065,0,0,0-1.144-2.324,5.254,5.254,0,0,0-3.41-1.043"/>
        <path id="Path_5938" data-name="Path 5938" d="M605.525,275.831a8.581,8.581,0,0,0,1.838-.457c3.085-1.124,7.608-5.662,6.75-9.291-1.23-5.2-12.511-6.143-15.345-2.22-3.434,4.753.827,12.728,6.757,11.968" fill="#fff"/>
        <path id="Path_5939" data-name="Path 5939" d="M604.754,276.863a8.051,8.051,0,0,1-6.824-4.2,8.566,8.566,0,0,1,.04-9.377c1.992-2.756,6.77-3.24,10.366-2.524,3.634.724,6.151,2.629,6.734,5.093,1.049,4.431-4.176,9.279-7.371,10.442a9.464,9.464,0,0,1-2.048.509,6.959,6.959,0,0,1-.9.057m.589-14.427c-2.568,0-4.869.746-5.778,2a6.607,6.607,0,0,0,.057,7.217,6.019,6.019,0,0,0,5.778,3.2,7.434,7.434,0,0,0,1.625-.406c2.862-1.042,6.828-5.19,6.13-8.139-.4-1.7-2.346-3.047-5.2-3.616a13.467,13.467,0,0,0-2.609-.257"/>
        <path id="Path_5940" data-name="Path 5940" d="M518.457,335.883l23.608,6.8,2.809-10.842-7.585-1.124.1-2.895a12.623,12.623,0,0,0,8.115-2.563,1.519,1.519,0,0,0,.562-1.36l-.739-6.579c.826-.481,1.975-1.982.556-3.236s-3.953-8.214-3.953-8.214c-3.57-5.772-5.963,1.192-9.323,1.274-2.325.058-3.769,1.241-3.381,4.331s-1,1.352-2.533.247-2.764-.628-2.275,2.2,3.56,4.97,3.56,4.97l.3.923c-1,3.865-3.4,13.915-3.4,13.915Z" fill="#fff"/>
        <path id="Path_5941" data-name="Path 5941" d="M542.065,343.664a.971.971,0,0,1-.272-.038l-23.608-6.8a.984.984,0,0,1-.04-1.879l5.906-1.979c.5-2.072,2.317-9.656,3.208-13.122l-.115-.353c-.827-.643-3.225-2.71-3.691-5.4-.317-1.837-.017-3.056.893-3.624.461-.286,1.453-.611,2.929.456.291.21.578.441.849.661l.143.116c0-.032-.008-.067-.012-.1a5.041,5.041,0,0,1,.89-4.052,4.47,4.47,0,0,1,3.444-1.384c.859-.022,1.812-.83,2.734-1.612,1.2-1.018,2.562-2.172,4.191-1.914,1.176.186,2.242,1.074,3.258,2.716a1.008,1.008,0,0,1,.088.181c1.017,2.793,2.831,7.064,3.68,7.814a2.65,2.65,0,0,1,.99,2.311,3.375,3.375,0,0,1-1.156,2.115l.675,6.018a2.487,2.487,0,0,1-.928,2.239,13.354,13.354,0,0,1-7.777,2.765l-.039,1.078,6.714.995a.985.985,0,0,1,.808,1.22l-2.809,10.842a.983.983,0,0,1-.953.737m-20.3-7.853,19.6,5.645,2.281-8.8-6.5-.963a.983.983,0,0,1-.839-1.01l.1-2.894a.985.985,0,0,1,1-.949,11.641,11.641,0,0,0,7.485-2.349.528.528,0,0,0,.2-.479l-.739-6.58a.981.981,0,0,1,.483-.958,1.593,1.593,0,0,0,.735-1.007c.008-.087.031-.32-.335-.643-1.491-1.318-3.678-7.118-4.191-8.518-.659-1.043-1.293-1.638-1.839-1.724-.731-.115-1.648.655-2.611,1.471-1.127.956-2.405,2.041-3.959,2.078a2.635,2.635,0,0,0-2,.7,3.243,3.243,0,0,0-.429,2.523c.141,1.123.156,2.226-.678,2.689-.891.495-1.742-.2-2.645-.927-.244-.2-.5-.406-.763-.6a1.82,1.82,0,0,0-.729-.361,2.965,2.965,0,0,0,0,1.6c.344,1.991,2.392,3.8,3.153,4.331a.981.981,0,0,1,.373.5l.3.923a.978.978,0,0,1,.017.552c-.988,3.81-3.373,13.794-3.4,13.9a.985.985,0,0,1-.645.7Z"/>
        <path id="Path_5942" data-name="Path 5942" d="M536.976,328.826c-3.784,0-5.729-4.424-5.814-4.621a.984.984,0,0,1,1.808-.778c.016.037,1.634,3.706,4.321,3.414a.984.984,0,1,1,.206,1.957,4.9,4.9,0,0,1-.521.028"/>
        <path id="Path_5943" data-name="Path 5943" d="M333.276,413.043q-2.852,0-5.738-.162C272.721,409.8,225.98,362.954,223.344,308.46c-.11-2.282-.143-4.594-.1-6.869a2.6,2.6,0,0,1,3-2.541,3.324,3.324,0,0,1,2.882,3.269c-.044,2.145-.014,4.322.091,6.473,2.48,51.269,46.457,95.342,98.032,98.243,24.975,1.425,48-6.943,64.822-23.514s25.417-39.37,24.216-64.208-12.06-48.735-30.576-67.29-42.473-29.548-67.456-30.953a92.474,92.474,0,0,0-18.763.827,3.309,3.309,0,0,1-3.58-2.473,2.607,2.607,0,0,1,2.124-3.32,98.344,98.344,0,0,1,19.936-.88c26.553,1.494,52.016,13.177,71.7,32.9s31.222,45.121,32.5,71.519-7.863,50.635-25.737,68.245c-16.58,16.333-38.832,25.154-63.16,25.154" fill="#fff"/>
        <path id="Path_5944" data-name="Path 5944" d="M318.6,379.93a13.612,13.612,0,0,1-10.621-6.452L264.46,303.393c-3.643-5.865-2.1-13.074,3.451-16.1s13-.726,16.639,5.14l31.923,51.409,41.058-79.126c2.906-5.6,10.1-7.309,16.066-3.813s8.448,10.865,5.541,16.465l-50.31,96.956a10.608,10.608,0,0,1-10.037,5.616l-.191-.01" fill="#72005d"/>
        <path id="Path_5945" data-name="Path 5945" d="M152.338,610.584l125.494-.664a5.577,5.577,0,0,0,5.688-6.3L264.341,427.273c-.605-4.723-3.423-8.29-7.4-8.29H132.324c-6.271.267-8.406,3.6-8.539,8.006l19.032,176.628c.378,3.481,3.517,6.7,9.521,6.967" fill="#118bcb"/>
        <path id="Path_5946" data-name="Path 5946" d="M156.279,610.276H284.237a5.6,5.6,0,0,0,5.687-6.341L270.746,426.518c-.606-4.752-3.2-7.454-7.172-7.454H135.614a5.648,5.648,0,0,0-5.78,5.418l19.387,179.453a7.26,7.26,0,0,0,7.058,6.341" fill="#fff"/>
        <path id="Path_5947" data-name="Path 5947" d="M156.28,610.676a7.68,7.68,0,0,1-7.457-6.7l-5.022-47.79a.4.4,0,0,1,.8-.084l5.022,47.789a6.86,6.86,0,0,0,6.66,5.982l62.371-.1h0a.4.4,0,0,1,0,.8Z" fill="#536876"/>
        <path id="Path_5948" data-name="Path 5948" d="M261.3,419.464H187.83a.4.4,0,1,1,0-.8H261.3a.4.4,0,0,1,0,.8" fill="#536876"/>
        <path id="Path_5949" data-name="Path 5949" d="M173.108,432.756H232.64a2.439,2.439,0,0,0,2.478-2.763l-1.485-13.737a3.162,3.162,0,0,0-3.075-2.762H171.027a2.44,2.44,0,0,0-2.479,2.762l1.485,13.737a3.163,3.163,0,0,0,3.075,2.763" fill="#98d8f4"/>
        <path id="Path_5950" data-name="Path 5950" d="M232.639,433.156H173.107a3.577,3.577,0,0,1-3.473-3.12L168.15,416.3a2.84,2.84,0,0,1,2.876-3.206h59.532a3.578,3.578,0,0,1,3.473,3.12l1.484,13.737a2.839,2.839,0,0,1-2.876,3.206m-61.613-19.262a2.039,2.039,0,0,0-2.08,2.319l1.484,13.737a2.757,2.757,0,0,0,2.677,2.406h59.532a2.039,2.039,0,0,0,2.08-2.32L233.235,416.3a2.757,2.757,0,0,0-2.677-2.4Z" fill="#536876"/>
        <path id="Path_5951" data-name="Path 5951" d="M199.073,397.892h0a9.77,9.77,0,0,0-9.92,11.087l1.795,16.618a3.1,3.1,0,0,0,3.011,2.705h16.8a2.388,2.388,0,0,0,2.426-2.705l-1.8-16.618a12.67,12.67,0,0,0-12.317-11.087m2.263,15.186a5.111,5.111,0,0,1-5.624-5.053,3.943,3.943,0,0,1,3.482-3.881,5.11,5.11,0,0,1,5.624,5.052,3.945,3.945,0,0,1-3.482,3.882" fill="#98d8f4"/>
        <path id="Path_5952" data-name="Path 5952" d="M210.76,428.7h-16.8a3.51,3.51,0,0,1-3.408-3.062l-1.8-16.618a10.172,10.172,0,0,1,10.319-11.531,13.107,13.107,0,0,1,12.715,11.445l1.795,16.618a2.788,2.788,0,0,1-2.824,3.148m-11.686-30.41a9.372,9.372,0,0,0-9.523,10.644l1.795,16.618a2.691,2.691,0,0,0,2.613,2.347h16.8a1.987,1.987,0,0,0,2.028-2.261l-1.795-16.618a12.289,12.289,0,0,0-11.919-10.73m1.68,15.223a5.533,5.533,0,0,1-5.442-5.5,4.357,4.357,0,0,1,3.832-4.271,5.51,5.51,0,0,1,6.074,5.458,4.357,4.357,0,0,1-3.831,4.271,4.98,4.98,0,0,1-.633.04m-.978-9.008a4.135,4.135,0,0,0-.532.034,3.562,3.562,0,0,0-3.132,3.491,4.712,4.712,0,0,0,5.174,4.649,3.563,3.563,0,0,0,3.132-3.492,4.575,4.575,0,0,0-1.565-3.467,4.633,4.633,0,0,0-3.077-1.215" fill="#536876"/>
        <path id="Path_5953" data-name="Path 5953" d="M157.231,480.392h-5.78a3.189,3.189,0,0,1-3.1-2.781l-1.156-10.7a2.541,2.541,0,0,1,2.572-2.868h10.757a3.19,3.19,0,0,1,3.1,2.782l.407,2.579a.4.4,0,1,1-.791.125l-.41-2.6a2.373,2.373,0,0,0-2.3-2.086H149.771a1.74,1.74,0,0,0-1.776,1.981l1.156,10.7a2.368,2.368,0,0,0,2.3,2.066h5.78a.4.4,0,0,1,0,.8"/>
        <path id="Path_5954" data-name="Path 5954" d="M155.288,477.959a2.061,2.061,0,0,1-.221-.012,2.124,2.124,0,0,1-1.7-1.22l-2.391-4.846a1.468,1.468,0,1,1,2.633-1.3l1.657,3.359,3.424-6.564a1.467,1.467,0,1,1,2.6,1.357l-4.339,8.321-.061.085a1.959,1.959,0,0,1-1.605.819" fill="#72005d"/>
        <path id="Path_5955" data-name="Path 5955" d="M165.122,507.854H154.365a3.188,3.188,0,0,1-3.1-2.781l-1.157-10.7a2.541,2.541,0,0,1,2.572-2.868h10.757a3.19,3.19,0,0,1,3.1,2.782l1.156,10.7a2.54,2.54,0,0,1-2.572,2.867M152.685,492.3a1.74,1.74,0,0,0-1.776,1.981l1.156,10.7a2.37,2.37,0,0,0,2.3,2.066h10.757a1.74,1.74,0,0,0,1.777-1.98l-1.157-10.7a2.369,2.369,0,0,0-2.3-2.067Z"/>
        <path id="Path_5956" data-name="Path 5956" d="M158.2,505.422a2.061,2.061,0,0,1-.221-.012,2.123,2.123,0,0,1-1.7-1.221l-2.391-4.845a1.468,1.468,0,1,1,2.633-1.3l1.657,3.359,3.424-6.564a1.467,1.467,0,1,1,2.6,1.357l-4.291,8.227a1.348,1.348,0,0,1-.109.178,1.957,1.957,0,0,1-1.6.82" fill="#72005d"/>
        <path id="Path_5957" data-name="Path 5957" d="M168.019,534.672H157.262a3.19,3.19,0,0,1-3.1-2.781l-1.156-10.7a2.54,2.54,0,0,1,2.572-2.868h10.757a3.19,3.19,0,0,1,3.1,2.782l1.156,10.7a2.54,2.54,0,0,1-2.572,2.867m-12.437-15.551a1.74,1.74,0,0,0-1.776,1.981l1.156,10.7a2.369,2.369,0,0,0,2.3,2.066h10.757a1.738,1.738,0,0,0,1.776-1.98l-1.156-10.7a2.369,2.369,0,0,0-2.3-2.067Z"/>
        <path id="Path_5958" data-name="Path 5958" d="M161.138,531.84a2.06,2.06,0,0,1-.221-.012,2.124,2.124,0,0,1-1.7-1.22l-2.391-4.846a1.468,1.468,0,0,1,2.633-1.3l1.657,3.359,3.424-6.564a1.467,1.467,0,1,1,2.6,1.357l-4.339,8.32-.061.085a1.957,1.957,0,0,1-1.6.82" fill="#72005d"/>
        <path id="Path_5959" data-name="Path 5959" d="M171.258,562.4H160.5a3.188,3.188,0,0,1-3.1-2.781l-1.157-10.7a2.54,2.54,0,0,1,2.572-2.868h10.757a3.19,3.19,0,0,1,3.1,2.782l1.156,10.7a2.54,2.54,0,0,1-2.572,2.867m-12.437-15.551a1.74,1.74,0,0,0-1.776,1.981l1.156,10.7a2.37,2.37,0,0,0,2.3,2.066h10.757a1.74,1.74,0,0,0,1.777-1.98l-1.157-10.7a2.369,2.369,0,0,0-2.3-2.067Z"/>
        <path id="Path_5960" data-name="Path 5960" d="M164.429,559.77a2.061,2.061,0,0,1-.221-.012,2.124,2.124,0,0,1-1.7-1.22l-2.391-4.846a1.468,1.468,0,0,1,2.633-1.3l1.657,3.359,3.424-6.564a1.468,1.468,0,0,1,2.6,1.357l-4.34,8.321-.061.085a1.958,1.958,0,0,1-1.6.819" fill="#72005d"/>
        <path id="Path_5961" data-name="Path 5961" d="M174.337,589.755H163.58a3.188,3.188,0,0,1-3.1-2.781l-1.157-10.7A2.541,2.541,0,0,1,161.9,573.4h10.757a3.19,3.19,0,0,1,3.1,2.782l1.156,10.7a2.54,2.54,0,0,1-2.572,2.867M161.9,574.2a1.74,1.74,0,0,0-1.776,1.981l1.156,10.7a2.37,2.37,0,0,0,2.3,2.066h10.757a1.74,1.74,0,0,0,1.777-1.98l-1.157-10.7a2.369,2.369,0,0,0-2.3-2.067Z"/>
        <path id="Path_5962" data-name="Path 5962" d="M167.988,587.345a2.047,2.047,0,0,1-.221-.012,2.122,2.122,0,0,1-1.7-1.22l-2.392-4.846a1.468,1.468,0,0,1,2.634-1.3l1.657,3.359,3.424-6.564a1.467,1.467,0,1,1,2.6,1.357l-4.339,8.32-.062.085a1.954,1.954,0,0,1-1.6.82" fill="#72005d"/>
        <path id="Path_5963" data-name="Path 5963" d="M235.981,450.613H174.857a2.6,2.6,0,0,1-2.522-2.266l-.2-1.888a2,2,0,0,1,2.032-2.267h61.124a2.6,2.6,0,0,1,2.523,2.267l.2,1.888a2,2,0,0,1-2.033,2.266" fill="#98d8f4"/>
        <path id="Path_5964" data-name="Path 5964" d="M261.448,475.017H175.5a2.6,2.6,0,0,1-2.522-2.266,2,2,0,0,1,2.032-2.267h85.944a2.6,2.6,0,0,1,2.523,2.267,2,2,0,0,1-2.033,2.266" fill="#98d8f4"/>
        <path id="Path_5965" data-name="Path 5965" d="M250.57,486.7H176.778a2.6,2.6,0,0,1-2.522-2.266,2,2,0,0,1,2.033-2.266H250.08a2.6,2.6,0,0,1,2.523,2.266,2,2,0,0,1-2.033,2.266" fill="#98d8f4"/>
        <path id="Path_5966" data-name="Path 5966" d="M258.214,502.682h-79.62a2.6,2.6,0,0,1-2.523-2.266,2,2,0,0,1,2.033-2.267h79.62a2.6,2.6,0,0,1,2.523,2.267,2,2,0,0,1-2.033,2.266" fill="#98d8f4"/>
        <path id="Path_5967" data-name="Path 5967" d="M224.715,514.147h-44.79a2.6,2.6,0,0,1-2.522-2.266,2,2,0,0,1,2.033-2.266h44.789a2.6,2.6,0,0,1,2.523,2.266,2,2,0,0,1-2.033,2.266" fill="#98d8f4"/>
        <path id="Path_5968" data-name="Path 5968" d="M267.274,528.918H181.33a2.6,2.6,0,0,1-2.522-2.266,2,2,0,0,1,2.032-2.266h85.944a2.6,2.6,0,0,1,2.523,2.266,2,2,0,0,1-2.033,2.266" fill="#98d8f4"/>
        <path id="Path_5969" data-name="Path 5969" d="M256.4,540.6H182.6a2.6,2.6,0,0,1-2.522-2.266,2,2,0,0,1,2.033-2.267h73.791a2.6,2.6,0,0,1,2.523,2.267A2,2,0,0,1,256.4,540.6" fill="#98d8f4"/>
        <path id="Path_5970" data-name="Path 5970" d="M268.435,556.583h-84.2a2.6,2.6,0,0,1-2.522-2.266,2,2,0,0,1,2.032-2.267h84.2a2.6,2.6,0,0,1,2.523,2.267,2,2,0,0,1-2.033,2.266" fill="#98d8f4"/>
        <path id="Path_5971" data-name="Path 5971" d="M230.455,567.25h-44.79a2.6,2.6,0,0,1-2.522-2.266,2,2,0,0,1,2.033-2.266h44.789a2.6,2.6,0,0,1,2.523,2.266,2,2,0,0,1-2.033,2.266" fill="#98d8f4"/>
        <path id="Path_5972" data-name="Path 5972" d="M273.346,582.552H187.4a2.6,2.6,0,0,1-2.522-2.266,2,2,0,0,1,2.032-2.266h85.944a2.6,2.6,0,0,1,2.523,2.266,2,2,0,0,1-2.033,2.266" fill="#98d8f4"/>
        <path id="Path_5973" data-name="Path 5973" d="M262.468,594.236H188.676a2.6,2.6,0,0,1-2.522-2.266,2,2,0,0,1,2.033-2.267h73.791a2.6,2.6,0,0,1,2.523,2.267,2,2,0,0,1-2.033,2.266" fill="#98d8f4"/>
        <path id="Path_5974" data-name="Path 5974" d="M281.584,525.191a.4.4,0,0,1-.4-.356l-5.026-44.964a.4.4,0,1,1,.8-.09l5.025,44.965a.4.4,0,0,1-.353.443l-.045,0" fill="#536876"/>
      </g>
    </g>
  </g>
</svg>
