  <svg xmlns="http://www.w3.org/2000/svg" xmlns:xlink="http://www.w3.org/1999/xlink" width="580.809" height="582.749" viewBox="0 0 580.809 582.749">
  <defs>
    <clipPath id="clip-path">
      <rect id="Rectangle_482" data-name="Rectangle 482" width="580.809" height="580.45" fill="none"/>
    </clipPath>
  </defs>
  <g id="Group_325" data-name="Group 325" transform="translate(-979.191 -274.251)">
    <g id="Group_306" data-name="Group 306" transform="translate(979.191 276.55)" opacity="0.6">
      <g id="Group_305" data-name="Group 305">
        <g id="Group_304" data-name="Group 304" clip-path="url(#clip-path)">
          <path id="Path_3287" data-name="Path 3287" d="M125.508,28.48c117.957-65.216,275.984,2.538,358.33,77.648,23.524,21.457,80.564,74.984,94.033,160.776C594.6,373.473,539.836,502.644,414.232,557.9c-136.715,60.14-289.578,3.143-361.123-89.374C-13.8,382-.409,280.116,4.375,243.718c5.613-42.7,22.309-160.6,121.133-215.239" transform="translate(0 -2.212)" fill="#98d8f4"/>
        </g>
      </g>
    </g>
    <path id="Path_3288" data-name="Path 3288" d="M555.821,65.776A69.729,69.729,0,0,0,552.75,77.1l-17.938,4.024-.017,16.843,17.955,4.068a70.741,70.741,0,0,0,3.023,11.324l-13.541,12.466,8.411,14.6,17.56-5.442a69.766,69.766,0,0,0,8.308,8.293l-5.489,17.558,14.585,8.437,12.5-13.5a69.8,69.8,0,0,0,11.333,3.068l4.026,17.928,16.853.018,4.07-17.944a70.873,70.873,0,0,0,11.331-3.021l12.474,13.533,14.6-8.406-5.445-17.549a69.748,69.748,0,0,0,8.3-8.3l17.57,5.486L701.664,126,688.152,113.5a69.652,69.652,0,0,0,3.07-11.326l17.938-4.024.018-16.842-17.955-4.068A70.747,70.747,0,0,0,688.2,65.921l13.541-12.466-8.41-14.6L675.771,44.3a69.814,69.814,0,0,0-8.308-8.292l5.489-17.559-14.586-8.437-12.5,13.5a69.943,69.943,0,0,0-11.333-3.069L630.506,2.52,613.653,2.5l-4.07,17.945a70.8,70.8,0,0,0-11.331,3.021L585.777,9.935l-14.6,8.4,5.444,17.549a69.753,69.753,0,0,0-8.3,8.3l-17.57-5.485-8.442,14.577Zm28.617,2.146a43.378,43.378,0,1,1,15.816,59.245A43.4,43.4,0,0,1,584.437,67.922Z" transform="translate(819.192 274.251)" fill="none" stroke="#536876" stroke-miterlimit="10" stroke-width="5"/>
    <path id="Path_3289" data-name="Path 3289" d="M296.287,235.193,29.264,212.32a18.635,18.635,0,0,0-18.62,18.608v301.2a18.636,18.636,0,0,0,18.62,18.61l155.994-10.561L165.231,613.23l-21.191.167a11.976,11.976,0,1,0,0,23.953l177.467-8.46c6.607,0-5.757-78.154-5.757-78.154s-9.2-315.543-19.462-315.543" transform="translate(976.007 211.478)"/>
    <path id="Path_3290" data-name="Path 3290" d="M381.689,640.261H271.6L240.365,754.185H412.92Z" transform="translate(907.279 83.447)" fill="#fff"/>
    <path id="Path_3291" data-name="Path 3291" d="M412.471,754.788H239.916a1.051,1.051,0,0,1-1.014-1.329l31.232-113.925a1.052,1.052,0,0,1,1.014-.773H381.24a1.05,1.05,0,0,1,1.013.773l31.232,113.925a1.051,1.051,0,0,1-1.014,1.329m-171.176-2.1h169.8L380.437,640.863H271.95Z" transform="translate(907.728 83.896)"/>
    <path id="Path_3292" data-name="Path 3292" d="M481.938,213.821H42.353a17.562,17.562,0,0,0-17.567,17.557v301.2a17.562,17.562,0,0,0,17.567,17.557H481.938a17.563,17.563,0,0,0,17.568-17.557v-301.2a17.563,17.563,0,0,0-17.568-17.557" transform="translate(971.776 211.029)" fill="#fff"/>
    <path id="Path_3293" data-name="Path 3293" d="M418.993,786.119H208.96a10.924,10.924,0,1,0,0,21.849H418.993a10.924,10.924,0,1,0,0-21.849" transform="translate(919.945 39.81)" fill="#fff"/>
    <path id="Path_3294" data-name="Path 3294" d="M418.544,808.57H208.512a11.976,11.976,0,1,1,0-23.951H418.544a11.976,11.976,0,1,1,0,23.951M208.512,786.721a9.873,9.873,0,1,0,0,19.746H418.544a9.873,9.873,0,1,0,0-19.746Z" transform="translate(920.394 40.258)"/>
    <path id="Path_3295" data-name="Path 3295" d="M60.049,550.736H41.9a18.635,18.635,0,0,1-18.619-18.608v-301.2A18.635,18.635,0,0,1,41.9,212.321H53.05a1.051,1.051,0,1,1,0,2.1H41.9a16.531,16.531,0,0,0-16.517,16.506v301.2A16.53,16.53,0,0,0,41.9,548.634H60.049a1.051,1.051,0,1,1,0,2.1" transform="translate(972.225 211.478)"/>
    <path id="Path_3296" data-name="Path 3296" d="M672.389,550.736h-9.975a1.051,1.051,0,1,1,0-2.1h9.975a16.53,16.53,0,0,0,16.517-16.506v-301.2a16.53,16.53,0,0,0-16.517-16.506h-8.577a1.051,1.051,0,0,1,0-2.1h8.577a18.635,18.635,0,0,1,18.619,18.608v301.2a18.635,18.635,0,0,1-18.619,18.608" transform="translate(781.325 211.478)"/>
    <path id="Path_3297" data-name="Path 3297" d="M461.9,694.307H300.954a1.051,1.051,0,0,1,0-2.1H461.9a1.051,1.051,0,0,1,0,2.1" transform="translate(889.467 67.907)"/>
    <path id="Path_3298" data-name="Path 3298" d="M559.435,617.649H307.541a1.051,1.051,0,1,1,0-2.1H559.435a7.69,7.69,0,0,0,7.685-7.678V489.192a1.051,1.051,0,1,1,2.1,0V607.868a9.8,9.8,0,0,1-9.787,9.781" transform="translate(887.496 128.958)"/>
    <path id="Path_3299" data-name="Path 3299" d="M63.836,637.418H55.354a9.8,9.8,0,0,1-9.786-9.781V555.269a1.051,1.051,0,1,1,2.1,0v72.368a7.69,7.69,0,0,0,7.684,7.678h8.481a1.051,1.051,0,0,1,0,2.1" transform="translate(965.559 109.189)"/>
    <path id="Path_3300" data-name="Path 3300" d="M47.068,269.516v0Z" transform="translate(965.109 194.366)" fill="#fff"/>
    <path id="Path_3301" data-name="Path 3301" d="M46.619,288.638a1.051,1.051,0,0,1-1.051-1.051V269.067a1.051,1.051,0,1,1,2.1,0v18.519a1.051,1.051,0,0,1-1.051,1.051" transform="translate(965.559 194.815)"/>
    <path id="Path_3302" data-name="Path 3302" d="M81.138,236.089H55.8a8.732,8.732,0,0,0-8.735,8.729Z" transform="translate(965.109 204.367)" fill="#fff"/>
    <path id="Path_3303" data-name="Path 3303" d="M46.619,245.422a1.051,1.051,0,0,1-1.051-1.051,9.8,9.8,0,0,1,9.786-9.781H80.69a1.051,1.051,0,0,1,0,2.1H55.354a7.69,7.69,0,0,0-7.684,7.678,1.051,1.051,0,0,1-1.051,1.051" transform="translate(965.559 204.815)"/>
    <path id="Path_3304" data-name="Path 3304" d="M676.152,259.516v-14.7a8.732,8.732,0,0,0-8.735-8.729Z" transform="translate(779.514 204.367)" fill="#fff"/>
    <path id="Path_3305" data-name="Path 3305" d="M675.7,260.119a1.052,1.052,0,0,1-1.051-1.051v-14.7a7.69,7.69,0,0,0-7.685-7.678,1.051,1.051,0,0,1,0-2.1,9.8,9.8,0,0,1,9.787,9.781v14.7a1.052,1.052,0,0,1-1.051,1.051" transform="translate(779.963 204.815)"/>
    <path id="Path_3306" data-name="Path 3306" d="M679.881,319.314v0Z" transform="translate(775.785 185.592)" fill="#fff"/>
    <path id="Path_3307" data-name="Path 3307" d="M679.433,319.917a1.052,1.052,0,0,1-1.051-1.051V298.4a1.051,1.051,0,1,1,2.1,0v20.468a1.052,1.052,0,0,1-1.051,1.051" transform="translate(776.233 186.04)"/>
    <path id="Path_3308" data-name="Path 3308" d="M481.519,498.686H71.633V122.693A24.848,24.848,0,0,1,96.481,97.845h360.19a24.848,24.848,0,0,1,24.848,24.848Z" transform="translate(957.761 245.727)" fill="#50beef"/>
    <path id="Path_3309" data-name="Path 3309" d="M481.814,134.636V122.768c0-13.694-11.367-24.5-25.07-24.5H96.479a24.482,24.482,0,0,0-24.73,24.5v11.868Z" transform="translate(957.726 245.6)" fill="#72005d"/>
    <rect id="Rectangle_483" data-name="Rectangle 483" width="357.914" height="81.818" transform="translate(1055.439 403.016)" fill="#95e0f9"/>
    <rect id="Rectangle_484" data-name="Rectangle 484" width="207.821" height="121.679" transform="translate(1056.138 494.275)" fill="#95e0f9"/>
    <rect id="Rectangle_485" data-name="Rectangle 485" width="207.821" height="105.085" transform="translate(1055.905 625.75)" fill="#95e0f9"/>
    <rect id="Rectangle_486" data-name="Rectangle 486" width="139.487" height="235.745" transform="translate(1273.927 494.625)" fill="#95e0f9"/>
    <path id="Path_3310" data-name="Path 3310" d="M109.169,121.794a7.231,7.231,0,1,1-7.231-7.227,7.228,7.228,0,0,1,7.231,7.227" transform="translate(950.857 240.724)" fill="#fff"/>
    <path id="Path_3311" data-name="Path 3311" d="M140.455,121.794a7.231,7.231,0,1,1-7.231-7.227,7.228,7.228,0,0,1,7.231,7.227" transform="translate(941.497 240.724)" fill="#fff"/>
    <path id="Path_3312" data-name="Path 3312" d="M171.741,122.459a7.231,7.231,0,1,1-7.23-7.226,7.229,7.229,0,0,1,7.23,7.226" transform="translate(932.137 240.525)" fill="#fff"/>
    <path id="Path_3313" data-name="Path 3313" d="M600.951,251.728h-.01a1.051,1.051,0,0,1-1.041-1.06l1.14-128.657c0-13.084-13.407-23.735-29.887-23.735l-95.464-.4a1.051,1.051,0,0,1,0-2.1h0l95.461.4c17.635,0,31.985,11.594,31.985,25.846L602,250.686a1.052,1.052,0,0,1-1.051,1.042" transform="translate(837.188 246.347)"/>
    <path id="Path_3314" data-name="Path 3314" d="M415.02,98.447H338.107a1.051,1.051,0,0,1,0-2.1H415.02a1.051,1.051,0,1,1,0,2.1" transform="translate(878.352 246.176)"/>
    <path id="Path_3315" data-name="Path 3315" d="M70.3,312.043h0a1.052,1.052,0,0,1-1.048-1.055l.619-188.8c0-14.248,14.35-25.843,31.989-25.843H224.827a1.051,1.051,0,0,1,0,2.1H101.858c-16.479,0-29.886,10.651-29.886,23.744L71.352,311a1.051,1.051,0,0,1-1.051,1.048" transform="translate(958.474 246.176)"/>
    <path id="Path_3316" data-name="Path 3316" d="M709.08,425.482c0-.928-51.843-9.113-55.187-18.581-4.991-14.129-11.213-31.118-11.213-31.118l-12.947,8.172,8.335,40.653Z" transform="translate(790.789 162.573)" fill="#fff"/>
    <path id="Path_3317" data-name="Path 3317" d="M708.631,426.084h-.013l-71.012-.875a1.051,1.051,0,0,1-1.017-.84l-8.336-40.653a1.052,1.052,0,0,1,.469-1.1l12.947-8.171a1.051,1.051,0,0,1,1.548.527c.062.17,6.282,17.155,11.217,31.129,2.327,6.586,33.292,13.178,46.516,15.993,8.737,1.861,8.737,1.861,8.732,2.945a1.053,1.053,0,0,1-1.051,1.045m-70.153-2.967,60.7.747c-23.043-4.939-44.377-10.427-46.722-17.063-4.165-11.793-9.246-25.733-10.762-29.884l-11.231,7.088Z" transform="translate(791.237 163.022)"/>
    <path id="Path_3318" data-name="Path 3318" d="M524.949,311.688c12.363-4.032,31.2-6.923,53.717.243a21.988,21.988,0,0,1,15.112,18.387L612.12,435.863c.909,7.673-9.353,15.133-16.583,17.871-7.553,2.86-18.969,5.566-35.133,5.566-17.331,0-29.924,1.005-36.953-2.072-5.834-2.553-14.616-8.73-14.91-15.088l1.273-108.487a22.015,22.015,0,0,1,15.133-21.966" transform="translate(827.046 182.986)" fill="#178bcb"/>
    <path id="Path_3319" data-name="Path 3319" d="M642.283,359.2s-14.642-40.531-31.06-44.428L619.57,372.2Z" transform="translate(796.326 180.827)" fill="#178bcb"/>
    <path id="Path_3320" data-name="Path 3320" d="M483.231,379.733s1.6-27.118,3.949-37.6c4.933-22.043,25.972-25.377,25.972-25.377l2.554,59.206Z" transform="translate(834.619 180.232)" fill="#178bcb"/>
    <path id="Path_3321" data-name="Path 3321" d="M547.152,323.274a111.856,111.856,0,0,1-18.219-1.473,1.051,1.051,0,0,1,.374-2.069c.241.043,24.245,4.27,41.615-2.164a1.051,1.051,0,1,1,.731,1.971c-7.842,2.9-16.811,3.735-24.5,3.735" transform="translate(821.204 180.01)"/>
    <path id="Path_3322" data-name="Path 3322" d="M489.03,404.2s-1.58,20.682,6.618,34.567c9.791,16.581,59.183-5.751,59.183-5.751l5.745-3.25a15.97,15.97,0,0,1,12.766-1.3l9.279,2.992s-7.662-9.183-14.18-12.694c-3.056-1.646-7.017-.09-10.363,2.029a34.238,34.238,0,0,1-19.34,5.15l-19.648-.584a6.506,6.506,0,0,1-6.289-5.935l-1.493-17.108Z" transform="translate(832.92 154.635)" fill="#fff"/>
    <path id="Path_3323" data-name="Path 3323" d="M510.168,445.481c-7.076,0-13-1.759-15.878-6.626-8.271-14.009-6.827-34.323-6.762-35.181a1.052,1.052,0,0,1,.96-.967l22.277-1.884a1.054,1.054,0,0,1,1.135.956l1.493,17.108a5.455,5.455,0,0,0,5.274,4.976l19.648.584a33.052,33.052,0,0,0,18.746-4.988c4.655-2.947,8.5-3.641,11.423-2.066,6.62,3.566,14.171,12.565,14.489,12.946a1.051,1.051,0,0,1-1.13,1.674l-9.278-2.992a14.962,14.962,0,0,0-11.927,1.214l-5.745,3.25c-.027.015-.055.03-.084.043-1.471.666-26.724,11.955-44.642,11.955m-20.592-40.757c-.178,4.075-.458,21.236,6.524,33.061,2.44,4.134,7.625,5.656,13.931,5.656,17.162,0,42.648-11.266,43.871-11.812l5.7-3.227a17.071,17.071,0,0,1,13.606-1.386l5.586,1.8c-2.76-2.951-7.3-7.415-11.308-9.577-2.749-1.481-6.576.266-9.3,1.992a35.1,35.1,0,0,1-19.932,5.312l-19.648-.584a7.557,7.557,0,0,1-7.3-6.894l-1.4-16.063Z" transform="translate(833.374 155.083)"/>
    <path id="Path_3324" data-name="Path 3324" d="M592.664,729.557l-10.708,31.929s11.664-1,12.779-.777,14.757-29.119,14.757-29.119Z" transform="translate(805.082 56.731)" fill="#fff"/>
    <path id="Path_3325" data-name="Path 3325" d="M581.508,762.088a1.051,1.051,0,0,1-1-1.385l10.707-31.929a1.047,1.047,0,0,1,1.123-.709L609.17,730.1a1.052,1.052,0,0,1,.827,1.487c-.034.074-3.454,7.426-6.968,14.657-7.455,15.345-7.923,15.251-8.945,15.05-.739-.107-6.937.319-12.486.793-.03,0-.06,0-.09,0m11.431-31.833-9.926,29.6c3.266-.268,8.947-.71,10.907-.668,1.69-2.255,8.863-17.122,13.559-27.177Zm1.547,28.973h0Zm-.044-.008.043.008-.043-.008" transform="translate(805.53 57.181)"/>
    <path id="Path_3326" data-name="Path 3326" d="M580.753,762.386s16.1-6.6,19.082,1.683c3.787,10.531,9.708,26.6,9.708,26.6a4.509,4.509,0,0,1-3.888,6.018c-5.885.473-14.663.856-18.753-.578-6.456-2.264-17.167-22.683-17.167-22.683l3.3-17.374s5.84-.823,7.715,6.335" transform="translate(808.738 48.813)" fill="#fff"/>
    <path id="Path_3327" data-name="Path 3327" d="M595.727,797.721c-3.806,0-7.359-.272-9.621-1.064-6.654-2.334-16.635-21.06-17.75-23.188a1.048,1.048,0,0,1-.1-.684l3.3-17.374a1.05,1.05,0,0,1,.886-.844c.062-.009,6.146-.779,8.537,6,2.866-1.028,10.728-3.466,15.666-1.27a6.7,6.7,0,0,1,3.728,3.976c3.743,10.408,9.647,26.432,9.706,26.593a5.559,5.559,0,0,1-4.79,7.429c-2.953.237-6.349.431-9.563.431m-25.339-24.906c3.081,5.807,11.533,20.146,16.413,21.856,2.986,1.046,9.493,1.232,18.321.522a3.457,3.457,0,0,0,2.982-4.614c-.056-.153-5.963-16.185-9.708-26.6a4.612,4.612,0,0,0-2.6-2.766c-5.176-2.3-14.994,1.66-15.091,1.7a1.052,1.052,0,0,1-1.416-.706c-1.257-4.8-4.388-5.515-5.821-5.581Z" transform="translate(809.188 49.259)"/>
    <path id="Path_3328" data-name="Path 3328" d="M613.142,804.724H596.6a1.051,1.051,0,0,1,0-2.1h16.54a1.051,1.051,0,0,1,0,2.1" transform="translate(801.015 34.872)"/>
    <path id="Path_3329" data-name="Path 3329" d="M553.912,740.4l3.638,32.118,14.636-4.012-1.126-28.938Z" transform="translate(813.473 53.738)" fill="#fff"/>
    <path id="Path_3330" data-name="Path 3330" d="M557.1,773.115a1.052,1.052,0,0,1-1.045-.933l-3.637-32.118a1.052,1.052,0,0,1,.994-1.168l17.148-.833a1.064,1.064,0,0,1,.761.275,1.051,1.051,0,0,1,.34.734l1.126,28.938a1.05,1.05,0,0,1-.772,1.055l-14.637,4.012a1.046,1.046,0,0,1-.277.037m-2.467-32.173,3.372,29.784,12.648-3.467L569.6,740.215Z" transform="translate(813.921 54.187)"/>
    <path id="Path_3331" data-name="Path 3331" d="M554.94,805.919H578.1a5.128,5.128,0,0,0,5.081-5.874c-.773-5.227-3.291-13.9-10.842-25.822a4.51,4.51,0,0,0-3.805-2.093h-7.043a2.371,2.371,0,0,0-2.359,2.124l-.532,5.078-3.066-4.047a68.96,68.96,0,0,0-5.728,25.41,5.137,5.137,0,0,0,5.138,5.225" transform="translate(814.702 43.995)" fill="#fff"/>
    <path id="Path_3332" data-name="Path 3332" d="M577.649,806.522H554.491a6.187,6.187,0,0,1-6.189-6.3,69.313,69.313,0,0,1,5.83-25.841,1.05,1.05,0,0,1,1.787-.184l1.46,1.927.254-2.433a3.416,3.416,0,0,1,3.406-3.065h7.042a5.527,5.527,0,0,1,4.694,2.582c7.672,12.117,10.213,20.952,10.994,26.231a6.179,6.179,0,0,1-6.121,7.079m-22.313-29.61a68.835,68.835,0,0,0-4.931,23.353,4.085,4.085,0,0,0,4.086,4.154h23.158a4.078,4.078,0,0,0,4.042-4.669c-.752-5.077-3.216-13.608-10.692-25.414a3.481,3.481,0,0,0-2.917-1.6H561.04a1.317,1.317,0,0,0-1.314,1.182l-.532,5.078a1.051,1.051,0,0,1-1.884.525Z" transform="translate(815.151 44.443)"/>
    <path id="Path_3333" data-name="Path 3333" d="M581.948,813.053H554.226a1.051,1.051,0,0,1,0-2.1h27.722a1.051,1.051,0,1,1,0,2.1" transform="translate(813.693 32.38)"/>
    <path id="Path_3334" data-name="Path 3334" d="M600.271,462.74a5.373,5.373,0,0,0-3.362-3.094,82.565,82.565,0,0,0-68.383,9.828,5.4,5.4,0,0,0-2.473,4.159c-1.1,15.434-5.2,96.12,20.344,191.655l17.2-1.225,3.508-163.345S592.594,560.6,571.872,655.9l17.895,3.3s26.187-34.412,30.876-87c4.148-46.517-15.729-98.169-20.371-109.469" transform="translate(822.082 138.507)"/>
    <path id="Path_3335" data-name="Path 3335" d="M553.992,636.48h-.046c-16.228-.7-18.059-22.692-18.076-22.914a1.051,1.051,0,0,1,2.1-.157c.015.2,1.71,20.35,16.07,20.97a1.051,1.051,0,0,1-.045,2.1" transform="translate(818.871 91.772)" fill="#fff"/>
    <path id="Path_3336" data-name="Path 3336" d="M586.456,529.742a1.05,1.05,0,0,1-1.05-1.02L584.8,508.29a1.048,1.048,0,0,1,.446-.891l10.725-7.536a1.051,1.051,0,1,1,1.209,1.72l-10.262,7.211.589,19.868a1.051,1.051,0,0,1-1.019,1.081h-.032" transform="translate(804.231 125.509)" fill="#fff"/>
    <path id="Path_3337" data-name="Path 3337" d="M548.352,243.982c-6.543-5.623-8.035-6.389-9.94-9.611-1.552-2.627-5.021-8.5-2.674-14.7,2.03-5.364,7.632-8.6,12.786-8.881a16.008,16.008,0,0,1,9.795,3.095c.781.505,7.666,5.095,9.025,12.594.369,2.037.092,2.971,1.022,4.247,2.092,2.872,5.878,1.407,8.5,3.789,3.294,3,1.767,9.371,1.641,9.869-1.718,6.8-9.073,11.308-15.066,10.68-3.46-.363-3.088-.772-15.085-11.083" transform="translate(819.146 211.941)"/>
    <path id="Path_3338" data-name="Path 3338" d="M565.484,286.2a11.038,11.038,0,0,1-4.92-9.463l.36-15.725c.107-.1.214-.2.319-.3,0,0,6.3.42,7.221-2.788s-3.538-3.823-3.538-3.823,4.209-8.853-6.68-8.75c-2.924.027-3.969-4.816-8.767-5.9,0,0-2.372-.2-4.778,6.017l-5.267,7.791,2.631,1.442a29.49,29.49,0,0,0-.529,9.694,2.562,2.562,0,0,0,1.758,2.145,16.258,16.258,0,0,0,3.114.674l-.848,10.525a15.528,15.528,0,0,1-6.574,11.457,77.9,77.9,0,0,1-7.033,4.375,129.778,129.778,0,0,0,41.736-2.439s-4.311-2.356-8.2-4.933" transform="translate(820.042 203.36)" fill="#fff"/>
    <path id="Path_3339" data-name="Path 3339" d="M544.459,294.854a108.843,108.843,0,0,1-13.1-.686,1.051,1.051,0,0,1-.355-1.968,77.178,77.178,0,0,0,6.925-4.309,14.436,14.436,0,0,0,6.131-10.681l.769-9.542a17.161,17.161,0,0,1-2.311-.573,3.619,3.619,0,0,1-2.479-3.024,30.388,30.388,0,0,1,.387-9.266l-1.95-1.069a1.051,1.051,0,0,1-.365-1.511l5.2-7.693c2.547-6.509,5.282-6.616,5.8-6.573a1.09,1.09,0,0,1,.142.022,11.036,11.036,0,0,1,5.865,3.943c1.087,1.2,1.8,1.934,2.646,1.934h.21c3.689,0,6.2,1.006,7.469,2.991,1.321,2.07.87,4.606.422,6.069a5.211,5.211,0,0,1,2.783,1.917,3.477,3.477,0,0,1,.37,2.936c-.934,3.262-5.563,3.585-7.517,3.574l-.342,14.971a9.926,9.926,0,0,0,4.449,8.563c3.812,2.524,8.085,4.864,8.128,4.888a1.052,1.052,0,0,1-.27,1.948,132.234,132.234,0,0,1-29.015,3.141m-9.6-2.454a133.325,133.325,0,0,0,35.459-2.159c-1.611-.934-3.8-2.245-5.865-3.61a12.019,12.019,0,0,1-5.391-10.364l.359-15.725a1.052,1.052,0,0,1,.339-.749l.313-.291a1.047,1.047,0,0,1,.788-.282c1.413.092,5.585-.085,6.141-2.028a1.352,1.352,0,0,0-.11-1.21,4.218,4.218,0,0,0-2.561-1.283,1.052,1.052,0,0,1-.806-1.493c.014-.029,1.467-3.179.148-5.234-.875-1.365-2.87-2.044-5.868-2.013-1.853,0-3.058-1.325-4.236-2.622a9.187,9.187,0,0,0-4.613-3.267c-.338.09-1.953.748-3.725,5.332a1.045,1.045,0,0,1-.11.21l-4.62,6.835,1.619.887a1.052,1.052,0,0,1,.522,1.147,28.445,28.445,0,0,0-.512,9.35,1.514,1.514,0,0,0,1.037,1.264,15.207,15.207,0,0,0,2.913.631,1.051,1.051,0,0,1,.926,1.128l-.848,10.525a16.532,16.532,0,0,1-7.019,12.233c-1.56,1.094-3.06,2.047-4.279,2.788" transform="translate(820.491 203.809)"/>
    <path id="Path_3340" data-name="Path 3340" d="M552.579,277.571s6.908.242,9.652-3.514Z" transform="translate(813.871 193.008)" fill="#fff"/>
    <path id="Path_3341" data-name="Path 3341" d="M552.412,278.177c-.176,0-.286,0-.319,0a1.051,1.051,0,0,1,.072-2.1c.072,0,6.389.173,8.768-3.084a1.051,1.051,0,0,1,1.7,1.24c-2.714,3.715-8.746,3.948-10.219,3.948" transform="translate(814.319 193.457)"/>
    <path id="Path_3342" data-name="Path 3342" d="M731.156,407.09h-66.1l49-75.313a8.418,8.418,0,0,1,7.066-3.78h53.642a4.2,4.2,0,0,1,3.658,6.44Z" transform="translate(780.219 176.87)" fill="#72005d"/>
    <path id="Path_3343" data-name="Path 3343" d="M751.642,386.4c-2.148,3.3-6.766,5.977-10.317,5.977s-4.686-2.676-2.539-5.977,6.767-5.977,10.317-5.977,4.687,2.676,2.539,5.977" transform="translate(758.486 161.186)" fill="#178bcb"/>
    <path id="Path_3344" data-name="Path 3344" d="M700.073,446.912H590.032a6.83,6.83,0,0,1-6.832-6.827H706.9a6.83,6.83,0,0,1-6.832,6.827" transform="translate(804.71 143.335)" fill="#540148"/>
    <path id="Path_3345" data-name="Path 3345" d="M729.788,441.554H673.024a1.051,1.051,0,0,1,0-2.1h56.764a1.051,1.051,0,0,1,0,2.1" transform="translate(778.151 143.525)" fill="#fff"/>
    <path id="Path_3346" data-name="Path 3346" d="M324.648,153.368a96.019,96.019,0,1,0,0,135.75,96.09,96.09,0,0,0,0-135.75m-6.068,129.685a87.44,87.44,0,1,1,0-123.621,87.506,87.506,0,0,1,0,123.621" transform="translate(931.118 237.527)"/>
    <path id="Path_3347" data-name="Path 3347" d="M256.283,317.809a96.993,96.993,0,1,1,68.659-28.377,96.829,96.829,0,0,1-68.659,28.377m0-191.889a94.892,94.892,0,1,0,67.173,27.762,94.733,94.733,0,0,0-67.173-27.762m0,183.317a88.422,88.422,0,1,1,62.592-25.869,88.275,88.275,0,0,1-62.592,25.869m0-174.745A86.361,86.361,0,1,0,317.388,281.88l.744.744-.744-.744a86.322,86.322,0,0,0-61.106-147.389" transform="translate(931.567 237.956)"/>
    <path id="Path_3348" data-name="Path 3348" d="M52.536,458.958l1.47,1.469a9.075,9.075,0,0,0,12.829,0l92.291-92.234-14.3-14.29-92.29,92.234a9.062,9.062,0,0,0,0,12.822" transform="translate(964.269 169.12)"/>
    <path id="Path_3349" data-name="Path 3349" d="M59.971,463.68a10.088,10.088,0,0,1-7.158-2.958l-1.47-1.468a10.114,10.114,0,0,1,0-14.309l92.291-92.234a1.052,1.052,0,0,1,1.486,0L159.42,367a1.052,1.052,0,0,1,0,1.487l-92.29,92.234a10.1,10.1,0,0,1-7.158,2.958m84.406-108.739L52.83,446.431a8.01,8.01,0,0,0,0,11.334l1.47,1.469a8.033,8.033,0,0,0,11.343,0l91.547-91.49Z" transform="translate(964.718 169.568)"/>
    <path id="Path_3350" data-name="Path 3350" d="M127.756,439.234a1.052,1.052,0,0,1-.744-1.795l7.72-7.714a1.051,1.051,0,0,1,1.486,1.487l-7.719,7.714a1.048,1.048,0,0,1-.744.308" transform="translate(941.284 146.527)" fill="#fff"/>
    <path id="Path_3351" data-name="Path 3351" d="M62.247,489.042a6.26,6.26,0,0,1-4.429-10.685l8.673-8.667a1.051,1.051,0,0,1,1.486,1.487L59.3,479.844a4.16,4.16,0,0,0,5.886,5.881l30.467-30.448a1.052,1.052,0,0,1,1.487,1.487L66.677,487.212a6.249,6.249,0,0,1-4.43,1.831" transform="translate(962.441 138.883)" fill="#fff"/>
    <path id="Path_3352" data-name="Path 3352" d="M157.515,375.7l13.949,13.941a5.305,5.305,0,0,0,7.5,0l4.7-4.693a5.288,5.288,0,0,0,0-7.482l-13.95-13.94a5.3,5.3,0,0,0-7.5,0l-4.7,4.693a5.287,5.287,0,0,0,0,7.481" transform="translate(932.53 166.705)"/>
    <path id="Path_3353" data-name="Path 3353" d="M174.764,391.793a6.336,6.336,0,0,1-4.492-1.857L156.323,376a6.339,6.339,0,0,1,0-8.968l4.7-4.693a6.363,6.363,0,0,1,8.984,0l13.949,13.94a6.339,6.339,0,0,1,0,8.968l-4.7,4.694a6.337,6.337,0,0,1-4.492,1.857m-16.955-17.284,13.949,13.941a4.257,4.257,0,0,0,6.011,0l4.7-4.694a4.236,4.236,0,0,0,0-5.994l-13.949-13.94a4.258,4.258,0,0,0-6.012,0l-4.7,4.693a4.236,4.236,0,0,0,0,5.994" transform="translate(932.979 167.152)"/>
    <path id="Path_3354" data-name="Path 3354" d="M135.863,397.338l13.949,13.941a5.305,5.305,0,0,0,7.5,0l4.7-4.694a5.287,5.287,0,0,0,0-7.481l-13.949-13.94a5.305,5.305,0,0,0-7.5,0l-4.7,4.693a5.287,5.287,0,0,0,0,7.481" transform="translate(939.008 160.231)"/>
    <path id="Path_3355" data-name="Path 3355" d="M153.113,413.431a6.336,6.336,0,0,1-4.492-1.856l-13.949-13.941a6.339,6.339,0,0,1,0-8.968l4.7-4.693a6.363,6.363,0,0,1,8.985,0L162.3,397.913a6.337,6.337,0,0,1,0,8.968l-4.7,4.693a6.338,6.338,0,0,1-4.492,1.856m-9.253-29.214a4.239,4.239,0,0,0-3.006,1.243l-4.7,4.693a4.236,4.236,0,0,0,0,5.994l13.949,13.94a4.256,4.256,0,0,0,6.011,0l4.7-4.693a4.235,4.235,0,0,0,0-5.994l-13.949-13.94a4.239,4.239,0,0,0-3.006-1.243" transform="translate(939.457 160.679)"/>
    <path id="Path_3356" data-name="Path 3356" d="M56.407,745.91c-26.866-24.75-12.96-40.712-12.96-40.712s12-19.431,54.118,5.971,82.883,15.958,92.1,12.151,41.432-27.743,59.585-29.088c10.1-.748,22.192,6.842,11.585,27.359-21.934,42.427-81.5,47.268-81.5,47.268s-28.875,5.421-58.537.17c0,0-37.529,1.632-64.395-23.117" transform="translate(967.27 67.315)"/>
    <path id="Path_3357" data-name="Path 3357" d="M161.628,775.225l9.514,5.319-4.75,9.864-7.874-5.039Z" transform="translate(931.767 43.069)" fill="#fff"/>
    <path id="Path_3358" data-name="Path 3358" d="M165.943,791.011a1.051,1.051,0,0,1-.567-.165l-7.875-5.039a1.051,1.051,0,0,1-.438-1.193l3.111-10.145a1.051,1.051,0,0,1,1.518-.609l9.514,5.319a1.051,1.051,0,0,1,.434,1.374l-4.75,9.864a1.047,1.047,0,0,1-.947.595m-6.636-6.545,6.2,3.969,3.806-7.9-7.514-4.2Z" transform="translate(932.215 43.517)"/>
    <path id="Path_3359" data-name="Path 3359" d="M168.829,780.572a2.706,2.706,0,0,1,4.318.045l4.618,6.26-6.239,8.031-8.261-3.8c.568-3.562,3.458-7.824,5.563-10.539" transform="translate(930.346 41.784)" fill="#5479f7"/>
    <path id="Path_3360" data-name="Path 3360" d="M169.492,788.884l2.522-2.55a2.791,2.791,0,0,1,3.431-.425L177.238,787l.386-.834a1.95,1.95,0,0,1,2.388-1.034c5.753,1.921,24.865,8.5,31.259,13.235,7.561,5.6,2.191,18.054-11,16.784-10.451-1.006-24.735-12.655-30.213-17.446a1.95,1.95,0,0,1,.505-3.254l.013-.006-1.395-2.006a2.786,2.786,0,0,1,.306-3.552" transform="translate(928.725 40.136)" fill="#fff"/>
    <path id="Path_3361" data-name="Path 3361" d="M201.728,815.843c-.644,0-1.31-.032-2-.1-10.716-1.032-25.112-12.722-30.8-17.7a3,3,0,0,1-.235-4.289l-.812-1.168a3.84,3.84,0,0,1,.422-4.891l2.522-2.551a3.829,3.829,0,0,1,4.724-.584l.8.482a3,3,0,0,1,3.558-1.362c5.755,1.922,25.038,8.565,31.552,13.388a9.225,9.225,0,0,1,3.222,10.948c-1.439,3.747-5.654,7.825-12.942,7.825M169.79,789.175a1.737,1.737,0,0,0-.191,2.213l1.395,2.005a1.051,1.051,0,0,1-.443,1.564.9.9,0,0,0-.542.7.884.884,0,0,0,.3.809c5.539,4.845,19.514,16.217,29.622,17.19,7.35.711,11.478-3,12.779-6.387a7.083,7.083,0,0,0-2.51-8.505c-6.265-4.639-25.286-11.186-30.966-13.083a.9.9,0,0,0-1.1.478l-.386.835a1.053,1.053,0,0,1-1.5.458l-1.793-1.087a1.735,1.735,0,0,0-2.139.265Z" transform="translate(929.173 40.585)"/>
    <path id="Path_3362" data-name="Path 3362" d="M192.792,806.721a1.052,1.052,0,0,1-.949-1.5l4.272-8.977a1.051,1.051,0,0,1,1.9.9l-4.272,8.977a1.05,1.05,0,0,1-.95.6" transform="translate(921.826 36.96)"/>
    <path id="Path_3363" data-name="Path 3363" d="M220.441,759.4a1.05,1.05,0,0,1-.789-.356l-1.4-1.583a1.051,1.051,0,0,1,.146-1.528l44.412-34.25a1.051,1.051,0,1,1,1.284,1.665l-43.523,33.564.653.74a1.051,1.051,0,0,1-.788,1.747" transform="translate(913.973 59.151)" fill="#fff"/>
    <path id="Path_3364" data-name="Path 3364" d="M215.417,778.047l-19.334,6.937,3.06,10.511,23.341-6.361Z" transform="translate(920.527 42.224)" fill="#fff"/>
    <path id="Path_3365" data-name="Path 3365" d="M198.693,796.1a1.052,1.052,0,0,1-1.009-.758l-3.06-10.511a1.052,1.052,0,0,1,.655-1.283l19.334-6.937a1.052,1.052,0,0,1,1.242.425l7.066,11.087a1.051,1.051,0,0,1-.61,1.579l-23.341,6.361a1.047,1.047,0,0,1-.277.037m-1.774-10.907,2.495,8.57,20.966-5.714-5.848-9.175Z" transform="translate(920.977 42.673)"/>
    <path id="Path_3366" data-name="Path 3366" d="M197.427,786.443a2.706,2.706,0,0,0-4.267-.667l-5.586,5.415,4.83,8.947,8.774-2.386c.027-3.607-2.121-8.287-3.751-11.311" transform="translate(923.073 40.14)" fill="#5479f7"/>
    <path id="Path_3367" data-name="Path 3367" d="M181.187,794.327,179.12,791.4a2.791,2.791,0,0,0-3.315-.983l-1.948.777-.242-.886a1.95,1.95,0,0,0-2.186-1.413c-5.991.948-25.927,4.294-33.012,7.91-8.381,4.277-5.136,17.448,8.08,18.364,10.474.727,26.483-8.411,32.675-12.235a1.95,1.95,0,0,0,.038-3.293l-.012-.008,1.706-1.749a2.787,2.787,0,0,0,.283-3.554" transform="translate(939.16 38.987)" fill="#fff"/>
    <path id="Path_3368" data-name="Path 3368" d="M147.249,815.809c-.432,0-.856-.014-1.273-.043-8.542-.593-12.594-5.8-13.466-10.079a9.226,9.226,0,0,1,4.98-10.27c7.222-3.686,27.335-7.065,33.327-8.012a3,3,0,0,1,3.285,1.929l.865-.345a3.83,3.83,0,0,1,4.563,1.354l2.067,2.931a3.838,3.838,0,0,1-.389,4.894l-.994,1.02a3,3,0,0,1-.938,4.19c-6.185,3.82-21.325,12.431-32.028,12.433m24.037-26.34a.876.876,0,0,0-.141.011c-5.915.936-25.754,4.264-32.7,7.808a7.083,7.083,0,0,0-3.877,7.977c.726,3.557,4.187,7.891,11.552,8.4,10.132.7,25.788-8.215,32.05-12.081a.9.9,0,0,0,.015-1.518,1.061,1.061,0,0,1-.19-1.622L179.7,796.7a1.736,1.736,0,0,0,.176-2.214l-2.067-2.931a1.733,1.733,0,0,0-2.066-.613l-1.948.777a1.05,1.05,0,0,1-1.4-.7l-.243-.886a.9.9,0,0,0-.866-.664" transform="translate(939.608 39.436)"/>
    <path id="Path_3369" data-name="Path 3369" d="M173.512,808.483a1.051,1.051,0,0,1-1.01-.763l-2.735-9.558a1.051,1.051,0,0,1,2.022-.578l2.734,9.558a1.052,1.052,0,0,1-1.011,1.341" transform="translate(928.412 36.607)"/>
    <path id="Path_3370" data-name="Path 3370" d="M149.584,816.866a1.044,1.044,0,0,1-.556-.161c-10.95-6.852-6.562-15.807-6.516-15.9a1.051,1.051,0,0,1,1.876.95c-.148.3-3.522,7.36,5.755,13.165a1.052,1.052,0,0,1-.559,1.943" transform="translate(936.826 35.586)"/>
    <path id="Path_3371" data-name="Path 3371" d="M141.625,754.617a1.083,1.083,0,0,1-.21-.021,1.051,1.051,0,0,1-.821-1.24l.542-2.671c-2.323-1.845-12.615-9.965-28.7-21.791C94.155,715.46,90.143,712.7,90.1,712.679a1.052,1.052,0,0,1,1.187-1.736c.038.027,4.051,2.781,22.385,16.257s29.169,22.159,29.276,22.245a1.05,1.05,0,0,1,.372,1.029l-.671,3.3a1.051,1.051,0,0,1-1.029.842" transform="translate(952.371 62.355)" fill="#fff"/>
    <path id="Path_3372" data-name="Path 3372" d="M227.791,649.977c-1.381-6.178-10.2-28.956-16.846-45.737-5.306-13.394-18.134-23.051-33.4-24.992a176.744,176.744,0,0,0-35.537-.8c-19.758,1.554-36.727,13.641-43.262,30.967-5.886,15.6-12.3,34.763-12.447,44.468-.155,10.339,6.1,20.217,12.917,27.889a52.031,52.031,0,0,0,34.137,16.94c18.939,1.753,48.49,3.51,61.914-.873,20.586-6.722,35.87-32.906,32.528-47.858" transform="translate(953.374 102.102)" fill="#178bcb"/>
    <path id="Path_3373" data-name="Path 3373" d="M168.308,701.2c-11.655,0-24.5-.876-35.5-1.894a52.8,52.8,0,0,1-34.826-17.287c-8.882-9.99-13.317-19.613-13.182-28.6.149-10.024,6.888-29.908,12.514-44.824,6.651-17.635,23.987-30.057,44.163-31.644a177.575,177.575,0,0,1,35.752.809c15.647,1.99,28.769,11.817,34.248,25.648,6.947,17.533,15.517,39.728,16.895,45.9,3.479,15.56-12.009,42.159-33.227,49.086-6.333,2.068-16.075,2.814-26.833,2.814M155.392,578.508c-4.606,0-9.216.178-13.755.535-19.367,1.524-35.995,13.414-42.36,30.29C91.294,630.5,87.013,645.752,86.9,653.446c-.127,8.448,4.13,17.591,12.651,27.174A50.7,50.7,0,0,0,133,697.212c17.156,1.588,47.959,3.593,61.491-.826,19.908-6.5,35.054-32.195,31.828-46.629-1.348-6.033-9.879-28.116-16.8-45.579-5.2-13.119-17.673-22.444-32.559-24.337a172.117,172.117,0,0,0-21.567-1.334" transform="translate(953.823 102.551)"/>
    <path id="Path_3374" data-name="Path 3374" d="M231.815,639.851H142.331a7.35,7.35,0,0,0-7.353,7.348v59.13a7.351,7.351,0,0,0,7.353,7.348h89.484a7.351,7.351,0,0,0,7.352-7.348V647.2a7.35,7.35,0,0,0-7.352-7.348" transform="translate(938.809 83.57)" fill="#72005d"/>
    <path id="Path_3375" data-name="Path 3375" d="M231.368,714.279H141.883a8.411,8.411,0,0,1-8.4-8.4V646.75a8.411,8.411,0,0,1,8.4-8.4h89.485a8.411,8.411,0,0,1,8.4,8.4v59.129a8.411,8.411,0,0,1-8.4,8.4m-89.485-73.825a6.306,6.306,0,0,0-6.3,6.3v59.129a6.306,6.306,0,0,0,6.3,6.3h89.485a6.306,6.306,0,0,0,6.3-6.3V646.75a6.306,6.306,0,0,0-6.3-6.3Z" transform="translate(939.257 84.019)"/>
    <path id="Path_3376" data-name="Path 3376" d="M235.724,745.7H132.858a4.626,4.626,0,1,0,0,9.252H235.724a4.626,4.626,0,1,0,0-9.252" transform="translate(940.828 51.902)" fill="#540148"/>
    <path id="Path_3377" data-name="Path 3377" d="M235.276,755.554H132.409a5.677,5.677,0,1,1,0-11.354H235.276a5.677,5.677,0,1,1,0,11.354M132.409,746.3a3.575,3.575,0,1,0,0,7.149H235.276a3.575,3.575,0,1,0,0-7.149Z" transform="translate(941.276 52.351)"/>
    <path id="Path_3378" data-name="Path 3378" d="M210.276,685.731a5.36,5.36,0,1,1-5.36-5.356,5.358,5.358,0,0,1,5.36,5.356" transform="translate(919.488 71.446)" fill="#99b9ff"/>
    <path id="Path_3379" data-name="Path 3379" d="M207.765,537.615c.071-.284-5.394-6.1-5.394-6.1l-9.961.786c-5.955-.268-6.564,11.192-6.564,11.192a16.85,16.85,0,0,1,.629,2.694,35.578,35.578,0,0,1-7.244,13.2c-3.865,4.385-7.007,5.6-6.773,8.034.388,4.033,9.522,6.159,13.687,7.129,4.369,1.018,14.831,2.845,15.879.116.22-.574.62-2.9-9.442-9.5l1.479-3.085.055.033a4.473,4.473,0,0,0,6.771-2.551l1.761-5.273,1.332.333a1.182,1.182,0,0,0,1.46-1.3c-.839-6.243,1.788-13.558,2.323-15.707" transform="translate(927.599 115.981)" fill="#fff"/>
    <path id="Path_3380" data-name="Path 3380" d="M196.755,576.721a55.454,55.454,0,0,1-11.3-1.59c-7.291-1.7-14.091-3.848-14.5-8.052-.2-2.055,1.238-3.332,3.224-5.1a42.025,42.025,0,0,0,3.808-3.731,34.4,34.4,0,0,0,6.956-12.588,16.123,16.123,0,0,0-.549-2.277,1.051,1.051,0,0,1-.054-.393c.027-.509.744-12.426,7.593-12.189l9.9-.781a1.047,1.047,0,0,1,.849.327c5.857,6.231,5.813,6.409,5.648,7.071-.086.347-.225.824-.395,1.408-.839,2.876-2.584,8.862-1.906,13.906a2.234,2.234,0,0,1-2.757,2.463l-.388-.1-1.452,4.35a5.772,5.772,0,0,1-3.4,3.665,5.455,5.455,0,0,1-3.934-.067l-.624,1.3c6.965,4.665,9.937,8.022,9.079,10.252-.61,1.59-2.953,2.12-5.8,2.12m-10.3-33.8a18.149,18.149,0,0,1,.607,2.669,1.057,1.057,0,0,1-.036.458,36.556,36.556,0,0,1-7.46,13.59,43.7,43.7,0,0,1-3.986,3.911c-1.772,1.577-2.62,2.377-2.529,3.328.315,3.279,9.769,5.481,12.876,6.2,7.858,1.831,14.22,1.913,14.662.765.007-.019.293-2.126-9.037-8.249a1.053,1.053,0,0,1-.371-1.334l1.479-3.086a1.051,1.051,0,0,1,1.49-.446l.062.036a3.557,3.557,0,0,0,3.088.373,3.638,3.638,0,0,0,2.138-2.36l1.76-5.273a1.052,1.052,0,0,1,1.252-.687l1.332.333a.123.123,0,0,0,.121-.029.121.121,0,0,0,.041-.114c-.736-5.485,1.093-11.759,1.971-14.774.1-.338.186-.638.258-.9-.664-.832-2.716-3.092-4.679-5.187l-9.458.746a1.16,1.16,0,0,1-.13,0c-4.43-.2-5.336,8.626-5.453,10.016m19.835-6.01h0" transform="translate(928.049 116.43)"/>
    <path id="Path_3381" data-name="Path 3381" d="M197.2,540.114a10.147,10.147,0,0,0,.166-1.332c.172-2.933-1.03-4.4-.276-5.6a2.555,2.555,0,0,1,1.609-.978c2.156-.575,4.067,1.117,8.162,3.829,5.085,3.367,5.648,3.8,6.846,3.8,3.047.006,5.827-2.767,7-5.509.328-.77,1.964-4.9-.6-8.447a8.426,8.426,0,0,0-8.435-3.175,4.447,4.447,0,0,0-.81-3.234c-1.981-2.359-6.806-.92-8.5-.416a17.131,17.131,0,0,0-7.32,4.49,6.037,6.037,0,0,0-4.091-2.409c-3.348-.241-5.513,3.257-5.713,3.591-2.33,3.892-.414,8.928,1.032,12.732a30.522,30.522,0,0,0,3.182,6.152l2.5-.333a7.763,7.763,0,0,1-1.2-4.248c.017-.641.067-3.263,1.446-3.743.99-.344,2.091.612,2.249.749,1.673,1.451,1.21,4.019,1.166,4.245l1.582-.166" transform="translate(924.097 119.978)"/>
    <path id="Path_3382" data-name="Path 3382" d="M193.507,561.6v.5c0,1.121.216,3.176.972,4l5.884,4.979Z" transform="translate(921.298 106.982)" fill="#fff"/>
    <path id="Path_3383" data-name="Path 3383" d="M199.914,571.684a1.049,1.049,0,0,1-.678-.249l-5.884-4.978a.941.941,0,0,1-.1-.094c-1.187-1.3-1.247-4.153-1.247-4.712v-.5a1.051,1.051,0,1,1,2.1,0v.5a6.716,6.716,0,0,0,.663,3.255l5.821,4.925a1.051,1.051,0,0,1-.68,1.854" transform="translate(921.747 107.431)"/>
    <path id="Path_3384" data-name="Path 3384" d="M310.208,245.261c0,13.377-8.411,23.157-21.082,23.157s-22.278-7.742-22.29-23.051c-.01-13.906,9.406-23.051,22.079-23.051s21.292,10.273,21.292,22.946" transform="translate(899.359 208.488)" fill="#118bcb"/>
    <path id="Path_3385" data-name="Path 3385" d="M310.208,245.261c0,13.377-8.411,23.157-21.082,23.157s-22.278-7.742-22.29-23.051c-.01-13.906,9.406-23.051,22.079-23.051S310.208,232.588,310.208,245.261Z" transform="translate(899.359 208.488)" fill="none" stroke="#000" stroke-miterlimit="10" stroke-width="1"/>
    <path id="Path_3386" data-name="Path 3386" d="M240.257,220.7a9.938,9.938,0,0,0,.736,1.4,44.466,44.466,0,0,0-3.907,18.628c.02,28.453,20.1,42.843,43.657,42.843a43.845,43.845,0,0,0,6.947-.547,41.332,41.332,0,0,0,6.519-1.591,39.983,39.983,0,0,0,6.019-2.559q.9-.476,1.779-1,.43-.257.854-.522a.984.984,0,0,0,.4-.326c.116-.221-.025-.314-.17-.464-.224-.23-.437-.471-.663-.7l-3.042-3.073q-.7-.714-1.411-1.427c-.271-.274-.612-.734-1.019-.809a.635.635,0,0,0-.427.073c-.29.155-.578.315-.87.465q-.867.448-1.76.84a32.246,32.246,0,0,1-6.405,2.043,34.362,34.362,0,0,1-6.991.709c-18.6,0-34.457-11.362-34.474-33.83a35.3,35.3,0,0,1,2.789-14.04c.221.016.439.04.664.04a9.978,9.978,0,0,0,9.979-9.978,9.822,9.822,0,0,0-.478-2.983,9.835,9.835,0,0,0-6.516-6.524,9.8,9.8,0,0,0-1.942-.418A9.979,9.979,0,0,0,240.257,220.7m5.086-4.918a4.133,4.133,0,1,1-.166,1.1,4.135,4.135,0,0,1,.166-1.1m4.344-6.9c-.019.039-.039.076-.057.116.019-.04.039-.078.057-.116m-.993,1.936c.008-.015.016-.027.024-.042l0,.009c-.006.011-.013.022-.019.033" transform="translate(908.26 213.097)" fill="#118bcb"/>
    <path id="Path_3387" data-name="Path 3387" d="M240.257,220.7a9.938,9.938,0,0,0,.736,1.4,44.466,44.466,0,0,0-3.907,18.628c.02,28.453,20.1,42.843,43.657,42.843a43.845,43.845,0,0,0,6.947-.547,41.332,41.332,0,0,0,6.519-1.591,39.983,39.983,0,0,0,6.019-2.559q.9-.476,1.779-1,.43-.257.854-.522a.984.984,0,0,0,.4-.326c.116-.221-.025-.314-.17-.464-.224-.23-.437-.471-.663-.7l-3.042-3.073q-.7-.714-1.411-1.427c-.271-.274-.612-.734-1.019-.809a.635.635,0,0,0-.427.073c-.29.155-.578.315-.87.465q-.867.448-1.76.84a32.246,32.246,0,0,1-6.405,2.043,34.362,34.362,0,0,1-6.991.709c-18.6,0-34.457-11.362-34.474-33.83a35.3,35.3,0,0,1,2.789-14.04c.221.016.439.04.664.04a9.978,9.978,0,0,0,9.979-9.978,9.822,9.822,0,0,0-.478-2.983,9.835,9.835,0,0,0-6.516-6.524,9.8,9.8,0,0,0-1.942-.418A9.979,9.979,0,0,0,240.257,220.7m5.086-4.918a4.133,4.133,0,1,1-.166,1.1,4.135,4.135,0,0,1,.166-1.1m4.344-6.9c-.019.039-.039.076-.057.116C249.648,208.968,249.668,208.93,249.687,208.892Zm-.993,1.936c.008-.015.016-.027.024-.042l0,.009C248.707,210.806,248.7,210.817,248.694,210.828Z" transform="translate(908.26 213.097)" fill="none" stroke="#000" stroke-miterlimit="10" stroke-width="1"/>
    <path id="Path_3388" data-name="Path 3388" d="M330.37,236.69c0-23.553-18.191-42.646-41.742-42.646a47.629,47.629,0,0,0-7.642.611,45.236,45.236,0,0,0-8.753,2.333,43.136,43.136,0,0,0-4.076,1.786q-.987.5-1.95,1.041c-.326.185-1.661.722-1.435,1.259.028.065.136.139.186.191l3.611,3.712q.733.753,1.464,1.5c.32.328.678.957,1.21.907a2.675,2.675,0,0,0,.878-.37c.335-.17.675-.336,1.015-.5a34.793,34.793,0,0,1,4.245-1.653,36.547,36.547,0,0,1,9.206-1.636q.939-.046,1.88-.046c18.6,0,32.96,15.077,32.96,33.675a37.114,37.114,0,0,1-2.5,13.6,10.171,10.171,0,0,0-1.049-.055,10.066,10.066,0,1,0,8.691,5.026,46.58,46.58,0,0,0,3.8-18.748m-12.6,27.984a4.218,4.218,0,1,1,4.218-4.218,4.218,4.218,0,0,1-4.218,4.218" transform="translate(899.984 216.946)" fill="#118bcb"/>
    <path id="Path_3389" data-name="Path 3389" d="M330.37,236.69c0-23.553-18.191-42.646-41.742-42.646a47.629,47.629,0,0,0-7.642.611,45.236,45.236,0,0,0-8.753,2.333,43.136,43.136,0,0,0-4.076,1.786q-.987.5-1.95,1.041c-.326.185-1.661.722-1.435,1.259.028.065.136.139.186.191l3.611,3.712q.733.753,1.464,1.5c.32.328.678.957,1.21.907a2.675,2.675,0,0,0,.878-.37c.335-.17.675-.336,1.015-.5a34.793,34.793,0,0,1,4.245-1.653,36.547,36.547,0,0,1,9.206-1.636q.939-.046,1.88-.046c18.6,0,32.96,15.077,32.96,33.675a37.114,37.114,0,0,1-2.5,13.6,10.171,10.171,0,0,0-1.049-.055,10.066,10.066,0,1,0,8.691,5.026A46.58,46.58,0,0,0,330.37,236.69Zm-12.6,27.984a4.218,4.218,0,1,1,4.218-4.218A4.218,4.218,0,0,1,317.769,264.674Z" transform="translate(899.984 216.946)" fill="none" stroke="#000" stroke-miterlimit="10" stroke-width="1"/>
    <rect id="Rectangle_487" data-name="Rectangle 487" width="580.809" height="582" transform="translate(979.191 275)" fill="none"/>
    <rect id="Rectangle_488" data-name="Rectangle 488" width="580.809" height="582" transform="translate(979.191 275)" fill="none"/>
  </g>
</svg>
