<svg xmlns="http://www.w3.org/2000/svg" xmlns:xlink="http://www.w3.org/1999/xlink" width="500.078" height="270" viewBox="0 0 500.078 270">
  <defs>
    <clipPath id="clip-path">
      <rect id="Rectangle_1032" data-name="Rectangle 1032" width="500.078" height="270" fill="none"/>
    </clipPath>
    <clipPath id="clip-path-3">
      <rect id="Rectangle_1030" data-name="Rectangle 1030" width="500.078" height="249.621" fill="none"/>
    </clipPath>
  </defs>
  <g id="Group_994" data-name="Group 994" transform="translate(-688 -1044)">
    <g id="Group_993" data-name="Group 993" transform="translate(688 1044)">
      <g id="Group_992" data-name="Group 992" clip-path="url(#clip-path)">
        <g id="Group_991" data-name="Group 991">
          <g id="Group_990" data-name="Group 990" clip-path="url(#clip-path)">
            <g id="Group_989" data-name="Group 989" transform="translate(0 20.379)" opacity="0.6">
              <g id="Group_988" data-name="Group 988">
                <g id="Group_987" data-name="Group 987" clip-path="url(#clip-path-3)">
                  <path id="Path_5848" data-name="Path 5848" d="M391.594,150.763c-39.386-30.351-43.643-109.687-100.255-119.6-63.255-11.073-74.2,39.794-97.8,51.963-42.966,22.147-77.783-31.039-130.154-12.1C-7.035,96.5-4.648,229.387,4.9,279.22H487.1s23.612-36.974,7.134-67.55c-18.5-34.328-67.74-34.01-102.641-60.906" transform="translate(0 -29.599)" fill="#98d8f4"/>
                </g>
              </g>
            </g>
            <path id="Path_5849" data-name="Path 5849" d="M496.994,245.871,491.6,244.1a2.027,2.027,0,0,0-2.559,1.292L459.8,334.278a2.026,2.026,0,0,1-1.925,1.394H365.636a2.027,2.027,0,0,0-2.028,2.027v4.855a2.028,2.028,0,0,0,2.028,2.028H466.856v-.62l31.43-95.531a2.027,2.027,0,0,0-1.292-2.559" transform="translate(-113.26 -76.002)" fill="#72005d"/>
            <path id="Path_5850" data-name="Path 5850" d="M467.3,345.026H365.267a2.842,2.842,0,0,1-2.838-2.838v-4.855a2.841,2.841,0,0,1,2.838-2.838H457.5a1.215,1.215,0,0,0,1.156-.837L487.9,244.769a2.848,2.848,0,0,1,3.581-1.811l5.394,1.777a2.839,2.839,0,0,1,1.809,3.582L467.3,343.726Zm-102.032-8.91a1.219,1.219,0,0,0-1.216,1.217v4.855a1.218,1.218,0,0,0,1.216,1.216H465.7l.021-.061,31.43-95.531a1.22,1.22,0,0,0-.776-1.536L490.98,244.5a1.226,1.226,0,0,0-1.536.777L460.2,334.165a2.833,2.833,0,0,1-2.7,1.951Z" transform="translate(-112.893 -75.636)" fill="#2e2e2e"/>
            <path id="Path_5851" data-name="Path 5851" d="M274.633,322.507s-12.433,8.818-13.109,9.393-.98,1.115-.676,1.52a80.62,80.62,0,0,0,11.521,11.824c5.811,4.6,9.8,6.825,13.92,7.366s14.8.758,17.163.878,34.579.54,34.579.54,2.787.507,5.777,1.268,4.308,1.875,6.994,1.52a36.283,36.283,0,0,0,8.311-2.788c.811-.456,5.828-2.28,6.335-2.128s8.247,3.894,9.926,4.126a25.824,25.824,0,0,0,4.853-.153s3.059,1.7,4.731.638,2.736-1.875,2.027-4.1-4.409-8.159-8.261-11.453S369,333,364.739,332.389a57.221,57.221,0,0,0-17.382.912,53.062,53.062,0,0,1-10.186,1.267l-24.934-6.74-20.679-7.486-5.421-6.349Z" transform="translate(-81.215 -97.806)" fill="#fff"/>
            <path id="Path_5852" data-name="Path 5852" d="M296.56,139.107c0,.3-2.838,12.771-3.649,16.015s-1.922,4.372-1.891,5.927c.042,2.1,3.006,6.692,2.55,8.009s-2.079,1.487-3.193,1.41a12.826,12.826,0,0,0-2.929.352s-3.116,10.749-4.977,12.326-2.466,3.67-6.478,3.686-10.043.065-10.043.065-1.064,1.115-.963,4.205-.355,9.983-.355,9.983-6.791-.608-11.656-2.939-14.6-5.624-16.216-9.932a9.945,9.945,0,0,1,4.155-7.957l5.017-10.286s8.92-5.018,9.021-8.059c-4.156-4-3.9-11.4-.3-12.618a9.1,9.1,0,0,1,6.994.608c.2.153,1.064,1.875,5.22.913s9.375-2.787,12.163-5.17,5.067-4.622,5.067-4.622Z" transform="translate(-73.748 -43.33)" fill="#fff"/>
            <path id="Path_5853" data-name="Path 5853" d="M243.052,157.208c0-.406-8.19-12.3-7.406-27.839s12.4-26.353,20.918-28.65,14.193-2.7,21.625,0,17.236,8.35,18.858,13.426.94,15.764.94,15.764l-15.947-1.689s-4.245,6.413-9.122,8.244-9.8,1.892-10.947,1.621c-3.986-2.027-8.919-1.824-10.405.473s-2.446,5.147-.609,7.433,3.852,4.459,3.852,4.459-2.432,4.054-4.662,5.338a32.387,32.387,0,0,1-6.592,2.33Z" transform="translate(-73.385 -30.788)" fill="#2e2e2e"/>
            <path id="Path_5854" data-name="Path 5854" d="M222.17,210.418s-10,10.947-11.757,13.515a104.572,104.572,0,0,0-8.717,19.055,199.435,199.435,0,0,0-5,19.6c-.54,3.109-2.314,16.962-2.813,20.88s-.7,19.055-.7,19.055-1.246,22.031-1.26,22.233-.159,9.121-.159,9.121l67.342-.27-.514-16.015s-6.771-3.433-8.92-5.608-10.676-12.907-10.676-12.907l26.337-18.65,2.11-1.283-8.784-16.082s-4.451-25.611-4.726-26.421-3.18-13.513-3.383-13.58-13.416-2.88-16.19-4.379a84.748,84.748,0,0,1-8.339-5.959l-4.027-2.5Z" transform="translate(-59.732 -65.48)" fill="#72005d"/>
            <path id="Path_5855" data-name="Path 5855" d="M418.079,365.715a5.277,5.277,0,0,1-3.742-1.708.811.811,0,0,1,1.139-1.156c1.979,1.95,3.88,1.195,4.7.445.586-.542,1.677-1.553-.051-5.28-2.181-4.707-11.449-13.1-16.517-15.7-7.749-3.98-29.366.928-29.584.98a.811.811,0,0,1-.364-1.581c.911-.209,22.417-5.084,30.689-.844,5.391,2.765,14.906,11.412,17.249,16.466,1.97,4.254.863,6.056-.322,7.152a4.868,4.868,0,0,1-3.194,1.228" transform="translate(-116.194 -105.639)" fill="#2e2e2e"/>
            <path id="Path_5856" data-name="Path 5856" d="M385.211,369.25c-3.017,0-10-2.488-10.837-2.789a.811.811,0,0,1,.551-1.526c3.336,1.2,8.9,2.916,10.6,2.676,3.85-.535,8.073-2.51,10.869-3.816.857-.4,1.592-.744,2.155-.974,1.744-.708,4.023.35,6.91,1.692a37.765,37.765,0,0,0,6.213,2.442c1.276.333,1.763.068,2.183-.262a1.745,1.745,0,0,0,.713-1.525c-.051-3.072-5.021-7.963-6.592-9.1-3.449-2.481-6-3.953-12.406-3.592a.789.789,0,0,1-.857-.761.81.81,0,0,1,.762-.857c6.919-.392,9.817,1.28,13.449,3.9,1.584,1.14,7.2,6.423,7.266,10.384a3.379,3.379,0,0,1-1.341,2.835,3.712,3.712,0,0,1-3.589.547,38.984,38.984,0,0,1-6.486-2.539c-2.328-1.082-4.524-2.1-5.614-1.661-.545.222-1.252.554-2.081.94-2.882,1.349-7.239,3.386-11.333,3.955a3.9,3.9,0,0,1-.532.033" transform="translate(-116.447 -109.272)" fill="#2e2e2e"/>
            <path id="Path_5857" data-name="Path 5857" d="M280.113,201.814a27.861,27.861,0,0,1-7.534-1.15c-1.721-.486-4.569-1.555-9.383-5.212a.811.811,0,1,1,.982-1.292c5.126,3.9,7.923,4.685,8.842,4.943,5.492,1.551,9.817,1.467,13.608-.245,3.21-1.453,5.549-5.684,8.343-15.089a.811.811,0,1,1,1.555.462c-2.948,9.917-5.535,14.433-9.229,16.1a17.149,17.149,0,0,1-7.184,1.481" transform="translate(-81.883 -57.062)" fill="#2e2e2e"/>
            <path id="Path_5858" data-name="Path 5858" d="M264.022,167.726a7.62,7.62,0,1,1,5.434-12.972.811.811,0,1,1-1.156,1.137,6,6,0,1,0-6.517,9.775,6.167,6.167,0,0,0,2.6.428.78.78,0,0,1,.859.76.81.81,0,0,1-.76.858c-.156.01-.309.014-.463.014" transform="translate(-79.868 -47.497)" fill="#2e2e2e"/>
            <path id="Path_5859" data-name="Path 5859" d="M262.555,160.9a.791.791,0,0,1-.295-.056.809.809,0,0,1-.461-1.049,4.317,4.317,0,0,1,2.638-2.6,4.215,4.215,0,0,1,3.622.553.81.81,0,0,1-.874,1.365,2.615,2.615,0,0,0-2.246-.375,2.7,2.7,0,0,0-1.63,1.642.811.811,0,0,1-.755.516" transform="translate(-81.53 -48.907)" fill="#2e2e2e"/>
            <path id="Path_5860" data-name="Path 5860" d="M312.41,172.256a21.069,21.069,0,0,1-2.242-.139.81.81,0,0,1-.721-.892.838.838,0,0,1,.892-.721c3.6.385,4.566-.179,4.74-.721.34-1.054-.057-1.816-1.068-3.59-.969-1.7-1.724-3.525-.593-7.559l2.7-9.6c.145-.514.26-.963.355-1.414a36.368,36.368,0,0,0,.885-4.447.811.811,0,1,1,1.612.187,36.919,36.919,0,0,1-.921,4.639c-.091.44-.214.92-.369,1.476l-2.7,9.6c-1.042,3.716-.266,5.076.418,6.278,1.053,1.847,1.8,3.153,1.224,4.932-.505,1.563-2.274,1.973-4.211,1.973" transform="translate(-96.388 -44.372)" fill="#2e2e2e"/>
            <path id="Path_5861" data-name="Path 5861" d="M264.425,224.075c-.025,0-.049,0-.074,0a47.289,47.289,0,0,1-29.634-14,.811.811,0,0,1,1.172-1.121,45.645,45.645,0,0,0,28.608,13.5.811.811,0,0,1-.072,1.619" transform="translate(-73.042 -65.009)" fill="#2e2e2e"/>
            <path id="Path_5862" data-name="Path 5862" d="M194.225,283.967h-.038a.808.808,0,0,1-.771-.848c.73-15.249,2.1-33.121,9.217-52.272,5.445-14.664,11.009-20.647,18.712-28.926l.779-.838c2.952-4.4,6.975-11.433,8.646-16.236a.811.811,0,1,1,1.533.532c-1.72,4.941-5.825,12.125-8.911,16.708l-.86.937c-7.573,8.144-13.047,14.027-18.378,28.386-7.033,18.935-8.394,36.66-9.119,51.786a.81.81,0,0,1-.809.773" transform="translate(-60.247 -57.408)" fill="#2e2e2e"/>
            <path id="Path_5863" data-name="Path 5863" d="M288.976,384.343a.811.811,0,0,1-.811-.79c0-.084-.206-8.412.094-15.688a.786.786,0,0,1,.844-.778.813.813,0,0,1,.777.844c-.3,7.222-.1,15.5-.093,15.58a.811.811,0,0,1-.79.832Z" transform="translate(-89.739 -114.343)" fill="#2e2e2e"/>
            <path id="Path_5864" data-name="Path 5864" d="M285.416,264.563a.812.812,0,0,1-.8-.7c-1.889-13.19-5.369-29.026-6.854-35.788-.383-1.741-.64-2.911-.716-3.33a43.229,43.229,0,0,1,.42-17.294.81.81,0,0,1,1.58.358,41.618,41.618,0,0,0-.4,16.647c.074.412.328,1.562.7,3.27,1.489,6.78,4.978,22.656,6.876,35.905a.811.811,0,0,1-.687.918.962.962,0,0,1-.117.008" transform="translate(-86.085 -64.423)" fill="#2e2e2e"/>
            <path id="Path_5865" data-name="Path 5865" d="M338.436,362.9h-.012l-46.637-.686a31.132,31.132,0,0,1-19.221-6.973,81.282,81.282,0,0,1-13.472-14.3.811.811,0,1,1,1.3-.969,79.538,79.538,0,0,0,13.2,14.019,29.505,29.505,0,0,0,18.217,6.606l46.636.686a.811.811,0,0,1-.012,1.621" transform="translate(-80.655 -105.794)" fill="#2e2e2e"/>
            <path id="Path_5866" data-name="Path 5866" d="M350.295,334.969a.726.726,0,0,1-.1-.006c-14.121-1.782-45.866-13.5-47.21-14l-.231-.086-.145-.2c-.171-.234-.47-.64-.842-1.142-1.313-1.774-3.513-4.743-4.221-5.971a.811.811,0,1,1,1.406-.81c.66,1.148,2.826,4.07,4.118,5.817l.708.956c2.949,1.084,33.3,12.145,46.619,13.826a.811.811,0,0,1-.1,1.615" transform="translate(-92.648 -97.293)" fill="#2e2e2e"/>
            <path id="Path_5867" data-name="Path 5867" d="M243.089,159.236l-.361-.4c-10.269-11.31-10.964-30.78-5.721-42.333,4.775-10.52,14.6-17.134,26.958-18.144,12.025-1,27.056,2.5,33.251,15.231,1.758,3.607,2.675,7.779,1.441,16.412l-.112.79-15.686-1.976c-7.658,9.953-16.4,10.786-20.976,10.384a.813.813,0,0,1-.737-.879.825.825,0,0,1,.879-.736c4.292.37,12.568-.439,19.822-10.119l.284-.377,15.031,1.895c1.01-7.689.171-11.454-1.4-14.685C289.92,102.308,275.57,99.049,264.1,99.977c-11.754.962-21.09,7.231-25.615,17.2-4.334,9.55-4.92,28.687,5.087,40.169,5.567-2.027,9.124-4.769,10.3-7.949a.81.81,0,1,1,1.52.561c-1.4,3.8-5.372,6.86-11.794,9.1Z" transform="translate(-72.825 -30.589)" fill="#2e2e2e"/>
            <path id="Path_5868" data-name="Path 5868" d="M243.326,319.523l-.483-.589c-8.919-10.878-21.009-33.181-26.4-48.7a.812.812,0,0,1,1.533-.532c5.244,15.1,16.873,36.656,25.643,47.614L273.826,295.5c-4.9-8.987-12.106-21.1-16.016-27.676-1.217-2.05-2.15-3.619-2.652-4.482a.811.811,0,1,1,1.4-.814c.5.86,1.43,2.424,2.643,4.468,4.009,6.74,11.468,19.286,16.389,28.357l.34.627Z" transform="translate(-67.405 -81.65)" fill="#2e2e2e"/>
            <path id="Path_5869" data-name="Path 5869" d="M179.6,335.569c3.646-45.942,5.233-96.144-6.119-114.117a11.183,11.183,0,0,0-11.948-5.078c-5.251,1.108-8.111,8.178-6.837,16.328,2.027,12.974,7.094,65.577,1.825,102.867Z" transform="translate(-48.094 -67.323)" fill="#fff"/>
            <path id="Path_5870" data-name="Path 5870" d="M156.161,336.493a1.127,1.127,0,0,1-.116-.008.811.811,0,0,1-.689-.917c5.151-36.441.467-87.977-1.822-102.628-1.351-8.648,1.861-16.062,7.47-17.246a11.938,11.938,0,0,1,12.8,5.439c12.212,19.335,9.412,74.672,6.241,114.615a.81.81,0,0,1-1.615-.129c3.15-39.711,5.958-94.693-6-113.621a10.456,10.456,0,0,0-11.093-4.716c-4.753,1-7.42,7.627-6.2,15.41,2.3,14.714,7,66.481,1.826,103.106a.811.811,0,0,1-.8.7" transform="translate(-47.728 -67.103)" fill="#2e2e2e"/>
            <path id="Path_5871" data-name="Path 5871" d="M464.772,391.418H51.518a.81.81,0,1,1,0-1.619H464.772a.81.81,0,1,1,0,1.619" transform="translate(-15.795 -121.418)" fill="#2e2e2e"/>
            <path id="Path_5872" data-name="Path 5872" d="M229.162,30.686a1.3,1.3,0,0,0-1.292,1.29A26.127,26.127,0,1,1,199.96,5.912l-1.166.861a1.263,1.263,0,0,0,.737,2.276,1.351,1.351,0,0,0,.8-.246l4.243-3.2a1.315,1.315,0,0,0,.491-1.044,1.375,1.375,0,0,0-.554-1.044L200.27.689a1.288,1.288,0,0,0-1.414,2.151l.861.554a28.684,28.684,0,1,0,30.736,28.585,1.3,1.3,0,0,0-1.29-1.29" transform="translate(-53.914 -0.156)" fill="#536876"/>
            <path id="Path_5873" data-name="Path 5873" d="M229.162,30.686a1.3,1.3,0,0,0-1.292,1.29A26.127,26.127,0,1,1,199.96,5.912l-1.166.861a1.263,1.263,0,0,0,.737,2.276,1.351,1.351,0,0,0,.8-.246l4.243-3.2a1.315,1.315,0,0,0,.491-1.044,1.375,1.375,0,0,0-.554-1.044L200.27.689a1.288,1.288,0,0,0-1.414,2.151l.861.554a28.684,28.684,0,1,0,30.736,28.585,1.3,1.3,0,0,0-1.29-1.29" transform="translate(-53.914 -0.156)" fill="none" stroke="#fff" stroke-miterlimit="10" stroke-width="1"/>
            <path id="Path_5874" data-name="Path 5874" d="M254.034,35.878a1.536,1.536,0,1,1-1.536-1.536,1.536,1.536,0,0,1,1.536,1.536" transform="translate(-78.172 -10.697)" fill="#536876"/>
            <path id="Path_5875" data-name="Path 5875" d="M251.083,27.485a1.536,1.536,0,1,1-1.536-1.536,1.536,1.536,0,0,1,1.536,1.536" transform="translate(-77.253 -8.083)" fill="#536876"/>
            <path id="Path_5876" data-name="Path 5876" d="M245.634,19.625a1.536,1.536,0,1,1-1.536-1.536,1.536,1.536,0,0,1,1.536,1.536" transform="translate(-75.556 -5.635)" fill="#536876"/>
            <path id="Path_5877" data-name="Path 5877" d="M238.235,12.933A1.536,1.536,0,1,1,236.7,11.4a1.536,1.536,0,0,1,1.536,1.536" transform="translate(-73.251 -3.55)" fill="#536876"/>
            <path id="Path_5878" data-name="Path 5878" d="M229.3,8.2a1.536,1.536,0,1,1-1.536-1.536A1.536,1.536,0,0,1,229.3,8.2" transform="translate(-70.468 -2.076)" fill="#536876"/>
            <path id="Path_5879" data-name="Path 5879" d="M220.571,37.329A9.32,9.32,0,0,1,218.6,38V28.536h-5.969a8.181,8.181,0,0,0,.432,1.106c1.044,2.214,1.905,5.717-2.337,5.717s-3.382-3.5-2.335-5.717a8.263,8.263,0,0,0,.43-1.106h-9.835v9.282a6.5,6.5,0,0,0,1.23-.491c2.213-1.045,5.717-1.906,5.717,2.335s-3.5,3.381-5.717,2.337c-.432-.186-.861-.367-1.23-.491v6.7h9.957a8.273,8.273,0,0,1-.553,1.414c-1.044,2.213-1.906,5.717,2.337,5.717s3.382-3.5,2.335-5.717a8.388,8.388,0,0,1-.553-1.414H218.6V41.322a8.371,8.371,0,0,1,1.966.675c2.213,1.044,5.716,1.906,5.716-2.335s-3.443-3.38-5.714-2.335" transform="translate(-61.983 -8.889)" fill="#536876"/>
            <path id="Path_5880" data-name="Path 5880" d="M653.6,175.221a.957.957,0,1,1,0-1.913h16.773a6.37,6.37,0,0,0,6.362-6.363V152.069a.957.957,0,1,1,1.913,0v14.877a8.285,8.285,0,0,1-8.276,8.276Z" transform="translate(-203.29 -47.07)" fill="#536876"/>
            <path id="Path_5881" data-name="Path 5881" d="M610.411,150.084a8.285,8.285,0,0,1-8.276-8.276v-14.6H584.8a10.117,10.117,0,0,1-10.1-10.105V80.515a10.115,10.115,0,0,1,10.1-10.1h36.594a10.116,10.116,0,0,1,10.105,10.1v17.34h14.6a8.285,8.285,0,0,1,8.276,8.276v11.292a.957.957,0,1,1-1.913,0V106.131a6.369,6.369,0,0,0-6.362-6.362H610.41a6.361,6.361,0,0,0-6.361,6.362V109.2a.957.957,0,0,1-1.914,0V106.13a8.285,8.285,0,0,1,8.275-8.275h19.17V80.515a8.2,8.2,0,0,0-8.192-8.191H584.8a8.2,8.2,0,0,0-8.193,8.192v36.592A8.2,8.2,0,0,0,584.8,125.3h17.339v-6.587a.957.957,0,1,1,1.914,0v23.095a6.369,6.369,0,0,0,6.361,6.363h9.4a.957.957,0,1,1,0,1.913Z" transform="translate(-179.01 -21.932)" fill="#536876"/>
            <path id="Path_5882" data-name="Path 5882" d="M410.145,145.023a.971.971,0,1,1,.971-.972.972.972,0,0,1-.971.972" transform="translate(-127.453 -44.568)" fill="#536876"/>
            <path id="Path_5883" data-name="Path 5883" d="M418.588,145.023a.971.971,0,1,1,.969-.972.972.972,0,0,1-.969.972" transform="translate(-130.083 -44.568)" fill="#536876"/>
            <path id="Path_5884" data-name="Path 5884" d="M427.028,145.023a.971.971,0,1,1,.971-.972.972.972,0,0,1-.971.972" transform="translate(-132.712 -44.568)" fill="#536876"/>
            <path id="Path_5885" data-name="Path 5885" d="M425.777,212.012v-1.469h31.251a5.076,5.076,0,0,0,5.077-5.078V150.982h-9.437a5.093,5.093,0,0,1-5.094-5.094V136.45H407.622a5.081,5.081,0,0,0-5.078,5.08v26.89h-1.469V141.53a6.551,6.551,0,0,1,6.55-6.548h40.763a1.094,1.094,0,0,1,.438.218l14.527,14.528a.663.663,0,0,1,.142.209,1.15,1.15,0,0,1,.061.241l.028.147-.01,55.139a6.555,6.555,0,0,1-6.548,6.548Zm23.267-66.124a3.648,3.648,0,0,0,1.062,2.563,3.6,3.6,0,0,0,2.562,1.06h8.4L449.044,137.49Z" transform="translate(-124.931 -42.046)" fill="#536876"/>
            <path id="Path_5886" data-name="Path 5886" d="M386.932,237.823a.734.734,0,0,1-.519-.215.711.711,0,0,1-.216-.52v-4.3l-.64-.2a19.745,19.745,0,0,1-3.468-1.439l-.594-.315-3.043,3.04a.727.727,0,0,1-.519.215.736.736,0,0,1-.518-.212l-6.166-6.166a.737.737,0,0,1,0-1.041l3.043-3.041-.315-.594a19.48,19.48,0,0,1-1.438-3.465l-.2-.642h-4.3a.743.743,0,0,1-.519-.214.733.733,0,0,1-.214-.521v-8.719a.734.734,0,0,1,.733-.734h4.3l.2-.642a19.526,19.526,0,0,1,1.438-3.466l.316-.594L371.248,201a.736.736,0,0,1,0-1.038l6.167-6.162a.736.736,0,0,1,1.04,0l3.042,3.043.594-.315a19.249,19.249,0,0,1,3.464-1.438l.642-.2v-4.3a.736.736,0,0,1,.735-.735h8.718a.734.734,0,0,1,.518.214.714.714,0,0,1,.217.521v4.3l.643.2a19.311,19.311,0,0,1,3.465,1.436l.594.316,3.043-3.043a.732.732,0,0,1,.519-.216.74.74,0,0,1,.521.215l6.164,6.168a.735.735,0,0,1,0,1.04l-3.044,3.041.316.594a19.176,19.176,0,0,1,1.438,3.465l.2.643h4.3a.742.742,0,0,1,.52.215.729.729,0,0,1,.215.518V218.2a.726.726,0,0,1-.215.521.738.738,0,0,1-.52.214h-4.3l-.2.642a19.574,19.574,0,0,1-1.437,3.469l-.315.592,3.041,3.043a.732.732,0,0,1,0,1.038l-6.168,6.164a.714.714,0,0,1-.519.214.74.74,0,0,1-.519-.211l-3.043-3.047-.594.316a19.644,19.644,0,0,1-3.465,1.441l-.642.2v4.3a.728.728,0,0,1-.216.521.739.739,0,0,1-.52.215Zm-5.54-8.652a.747.747,0,0,1,.386.11,18,18,0,0,0,5.322,2.208.73.73,0,0,1,.567.715v4.151h7.25V232.2a.731.731,0,0,1,.564-.716,18,18,0,0,0,5.324-2.207.751.751,0,0,1,.387-.11.732.732,0,0,1,.518.212l2.938,2.94,5.125-5.126-2.934-2.936a.727.727,0,0,1-.107-.907,18.05,18.05,0,0,0,2.209-5.326.732.732,0,0,1,.715-.564H413.8v-7.25h-4.148a.731.731,0,0,1-.715-.567,18.071,18.071,0,0,0-2.209-5.322.727.727,0,0,1,.105-.907l2.937-2.936-5.127-5.127-2.935,2.936a.738.738,0,0,1-.907.107,18.091,18.091,0,0,0-5.322-2.208.738.738,0,0,1-.567-.716v-4.149h-7.25v4.149a.738.738,0,0,1-.567.717,18.106,18.106,0,0,0-5.322,2.206.738.738,0,0,1-.9-.1l-2.939-2.94-5.127,5.127,2.937,2.937a.73.73,0,0,1,.107.906,18.069,18.069,0,0,0-2.209,5.323.733.733,0,0,1-.716.565h-4.148v7.25h4.148a.734.734,0,0,1,.715.565,18.145,18.145,0,0,0,2.209,5.327.727.727,0,0,1-.106.9l-2.937,2.936,5.127,5.127,2.935-2.936a.739.739,0,0,1,.522-.216" transform="translate(-114.413 -59.138)" fill="#536876"/>
            <path id="Path_5887" data-name="Path 5887" d="M396.553,231.457a12.362,12.362,0,1,1,8.734-3.62,12.3,12.3,0,0,1-8.734,3.62m0-23.25a10.889,10.889,0,1,0,7.7,3.189,10.838,10.838,0,0,0-7.7-3.189Z" transform="translate(-119.671 -64.397)" fill="#536876"/>
            <path id="Path_5888" data-name="Path 5888" d="M399.837,227.479a5.064,5.064,0,0,1-3.6-1.493,5.093,5.093,0,0,1,0-7.2,5.094,5.094,0,0,1,7.2,0,5.1,5.1,0,0,1,0,7.2,5.063,5.063,0,0,1-3.6,1.492m0-8.719a3.655,3.655,0,0,0-2.564,1.062,3.626,3.626,0,0,0,0,5.126,3.628,3.628,0,0,0,5.127,0,3.626,3.626,0,0,0-2.563-6.189" transform="translate(-122.958 -67.684)" fill="#536876"/>
            <path id="Path_5889" data-name="Path 5889" d="M436.131,207.1a.736.736,0,0,1-.634-.364.728.728,0,0,1-.007-.729l6.541-11.633-.878-.417a15.16,15.16,0,0,1-8.438-16.309l.185-1.064H418.693a.737.737,0,0,1-.521-.213.76.76,0,0,1-.215-.521V152.6a.737.737,0,0,1,.735-.735h23.249a.736.736,0,0,1,.736.735v13.18l1.145-.311a15.25,15.25,0,0,1,12.6,27.3l-.684.47L462.926,206a.737.737,0,0,1-.643,1.1Zm1.256-1.47H460.96l-6.506-11.69-.754.322a14.886,14.886,0,0,1-5.909,1.211,15.04,15.04,0,0,1-3.668-.452l-.671-.169Zm6.79-12.077,1.237.239a12.758,12.758,0,0,0,2.359.214,13.53,13.53,0,0,0,5-.952l.969-.382-4.532-8.054Zm-9.9-16.256A13.734,13.734,0,0,0,442,192.738l.76.346,5.808-10.331a.78.78,0,0,1,.64-.318.79.79,0,0,1,.664.358l5.155,9.166.823-.6a13.78,13.78,0,0,0-12.56-24.194l-.611.211v8.468a.725.725,0,0,1-.216.521.741.741,0,0,1-.52.215h-7.5Zm5.493-8.331a13.953,13.953,0,0,0-4.208,4.818l-.7,1.332h6.347v-7.174Zm-20.345,6.149h13.939l.228-.57a15.361,15.361,0,0,1,7.125-7.868l.489-.255V153.335H419.427Z" transform="translate(-130.19 -47.304)" fill="#536876"/>
            <path id="Path_5890" data-name="Path 5890" d="M93.938,227.486a.7.7,0,0,1-.63-.4l-8.367-18.17a.7.7,0,0,1,.065-.695,12.417,12.417,0,0,0,.91-12.532l-6.336-13.827a2.577,2.577,0,0,0-2.265-1.406,2.492,2.492,0,0,0-1.055.233,2.519,2.519,0,0,0-1.284,3.244l1.365,2.969a.694.694,0,1,1-1.262.58l-2.649-5.759a2.682,2.682,0,0,0-.992-1.176,2.528,2.528,0,0,0-3.641,3.2l2.687,5.848a.695.695,0,0,1-.341.922.694.694,0,0,1-.921-.341l-4.043-8.78a2.527,2.527,0,0,0-4.6,2.079l4.057,8.818a.7.7,0,0,1-1.263.581L59.4,184.245l-.07-.171-5.321-11.556a2.671,2.671,0,0,0-2.3-1.6h0a2.549,2.549,0,0,0-1.113.231,2.524,2.524,0,0,0-1.238,3.352l12.791,27.8a.694.694,0,0,1-.63.985.728.728,0,0,1-.284-.059L56.4,201.084l-.05-.01a3.763,3.763,0,0,0-.774-.084,3.569,3.569,0,0,0-2,.611,3.622,3.622,0,0,0-1.281,4.58,3.7,3.7,0,0,0,1.781,1.777L66.1,215.309l.047.017a12.275,12.275,0,0,0,4.151.726h.161a.7.7,0,0,1,.655.392l4.63,10.059a.694.694,0,0,1-1.261.579l-4.437-9.627-.492-.03a13.957,13.957,0,0,1-4.009-.841l-.138-.068-11.9-7.286a5.148,5.148,0,0,1-2.477-2.482,5.064,5.064,0,0,1-.342-1.074l-.151-.736H25.227a4.118,4.118,0,0,1-2.654-.9,3.92,3.92,0,0,1-1.411-3.012V156.087a4.129,4.129,0,0,1,.9-2.658,3.911,3.911,0,0,1,3.014-1.415H92.569a4.109,4.109,0,0,1,2.652.9,3.917,3.917,0,0,1,1.412,3.012v45.093a3.921,3.921,0,0,1-1.415,3.014,4.118,4.118,0,0,1-2.654.9H88.08l-.189.565a13.624,13.624,0,0,1-1.271,2.777l-.2.327.108.445L94.568,226.5a.693.693,0,0,1-.63.982M77.287,179a3.908,3.908,0,0,1,3.555,2.276l6.345,13.849a14.578,14.578,0,0,1,1.307,7.429l-.09,1h4.314a2.542,2.542,0,0,0,1.786-.739,2.511,2.511,0,0,0,.74-1.787V155.929a2.511,2.511,0,0,0-.74-1.787,2.548,2.548,0,0,0-1.787-.74H25.076a2.53,2.53,0,0,0-2.527,2.527v45.093a2.53,2.53,0,0,0,2.527,2.528H50.642l.2-.545a5.019,5.019,0,0,1,5.985-3.253l.12.041,3.184,1.41L48.1,175.069a3.915,3.915,0,0,1,1.891-5.255,3.876,3.876,0,0,1,1.636-.359,3.915,3.915,0,0,1,3.582,2.329l4.045,8.792.929-.93A3.867,3.867,0,0,1,62.9,178.52c.064,0,.128,0,.193,0a3.848,3.848,0,0,1,2.784,1.41l.662.807.715-.755a3.9,3.9,0,0,1,2.828-1.223l.13,0a3.9,3.9,0,0,1,2.868,1.406l.662.794.708-.748A3.933,3.933,0,0,1,77.287,179" transform="translate(-6.592 -47.351)" fill="#536876"/>
            <path id="Path_5891" data-name="Path 5891" d="M27.784,159.434a.95.95,0,1,1,.95-.949.95.95,0,0,1-.95.949" transform="translate(-8.359 -49.07)" fill="#536876"/>
            <path id="Path_5892" data-name="Path 5892" d="M34.35,159.434a.95.95,0,1,1,.949-.949.95.95,0,0,1-.949.949" transform="translate(-10.404 -49.07)" fill="#536876"/>
            <path id="Path_5893" data-name="Path 5893" d="M40.918,159.434a.95.95,0,1,1,.949-.949.95.95,0,0,1-.949.949" transform="translate(-12.45 -49.07)" fill="#536876"/>
            <path id="Path_5894" data-name="Path 5894" d="M30.519,202.683V201.3H43.846L39.5,197.533l.91-1.052,5.749,4.983a.695.695,0,0,1-.455,1.219Z" transform="translate(-9.506 -61.202)" fill="#536876"/>
            <path id="Path_5895" data-name="Path 5895" d="M30.757,211.71a.694.694,0,0,1,.456-1.219H46.4v1.389H33.072l4.344,3.763-.91,1.05Z" transform="translate(-9.506 -65.566)" fill="#536876"/>
          </g>
        </g>
      </g>
    </g>
  </g>
</svg>
