<?xml version="1.0" encoding="UTF-8"?><svg id="Layer_2" xmlns="http://www.w3.org/2000/svg" xmlns:xlink="http://www.w3.org/1999/xlink" viewBox="0 0 580 299"><defs><style>.cls-1,.cls-2,.cls-3{fill:none;}.cls-4{clip-path:url(#clippath);}.cls-5{fill:#e9edf0;}.cls-6{fill:#fff;}.cls-7{fill:#701e5e;}.cls-8{fill:#546976;}.cls-9{fill:#9ad8f3;}.cls-10{fill:#2e2e2e;}.cls-11{clip-path:url(#clippath-1);}.cls-12{clip-path:url(#clippath-2);}.cls-2{stroke:#fff;stroke-miterlimit:10;}.cls-13{opacity:.6;}.cls-3{stroke:#f5f5f5;}</style><clipPath id="clippath"><rect class="cls-1" x="39.96" y="15" width="500.08" height="270"/></clipPath><clipPath id="clippath-1"><rect class="cls-1" x="39.96" y="15" width="500.08" height="270"/></clipPath><clipPath id="clippath-2"><rect class="cls-1" x="39.96" y="35.38" width="500.08" height="249.62"/></clipPath></defs><g id="Layer_1-2"><g id="Group_1009" transform="translate(-948 -1351)"><g id="Group_1008"><g id="Rectangle_21" transform="translate(948 1351)"><rect class="cls-5" width="580" height="299"/><rect class="cls-3" x=".5" y=".5" width="579" height="298"/></g><g id="Group_994" transform="translate(299.961 322)"><g id="Group_993" transform="translate(688 1044)"><g class="cls-4"><g id="Group_992"><g id="Group_991"><g class="cls-11"><g id="Group_990"><g id="Group_989" class="cls-13" transform="translate(0 20.379)"><g id="Group_988"><g class="cls-12"><g id="Group_987"><path id="Path_5848" class="cls-9" d="M431.55,156.54c-39.39-30.35-43.64-109.69-100.26-119.6-63.26-11.07-74.2,39.79-97.8,51.96-42.97,22.15-77.78-31.04-130.15-12.1-70.42,25.47-68.03,158.36-58.48,208.19h482.2s23.61-36.97,7.13-67.55c-18.5-34.33-67.74-34.01-102.64-60.91"/></g></g></g></g><path id="Path_5849" class="cls-7" d="M423.69,184.87l-5.39-1.77c-1.06-.35-2.21,.23-2.56,1.29h0l-29.24,88.89c-.27,.83-1.05,1.39-1.92,1.39h-92.24c-1.12,0-2.03,.91-2.03,2.03h0v4.86c0,1.12,.91,2.03,2.03,2.03h101.22v-.62l31.43-95.53c.35-1.06-.23-2.21-1.29-2.56h0"/><path id="Path_5850" class="cls-10" d="M394.37,284.39h-102.03c-1.57,0-2.84-1.27-2.84-2.84v-4.86c0-1.57,1.27-2.84,2.84-2.84h92.23c.53,0,.99-.34,1.16-.84l29.24-88.89c.49-1.48,2.09-2.29,3.58-1.81l5.39,1.78c1.49,.49,2.3,2.09,1.81,3.58l-31.38,95.41v1.3Zm-102.03-8.91c-.67,0-1.21,.55-1.22,1.22v4.86c0,.67,.54,1.21,1.22,1.22h100.43l.02-.06,31.43-95.53c.21-.64-.14-1.32-.78-1.54l-5.39-1.78c-.64-.2-1.32,.14-1.54,.78l-29.24,88.89c-.38,1.17-1.47,1.95-2.7,1.95h-92.23Z"/><path id="Path_5851" class="cls-6" d="M233.38,239.7s-12.43,8.82-13.11,9.39-.98,1.11-.68,1.52c3.43,4.33,7.29,8.29,11.52,11.82,5.81,4.6,9.8,6.83,13.92,7.37s14.8,.76,17.16,.88,34.58,.54,34.58,.54c0,0,2.79,.51,5.78,1.27s4.31,1.88,6.99,1.52c2.87-.59,5.66-1.53,8.31-2.79,.81-.46,5.83-2.28,6.33-2.13s8.25,3.89,9.93,4.13c1.62,.1,3.24,.05,4.85-.15,0,0,3.06,1.7,4.73,.64s2.74-1.88,2.03-4.1-4.41-8.16-8.26-11.45-9.72-7.96-13.98-8.57c-5.81-.58-11.67-.28-17.38,.91-3.35,.75-6.76,1.17-10.19,1.27l-24.93-6.74-20.68-7.49-5.42-6.35-11.5,8.51Z"/><path id="Path_5852" class="cls-6" d="M262.77,110.78c0,.3-2.84,12.77-3.65,16.01s-1.92,4.37-1.89,5.93c.04,2.1,3.01,6.69,2.55,8.01s-2.08,1.49-3.19,1.41c-.99,0-1.97,.12-2.93,.35,0,0-3.12,10.75-4.98,12.33s-2.47,3.67-6.48,3.69-10.04,.07-10.04,.07c0,0-1.06,1.12-.96,4.21s-.36,9.98-.36,9.98c0,0-6.79-.61-11.66-2.94s-14.6-5.62-16.22-9.93c.04-3.16,1.58-6.12,4.15-7.96l5.02-10.29s8.92-5.02,9.02-8.06c-4.16-4-3.9-11.4-.3-12.62,2.32-.74,4.84-.52,6.99,.61,.2,.15,1.06,1.88,5.22,.91s9.38-2.79,12.16-5.17,5.07-4.62,5.07-4.62l12.46-1.92Z"/><path id="Path_5853" class="cls-10" d="M209.63,141.42c0-.41-8.19-12.3-7.41-27.84s12.4-26.35,20.92-28.65,14.19-2.7,21.62,0,17.24,8.35,18.86,13.43,.94,15.76,.94,15.76l-15.95-1.69s-4.24,6.41-9.12,8.24-9.8,1.89-10.95,1.62c-3.99-2.03-8.92-1.82-10.4,.47s-2.45,5.15-.61,7.43,3.85,4.46,3.85,4.46c0,0-2.43,4.05-4.66,5.34-2.11,1.01-4.32,1.79-6.59,2.33l-.5-.91Z"/><path id="Path_5854" class="cls-7" d="M202.4,159.94s-10,10.95-11.76,13.51c-3.54,6.04-6.46,12.43-8.72,19.06-2,6.44-3.67,12.99-5,19.6-.54,3.11-2.31,16.96-2.81,20.88s-.7,19.05-.7,19.05c0,0-1.25,22.03-1.26,22.23s-.16,9.12-.16,9.12l67.34-.27-.51-16.01s-6.77-3.43-8.92-5.61-10.68-12.91-10.68-12.91l26.34-18.65,2.11-1.28-8.78-16.08s-4.45-25.61-4.73-26.42-3.18-13.51-3.38-13.58-13.42-2.88-16.19-4.38c-2.9-1.82-5.68-3.81-8.34-5.96l-4.03-2.5,.18,.19Z"/><path id="Path_5855" class="cls-10" d="M341.85,275.08c-1.43-.04-2.78-.66-3.74-1.71-.32-.31-.32-.83,0-1.15,.31-.32,.83-.32,1.15,0h0c1.98,1.95,3.88,1.2,4.7,.45,.59-.54,1.68-1.55-.05-5.28-2.18-4.71-11.45-13.1-16.52-15.7-7.75-3.98-29.37,.93-29.58,.98-.44,.1-.87-.17-.97-.61s.17-.87,.61-.97c.91-.21,22.42-5.08,30.69-.84,5.39,2.77,14.91,11.41,17.25,16.47,1.97,4.25,.86,6.06-.32,7.15-.88,.78-2.02,1.22-3.19,1.23"/><path id="Path_5856" class="cls-10" d="M308.72,274.98c-3.02,0-10-2.49-10.84-2.79-.42-.15-.64-.62-.49-1.04,.15-.42,.62-.64,1.04-.49h0c3.34,1.2,8.9,2.92,10.6,2.68,3.85-.54,8.07-2.51,10.87-3.82,.86-.4,1.59-.74,2.15-.97,1.74-.71,4.02,.35,6.91,1.69,1.99,1,4.07,1.81,6.21,2.44,1.28,.33,1.76,.07,2.18-.26,.48-.35,.75-.93,.71-1.52-.05-3.07-5.02-7.96-6.59-9.1-3.45-2.48-6-3.95-12.41-3.59-.43,.04-.82-.28-.85-.72v-.04c-.03-.45,.31-.83,.76-.86h0c6.92-.39,9.82,1.28,13.45,3.9,1.58,1.14,7.2,6.42,7.27,10.38,.05,1.11-.46,2.17-1.34,2.83-1.02,.79-2.38,1-3.59,.55-2.23-.65-4.4-1.5-6.49-2.54-2.33-1.08-4.52-2.1-5.61-1.66-.55,.22-1.25,.55-2.08,.94-2.88,1.35-7.24,3.39-11.33,3.95-.18,.02-.35,.03-.53,.03"/><path id="Path_5857" class="cls-10" d="M238.19,159.75c-2.55-.04-5.09-.42-7.53-1.15-1.72-.49-4.57-1.55-9.38-5.21-.36-.27-.43-.78-.15-1.14,.27-.36,.78-.43,1.14-.16h0c5.13,3.9,7.92,4.68,8.84,4.94,5.49,1.55,9.82,1.47,13.61-.24,3.21-1.45,5.55-5.68,8.34-15.09,.13-.43,.58-.67,1.01-.55,.43,.13,.67,.58,.55,1.01h0c-2.95,9.92-5.54,14.43-9.23,16.1-2.26,1.01-4.71,1.51-7.18,1.48"/><path id="Path_5858" class="cls-10" d="M224.12,135.23c-4.21,0-7.62-3.42-7.61-7.63,0-4.21,3.42-7.62,7.63-7.61,2.04,0,3.98,.82,5.41,2.27,.32,.31,.33,.82,.02,1.15-.31,.32-.82,.33-1.15,.02l-.03-.03c-2.32-2.36-6.12-2.39-8.49-.07s-2.39,6.12-.07,8.49c.58,.59,1.27,1.05,2.03,1.36,.83,.33,1.71,.47,2.6,.43,.43-.04,.81,.27,.86,.7,0,.02,0,.04,0,.06,.03,.45-.31,.83-.76,.86h0c-.16,.01-.31,.01-.46,.01"/><path id="Path_5859" class="cls-10" d="M220.99,126.99c-.1,0-.2-.02-.3-.06-.42-.16-.62-.63-.46-1.05h0c.44-1.22,1.41-2.18,2.64-2.6,1.23-.38,2.56-.17,3.62,.55,.38,.24,.49,.74,.25,1.12-.24,.38-.74,.49-1.12,.25-.65-.46-1.48-.6-2.25-.38-.76,.28-1.36,.88-1.63,1.64-.12,.31-.42,.52-.76,.52"/><path id="Path_5860" class="cls-10" d="M255.98,142.88c-.75,0-1.5-.05-2.24-.14-.44-.05-.77-.45-.72-.89h0c.06-.44,.45-.76,.89-.72,3.6,.38,4.57-.18,4.74-.72,.34-1.05-.06-1.82-1.07-3.59-.97-1.7-1.72-3.52-.59-7.56l2.7-9.6c.14-.51,.26-.96,.36-1.41,.39-1.46,.68-2.95,.89-4.45,.05-.45,.45-.76,.9-.71,.45,.05,.76,.45,.71,.9h0c-.21,1.56-.52,3.11-.92,4.64-.09,.44-.21,.92-.37,1.48l-2.7,9.6c-1.04,3.72-.27,5.08,.42,6.28,1.05,1.85,1.8,3.15,1.22,4.93-.51,1.56-2.27,1.97-4.21,1.97"/><path id="Path_5861" class="cls-10" d="M231.34,174.07h-.07c-11.23-.98-21.74-5.95-29.63-14-.3-.33-.28-.84,.04-1.15,.32-.3,.82-.29,1.13,.03,7.62,7.77,17.77,12.55,28.61,13.5,.45,.04,.78,.43,.74,.88-.04,.42-.39,.74-.81,.74"/><path id="Path_5862" class="cls-10" d="M173.94,241.56h-.04c-.45-.02-.79-.4-.77-.84h0c.73-15.25,2.1-33.13,9.22-52.28,5.45-14.66,11.01-20.65,18.71-28.93l.78-.84c2.95-4.4,6.98-11.43,8.65-16.24,.15-.42,.61-.65,1.03-.5s.65,.61,.5,1.03h0c-1.72,4.94-5.82,12.12-8.91,16.71l-.86,.94c-7.57,8.14-13.05,14.03-18.38,28.39-7.03,18.93-8.39,36.66-9.12,51.79-.02,.43-.38,.77-.81,.77"/><path id="Path_5863" class="cls-10" d="M239.2,285c-.44,0-.8-.35-.81-.79,0-.08-.21-8.41,.09-15.69,0-.43,.36-.78,.79-.78,.02,0,.03,0,.05,0,.45,.02,.79,.4,.78,.84-.3,7.22-.1,15.5-.09,15.58,.01,.45-.34,.82-.79,.83h-.02Z"/><path id="Path_5864" class="cls-10" d="M239.29,215.14c-.4,0-.74-.3-.8-.7-1.89-13.19-5.37-29.03-6.85-35.79-.38-1.74-.64-2.91-.72-3.33-1.03-5.73-.88-11.62,.42-17.29,.1-.44,.53-.71,.97-.61s.71,.53,.61,.97c-1.25,5.47-1.39,11.13-.4,16.65,.07,.41,.33,1.56,.7,3.27,1.49,6.78,4.98,22.66,6.88,35.9,.06,.44-.24,.85-.69,.92-.04,0-.08,0-.12,0"/><path id="Path_5865" class="cls-10" d="M297.74,272.11h-.01l-46.64-.69c-7.01-.09-13.78-2.55-19.22-6.97-5.05-4.2-9.58-9.01-13.47-14.3-.28-.35-.22-.86,.13-1.14,.35-.28,.86-.22,1.14,.13l.03,.04c3.82,5.19,8.25,9.9,13.2,14.02,5.16,4.19,11.57,6.52,18.22,6.61l46.64,.69c.45,.02,.8,.4,.78,.84-.02,.43-.36,.77-.79,.78"/><path id="Path_5866" class="cls-10" d="M297.61,252.68s-.07,0-.1,0c-14.12-1.78-45.87-13.5-47.21-14l-.23-.09-.14-.2c-.17-.23-.47-.64-.84-1.14-1.31-1.77-3.51-4.74-4.22-5.97-.22-.39-.09-.88,.3-1.11s.88-.09,1.11,.3c.66,1.15,2.83,4.07,4.12,5.82l.71,.96c2.95,1.08,33.3,12.14,46.62,13.83,.44,.06,.76,.47,.7,.91-.05,.4-.39,.7-.8,.7"/><path id="Path_5867" class="cls-10" d="M210.23,143.65l-.36-.4c-10.27-11.31-10.96-30.78-5.72-42.33,4.77-10.52,14.6-17.13,26.96-18.14,12.02-1,27.06,2.5,33.25,15.23,1.76,3.61,2.67,7.78,1.44,16.41l-.11,.79-15.69-1.98c-7.66,9.95-16.4,10.79-20.98,10.38-.45-.04-.78-.43-.74-.88,.05-.44,.44-.77,.88-.74,4.29,.37,12.57-.44,19.82-10.12l.28-.38,15.03,1.9c1.01-7.69,.17-11.45-1.4-14.68-5.84-11.99-20.19-15.25-31.66-14.32-11.75,.96-21.09,7.23-25.62,17.2-4.33,9.55-4.92,28.69,5.09,40.17,5.57-2.03,9.12-4.77,10.3-7.95,.15-.42,.62-.63,1.04-.48,.42,.15,.63,.62,.48,1.04h0c-1.4,3.8-5.37,6.86-11.79,9.1l-.51,.18Z"/><path id="Path_5868" class="cls-10" d="M215.88,252.87l-.48-.59c-8.92-10.88-21.01-33.18-26.4-48.7-.13-.43,.11-.88,.54-1.01,.41-.12,.84,.09,.99,.48,5.24,15.1,16.87,36.66,25.64,47.61l30.21-21.82c-4.9-8.99-12.11-21.1-16.02-27.68-1.22-2.05-2.15-3.62-2.65-4.48-.25-.37-.14-.88,.23-1.12,.37-.25,.88-.14,1.12,.23,.02,.03,.03,.05,.05,.08,.5,.86,1.43,2.42,2.64,4.47,4.01,6.74,11.47,19.29,16.39,28.36l.34,.63-32.6,23.54Z"/><path id="Path_5869" class="cls-6" d="M171.47,283.25c3.65-45.94,5.23-96.14-6.12-114.12-2.49-4.07-7.29-6.11-11.95-5.08-5.25,1.11-8.11,8.18-6.84,16.33,2.03,12.97,7.09,65.58,1.82,102.87h23.08Z"/><path id="Path_5870" class="cls-10" d="M148.39,284.39s-.08,0-.12,0c-.44-.06-.75-.47-.69-.92h0c5.15-36.44,.47-87.98-1.82-102.63-1.35-8.65,1.86-16.06,7.47-17.25,4.99-1.12,10.14,1.07,12.8,5.44,12.21,19.33,9.41,74.67,6.24,114.61-.04,.45-.43,.78-.87,.74-.45-.04-.78-.43-.74-.87,3.15-39.71,5.96-94.69-6-113.62-2.33-3.76-6.77-5.65-11.09-4.72-4.75,1-7.42,7.63-6.2,15.41,2.3,14.71,7,66.48,1.83,103.11-.06,.4-.4,.7-.8,.7"/><path id="Path_5871" class="cls-10" d="M488.94,285H75.68c-.45,.02-.82-.33-.84-.78-.02-.45,.33-.82,.78-.84,.02,0,.04,0,.06,0H488.94c.45-.02,.82,.33,.84,.78,.02,.45-.33,.82-.78,.84-.02,0-.04,0-.06,0"/><path id="Path_5872" class="cls-8" d="M215.21,45.53c-.71,0-1.29,.58-1.29,1.29,0,14.43-11.7,26.13-26.12,26.13-14.43,0-26.13-11.7-26.13-26.12,0-13.74,10.64-25.13,24.34-26.07l-1.17,.86c-.56,.42-.68,1.21-.26,1.77,.23,.32,.6,.5,1,.51,.29,0,.57-.08,.8-.25l4.24-3.2c.32-.25,.5-.64,.49-1.04-.02-.41-.22-.8-.55-1.04l-4.24-2.83c-.61-.37-1.4-.17-1.77,.44-.35,.58-.19,1.32,.35,1.71l.86,.55c-15.8,1.13-27.69,14.86-26.56,30.66s14.86,27.69,30.66,26.56c15.02-1.08,26.65-13.58,26.63-28.64,0-.71-.58-1.28-1.29-1.29"/><path id="Path_5873" class="cls-2" d="M215.21,45.53c-.71,0-1.29,.58-1.29,1.29,0,14.43-11.7,26.13-26.12,26.13-14.43,0-26.13-11.7-26.13-26.12,0-13.74,10.64-25.13,24.34-26.07l-1.17,.86c-.56,.42-.68,1.21-.26,1.77,.23,.32,.6,.5,1,.51,.29,0,.57-.08,.8-.25l4.24-3.2c.32-.25,.5-.64,.49-1.04-.02-.41-.22-.8-.55-1.04l-4.24-2.83c-.61-.37-1.4-.17-1.77,.44-.35,.58-.19,1.32,.35,1.71l.86,.55c-15.8,1.13-27.69,14.86-26.56,30.66s14.86,27.69,30.66,26.56c15.02-1.08,26.65-13.58,26.63-28.64,0-.71-.58-1.28-1.29-1.29"/><path id="Path_5874" class="cls-8" d="M215.82,40.18c0,.85-.69,1.54-1.54,1.54s-1.54-.69-1.54-1.54,.69-1.54,1.54-1.54h0c.85,0,1.54,.69,1.54,1.54"/><path id="Path_5875" class="cls-8" d="M213.79,34.4c0,.85-.69,1.54-1.54,1.54s-1.54-.69-1.54-1.54,.69-1.54,1.54-1.54h0c.85,0,1.54,.69,1.54,1.54"/><path id="Path_5876" class="cls-8" d="M210.04,28.99c0,.85-.69,1.54-1.54,1.54s-1.54-.69-1.54-1.54,.69-1.54,1.54-1.54h0c.85,0,1.54,.69,1.54,1.54"/><path id="Path_5877" class="cls-8" d="M204.94,24.38c0,.85-.68,1.54-1.53,1.54-.85,0-1.54-.68-1.54-1.53,0-.85,.68-1.54,1.53-1.54h0c.85,0,1.54,.69,1.54,1.54"/><path id="Path_5878" class="cls-8" d="M198.79,21.12c0,.85-.69,1.54-1.54,1.54-.85,0-1.54-.69-1.54-1.54s.69-1.54,1.54-1.54h0c.85,0,1.54,.69,1.54,1.54"/><path id="Path_5879" class="cls-8" d="M198.55,43.44c-.63,.3-1.29,.52-1.97,.67v-9.46h-5.97c.12,.38,.26,.75,.43,1.11,1.04,2.21,1.9,5.72-2.34,5.72s-3.38-3.5-2.34-5.72c.17-.36,.31-.73,.43-1.11h-9.84v9.28c.43-.12,.84-.29,1.23-.49,2.21-1.04,5.72-1.91,5.72,2.33s-3.5,3.38-5.72,2.34c-.43-.19-.86-.37-1.23-.49v6.7h9.96c-.14,.49-.33,.96-.55,1.41-1.04,2.21-1.91,5.72,2.34,5.72s3.38-3.5,2.34-5.72c-.23-.45-.41-.93-.55-1.41h6.09v-6.89c.68,.14,1.34,.37,1.97,.67,2.21,1.04,5.72,1.91,5.72-2.33s-3.44-3.38-5.71-2.33"/><path id="Path_5880" class="cls-8" d="M490.27,143.15c-.53,.02-.97-.4-.99-.93-.02-.53,.4-.97,.93-.99,.02,0,.04,0,.06,0h16.77c3.51,0,6.36-2.85,6.36-6.36v-14.88c-.02-.53,.4-.97,.93-.99,.53-.02,.97,.4,.99,.93,0,.02,0,.04,0,.06v14.88c0,4.57-3.71,8.27-8.28,8.28h-16.77Z"/><path id="Path_5881" class="cls-8" d="M471.36,143.15c-4.57,0-8.27-3.71-8.28-8.28v-14.6h-17.34c-5.58,0-10.09-4.53-10.1-10.11v-36.59c0-5.57,4.53-10.09,10.1-10.1h36.59c5.58,0,10.1,4.52,10.1,10.1v17.34h14.6c4.57,0,8.27,3.71,8.28,8.28v11.29c.02,.53-.4,.97-.93,.99-.53,.02-.97-.4-.99-.93,0-.02,0-.04,0-.06v-11.29c0-3.51-2.85-6.36-6.36-6.36h-35.69c-3.51,0-6.36,2.85-6.36,6.36h0v3.07c0,.53-.43,.96-.96,.96s-.96-.43-.96-.96v-3.07c0-4.57,3.71-8.27,8.28-8.28h19.17v-17.34c0-4.52-3.67-8.19-8.19-8.19h-36.59c-4.52,0-8.19,3.67-8.19,8.19v36.59c0,4.52,3.67,8.19,8.19,8.19h17.34v-6.59c0-.53,.43-.96,.96-.96s.96,.43,.96,.96v23.09c0,3.51,2.85,6.36,6.36,6.36h9.4c.53-.02,.97,.4,.99,.93,.02,.53-.4,.97-.93,.99-.02,0-.04,0-.06,0h-9.4Z"/><path id="Path_5882" class="cls-8" d="M322.65,115.45c-.54,0-.97-.43-.97-.97,0-.54,.43-.97,.97-.97s.97,.43,.97,.97c0,.54-.43,.97-.97,.97"/><path id="Path_5883" class="cls-8" d="M328.47,115.45c-.54,0-.97-.43-.97-.97,0-.54,.43-.97,.97-.97,.54,0,.97,.43,.97,.97h0c0,.54-.43,.97-.97,.97"/><path id="Path_5884" class="cls-8" d="M334.28,115.45c-.54,0-.97-.43-.97-.97,0-.54,.43-.97,.97-.97s.97,.43,.97,.97c0,.54-.43,.97-.97,.97"/><path id="Path_5885" class="cls-8" d="M340.81,184.97v-1.47h31.25c2.8,0,5.08-2.27,5.08-5.07h0v-54.49h-9.44c-2.81,0-5.09-2.28-5.09-5.09h0v-9.44h-39.95c-2.8,0-5.08,2.28-5.08,5.08v26.89h-1.47v-26.89c0-3.62,2.93-6.55,6.55-6.55h40.76c.16,.04,.31,.11,.44,.22l14.53,14.53c.06,.06,.11,.13,.14,.21,.03,.08,.05,.16,.06,.24l.03,.15v55.14c-.01,3.61-2.94,6.54-6.56,6.55h-31.25Zm23.27-66.12c0,.96,.38,1.88,1.06,2.56,.68,.68,1.6,1.06,2.56,1.06h8.4l-12.02-12.02v8.4Z"/><path id="Path_5886" class="cls-8" d="M312.48,193.68c-.19,0-.38-.08-.52-.21-.14-.14-.22-.32-.22-.52v-4.3l-.64-.2c-1.2-.37-2.36-.85-3.47-1.44l-.59-.32-3.04,3.04c-.14,.14-.32,.22-.52,.21-.19,0-.38-.08-.52-.21l-6.17-6.17c-.29-.29-.29-.75,0-1.04l3.04-3.04-.32-.59c-.59-1.11-1.07-2.27-1.44-3.46l-.2-.64h-4.3c-.19,0-.38-.08-.52-.21-.14-.14-.21-.33-.21-.52v-8.72c0-.4,.33-.73,.73-.73h4.3l.2-.64c.37-1.2,.85-2.36,1.44-3.47l.32-.59-3.05-3.04c-.29-.29-.29-.75,0-1.04l6.17-6.16c.29-.29,.75-.29,1.04,0l3.04,3.04,.59-.32c1.11-.59,2.27-1.07,3.46-1.44l.64-.2v-4.3c0-.41,.33-.73,.73-.74h8.72c.19,0,.38,.08,.52,.21,.14,.14,.22,.32,.22,.52v4.3l.64,.2c1.2,.37,2.36,.85,3.46,1.44l.59,.32,3.04-3.04c.14-.14,.32-.22,.52-.22,.2,0,.38,.08,.52,.21l6.16,6.17c.29,.29,.29,.75,0,1.04h0l-3.04,3.04,.32,.59c.59,1.11,1.07,2.27,1.44,3.46l.2,.64h4.3c.19,0,.38,.08,.52,.21,.14,.14,.22,.32,.21,.52v8.72c0,.2-.08,.38-.21,.52-.14,.14-.33,.21-.52,.21h-4.3l-.2,.64c-.37,1.2-.85,2.36-1.44,3.47l-.32,.59,3.04,3.04c.29,.29,.29,.75,0,1.04h0l-6.17,6.17c-.14,.14-.32,.22-.52,.21-.19,0-.38-.08-.52-.21l-3.04-3.05-.59,.32c-1.11,.59-2.27,1.07-3.46,1.44l-.64,.2v4.3c0,.2-.08,.38-.22,.52-.14,.14-.33,.21-.52,.21h-8.71Zm-5.54-8.66c.14,0,.27,.04,.39,.11,1.64,1.02,3.44,1.76,5.32,2.21,.33,.08,.57,.37,.57,.71v4.15h7.25v-4.15c0-.34,.23-.64,.56-.72,1.88-.44,3.68-1.19,5.32-2.21,.12-.07,.25-.11,.39-.11,.19,0,.38,.08,.52,.21l2.94,2.94,5.12-5.13-2.93-2.94c-.24-.24-.29-.62-.11-.91,1.02-1.65,1.76-3.44,2.21-5.33,.08-.33,.37-.57,.71-.56h4.14v-7.25h-4.15c-.34,0-.64-.23-.71-.57-.45-1.88-1.19-3.68-2.21-5.32-.18-.29-.14-.67,.11-.91l2.94-2.94-5.13-5.13-2.93,2.94c-.24,.24-.62,.29-.91,.11-1.64-1.02-3.44-1.76-5.32-2.21-.33-.08-.57-.38-.57-.72v-4.15h-7.25v4.15c0,.34-.23,.64-.57,.72-1.88,.45-3.68,1.19-5.32,2.21-.29,.18-.66,.14-.9-.1l-2.94-2.94-5.13,5.13,2.94,2.94c.24,.24,.29,.62,.11,.91-1.02,1.64-1.76,3.44-2.21,5.32-.08,.33-.37,.57-.72,.57h-4.15v7.25h4.15c.34,0,.64,.23,.71,.57,.45,1.88,1.19,3.68,2.21,5.33,.18,.29,.13,.66-.11,.9l-2.94,2.94,5.13,5.13,2.93-2.94c.14-.14,.33-.22,.52-.22"/><path id="Path_5887" class="cls-8" d="M316.84,182.06c-6.83,0-12.36-5.53-12.37-12.36,0-6.83,5.53-12.36,12.36-12.37,6.83,0,12.36,5.53,12.37,12.36,0,3.28-1.3,6.43-3.62,8.75-2.31,2.32-5.46,3.63-8.73,3.62m0-23.25c-6.01,0-10.89,4.88-10.89,10.89,0,6.01,4.88,10.89,10.89,10.89s10.89-4.88,10.89-10.89c0-2.89-1.15-5.66-3.19-7.7-2.04-2.05-4.81-3.19-7.7-3.19Z"/><path id="Path_5888" class="cls-8" d="M316.84,174.8c-1.35,0-2.65-.54-3.6-1.49-1.99-1.99-1.99-5.21,0-7.2,1.99-1.99,5.21-1.99,7.2,0,1.98,1.99,1.98,5.21,0,7.2-.95,.96-2.25,1.49-3.6,1.49m0-8.72c-.96,0-1.88,.38-2.56,1.06-1.41,1.42-1.41,3.71,0,5.13,1.42,1.41,3.71,1.41,5.13,0,1.42-1.42,1.41-3.71,0-5.13-.68-.68-1.6-1.06-2.56-1.06"/><path id="Path_5889" class="cls-8" d="M345.9,174.8c-.26,0-.5-.14-.63-.36-.13-.22-.14-.5,0-.73l6.54-11.63-.88-.42c-6.16-2.92-9.61-9.59-8.44-16.31l.18-1.06h-14.21c-.2,0-.38-.08-.52-.21-.14-.14-.21-.33-.21-.52v-23.25c0-.41,.33-.73,.73-.74h23.25c.41,0,.74,.33,.74,.74v13.18l1.14-.31c8.13-2.2,16.5,2.62,18.7,10.75,1.69,6.25-.76,12.89-6.1,16.55l-.68,.47,7.19,12.76c.2,.35,.08,.8-.28,1-.11,.06-.24,.1-.36,.1h-26.15Zm1.26-1.47h23.57l-6.51-11.69-.75,.32c-1.87,.8-3.88,1.21-5.91,1.21-1.24,0-2.47-.15-3.67-.45l-.67-.17-6.06,10.78Zm6.79-12.08l1.24,.24c.78,.14,1.57,.22,2.36,.21,1.71,0,3.41-.32,5-.95l.97-.38-4.53-8.05-5.03,8.93Zm-9.9-16.26c-1.39,6.32,1.83,12.76,7.72,15.44l.76,.35,5.81-10.33c.15-.2,.39-.32,.64-.32,.27,0,.52,.13,.66,.36l5.15,9.17,.82-.6c6.16-4.46,7.55-13.08,3.08-19.24-3.56-4.91-9.91-6.92-15.64-4.95l-.61,.21v8.47c0,.2-.08,.38-.22,.52-.14,.14-.33,.21-.52,.21h-7.5l-.17,.72Zm5.49-8.33c-1.76,1.26-3.2,2.91-4.21,4.82l-.7,1.33h6.35v-7.17l-1.44,1.02Zm-20.35,6.15h13.94l.23-.57c1.36-3.39,3.89-6.18,7.12-7.87l.49-.26v-13.09h-21.78v21.78Z"/><path id="Path_5890" class="cls-8" d="M127.31,195.13c-.27,0-.51-.16-.63-.4l-8.37-18.17c-.1-.23-.08-.49,.07-.7,2.55-3.7,2.9-8.5,.91-12.53l-6.34-13.83c-.44-.85-1.31-1.39-2.26-1.41-.36,0-.72,.08-1.06,.23-1.23,.56-1.8,1.99-1.28,3.24l1.36,2.97c.16,.35,0,.76-.34,.92-.35,.16-.76,0-.92-.34l-2.65-5.76c-.21-.48-.55-.89-.99-1.18-1.18-.74-2.74-.39-3.49,.79-.46,.72-.51,1.63-.16,2.41l2.69,5.85c.16,.35,0,.76-.34,.92h0c-.35,.16-.76,0-.92-.34h0l-4.04-8.78c-.64-1.24-2.16-1.73-3.4-1.1-1.16,.59-1.68,1.97-1.2,3.18l4.06,8.82c.12,.37-.08,.76-.45,.88-.31,.1-.64-.02-.81-.3l-3.97-8.63-.07-.17-5.32-11.56c-.4-.92-1.29-1.54-2.3-1.6h0c-.38,0-.76,.07-1.11,.23-1.27,.58-1.82,2.08-1.24,3.35h0l12.79,27.8c.16,.35,0,.76-.34,.92-.09,.04-.19,.06-.29,.06-.1,0-.19-.02-.28-.06l-4.84-2.14h-.05c-.25-.06-.51-.09-.77-.09-.71,0-1.41,.21-2,.61-1.51,.99-2.06,2.95-1.28,4.58,.37,.78,1,1.41,1.78,1.78l12.02,7.35,.05,.02c1.33,.48,2.74,.73,4.15,.73h.16c.28-.01,.53,.14,.65,.39l4.63,10.06c.15,.35-.01,.76-.36,.91-.34,.15-.73,0-.9-.33l-4.44-9.63-.49-.03c-1.37-.08-2.72-.37-4.01-.84l-.14-.07-11.9-7.29c-1.09-.51-1.97-1.39-2.48-2.48-.15-.34-.27-.7-.34-1.07l-.15-.74h-25.31c-.96,.02-1.9-.3-2.65-.9-.89-.74-1.41-1.85-1.41-3.01v-44.94c-.02-.96,.3-1.9,.9-2.66,.74-.9,1.85-1.42,3.01-1.41H125.94c.96-.02,1.9,.3,2.65,.9,.89,.74,1.41,1.85,1.41,3.01v45.09c0,1.16-.52,2.27-1.42,3.01-.75,.6-1.69,.92-2.65,.9h-4.48l-.19,.57c-.32,.97-.74,1.9-1.27,2.78l-.2,.33,.11,.45,8.04,17.45c.16,.35,0,.76-.34,.92-.09,.04-.19,.06-.29,.06m-16.65-48.48c1.53,0,2.92,.89,3.56,2.28l6.35,13.85c1.08,2.32,1.53,4.88,1.31,7.43l-.09,1h4.31c.67,0,1.31-.27,1.79-.74,.48-.47,.74-1.12,.74-1.79v-45.1c0-.67-.26-1.31-.74-1.79-.48-.47-1.12-.74-1.79-.74H58.44c-1.39,0-2.53,1.13-2.53,2.53v45.09c0,1.4,1.13,2.53,2.53,2.53h25.57l.2-.54c.84-2.48,3.45-3.9,5.99-3.25l.12,.04,3.18,1.41-12.03-26.13c-.94-1.95-.12-4.29,1.83-5.23l.06-.03c.51-.24,1.07-.36,1.64-.36,1.55,0,2.95,.91,3.58,2.33l4.04,8.79,.93-.93c.72-.72,1.7-1.12,2.72-1.13h.19c1.09,.06,2.1,.57,2.78,1.41l.66,.81,.71-.76c.73-.78,1.76-1.22,2.83-1.22h.13c1.11,.04,2.16,.55,2.87,1.41l.66,.79,.71-.75c.74-.77,1.77-1.21,2.84-1.21"/><path id="Path_5891" class="cls-8" d="M59.39,125.36c-.52,0-.95-.43-.95-.95s.43-.95,.95-.95,.95,.43,.95,.95h0c0,.53-.43,.95-.95,.95"/><path id="Path_5892" class="cls-8" d="M63.91,125.36c-.52,0-.95-.42-.95-.95,0-.52,.42-.95,.95-.95s.95,.42,.95,.95h0c0,.53-.43,.95-.95,.95"/><path id="Path_5893" class="cls-8" d="M68.43,125.36c-.52,0-.95-.42-.95-.95,0-.52,.42-.95,.95-.95s.95,.42,.95,.95h0c0,.53-.43,.95-.95,.95"/><path id="Path_5894" class="cls-8" d="M60.97,156.48v-1.38h13.33l-4.35-3.77,.91-1.05,5.75,4.98c.29,.25,.32,.69,.07,.98-.13,.15-.32,.24-.52,.24h-15.18Z"/><path id="Path_5895" class="cls-8" d="M61.21,161.14c-.29-.25-.32-.69-.07-.98,.13-.15,.32-.24,.53-.24h15.19v1.39h-13.33l4.34,3.76-.91,1.05-5.75-4.98Z"/></g></g></g></g></g></g></g></g></g></g></svg>