<svg xmlns="http://www.w3.org/2000/svg" width="104.265" height="42.107" viewBox="0 0 104.265 42.107"><defs><style>.a{fill:#fff;}</style></defs><g transform="translate(-463.203 -4039.99)"><g transform="translate(463.203 4039.99)"><path class="a" d="M0,4.758H5.443L9.372,20.608,13.738,4.758H17.95l4.374,15.851L26.254,4.758h5.44L25.434,27.4h-5.9L15.845,14.042,12.151,27.4h-5.9Z" transform="translate(0 -3.168)"/><path class="a" d="M113.926,22.421V27.39H99.669V4.758h14.1V9.726h-8.906V13.49h8.1v4.917h-8.1v4.012l9.06,0Z" transform="translate(-66.361 -3.168)"/><path class="a" d="M239.011,22.421V27.39H225.734V4.758h5.184V22.421Z" transform="translate(-150.298 -3.168)"/><path class="a" d="M285.536,22.421V27.39H272.253V4.758h5.184V22.421Z" transform="translate(-181.271 -3.168)"/><path class="a" d="M176.53,25.062c0,4.072-2.564,7.061-6.43,7.061s-6.795-2.354-6.81-7.019c0-4.234,2.881-7.019,6.734-7.019s6.506,3.109,6.506,6.977Z" transform="translate(-108.721 -12.041)"/><path class="a" d="M162.562,27.574a.209.209,0,0,0-.131.021l-.262.144c-.175.089-.356.175-.537.262a9.894,9.894,0,0,1-1.954.622,10.618,10.618,0,0,1-2.132.217c-5.674-.008-10.512-3.468-10.517-10.32a10.744,10.744,0,0,1,.851-4.276c.068,0,.134.013.2.013a3.041,3.041,0,0,0,3.044-3.039A3.062,3.062,0,0,0,148.4,8.2a3.039,3.039,0,0,0-3.143,4.184,9.458,9.458,0,0,0,1.553-1.5,1.26,1.26,0,0,1,.573-.73c.084-.128.165-.262.246-.387-.081.131-.162.262-.246.387a1.306,1.306,0,1,1-.558.745,9.578,9.578,0,0,1-.734.785,9.946,9.946,0,0,1-.817.7,3.059,3.059,0,0,0,.225.426,13.5,13.5,0,0,0-1.192,5.672c0,8.664,6.129,13.047,13.314,13.047a13.356,13.356,0,0,0,2.119-.167,12.72,12.72,0,0,0,1.988-.484,12.253,12.253,0,0,0,1.834-.785c.183-.1.364-.2.545-.3l.262-.16a.275.275,0,0,0,.12-.1c.037-.068,0-.1-.052-.144s-.131-.141-.2-.212l-.927-.936-.432-.424c-.084-.084-.186-.222-.311-.246ZM148.156,8.794a.2.2,0,0,0-.018.034.2.2,0,0,1,.01-.034h.008Zm-.3.588v0Z" transform="translate(-96.081 -5.444)"/><path class="a" d="M182.007,12.987A12.763,12.763,0,0,0,169.278,0a14.843,14.843,0,0,0-2.331.186A13.681,13.681,0,0,0,164.277.9a12.794,12.794,0,0,0-1.242.544c-.2.1-.4.207-.595.316-.1.058-.508.22-.437.384a.285.285,0,0,0,.055.058l1.1,1.13.445.458c.1.1.207.293.369.277a.837.837,0,0,0,.262-.112l.309-.152a10.558,10.558,0,0,1,1.3-.5,11.23,11.23,0,0,1,2.805-.5h.573a10.077,10.077,0,0,1,10.053,10.254,11.265,11.265,0,0,1-.762,4.143c-.1,0-.212-.018-.32-.018a3.072,3.072,0,1,0,2.651,1.532,14.169,14.169,0,0,0,1.166-5.722Zm-3.842,8.52a1.284,1.284,0,1,1,1.286-1.284A1.285,1.285,0,0,1,178.165,21.507Z" transform="translate(-107.86)"/><path class="a" d="M35.421,103.478V95.8H36.4v7.681Z" transform="translate(-23.584 -63.784)"/><path class="a" d="M45.1,103.6q-.119.054-.325.14a3.075,3.075,0,0,1-.477.151,2.45,2.45,0,0,1-.574.065,1.618,1.618,0,0,1-.639-.124,1.023,1.023,0,0,1-.466-.389,1.191,1.191,0,0,1-.173-.665v-3.8h-.769V98.23h.769V96.348H43.4V98.23h1.268v.747H43.4v3.5a.594.594,0,0,0,.206.449.675.675,0,0,0,.433.146,1.364,1.364,0,0,0,.52-.1,3.29,3.29,0,0,0,.314-.141l.227.757Z" transform="translate(-27.75 -64.15)"/><path class="a" d="M52.649,97.627l.217-1.244h-.325V95.149h.9v1.233l-.325,1.244h-.466Z" transform="translate(-34.982 -63.352)"/><path class="a" d="M58.166,107.532a3.721,3.721,0,0,1-1.322-.233,2.818,2.818,0,0,1-1.062-.7l.368-.671a3.186,3.186,0,0,0,.975.649,2.662,2.662,0,0,0,1,.195,1.851,1.851,0,0,0,.954-.219.706.706,0,0,0,.368-.645.553.553,0,0,0-.19-.462,1.58,1.58,0,0,0-.536-.252q-.347-.1-.823-.231a6.587,6.587,0,0,1-.986-.365,1.547,1.547,0,0,1-.607-.483,1.231,1.231,0,0,1-.206-.73,1.454,1.454,0,0,1,.282-.907,1.75,1.75,0,0,1,.775-.564,3.057,3.057,0,0,1,1.121-.193,3.161,3.161,0,0,1,1.138.195,2.408,2.408,0,0,1,.878.573l-.433.66a2.215,2.215,0,0,0-.737-.514,2.308,2.308,0,0,0-.9-.168,2.382,2.382,0,0,0-.574.07,1,1,0,0,0-.466.247.66.66,0,0,0-.184.5.593.593,0,0,0,.146.424,1.125,1.125,0,0,0,.433.263q.287.108.7.236.639.182,1.111.365a1.865,1.865,0,0,1,.731.472,1.163,1.163,0,0,1,.26.8,1.45,1.45,0,0,1-.607,1.239,2.649,2.649,0,0,1-1.6.445Z" transform="translate(-37.141 -67.73)"/><path class="a" d="M83.069,103.6q-.119.054-.325.14a3.075,3.075,0,0,1-.477.151,2.45,2.45,0,0,1-.574.065,1.618,1.618,0,0,1-.639-.124,1.023,1.023,0,0,1-.466-.389,1.191,1.191,0,0,1-.173-.665v-3.8h-.769V98.23h.769V96.348h.953V98.23h1.268v.747H81.368v3.5a.594.594,0,0,0,.206.449.675.675,0,0,0,.433.146,1.364,1.364,0,0,0,.52-.1,3.289,3.289,0,0,0,.314-.141l.227.757Z" transform="translate(-53.029 -64.15)"/><path class="a" d="M92.55,96.34V95.15H93.5v1.19Zm0,6.707V97.4H93.5v5.647Z" transform="translate(-61.621 -63.353)"/><path class="a" d="M108.533,107.423h-.954v-3.131a2.327,2.327,0,0,0-.287-1.3.965.965,0,0,0-.851-.418,1.531,1.531,0,0,0-1.04.413,2.243,2.243,0,0,0-.661,1.067v3.367h-.954v-3.131a2.356,2.356,0,0,0-.282-1.3.956.956,0,0,0-.845-.413,1.562,1.562,0,0,0-1.035.4,2.156,2.156,0,0,0-.666,1.063v3.382h-.953V101.81h.867v1.213a2.555,2.555,0,0,1,.9-.961,2.338,2.338,0,0,1,1.246-.338,1.556,1.556,0,0,1,1.647,1.363,2.856,2.856,0,0,1,.921-1.015,2.235,2.235,0,0,1,1.235-.349,1.718,1.718,0,0,1,.818.177,1.365,1.365,0,0,1,.526.494,2.277,2.277,0,0,1,.282.747,4.741,4.741,0,0,1,.087.934v3.35Z" transform="translate(-66.586 -67.729)"/><path class="a" d="M131.714,107.531a2.859,2.859,0,0,1-1.165-.231,2.794,2.794,0,0,1-.91-.633,2.885,2.885,0,0,1-.6-.929,2.973,2.973,0,0,1-.211-1.117,2.9,2.9,0,0,1,.368-1.449,2.832,2.832,0,0,1,2.525-1.45,2.717,2.717,0,0,1,1.49.4,2.823,2.823,0,0,1,.986,1.053,2.9,2.9,0,0,1,.352,1.4c0,.072,0,.142-.005.21a1.268,1.268,0,0,1-.016.156H129.84a2.1,2.1,0,0,0,.309.967,1.931,1.931,0,0,0,.688.663,1.812,1.812,0,0,0,.91.24,1.967,1.967,0,0,0,.981-.26,1.39,1.39,0,0,0,.634-.681l.823.227a2.179,2.179,0,0,1-.547.736,2.677,2.677,0,0,1-.856.508,3.029,3.029,0,0,1-1.067.184Zm-1.907-3.245h3.857a2.038,2.038,0,0,0-.314-.962,1.946,1.946,0,0,0-.693-.652,1.886,1.886,0,0,0-.932-.235,1.861,1.861,0,0,0-.921.235,1.9,1.9,0,0,0-.688.652,2.065,2.065,0,0,0-.309.962Z" transform="translate(-85.779 -67.728)"/><path class="a" d="M159.262,103.6q-.119.054-.325.14a3.078,3.078,0,0,1-.477.151,2.45,2.45,0,0,1-.574.065,1.617,1.617,0,0,1-.639-.124,1.022,1.022,0,0,1-.466-.389,1.189,1.189,0,0,1-.173-.665v-3.8h-.769V98.23h.769V96.348h.953V98.23h1.268v.747h-1.268v3.5a.6.6,0,0,0,.206.449.676.676,0,0,0,.433.146,1.366,1.366,0,0,0,.52-.1,3.318,3.318,0,0,0,.314-.141l.227.757Z" transform="translate(-103.76 -64.15)"/><path class="a" d="M170.23,107.53a2.826,2.826,0,0,1-1.16-.231,2.756,2.756,0,0,1-.9-.633,2.853,2.853,0,0,1-.585-.929,3.1,3.1,0,0,1,0-2.223,2.855,2.855,0,0,1,.585-.929,2.745,2.745,0,0,1,.9-.634,2.867,2.867,0,0,1,1.165-.231,2.8,2.8,0,0,1,2.644,1.793,3.038,3.038,0,0,1,.206,1.117,3.007,3.007,0,0,1-.206,1.106,2.863,2.863,0,0,1-.585.929,2.747,2.747,0,0,1-.9.633,2.863,2.863,0,0,1-1.165.231Zm-1.874-2.889a2.169,2.169,0,0,0,.255,1.05,1.994,1.994,0,0,0,.677.744,1.76,1.76,0,0,0,1.891-.006,2.012,2.012,0,0,0,.682-.755,2.2,2.2,0,0,0,.255-1.055,2.17,2.17,0,0,0-.255-1.049,2.028,2.028,0,0,0-.682-.75,1.7,1.7,0,0,0-.948-.278,1.654,1.654,0,0,0-.943.284,2.083,2.083,0,0,0-.677.755,2.189,2.189,0,0,0-.255,1.06Z" transform="translate(-111.444 -67.728)"/><path class="a" d="M197.68,107.531a2.4,2.4,0,0,1-1.057-.232,2.512,2.512,0,0,1-.829-.639,2.98,2.98,0,0,1-.536-.925,3.131,3.131,0,0,1-.19-1.082,3.31,3.31,0,0,1,.19-1.125,2.91,2.91,0,0,1,.542-.936,2.6,2.6,0,0,1,.829-.638,2.389,2.389,0,0,1,1.062-.233,2.21,2.21,0,0,1,1.23.341,3.074,3.074,0,0,1,.883.871v-1.125h.845v5.559a2.288,2.288,0,0,1-.385,1.347,2.418,2.418,0,0,1-1.04.835,3.612,3.612,0,0,1-1.457.285,3.206,3.206,0,0,1-1.56-.335,2.963,2.963,0,0,1-1.008-.909l.553-.487a2.1,2.1,0,0,0,.872.746,2.685,2.685,0,0,0,1.143.249,2.455,2.455,0,0,0,.959-.184,1.6,1.6,0,0,0,.7-.563,1.62,1.62,0,0,0,.265-.951v-1a2.273,2.273,0,0,1-.861.822,2.35,2.35,0,0,1-1.154.3Zm.292-.779a1.618,1.618,0,0,0,.585-.108,2.137,2.137,0,0,0,.52-.287,1.865,1.865,0,0,0,.4-.405,1.292,1.292,0,0,0,.217-.465v-1.622a2.125,2.125,0,0,0-1.073-1.152,1.714,1.714,0,0,0-.737-.168,1.611,1.611,0,0,0-.775.184,1.814,1.814,0,0,0-.58.492,2.383,2.383,0,0,0-.368.687,2.345,2.345,0,0,0-.13.768,2.091,2.091,0,0,0,.152.8,2.283,2.283,0,0,0,.412.665,1.829,1.829,0,0,0,.618.454,1.811,1.811,0,0,0,.758.162Z" transform="translate(-129.88 -67.728)"/><path class="a" d="M219.361,102.63a2.351,2.351,0,0,0-1.262.363,1.9,1.9,0,0,0-.775.968v3.483h-.953V101.83h.889v1.277a2.635,2.635,0,0,1,.775-.946,1.93,1.93,0,0,1,1.013-.406h.184a.7.7,0,0,1,.13.011v.866Z" transform="translate(-144.064 -67.75)"/><path class="a" d="M229.466,107.53a2.824,2.824,0,0,1-1.159-.231,2.753,2.753,0,0,1-.9-.633,2.848,2.848,0,0,1-.585-.929,3.1,3.1,0,0,1,0-2.223,2.85,2.85,0,0,1,.585-.929,2.741,2.741,0,0,1,.9-.634,2.867,2.867,0,0,1,1.165-.231,2.8,2.8,0,0,1,2.644,1.793,3.038,3.038,0,0,1,.206,1.117,3.007,3.007,0,0,1-.206,1.106,2.864,2.864,0,0,1-.585.929,2.746,2.746,0,0,1-.9.633,2.865,2.865,0,0,1-1.165.231Zm-1.874-2.889a2.172,2.172,0,0,0,.254,1.05,2,2,0,0,0,.677.744,1.759,1.759,0,0,0,1.89-.006,2.01,2.01,0,0,0,.683-.755,2.207,2.207,0,0,0,.255-1.055,2.174,2.174,0,0,0-.255-1.049,2.026,2.026,0,0,0-.683-.75,1.7,1.7,0,0,0-.948-.278,1.653,1.653,0,0,0-.942.284,2.087,2.087,0,0,0-.677.755,2.193,2.193,0,0,0-.254,1.06Z" transform="translate(-150.885 -67.728)"/><path class="a" d="M252.38,101.98h.921l-2.405,5.615h-.834l-1.094-2.646-1.083,2.646h-.834l-2.405-5.615h.91l1.95,4.679.91-2.3-.953-2.366h.834l.672,1.786.672-1.786h.834l-.943,2.366.91,2.3,1.939-4.679Z" transform="translate(-162.888 -67.9)"/><path class="a" d="M273.726,100.774V95.636h.953v5.139Zm0,2.6v-1.341h.953v1.341Z" transform="translate(-182.251 -63.676)"/></g></g></svg>