<svg xmlns="http://www.w3.org/2000/svg" width="96.237" height="24.003" viewBox="0 0 96.237 24.003">
  <g id="Layer_2" data-name="Layer 2" transform="translate(0 0)">
    <g id="Layer_1" data-name="Layer 1" transform="translate(0 0)">
      <path id="Path_1" data-name="Path 1" d="M0,9.86H5.023L8.64,24.513,12.679,9.86h3.887L20.6,24.513,24.221,9.86h5.023L23.474,30.792H18.026l-3.4-12.35-3.41,12.35H5.771Z" transform="translate(0 -8.391)" fill="#72005d"/>
      <path id="Path_2" data-name="Path 2" d="M219.507,26.187v4.6H206.35V9.86h13.007v4.6h-8.223v3.47h7.477v4.545h-7.477v3.708Z" transform="translate(-175.609 -8.391)" fill="#72005d"/>
      <path id="Path_3" data-name="Path 3" d="M479.56,26.187v4.6H467.3V9.86h4.783V26.187Z" transform="translate(-397.685 -8.391)" fill="#72005d"/>
      <path id="Path_4" data-name="Path 4" d="M575.96,26.187v4.6H563.7V9.86h4.784V26.187Z" transform="translate(-479.724 -8.391)" fill="#72005d"/>
      <path id="Path_5" data-name="Path 5" d="M350.348,43.9c0,3.765-2.367,6.518-5.934,6.518s-6.272-2.179-6.275-6.486c0-3.915,2.649-6.489,6.215-6.489S350.348,40.33,350.348,43.9Z" transform="translate(-287.766 -31.862)" fill="#72005d"/>
      <path id="Path_6" data-name="Path 6" d="M353.845,12A11.79,11.79,0,0,0,342.1,0a13.5,13.5,0,0,0-2.151.171,12.822,12.822,0,0,0-2.464.657,12.462,12.462,0,0,0-1.147.5c-.185.092-.368.191-.548.3-.092.052-.468.2-.405.355a.23.23,0,0,0,.054.054l1.016,1.043.413.423c.089.092.191.27.34.256a.789.789,0,0,0,.247-.1c.094-.049.191-.1.286-.14a9.536,9.536,0,0,1,1.192-.465,10.353,10.353,0,0,1,2.591-.462c.177-.007.353-.012.53-.012a9.308,9.308,0,0,1,9.277,9.478,10.439,10.439,0,0,1-.7,3.83,2.749,2.749,0,0,0-.3-.016,2.83,2.83,0,1,0,2.446,1.415A13.11,13.11,0,0,0,353.845,12ZM350.3,19.88a1.192,1.192,0,0,1-1.192-1.192,1.155,1.155,0,0,1,.048-.313,1.192,1.192,0,1,1,1.14,1.5Z" transform="translate(-285.411 0)" fill="#118bcb"/>
      <path id="Path_7" data-name="Path 7" d="M299.129,26.15a11.79,11.79,0,0,0,11.75,12,13.343,13.343,0,0,0,2.151-.167,12.714,12.714,0,0,0,2.464-.655,12.443,12.443,0,0,0,1.147-.5c.185-.092.368-.191.548-.3.092-.052.468-.2.4-.355-.007-.018-.037-.039-.052-.054l-1.016-1.043-.413-.423c-.089-.092-.191-.27-.34-.256a.772.772,0,0,0-.247.1c-.1.049-.191.1-.286.14a9.757,9.757,0,0,1-1.192.465,10.3,10.3,0,0,1-2.591.46c-.177.009-.353.013-.53.013a9.309,9.309,0,0,1-9.277-9.479,10.436,10.436,0,0,1,.7-3.829,2.753,2.753,0,0,0,.3.015,2.83,2.83,0,1,0-2.446-1.414,13.111,13.111,0,0,0-1.076,5.274Zm3.547-7.876a1.192,1.192,0,0,1,1.192,1.192,1.155,1.155,0,0,1-.048.313,1.192,1.192,0,1,1-1.14-1.5Z" transform="translate(-254.566 -14.152)" fill="#118bcb"/>
    </g>
  </g>
</svg>
