<svg xmlns="http://www.w3.org/2000/svg" width="36" height="36" viewBox="0 0 36 36">
  <g id="Group_766" data-name="Group 766" transform="translate(-1033 -244)">
    <rect id="Rectangle_14" data-name="Rectangle 14" width="36" height="36" rx="5" transform="translate(1033 244)" fill="#71005d"/>
    <path id="drag-variant" d="M25.333,13.332l-5.05,5.062-2.823-2.812,2.227-2.25-2.227-2.2L20.283,8.3l5.05,5.028m-12-12,5.028,5.05L15.536,9.2l-2.2-2.227L11.082,9.2,8.27,6.38l5.062-5.05m0,24L8.3,20.283l2.823-2.823,2.2,2.227,2.25-2.227,2.812,2.823-5.062,5.05m-12-12L6.38,8.27,9.2,11.082l-2.227,2.25,2.227,2.2L6.38,18.359,1.33,13.332m12-2.25a2.25,2.25,0,1,1-2.25,2.25A2.25,2.25,0,0,1,13.332,11.082Z" transform="translate(1037.67 248.667)" fill="#fff"/>
  </g>
</svg>
