<svg xmlns="http://www.w3.org/2000/svg" width="36" height="36" viewBox="0 0 36 36">
  <g id="Group_767" data-name="Group 767" transform="translate(-1033 -244)">
    <rect id="Rectangle_14" data-name="Rectangle 14" width="36" height="36" rx="5" transform="translate(1033 244)" fill="#71005d"/>
    <path id="timer-play-outline" d="M16.714,3.286H9.857V1h6.857V3.286M12.143,15.857h2.286V9H12.143v6.857m9.143-1.143a6.965,6.965,0,0,1,2.286.4v-.4A10.243,10.243,0,0,0,21.32,8.3L22.943,6.68a16.5,16.5,0,0,0-1.611-1.611L19.709,6.714a10.13,10.13,0,0,0-6.423-2.286,10.286,10.286,0,0,0,0,20.572,9.942,9.942,0,0,0,1.954-.194,6.7,6.7,0,0,1-.72-2.194,8.843,8.843,0,0,1-1.234.1,8,8,0,1,1,8-8M19,18.143V25l5.714-3.429Z" transform="translate(1037.143 249)" fill="#fff"/>
  </g>
</svg>
