<svg xmlns="http://www.w3.org/2000/svg" xmlns:xlink="http://www.w3.org/1999/xlink" width="36" height="36" viewBox="0 0 36 36">
  <defs>
    <clipPath id="clip-path">
      <rect id="Rectangle_144" data-name="Rectangle 144" width="25.791" height="20.058" fill="#fff"/>
    </clipPath>
  </defs>
  <g id="Group_1015" data-name="Group 1015" transform="translate(-400 -2727)">
    <rect id="Rectangle_15" data-name="Rectangle 15" width="36" height="36" rx="5" transform="translate(400 2727)" fill="#71005d"/>
    <g id="Group_74" data-name="Group 74" transform="translate(1)">
      <g id="Group_73" data-name="Group 73" transform="translate(407.122 2734.971)">
        <g id="Group_72" data-name="Group 72" clip-path="url(#clip-path)">
          <path id="Path_1680" data-name="Path 1680" d="M2.042,0A2.057,2.057,0,0,0,0,2.042V18.017a2.057,2.057,0,0,0,2.042,2.042H18.016a2.057,2.057,0,0,0,2.042-2.042V12.975L25.538,7.5a.86.86,0,0,0,0-1.218l-2.6-2.6a.864.864,0,0,0-1.218,0L20.058,5.355V2.042A2.057,2.057,0,0,0,18.016,0Zm0,1.719H18.016a.3.3,0,0,1,.322.322V7.083L13.432,12a.859.859,0,0,0-.251.609v2.579a.859.859,0,0,0,.859.86h2.579a.86.86,0,0,0,.609-.251l1.11-1.11v3.331a.3.3,0,0,1-.322.322H2.042a.3.3,0,0,1-.322-.322V2.042a.3.3,0,0,1,.322-.322ZM4.209,4.012A.861.861,0,1,0,4.3,5.731H15.76a.86.86,0,1,0,0-1.719H4.3C4.268,4.01,4.238,4.01,4.209,4.012Zm18.124,1.5L23.712,6.9l-.922.922L21.41,6.439ZM4.209,7.451A.861.861,0,1,0,4.3,9.17H14.327a.86.86,0,1,0,0-1.719H4.3A.843.843,0,0,0,4.209,7.451Zm15.984.206,1.379,1.379-5.31,5.292H14.9V12.967ZM4.209,10.889a.861.861,0,1,0,.09,1.719h6.877a.86.86,0,1,0,0-1.719H4.3A.843.843,0,0,0,4.209,10.889Zm0,3.438a.861.861,0,1,0,.09,1.719h6.877a.86.86,0,1,0,0-1.719H4.3A.843.843,0,0,0,4.209,14.328Z" fill="#fff"/>
        </g>
      </g>
    </g>
  </g>
</svg>
