<svg xmlns="http://www.w3.org/2000/svg" width="24" height="23.637" viewBox="0 0 24 23.637">
  <g id="Group_719" data-name="Group 719" transform="translate(-1094 -638)">
    <path id="Path_5163" data-name="Path 5163" d="M49.16,2.751,46.684.275a.932.932,0,0,0-1.321,0L34.908,10.73,32.49,8.312a.928.928,0,0,0-.661-.271.955.955,0,0,0-.661.271l-2.477,2.477a.932.932,0,0,0,0,1.321l3.043,3.043a.16.16,0,0,1,.03.035l2.477,2.477a.928.928,0,0,0,.661.271.954.954,0,0,0,.661-.271L49.154,4.072a.948.948,0,0,0,.006-1.321Z" transform="translate(1068.574 638)" fill="#71005d"/>
    <path id="Path_5164" data-name="Path 5164" d="M20.054,30.446H2.489V12.881H15.255l2.489-2.489H1.244A1.241,1.241,0,0,0,0,11.636V31.691a1.241,1.241,0,0,0,1.244,1.244H21.3a1.241,1.241,0,0,0,1.244-1.244V15.936l-2.489,2.489Z" transform="translate(1094 628.702)" fill="#dee2e6"/>
  </g>
</svg>
