<svg xmlns="http://www.w3.org/2000/svg" viewBox="0 0 36 36"><defs><style>.cls-1{fill:#6f1e5e;}.cls-2{fill:#fff;}</style></defs><g id="Layer_2" data-name="Layer 2"><g id="Layer_1-2" data-name="Layer 1"><g id="Group_930" data-name="Group 930"><rect id="Rectangle_15" data-name="Rectangle 15" class="cls-1" width="36" height="36" rx="5"/><path id="server-network" class="cls-2" d="M19.2,25.2h1.2a1.2,1.2,0,0,1,1.2,1.2H30v2.4H21.6A1.2,1.2,0,0,1,20.4,30H15.6a1.2,1.2,0,0,1-1.2-1.2H6V26.4h8.4a1.2,1.2,0,0,1,1.2-1.2h1.2V22.8H8.4a1.2,1.2,0,0,1-1.2-1.2h0V16.8a1.2,1.2,0,0,1,1.2-1.2H27.6a1.2,1.2,0,0,1,1.2,1.2h0v4.8a1.2,1.2,0,0,1-1.2,1.2H19.2v2.4M8.4,6H27.6a1.2,1.2,0,0,1,1.2,1.2h0V12a1.2,1.2,0,0,1-1.2,1.2H8.4A1.2,1.2,0,0,1,7.2,12V7.2A1.2,1.2,0,0,1,8.4,6m6,4.8h1.2V8.4H14.4v2.4m0,9.6h1.2V18H14.4v2.4M9.6,8.4v2.4H12V8.4H9.6m0,9.6v2.4H12V18Z"/></g></g></g></svg>