<svg xmlns="http://www.w3.org/2000/svg" xmlns:xlink="http://www.w3.org/1999/xlink" width="17.578" height="12.436" viewBox="0 0 17.578 12.436"><defs><clipPath id="a"><rect width="17.578" height="12.436" fill="#0da1ec"/></clipPath></defs><g transform="translate(-1829.212 -1036.667)"><g transform="translate(1829.212 1036.667)"><g clip-path="url(#a)"><path d="M1.717,12.436A1.747,1.747,0,0,1,0,10.664v-8.9A1.744,1.744,0,0,1,1.717,0H15.859a1.744,1.744,0,0,1,1.718,1.765v8.9a1.747,1.747,0,0,1-1.718,1.772Zm-.027-.864h14.2l-4.674-4.69L9.909,8.121a1.633,1.633,0,0,1-2.228,0l-1.3-1.232ZM11.835,6.287l4.878,4.886V1.657ZM.864,11.171,5.755,6.295.864,1.657ZM8.275,7.5a.7.7,0,0,0,1.04,0L16.3.865H1.283Z" transform="translate(0.001 0)" fill="#0da1ec"/></g></g></g></svg>