<svg xmlns="http://www.w3.org/2000/svg" viewBox="0 0 36 36"><defs><style>.cls-1{fill:#6f1e5e;}.cls-2{fill:#fff;}</style></defs><g id="Layer_2" data-name="Layer 2"><g id="Layer_1-2" data-name="Layer 1"><g id="Group_933" data-name="Group 933"><rect id="Rectangle_14-2" data-name="Rectangle 14-2" class="cls-1" width="36" height="36" rx="5"/><path id="shield-account" class="cls-2" d="M18,6,8.18,10.36v6.55C8.18,23,12.37,28.62,18,30c5.63-1.38,9.82-7,9.82-13.09V10.36L18,6m0,4.36a3.28,3.28,0,1,1-3.27,3.28h0A3.27,3.27,0,0,1,18,10.36m5.6,13.09A10.53,10.53,0,0,1,18,27.73a10.53,10.53,0,0,1-5.6-4.28,10.93,10.93,0,0,1-1-1.67c0-1.8,3-3.27,6.55-3.27s6.54,1.44,6.54,3.27a10.88,10.88,0,0,1-.94,1.67Z"/></g></g></g></svg>