<svg xmlns="http://www.w3.org/2000/svg" viewBox="0 0 36 36"><defs><style>.cls-1{fill:#6f1e5e;}.cls-2{fill:#fff;}</style></defs><g id="Layer_2" data-name="Layer 2"><g id="Layer_1-2" data-name="Layer 1"><g id="Group_927" data-name="Group 927"><rect id="Rectangle_14" data-name="Rectangle 14" class="cls-1" width="36" height="36" rx="5"/><path id="auto-fix" class="cls-2" d="M13.43,10.11l-2.85,1.6,1.6-2.85L10.58,6l2.85,1.6L16.29,6l-1.6,2.86,1.6,2.85-2.86-1.6m13.72,11.2L30,19.71l-1.6,2.86L30,25.43l-2.85-1.6-2.86,1.6,1.6-2.86-1.6-2.86,2.86,1.6M30,6,28.4,8.86,30,11.71l-2.85-1.6-2.86,1.6,1.6-2.85L24.29,6l2.86,1.6L30,6M20.1,18.32l2.79-2.79-2.42-2.42L17.68,15.9l2.42,2.42M21.28,12,24,14.72a1.14,1.14,0,0,1,0,1.61h0L10.62,29.67a1.15,1.15,0,0,1-1.61,0H9L6.34,27a1.14,1.14,0,0,1,0-1.61h0L19.67,12a1.15,1.15,0,0,1,1.61,0Z"/></g></g></g></svg>