<svg xmlns="http://www.w3.org/2000/svg" viewBox="0 0 36 36"><defs><style>.cls-1{fill:#6f1e5e;}.cls-2{fill:#fff;}</style></defs><g id="Layer_2" data-name="Layer 2"><g id="Layer_1-2" data-name="Layer 1"><g id="Group_932" data-name="Group 932"><path id="Path_214" data-name="Path 214" class="cls-1" d="M5,0H31a5,5,0,0,1,5,5V31a5,5,0,0,1-5,5H5a5,5,0,0,1-5-5V5A5,5,0,0,1,5,0Z"/><path id="timer-sand-complete" class="cls-2" d="M25,30H11V22.8L15.65,18,11,13.2V6H25v7.2L20.35,18,25,22.8M13.31,12.6,18,17.4l4.69-4.8V8.4H13.31M18,18.6l-4.69,4.8v4.2h9.38V23.4m-2.34,1.8h-4.7v-1L18,21.84l2.35,2.4Z"/></g></g></g></svg>