<svg xmlns="http://www.w3.org/2000/svg" width="36" height="36" viewBox="0 0 36 36">
  <g id="Group_1028" data-name="Group 1028" transform="translate(-376 -1213)">
    <rect id="Rectangle_15" data-name="Rectangle 15" width="36" height="36" rx="5" transform="translate(376 1213)" fill="#71005d"/>
    <g id="Group_30877" data-name="Group 30877" transform="translate(382 1219)">
      <path id="Path_1881" data-name="Path 1881" d="M.611,53.644H1.954v6.229a.611.611,0,0,0,.611.611H6.473a.611.611,0,0,0,.611-.611V53.644H8.428a.611.611,0,0,0,.477-.992L5,47.766a.632.632,0,0,0-.954,0L.134,52.652a.611.611,0,0,0,.477.992Zm3.908-4.519,2.638,3.3H6.473a.611.611,0,0,0-.611.611v6.229H3.176V53.033a.611.611,0,0,0-.611-.611H1.881Z" transform="translate(0 -35.824)" fill="#fff"/>
      <path id="Path_1882" data-name="Path 1882" d="M32.31,29.869h1.343V36.1a.611.611,0,0,0,.611.611h3.908a.611.611,0,0,0,.611-.611V29.869h1.343a.611.611,0,0,0,.477-.992l-3.908-4.885a.632.632,0,0,0-.954,0l-3.908,4.885a.611.611,0,0,0,.477.992Zm3.908-4.519,2.638,3.3h-.684a.611.611,0,0,0-.611.611v6.229H34.875V29.259a.611.611,0,0,0-.611-.611H33.58Z" transform="translate(-23.882 -17.912)" fill="#fff"/>
      <path id="Path_1883" data-name="Path 1883" d="M64.009,6.095h1.343v6.229a.611.611,0,0,0,.611.611h3.908a.611.611,0,0,0,.611-.611V6.095h1.344A.611.611,0,0,0,72.3,5.1L68.394.217a.632.632,0,0,0-.954,0L63.532,5.1a.611.611,0,0,0,.477.992Zm3.908-4.519,2.638,3.3h-.684a.611.611,0,0,0-.611.611v6.229H66.574V5.484a.611.611,0,0,0-.611-.611h-.684l2.638-3.3Z" transform="translate(-47.765)" fill="#fff"/>
    </g>
  </g>
</svg>
