<svg xmlns="http://www.w3.org/2000/svg" viewBox="0 0 36 36"><defs><style>.cls-1{fill:#6f1e5e;}.cls-2{fill:#fff;}</style></defs><g id="Layer_2" data-name="Layer 2"><g id="Layer_1-2" data-name="Layer 1"><g id="Group_926" data-name="Group 926"><g id="Group_925" data-name="Group 925"><rect id="Rectangle_14" data-name="Rectangle 14" class="cls-1" width="36" height="36" rx="5"/><path id="timer-play-outline" class="cls-2" d="M20.86,8.29H14V6h6.86V8.29M16.29,20.86h2.28V14H16.29v6.86m9.14-1.15a7.06,7.06,0,0,1,2.28.4v-.4a10.18,10.18,0,0,0-2.25-6.41l1.63-1.62a16.42,16.42,0,0,0-1.62-1.61l-1.62,1.64a10.14,10.14,0,0,0-6.42-2.28,10.29,10.29,0,0,0,0,20.57,10.56,10.56,0,0,0,1.95-.19,6.85,6.85,0,0,1-.72-2.2,8.5,8.5,0,0,1-1.23.1,8,8,0,1,1,8-8m-2.29,3.43V30l5.72-3.43Z"/></g></g></g></g></svg>