<svg xmlns="http://www.w3.org/2000/svg" xmlns:xlink="http://www.w3.org/1999/xlink" width="36" height="36" viewBox="0 0 36 36">
  <defs>
    <clipPath id="clip-path">
      <rect id="Rectangle_145" data-name="Rectangle 145" width="23" height="20" transform="translate(0 0.24)" fill="#fff"/>
    </clipPath>
  </defs>
  <g id="Group_1019" data-name="Group 1019" transform="translate(-678 -2727)">
    <rect id="Rectangle_124" data-name="Rectangle 124" width="36" height="36" rx="5" transform="translate(678 2727)" fill="#71005d"/>
    <g id="Group_77" data-name="Group 77">
      <g id="Group_76" data-name="Group 76" transform="translate(685.125 2734.76)">
        <g id="Group_75" data-name="Group 75" transform="translate(-0.125 0)" clip-path="url(#clip-path)">
          <path id="Path_1681" data-name="Path 1681" d="M18.975,6.325h-2.53V3.795A3.8,3.8,0,0,0,12.65,0H11.385A1.265,1.265,0,0,0,10.12,1.265V5.06A2.522,2.522,0,0,1,8.791,7.274a1.248,1.248,0,0,0-1.2-.949H1.265A1.265,1.265,0,0,0,0,7.59V18.975A1.265,1.265,0,0,0,1.265,20.24H7.59a1.265,1.265,0,0,0,1.265-1.265h10.12a1.264,1.264,0,0,0,1.2-.865l2.53-7.59a1.268,1.268,0,0,0,.064-.4A3.8,3.8,0,0,0,18.975,6.325ZM6.325,17.71H2.53V8.855H6.325Zm11.738-1.265H8.855V9.961a5.07,5.07,0,0,0,3.795-4.9V2.53a1.267,1.267,0,0,1,1.265,1.265V7.59A1.265,1.265,0,0,0,15.18,8.855h3.795a1.267,1.267,0,0,1,1.254,1.094Z" transform="translate(0.115 0)" fill="#fff"/>
        </g>
      </g>
    </g>
  </g>
</svg>
