<svg id="Linkedin" xmlns="http://www.w3.org/2000/svg" width="28.119" height="27.954" viewBox="0 0 28.119 27.954">
  <path id="Path_723" data-name="Path 723" d="M.466,9.276H6.292V27.95H.459ZM3.383,0A3.379,3.379,0,0,1,6.5,2.081,3.366,3.366,0,0,1,4.034,6.667,3.384,3.384,0,0,1,.567,5.232,3.367,3.367,0,0,1,3.383,0Z" transform="translate(0 0)" fill="#fff"/>
  <path id="Path_724" data-name="Path 724" d="M13.89,12.763h5.587v2.555h.076A6.13,6.13,0,0,1,25.07,12.3c5.9,0,6.984,3.864,6.984,8.892V31.431h-5.82V22.363c0-2.165-.043-4.95-3.028-4.95-3.033,0-3.5,2.358-3.5,4.792V31.44H13.881Z" transform="translate(-3.935 -3.486)" fill="#fff"/>
</svg>
