<svg xmlns="http://www.w3.org/2000/svg" xmlns:xlink="http://www.w3.org/1999/xlink" width="36" height="36" viewBox="0 0 36 36">
  <defs>
    <clipPath id="clip-path">
      <rect id="Rectangle_153" data-name="Rectangle 153" width="24" height="24" fill="#fff"/>
    </clipPath>
  </defs>
  <g id="Group_1025" data-name="Group 1025" transform="translate(-400 -2795)">
    <rect id="Rectangle_128" data-name="Rectangle 128" width="36" height="36" rx="5" transform="translate(400 2795)" fill="#71005d"/>
    <g id="Group_91" data-name="Group 91" transform="translate(406.001 2801.001)">
      <g id="Group_90" data-name="Group 90" transform="translate(-0.001 -0.001)" clip-path="url(#clip-path)">
        <path id="Path_1693" data-name="Path 1693" d="M114.3,107.57a6.731,6.731,0,1,0,6.731,6.731,6.738,6.738,0,0,0-6.731-6.731m.571,7.159a.143.143,0,0,1-.143.143h-2.857a.143.143,0,0,1-.143-.143v-.857a.143.143,0,0,1,.143-.143h1.857v-3.857a.143.143,0,0,1,.143-.143h.857a.143.143,0,0,1,.143.143Z" transform="translate(-102.301 -102.301)" fill="#fff"/>
        <path id="Path_1694" data-name="Path 1694" d="M23.855,9.586H20.988a9.215,9.215,0,0,0-.928-2.237l2.028-2.028a.141.141,0,0,0,.042-.1.144.144,0,0,0-.042-.1l-3.211-3.21a.143.143,0,0,0-.2,0L16.648,3.937a9.246,9.246,0,0,0-2.236-.928V.143A.143.143,0,0,0,14.268,0H9.728a.143.143,0,0,0-.143.143V3.009a9.249,9.249,0,0,0-2.236.928L5.321,1.909a.147.147,0,0,0-.2,0L1.909,5.12a.143.143,0,0,0,0,.2L3.937,7.349a9.237,9.237,0,0,0-.928,2.237H.143A.143.143,0,0,0,0,9.729v4.54a.143.143,0,0,0,.143.143H3.01a9.259,9.259,0,0,0,.928,2.236L1.91,18.676a.143.143,0,0,0,0,.2l3.21,3.21a.147.147,0,0,0,.2,0L7.35,20.06a9.2,9.2,0,0,0,2.236.928v2.867A.143.143,0,0,0,9.729,24h4.54a.143.143,0,0,0,.143-.143V20.988a9.227,9.227,0,0,0,2.236-.928l2.028,2.028a.143.143,0,0,0,.2,0l3.21-3.21a.143.143,0,0,0,0-.2L20.06,16.648a9.238,9.238,0,0,0,.928-2.236h2.867A.143.143,0,0,0,24,14.269V9.729a.143.143,0,0,0-.143-.143ZM12,19.015A7.016,7.016,0,1,1,19.015,12,7.024,7.024,0,0,1,12,19.015" transform="translate(0.001 0.001)" fill="#fff"/>
      </g>
    </g>
  </g>
</svg>
