<svg xmlns="http://www.w3.org/2000/svg" viewBox="0 0 36 36"><defs><style>.cls-1{fill:#6f1e5e;}.cls-2{fill:#fff;}</style></defs><g id="Layer_2" data-name="Layer 2"><g id="Layer_1-2" data-name="Layer 1"><g id="Group_931" data-name="Group 931"><rect id="Rectangle_14" data-name="Rectangle 14" class="cls-1" width="36" height="36" rx="5"/><path id="palette-advanced" class="cls-2" d="M30,29.4H15.6V27H30v2.4m-24,0V27h8.4v2.4H6m19.2-4.8V15H30v9.6H25.2m0-18H30v7.2H25.2V6.6M6,24.6V6.6H22.8v18H6m8.4-4.13a3.6,3.6,0,0,0,3.6-3.6h0c0-2.4-3.6-6.44-3.6-6.44s-3.6,4-3.6,6.44a3.6,3.6,0,0,0,3.6,3.6Z"/></g></g></g></svg>