<svg xmlns="http://www.w3.org/2000/svg" xmlns:xlink="http://www.w3.org/1999/xlink" width="14.14" height="15.54" viewBox="0 0 14.14 15.54"><defs><clipPath id="a"><rect width="14.14" height="15.54" fill="#0da1ec"/></clipPath></defs><g clip-path="url(#a)"><path d="M14.113,11.223a2.419,2.419,0,0,0-.927-1.6L11.709,8.535a2.335,2.335,0,0,0-3.257.5l-.661.9A22.533,22.533,0,0,1,5.151,6.526l.9-.42a2.335,2.335,0,0,0,1.122-3.1L6.393,1.349A2.3,2.3,0,0,0,3.3.227c-.139.065-.318.141-.507.222a9.444,9.444,0,0,0-1.2.576A2.445,2.445,0,0,0,0,3.609C.046,5.4,1.259,7.973,3.247,10.48s4.25,4.327,6.06,4.877a3.9,3.9,0,0,0,1.134.183,2.455,2.455,0,0,0,2.085-1.088c.253-.358.533-.721.8-1.072.137-.178.274-.356.408-.533a2.151,2.151,0,0,0,.376-1.624Zm-1.045,1.119c-.132.175-.267.351-.4.527-.276.358-.561.728-.824,1.1a1.856,1.856,0,0,1-2.292.586C6.054,13.493.925,7.036.838,3.588A1.633,1.633,0,0,1,1.915,1.8a.423.423,0,0,0,.091-.046A8.536,8.536,0,0,1,3.117,1.22c.2-.084.382-.163.533-.234A1.514,1.514,0,0,1,4.294.841a1.476,1.476,0,0,1,1.34.864l.777,1.659a1.5,1.5,0,0,1-.718,1.984l-1.251.586a.419.419,0,0,0-.236.444c.134.862,2.933,4.33,3.521,4.547a.418.418,0,0,0,.483-.145l.918-1.25a1.5,1.5,0,0,1,2.085-.319l1.477,1.085a1.6,1.6,0,0,1,.594,1.05,1.324,1.324,0,0,1-.216,1Z" transform="translate(0 0)" fill="#0da1ec"/></g></svg>