<svg xmlns="http://www.w3.org/2000/svg" xmlns:xlink="http://www.w3.org/1999/xlink" width="36" height="36" viewBox="0 0 36 36">
  <defs>
    <clipPath id="clip-path">
      <rect id="Rectangle_1078" data-name="Rectangle 1078" width="25" height="15.985" fill="#fff"/>
    </clipPath>
  </defs>
  <g id="Group_1025" data-name="Group 1025" transform="translate(-400 -2795)">
    <rect id="Rectangle_128" data-name="Rectangle 128" width="36" height="36" rx="5" transform="translate(400 2795)" fill="#71005d"/>
    <g id="Group_1094" data-name="Group 1094" transform="translate(406 2805)">
      <g id="Group_1093" data-name="Group 1093" clip-path="url(#clip-path)">
        <path id="Path_6106" data-name="Path 6106" d="M68.2,40.24h.032l.031,0,.014,0a.2.2,0,0,0,.033-.014.155.155,0,0,1,.028-.011.454.454,0,0,0,.275-.56,2.477,2.477,0,0,1-.1-.709,2.438,2.438,0,0,1,2.354-2.423.135.135,0,0,1,.135.135v.58a.239.239,0,0,0,.13.221.3.3,0,0,0,.137.021h0l.024,0a.449.449,0,0,0,.114-.046l.012-.007,1.864-1.186a.293.293,0,0,0,0-.457L71.424,34.59l-.017-.009a.312.312,0,0,0-.129-.03.317.317,0,0,0-.144.037.24.24,0,0,0-.13.221v.615a.136.136,0,0,1-.132.135,3.362,3.362,0,0,0-3.282,3.348,3.7,3.7,0,0,0,.166,1.021.459.459,0,0,0,.451.312" transform="translate(-58.47 -29.89)" fill="#fff"/>
        <path id="Path_6107" data-name="Path 6107" d="M79.2,57.857a2.489,2.489,0,0,1,.108.72A2.438,2.438,0,0,1,76.953,61a.134.134,0,0,1-.094-.038.136.136,0,0,1-.041-.1v-.58a.24.24,0,0,0-.13-.221.32.32,0,0,0-.144-.037.31.31,0,0,0-.127.029l-.019.01-1.862,1.219a.294.294,0,0,0,0,.457L76.4,62.929l.013.007a.561.561,0,0,0,.1.044.144.144,0,0,0,.033,0,.3.3,0,0,0,.14-.02.24.24,0,0,0,.13-.221v-.614a.136.136,0,0,1,.132-.135,3.362,3.362,0,0,0,3.282-3.348,3.705,3.705,0,0,0-.166-1.023.468.468,0,0,0-.442-.374.439.439,0,0,0-.137.022.465.465,0,0,0-.288.586" transform="translate(-64.384 -49.525)" fill="#fff"/>
        <path id="Path_6108" data-name="Path 6108" d="M20.211,6.01a.136.136,0,0,1-.128-.131,4.5,4.5,0,0,0-4.509-4.41,4.546,4.546,0,0,0-1.858.4.133.133,0,0,1-.054.012.135.135,0,0,1-.1-.041A5.975,5.975,0,0,0,3.278,5.978v.239a.136.136,0,0,1-.087.126A4.93,4.93,0,0,0,0,11a4.993,4.993,0,0,0,4.987,4.987H20.013A4.992,4.992,0,0,0,25,11,5.062,5.062,0,0,0,20.211,6.01m-15.869.6a4.056,4.056,0,0,1-.035-.634,4.965,4.965,0,0,1,8.809-3.127.517.517,0,0,0,.4.184A.585.585,0,0,0,13.8,2.96a3.468,3.468,0,0,1,5.258,2.984,2.776,2.776,0,0,1-.036.5.5.5,0,0,0,.133.429.637.637,0,0,0,.451.165,1.12,1.12,0,0,0,.17-.016A1.4,1.4,0,0,1,19.979,7a3.977,3.977,0,0,1,0,7.953H4.953a3.951,3.951,0,0,1-.985-7.779.511.511,0,0,0,.374-.566" fill="#fff"/>
      </g>
    </g>
  </g>
</svg>
