<svg xmlns="http://www.w3.org/2000/svg" viewBox="0 0 36 36"><defs><style>.cls-1{fill:#6f1e5e;}.cls-2{fill:#fff;}</style></defs><g id="Layer_2" data-name="Layer 2"><g id="Layer_1-2" data-name="Layer 1"><g id="Group_924" data-name="Group 924"><rect id="Rectangle_14" data-name="Rectangle 14" class="cls-1" width="36" height="36" rx="5"/><path id="drag-variant" class="cls-2" d="M30,18,25,23.06l-2.82-2.81L24.36,18l-2.23-2.2L25,13,30,18M18,6l5,5-2.82,2.83L18,11.64l-2.26,2.23-2.81-2.82L18,6m0,24L13,25l2.82-2.82L18,24.35l2.25-2.22L23.06,25,18,30M6,18l5.06-5.06,2.82,2.81L11.64,18l2.23,2.2L11.05,23,6,18m12-2.25A2.25,2.25,0,1,1,15.75,18h0A2.25,2.25,0,0,1,18,15.75Z"/></g></g></g></svg>