<svg xmlns="http://www.w3.org/2000/svg" width="24" height="23.932" viewBox="0 0 24 23.932">
  <g id="Group_762" data-name="Group 762" transform="translate(-1094 -1982)">
    <path id="Path_5165" data-name="Path 5165" d="M49.055.278a.944.944,0,0,0-1.337,0L39.3,8.7,35.282,4.672a.939.939,0,0,0-.669-.274.966.966,0,0,0-.669.274L31.437,7.179a.944.944,0,0,0,0,1.337l4.024,4.024-4.024,4.024a.939.939,0,0,0-.274.669.966.966,0,0,0,.274.669l2.508,2.508a.935.935,0,0,0,.669.274.946.946,0,0,0,.669-.274l4.024-4.024,4.024,4.024a.94.94,0,0,0,.669.274.966.966,0,0,0,.669-.274L47.175,17.9a.944.944,0,0,0,0-1.337l-4.024-4.024,8.412-8.412a.939.939,0,0,0,.274-.669.966.966,0,0,0-.274-.669Z" transform="translate(1066.163 1982)" fill="#0da1ec"/>
    <path id="Path_5166" data-name="Path 5166" d="M20.3,30.7H2.52V12.912H15.147l2.52-2.52H1.26A1.256,1.256,0,0,0,0,11.652V31.957a1.256,1.256,0,0,0,1.26,1.26H21.565a1.256,1.256,0,0,0,1.26-1.26V15.7l-2.52,2.52V30.7Z" transform="translate(1094 1972.716)" fill="#dee2e6"/>
  </g>
</svg>
