<svg xmlns="http://www.w3.org/2000/svg" width="36" height="36" viewBox="0 0 36 36"><g transform="translate(-376 -1213)"><rect width="36" height="36" rx="5" transform="translate(376 1213)" fill="#71005d"/><g transform="translate(-780.666 253.865)"><g transform="translate(1163.037 966)"><path d="M43.741,41.053a2.717,2.717,0,1,0-.8,1.918A2.713,2.713,0,0,0,43.741,41.053Zm-2.713,1.938a1.94,1.94,0,1,1,1.37-.568A1.939,1.939,0,0,1,41.028,42.991Z" transform="translate(-29.399 -29.418)" fill="#fff"/><path d="M48.2,47.444a.775.775,0,1,1-.775-.775A.775.775,0,0,1,48.2,47.444Z" transform="translate(-35.791 -35.809)" fill="#fff"/><path d="M44.477,3.052v.055a.388.388,0,0,0,.775,0V3.052a1.55,1.55,0,1,0-.775,0ZM44.865.781a.776.776,0,1,1-.548.227A.775.775,0,0,1,44.865.781Z" transform="translate(-33.235)" fill="#fff"/><path d="M1.551,3.127a1.552,1.552,0,1,0-1.1-.455A1.551,1.551,0,0,0,1.551,3.127ZM1.551.8A.776.776,0,1,1,1,1.029.775.775,0,0,1,1.551.8Z" transform="translate(0 -0.02)" fill="#fff"/><path d="M88.172.026a1.552,1.552,0,1,0,1.1.455A1.551,1.551,0,0,0,88.172.026Zm0,2.326a.776.776,0,1,1,.548-.227A.775.775,0,0,1,88.172,2.352Z" transform="translate(-66.465 -0.02)" fill="#fff"/><path d="M86.9,43.336A1.549,1.549,0,0,0,85.4,44.5h-.055a.388.388,0,1,0,0,.775H85.4a1.548,1.548,0,1,0,1.5-1.938Zm0,2.326a.776.776,0,1,1,.548-.227A.776.776,0,0,1,86.9,45.662Z" transform="translate(-65.188 -33.252)" fill="#fff"/><path d="M88.172,86.649a1.552,1.552,0,1,0,1.1.455A1.551,1.551,0,0,0,88.172,86.649Zm0,2.326a.776.776,0,1,1,.548-.227A.775.775,0,0,1,88.172,88.975Z" transform="translate(-66.465 -66.486)" fill="#fff"/><path d="M1.551,46.455a1.549,1.549,0,0,0,1.5-1.163H3.1a.388.388,0,0,0,0-.775H3.046a1.548,1.548,0,1,0-1.5,1.938Zm0-2.326A.776.776,0,1,1,1,44.357.775.775,0,0,1,1.551,44.13Z" transform="translate(0 -33.27)" fill="#fff"/><path d="M1.551,89.75a1.552,1.552,0,1,0-1.1-.455A1.551,1.551,0,0,0,1.551,89.75Zm0-2.326A.776.776,0,1,1,1,87.652.775.775,0,0,1,1.551,87.424Z" transform="translate(0 -66.486)" fill="#fff"/><path d="M48.694,18.35a.388.388,0,1,1-.388.388A.388.388,0,0,1,48.694,18.35Z" transform="translate(-37.066 -14.08)" fill="#fff"/><path d="M65.354,48.333a.388.388,0,1,1-.388.388A.388.388,0,0,1,65.354,48.333Z" transform="translate(-49.849 -37.087)" fill="#fff"/><path d="M72.019,48.333a.388.388,0,1,1-.388.388A.388.388,0,0,1,72.019,48.333Z" transform="translate(-54.963 -37.087)" fill="#fff"/><path d="M78.683,48.333a.388.388,0,1,1-.388.388A.388.388,0,0,1,78.683,48.333Z" transform="translate(-60.076 -37.087)" fill="#fff"/><path d="M18.712,48.333a.388.388,0,1,1-.388.388A.388.388,0,0,1,18.712,48.333Z" transform="translate(-14.06 -37.087)" fill="#fff"/><path d="M25.374,48.333a.388.388,0,1,1-.388.388A.388.388,0,0,1,25.374,48.333Z" transform="translate(-19.172 -37.087)" fill="#fff"/><path d="M32.038,48.333a.388.388,0,1,1-.388.388A.388.388,0,0,1,32.038,48.333Z" transform="translate(-24.285 -37.087)" fill="#fff"/><path d="M48.694,64.994a.388.388,0,1,1-.388.388A.388.388,0,0,1,48.694,64.994Z" transform="translate(-37.066 -49.87)" fill="#fff"/><path d="M48.694,71.657a.388.388,0,1,1-.388.388A.388.388,0,0,1,48.694,71.657Z" transform="translate(-37.066 -54.983)" fill="#fff"/><path d="M48.694,78.32a.388.388,0,1,1-.388.388A.388.388,0,0,1,48.694,78.32Z" transform="translate(-37.066 -60.096)" fill="#fff"/><path d="M44.477,85.425a1.551,1.551,0,1,0,.775,0V85.37a.388.388,0,1,0-.775,0Zm1.163,1.5a.776.776,0,1,1-.227-.548A.775.775,0,0,1,45.64,86.921Z" transform="translate(-33.235 -65.207)" fill="#fff"/><path d="M48.694,25.013a.388.388,0,1,1-.388.388A.388.388,0,0,1,48.694,25.013Z" transform="translate(-37.066 -19.193)" fill="#fff"/><path d="M48.694,31.676a.388.388,0,1,1-.388.388A.388.388,0,0,1,48.694,31.676Z" transform="translate(-37.066 -24.305)" fill="#fff"/><path d="M69.758,27.246h0a.388.388,0,0,1,.548,0h0a.388.388,0,0,1,0,.548h0a.388.388,0,0,1-.548,0h0A.388.388,0,0,1,69.758,27.246Z" transform="translate(-53.439 -20.819)" fill="#fff"/><path d="M60.334,60.227a.388.388,0,0,1,.548,0h0a.388.388,0,1,1-.548.548h0A.388.388,0,0,1,60.334,60.227Z" transform="translate(-46.208 -46.126)" fill="#fff"/><path d="M65.049,64.938h0a.388.388,0,0,1,.548,0h0a.388.388,0,0,1,0,.548h0a.388.388,0,0,1-.548,0h0A.388.388,0,0,1,65.049,64.938Z" transform="translate(-49.825 -49.74)" fill="#fff"/><path d="M69.758,69.652h0a.388.388,0,0,1,.548,0h0a.387.387,0,0,1,0,.548h0a.388.388,0,0,1-.548,0h0A.388.388,0,0,1,69.758,69.652Z" transform="translate(-53.439 -53.357)" fill="#fff"/><path d="M74.469,74.362a.388.388,0,0,1,.548,0h0a.388.388,0,0,1-.548.548h0A.388.388,0,0,1,74.469,74.362Z" transform="translate(-57.053 -56.971)" fill="#fff"/><path d="M79.182,79.076h0a.388.388,0,0,1,.548,0h0a.388.388,0,0,1,0,.548h0a.388.388,0,0,1-.548,0h0A.388.388,0,0,1,79.182,79.076Z" transform="translate(-60.67 -60.588)" fill="#fff"/><path d="M83.893,83.785a.388.388,0,0,1,.548,0h0a.388.388,0,0,1-.548.548h0A.388.388,0,0,1,83.893,83.785Z" transform="translate(-64.284 -64.202)" fill="#fff"/><path d="M22.639,22.534a.388.388,0,0,1,.548,0h0a.388.388,0,1,1-.548.548h0A.388.388,0,0,1,22.639,22.534Z" transform="translate(-17.284 -17.203)" fill="#fff"/><path d="M27.354,27.246a.388.388,0,1,1,0,.548A.388.388,0,0,1,27.354,27.246Z" transform="translate(-20.902 -20.819)" fill="#fff"/><path d="M13.219,13.112a.388.388,0,0,1,.548,0h0a.388.388,0,0,1-.548.548h0A.388.388,0,0,1,13.219,13.112Z" transform="translate(-10.056 -9.973)" fill="#fff"/><path d="M17.93,17.822h0a.388.388,0,0,1,.548,0h0a.388.388,0,0,1,0,.548h0a.388.388,0,0,1-.548,0h0A.388.388,0,0,1,17.93,17.822Z" transform="translate(-13.671 -13.588)" fill="#fff"/><path d="M32.063,31.956h0a.388.388,0,0,1,.548,0h0a.388.388,0,0,1,0,.548h0a.388.388,0,0,1-.548,0h0A.388.388,0,0,1,32.063,31.956Z" transform="translate(-24.515 -24.433)" fill="#fff"/><path d="M36.774,36.668a.388.388,0,0,1,.548,0h0a.388.388,0,0,1-.548.548h0A.388.388,0,0,1,36.774,36.668Z" transform="translate(-28.13 -28.048)" fill="#fff"/><path d="M36.774,60.227h0a.388.388,0,0,1,.548,0h0a.388.388,0,0,1,0,.548h0a.388.388,0,0,1-.548,0h0A.388.388,0,0,1,36.774,60.227Z" transform="translate(-28.13 -46.126)" fill="#fff"/><path d="M32.063,64.938h0a.388.388,0,0,1,.548,0h0a.388.388,0,0,1,0,.548h0a.388.388,0,0,1-.548,0h0A.388.388,0,0,1,32.063,64.938Z" transform="translate(-24.515 -49.74)" fill="#fff"/><path d="M27.354,69.652h0a.388.388,0,0,1,.548,0h0a.388.388,0,0,1,0,.548h0a.388.388,0,0,1-.548,0h0A.388.388,0,0,1,27.354,69.652Z" transform="translate(-20.902 -53.357)" fill="#fff"/><path d="M22.639,74.362h0a.388.388,0,0,1,.548.548h0a.388.388,0,1,1-.548-.548Z" transform="translate(-17.284 -56.971)" fill="#fff"/><path d="M17.93,79.076h0a.388.388,0,0,1,.548,0h0a.388.388,0,0,1,0,.548h0a.388.388,0,0,1-.548,0h0A.388.388,0,0,1,17.93,79.076Z" transform="translate(-13.671 -60.588)" fill="#fff"/><path d="M13.219,83.785h0a.388.388,0,0,1,.548,0h0a.388.388,0,0,1,0,.548h0a.388.388,0,0,1-.548,0h0A.388.388,0,0,1,13.219,83.785Z" transform="translate(-10.056 -64.202)" fill="#fff"/><path d="M74.469,22.532h0a.388.388,0,0,1,.548,0h0a.388.388,0,0,1,0,.548h0a.388.388,0,0,1-.548,0h0A.388.388,0,0,1,74.469,22.532Z" transform="translate(-57.053 -17.202)" fill="#fff"/><path d="M79.182,17.822h0a.388.388,0,0,1,.548,0h0a.388.388,0,0,1,0,.548h0a.388.388,0,0,1-.548,0h0A.388.388,0,0,1,79.182,17.822Z" transform="translate(-60.67 -13.588)" fill="#fff"/><path d="M83.893,13.112h0a.388.388,0,1,1,0,.548h0A.388.388,0,0,1,83.893,13.112Z" transform="translate(-64.284 -9.973)" fill="#fff"/><path d="M65.049,31.956h0a.388.388,0,0,1,.548,0h0a.388.388,0,0,1,0,.548h0a.388.388,0,0,1-.548,0h0A.388.388,0,0,1,65.049,31.956Z" transform="translate(-49.825 -24.433)" fill="#fff"/><path d="M60.334,36.668h0a.388.388,0,0,1,.548.548h0a.388.388,0,0,1-.548-.548Z" transform="translate(-46.208 -28.048)" fill="#fff"/></g></g></g></svg>