<svg xmlns="http://www.w3.org/2000/svg" width="36" height="36" viewBox="0 0 36 36"><g transform="translate(-1008 -1213)"><rect width="36" height="36" rx="5" transform="translate(1008 1213)" fill="#71005d"/><g transform="translate(-111.792 274.359)"><path d="M23.553,12.905a.492.492,0,0,1,.081-.007.5.5,0,0,1,.351.14l0,0a.5.5,0,0,1,.137.437l-.667,4.073a.5.5,0,0,1-.391.405h-.018l-.036,0-.021,0h-.021a.557.557,0,0,1-.393-.16l-1.1-1.1-5.462,5.473a.807.807,0,0,1-1.141,0l-2.937-2.937L6.11,25.045A.807.807,0,1,1,4.968,23.9l6.39-6.388a.807.807,0,0,1,1.142,0l2.938,2.938,4.9-4.9L19.22,14.441a.52.52,0,0,1-.158-.4.5.5,0,0,1,.42-.459l4.069-.672ZM3.882,20.141a.647.647,0,0,1-.459-.189A11.689,11.689,0,1,1,23.08,9.058v.005a.77.77,0,0,1-.6.936.743.743,0,0,1-.828-.558l-.021-.091A10.074,10.074,0,0,0,18.9,4.539L18.857,4.5a10.086,10.086,0,0,0-5.588-2.9l-.014,0-.917-.124v1.91a.652.652,0,1,1-1.3,0v-1.9l-.532.061A10.157,10.157,0,0,0,5.348,3.674l-.419.331,1.3,1.316a.684.684,0,0,1,.069.905.653.653,0,0,1-.467.232H5.8a.647.647,0,0,1-.46-.19L4,4.926l-.333.423A10.158,10.158,0,0,0,1.547,10.5l-.06.531H3.444a.652.652,0,1,1,0,1.3H1.473l.061.532a10.16,10.16,0,0,0,2.129,5.155l.33.417,1.354-1.328a.649.649,0,0,1,.462-.193h.033a.653.653,0,0,1,.468.232.684.684,0,0,1-.068.907l-.853.822h.031L5.306,19l-.979.968a.648.648,0,0,1-.445.176h0Zm7.829-6.266-.1,0A2.178,2.178,0,1,1,12,9.54l.2.028L16.169,6.4a.6.6,0,0,1,.377-.136h.032a.591.591,0,0,1,.3.1l.095.093a.593.593,0,0,1,.045.8L13.837,11.2l.029.206a2.175,2.175,0,0,1-2.155,2.471Z" transform="translate(1126 944)" fill="#fff"/></g></g></svg>