<svg xmlns="http://www.w3.org/2000/svg" width="36" height="36" viewBox="0 0 36 36"><g transform="translate(-1008 -1313)"><rect width="36" height="36" rx="5" transform="translate(1008 1313)" fill="#71005d"/><g transform="translate(1013.001 1320)"><path d="M21.577,3.063v.77A1.368,1.368,0,0,0,22.943,5.2h2.778V4.412H22.943a.58.58,0,0,1-.58-.579v-.77a1.56,1.56,0,1,0-.787,0ZM21.97.788a.772.772,0,1,1-.772.772A.773.773,0,0,1,21.97.788Z" transform="translate(-15.999)" fill="#fff"/><path d="M15.582,71.287V68.644a.58.58,0,0,1,.58-.579H20.4v-.787H16.162A1.368,1.368,0,0,0,14.8,68.644v2.644a1.56,1.56,0,1,0,.787,0Zm-.394,2.275a.772.772,0,1,1,.772-.772A.773.773,0,0,1,15.189,73.562Z" transform="translate(-10.683 -52.735)" fill="#fff"/><path d="M3.063,31.733H9.722v-.787H3.063a1.56,1.56,0,1,0,0,.787Zm-1.5.379a.772.772,0,1,1,.772-.772A.773.773,0,0,1,1.56,32.112Z" transform="translate(0 -23.343)" fill="#fff"/><path d="M47.108,1.561a1.56,1.56,0,1,0-1.954,1.5V17.387a1.559,1.559,0,1,0,.788,0V3.064a1.558,1.558,0,0,0,1.166-1.5Zm-2.332,0a.772.772,0,1,1,.772.772A.773.773,0,0,1,44.776,1.561ZM46.32,18.89a.772.772,0,1,1-.772-.772A.773.773,0,0,1,46.32,18.89Z" transform="translate(-34.48 -0.001)" fill="#fff"/><path d="M63.09,17.386V3.063a1.56,1.56,0,1,0-.788,0V17.386a1.56,1.56,0,1,0,.788,0ZM61.924,1.559a.772.772,0,1,1,.772.772A.773.773,0,0,1,61.924,1.559Zm.772,18.1a.772.772,0,1,1,.772-.772A.773.773,0,0,1,62.7,19.661Z" transform="translate(-47.922)" fill="#fff"/><path d="M13.517,50.246a1.558,1.558,0,0,0,1.5-1.166H19.1v-.787H15.02a1.557,1.557,0,1,0-1.5,1.953Zm0-2.332a.772.772,0,1,1-.772.772A.773.773,0,0,1,13.517,47.914Z" transform="translate(-9.373 -36.941)" fill="#fff"/><path d="M78.031,3.063v.77a.58.58,0,0,1-.579.579H74.674V5.2h2.778a1.368,1.368,0,0,0,1.366-1.366v-.77a1.56,1.56,0,1,0-.787,0ZM78.424.788a.772.772,0,1,1-.772.772A.773.773,0,0,1,78.424.788Z" transform="translate(-58.533)" fill="#fff"/><path d="M80.284,71.287V68.644a1.368,1.368,0,0,0-1.366-1.367H74.674v.787h4.244a.58.58,0,0,1,.579.579v2.644a1.56,1.56,0,1,0,.787,0Zm-.394,2.275a.772.772,0,1,1,.772-.772A.773.773,0,0,1,79.89,73.562Z" transform="translate(-58.533 -52.735)" fill="#fff"/><path d="M82.84,29.777a1.558,1.558,0,0,0-1.5,1.166h-6.66v.787h6.659a1.557,1.557,0,1,0,1.5-1.953Zm0,2.332a.772.772,0,1,1,.772-.772A.773.773,0,0,1,82.84,32.109Z" transform="translate(-58.536 -23.341)" fill="#fff"/><path d="M80.252,47.127a1.558,1.558,0,0,0-1.5,1.166H74.674v.787h4.075a1.557,1.557,0,1,0,1.5-1.953Zm0,2.332a.772.772,0,1,1,.772-.772A.773.773,0,0,1,80.252,49.459Z" transform="translate(-58.533 -36.941)" fill="#fff"/></g></g></svg>