<svg xmlns="http://www.w3.org/2000/svg" width="36" height="36" viewBox="0 0 36 36"><g transform="translate(-376 -1313)"><rect width="36" height="36" rx="5" transform="translate(376 1313)" fill="#71005d"/><g transform="translate(381.706 1319.47)"><path d="M91.245,54.184a.927.927,0,0,1-.989.583c-.919-.023-1.839-.006-2.758-.007a.775.775,0,0,1-.862-.858q0-5.912,0-11.826a.773.773,0,0,1,.862-.857c.92,0,1.839.016,2.758-.007a.927.927,0,0,1,.989.583q0,6.2,0,12.389Z" transform="translate(-66.657 -31.708)" fill="#fff" fill-rule="evenodd"/><path d="M24.591,5.524a2,2,0,0,1-.339.451.757.757,0,0,1-1.2-.563c-.084-.723-.164-1.446-.3-2.212a1,1,0,0,1-.056.119,26.033,26.033,0,0,1-10.239,9.115A29.048,29.048,0,0,1,5.219,15.1a18.524,18.524,0,0,1-4.045.451A3.322,3.322,0,0,1,.6,15.505a.825.825,0,0,1-.6-.568v-.384A.961.961,0,0,1,1.052,14a14.794,14.794,0,0,0,3.969-.446,27.334,27.334,0,0,0,13.9-7.864A21.514,21.514,0,0,0,21.5,2.322c.046-.074.087-.151.15-.261-.091.017-.149.024-.2.04-.8.227-1.6.462-2.4.68a.759.759,0,0,1-1-.855.715.715,0,0,1,.542-.61Q20.854.664,23.114.029a.752.752,0,0,1,.949.665c.163,1.406.32,2.812.482,4.218a1.292,1.292,0,0,0,.045.181q0,.215,0,.431h0Z" transform="translate(-0.003 0)" fill="#fff" fill-rule="evenodd"/><path d="M0,78.028a.922.922,0,0,1,.988-.583c.926.024,1.854.006,2.78.007a.775.775,0,0,1,.842.855q0,1.738,0,3.476a.778.778,0,0,1-.864.856c-.919,0-1.838-.016-2.757.006A.926.926,0,0,1,0,82.062q0-2.017,0-4.034Z" transform="translate(0 -59.586)" fill="#fff" fill-rule="evenodd"/><path d="M62.345,65.327q0,1.8,0,3.6c0,.629-.281.912-.9.912q-1.417,0-2.833,0a.784.784,0,0,1-.873-.877q0-3.649,0-7.3a.78.78,0,0,1,.85-.853q1.441,0,2.881,0a.78.78,0,0,1,.88.888q0,1.812,0,3.626h0Z" transform="translate(-44.421 -46.789)" fill="#fff" fill-rule="evenodd"/><path d="M28.891,76.229c0-.744,0-1.488,0-2.232a.774.774,0,0,1,.85-.848q1.428,0,2.856,0a.8.8,0,0,1,.9.9q0,2.184,0,4.368a.8.8,0,0,1-.906.916q-1.428,0-2.856,0a.767.767,0,0,1-.848-.846c0-.753,0-1.5,0-2.257Z" transform="translate(-22.229 -56.28)" fill="#fff" fill-rule="evenodd"/></g></g></svg>