<svg xmlns="http://www.w3.org/2000/svg" xmlns:xlink="http://www.w3.org/1999/xlink" width="140" height="140" viewBox="0 0 140 140">
  <defs>
    <clipPath id="clip-path">
      <rect id="Rectangle_160" data-name="Rectangle 160" width="97.008" height="90.335" fill="#fff"/>
    </clipPath>
  </defs>
  <g id="Group_1067" data-name="Group 1067" transform="translate(-1126 -677)">
    <rect id="Rectangle_158" data-name="Rectangle 158" width="140" height="140" rx="5" transform="translate(1126 677)" fill="#71005d"/>
    <g id="Group_99" data-name="Group 99" transform="translate(1155.82 698.833)">
      <g id="Group_98" data-name="Group 98" clip-path="url(#clip-path)">
        <path id="Path_1738" data-name="Path 1738" d="M49.573,51.678H40.6a.964.964,0,0,0-.964.965V55.9a.964.964,0,0,0,.964.965h8.97a.964.964,0,0,0,.964-.965V52.642a.963.963,0,0,0-.964-.964m-.964,3.263H41.566V53.607h7.043Z" transform="translate(20.041 26.128)" fill="#fff"/>
        <path id="Path_1739" data-name="Path 1739" d="M75.923,55.42a9.941,9.941,0,0,0-5.864-8.22l-8.5-3.776a.958.958,0,0,0-.117-.244l-1.631-2.447c-.008-.011-.02-.015-.026-.026a1,1,0,0,0-.266-.254c-.018-.011-.039-.017-.057-.027a1.014,1.014,0,0,0-.306-.1c-.018,0-.033-.015-.051-.017s-.024,0-.036,0-.039-.008-.059-.008H50.857c-.02,0-.036.008-.056.008s-.026-.006-.039,0-.036.017-.057.02a.921.921,0,0,0-.3.1c-.021.012-.044.018-.063.03a.973.973,0,0,0-.263.251c-.008.011-.021.015-.029.027l-1.628,2.448a1,1,0,0,0-.114.239L39.8,47.2a10.058,10.058,0,0,0-1.32.735,10.1,10.1,0,0,0-1.622-.921l-8.065-3.592a.968.968,0,0,0-.117-.245l-1.631-2.447c-.008-.011-.02-.015-.026-.024a.963.963,0,0,0-.268-.256c-.018-.011-.038-.017-.057-.027a.963.963,0,0,0-.3-.1c-.018,0-.033-.017-.053-.018a.272.272,0,0,0-.035,0c-.02,0-.039-.009-.06-.009H18.089c-.021,0-.039.008-.06.009a.272.272,0,0,0-.035,0c-.02,0-.035.015-.053.018a.963.963,0,0,0-.3.1c-.02.011-.039.017-.057.027a.963.963,0,0,0-.268.256c-.008.009-.018.014-.026.024l-1.631,2.447a.977.977,0,0,0-.117.247L7.476,47.012A10.746,10.746,0,0,0,1.135,55.9L0,68.91a.965.965,0,0,0,.959,1.049H76.139a.963.963,0,0,0,.959-1.048ZM59.511,43.753l-2.148,3.761-1.214-2.019,2.713-2.713Zm-8.5-.971,2.713,2.713-.571.952-.641,1.067-2.147-3.761Zm-24.264.971-2.148,3.761-1.214-2.019,2.713-2.713Zm-8.5-.973,2.713,2.715-1.212,2.02v0l-2.15-3.762ZM21.2,68.032H2.014l1.04-11.96a8.827,8.827,0,0,1,5.2-7.3l7.946-3.529,2.68,4.658a.909.909,0,0,0,.131.172c.008.008.012.02.02.027a1.138,1.138,0,0,0,.152.117c.017.011.029.026.045.035a.987.987,0,0,0,.129.056c.033.012.065.032.1.041a.816.816,0,0,0,.108.017c.047.006.092.018.14.02h.011a.378.378,0,0,0,.041-.006.94.94,0,0,0,.786-.462l.655-1.093Zm-.786-25.8h3.5l-1.751,1.749Zm2.713,25.8V48.827l.656,1.095a1.035,1.035,0,0,0,.148.185.891.891,0,0,0,.527.262.858.858,0,0,0,.152.02h.009a.962.962,0,0,0,.712-.334.9.9,0,0,0,.116-.152l2.675-4.657,7.956,3.537a8.294,8.294,0,0,1,1.805,1.087,8.786,8.786,0,0,1,3.4,6.2l1.037,11.963Zm30.842,0H44.253L43.2,55.9a10.361,10.361,0,0,0-.146-1.034c-.02-.11-.048-.217-.072-.327-.051-.23-.105-.459-.17-.684-.036-.126-.078-.25-.119-.373-.068-.2-.14-.407-.22-.607-.05-.128-.1-.253-.158-.379-.086-.193-.178-.381-.274-.568-.063-.12-.123-.244-.19-.361-.11-.193-.229-.381-.349-.566-.066-.1-.128-.209-.2-.31-.19-.271-.391-.534-.605-.787-.074-.087-.155-.166-.23-.25-.132-.146-.262-.3-.4-.434.17-.09.342-.176.518-.256l8.389-3.719L51.652,49.9a.894.894,0,0,0,.12.158c.012.014.02.029.032.041a.886.886,0,0,0,.126.1.61.61,0,0,0,.069.054,1.035,1.035,0,0,0,.132.057.857.857,0,0,0,.095.041,1.007,1.007,0,0,0,.151.021c.033,0,.065.014.1.015h.009a.964.964,0,0,0,.827-.468l.659-1.1Zm-.786-25.8h3.5l-1.749,1.749Zm2.713,25.8V48.827l.656,1.095a.964.964,0,0,0,.827.467h.009a.962.962,0,0,0,.712-.334,1.051,1.051,0,0,0,.116-.151l2.675-4.658,8.383,3.719A8,8,0,0,1,74,55.587v0l1.086,12.444Z" transform="translate(0 20.376)" fill="#fff"/>
        <path id="Path_1740" data-name="Path 1740" d="M27.809,51.678h-8.97a.964.964,0,0,0-.964.965V55.9a.964.964,0,0,0,.964.965h8.97a.964.964,0,0,0,.964-.965V52.642a.964.964,0,0,0-.964-.964m-.964,3.263H19.8V53.607h7.043Z" transform="translate(9.037 26.128)" fill="#fff"/>
        <path id="Path_1741" data-name="Path 1741" d="M2.316,50.2H17.636a7.626,7.626,0,0,0,3.845,1.631A7.639,7.639,0,0,0,25.328,50.2H40.647a.965.965,0,0,0,.708-1.617c-.05-.054-4.968-5.6-5.045-19.4a12.87,12.87,0,0,0-1.037-5.1,12.511,12.511,0,0,0-11.581-7.62H19.272a12.669,12.669,0,0,0-6.957,2.076A12.379,12.379,0,0,0,7.7,24.084a12.812,12.812,0,0,0-1.042,5.1c-.039,7.629-1.561,12.692-2.861,15.666l-.05.113a14.575,14.575,0,0,1-2.132,3.624.964.964,0,0,0,.7,1.62Zm22.776-2.236q-.318.257-.641.492l0,0a6.286,6.286,0,0,1-2.968,1.445,6.277,6.277,0,0,1-2.972-1.447,17.177,17.177,0,0,1-4.353-4.616.87.87,0,0,0-.1-.136,3.041,3.041,0,0,1-.735-1.67,1,1,0,0,0-.024-.131,63.146,63.146,0,0,1-.807-7.41,14.779,14.779,0,0,0,2.593-.7q.621-.235,1.22-.515l.553-.276c.175-.089.351-.188.521-.285l.111-.062c.434-.253.845-.515,1.2-.766.263-.175.509-.36.741-.536a17.913,17.913,0,0,0,2.051-1.852,16.562,16.562,0,0,0,8.99,4.986,62.277,62.277,0,0,1-.805,7.413,1.283,1.283,0,0,0-.024.132,3.048,3.048,0,0,1-.735,1.668.87.87,0,0,0-.1.136,17.034,17.034,0,0,1-3.713,4.125Zm-19.555-2.3c.024-.054.05-.107.051-.117,1.341-3.07,2.949-8.4,2.992-16.361a10.937,10.937,0,0,1,.888-4.348,10.472,10.472,0,0,1,3.9-4.682,10.734,10.734,0,0,1,5.9-1.757h4.419A10.585,10.585,0,0,1,33.5,24.846a10.917,10.917,0,0,1,.884,4.345c.06,10.5,2.776,16.461,4.392,19.085H27.651c.248-.241.489-.489.723-.741.074-.08.143-.16.215-.238.16-.176.313-.352.464-.531.078-.093.154-.187.23-.279.143-.178.279-.355.413-.534.063-.086.128-.172.19-.256.187-.26.363-.521.524-.78a5.019,5.019,0,0,0,1.141-2.6,64.233,64.233,0,0,0,.839-7.635c.172.006.337.026.51.026a.964.964,0,1,0,0-1.927,12.522,12.522,0,0,1-1.275-.066.3.3,0,0,0-.035-.011,14.81,14.81,0,0,1-9.336-5.247.964.964,0,0,0-1.54,0,14.438,14.438,0,0,1-2.459,2.376c-.193.148-.4.3-.631.458l-.015.011c-.339.23-.7.47-1.076.688l-.105.06c-.142.08-.286.163-.429.235l-.516.259c-.345.16-.706.313-1.066.449a12.905,12.905,0,0,1-2.4.632c-.206.038-.419.068-.632.087l0,0h0a12.324,12.324,0,0,1-1.308.069.964.964,0,0,0,0,1.927c.173,0,.337-.02.509-.026a64.841,64.841,0,0,0,.84,7.636,5.009,5.009,0,0,0,1.141,2.6c.161.259.339.519.524.78.062.086.126.17.191.256.132.179.268.355.411.533.075.093.152.185.229.279.151.179.307.357.467.534.071.078.14.157.212.235.233.25.473.5.721.741H4.183A22.587,22.587,0,0,0,5.538,45.665Z" transform="translate(0.684 8.327)" fill="#fff"/>
        <path id="Path_1742" data-name="Path 1742" d="M56.361,7.693v7.121h6.876a1.052,1.052,0,0,1,0,2.1H56.361v7.192a1.122,1.122,0,1,1-2.245,0V16.919H47.24a1.052,1.052,0,1,1,0-2.1h6.876V7.693a1.122,1.122,0,1,1,2.245,0" transform="translate(23.352 3.322)" fill="#fff"/>
        <path id="Path_1743" data-name="Path 1743" d="M64.46,0A19.144,19.144,0,0,0,46.183,24.812c-.193-.008-.385-.014-.58-.014h-8.32A10.626,10.626,0,0,0,26.83,33.522l-.071.388A14.734,14.734,0,0,0,28.277,43.5L31.3,49.114l.152,1.463a4.933,4.933,0,0,0,1.411,2.949l5.2,5.2a4.9,4.9,0,0,0,6.926,0l5.2-5.2A4.937,4.937,0,0,0,51.6,50.571l.123-1.174,4.551-5.848a4.24,4.24,0,0,0,.891-2.6V36.83A19.137,19.137,0,1,0,64.46,0M50.541,42.191l-.709,6.736a.146.146,0,0,0,0,.026l-.149,1.415a3.007,3.007,0,0,1-.857,1.8l-5.2,5.2a3.08,3.08,0,0,1-4.2,0l-5.2-5.2a3,3,0,0,1-.857-1.79L33.2,48.727v0l-.659-6.31a50.758,50.758,0,0,0,9.693-5.087h3.934a4.4,4.4,0,0,1,4.378,4.863Zm4.7-1.239a2.316,2.316,0,0,1-.483,1.412l-2.651,3.407.354-3.377A6.326,6.326,0,0,0,46.166,35.4H41.941a.965.965,0,0,0-.527.158c-2.334,1.527-6.76,4.238-10.193,5.257a.962.962,0,0,0-.685,1.024l.233,2.227-.8-1.48a12.811,12.811,0,0,1-1.319-8.33l.071-.387a8.7,8.7,0,0,1,8.558-7.142H45.6a11.142,11.142,0,0,1,1.326.08,11.349,11.349,0,0,1,2.376.553,11.223,11.223,0,0,1,3.059,1.622.963.963,0,0,0,.578.193,2.3,2.3,0,0,1,2.3,2.3v9.482Zm9.22-4.571a17.133,17.133,0,0,1-7.292-1.62v-3.29a4.232,4.232,0,0,0-3.893-4.213,13.287,13.287,0,0,0-5-2.183A17.244,17.244,0,1,1,64.46,36.381Z" transform="translate(13.41)" fill="#fff"/>
      </g>
    </g>
  </g>
</svg>
