<svg xmlns="http://www.w3.org/2000/svg" width="357" height="58" viewBox="0 0 357 58"><g transform="translate(-360 -1461)"><g transform="translate(360 1461)" fill="#e9eef1" stroke="#dee2e6" stroke-width="1"><rect width="357" height="58" rx="5" stroke="none"/><rect x="0.5" y="0.5" width="356" height="57" rx="4.5" fill="none"/></g><g transform="translate(33 -90)"><path d="M132.259,2.64h1.959l-3.9,14.619H128.4l-3.144-9.637h-.083l-3.144,9.637h-1.92L116.047,2.64h1.959l3.083,11.5h.084L124.339,4.6H126.1l3.165,9.535h.084Z" transform="translate(376.692 1569.969)" fill="#5f6368"/><path d="M145.568,15a5.293,5.293,0,0,1,1.45-3.818,4.941,4.941,0,0,1,3.7-1.511,4.878,4.878,0,0,1,3.676,1.511A5.253,5.253,0,0,1,155.859,15a5.208,5.208,0,0,1-1.47,3.818,4.873,4.873,0,0,1-3.676,1.511,4.941,4.941,0,0,1-3.7-1.512A5.287,5.287,0,0,1,145.568,15m1.879,0a3.663,3.663,0,0,0,.939,2.613,3.208,3.208,0,0,0,4.655,0A3.663,3.663,0,0,0,153.981,15a3.636,3.636,0,0,0-.939-2.593,3.165,3.165,0,0,0-4.657,0A3.64,3.64,0,0,0,147.447,15" transform="translate(365.167 1567.223)" fill="#5f6368"/><path d="M166.513,20.032h-1.878v-10h1.8V11.66h.084A2.714,2.714,0,0,1,167.69,10.3a3.247,3.247,0,0,1,1.745-.561,3.522,3.522,0,0,1,1.389.245L170.25,11.8a3.12,3.12,0,0,0-1.1-.143,2.431,2.431,0,0,0-1.848.858,2.871,2.871,0,0,0-.786,2Z" transform="translate(357.722 1567.197)" fill="#5f6368"/><path d="M185.013,17.259h-2.266l-3.125-4.717-1.531,1.511v3.206h-1.879V2.64h1.879v9l4.329-4.39h2.409v.083l-3.9,3.88,4.084,5.962Z" transform="translate(353.203 1569.969)" fill="#5f6368"/><path d="M198.66,17.227a2.713,2.713,0,0,1-1.144,2.205,4.52,4.52,0,0,1-2.879.9,4.57,4.57,0,0,1-2.655-.786,4.325,4.325,0,0,1-1.633-2.072l1.674-.714a3.107,3.107,0,0,0,1.072,1.4,2.606,2.606,0,0,0,1.542.5,2.712,2.712,0,0,0,1.5-.388,1.1,1.1,0,0,0,.6-.919q0-.958-1.47-1.409l-1.715-.429q-2.92-.735-2.919-2.819a2.6,2.6,0,0,1,1.112-2.2A5.1,5.1,0,0,1,197,10.3,3.434,3.434,0,0,1,198.5,12l-1.674.694a2.11,2.11,0,0,0-.929-.991,2.916,2.916,0,0,0-1.44-.357,2.416,2.416,0,0,0-1.317.368,1.058,1.058,0,0,0-.583.9q0,.858,1.613,1.225l1.511.388q2.983.736,2.983,3" transform="translate(347.683 1567.224)" fill="#5f6368"/><path d="M211.3,20.333a4.311,4.311,0,0,1-2.011-.47,3.522,3.522,0,0,1-1.4-1.245h-.083l.083,1.389v4.41H206.01V10h1.8V11.39h.084a3.523,3.523,0,0,1,1.4-1.245,4.441,4.441,0,0,1,5.359,1.082A5.466,5.466,0,0,1,216.058,15a5.417,5.417,0,0,1-1.409,3.778,4.3,4.3,0,0,1-3.35,1.552m-.306-1.715a2.928,2.928,0,0,0,2.266-1.021A3.687,3.687,0,0,0,214.175,15a3.735,3.735,0,0,0-.917-2.593,3.049,3.049,0,0,0-4.554,0,3.781,3.781,0,0,0-.9,2.593,3.813,3.813,0,0,0,.9,2.614,2.977,2.977,0,0,0,2.287,1" transform="translate(341.569 1567.222)" fill="#5f6368"/><path d="M228.131,9.674a4.656,4.656,0,0,1,3.287,1.112,3.956,3.956,0,0,1,1.2,3.053v6.167h-1.8V18.617h-.083a3.584,3.584,0,0,1-3.1,1.715,4.034,4.034,0,0,1-2.767-.98,3.128,3.128,0,0,1-1.112-2.45,2.976,2.976,0,0,1,1.173-2.471,4.944,4.944,0,0,1,3.134-.919,5.546,5.546,0,0,1,2.756.613v-.43a2.138,2.138,0,0,0-.775-1.664,2.662,2.662,0,0,0-1.818-.684,2.878,2.878,0,0,0-2.491,1.327l-1.654-1.042a4.617,4.617,0,0,1,4.045-1.958m-2.43,7.271a1.5,1.5,0,0,0,.622,1.225,2.289,2.289,0,0,0,1.459.49,2.992,2.992,0,0,0,2.113-.878,2.75,2.75,0,0,0,.929-2.062,3.863,3.863,0,0,0-2.45-.694,3.182,3.182,0,0,0-1.909.552,1.632,1.632,0,0,0-.764,1.368" transform="translate(334.639 1567.223)" fill="#5f6368"/><path d="M245.454,20.332a4.939,4.939,0,0,1-3.7-1.511A5.376,5.376,0,0,1,240.309,15a5.292,5.292,0,0,1,1.45-3.818,4.941,4.941,0,0,1,3.7-1.511,4.579,4.579,0,0,1,4.39,2.879l-1.714.714a2.822,2.822,0,0,0-2.8-1.878,2.9,2.9,0,0,0-2.226,1.042A3.748,3.748,0,0,0,242.189,15a3.751,3.751,0,0,0,.919,2.573,2.9,2.9,0,0,0,2.226,1.042,2.942,2.942,0,0,0,2.9-1.879l1.675.714a4.482,4.482,0,0,1-1.726,2.113,4.882,4.882,0,0,1-2.727.765" transform="translate(328.177 1567.223)" fill="#5f6368"/><path d="M262.089,20.333a4.785,4.785,0,0,1-3.634-1.511A5.335,5.335,0,0,1,257.025,15a5.437,5.437,0,0,1,1.389-3.808,4.992,4.992,0,0,1,7.095-.082,5.753,5.753,0,0,1,1.316,4.033l-.021.2h-7.859a3.265,3.265,0,0,0,.98,2.368,3.165,3.165,0,0,0,5.064-.9l1.674.817a4.981,4.981,0,0,1-1.869,1.981,5.163,5.163,0,0,1-2.705.715m-3-6.534h5.736a2.5,2.5,0,0,0-.848-1.726,2.963,2.963,0,0,0-2.052-.684,2.724,2.724,0,0,0-1.827.653,3.118,3.118,0,0,0-1.009,1.756Z" transform="translate(321.651 1567.222)" fill="#5f6368"/><path d="M8.434,9.817V7.556H16a7.391,7.391,0,0,1,.123,1.386,7.466,7.466,0,0,1-1.959,5.288,7.564,7.564,0,0,1-5.771,2.321A8.39,8.39,0,0,1,0,8.276,8.39,8.39,0,0,1,8.394,0a7.883,7.883,0,0,1,5.671,2.281L12.471,3.875A5.768,5.768,0,0,0,8.394,2.26,5.935,5.935,0,0,0,2.462,8.276a5.937,5.937,0,0,0,5.932,6.017,5.536,5.536,0,0,0,4.177-1.655A4.7,4.7,0,0,0,13.8,9.818Z" transform="translate(422 1571)" fill="#4285f4"/><path d="M38.516,15A5.347,5.347,0,1,1,33.17,9.669,5.263,5.263,0,0,1,38.516,15m-2.341,0a3.014,3.014,0,1,0-6.013,0,3.014,3.014,0,1,0,6.013,0" transform="translate(411.138 1567.225)" fill="#ea4335"/><path d="M57.652,15A5.348,5.348,0,1,1,52.3,9.669,5.262,5.262,0,0,1,57.652,15m-2.341,0A3.014,3.014,0,1,0,49.3,15a3.014,3.014,0,1,0,6.013,0" transform="translate(403.667 1567.225)" fill="#fbbc04"/><path d="M76.307,9.991v9.568c0,3.936-2.321,5.551-5.065,5.551a5.078,5.078,0,0,1-4.722-3.148l2.04-.848a2.947,2.947,0,0,0,2.684,1.9c1.756,0,2.845-1.09,2.845-3.128v-.767h-.08A3.634,3.634,0,0,1,71.2,20.326a5.333,5.333,0,0,1,0-10.657,3.694,3.694,0,0,1,2.805,1.191h.08V9.991Zm-2.059,5.027a3,3,0,0,0-2.845-3.25,3.082,3.082,0,0,0-2.966,3.25A3.057,3.057,0,0,0,71.4,18.227a2.977,2.977,0,0,0,2.845-3.209" transform="translate(396.194 1567.225)" fill="#4285f4"/><rect width="2.341" height="15.611" transform="translate(474.126 1571.617)" fill="#34a853"/><path d="M99.114,16.754l1.816,1.211a5.3,5.3,0,0,1-4.44,2.361A5.214,5.214,0,0,1,91.2,15a5.065,5.065,0,0,1,5.025-5.329,4.952,4.952,0,0,1,4.561,3.391l.242.605-7.125,2.947a2.71,2.71,0,0,0,2.583,1.615,3.046,3.046,0,0,0,2.625-1.473m-5.59-1.917,4.763-1.977a2.062,2.062,0,0,0-1.978-1.13,2.919,2.919,0,0,0-2.785,3.107Z" transform="translate(386.392 1567.225)" fill="#ea4335"/><rect width="166.476" height="21.335" transform="translate(422 1571)" fill="none"/></g></g></svg>