<svg xmlns="http://www.w3.org/2000/svg" xmlns:xlink="http://www.w3.org/1999/xlink" width="357" height="58" viewBox="0 0 357 58"><defs><clipPath id="a"><rect width="167.309" height="26.21" fill="none"/></clipPath></defs><g transform="translate(-1203 -1461)"><g transform="translate(1203 1461)" fill="#e9eef1" stroke="#dee2e6" stroke-width="1"><rect width="357" height="58" rx="5" stroke="none"/><rect x="0.5" y="0.5" width="356" height="57" rx="4.5" fill="none"/></g><g transform="translate(1297.845 1476.897)"><g clip-path="url(#a)"><path d="M21.738,6.879l.992.018,2.692-2.692.132-1.141A12.116,12.116,0,0,0,5.807,8.946a1.448,1.448,0,0,1,.924-.052l5.38-.876s.28-.457.415-.429a6.723,6.723,0,0,1,9.212-.71" transform="translate(-2.002 0)" fill="#ea4335"/><path d="M35.016,10.562a12.155,12.155,0,0,0-3.658-5.895L27.539,8.486a6.728,6.728,0,0,1,2.51,5.242V14.4a3.368,3.368,0,1,1,0,6.735H23.312l-.673.678v4.043l.673.671h6.737A8.755,8.755,0,0,0,35.02,10.562Z" transform="translate(-7.805 -1.609)" fill="#4285f4"/><path d="M10.6,35.038h6.723V29.653H10.6a3.348,3.348,0,0,1-1.388-.3l-.971.3L5.553,32.341l-.239.915a8.729,8.729,0,0,0,5.29,1.781" transform="translate(-1.832 -10.118)" fill="#34a853"/><path d="M8.772,11.289a8.752,8.752,0,0,0-5.29,15.74l3.907-3.906a3.366,3.366,0,1,1,4.45-4.453l3.907-3.908a8.747,8.747,0,0,0-6.974-3.473" transform="translate(0 -3.892)" fill="#fbbc05"/><path d="M70.1,23.093a8.611,8.611,0,0,1-6.243-2.576,8.324,8.324,0,0,1-2.62-6.166,8.33,8.33,0,0,1,2.62-6.168A8.619,8.619,0,0,1,70.1,5.615a8.357,8.357,0,0,1,5.985,2.409L74.4,9.705a6.35,6.35,0,0,0-6.72-1.238,6.009,6.009,0,0,0-2.026,1.4,6.18,6.18,0,0,0-1.821,4.5,6.179,6.179,0,0,0,1.821,4.5,6.329,6.329,0,0,0,8.852.116,5.065,5.065,0,0,0,1.3-3H70.1v-2.4h8.031a7.689,7.689,0,0,1,.126,1.491,7.554,7.554,0,0,1-2.071,5.592A8.045,8.045,0,0,1,70.1,23.093m18.661-1.609a5.785,5.785,0,0,1-8.009,0,5.388,5.388,0,0,1-1.641-4.015,5.4,5.4,0,0,1,1.641-4.016,5.8,5.8,0,0,1,8.009,0,5.4,5.4,0,0,1,1.64,4.016,5.384,5.384,0,0,1-1.64,4.015m-6.241-1.576a3.064,3.064,0,0,0,4.473,0,3.372,3.372,0,0,0,.936-2.439A3.372,3.372,0,0,0,87,15.019a3.107,3.107,0,0,0-4.5,0,3.379,3.379,0,0,0-.926,2.449,3.367,3.367,0,0,0,.938,2.439m18.555,1.576a5.8,5.8,0,0,1-8.011,0,5.388,5.388,0,0,1-1.641-4.015,5.4,5.4,0,0,1,1.641-4.016,5.8,5.8,0,0,1,8.011,0,5.4,5.4,0,0,1,1.64,4.016,5.384,5.384,0,0,1-1.64,4.015m-6.243-1.576a3.066,3.066,0,0,0,4.474,0,3.365,3.365,0,0,0,.936-2.439,3.372,3.372,0,0,0-.926-2.449,3.107,3.107,0,0,0-4.494,0,3.368,3.368,0,0,0-.928,2.449,3.367,3.367,0,0,0,.938,2.439m14.336,8.235a4.957,4.957,0,0,1-3.152-1,5.816,5.816,0,0,1-1.833-2.322l2.152-.9a3.625,3.625,0,0,0,1.067,1.406,2.7,2.7,0,0,0,1.767.6,2.875,2.875,0,0,0,2.206-.854,3.452,3.452,0,0,0,.8-2.45v-.808h-.087a3.589,3.589,0,0,1-2.96,1.278,5.141,5.141,0,0,1-3.772-1.641,5.434,5.434,0,0,1-1.619-3.962,5.5,5.5,0,0,1,1.619-4,5.114,5.114,0,0,1,3.772-1.656,4.043,4.043,0,0,1,1.736.362,3.468,3.468,0,0,1,1.224.894h.087v-.915h2.343v10.1a5.876,5.876,0,0,1-1.5,4.4,5.287,5.287,0,0,1-3.846,1.46m.17-7.265a2.746,2.746,0,0,0,2.141-.969,3.5,3.5,0,0,0,.864-2.417,3.571,3.571,0,0,0-.864-2.45,2.737,2.737,0,0,0-2.141-.98,2.921,2.921,0,0,0-2.214.98,3.445,3.445,0,0,0-.915,2.45,3.379,3.379,0,0,0,.915,2.417,2.931,2.931,0,0,0,2.214.969m9.353,1.881h-2.471V6.225h2.471Zm6.766.335a5.372,5.372,0,0,1-3.983-1.619,5.477,5.477,0,0,1-1.6-4.006,5.54,5.54,0,0,1,1.545-4.047,5.066,5.066,0,0,1,3.759-1.576,4.783,4.783,0,0,1,1.9.373,4.435,4.435,0,0,1,1.45.959,6.579,6.579,0,0,1,.915,1.139,6.735,6.735,0,0,1,.571,1.108l.255.64-7.52,3.107a2.874,2.874,0,0,0,2.728,1.7,3.23,3.23,0,0,0,2.769-1.556l1.918,1.278a6.232,6.232,0,0,1-1.81,1.727,5.158,5.158,0,0,1-2.9.768m-3.131-5.8,5.027-2.088a1.74,1.74,0,0,0-.788-.864,2.572,2.572,0,0,0-1.3-.33,2.924,2.924,0,0,0-2.033.9,2.975,2.975,0,0,0-.9,2.39Z" transform="translate(-21.11 -1.935)" fill="#5f6368"/><path d="M182.2,23.91a7.787,7.787,0,0,1-7.925-7.961A7.784,7.784,0,0,1,182.2,7.983a7.069,7.069,0,0,1,5.605,2.485l-1.365,1.322a5.142,5.142,0,0,0-4.24-1.939,5.773,5.773,0,0,0-4.206,1.684,5.9,5.9,0,0,0-1.713,4.414A5.887,5.887,0,0,0,178,20.358a5.774,5.774,0,0,0,4.207,1.684,6.012,6.012,0,0,0,4.687-2.216l1.365,1.363a7.426,7.426,0,0,1-2.622,1.992,7.992,7.992,0,0,1-3.43.729" transform="translate(-60.083 -2.752)" fill="#5f6368"/><rect width="1.96" height="15.252" transform="translate(129.918 5.564)" fill="#5f6368"/><path d="M205.346,16.906a5.481,5.481,0,0,1,7.713,0,5.529,5.529,0,0,1,1.512,3.972,5.536,5.536,0,0,1-1.512,3.975,5.481,5.481,0,0,1-7.713,0,5.534,5.534,0,0,1-1.512-3.975,5.527,5.527,0,0,1,1.512-3.972m1.45,6.71a3.3,3.3,0,0,0,4.792,0,3.748,3.748,0,0,0,1.013-2.738,3.745,3.745,0,0,0-1.013-2.738,3.3,3.3,0,0,0-4.792,0,3.748,3.748,0,0,0-1.013,2.738,3.728,3.728,0,0,0,1.023,2.738Z" transform="translate(-70.272 -5.282)" fill="#5f6368"/><path d="M231.9,26.276h-1.877v-1.45h-.085a3.635,3.635,0,0,1-1.363,1.268,3.853,3.853,0,0,1-1.939.522,3.678,3.678,0,0,1-2.972-1.193,4.779,4.779,0,0,1-1.011-3.2v-6.39h1.959V21.91q0,2.916,2.576,2.918a2.407,2.407,0,0,0,1.982-.98,3.564,3.564,0,0,0,.767-2.26V15.837H231.9Z" transform="translate(-76.761 -5.46)" fill="#5f6368"/><path d="M244.3,24.086a4.59,4.59,0,0,1-3.494-1.6,5.646,5.646,0,0,1-1.47-3.962,5.634,5.634,0,0,1,1.47-3.962,4.588,4.588,0,0,1,3.494-1.6,4.463,4.463,0,0,1,2.142.51,3.636,3.636,0,0,1,1.417,1.28h.085l-.085-1.449V8.492h1.961V23.744h-1.864V22.294h-.085a3.626,3.626,0,0,1-1.417,1.278,4.436,4.436,0,0,1-2.154.514m.319-1.789a3.126,3.126,0,0,0,2.355-1.024,3.832,3.832,0,0,0,.969-2.748,3.832,3.832,0,0,0-.969-2.748,3.2,3.2,0,0,0-4.7.01,3.813,3.813,0,0,0-.98,2.738,3.835,3.835,0,0,0,.98,2.738,3.108,3.108,0,0,0,2.343,1.033" transform="translate(-82.511 -2.928)" fill="#5f6368"/></g></g></g></svg>