<svg xmlns="http://www.w3.org/2000/svg" xmlns:xlink="http://www.w3.org/1999/xlink" width="140" height="140" viewBox="0 0 140 140"><defs><clipPath id="a"><rect width="98" height="98" transform="translate(-0.033 -0.033)" fill="#fff"/></clipPath></defs><g transform="translate(-654 -677)"><rect width="140" height="140" rx="5" transform="translate(654 677)" fill="#71005d"/><g transform="translate(674.692 697.691)"><g transform="translate(0.341 0.342)" clip-path="url(#a)"><path d="M24.629,19.419A1.025,1.025,0,0,1,23.6,18.395V15.281a1.024,1.024,0,0,1,2.048,0v3.114a1.025,1.025,0,0,1-1.024,1.024" transform="translate(14.854 8.839)" fill="#fff"/><path d="M28.42,19.419A1.025,1.025,0,0,1,27.4,18.395V15.281a1.024,1.024,0,0,1,2.048,0v3.114a1.025,1.025,0,0,1-1.024,1.024" transform="translate(17.293 8.839)" fill="#fff"/><path d="M32.211,19.419a1.025,1.025,0,0,1-1.024-1.024V15.281a1.024,1.024,0,1,1,2.048,0v3.114a1.024,1.024,0,0,1-1.024,1.024" transform="translate(19.732 8.839)" fill="#fff"/><path d="M36,19.419a1.025,1.025,0,0,1-1.024-1.024V15.281a1.024,1.024,0,1,1,2.048,0v3.114A1.025,1.025,0,0,1,36,19.419" transform="translate(22.169 8.839)" fill="#fff"/><path d="M24.629,25.1A1.025,1.025,0,0,1,23.6,24.081V20.967a1.024,1.024,0,0,1,2.048,0v3.114A1.025,1.025,0,0,1,24.629,25.1" transform="translate(14.854 12.497)" fill="#fff"/><path d="M28.42,25.1A1.025,1.025,0,0,1,27.4,24.081V20.967a1.024,1.024,0,0,1,2.048,0v3.114A1.025,1.025,0,0,1,28.42,25.1" transform="translate(17.293 12.497)" fill="#fff"/><path d="M32.211,25.1a1.025,1.025,0,0,1-1.024-1.024V20.967a1.024,1.024,0,0,1,2.048,0v3.114A1.024,1.024,0,0,1,32.211,25.1" transform="translate(19.732 12.497)" fill="#fff"/><path d="M36,25.1a1.025,1.025,0,0,1-1.024-1.024V20.967a1.024,1.024,0,0,1,2.048,0v3.114A1.025,1.025,0,0,1,36,25.1" transform="translate(22.169 12.497)" fill="#fff"/><path d="M24.629,30.791A1.025,1.025,0,0,1,23.6,29.767V26.653a1.024,1.024,0,0,1,2.048,0v3.114a1.025,1.025,0,0,1-1.024,1.024" transform="translate(14.854 16.155)" fill="#fff"/><path d="M28.42,30.791A1.025,1.025,0,0,1,27.4,29.767V26.653a1.024,1.024,0,0,1,2.048,0v3.114a1.025,1.025,0,0,1-1.024,1.024" transform="translate(17.293 16.155)" fill="#fff"/><path d="M32.211,30.791a1.025,1.025,0,0,1-1.024-1.024V26.653a1.024,1.024,0,1,1,2.048,0v3.114a1.024,1.024,0,0,1-1.024,1.024" transform="translate(19.732 16.155)" fill="#fff"/><path d="M36,30.791a1.025,1.025,0,0,1-1.024-1.024V26.653a1.024,1.024,0,1,1,2.048,0v3.114A1.025,1.025,0,0,1,36,30.791" transform="translate(22.169 16.155)" fill="#fff"/><path d="M24.629,36.477A1.025,1.025,0,0,1,23.6,35.453V32.339a1.024,1.024,0,0,1,2.048,0v3.114a1.025,1.025,0,0,1-1.024,1.024" transform="translate(14.854 19.813)" fill="#fff"/><path d="M28.42,36.477A1.025,1.025,0,0,1,27.4,35.453V32.339a1.024,1.024,0,0,1,2.048,0v3.114a1.025,1.025,0,0,1-1.024,1.024" transform="translate(17.293 19.813)" fill="#fff"/><path d="M32.211,36.477a1.025,1.025,0,0,1-1.024-1.024V32.339a1.024,1.024,0,0,1,2.048,0v3.114a1.024,1.024,0,0,1-1.024,1.024" transform="translate(19.732 19.813)" fill="#fff"/><path d="M36,36.477a1.025,1.025,0,0,1-1.024-1.024V32.339a1.024,1.024,0,0,1,2.048,0v3.114A1.025,1.025,0,0,1,36,36.477" transform="translate(22.169 19.813)" fill="#fff"/><path d="M24.629,42.162A1.025,1.025,0,0,1,23.6,41.138V38.024a1.024,1.024,0,1,1,2.048,0v3.114a1.025,1.025,0,0,1-1.024,1.024" transform="translate(14.854 23.471)" fill="#fff"/><path d="M28.42,42.162A1.025,1.025,0,0,1,27.4,41.138V38.024a1.024,1.024,0,1,1,2.048,0v3.114a1.025,1.025,0,0,1-1.024,1.024" transform="translate(17.293 23.471)" fill="#fff"/><path d="M32.211,42.162a1.025,1.025,0,0,1-1.024-1.024V38.024a1.024,1.024,0,1,1,2.048,0v3.114a1.024,1.024,0,0,1-1.024,1.024" transform="translate(19.732 23.471)" fill="#fff"/><path d="M36,42.162a1.025,1.025,0,0,1-1.024-1.024V38.024a1.024,1.024,0,1,1,2.048,0v3.114A1.025,1.025,0,0,1,36,42.162" transform="translate(22.169 23.471)" fill="#fff"/><path d="M24.629,47.848A1.025,1.025,0,0,1,23.6,46.824V43.71a1.024,1.024,0,0,1,2.048,0v3.114a1.025,1.025,0,0,1-1.024,1.024" transform="translate(14.854 27.129)" fill="#fff"/><path d="M28.42,47.848A1.025,1.025,0,0,1,27.4,46.824V43.71a1.024,1.024,0,0,1,2.048,0v3.114a1.025,1.025,0,0,1-1.024,1.024" transform="translate(17.293 27.129)" fill="#fff"/><path d="M32.211,47.848a1.025,1.025,0,0,1-1.024-1.024V43.71a1.024,1.024,0,0,1,2.048,0v3.114a1.024,1.024,0,0,1-1.024,1.024" transform="translate(19.732 27.129)" fill="#fff"/><path d="M36,47.848a1.025,1.025,0,0,1-1.024-1.024V43.71a1.024,1.024,0,0,1,2.048,0v3.114A1.025,1.025,0,0,1,36,47.848" transform="translate(22.169 27.129)" fill="#fff"/><path d="M30.315,57.188a1.025,1.025,0,0,1-1.024-1.024V54.608a1.024,1.024,0,1,1,2.048,0v1.556a1.025,1.025,0,0,1-1.024,1.024" transform="translate(18.512 34.14)" fill="#fff"/><path d="M1.024,98.6a1.024,1.024,0,1,1,0-2.048H10.9V92.613l-.322-.14c-2.135-.924-3.571-3.878-3.571-7.354,0-4.286,2.161-7.642,4.919-7.642s4.915,3.356,4.915,7.642c0,3.476-1.435,6.432-3.571,7.354l-.322.14v3.941H21.8V58.682l-8.075,5.191V73.51a7.27,7.27,0,0,0-1.77-.217c-.092,0-.184,0-.278,0V63.315a1.017,1.017,0,0,1,.47-.859L21.8,56.25V36.985a1.016,1.016,0,0,1,.385-.8l6.333-5.062v2.621l-4.672,3.732V96.553H32.7V16.6a1.026,1.026,0,0,1,1.024-1.024h8.32V9.589a1.026,1.026,0,0,1,1.024-1.024h8.32V1.024a1.024,1.024,0,1,1,2.048,0V8.565h4.182V5.7a1.023,1.023,0,1,1,2.046,0V8.565h2.092a1.026,1.026,0,0,1,1.024,1.024v5.983h2.09A1.025,1.025,0,0,1,65.9,16.6V96.553h8.854V48.076l-4.672-3.6V41.9l6.32,4.866a1.018,1.018,0,0,1,.4.812V58.865l10.432,6.7a1.019,1.019,0,0,1,.47.861v6.935a7.284,7.284,0,0,0-2.048,0V66.99L76.8,61.3V96.553h8.854V92.613l-.322-.14c-2.136-.924-3.571-3.878-3.571-7.354,0-4.286,2.161-7.642,4.917-7.642s4.917,3.356,4.917,7.642c0,3.476-1.435,6.432-3.571,7.356l-.322.138v3.942h9.878a1.023,1.023,0,0,1,0,2.046ZM58.645,77.867a1.025,1.025,0,0,1,1.024,1.022V96.553h4.182V17.62H34.75V96.553h4.182V78.889a1.025,1.025,0,0,1,1.024-1.022ZM40.98,96.553H57.621V79.913H40.98Zm45.7-11.679A1.025,1.025,0,0,1,87.7,85.9v2.845l1.016.228a8.6,8.6,0,0,0,.83-3.864c0-3.287-1.512-5.584-2.869-5.584s-2.869,2.3-2.869,5.6a8.6,8.6,0,0,0,.83,3.852l1.016-.23V85.9a1.025,1.025,0,0,1,1.024-1.024m-74.751,0A1.025,1.025,0,0,1,12.948,85.9v2.845l1.016.228a8.6,8.6,0,0,0,.832-3.864c0-3.287-1.514-5.584-2.869-5.584s-2.871,2.3-2.871,5.6a8.6,8.6,0,0,0,.83,3.852l1.016-.23V85.9a1.025,1.025,0,0,1,1.024-1.024M44.094,14.8H60.735V10.613H44.094Z" transform="translate(-0.333 -0.333)" fill="#fff"/></g></g></g></svg>