<svg xmlns="http://www.w3.org/2000/svg" xmlns:xlink="http://www.w3.org/1999/xlink" width="140" height="140" viewBox="0 0 140 140">
  <defs>
    <clipPath id="clip-path">
      <rect id="Rectangle_159" data-name="Rectangle 159" width="87.872" height="90.335" fill="#fff"/>
    </clipPath>
  </defs>
  <g id="Group_1066" data-name="Group 1066" transform="translate(-890 -677)">
    <rect id="Rectangle_157" data-name="Rectangle 157" width="140" height="140" rx="5" transform="translate(890 677)" fill="#71005d"/>
    <g id="Group_97" data-name="Group 97" transform="translate(916.064 701.833)">
      <g id="Group_96" data-name="Group 96" clip-path="url(#clip-path)">
        <path id="Path_1732" data-name="Path 1732" d="M87.181,32.786a1.254,1.254,0,0,0-1.331.151L81.6,36.4,80.543,14.476l-.378-8.082A1.255,1.255,0,0,0,78.911,5.2H73.075a1.256,1.256,0,0,0-1.256,1.192L69.925,45.925l-10.48,8.547V33.916a1.255,1.255,0,0,0-2.045-.98L31.047,54.472V33.891A1.251,1.251,0,0,0,29,32.912L.452,56.142A1.26,1.26,0,0,0,0,57.108V86.449A1.254,1.254,0,0,0,1.256,87.7H86.616a1.254,1.254,0,0,0,1.256-1.256V33.892a1.257,1.257,0,0,0-.69-1.105Zm-9.487-25.1.263,5.535H74.066l.263-5.533Zm-3.765,8.044,4.154,0L79.161,38.4l-6.613,5.4Zm-38.1,58.644H52V85.192H35.827ZM85.321,85.192H54.513V73.119a1.254,1.254,0,0,0-1.256-1.254H34.571a1.255,1.255,0,0,0-1.256,1.254V85.191l-30.785,0V57.733l25.9-21.184V57.107a1.26,1.26,0,0,0,2.045.979L56.834,36.55V57.105a1.319,1.319,0,0,0,2.17.979L85.359,36.563Z" transform="translate(0 2.63)" fill="#fff"/>
        <path id="Path_1733" data-name="Path 1733" d="M11.6,49.563H6.389a1.256,1.256,0,0,0-1.256,1.256V56a1.254,1.254,0,0,0,1.256,1.256H11.6A1.257,1.257,0,0,0,12.852,56V50.819A1.259,1.259,0,0,0,11.6,49.563m-1.256,5.184h-2.7V52.073h2.7Z" transform="translate(2.595 25.058)" fill="#fff"/>
        <path id="Path_1734" data-name="Path 1734" d="M20.136,49.563h-5.2a1.255,1.255,0,0,0-1.254,1.256V56a1.257,1.257,0,0,0,1.254,1.256h5.2A1.257,1.257,0,0,0,21.39,56V50.819a1.254,1.254,0,0,0-1.254-1.256M18.88,54.747H16.194V52.073H18.88Z" transform="translate(6.919 25.058)" fill="#fff"/>
        <path id="Path_1735" data-name="Path 1735" d="M49.408,57.256h5.2A1.254,1.254,0,0,0,55.859,56V50.818A1.254,1.254,0,0,0,54.6,49.562h-5.2a1.256,1.256,0,0,0-1.256,1.256V56a1.257,1.257,0,0,0,1.256,1.256m1.256-5.184h2.686v2.674H50.663Z" transform="translate(24.345 25.058)" fill="#fff"/>
        <path id="Path_1736" data-name="Path 1736" d="M40.865,57.256h5.2A1.257,1.257,0,0,0,47.315,56V50.818a1.254,1.254,0,0,0-1.254-1.256h-5.2a1.256,1.256,0,0,0-1.256,1.256V56a1.259,1.259,0,0,0,1.256,1.256m1.256-5.184h2.686v2.674H42.119Z" transform="translate(20.026 25.058)" fill="#fff"/>
        <path id="Path_1737" data-name="Path 1737" d="M57.841,5.021A4.157,4.157,0,0,1,54.6,3.363c-.565-.614-.816-.854-1.4-.854s-.842.238-1.406.854a4.014,4.014,0,0,1-6.5,0c-.553-.614-.816-.854-1.406-.854s-.842.238-1.406.854h0a4.016,4.016,0,0,1-6.5,0c-.565-.614-.816-.854-1.4-.854V0a4.115,4.115,0,0,1,3.187,1.656c.577.6.828.854,1.417.854s.842-.251,1.406-.854a4.016,4.016,0,0,1,6.5,0c.565.6.816.854,1.406.854s.84-.251,1.4-.854a4.014,4.014,0,0,1,6.5,0c.553.6.8.854,1.393.854Z" transform="translate(17.481)" fill="#fff"/>
      </g>
    </g>
  </g>
</svg>
