<svg xmlns="http://www.w3.org/2000/svg" width="244.582" height="110.327" viewBox="0 0 244.582 110.327"><g transform="translate(-0.113 -0.946)"><path d="M198.954,16.038V14.354h1.439c.576,0,1.425,0,1.425.791,0,.748-.46.907-1.123.893Zm2.4.892c1.05-.071,1.613-.518,1.613-1.613a1.7,1.7,0,0,0-.69-1.54,3.414,3.414,0,0,0-1.614-.273h-2.879v5.929h1.166v-2.5h1.166l1.324,2.5H202.8Zm-1.295,3.987a4.454,4.454,0,1,1,1.712-.338A4.468,4.468,0,0,1,200.063,20.917Zm0,1.036a5.518,5.518,0,1,0-3.9-1.616A5.5,5.5,0,0,0,200.063,21.953Z" fill="#231f20" fill-rule="evenodd"/><path d="M84.311,108.318c2.188.054,3.424.054,5.611,0a35.327,35.327,0,0,0,5.821-.288c3.226-.538,5.279-.812,7.929-2.729a11.683,11.683,0,0,0,3.059-3,10.8,10.8,0,0,0,2.142-4.793,9.344,9.344,0,0,0,.178-3.7,10.272,10.272,0,0,0-1.632-4.164,13,13,0,0,0-1.736-2.432c.229-.107.357-.169.581-.287.363-.192.9-.538.9-.538-.293-.793-.623-1.627-.981-2.619q-.125-.347-.243-.668a10.458,10.458,0,0,1-1.1,1.644,2.859,2.859,0,0,1-1.593.484c-.909-.2-1.423-.3-2.339-.471l-.273-.05c.591.339,1.018.56,1.425.81a8.443,8.443,0,0,1,1.475,1.139,9.063,9.063,0,0,1,2.62,4.131,9.427,9.427,0,0,1,.385,4.845,11.312,11.312,0,0,1-5.578,8.184,15.645,15.645,0,0,1-1.779.813c-.58.229-1.2.45-1.879.695a16.767,16.767,0,0,1-3.975.945c-1.168.131-2.358.151-3.847.2a30.16,30.16,0,0,1-7.06-.454Z" fill="#231f20" fill-rule="evenodd"/><path d="M125.834,94.45c-.186-.689-.4-1.339-.671-2.062-.784.145-1.48.312-2.435.576-.911.253-1.554.454-2.268.718.215,1.8.418,3.119.783,5.168.408,2.294.678,3.582,1.225,5.847a1.622,1.622,0,0,1-1.579,2.094,41.922,41.922,0,0,1-5.834-.1c-1.46-.114-2.383-.216-3.66-.422l1.093,1.667c1.439.258,2.258.376,3.71.541,1.655.187,2.6.211,4.258.323a4.774,4.774,0,0,0,1.734.111,2.921,2.921,0,0,0,1.189-.645,3,3,0,0,0,1.113-1.309c.387-.9-.044-1.536-.107-2.516-.148-2.178-.371-3.4-.672-5.558-.2-1.406-.316-2.2-.544-3.6Z" fill="#231f20" fill-rule="evenodd"/><path d="M118.6,71.143a5.619,5.619,0,0,0-2.577-1.465c.581,2.537.861,3.975,1.35,6.532.332,1.744.545,2.932.783,4.388l2.19-.254Z" fill="#231f20" fill-rule="evenodd"/><path d="M156.454,74.163c-.586-.139-.849.525-1.122,1.063a3.18,3.18,0,0,0-.178,1.613c-.01.481-.167.807.059,1.233.177.333.341.594.714.654.474.075.72-.326,1-.714.4-.546.265-1.033.289-1.708a2.772,2.772,0,0,0-.06-1.139C157.008,74.713,156.919,74.273,156.454,74.163Z" fill="#231f20" fill-rule="evenodd"/><path d="M164.653,111.273a6.742,6.742,0,0,0,1.548-.822,3.354,3.354,0,0,0,1.241-1.054,4,4,0,0,0,.365-1.19,20.659,20.659,0,0,0,.549-2.46l1.367-5.435a20.207,20.207,0,0,0,5.979-.331,21,21,0,0,0,3.705-1,16.117,16.117,0,0,0,5.074-2.456,13.042,13.042,0,0,0,4.334-5.166,11.333,11.333,0,0,0,1.649-5.95,8.33,8.33,0,0,0-1.369-5.345,12.871,12.871,0,0,0-3.447-2.866,9.574,9.574,0,0,1,1.743,4.077,10.928,10.928,0,0,1-.136,5.854,11.129,11.129,0,0,1-2.6,5.105,10.378,10.378,0,0,1-2.335,2.051,28.059,28.059,0,0,1-2.484,1.348,17.75,17.75,0,0,1-4.326,1.576c-1.306.291-2.654.445-4.334.652a29.616,29.616,0,0,1-3.324.258l-2.658,9.959c-.355,1.33-2.651.968-2.635.936Z" fill="#231f20" fill-rule="evenodd"/><path d="M159.025,95.966c.318-1.171.881-2.48,1.242-3.882a15.9,15.9,0,0,1-8.448,4.239c-2.822.584-4.922.849-7.962-.152a13.875,13.875,0,0,1-3.794-1.84l.067.819c.215,2.635.353,4.117.627,6.743a1.744,1.744,0,0,1-1.516,1.864c-1.989.2-3.113.362-5.084.715-2,.358-3.125.6-5.1,1.115,0,0,.935,2.226,2.2,2.438,1.632-.274,2.55-.454,4.163-.822,1.273-.289,1.975-.517,3.246-.815,1.307-.307,2.823-.369,3.366-.731s.591-1,.824-1.7a6.084,6.084,0,0,0,.365-2.184,12.721,12.721,0,0,0-.269-1.971c-.119-.924-.179-1.446-.276-2.372a10.139,10.139,0,0,0,2.97,1.09,12.643,12.643,0,0,0,3.979.187,18.231,18.231,0,0,0,3.979-.638A36.658,36.658,0,0,0,159.025,95.966Z" fill="#231f20" fill-rule="evenodd"/><path d="M170.955,81.217a1.686,1.686,0,0,1,1.306,1.165,1.511,1.511,0,0,1,.077.952,1.458,1.458,0,0,1-.833,1.1,1.391,1.391,0,0,1-1.028.136l.273-1.506Z" fill="#231f20" fill-rule="evenodd"/><path d="M22.668,40.176l-.584-2.787a48.4,48.4,0,0,0-6.264.732,49.264,49.264,0,0,0-10.9,2.987,9.42,9.42,0,0,0,3.344,2.585,32.539,32.539,0,0,1,3.164-1.379,23.555,23.555,0,0,1,4.2-1.335,38.509,38.509,0,0,1,4.054-.45C20.846,40.395,22.668,40.176,22.668,40.176Z" fill="#231f20" fill-rule="evenodd"/><path d="M73.418,40.324a4.912,4.912,0,0,1,.376-2.133c.34-.678.541-1.344,1.291-1.452a1.646,1.646,0,0,1,1.462.645c.727.715.43,1.555.459,2.575a4.789,4.789,0,0,1-.366,2.753c-.369.7-.609,1.276-1.368,1.488a1.492,1.492,0,0,1-1.479-.188c-.541-.437-.3-1.051-.376-1.742A8.732,8.732,0,0,1,73.418,40.324Z" fill="#231f20" fill-rule="evenodd"/><path d="M43.969,51.166,41.254,36.479c2.474-.236,3.864-.4,6.323-.743.932-.13,2.389-.353,2.389-.353.609-.814,1.246-1.566,2.071-2.486.215-.242.179-.5.38-.712-2.458.394-4.537.707-7.539,1.145-2.8.409-4.713.678-7.044.986l7.319,33.316A2.664,2.664,0,0,1,43.3,70.645l-11.047,2.72,3.161,2.825L40.8,75c1.775-.46,2.943-.3,4.648-1.037a5.452,5.452,0,0,0,1.936-1.045,3.686,3.686,0,0,0,1.079-1.674,6.082,6.082,0,0,0,0-2.821A19.61,19.61,0,0,0,48.142,66c-3.142-3.142-3.834-6.21-4.33-10.043a16.872,16.872,0,0,1,.082-5.162S43.943,51.021,43.969,51.166Z" fill="#231f20" fill-rule="evenodd"/><path d="M57.693,27.847A24.156,24.156,0,0,1,60.8,25.984c-.558-2.363-.867-3.7-1.405-6.063-.613-2.7-.947-4.223-1.538-6.927-.793-3.627-1.232-5.675-1.993-9.31L51.77,2c.891,5.118,1.69,8.588,2.866,13.865C55.658,20.453,56.553,23.567,57.693,27.847Z" fill="#231f20" fill-rule="evenodd"/><path d="M110.615,11.668c.278,3.5.4,5.479.557,8.984.085,1.838.146,3.35.189,4.8l2-2.278c.538-.615,1.034-1.176,1.5-1.7L115,14.987Z" fill="#231f20" fill-rule="evenodd"/><path d="M51.773,68.588a16.419,16.419,0,0,0,5.66,3.4,17.857,17.857,0,0,0,7.181,1.258,25.186,25.186,0,0,0,7.767-1.258,29.06,29.06,0,0,0,8.447-3.254,22.89,22.89,0,0,0,7.912-6.765,21.876,21.876,0,0,0,3.671-6.926,29.178,29.178,0,0,0,1.4-6.475c.3-2.066.472-5.33.472-5.33-1.434-2.393-2.877-4.294-4.554-6.973a24.409,24.409,0,0,1,.488,8.274A25.366,25.366,0,0,1,87.327,55.6,24.707,24.707,0,0,1,76.963,66.722a24.875,24.875,0,0,1-9.99,3.8,21.586,21.586,0,0,1-9.831-.029,21.079,21.079,0,0,1-5.817-2.006Z" fill="#231f20" fill-rule="evenodd"/><path d="M226.929,19.742c.828,2.05,1.283,3.2,2.117,5.249l1.86,4.544a3.6,3.6,0,0,1-.55,2.761L216.115,46.64c1.835-.2,3.7-.433,6.038-.741l1.765-.238s2.883-2.979,4.668-4.936c1.849-2.027,2.87-3.191,4.64-5.286a4.514,4.514,0,0,0,.484-5.448l-3.588-8.781Z" fill="#231f20" fill-rule="evenodd"/><path d="M198.5,84.471c4.59-1.679,7.214-2.54,11.906-3.907,4.26-1.241,6.664-1.97,11.013-2.847,4.936-1,7.791-1.175,12.79-1.775,3.183-.383,4.981-.577,8.173-.886l2.309-3.73-2.131-23.1-4.2-2.618a2.707,2.707,0,0,1,.072.49c.343,4.5.558,7.044.979,11.539.446,4.768.723,7.455,1.258,12.213a2.483,2.483,0,0,1-2.573,2.832,66.69,66.69,0,0,0-10.512.544,88.5,88.5,0,0,0-9.774,1.809c-4.494.983-7.014,1.626-11.416,2.962-4.479,1.359-6.98,2.233-11.33,3.959a2.622,2.622,0,0,1-1.092.187Z" fill="#231f20" fill-rule="evenodd"/><path d="M178.541,35.428l-.907-4.551-.081.556L165.246,38.3l4.965.677,1.762.243Z" fill="#231f20" fill-rule="evenodd"/><path d="M182.01,14.992c.249,2.181.382,2.7.672,4.871.329,2.457.53,3.841.911,6.292.03.195-.033.69.134.914,1.123-.248,1.634-.438,2.665-.665l-.221-9.1Z" fill="#231f20" fill-rule="evenodd"/><path d="M96.143,66.174l7.242,4.307,6.266-.161,4.471-12.857,17.091-15.117.143-3.079a5.219,5.219,0,0,1,1.055-1.941l16.741-12.073-4.272-.33c.771,1.11.344,2.532-1.311,3.436-2.24,1.225-3.483,1.955-5.646,3.313a86.271,86.271,0,0,0-10.047,7.144c-3.5,2.846-5.162,4.8-8.508,7.826-3.28,2.964-5.216,4.687-8.4,7.474l-4.3,13a2.528,2.528,0,0,1-3.4,1.552c-2.211-.922-3.456-1.448-5.658-2.39l-1.409-.6Z" fill="#231f20" fill-rule="evenodd"/><path d="M143.393,68.038a87.806,87.806,0,0,1,10.964-.161c3.956.254,10.069,1.394,10.069,1.394a13.5,13.5,0,0,1,.641,1.559c.178.5.347,1.035.538,1.613.072.223.141.44.2.653l-.016-.61c.853-.012,1.589-.014,2.288,0l-.868-2.492c2.85.308,4.46.487,7.309.814,2.914.334,4.558.528,7.47.881l1.143-.879,1.306-1.306.979-3.654.575-4.248-1.439-4.345A4.433,4.433,0,0,1,185,54.85l3.065-3.76,1.331-4.428-1.469-2.449a23.8,23.8,0,0,1,3.263-.983c1.463-.345,3.8-.622,3.8-.622l3.122-3.839L183.4,40.882a2.472,2.472,0,0,1,2.09,2.939c-.752,3.958-1.175,6.191-1.916,10.151-.968,5.168-1.508,8.084-2.456,13.255a2.544,2.544,0,0,1-3.125,2.013c-3.714-.929-5.828-1.391-9.591-2.1a95.059,95.059,0,0,0-10.609-1.649,104.283,104.283,0,0,0-10.8-.269c-5-.006-8.044-.144-12.714.126a2.08,2.08,0,0,1,.491,1.016c.677,3.128,1.066,4.893,1.771,8.012l.571,2.516c.289-.576.615-1.178.992-1.837.323-.561.606-1.059.9-1.529l-1.495-5.15C139.8,68.211,141.1,68.135,143.393,68.038Z" fill="#231f20" fill-rule="evenodd"/><path d="M105.972,79.478a10,10,0,0,1-2.359,4.1c-.932-.2-1.459-.311-2.4-.484-1.3-.237-2.032-.357-3.34-.527-.688-.089-1.1-.389-1.767-.2-.46.127-.871.18-1.054.62-.224.541.19.982.637,1.36,1.351,1.143,2.62.991,4.164,1.878a10.7,10.7,0,0,1,2.508,1.667,7.4,7.4,0,0,1,2.184,3.442,7.756,7.756,0,0,1,.314,4.071,8.53,8.53,0,0,1-1.98,4.58c-1.721,2.225-3.51,2.8-6.152,3.756-2.7.98-4.426.95-7.3,1.046a29.2,29.2,0,0,1-8.235-.734,35.174,35.174,0,0,0,6.568-10.217,3.44,3.44,0,0,0,1.452,1.248,2.734,2.734,0,0,0,2.61.323,2.107,2.107,0,0,0,1.258-1.462c.346-1.273-.914-1.912-1.878-2.813-1.568-1.466-2.869-2.019-4.377-3.657-1.423-1.544-2.412-2.405-3.136-4.377a8.12,8.12,0,0,1-.518-4.9c.4-2.113.946-3.573,2.711-4.8a7.338,7.338,0,0,1,3.544-1.139c2.586-.424,4.1.24,6.68.723,1.977.37,3.053.761,5.005,1.249,2.439.61,3.814.954,6.252,1.567Z" fill="#ed1c24" fill-rule="evenodd"/><path d="M105.972,79.478a10,10,0,0,1-2.359,4.1c-.932-.2-1.459-.311-2.4-.484-1.3-.237-2.032-.357-3.34-.527-.688-.089-1.1-.389-1.767-.2-.46.127-.871.18-1.054.62-.224.541.19.982.637,1.36,1.351,1.143,2.62.991,4.164,1.878a10.7,10.7,0,0,1,2.508,1.667,7.4,7.4,0,0,1,2.184,3.442,7.756,7.756,0,0,1,.314,4.071,8.53,8.53,0,0,1-1.98,4.58c-1.721,2.225-3.51,2.8-6.152,3.756-2.7.98-4.426.95-7.3,1.046a29.2,29.2,0,0,1-8.235-.734,35.174,35.174,0,0,0,6.568-10.217,3.44,3.44,0,0,0,1.452,1.248,2.734,2.734,0,0,0,2.61.323,2.107,2.107,0,0,0,1.258-1.462c.346-1.273-.914-1.912-1.878-2.813-1.568-1.466-2.869-2.019-4.377-3.657-1.423-1.544-2.412-2.405-3.136-4.377a8.12,8.12,0,0,1-.518-4.9c.4-2.113.946-3.573,2.711-4.8a7.338,7.338,0,0,1,3.544-1.139c2.586-.424,4.1.24,6.68.723,1.977.37,3.053.761,5.005,1.249,2.439.61,3.814.954,6.252,1.567Z" fill="none" stroke="#231f20" stroke-miterlimit="3.864" stroke-width="1.584"/><path d="M103.4,72.144c1.747-.3,2.734-.46,4.485-.733,1.341-.21,2.115-.232,3.442-.519a23.5,23.5,0,0,0,3.021-.836c.574,2.513.873,3.938,1.356,6.471.447,2.35.677,3.68,1.045,6.045,1.381-.249,2.161-.386,3.543-.623,1.463-.251,2.289-.389,3.753-.628a43.407,43.407,0,0,0-2.187-12.932,12.723,12.723,0,0,0,2.922.523,11.281,11.281,0,0,0,4.8-.417,10.077,10.077,0,0,0,3.538-1.774c.678,3.134,1.068,4.9,1.775,8.028.717,3.173,1.129,4.964,1.876,8.133a23.884,23.884,0,0,1,2.815-6.986,18.93,18.93,0,0,1,2.923-4.173,16.052,16.052,0,0,1,7.088-4.691,15.634,15.634,0,0,1,7.091-1.15,6.347,6.347,0,0,1,4.28,1.778c1.859,1.493,2.282,3.046,3.024,5.312a14.208,14.208,0,0,1,.621,6.883,15.1,15.1,0,0,1-4.173,9.594,14.605,14.605,0,0,1-8.965,5.21c-2.707.56-4.464.762-7.088-.1a10.539,10.539,0,0,1-6.365-5c.142,2.238.233,3.5.416,5.735.215,2.647.356,4.141.631,6.78-2.044.209-3.191.37-5.211.732-2.052.368-3.2.62-5.221,1.143a33.352,33.352,0,0,0-2.4-13.453,32.435,32.435,0,0,0-7.614,2.089c.285,2.572.493,4.02.946,6.567.416,2.334.69,3.643,1.247,5.948a47.358,47.358,0,0,1-9.906-.63,41.5,41.5,0,0,0,.1-7.5,36.881,36.881,0,0,0-.832-6.365,50.116,50.116,0,0,0-2.4-7.4c-.9-2.506-1.514-3.882-2.5-6.356C104.557,75.008,104.141,73.975,103.4,72.144Zm55.01,1.574a5.636,5.636,0,0,1,.359.911,3.377,3.377,0,0,1,.175,1.106c0,.192-.021.388-.03.63-.012.361.013.671-.008.964a3.158,3.158,0,0,1-.606,1.685,5.039,5.039,0,0,1-.67.8,2.353,2.353,0,0,1-1.971.592,2.428,2.428,0,0,1-1.388-.726,3.589,3.589,0,0,1-.557-.807,2.74,2.74,0,0,1-.313-1.5c.011-.173.054-.352.054-.566.006-.323-.021-.589-.014-.846a3.446,3.446,0,0,1,.376-1.506c.073-.144.146-.3.223-.44a4.2,4.2,0,0,1,.409-.637,2.326,2.326,0,0,1,2.393-.867,2.387,2.387,0,0,1,1.567,1.209Z" fill="#ed1c24" fill-rule="evenodd"/><path d="M103.4,72.144c1.747-.3,2.734-.46,4.485-.733,1.341-.21,2.115-.232,3.442-.519a23.5,23.5,0,0,0,3.021-.836c.574,2.513.873,3.938,1.356,6.471.447,2.35.677,3.68,1.045,6.045,1.381-.249,2.161-.386,3.543-.623,1.463-.251,2.289-.389,3.753-.628a43.407,43.407,0,0,0-2.187-12.932,12.723,12.723,0,0,0,2.922.523,11.281,11.281,0,0,0,4.8-.417,10.077,10.077,0,0,0,3.538-1.774c.678,3.134,1.068,4.9,1.775,8.028.717,3.173,1.129,4.964,1.876,8.133a23.884,23.884,0,0,1,2.815-6.986,18.93,18.93,0,0,1,2.923-4.173,16.052,16.052,0,0,1,7.088-4.691,15.634,15.634,0,0,1,7.091-1.15,6.347,6.347,0,0,1,4.28,1.778c1.859,1.493,2.282,3.046,3.024,5.312a14.208,14.208,0,0,1,.621,6.883,15.1,15.1,0,0,1-4.173,9.594,14.605,14.605,0,0,1-8.965,5.21c-2.707.56-4.464.762-7.088-.1a10.539,10.539,0,0,1-6.365-5c.142,2.238.233,3.5.416,5.735.215,2.647.356,4.141.631,6.78-2.044.209-3.191.37-5.211.732-2.052.368-3.2.62-5.221,1.143a33.352,33.352,0,0,0-2.4-13.453,32.435,32.435,0,0,0-7.614,2.089c.285,2.572.493,4.02.946,6.567.416,2.334.69,3.643,1.247,5.948a47.358,47.358,0,0,1-9.906-.63,41.5,41.5,0,0,0,.1-7.5,36.881,36.881,0,0,0-.832-6.365,50.116,50.116,0,0,0-2.4-7.4c-.9-2.506-1.514-3.882-2.5-6.356C104.557,75.008,104.141,73.975,103.4,72.144Zm55.01,1.574a5.636,5.636,0,0,1,.359.911,3.377,3.377,0,0,1,.175,1.106c0,.192-.021.388-.03.63-.012.361.013.671-.008.964a3.158,3.158,0,0,1-.606,1.685,5.039,5.039,0,0,1-.67.8,2.353,2.353,0,0,1-1.971.592,2.428,2.428,0,0,1-1.388-.726,3.589,3.589,0,0,1-.557-.807,2.74,2.74,0,0,1-.313-1.5c.011-.173.054-.352.054-.566.006-.323-.021-.589-.014-.846a3.446,3.446,0,0,1,.376-1.506c.073-.144.146-.3.223-.44a4.2,4.2,0,0,1,.409-.637,2.326,2.326,0,0,1,2.393-.867,2.387,2.387,0,0,1,1.567,1.209Z" fill="none" stroke="#231f20" stroke-miterlimit="3.864" stroke-width="1.584"/><path d="M165.8,74.186c-1.321,6.893-2.186,10.763-3.925,17.562-1.213,4.743-1.954,7.406-3.368,12.093l2.121,1.677,2.925,2.121,2.995-11.215a28.656,28.656,0,0,0,4.42-.248c3.234-.4,5.193-.582,8.1-2.057a11.7,11.7,0,0,0,4.3-2.992,9.453,9.453,0,0,0,2.243-4.419,9.27,9.27,0,0,0,.128-5.047,7.521,7.521,0,0,0-2-4.054c-1.775-1.857-3.678-1.678-6.17-2.295a32.164,32.164,0,0,0-4.547-.748A45.84,45.84,0,0,0,165.8,74.186Zm4.35,12.149a3.077,3.077,0,0,0,2.12-.39A3.144,3.144,0,0,0,174,83.7a3.2,3.2,0,0,0-.137-1.887,3.305,3.305,0,0,0-2.431-2.284l-1.8-.394-.983,7.038Z" fill="#ed1c24" fill-rule="evenodd"/><path d="M165.8,74.186c-1.321,6.893-2.186,10.763-3.925,17.562-1.213,4.743-1.954,7.406-3.368,12.093l2.121,1.677,2.925,2.121,2.995-11.215a28.656,28.656,0,0,0,4.42-.248c3.234-.4,5.193-.582,8.1-2.057a11.7,11.7,0,0,0,4.3-2.992,9.453,9.453,0,0,0,2.243-4.419,9.27,9.27,0,0,0,.128-5.047,7.521,7.521,0,0,0-2-4.054c-1.775-1.857-3.678-1.678-6.17-2.295a32.164,32.164,0,0,0-4.547-.748,45.84,45.84,0,0,0-7.226-.379Zm4.35,12.149a3.077,3.077,0,0,0,2.12-.39A3.144,3.144,0,0,0,174,83.7a3.2,3.2,0,0,0-.137-1.887,3.305,3.305,0,0,0-2.431-2.284l-1.8-.394-.983,7.038Z" fill="none" stroke="#231f20" stroke-miterlimit="3.864" stroke-width="1.584"/><path d="M1,15.078c4.15-.5,6.485-.852,10.593-1.617,4.426-.823,6.92-1.341,11.268-2.506C27.025,9.839,29.314,9,33.408,7.657,39.654,5.6,43.154,4.363,49.3,2.027c.973,5.638,1.6,8.808,2.845,14.392,1.111,4.984,1.8,7.784,3.124,12.715-4.191.691-6.56,1.059-10.763,1.672-3.8.555-5.951.85-9.763,1.34l7.92,36.031L31.621,71.023,24.147,34.768a60,60,0,0,0-20.134,3.96Z" fill="#ffe600" fill-rule="evenodd"/><path d="M1,15.078c4.15-.5,6.485-.852,10.593-1.617,4.426-.823,6.92-1.34,11.268-2.506C27.025,9.839,29.314,9,33.408,7.657,39.654,5.6,43.154,4.363,49.3,2.027c.973,5.638,1.6,8.808,2.845,14.392,1.111,4.984,1.8,7.784,3.124,12.715-4.191.691-6.56,1.059-10.763,1.672-3.8.555-5.951.85-9.763,1.34l7.92,36.031L31.621,71.023,24.147,34.768a60,60,0,0,0-20.134,3.96Z" fill="none" stroke="#231f20" stroke-miterlimit="3.864" stroke-width="1.584"/><path d="M50.475,39.229A24.864,24.864,0,0,1,53.933,34.6,28.768,28.768,0,0,1,63.7,27.35a22.113,22.113,0,0,1,7.138-2.337c3.06-.438,5.048-.811,7.92.332a11.49,11.49,0,0,1,5.294,4.13c1.735,2.164,2.219,3.794,2.958,6.467a21.616,21.616,0,0,1,.672,8.421,22.878,22.878,0,0,1-2.626,10.1,22.208,22.208,0,0,1-9.425,10.1,22.353,22.353,0,0,1-9.092,3.459,19.088,19.088,0,0,1-8.813,0c-3.276-.767-5.4-1.38-7.751-3.79-2.538-2.606-3.161-4.985-3.629-8.592-.442-3.416.251-5.431,1.122-8.762A25.609,25.609,0,0,1,50.475,39.229Zm20.483-.287a5.447,5.447,0,0,1,.558-1.893,10.342,10.342,0,0,1,.685-1.264,3.67,3.67,0,0,1,2.521-1.569,4.48,4.48,0,0,1,4.862,4.22c.021.443-.045.925-.031,1.455.017.638.05,1.167.013,1.678a5.76,5.76,0,0,1-.674,2.339,8.994,8.994,0,0,1-.779,1.3,4.07,4.07,0,0,1-2.154,1.452A4.013,4.013,0,0,1,72.2,46a3.517,3.517,0,0,1-1.3-2.617c-.014-.252.032-.531,0-.826a10.855,10.855,0,0,1-.007-2.436c.031-.453.032-.819.072-1.175Z" fill="#ffe600" fill-rule="evenodd"/><path d="M50.475,39.229A24.864,24.864,0,0,1,53.933,34.6,28.768,28.768,0,0,1,63.7,27.35a22.113,22.113,0,0,1,7.138-2.337c3.06-.438,5.048-.811,7.92.332a11.49,11.49,0,0,1,5.294,4.13c1.735,2.164,2.219,3.794,2.958,6.467a21.616,21.616,0,0,1,.672,8.421,22.878,22.878,0,0,1-2.626,10.1,22.208,22.208,0,0,1-9.425,10.1,22.353,22.353,0,0,1-9.092,3.459,19.088,19.088,0,0,1-8.813,0c-3.276-.767-5.4-1.38-7.751-3.79-2.538-2.606-3.161-4.985-3.629-8.592-.442-3.416.251-5.431,1.122-8.762A25.609,25.609,0,0,1,50.475,39.229Zm20.483-.287a5.447,5.447,0,0,1,.558-1.893,10.342,10.342,0,0,1,.685-1.264,3.67,3.67,0,0,1,2.521-1.569,4.48,4.48,0,0,1,4.862,4.22c.021.443-.045.925-.031,1.455.017.638.05,1.167.013,1.678a5.76,5.76,0,0,1-.674,2.339,8.994,8.994,0,0,1-.779,1.3,4.07,4.07,0,0,1-2.154,1.452A4.013,4.013,0,0,1,72.2,46a3.517,3.517,0,0,1-1.3-2.617c-.014-.252.032-.531,0-.826a10.855,10.855,0,0,1-.007-2.436c.031-.453.032-.819.072-1.175Z" fill="none" stroke="#231f20" stroke-miterlimit="3.864" stroke-width="1.584"/><path d="M81.277,18.215c2.3-.269,3.6-.4,5.915-.564,2.089-.152,3.286-.009,5.363-.28a32.525,32.525,0,0,0,4.793-.978,35.585,35.585,0,0,0,6.059-2.107,35.054,35.054,0,0,0,4.66-2.412c.275,3.465.4,5.423.558,8.9.205,4.449.269,6.962.283,11.414,2.464-2.872,3.864-4.484,6.363-7.326,2.727-3.1,4.277-4.84,7.044-7.9,3.6,1.832,5.646,2.826,9.313,4.517,4.138,1.908,6.5,2.933,10.716,4.657-2.293,1.253-3.566,2-5.779,3.391a88.62,88.62,0,0,0-10.3,7.326c-3.536,2.878-5.227,4.854-8.609,7.912-3.441,3.112-5.4,4.853-8.891,7.908l-4.517,13.663c-2.2-.919-3.441-1.443-5.637-2.382-1.654-.708-2.587-1.109-4.236-1.828,1.037-3.959,1.6-6.2,2.554-10.18.619-2.578.958-4.033,1.541-6.622-2.684-4.543-4.233-7.086-7.039-11.556C87.586,27.623,85.35,24.2,81.277,18.215Z" fill="#ffe600" fill-rule="evenodd"/><path d="M81.277,18.215c2.3-.269,3.6-.4,5.915-.564,2.089-.152,3.286-.009,5.363-.28a32.525,32.525,0,0,0,4.793-.978,35.582,35.582,0,0,0,6.059-2.107,35.054,35.054,0,0,0,4.66-2.412c.275,3.465.4,5.423.558,8.9.205,4.449.269,6.962.283,11.414,2.464-2.872,3.864-4.484,6.363-7.326,2.727-3.1,4.277-4.84,7.044-7.9,3.6,1.832,5.646,2.826,9.313,4.517,4.138,1.908,6.5,2.933,10.716,4.657-2.293,1.253-3.566,2-5.779,3.391a88.62,88.62,0,0,0-10.3,7.326c-3.536,2.878-5.227,4.854-8.609,7.912-3.441,3.112-5.4,4.853-8.891,7.908l-4.517,13.663c-2.2-.919-3.441-1.443-5.637-2.382-1.654-.708-2.587-1.109-4.236-1.828,1.037-3.959,1.6-6.2,2.554-10.18.619-2.578.958-4.033,1.541-6.622-2.684-4.543-4.233-7.086-7.039-11.556C87.586,27.623,85.35,24.2,81.277,18.215Z" fill="none" stroke="#231f20" stroke-miterlimit="3.864" stroke-width="1.584"/><path d="M134.039,12.436c8.414.377,13.159.592,21.571.984,9.3.435,14.547.688,23.846,1.147.251,2.2.4,3.441.7,5.634.331,2.478.533,3.874.918,6.345L157.3,39.814c4.9.641,7.668,1.011,12.567,1.685,5.122.7,8.012,1.11,13.127,1.849-.753,3.961-1.176,6.2-1.918,10.158-.968,5.171-1.51,8.089-2.458,13.264-3.772-.943-5.915-1.412-9.738-2.132a97.519,97.519,0,0,0-10.852-1.683A106.672,106.672,0,0,0,147,62.675c-5.506-.007-8.616.086-14.111.421l.421-11.865.587-11.838,22.133-15.96L133.9,21.048Z" fill="#ffe600" fill-rule="evenodd"/><path d="M134.039,12.436c8.414.377,13.159.592,21.571.984,9.3.435,14.547.688,23.846,1.147.251,2.2.4,3.441.7,5.634.331,2.478.533,3.874.918,6.345L157.3,39.814c4.9.641,7.668,1.011,12.567,1.685,5.122.7,8.012,1.11,13.127,1.849-.753,3.961-1.176,6.2-1.918,10.158-.968,5.171-1.51,8.089-2.458,13.264-3.772-.943-5.915-1.412-9.738-2.132a97.519,97.519,0,0,0-10.852-1.683A106.672,106.672,0,0,0,147,62.675c-5.506-.007-8.616.086-14.111.421l.421-11.865.587-11.838,22.133-15.96L133.9,21.048Z" fill="none" stroke="#231f20" stroke-miterlimit="3.864" stroke-width="1.584"/><path d="M180.135,30.39c8.223-1.816,12.863-2.836,21.091-4.633,9.1-1.986,14.228-3.1,23.328-5.063.829,2.054,1.3,3.211,2.133,5.262.723,1.775,1.132,2.775,1.86,4.546L209.361,49.828c5.132-.418,8.022-.728,13.127-1.4,5.248-.695,8.2-1.165,13.408-2.131.344,4.521.559,7.069.982,11.584.448,4.786.726,7.484,1.263,12.26a68.792,68.792,0,0,0-10.856.561,90.711,90.711,0,0,0-10.014,1.85c-4.571,1-7.136,1.653-11.615,3.011-4.559,1.383-7.1,2.272-11.531,4.03l-3.393-11.7-3.758-11.429,17.248-21.145-22.5,3.232Z" fill="#ffe600" fill-rule="evenodd"/><path d="M180.135,30.39c8.223-1.816,12.863-2.836,21.091-4.633,9.1-1.986,14.228-3.1,23.328-5.063.829,2.054,1.3,3.211,2.133,5.262.723,1.775,1.132,2.775,1.86,4.546L209.361,49.828c5.132-.418,8.022-.728,13.127-1.4,5.248-.695,8.2-1.165,13.408-2.131.344,4.521.559,7.069.982,11.584.448,4.786.726,7.484,1.263,12.26a68.792,68.792,0,0,0-10.856.561,90.711,90.711,0,0,0-10.014,1.85c-4.571,1-7.136,1.653-11.615,3.011-4.559,1.383-7.1,2.272-11.531,4.03l-3.393-11.7-3.758-11.429,17.248-21.145-22.5,3.232Z" fill="none" stroke="#231f20" stroke-miterlimit="3.864" stroke-width="1.584"/></g></svg>