<svg xmlns="http://www.w3.org/2000/svg" width="357" height="58" viewBox="0 0 357 58"><g transform="translate(-782 -1461)"><g transform="translate(782 1461)" fill="#e9eef1" stroke="#dee2e6" stroke-width="1"><rect width="357" height="58" rx="5" stroke="none"/><rect x="0.5" y="0.5" width="356" height="57" rx="4.5" fill="none"/></g><g transform="translate(9.336 32.521)"><g transform="translate(884.664 1440.958)"><path d="M0,5.016H6.883l4.969,20.076L17.373,5.016H22.7l5.532,20.076L33.2,5.016h6.88L32.163,33.7H24.707l-4.67-16.923L15.366,33.7H7.907Z" transform="translate(0 -3.002)" fill="#640052"/><path d="M107.264,27.387v6.294H89.234V5.016h17.834v6.294H95.806v4.766h10.245V22.3H95.806v5.081Z" transform="translate(-47.115 -3.002)" fill="#640052"/><path d="M218.9,27.387v6.294H202.1V5.016h6.555V27.387Z" transform="translate(-106.709 -3.002)" fill="#640052"/><path d="M260.551,27.387v6.294h-16.8V5.016h6.555V27.387Z" transform="translate(-128.699 -3.002)" fill="#640052"/><path d="M162.941,25.8c0,5.157-3.243,8.943-8.132,8.943s-8.592-2.981-8.612-8.89c0-5.363,3.644-8.89,8.516-8.89S162.941,20.906,162.941,25.8Z" transform="translate(-77.19 -9.313)" fill="#640052"/><path d="M152.285,32.652a.262.262,0,0,0-.166.026l-.331.182c-.222.113-.451.222-.679.331a12.475,12.475,0,0,1-2.471.788,13.393,13.393,0,0,1-2.7.275c-7.175-.01-13.293-4.392-13.3-13.071a13.627,13.627,0,0,1,1.077-5.416c.086,0,.169.017.255.017a3.849,3.849,0,0,0,3.849-3.849,3.873,3.873,0,0,0-3.452-3.829,3.849,3.849,0,0,0-3.975,5.3,11.969,11.969,0,0,0,1.965-1.9,1.6,1.6,0,0,1,.725-.924c.106-.162.209-.331.312-.49-.1.166-.205.331-.312.49a1.657,1.657,0,1,1-.705.944,12.11,12.11,0,0,1-.928.994,12.548,12.548,0,0,1-1.034.891,3.871,3.871,0,0,0,.285.54,17.113,17.113,0,0,0-1.507,7.185c0,10.974,7.751,16.525,16.837,16.525a16.886,16.886,0,0,0,2.68-.212,16.085,16.085,0,0,0,2.514-.613,15.549,15.549,0,0,0,2.319-.994c.232-.123.46-.252.689-.384l.331-.2a.345.345,0,0,0,.152-.123c.046-.086,0-.123-.066-.182s-.166-.179-.255-.268L153.226,33.5l-.547-.537C152.574,32.857,152.444,32.681,152.285,32.652ZM134.067,8.865a.253.253,0,0,0-.023.043.233.233,0,0,1,.013-.043Zm-.384.745v0Z" transform="translate(-68.215 -4.622)" fill="#158bcb"/><path d="M170.344,17.2A16.154,16.154,0,0,0,154.246.75,18.725,18.725,0,0,0,151.3.985a17.269,17.269,0,0,0-3.375.9,16.1,16.1,0,0,0-1.57.689c-.255.126-.507.262-.752.4-.126.073-.642.278-.553.487a.366.366,0,0,0,.069.073l1.392,1.431.563.58c.122.126.261.371.467.351a1.05,1.05,0,0,0,.331-.142l.391-.192a13.3,13.3,0,0,1,1.64-.636,14.171,14.171,0,0,1,3.548-.633h.725a12.754,12.754,0,0,1,12.713,12.988,14.3,14.3,0,0,1-.964,5.247c-.133,0-.269-.023-.4-.023a3.889,3.889,0,1,0,3.352,1.941A17.972,17.972,0,0,0,170.344,17.2Zm-4.859,10.792a1.627,1.627,0,1,1,.623-.124A1.627,1.627,0,0,1,165.485,27.991Z" transform="translate(-76.578 -0.75)" fill="#158bcb"/></g></g></g></svg>