<?xml version="1.0" encoding="UTF-8"?><svg id="Layer_2" xmlns="http://www.w3.org/2000/svg" xmlns:xlink="http://www.w3.org/1999/xlink" viewBox="0 0 336.06 336"><defs><style>.cls-1,.cls-2{fill:none;}.cls-3{clip-path:url(#clippath);}.cls-4{fill:#fff;}.cls-5{fill:#9fb6df;}.cls-6{fill:#cddcf1;}.cls-7{fill:#d3dadd;}.cls-8{fill:#158bcb;}.cls-9{fill:#701e5e;}.cls-10,.cls-11{fill:#546976;}.cls-12{fill:#9ad8f3;}.cls-13{clip-path:url(#clippath-1);}.cls-14{clip-path:url(#clippath-4);}.cls-15{clip-path:url(#clippath-3);}.cls-16{clip-path:url(#clippath-2);}.cls-17{clip-path:url(#clippath-6);}.cls-18{clip-path:url(#clippath-5);}.cls-2{stroke:#546976;stroke-miterlimit:10;stroke-width:2px;}.cls-19{opacity:.6;}.cls-11{fill-rule:evenodd;}</style><clipPath id="clippath"><rect class="cls-1" width="336.06" height="336"/></clipPath><clipPath id="clippath-1"><rect class="cls-1" width="336.06" height="336"/></clipPath><clipPath id="clippath-2"><rect class="cls-1" x="-.07" width="336" height="336"/></clipPath><clipPath id="clippath-3"><rect class="cls-1" x="165.29" y="67.3" width="33.84" height="33.84" transform="translate(62.95 245.69) rotate(-78.36)"/></clipPath><clipPath id="clippath-4"><rect class="cls-1" width="336.06" height="336"/></clipPath><clipPath id="clippath-5"><rect class="cls-1" x="274.06" y="104.65" width="28.27" height="28.27"/></clipPath><clipPath id="clippath-6"><rect class="cls-1" width="336.06" height="336"/></clipPath></defs><g id="Layer_1-2"><g class="cls-3"><g id="Group_711"><g id="Group_702"><g class="cls-13"><g id="Group_701"><g id="Group_700" class="cls-19" transform="translate(-0.015 0)"><g id="Group_699"><g class="cls-16"><g id="Group_698"><path id="Path_5048" class="cls-12" d="M133.24,9.97c-7.32,2.28-39.79,12.88-72.21,41.01-7.85,6.81-39.6,34.36-53.16,71.39-23.09,63.03,4.54,158.93,84.11,197.47,92.68,44.89,209.76-10.36,236.46-84.3,11.84-32.79,12.38-87.18-17.46-123.04-24.01-28.86-65.07-42.57-63.48-69.87,.77-13.15,10.69-16.78,7.93-25.06-6.53-19.64-70.48-23.71-122.2-7.59"/></g></g></g></g><path id="Path_5049" class="cls-4" d="M306.8,52.5H29.19c-6.13,0-11.09,4.97-11.09,11.09V253.93c0,6.13,4.97,11.09,11.09,11.09H306.8c6.13,0,11.09-4.97,11.09-11.09V63.59c0-6.13-4.97-11.09-11.09-11.09"/><path id="Path_5050" d="M306.8,265.63H29.2c-6.46,0-11.69-5.24-11.7-11.7V63.6c0-6.46,5.24-11.69,11.7-11.7H306.8c6.46,0,11.69,5.24,11.7,11.7V253.93c0,6.46-5.24,11.69-11.7,11.7M29.2,53.1c-5.79,0-10.48,4.7-10.49,10.49V253.93c0,5.79,4.7,10.48,10.49,10.49H306.8c5.79,0,10.48-4.7,10.49-10.49V63.6c0-5.79-4.7-10.48-10.49-10.49H29.2Z"/><path id="Rectangle_716" class="cls-12" d="M39.13,56.84H296.87c9.22,0,16.69,7.47,16.69,16.69V243.99c0,9.22-7.47,16.69-16.69,16.69H39.13c-9.22,0-16.69-7.47-16.69-16.69h0V73.53c0-9.22,7.47-16.69,16.69-16.69Z"/><path id="Path_5051" d="M302.52,255.77H33.48c-3.38,0-6.12-2.74-6.12-6.12v-45.73c0-.34,.27-.61,.61-.61,.33,0,.6,.27,.61,.61v45.73c0,2.71,2.2,4.91,4.91,4.91H302.52c2.71,0,4.91-2.2,4.91-4.91v-74.99c0-.34,.27-.61,.6-.61,.34,0,.61,.27,.61,.6h0v75c0,3.38-2.74,6.12-6.12,6.12"/><path id="Path_5052" d="M308.04,103.7c-.34,0-.61-.27-.61-.61v-12.93c0-.34,.27-.61,.6-.61,.34,0,.61,.27,.61,.6h0v12.94c0,.34-.27,.61-.61,.61"/><path id="Path_5053" d="M56.68,156.13c-.34,0-.61-.27-.61-.61,0-.19,.09-.37,.24-.48l.91-.7c.68-.58,1.3-1.23,1.84-1.94,.2-.27,.59-.32,.85-.11,.27,.2,.32,.59,.11,.85h0c-.61,.79-1.3,1.52-2.07,2.17l-.91,.69c-.11,.08-.23,.12-.37,.12"/><path id="Path_5054" d="M55.14,154.4c-.34,0-.61-.27-.61-.61,0-.23,.13-.44,.33-.54l1.01-.53c.77-.46,1.49-.99,2.15-1.6,.25-.23,.63-.21,.86,.04,.23,.25,.21,.63-.04,.86-.74,.68-1.55,1.27-2.41,1.78l-1.01,.53c-.09,.04-.18,.07-.28,.07"/><path id="Path_5055" class="cls-9" d="M20.28,135.55c-2.78,.36-17.91,3.42-19.2,20.46-.03,.39,.17,.77,.51,.96l8.75,5.04c.33,.19,.53,.54,.52,.92-.1,3.12-.6,17.28-1.92,23.23-1.03,4.64-1.75,8.42-2.09,10.31-.1,.56,.27,1.09,.82,1.19,.09,.02,.18,.02,.28,.01,3.1-.24,6.18-.75,9.19-1.53,3.52-1.08,5.07-3.14,13.57,.38,1.79,.74,3.81,.64,5.52-.26,4.65-2.46,14.35-6.83,21.03-4.63,.54,.18,1.12-.11,1.29-.65,.06-.18,.07-.37,.03-.55-.98-4.38-3.02-12.81-3.23-17.27-.27-5.57,2.93-24.12,1.44-26.06-1.42-1.85-7.67-6.09-11.89-7.25-1.54-.42-3.17-.47-4.48-.79-3.27-.81-12.34-4.54-20.14-3.53"/><path id="Path_5056" class="cls-4" d="M5.32,177.07c2.6,3.88,5.61,5.12,12.17,3.43s20.47-11.65,27.35-21.14c.41-.58,1.12-.86,1.82-.71,1.34,.16,6.88,2.29,10.99-1.34,4.11-3.64,3.13-6.24,2.92-6.74-.35-.84-6.48,.23-8.14-.51s-1.64-1.89-.4-3.58c1.49-2.03-1.83-2.49-4.35,1.11-1.53,2.18-4.11,5.06-6.44,6.24-2.41,1.22-26.91,10.04-28.18,9.64s-9.22-5.2-9.22-5.2c0,0-1.35,14.57,1.48,18.8"/><path id="Path_5057" d="M12.57,181.85c-3.41,0-5.72-1.4-7.76-4.44-2.92-4.36-1.63-18.59-1.58-19.19l.09-.96,.83,.5c3.12,1.89,8.06,4.78,9.05,5.13,1.88,0,24.89-8.14,27.77-9.59,2.26-1.15,4.76-3.97,6.22-6.05,1.52-2.17,3.37-3.03,4.55-2.92,.5,.02,.95,.31,1.17,.75,.22,.61,.07,1.3-.38,1.77-.61,.83-.86,1.46-.75,1.88,.08,.3,.38,.56,.91,.8,1.39,.26,2.81,.32,4.22,.17,2.7-.11,3.91-.12,4.24,.66,.43,1.03,.99,3.83-3.08,7.42-3.71,3.28-8.38,2.19-10.62,1.67-.36-.08-.67-.15-.84-.18-.45-.12-.93,.05-1.22,.41l-.03,.05c-6.83,9.42-20.94,19.63-27.69,21.37-1.65,.46-3.36,.72-5.07,.76m-8.2-22.55c-.24,3.3-.82,14.04,1.45,17.43s4.79,4.92,11.52,3.18c6.56-1.69,20.29-11.65,26.99-20.88,.54-.77,1.48-1.16,2.4-.98,.24,.03,.56,.1,.97,.2,2.04,.48,6.3,1.47,9.54-1.39,3.31-2.93,3.12-5.04,2.81-5.92-1.03-.11-2.08-.12-3.12-.04-1.96,.08-3.81,.15-4.76-.27-.75-.26-1.33-.85-1.59-1.59-.22-.81,.09-1.73,.95-2.9,.24-.33,.26-.51,.25-.55-.13-.04-.27-.06-.41-.03-1.35,.34-2.5,1.2-3.2,2.4-1.53,2.19-4.2,5.18-6.66,6.43-1.51,.76-26.88,10.22-28.63,9.68-1.09-.34-6.36-3.47-8.51-4.76"/><path id="Path_5058" class="cls-4" d="M56.34,158.24l-.09,.87-.54,5.03c-.34,2.67-.38,5.37-.12,8.04,.08,1.51,.76,2.93,1.88,3.95,.8,.76,1.76,1.32,2.81,1.64,3.69,1.34,5.3,.93,6.64-2.88s.87-6.17-2.28-17.99c-.47-1.53,.18-3.19,1.57-3.99,2.17-1.42,1.45-4.85-.55-7.43-3.19-4.13-9.88,12.21-9.31,12.76"/><path id="Path_5059" d="M63.32,179.08c-1.12-.06-2.22-.31-3.26-.73l-.05-.02c-1.11-.34-2.12-.94-2.96-1.73-1.25-1.12-2-2.7-2.09-4.37-.26-2.71-.22-5.45,.13-8.15l.62-5.75c-.04-.47,.04-.94,.21-1.38,.72-2.41,4.75-12.07,8.15-12.7,.8-.15,1.6,.19,2.05,.87,1.4,1.64,2.09,3.76,1.94,5.9-.14,.99-.7,1.87-1.54,2.41-1.17,.64-1.72,2-1.34,3.27l.02,.05c3.19,11.97,3.65,14.42,2.27,18.35-.71,2.01-1.51,3.14-2.6,3.66-.49,.23-1.02,.34-1.55,.33m-6.4-21.12l.05,.05-.67,6.2c-.33,2.62-.37,5.27-.12,7.9v.08c.09,1.34,.69,2.59,1.68,3.49,.73,.69,1.61,1.21,2.57,1.5l.05,.02c1.91,.7,3.07,.83,3.88,.45,.78-.37,1.39-1.28,1.98-2.96,1.27-3.62,.86-5.79-2.29-17.61-.55-1.79,.21-3.73,1.82-4.68,.55-.36,.91-.95,1-1.6,.1-1.81-.51-3.59-1.7-4.96-.2-.38-.65-.53-1.05-.37-2.78,.98-6.97,10.74-7.2,12.48"/><path id="Path_5060" d="M58.53,150.5s-5.42,.58-7.1-.74c-1.24-.98,1.08-3.92,1.25-4.15,1.47-1.94,4.9-6.45,5.42-7.1,.46-.58,1.35-1.96,2.5-1.86s7.54,1.15,8.01,1.36c.97,.43,.56,1.78-.15,2.53s-9.93,9.96-9.93,9.96"/><path id="Path_5061" d="M13.38,195.58s-5.23,43.51-5.88,51.9-1.61,37.77,0,52.3c1.05,9.41,1.77,15.71,2.15,18.97,.17,1.52,1.46,2.66,2.98,2.66h10.66c.55,0,.99-.43,1-.98,.05-3.92,.4-18.85,2.9-31.62,2.9-14.85,6.13-38.09,7.75-47.45,.54-3.12,.99-6.6,1.37-10l1.21,3.54c1.21,3.54,5.81,27.44,7.1,36.8,1.17,8.52,3.15,42.67,3.5,48.78,.03,.53,.47,.94,.99,.94h13.65c.51,0,.94-.39,.99-.9,.64-6.33,4.37-44.59,3.78-61.73-.64-18.72-9.04-41-10.65-47.13s-3.78-21.69-3.78-21.69c0,0-32.73,.49-39.73,5.62"/><path id="Path_5062" class="cls-12" d="M36.33,231.83s-.05,0-.07,0c-.33-.04-.57-.34-.54-.67h0c.22-1.93,.43-3.99,.63-6.14,.42-4.31,3.26-8,7.32-9.52l2.36-.87c.31-.12,.66,.04,.78,.36,.12,.31-.04,.66-.36,.78l-2.36,.87c-3.62,1.35-6.15,4.65-6.53,8.49-.2,2.16-.42,4.23-.63,6.16-.03,.31-.29,.54-.6,.54"/><path id="Path_5063" class="cls-4" d="M59.77,321.4h-8.7c-.62,0-1.17,.37-1.41,.94-1.41,3.29-2.14,6.84-2.13,10.42,.06,1.14,1,2.03,2.14,2.03h25.53c1.03,0,1.86-.83,1.87-1.86,0-.12-.01-.25-.04-.37-.28-1.38-1.25-3.19-4.05-4.82-4.53-2.64-10.23-5.27-12.02-6.09-.37-.17-.78-.26-1.18-.26"/><path id="Path_5064" d="M75.21,335.39h-25.53c-1.46,0-2.67-1.14-2.75-2.6,0-3.67,.73-7.31,2.18-10.68,.33-.8,1.11-1.32,1.97-1.32h8.7c.5,0,.98,.11,1.43,.31,1.68,.76,7.49,3.45,12.08,6.12,3.07,1.79,4.06,3.83,4.34,5.22,.15,.72-.03,1.47-.5,2.04-.47,.58-1.18,.91-1.92,.91m-24.13-13.39c-.37,0-.71,.22-.85,.56-1.37,3.21-2.08,6.67-2.09,10.16,.04,.81,.72,1.45,1.53,1.45h25.53c.38,0,.74-.17,.98-.47,.24-.29,.33-.66,.26-1.03-.34-1.65-1.64-3.18-3.76-4.41-4.54-2.64-10.31-5.31-11.97-6.06-.29-.13-.61-.2-.93-.2h-8.7Z"/><path id="Path_5065" d="M60.95,327.71c-.34,0-.61-.27-.61-.61,0-.16,.07-.32,.18-.43l3.66-3.6c.24-.24,.62-.23,.86,0,.24,.24,.23,.62,0,.86h0l-3.66,3.6c-.11,.11-.27,.18-.43,.17"/><path id="Path_5066" d="M63.32,329.19c-.34,0-.61-.27-.61-.61,0-.16,.07-.32,.18-.43l3.66-3.6c.24-.24,.62-.23,.86,0,.24,.24,.23,.62,0,.86h0l-3.66,3.6c-.11,.11-.27,.17-.43,.17"/><path id="Path_5067" class="cls-4" d="M21.39,321.4H12.69c-.62,0-1.17,.37-1.41,.94-1.41,3.29-2.14,6.84-2.13,10.42,.06,1.14,1,2.03,2.14,2.03h25.53c1.03,0,1.86-.83,1.87-1.85,0-.12-.01-.25-.04-.37-.28-1.38-1.25-3.19-4.05-4.82-4.53-2.64-10.23-5.27-12.03-6.09-.37-.17-.78-.26-1.19-.26"/><path id="Path_5068" d="M36.81,335.39H11.28c-1.46,0-2.67-1.14-2.75-2.6,0-3.67,.73-7.31,2.18-10.68,.33-.8,1.11-1.32,1.97-1.32h8.7c.5,0,.99,.11,1.44,.31,1.67,.76,7.49,3.45,12.08,6.12,3.07,1.79,4.06,3.83,4.34,5.22,.15,.72-.03,1.47-.5,2.04-.47,.58-1.18,.91-1.92,.91m-24.14-13.39c-.37,0-.71,.22-.85,.56-1.37,3.21-2.08,6.67-2.09,10.16,.04,.81,.72,1.45,1.53,1.45h25.53c.38,0,.74-.17,.98-.47,.24-.29,.33-.66,.26-1.03-.34-1.65-1.64-3.18-3.76-4.41-4.54-2.64-10.31-5.31-11.97-6.06-.29-.13-.61-.2-.93-.2H12.68Z"/><path id="Path_5069" d="M21.59,327.4c-.34,0-.61-.27-.61-.61,0-.16,.07-.32,.18-.43l3.66-3.6c.24-.24,.62-.23,.86,0,.24,.24,.23,.62,0,.86l-3.66,3.6c-.11,.11-.27,.17-.43,.17"/><path id="Path_5070" d="M23.95,328.88c-.34,0-.61-.27-.61-.61,0-.16,.07-.32,.18-.43l3.66-3.6c.24-.24,.62-.23,.86,0,.24,.24,.23,.62,0,.86l-3.66,3.6c-.11,.11-.27,.17-.43,.17"/><path id="Path_5071" d="M31.41,114.04c.21,.07,.41,.15,.61,.25,.39,.29,.71,.66,.92,1.1,.44,.81,1.18,3.31,2.13,3.16s2.13-4.04,2.13-4.04c0,0,.37-1.91,3.31-1.18,2.14,.55,4.19,1.39,6.1,2.5,.77,.47,1.67,.68,2.57,.59,.88-.07,3.75-1.76,3.23-4.48-.49-2.54-2.64-4.41-5.22-4.56-2.3,.01-5.59-1.47-6.17-1.76s-4.05-1.71-5.93-.66c-1.92,1.07-3.32,2.87-3.86,5-.3,1.19-.32,2.44-.06,3.64,.02,.19,.06,.38,.24,.44"/><path id="Path_5072" class="cls-4" d="M46.98,116.11c.05,.03,.09,.09,.08,.15-.09,1.33-.04,2.66,.15,3.98,.15,.92,.75,3.17,.5,3.63s-1.18,.5-1.6,.46-1.14,.14-1.32,.5-.71,3.67-.93,4.45c-.24,1.02-1.2,1.7-2.24,1.57-.17-.02-.66-.13-1.04-.22-.26-.06-.53,.1-.59,.37v.03c-.64,4.02,3.43,8.55,4.4,9.59,.08,.09,.08,.22,0,.3-.02,.02-.04,.03-.06,.04-9.02,3.93-18.29-2.86-20.82-4.97,3.19-1.3,5.72-3.81,7.05-6.98,1.02-2.45,.68-6.27,.71-7.78,0-.31-.17-.59-.44-.71-.83-.47-1.45-1.23-1.75-2.13-.37-1.32-.22-5.54,3.27-3.85,.39,.29,.71,.66,.92,1.1,.44,.81,1.18,3.31,2.13,3.16s2.13-4.04,2.13-4.04c0,0,.37-1.91,3.31-1.18,2.13,.61,4.19,1.46,6.14,2.52"/><path id="Path_5073" d="M38.44,142.79c-7.07,0-13.25-4.59-15.33-6.33l-.26-.22,.04-.34c.05-.35,.3-.46,.62-.6,2.94-1.22,5.27-3.57,6.47-6.52,.77-1.84,.71-4.57,.68-6.38,0-.47-.02-.88,0-1.19,0-.06-.03-.12-.09-.15-.99-.54-1.74-1.45-2.08-2.52-.29-1.05-.31-3.45,.96-4.51,.55-.46,1.54-.83,3.16-.05l.05,.03c.48,.34,.88,.8,1.14,1.33,.12,.22,.25,.52,.39,.86,.21,.5,.76,1.81,1.11,1.98,.77-1.08,1.33-2.3,1.64-3.58,.15-.56,.51-1.05,1-1.36,.94-.5,2.04-.59,3.04-.25,2.18,.62,4.29,1.49,6.28,2.58,.26,.14,.42,.43,.4,.73-.09,1.28-.04,2.57,.14,3.84,.04,.23,.1,.54,.18,.88,.37,1.77,.52,2.65,.26,3.14-.47,.88-1.91,.8-2.19,.78-.25-.01-.51,.05-.73,.18-.09,.28-.32,1.47-.46,2.26-.16,.87-.32,1.7-.42,2.07-.31,1.31-1.56,2.18-2.9,2.01-.33-.05-.67-.12-.99-.2-.47,3.61,3.14,7.76,4.27,8.95,.31,.33,.29,.85-.04,1.16-.07,.06-.15,.12-.23,.15-1.93,.84-4.02,1.27-6.12,1.27m-13.81-6.66c3.17,2.46,11.08,7.56,18.94,4.49-1.52-1.7-4.78-5.86-4.18-9.68,.09-.6,.66-1.01,1.26-.92,.03,0,.05,0,.08,.02,.76,.18,.94,.2,.97,.21,.74,.09,1.43-.4,1.59-1.12,.09-.32,.25-1.16,.4-1.97,.12-.88,.31-1.75,.57-2.6,.44-.6,1.17-.92,1.91-.83,.34,.04,.68,0,1-.14-.05-.78-.17-1.56-.36-2.32-.08-.36-.15-.69-.19-.93-.19-1.27-.25-2.55-.18-3.83-1.83-.98-3.75-1.77-5.75-2.33-.68-.24-1.42-.21-2.07,.08-.24,.14-.41,.36-.49,.63v.05c-.6,1.94-1.53,4.3-2.63,4.47-1.19,.19-1.87-1.42-2.42-2.72-.13-.3-.25-.59-.34-.75-.17-.33-.41-.63-.69-.87-.81-.39-1.42-.42-1.81-.09-.74,.62-.79,2.46-.57,3.25,.25,.73,.76,1.35,1.42,1.74,.5,.23,.81,.73,.8,1.28,0,.3,0,.68,0,1.13,.04,1.91,.09,4.79-.77,6.86-1.23,3.02-3.54,5.48-6.48,6.88"/><path id="Path_5074" d="M40.33,131.18c-.06,0-.12,0-.17-.02-1.61-.51-3.16-1.22-4.59-2.12-.28-.18-.36-.56-.17-.84,.18-.28,.56-.36,.84-.17,1.33,.84,2.77,1.5,4.27,1.97,.32,.09,.51,.43,.41,.75-.08,.26-.31,.44-.59,.44"/><path id="Path_5075" class="cls-7" d="M137.54,211.79v8.82c0,12.64,9.94,22.89,22.21,22.89s22.21,10.25,22.21,22.89c0,1.12-.91,2.04-2.03,2.04h-58.79c-18.39,0-33.3-15.36-33.3-34.32v-23.48c-.11-7.43,5.82-13.54,13.24-13.65h22.1c8.05,.12,14.48,6.75,14.36,14.8"/><rect id="Rectangle_717" class="cls-7" x="137.63" y="266.46" width="6.19" height="67.08"/><path id="Path_5076" class="cls-7" d="M169.73,332.55l-27.39-2.41h-2.52l-27.96,2.41v2.43h57.86v-2.43Z"/><path id="Path_5077" class="cls-4" d="M130.76,269.62l-8.39,5.63,4.25,5.04,9.66-4.73-5.52-5.94Z"/><path id="Path_5078" d="M126.63,280.9c-.18,0-.35-.08-.46-.22l-4.25-5.04c-.22-.25-.19-.64,.07-.86,.02-.02,.04-.03,.06-.04l8.39-5.63c.25-.17,.58-.13,.78,.09l5.52,5.94c.23,.25,.21,.63-.03,.86-.04,.04-.09,.07-.15,.1l-9.66,4.73c-.08,.04-.17,.06-.27,.06m-3.35-5.52l3.51,4.16,8.5-4.17-4.61-4.96-7.4,4.97Z"/><path id="Path_5079" class="cls-7" d="M123.82,272.72c-1.9,1.16-3.73,2.43-5.48,3.81-1.19,.98-1.46,2.69-.64,3.99,4.08,6.29,8.75,12.17,13.94,17.59,.72,.68,1.81,.77,2.64,.23,4.37-2.37-.3-9.81-3.43-19.36l-2.25-.25c-1.2-.14-2.2-.98-2.54-2.13l-1-3.39c-.13-.44-.59-.7-1.03-.57-.07,.02-.14,.05-.21,.09"/><path id="Path_5080" d="M133.04,299.28c-.69,0-1.35-.27-1.84-.75-5.22-5.44-9.92-11.36-14.02-17.69-.99-1.56-.66-3.62,.77-4.79,1.77-1.39,3.62-2.68,5.55-3.85,.68-.42,1.57-.2,1.99,.48,.07,.11,.12,.23,.16,.35l1,3.39c.27,.92,1.07,1.59,2.02,1.7l2.64,.3,.12,.37c.78,2.38,1.67,4.67,2.46,6.7,2.47,6.34,4.43,11.35,.68,13.39-.46,.26-.99,.4-1.52,.41m-8.9-26.04c-1.88,1.14-3.69,2.4-5.42,3.76-.95,.78-1.17,2.16-.51,3.2,4.06,6.25,8.7,12.11,13.86,17.48,.53,.49,1.33,.54,1.92,.12,2.67-1.45,1.35-5.27-1.23-11.88-.76-1.93-1.6-4.11-2.36-6.39l-1.86-.21c-1.44-.16-2.64-1.17-3.05-2.57l-1-3.39c-.02-.07-.07-.13-.14-.15-.07-.03-.14-.02-.2,.02"/><path id="Path_5081" class="cls-4" d="M118.62,276.29l-.29,.23c-1.19,.98-1.46,2.69-.64,3.99,4.08,6.29,8.75,12.17,13.94,17.59,.72,.68,1.81,.77,2.64,.23,.34-.22,.67-.47,.96-.76l-.4-.44c-5.67-6.24-10.88-12.9-15.58-19.9l-.63-.94Z"/><path id="Path_5082" d="M133.04,299.28c-.69,0-1.35-.27-1.84-.75-5.22-5.44-9.92-11.36-14.02-17.69-.99-1.56-.66-3.62,.77-4.79,.09-.08,.29-.23,.29-.23,.26-.21,.64-.17,.85,.1,.01,.01,.02,.03,.03,.04l.64,.95c4.68,6.98,9.87,13.6,15.52,19.83l.4,.44c.22,.24,.21,.62-.03,.85-.33,.32-.7,.6-1.09,.85-.46,.26-.99,.4-1.52,.41m-14.55-22.08c-.77,.81-.89,2.05-.29,2.99,4.06,6.25,8.7,12.11,13.86,17.48,.53,.49,1.33,.54,1.92,.12,.14-.08,.26-.17,.39-.27-5.68-6.26-10.9-12.93-15.61-19.95l-.25-.38Z"/><path id="Path_5083" d="M132.36,285.06h-.05l-4.27-.34c-.33-.03-.58-.32-.56-.66,.03-.33,.32-.58,.66-.56l4.27,.34c.33,.03,.58,.32,.56,.65-.03,.31-.29,.56-.6,.56"/><path id="Path_5084" d="M129.64,288.02c-.34,0-.61-.27-.6-.61,0-.33,.27-.6,.6-.6h4.16c.34,0,.61,.26,.6,.6,0,.33-.27,.6-.6,.6h-4.16Z"/><path id="Path_5085" d="M190.63,232.59c3.44,.01,15.12,1.95,15.46,12.65,.12,3.65,3.04,10.37-18.81,14.64-17.33,3.38-34.1,9.22-49.78,17.34-.63,.34-1.38,.42-2.07,.21-2.19-.67-6.8-2.54-7.37-6.51-.12-.89,.26-1.78,.99-2.3l5.38-3.91-5.1-2.73c-5.87-3.07-10.35-8.27-12.51-14.53-1.87-5.62-2.8-15.24-2.8-15.24l76.62,.37Z"/><path id="Path_5086" class="cls-4" d="M286.73,334.87l-22.09-76.56-22.09,76.56h-5.29l24.27-86.39h6.22l24.27,86.39h-5.29Z"/><path id="Path_5087" class="cls-4" d="M194.53,315.51h0c.83,3.14,1.04,6.41,.62,9.63l12.54-2.09c-3.11-1.17-5.48-3.73-6.41-6.91l-.71-2.43-6.03,1.81Z"/><path id="Path_5088" d="M195.15,325.75c-.34,0-.61-.28-.61-.61,0-.03,0-.05,0-.08,.42-3.14,.21-6.33-.6-9.39-.08-.32,.1-.64,.41-.74l6.03-1.81c.32-.1,.66,.08,.76,.41h0l.71,2.44c.89,3,3.12,5.41,6.04,6.52,.31,.12,.47,.47,.35,.78-.08,.2-.25,.35-.47,.39l-12.54,2.09s-.07,0-.1,0m.11-9.82c.67,2.77,.87,5.64,.58,8.48l9.86-1.65c-2.42-1.45-4.21-3.75-5.01-6.46l-.54-1.85-4.89,1.47Z"/><path id="Path_5089" class="cls-7" d="M194.69,321.11c-.4,1.57-1.23,5.97-1.57,8.61-.2,1.66,.87,3.2,2.49,3.6,4.57,1.13,15.44,.85,24.49,1.06,1.07-.02,2-.77,2.23-1.81,1.64-5.16-8.13-6.51-17.74-11.6-.43,.35-.89,.65-1.38,.92-1.6,.73-3.44,.7-5.01-.1l-2.19-1.25c-.44-.25-.99-.1-1.24,.34-.04,.07-.07,.15-.09,.22"/><path id="Path_5090" d="M220.15,335h-.06c-2.31-.05-4.78-.08-7.17-.1-7.19-.07-13.98-.13-17.45-.98-1.92-.47-3.19-2.3-2.95-4.27,.33-2.64,1.16-7.06,1.58-8.69,.21-.81,1.03-1.3,1.84-1.09,.13,.03,.26,.08,.37,.15l2.19,1.25c1.38,.7,3.01,.73,4.42,.09,.45-.24,.88-.53,1.28-.85l.31-.26,.36,.19c2.8,1.43,5.67,2.72,8.6,3.86,5.99,2.44,10.73,4.36,9.43,8.45-.32,1.28-1.45,2.2-2.77,2.24m-24.57-13.96c-.14,0-.26,.09-.29,.23h0c-.41,1.58-1.23,6-1.55,8.53-.16,1.35,.71,2.62,2.04,2.94,3.33,.82,10.37,.89,17.17,.95,2.39,.02,4.86,.04,7.18,.1,.8-.02,1.48-.6,1.64-1.39,.91-2.88-2.54-4.45-8.73-6.96-2.57-1.05-5.47-2.22-8.37-3.73-.37,.27-.75,.51-1.15,.73-1.78,.83-3.85,.79-5.6-.1l-2.19-1.25s-.1-.04-.15-.04"/><path id="Path_5091" class="cls-4" d="M192.88,330.92s-.01,.08-.02,.09c-.21,1.66,1.39,2.64,2.92,3.32,4.61,2.04,23.3,.36,23.3,.36,0,0,2.51,.03,3.17-1.48,.1-.27,.15-.54,.17-.83,.02-.3,0-.59-.08-.88l-.17-.68c-2.54,1.02-13.99,1.79-22.3,.76-2.37-.36-4.65-1.22-6.67-2.52,0,0-.16,.9-.33,1.85"/><path id="Path_5092" d="M205.37,335.95c-4.1,0-8-.25-9.83-1.06-.98-.43-3.57-1.58-3.27-3.95,0-.03,0-.07,.02-.12,.17-.95,.33-1.85,.33-1.85,.06-.33,.37-.55,.7-.49,.06,.01,.11,.03,.16,.05,.23,.11,.49,.26,.79,.43,1.73,1.07,3.67,1.76,5.68,2.03,8.2,1.02,19.52,.28,22-.72,.31-.12,.66,.03,.79,.34,.01,.03,.02,.05,.03,.08l.17,.68c.09,.35,.12,.71,.09,1.07-.02,.35-.09,.69-.22,1.02-.78,1.77-3.36,1.84-3.7,1.84-.66,.06-7.45,.65-13.74,.65m-11.71-5.94c-.05,.3-.12,.66-.18,1.02h0v.07c-.14,1.01,.65,1.84,2.55,2.68,4.42,1.95,22.82,.33,23,.32h.06c.58,0,2.2-.19,2.61-1.12,.07-.2,.11-.41,.12-.63,.02-.23,0-.46-.06-.68v-.05c-3.55,.95-14.01,1.57-21.95,.58-2.17-.28-4.26-1.03-6.13-2.18h-.01"/><path id="Path_5093" d="M205.64,325.83c-.34,0-.61-.27-.61-.61,0-.19,.08-.36,.23-.48l2.7-2.14c.26-.21,.65-.16,.85,.1,.21,.26,.16,.65-.1,.85h0l-2.7,2.14c-.11,.09-.24,.13-.38,.13"/><path id="Path_5094" d="M209.32,327.24c-.34,0-.61-.27-.61-.61,0-.19,.09-.36,.23-.48l2.36-1.84c.26-.21,.65-.16,.85,.11,.21,.26,.16,.65-.11,.85l-2.36,1.84c-.11,.08-.24,.13-.37,.13"/><path id="Path_5095" d="M168.15,249.29s9.55,2.11,16.65,7.02c6.16,4.26,12.65,12.41,18.56,55.1,.21,2.44-1.36,4.68-3.72,5.31-2.15,.63-4.46,.27-6.32-.97-3.42-2.22-16.31-35.05-24-42.02s-40.16-8.46-46.42-17.33,9.11-8.87,9.11-8.87l36.15,1.75Z"/><path id="Path_5096" class="cls-6" d="M150.47,272.16c-.34,0-.61-.27-.61-.61,0-.23,.13-.44,.34-.54,.63-.31,1.23-.6,1.82-.89,7.74-3.81,12.41-6.11,26.56-8.59,.33-.06,.65,.16,.7,.5,.06,.33-.16,.65-.5,.7h0c-13.98,2.45-18.59,4.72-26.23,8.48-.59,.29-1.19,.59-1.82,.89-.08,.04-.17,.06-.27,.06"/><path id="Path_5097" class="cls-5" d="M235.7,240.83h-59.98c-1.29,0-2.34-1.05-2.34-2.34v-1.14h64.66v1.15c0,1.29-1.05,2.34-2.34,2.34"/><path id="Path_5098" d="M235.7,241.44h-59.99c-1.63,0-2.94-1.32-2.94-2.94v-1.16c0-.34,.27-.61,.61-.61h64.66c.34,0,.61,.27,.61,.61v1.15c0,1.63-1.32,2.94-2.94,2.94m-61.71-3.48v.54c0,.95,.78,1.73,1.73,1.73h59.99c.95,0,1.73-.77,1.73-1.73v-.54h-63.45Z"/><path id="Path_5099" class="cls-5" d="M238.04,237.41h-37l10.95-32.3c.72-1.09,1.94-1.75,3.25-1.75h31.28c1.08-.02,1.96,.84,1.98,1.91,0,.23-.03,.47-.11,.69-.18,.48-10.34,31.45-10.34,31.45"/><path id="Path_5100" d="M238.04,238.01h-37c-.34,0-.61-.27-.61-.61,0-.07,.01-.13,.03-.19l10.95-32.31s.04-.09,.07-.14c.83-1.27,2.24-2.03,3.76-2.02h31.28c.86,0,1.66,.41,2.15,1.11,.47,.68,.58,1.54,.29,2.31-.18,.49-6.84,20.77-10.33,31.42-.08,.25-.31,.42-.58,.42m-36.15-1.21h35.71c1.26-3.85,10.03-30.59,10.21-31.06,.15-.4,.09-.84-.16-1.19-.26-.38-.69-.6-1.15-.59h-31.27c-1.08,0-2.09,.52-2.7,1.41l-10.65,31.43Z"/><path id="Path_5101" class="cls-4" d="M235.69,234.39h-30.44l9.38-27.95,30.36-.04-9.3,28Z"/><path id="Path_5102" class="cls-4" d="M100.41,193.27c1.62-3.57,5.91-5.88,9.26-7.19,2.31-.9,4.76-1.41,7.24-1.5l8.76-.35c3.84-.25,7.69-.02,11.47,.67,5.66,1.04,10.75,4.09,14.34,8.59,1.63,2.03,3.07,3.79,3.19,3.82,4.74,6.68,5.38,7.85,8.8,10.35,5.72,4.16,15.73,.77,15.73,.77,3.33-.5,4.54,2,5.15,3.39,.73,1.67,.02,3.7-.62,5.01-.41,.83-1.11,1.49-1.98,1.84-4.29,1.76-18.89,7.23-25.58,3.42-5.58-3.17-9.33-9.8-12.31-13.05-.18-.19-.47-.2-.66-.02-.1,.1-.16,.24-.14,.38,.63,7.31,6.63,15.99,8.46,18.48,.32,.45,.82,.74,1.37,.8l13.21,1.51c.2,.02,.4,.09,.58,.19,.86,.48,1.44,1.35,1.56,2.33,.23,1.82,.1,3.67-.4,5.43l-.45,.89c-.36,.72-1.09,1.18-1.9,1.19-7.02,.11-38.65,.12-47.25,.08-7.86-.05-11.01-3.93-15.21-14.93-1.67-4.37-6.91-22.58-2.6-32.11"/><path id="Path_5103" d="M134.21,240.95c-6.82,0-12.89-.01-16-.03-8.51-.05-11.74-4.77-15.77-15.32-1.67-4.39-7.02-22.78-2.58-32.58,1.7-3.76,6.15-6.15,9.59-7.5,2.38-.93,4.89-1.45,7.44-1.54l8.76-.35c3.88-.25,7.78-.02,11.6,.68,5.8,1.06,11.03,4.19,14.7,8.81,2.17,2.7,2.82,3.45,3.02,3.66l.07,.02,.12,.17c.49,.68,.93,1.31,1.34,1.89,3.59,5.08,4.34,6.14,7.33,8.32,5.4,3.93,15.08,.72,15.17,.68l.1-.03c3.91-.59,5.28,2.56,5.8,3.74,.81,1.86,.1,4.03-.63,5.52-.48,.97-1.29,1.73-2.29,2.14-4.38,1.79-19.19,7.32-26.11,3.39-4.08-2.32-7.2-6.43-9.7-9.73-.87-1.15-1.7-2.25-2.47-3.12,.81,7.06,6.54,15.34,8.3,17.74,.23,.31,.57,.51,.95,.55l13.21,1.51c.28,.03,.55,.12,.79,.26,1.03,.57,1.73,1.61,1.87,2.78,.21,1.55,.11,4.67-.46,5.79l-.45,.89c-.46,.92-1.4,1.51-2.43,1.53-4.47,.07-19.07,.1-31.26,.1m-5.63-56.2c-.98,0-1.94,.03-2.87,.1l-8.78,.35c-2.41,.09-4.79,.58-7.04,1.45-3.23,1.27-7.39,3.48-8.93,6.87-4.22,9.33,1.07,27.62,2.61,31.65,4.34,11.37,7.48,14.5,14.64,14.54,8.67,.05,40.26,.04,47.23-.08,.58,0,1.11-.34,1.37-.86l.45-.89c.44-1.65,.56-3.38,.34-5.08-.09-.79-.55-1.48-1.24-1.87-.1-.06-.21-.1-.33-.12l-13.23-1.51c-.72-.08-1.36-.46-1.79-1.04-1.85-2.52-7.93-11.33-8.58-18.79-.05-.59,.38-1.11,.97-1.17,.33-.03,.66,.1,.89,.34,.88,.96,1.83,2.21,2.83,3.53,2.44,3.21,5.47,7.21,9.33,9.4,6.44,3.67,20.8-1.72,25.05-3.45,.72-.3,1.31-.85,1.66-1.55,.51-1.04,1.27-3,.61-4.5-.79-1.8-1.87-3.4-4.45-3.04-.9,.3-10.48,3.31-16.23-.87-3.15-2.3-4.01-3.51-7.61-8.6-.4-.56-.83-1.17-1.3-1.83-.32-.3-1.04-1.15-3.2-3.85-3.49-4.39-8.45-7.36-13.97-8.38-2.79-.5-5.61-.76-8.45-.77"/><path id="Path_5104" class="cls-7" d="M171.25,240.57h15.33c0-2.62-2.12-4.73-4.72-4.73h-5.88c-2.61,0-4.72,2.11-4.73,4.72h0Z"/><path id="Path_5105" d="M186.58,241.18h-15.33c-.34,0-.61-.27-.61-.61h0c0-2.95,2.39-5.34,5.33-5.34h5.88c2.94,0,5.33,2.39,5.33,5.33,0,.34-.27,.61-.61,.62m-14.68-1.21h14.03c-.3-2.02-2.03-3.52-4.07-3.52h-5.88c-2.04,0-3.77,1.5-4.07,3.52"/><path id="Path_5106" class="cls-4" d="M164.61,233.34c.27-.53,.73-.95,1.29-1.16,.4-.15,.8-.33,1.17-.54l5.22-2.78c.98-.48,2.37,.64,3.39,.97,3.06,1.01,9.4,3.38,8.88,5.61-.56,2.41-6.01,1.27-7.94,.78-.44-.11-4.44,1.34-5.71,1.44-1.06,.15-2.14-.13-3.01-.76-.4-.2-.85-.31-1.3-.3-.72,0-1.4-.32-1.86-.87h-.01c-.5-.64-.58-1.49-.22-2.2l.1-.2Z"/><path id="Path_5107" d="M170.32,238.31c-.83,.03-1.65-.2-2.35-.66-.11-.07-.23-.13-.36-.2-.31-.16-.66-.24-1.02-.23-.9,0-1.76-.4-2.33-1.1-.65-.81-.77-1.93-.3-2.86l.1-.2c.34-.67,.92-1.19,1.62-1.45,.38-.14,.74-.31,1.09-.5l5.22-2.78c.97-.48,2.03,.05,2.95,.52,.29,.16,.6,.3,.91,.41,6.63,2.18,9.75,4.31,9.28,6.33-.13,.58-.5,1.07-1.02,1.37-1.79,1.09-5.51,.4-7.61-.12-.29,.03-1.36,.35-2.15,.58-1.12,.38-2.26,.66-3.42,.86-.23,.02-.43,.03-.62,.03m2.51-8.95c-.09,0-.19,.02-.27,.06l-5.2,2.77c-.4,.22-.82,.41-1.25,.57-.42,.15-.76,.46-.95,.86h0l-.1,.2c-.25,.5-.19,1.1,.15,1.53,.34,.42,.86,.66,1.4,.66,.55,0,1.09,.12,1.57,.37,.14,.08,.27,.15,.4,.22,.67,.44,1.49,.61,2.28,.47,1.07-.2,2.13-.47,3.17-.81,1.88-.56,2.4-.69,2.73-.61,3.19,.8,5.71,.9,6.74,.27,.23-.13,.4-.35,.47-.61,.23-.97-2.3-2.87-8.48-4.9-.37-.13-.73-.3-1.07-.48-.48-.29-1.02-.49-1.58-.58"/><path id="Path_5108" class="cls-4" d="M202.9,212.52c.25-.3,.2-.74-.1-.99-.05-.04-.1-.07-.16-.1l-9.26-4.06c-1.3-.58-2.78-.63-4.12-.15-1.37,.5-3.34,1.16-5.6,1.73-5.83,1.48-6.27,9.17-.24,6.21,1.92-.94,3.07-1.66,3.07-1.66,1.34,1.74,3.66,2.4,5.72,1.63,1.19-.42,2.29-1.06,3.24-1.88,.51-.46,1.22-.63,1.89-.46,1.6,.42,3.94,1.65,5.54-.29"/><path id="Path_5109" d="M181.04,216.46c-.59,.02-1.16-.16-1.63-.51-.81-.72-1.13-1.84-.83-2.88,.64-2.36,2.55-4.17,4.94-4.7,2.29-.58,4.27-1.25,5.54-1.71,1.49-.54,3.13-.48,4.57,.16l9.26,4.06c.66,.29,.96,1.06,.67,1.72-.05,.11-.11,.21-.19,.31-1.6,1.93-3.86,1.21-5.36,.73-.28-.09-.55-.18-.8-.24-.47-.12-.97,0-1.33,.32-1.01,.87-2.18,1.55-3.43,2-1.93,.77-4.12,.37-5.66-1.03-.17-.14-.3-.27-.42-.38-.51,.29-1.43,.81-2.67,1.42-.82,.45-1.73,.7-2.66,.74m10.1-8.95c-.57,0-1.13,.1-1.66,.29-1.29,.47-3.32,1.16-5.65,1.75-1.95,.4-3.51,1.85-4.05,3.77-.19,.58-.05,1.23,.38,1.67,.56,.44,1.66,.31,3.01-.35,1.86-.92,3.01-1.62,3.02-1.63,.28-.18,.65-.09,.83,.19,1.18,1.5,3.2,2.06,4.99,1.39,1.12-.4,2.15-.99,3.05-1.76,.67-.6,1.59-.82,2.45-.59,.27,.07,.56,.16,.87,.26,1.74,.56,3.05,.86,4.05-.35,.02-.02,.02-.05,.02-.08,0-.03-.02-.05-.05-.06l-9.26-4.06c-.63-.28-1.32-.42-2.01-.42"/><path id="Path_5110" d="M188.95,212.94c-.86-.04-1.66-.43-2.24-1.07-.23-.24-.22-.63,.02-.86,.24-.23,.63-.22,.86,.02l.02,.03s1.03,1.1,1.99,.45c.8-.63,1.84-.85,2.82-.61,1.76,.69,2.47,.4,2.6,.22,.1-.22,.07-.31,.06-.34-.15-.24-.38-.43-.65-.52l-2.64-1.08c-.31-.13-.46-.48-.33-.79,.13-.31,.48-.46,.79-.33l2.66,1.09c.59,.21,1.07,.66,1.32,1.24,.14,.43,.09,.9-.13,1.3-.06,.14-.84,1.62-4.12,.34-.61-.08-1.23,.09-1.7,.48-.39,.28-.86,.42-1.34,.43m6.07-1.82s-.01,.02-.02,.03l.02-.03"/><path id="Path_5111" d="M152.88,229.3s-.05,0-.08,0c-.79-.11-1.8-.21-2.96-.32-10.28-1.02-31.67-3.14-37.61-21.29-.1-.32,.07-.66,.39-.77,.32-.1,.66,.07,.77,.39,5.69,17.4,26.55,19.47,36.57,20.46,1.18,.12,2.19,.22,3.01,.33,.33,.04,.57,.35,.52,.68-.04,.3-.3,.53-.6,.53"/><path id="Path_5112" class="cls-4" d="M127.25,181.72c.14-.5,.58-.85,1.1-.87l3.85-.13c.49-.02,.91-.37,1.02-.86l1.04-4.4,1.73-.79c.14-.06,.2-.22,.14-.36l-1.36-3.28c-.4-1.21-.39-3.79-1.02-3.81,0,0-11.75-5.13-14.3,.74-.38,.89-.41,1.89-.1,2.81l.63,1.87c.65,1.87,.6,3.92-.14,5.76-.49,1.08-1.07,2.12-1.73,3.1-1.06,1.34-2.34,2.48-3.79,3.38-.58,.39-.73,1.17-.34,1.75,.07,.1,.15,.2,.25,.27,1.39,1.2,2.93,2.22,4.58,3.04,3.27,1.32,4.92,1.67,6.59,1.48,1.36-.17,2.32-1.41,2.15-2.77-.03-.21-.08-.42-.16-.62-.68-2.04-.73-4.25-.12-6.31"/><path id="Path_5113" d="M124.55,192.08c-2.08-.13-4.11-.67-5.98-1.57-1.7-.84-3.29-1.89-4.73-3.13-.8-.65-.93-1.82-.28-2.62,.12-.15,.26-.27,.41-.38,1.39-.85,2.62-1.93,3.62-3.21,.64-.95,1.2-1.96,1.68-3,.69-1.7,.73-3.6,.12-5.33l-.63-1.87c-.36-1.06-.32-2.22,.12-3.24,.53-1.23,1.54-2.19,2.8-2.65,4.29-1.69,11.32,1.18,12.22,1.56,.78,.13,.93,1.21,1.13,2.57,.06,.55,.16,1.09,.31,1.62l1.35,3.26c.18,.44-.01,.95-.45,1.14l-1.46,.67-.97,4.11c-.18,.75-.83,1.28-1.59,1.32l-3.85,.13c-.25,.01-.47,.19-.54,.43,0,0,0,.02,0,.03-.56,1.94-.51,4,.12,5.91,.35,.93,.25,1.96-.27,2.8-.48,.78-1.3,1.3-2.22,1.39-.3,.03-.6,.05-.9,.05m.29-26.32c-2.51,0-4.13,.82-4.84,2.45-.32,.75-.35,1.6-.08,2.38l.63,1.87c.7,2.01,.65,4.21-.15,6.18-.51,1.11-1.11,2.18-1.79,3.2-1.1,1.41-2.44,2.61-3.96,3.55-.3,.2-.38,.61-.17,.91,.04,.05,.08,.1,.13,.14,1.34,1.17,2.83,2.16,4.42,2.95,3.1,1.25,4.69,1.62,6.3,1.44,.55-.05,1.03-.36,1.32-.83,.32-.53,.38-1.17,.16-1.75-.73-2.17-.78-4.51-.13-6.7,.21-.74,.88-1.27,1.65-1.3l3.85-.13c.22-.01,.4-.17,.45-.39l1.04-4.4c.04-.18,.17-.34,.34-.41l1.44-.66-1.24-2.99s-.01-.03-.02-.04c-.17-.61-.29-1.23-.36-1.86-.05-.54-.16-1.06-.31-1.58h-.01c-1.95-.81-3.99-1.41-6.07-1.79-.86-.15-1.72-.23-2.59-.24"/><path id="Path_5114" d="M137.01,157.95c-2.76-1-.09,2.96-9.57-3.19-3.77-2.45-3.12,3.04-4.1,2.4-3.62-2.34-3.5-2.26-5.58-2.33-1.38-.04-2.92,2.09-3.2,3.94-.38,2.44,1.81,8.32,3.52,12.82,.88,2.32,4.1,3.5,5.52,.77,.39-.75-1.29-3.14,.01-4.12,2.4-1.8,2.45,1.94,4.31,1.42,1.59-.47,3.13-1.09,4.6-1.88,2.44-1.16,4.83,2.54,7.12-1.04,1.2-1.87,1.14-7.43-2.64-8.8"/><path id="Path_5115" class="cls-4" d="M136.47,334.98l-22.09-77.3-22.09,77.3h-5.29l24.27-87.13h6.22l24.27,87.13h-5.29Z"/><path id="Path_5116" d="M142.57,335.59h-6.55l-21.63-75.7-21.63,75.7h-6.55l.21-.77,24.39-87.58h7.15l.12,.43,24.48,87.91Zm-5.64-1.21h4.04l-23.93-85.93h-5.3l-23.93,85.93h4.04l22.54-78.91,22.54,78.91Z"/><rect id="Rectangle_718" class="cls-4" x="86.96" y="240.82" width="204.49" height="8.32"/><path id="Path_5117" d="M292.05,249.75H86.35v-9.53h205.7v9.53Zm-204.49-1.21h203.27v-7.11H87.57v7.11Z"/><path id="Path_5118" class="cls-7" d="M136.31,247.8c-.34,0-.61-.27-.61-.61v-4.63c0-.34,.27-.61,.6-.61s.61,.27,.61,.6h0v4.64c0,.34-.27,.61-.61,.61"/><path id="Path_5119" class="cls-4" d="M249.1,314.99l1.18,13.47-12.71,1.34,3.95-5.39c1.05-1.44,1.41-3.28,.98-5.01l-1.08-4.35,7.67-.05Z"/><path id="Path_5120" d="M236.28,330.54l4.75-6.5c.95-1.3,1.27-2.95,.89-4.51l-1.26-5.1,9-.07,1.29,14.62-14.66,1.55Zm5.92-14.9l.89,3.6c.48,1.91,.08,3.93-1.08,5.52l-3.14,4.29,10.75-1.13-1.09-12.32-6.34,.05Z"/><path id="Path_5121" class="cls-7" d="M251.16,326.15l1.06,5.54c.08,1.17-.75,2.21-1.91,2.38-2.68,.46-13.11,1.89-20.5,.55-1.16-.11-2.16-.85-2.6-1.93-.39-1.53,.59-3.73,3.68-4.88,5.52-2.04,7.62-2.71,10.3-4.53,.69-.29,1.49-.06,1.9,.56,.57,.87,.9,1.88,.96,2.92,0,.41,.33,.75,.75,.75,.1,0,.2-.02,.3-.06l4.7-2.02c.5-.21,1.07,.02,1.29,.52,.03,.07,.05,.13,.06,.2"/><path id="Path_5122" d="M237.13,335.79c-2.49,.03-4.97-.17-7.43-.58-1.39-.15-2.58-1.07-3.08-2.38-.46-1.8,.62-4.32,4.06-5.6l1.75-.64c4.19-1.54,6.11-2.24,8.43-3.82,.96-.49,2.13-.19,2.73,.7,.65,.98,1.03,2.12,1.08,3.29,0,.04,.02,.09,.06,.11,.04,.03,.09,.03,.14,.01l4.7-2.02c.81-.35,1.74,.03,2.09,.83,.05,.11,.08,.22,.1,.33l1.07,5.61c.12,1.49-.94,2.81-2.41,3.02-4.39,.71-8.83,1.08-13.28,1.12m4.62-12.06c-.07,0-.15,.02-.21,.05-2.44,1.66-4.4,2.38-8.69,3.95l-1.74,.64c-2.74,1.01-3.64,2.87-3.31,4.16,.39,.84,1.2,1.4,2.12,1.48,6.57,1.19,16.14,.16,20.28-.55,.85-.11,1.47-.86,1.41-1.71l-1.05-5.5c-.02-.11-.09-.21-.19-.26-.1-.05-.22-.06-.32-.01l-4.7,2.02c-.42,.18-.91,.14-1.29-.12-.38-.25-.6-.68-.6-1.13-.06-.92-.35-1.8-.85-2.57-.21-.26-.52-.43-.85-.46"/><path id="Path_5123" d="M237.35,333.8c-2.32,0-4.65-.14-6.95-.44-.33-.07-.54-.39-.47-.72,.06-.3,.33-.5,.63-.48,6.25,.69,12.57,.48,18.76-.64,.33-.07,.65,.14,.72,.47,.07,.33-.14,.65-.47,.72h0c-4.03,.72-8.12,1.09-12.22,1.09"/><path id="Path_5124" class="cls-4" d="M276.65,310.81c.37,3.3,1.48,6.48,3.24,9.3l-5.96,4.52-4.51-4.47c1.05-1.44,1.99-4.82,.58-9.27l6.65-.09Z"/><path id="Path_5125" d="M273.88,325.43l-5.26-5.21,.31-.42c.85-1.16,1.9-4.29,.49-8.72l-.25-.78,8.04-.11,.04,.57c.36,3.2,1.44,6.28,3.14,9.01l.32,.48-6.84,5.19Zm-3.68-5.35l3.78,3.75,5.09-3.86c-1.54-2.62-2.56-5.53-2.98-8.54l-5.29,.07c1.03,3.84,.39,6.89-.6,8.59"/><path id="Path_5126" class="cls-7" d="M280.09,318.83l2.47,4.37c.51,1.09,.09,2.39-.96,2.98-4.15,2.49-8.51,4.63-13.02,6.4-2.14,.79-8.36,1.21-9.83-.7-.98-1.28-.61-2.96,1.97-4.34,5.75-3.08,7.09-7.85,7.91-8.97,1.26-1.7,3.42,1.28,4,3.55,.1,.41,.52,.66,.93,.56,.11-.03,.21-.08,.3-.15l4.85-3.95c.39-.32,.97-.26,1.29,.13,.03,.04,.06,.09,.09,.13"/><path id="Path_5127" d="M263.76,333.85c-2.28,0-4.56-.41-5.48-1.61-.52-.64-.73-1.48-.57-2.29,.17-.77,.77-1.9,2.73-2.95,3.13-1.69,5.62-4.38,7.06-7.63,.19-.4,.4-.79,.65-1.16,.36-.56,1.03-.84,1.68-.72,1.61,.31,2.98,2.86,3.4,4.47,.01,.05,.05,.1,.11,.12,.05,.02,.11,0,.15-.03l4.85-3.95c.65-.53,1.61-.43,2.15,.22,.05,.07,.1,.14,.15,.21l2.49,4.41c.66,1.37,.14,3.02-1.19,3.76-4.18,2.51-8.57,4.67-13.12,6.45-1.63,.49-3.34,.73-5.04,.7m5.75-15.17c-.09,0-.22,.04-.39,.26-.2,.32-.38,.65-.54,.98-1.55,3.48-4.22,6.35-7.58,8.16-.97,.39-1.73,1.16-2.11,2.14-.09,.46,.04,.94,.34,1.3,1.2,1.57,7.01,1.29,9.14,.5,4.48-1.75,8.8-3.87,12.91-6.35,.78-.42,1.1-1.38,.72-2.18l-2.45-4.34h0c-.04-.08-.12-.14-.21-.15-.09-.02-.18,0-.25,.07l-4.85,3.95c-.59,.48-1.45,.39-1.93-.19-.13-.16-.22-.34-.27-.53-.42-1.65-1.64-3.43-2.45-3.59-.03,0-.06,0-.09-.01"/><path id="Path_5128" d="M263.37,331.41c-.66,0-1.32-.05-1.97-.18-.33-.07-.54-.39-.47-.72,.07-.33,.39-.54,.72-.47,1.84,.25,3.7,.15,5.5-.3,4.58-1.22,8.87-3.35,12.6-6.29,.26-.22,.64-.18,.86,.07,.22,.26,.18,.64-.07,.86-3.86,3.07-8.33,5.3-13.1,6.54-1.33,.31-2.69,.48-4.06,.49"/><path id="Path_5129" class="cls-4" d="M256.03,268.01c-.96,10.54,7.82,35,11.07,42.86,.35,.92,1.22,1.53,2.2,1.55h7.48c1.21,.05,2.23-.89,2.28-2.1v-.02c-.08-8.29-3.85-31.69,1.72-40.39,3.22-5.04,12.79-2.91,16.73-5.31,9.47-5.76,5.9-24.5,5.9-24.5,0,0-46.03,13.2-47.37,27.9"/><path id="Path_5130" d="M276.78,313.03h-7.48c-1.23-.01-2.32-.78-2.76-1.93-3.2-7.75-12.1-32.3-11.11-43.15,1.36-14.94,45.92-27.88,47.81-28.43l.64-.18,.12,.65c.15,.78,3.53,19.22-6.18,25.13-1.67,1.02-4.17,1.27-6.82,1.53-3.9,.39-7.93,.79-9.72,3.59-4.16,6.51-2.93,21.93-2.12,32.14,.25,3.2,.47,5.96,.49,7.91,0,.7-.27,1.37-.77,1.87-.56,.56-1.32,.87-2.11,.86m-20.14-44.97c-.9,9.82,7.04,32.92,11.02,42.58,.25,.69,.9,1.15,1.64,1.18h7.48c.47,0,.92-.17,1.25-.5,.27-.26,.42-.62,.42-1-.02-1.91-.24-4.65-.49-7.83-.88-10.99-2.08-26.05,2.3-32.9,2.11-3.3,6.63-3.75,10.62-4.14,2.5-.25,4.87-.48,6.31-1.36,8.02-4.88,6.24-19.86,5.73-23.2-5.6,1.68-45.08,13.99-46.28,27.17"/><path id="Path_5131" class="cls-4" d="M271.22,242.1s-31.22,.26-41.06,11.16c-8.85,9.79,4.27,54.22,7.02,62.85,.32,.92,1.21,1.53,2.18,1.51h11.73c.24,0,.44-.18,.45-.41l-1.87-16.89c-2-22.42,.44-27.16,.44-27.16,1.97-6.34,18.88-6.07,28.06-6.01,29.18,.2,20.6-25.42,20.6-25.42l-27.54,.37Z"/><path id="Path_5132" d="M251.09,318.22h-11.73c-1.24,.03-2.36-.75-2.76-1.93-3.19-10.2-5.82-20.57-7.87-31.06-3.23-17.19-2.89-28.08,.99-32.38,9.91-10.97,40.2-11.35,41.51-11.36l27.99-.38,.14,.42c.15,.45,3.65,11.19-1.92,18.88-3.54,4.88-9.9,7.35-18.92,7.35h-.98c-8.75-.07-25.05-.18-26.84,5.58l-.04,.1s-2.31,5.06-.37,26.82l1.87,16.94c-.01,.57-.48,1.03-1.05,1.02m47.24-75.88l-27.1,.37c-.31,0-31.07,.38-40.62,10.96-3.56,3.94-3.8,14.78-.69,31.34,2.04,10.44,4.66,20.76,7.84,30.91,.25,.67,.89,1.1,1.6,1.08h11.54l-1.84-16.63c-1.9-21.35,.19-26.82,.47-27.44,2.12-6.58,18.31-6.47,28-6.4h.64c8.79,.07,14.93-2.24,18.27-6.84,4.61-6.36,2.46-15.33,1.88-17.36"/><path id="Path_5133" class="cls-4" d="M249.4,222.44c-.2-.05-4.64,.17-5.06,.03-2.1-.71-6.52-2.31-8.59-2.33-1.99-.04-3.97-.27-5.92-.69-.81-.17-1.4,.16-1.55,.68-.19,.8,.31,1.6,1.11,1.79,.03,0,.07,.01,.1,.02,1.39,.32,2.78,.67,3.96,.95,.37,.09,.76,.1,.41,.23-.82,.29-1.71,.75-1.77,1.41-.11,1.25,2.97,4.09,6.36,4.3,2.91,.18,3.71-1.25,4.82-1.46,.18-.03,5.02,.08,5.23,.04,2.19-.45,2.07-4.65,.89-4.96"/><path id="Path_5134" d="M238.95,229.44c-.17,0-.34,0-.53-.02-2.33-.21-4.5-1.29-6.07-3.03-.52-.51-.83-1.2-.86-1.92,.07-.51,.36-.97,.79-1.25l-.37-.09c-.82-.2-1.69-.41-2.56-.61-.6-.11-1.12-.48-1.43-1-.28-.47-.36-1.04-.23-1.57,.33-.92,1.33-1.41,2.26-1.11,1.91,.42,3.85,.64,5.8,.68,1.96,.01,5.62,1.28,8.05,2.11l.73,.25c.28,.05,2.21,0,3.25-.03,.59-.06,1.18-.06,1.77,0,1,.26,1.32,1.64,1.29,2.75-.03,1.36-.63,3.07-2.21,3.39-.99,.05-1.98,.05-2.98,0-.93-.02-2.07-.03-2.3-.03-.3,.1-.59,.24-.85,.42-1.05,.71-2.3,1.08-3.56,1.06m-9.54-9.43c-.28,0-.49,.1-.54,.29-.04,.21,0,.43,.11,.61,.15,.23,.39,.39,.66,.43,.88,.2,1.75,.41,2.58,.61,.48,.12,.95,.23,1.39,.34,.08,.02,.16,.03,.23,.05,.26,.05,.74,.14,.78,.64,.02,.34-.21,.63-.54,.7-1.04,.37-1.35,.73-1.36,.89,.08,.39,.28,.75,.57,1.03,1.36,1.49,3.22,2.42,5.22,2.61,1.2,.12,2.4-.19,3.39-.87,.39-.27,.82-.46,1.28-.58,.12-.02,.34-.03,2.51,.01,1.05,.02,2.48,.04,2.74,.03,.92-.21,1.14-1.46,1.18-1.84,.14-.66,.02-1.35-.34-1.92-.23,0-.87,.02-1.44,.03-1.22,.12-2.46,.11-3.68-.03l-.74-.25c-2.21-.76-5.9-2.03-7.66-2.04-2.03-.04-4.06-.27-6.04-.7-.1-.02-.2-.03-.29-.03"/><path id="Path_5135" class="cls-8" d="M273.07,195.55c-6.15,4.82-8.17,18.78-12.1,21.94-3.41,2.73-15.64,3.6-15.64,3.6l-.09,7.84,10.67,.42c6.42,.24,12.57-2.36,14.84-4.5,7.56-7.1,23.28-22.13,27.25-32.15l-11.04-1.15c-4.98-.59-9.99,.86-13.89,4.02"/><path id="Path_5136" class="cls-8" d="M274.38,220.01c-.34,2.14-.16,4.33,.53,6.38,1.49,4.35,.37,9.17-2.87,12.42-1.3,1.34-2.84,2.44-4.53,3.24,0,0,.78,4.79,8.04,5.47,2.96,.27,10.77,.93,16.6,.88,4.66-.03,9.31-.45,13.9-1.26l1.14-36.88s1.17-15.48-9.51-17.59l-15.39-.96-7.9,28.31Z"/><path id="Path_5137" d="M273.4,223.58c-.34,0-.61-.27-.61-.61,0-.15,.06-.3,.16-.41,3.06-3.22,5.58-6.91,7.47-10.93,.14-.31,.49-.45,.8-.31,.31,.14,.45,.49,.31,.8-1.94,4.14-4.53,7.95-7.68,11.26-.11,.13-.28,.2-.45,.2"/><path id="Path_5138" d="M273.53,174.19s-3.88,.12-3.34-6.77c.55-6.93,8.13-6.51,10.75-7.43s6.94-6.51,8.61-8,6.8-7.69,17.39-1.81c0,0,1.87,1.76,9.02-.17,6.22-1.67,18.01-.05,15.79,9.08-.62,2.58-2.19,4.83-4.39,6.31-.39,.26-.82,.53-1.3,.78-1.4,.77-2.3,2.22-2.38,3.82-.3,5.36-3.07,16.13-21.47,9.21-1.36-.52-2.89-.35-4.1,.47-1.48,1-2.74,4.03-10.64,4.31-5.08,.18-7.59-4.98-9.33-7.21-1.08-1.51-2.78-2.46-4.63-2.6"/><path id="Path_5139" class="cls-4" d="M274.67,174.19s-.01,1.23-.03,1.77c.08,1.43-.19,2.85-.77,4.15-.08,.19-.02,.42,.16,.53l1.36,.86c.09,.06,.16,.15,.18,.26,.12,.68,.59,3.17,.75,3.62,.18,.44,.51,.79,.93,1,.61,.21,2.98-.53,2.98-.53,0,0-.35-.45,1.54,2.82,1.33,2.3-1.51,6.06-1.51,6.06,0,0,10.7,4.32,16.7-.85,.26-.25,.27-.67,.02-.93-.08-.08-.18-.14-.29-.17-5.67-1.4-6.42-4.26-8.66-8.69-.13-.2-.35-.32-.59-.33-.96-.08-3.46,0-4.31-4-.02-.1-.02-.21,.02-.31,.27-.84,1.41-4.9-2.26-3.19-1.52,.84-3.42,.29-4.26-1.23v-.02c-.18-.25-.43-.43-.73-.51l-1.25-.31Z"/><path id="Path_5140" d="M289.05,197.04c-3.08-.06-6.13-.65-9.01-1.75-.31-.13-.46-.48-.33-.79,.02-.05,.05-.09,.08-.14,.72-.96,2.39-3.8,1.47-5.39-.63-1.09-1.09-1.89-1.34-2.37v-.02c-.92,.33-1.89,.46-2.85,.37-.6-.27-1.07-.76-1.31-1.37-.15-.42-.49-2.18-.76-3.62l-1.28-.81c-.44-.27-.61-.83-.39-1.3,.52-1.14,.76-2.39,.71-3.64v-.28c.02-.54,.03-1.76,.03-1.76,0-.34,.28-.6,.61-.6,.05,0,.09,0,.14,.02l1.24,.31c.45,.11,.83,.38,1.08,.77,.63,1.24,2.15,1.72,3.39,1.09,.04-.02,.08-.04,.12-.07,1.28-.6,2.25-.63,2.87-.08,1.02,.89,.57,2.89,.22,4,.7,3.31,2.56,3.44,3.55,3.51l.21,.02c.45,.01,.86,.27,1.08,.66,.25,.5,.49,.99,.71,1.45,1.74,3.58,2.79,5.75,7.54,6.92,.67,.18,1.07,.88,.89,1.55-.06,.23-.19,.44-.37,.6-2.36,1.87-5.31,2.83-8.31,2.7m-7.84-2.62c2.45,.82,10.58,3.11,15.36-1,0-.02-.01-.04-.03-.06-5.3-1.31-6.57-3.93-8.34-7.57-.22-.45-.45-.92-.69-1.4-.04-.02-.08-.02-.12-.03h-.19c-1.13-.09-3.77-.28-4.66-4.48-.04-.21-.03-.42,.03-.62,.41-1.29,.47-2.43,.14-2.72-.08-.07-.43-.26-1.56,.27-1.8,.96-4.04,.31-5.05-1.47-.08-.12-.2-.21-.34-.24l-.5-.12c0,.36-.01,.76-.02,1.02v.23c.05,1.38-.21,2.74-.76,4.01l1.22,.77c.24,.15,.4,.39,.45,.67,.34,1.88,.63,3.26,.72,3.52,.11,.27,.31,.49,.56,.64,.82-.05,1.64-.21,2.42-.48,.28-.17,.64-.11,.84,.15,.06,.08,.11,.18,.12,.28,.11,.22,.45,.85,1.46,2.61,1.16,2-.29,4.79-1.09,6.05"/><path id="Path_5141" d="M281.95,180.73c-.48,.03-.96-.16-1.28-.52-.18-.28-.1-.66,.19-.84,.24-.15,.55-.12,.75,.08,.2,.08,.42,.08,.62,.01,.27-.14,.45-.41,.49-.71,.08-.33,.41-.52,.74-.44,.33,.08,.52,.41,.44,.74h0c-.13,.84-.79,1.5-1.63,1.65-.11,.02-.22,.03-.33,.02"/><path id="Path_5142" d="M273.55,180.46c-.54,0-1.07-.19-1.48-.55-1.31-1.18-1.18-3.81-1.16-4.11,.02-.31,.28-.56,.59-.57l9.05-.19c.33,0,.61,.26,.62,.59,0,.34-.26,.61-.59,.62h0l-8.47,.18c-.05,.92,.22,1.83,.77,2.57,.26,.22,.61,.31,.93,.22,.33-.06,.65,.17,.7,.5s-.17,.65-.5,.7c-.16,.03-.32,.04-.48,.04"/><path id="Path_5143" class="cls-7" d="M281.49,181.75c-.03-.37,.24-.68,.61-.71,.37-.03,.68,.24,.71,.61,.03,.36-.24,.68-.59,.71-.37,.03-.69-.24-.73-.61"/><path id="Path_5144" class="cls-7" d="M286.36,212.73v8.82c0,12.64-9.94,22.89-22.21,22.89s-22.21,10.25-22.21,22.89c0,1.12,.91,2.04,2.03,2.04h58.79c18.39,0,33.3-15.36,33.3-34.32v-23.48c.11-7.43-5.82-13.53-13.24-13.65h-22.1c-8.05,.12-14.48,6.75-14.36,14.8"/><path id="Path_5145" d="M255.36,261c-.34,0-.61-.27-.61-.6,0-.13,.04-.25,.11-.35,3.14-4.47,8.14-7.03,14.86-7.61,3.66-.26,7.23-1.24,10.5-2.89,6.83-3.75,15.91-10.4,15.91-24.73v-1.66c0-14.66,5.07-15.41,13.34-15.41,.34,0,.61,.27,.6,.61,0,.33-.27,.6-.6,.6-7.3,0-12.13,0-12.13,14.19v1.66c0,14.98-9.44,21.9-16.54,25.8-3.42,1.73-7.16,2.76-10.98,3.04-6.44,.56-11.01,2.88-13.98,7.1-.11,.16-.3,.26-.5,.26"/><rect id="Rectangle_719" class="cls-7" x="289.17" y="267.55" width="6.19" height="67.08"/><path id="Path_5146" class="cls-7" d="M263.26,333.64l27.39-2.41h2.51l27.96,2.41v1.91h-57.86v-1.92Z"/></g></g></g><g id="Group_704" transform="translate(162.223 64.236)"><g class="cls-15"><g id="Group_703"><path id="Path_5147" class="cls-11" d="M182.22,97.5c-.21-.05-.35-.25-.3-.47,.04-.19,.22-.33,.42-.31,7.12,.48,13.54-4.3,15.12-11.26,.35-1.68,.38-3.41,.08-5.1-.02-.1,0-.21,.07-.29,.03-.04,.07-.08,.11-.11,.09-.06,.2-.07,.3-.05,.1,.02,.19,.09,.25,.17,.03,.04,.05,.09,.05,.14,.31,1.79,.28,3.62-.08,5.39-1.66,7.34-8.42,12.38-15.93,11.89-.03,0-.05,0-.08-.01h0Z"/><path id="Path_5148" class="cls-11" d="M196.3,76.28c-.06-.01-.11-.04-.15-.07-.05-.03-.08-.08-.11-.13-4.18-7.48-13.64-10.15-21.12-5.97-.65,.36-1.27,.77-1.87,1.23-.04,.03-.09,.06-.14,.07-.1,.03-.21,.02-.3-.03-.05-.03-.09-.06-.12-.1-.07-.08-.09-.19-.08-.29,.01-.1,.07-.2,.15-.26,7.14-5.48,17.37-4.14,22.86,3,.48,.63,.92,1.29,1.3,1.98,.07,.14,.06,.3-.03,.43-.09,.12-.25,.18-.4,.15h0Z"/><path id="Path_5149" class="cls-11" d="M177.39,96.53s-.04-.01-.07-.02c-7.16-2.63-11.58-9.9-10.06-17.26,.35-1.73,1.03-3.39,1.98-4.88,.08-.14,.24-.21,.4-.18,.05,0,.1,.03,.14,.06,.04,.03,.08,.06,.11,.11,.03,.04,.05,.09,.06,.14,.01,.05,.01,.1,0,.15,0,.05-.03,.1-.06,.14-.9,1.41-1.54,2.97-1.88,4.61-1.3,7.07,2.76,14.03,9.56,16.36,.09,.03,.17,.1,.22,.19,.1,.19,.02,.43-.17,.53-.08,.04-.17,.05-.26,.04h0Z"/><path id="Path_5150" class="cls-11" d="M174.33,81.04c-.21-.06-.33-.28-.26-.49,.05-.16,.19-.27,.36-.28l4.8-.19-11.29-9.38c-.15-.16-.13-.42,.03-.56,.13-.12,.32-.13,.47-.05l11.38,9.46-.28-4.68c-.01-.06-.01-.11,0-.17,.03-.11,.1-.21,.2-.26,.05-.03,.1-.04,.16-.05,.22-.01,.4,.15,.42,.36,0,.02,0,.04,0,.06l.33,5.57s0,.02,0,.03,0,.02,0,.02c0,.05-.01,.1-.03,.15-.02,.05-.05,.09-.09,.13h0c-.07,.07-.16,.11-.25,.11l-5.83,.23s-.08,0-.12-.01h-.01Z"/><path id="Path_5151" class="cls-11" d="M190.68,84.41s-.05-.02-.07-.03l-5.27-2.52s-.09-.06-.12-.09c-.03-.04-.06-.08-.08-.13-.02-.05-.02-.1-.02-.15,0-.05,.02-.1,.04-.15l2.52-5s.06-.09,.1-.12c.04-.03,.09-.06,.14-.07,.05-.02,.1-.02,.15-.02,.05,0,.1,.02,.15,.04,.09,.05,.17,.13,.2,.23,.02,.05,.02,.1,.02,.15,0,.05-.02,.1-.04,.15l-2.12,4.2,14.17-4.2s.1-.02,.15-.01c.22,.03,.37,.23,.34,.45,0,.05-.02,.09-.04,.14-.05,.09-.14,.16-.24,.19l-14.06,4.15,4.36,2.08c.19,.1,.27,.33,.18,.53-.08,.15-.25,.24-.42,.21h-.04v-.02Z"/><path id="Path_5152" class="cls-11" d="M178.89,100.81c-.08-.04-.15-.1-.19-.18-.04-.08-.05-.18-.03-.26l2.83-13.78-4.08,2.5s-.09,.05-.14,.05c-.05,0-.1,0-.15,0-.05-.01-.1-.03-.14-.07-.04-.03-.07-.07-.1-.11-.03-.04-.04-.09-.05-.15,0-.05,0-.1,0-.15,.01-.05,.03-.1,.06-.14,.03-.04,.07-.07,.11-.1l4.85-2.96h.01c.16-.09,.35-.06,.47,.07,.01,.01,.02,.02,.03,.03,0,0,0,0,.01,0l3.23,4.71s.06,.09,.07,.14c.06,.21-.07,.42-.28,.48-.06,.02-.12,.02-.18,0-.11-.02-.2-.09-.25-.18l-2.72-3.94-2.82,13.74c-.01,.05-.03,.1-.06,.14-.03,.04-.07,.08-.11,.11-.04,.03-.09,.05-.15,.06-.05,0-.1,0-.16,0-.02,0-.05,0-.07-.01h0Z"/></g></g></g><g id="Group_706"><g class="cls-14"><g id="Group_705"><path id="Path_5153" class="cls-10" d="M186.83,187.18c-.15,0-.29-.06-.4-.16l-7.81-7.3c-.2-.19-.23-.49-.08-.72l6-8.81c.08-.12,.21-.21,.36-.23h0c.14-.02,.29,0,.41,.09,.12,.08,.2,.21,.23,.35,.03,.14,0,.29-.09,.42l-5.73,8.42,7.44,6.96c.12,.1,.2,.25,.21,.4,.02,.29-.2,.55-.49,.58h-.05Z"/><path id="Path_5154" class="cls-10" d="M202.91,185.4c-.3,.03-.58-.18-.61-.49-.02-.14,.02-.28,.11-.39l5.75-8.44-7.44-6.96c-.12-.1-.2-.25-.21-.41-.02-.29,.2-.55,.49-.58,.17-.01,.33,.04,.45,.16l7.8,7.3c.2,.19,.23,.49,.08,.71l-6,8.81c-.08,.14-.21,.23-.37,.27h-.05Z"/><path id="Path_5155" class="cls-10" d="M191.44,186.64c-.07,0-.15,0-.22-.02-.29-.09-.46-.4-.37-.69h0l5.11-16.86c.04-.14,.14-.26,.27-.33,.13-.07,.28-.09,.42-.04,.29,.09,.46,.4,.37,.69h0l-5.11,16.86c-.06,.21-.25,.37-.47,.39h0Z"/></g></g></g><g id="Group_708" transform="translate(274.064 104.651)"><g class="cls-18"><g id="Group_707"><path id="Path_5156" class="cls-10" d="M292.15,132.93c-3.01,0-5.46-2.45-5.46-5.46,0-.97,.26-1.93,.76-2.77l.34-.57-4.92-4.92-.57,.34c-2.6,1.53-5.94,.67-7.47-1.93-1.53-2.6-.67-5.94,1.93-7.47,2.56-1.51,5.85-.69,7.41,1.84l.31,.51,6.98-1.4-.03-.73v-.25c0-3.01,2.44-5.46,5.46-5.45,3.01,0,5.46,2.44,5.45,5.46,0,3.01-2.44,5.45-5.45,5.45l-.83-.02-1.55,6.97,.52,.32c2.56,1.59,3.34,4.96,1.75,7.52-1,1.6-2.75,2.58-4.63,2.58m0-9.47c-2.22,0-4.02,1.79-4.02,4.01,0,2.22,1.79,4.02,4.01,4.02,2.22,0,4.02-1.79,4.02-4.01,0-1.07-.42-2.09-1.18-2.85-.75-.75-1.77-1.18-2.84-1.18m-7.21-9.59l.03,.73c0,.08,0,.16,0,.25,0,.97-.26,1.93-.76,2.77l-.34,.57,4.92,4.92,.57-.34c.84-.49,1.79-.75,2.76-.76l1,.02,1.53-6.89-.54-.32c-.77-.45-1.43-1.09-1.9-1.85l-.32-.52-.65,.15-6.32,1.26Zm-5.42-3.03c-2.22,0-4.02,1.79-4.02,4.01,0,2.22,1.79,4.02,4.01,4.02,2.22,0,4.02-1.79,4.02-4.01,0-1.07-.42-2.09-1.18-2.85-.75-.75-1.77-1.18-2.84-1.18m17.36-4.73c-2.22,0-4.02,1.79-4.03,4.01,0,2.22,1.79,4.02,4.01,4.03,2.22,0,4.02-1.79,4.03-4.01,0-1.07-.42-2.09-1.18-2.85-.75-.75-1.77-1.18-2.84-1.18"/></g></g></g><g id="Group_710"><g class="cls-17"><g id="Group_709"><path id="Path_5157" class="cls-2" d="M97.88,131.22l26.82-2.96-2.66-24.14-26.82,2.96,2.66,24.14Zm-26.82,2.96l24.14-2.66-2.66-24.14-24.14,2.66,2.66,24.14Zm23.86-29.78l26.82-2.96-2.96-26.82-26.82,2.96,2.96,26.82Zm-26.82,2.96l24.14-2.66-2.96-26.82-24.14,2.66,2.96,26.82Z"/><path id="Path_5158" class="cls-10" d="M156.94,154.76c-.29,0-.53-.24-.53-.53,0-.29,.24-.53,.53-.53h4.29v-5.36h-20.33c-.29,0-.53-.24-.53-.53v-22.46c0-.29,.24-.53,.53-.53h41.71c.29,0,.53,.24,.53,.53v22.46c0,.29-.24,.53-.53,.53h-20.33v5.36h4.28c.29,0,.53,.24,.53,.53,0,.29-.24,.53-.53,.53h-9.63Zm-15.51-7.48h40.65v-21.4h-40.65v21.4Z"/><path id="Path_5159" class="cls-10" d="M155.33,141.92c-.14,0-.28-.06-.37-.16l-4.81-4.81c-.1-.1-.16-.23-.16-.38,0-.14,.06-.28,.15-.37l4.81-4.81c.21-.2,.55-.2,.75,0,.1,.1,.15,.23,.15,.37,0,.14-.05,.28-.15,.37l-4.44,4.44,4.44,4.44c.1,.1,.16,.23,.15,.38,0,.29-.24,.53-.53,.53"/><path id="Path_5160" class="cls-10" d="M168.17,141.92c-.29,0-.53-.24-.53-.53,0-.14,.06-.28,.16-.38l4.44-4.44-4.44-4.44c-.1-.1-.16-.23-.15-.38,0-.29,.24-.53,.53-.53,.14,0,.28,.06,.38,.16l4.81,4.81c.1,.1,.16,.23,.15,.37,0,.14-.06,.28-.16,.38l-4.81,4.81c-.1,.1-.23,.16-.38,.16"/><path id="Path_5161" class="cls-10" d="M160.15,141.92c-.06,0-.11,0-.17-.03-.28-.09-.43-.39-.34-.67l3.21-9.63c.07-.22,.27-.36,.5-.36,.06,0,.12,0,.17,.03,.28,.09,.43,.39,.33,.67l-3.21,9.63c-.07,.22-.27,.36-.5,.36"/><path id="Path_5162" class="cls-10" d="M233.22,146.79c-1.41-.09-2.49-1.31-2.4-2.72,.06-.96,.65-1.8,1.53-2.19l.63-.27,.72-10.73-8.77-.59-.59,8.78c-.06,.85-.77,1.51-1.62,1.51h-.11l-2.02-.14-.36,.58c-.47,.77-1.3,1.23-2.19,1.23-.06,0-.12,0-.18,0-.21-.01-.41-.05-.61-.12-1.35-.42-2.1-1.86-1.68-3.21,.29-.92,1.07-1.6,2.01-1.76,.15-.03,.3-.04,.45-.04,.06,0,.12,0,.17,0,.96,.06,1.8,.65,2.18,1.53l.28,.62,2.47,.17,.62-9.23-4.47-.3c-4.69-.3-8.24-4.35-7.94-9.04,.27-4.13,3.47-7.47,7.59-7.91l.88-.1,.11-.88c.99-7.41,7.31-12.95,14.79-12.96,.34,0,.69,.01,1.03,.04,6.16,.42,11.44,4.57,13.3,10.46l.22,.69,.72,.09c5.94,.7,10.18,6.08,9.48,12.02-.64,5.45-5.27,9.55-10.75,9.55-.25,0-.5,0-.75-.02l-3.14-.21-.62,9.23,2.47,.17,.36-.58c.47-.77,1.3-1.23,2.19-1.23,.06,0,.12,0,.18,0,.21,.01,.41,.05,.61,.12,1.35,.42,2.1,1.86,1.68,3.21-.29,.92-1.07,1.6-2.01,1.76-.15,.03-.3,.04-.45,.04-.06,0-.11,0-.17,0-.96-.06-1.8-.65-2.18-1.53l-.28-.62-2.02-.14c-.89-.06-1.57-.83-1.51-1.73l.59-8.78-8.77-.59-.73,10.73,.58,.36c1.21,.73,1.59,2.31,.86,3.52-.47,.77-1.3,1.24-2.2,1.23-.04,0-.18,0-.18,0m.17-4.26c-.94,.03-1.67,.81-1.64,1.75,.03,.85,.68,1.55,1.53,1.64h.12c.18,0,.37-.03,.54-.09,.89-.31,1.35-1.28,1.04-2.17-.22-.64-.8-1.08-1.47-1.13h-.12m15.83-2.44c-.94,.03-1.67,.81-1.64,1.75,.03,.85,.68,1.55,1.53,1.64h.11c.18,0,.37-.03,.54-.09,.89-.31,1.35-1.28,1.05-2.17-.22-.64-.8-1.08-1.47-1.13h-.12m-31.21-2.1c-.3,0-.6,.08-.86,.24-.33,.2-.59,.52-.72,.89-.19,.53-.1,1.11,.23,1.56,.3,.41,.76,.67,1.26,.7,.05,0,.09,0,.13,0h.08c.86-.05,1.54-.73,1.6-1.58,.03-.71-.37-1.37-1.02-1.67l-.04-.02-.26-.06c-.14-.03-.27-.05-.41-.05m1.85-23.92c-3.86,0-7.06,2.99-7.34,6.84-.26,4.05,2.8,7.55,6.85,7.82l28.67,1.94c.21,.01,.42,.02,.63,.02,5.33,.01,9.66-4.3,9.68-9.63,.01-5.09-3.93-9.31-9-9.66l-.6-.04c-.26-.02-.48-.21-.53-.46-1.28-5.52-5.79-9.7-11.39-10.56v-.03l-.41-.05-.72-.05c-.31-.02-.63-.03-.94-.03-7.22,0-13.22,5.59-13.74,12.79l-.04,.55c-.02,.31-.28,.54-.59,.55-.21-.01-.38-.02-.54-.02"/></g></g></g></g></g></g></svg>