<?xml version="1.0" encoding="UTF-8"?><svg id="Layer_2" xmlns="http://www.w3.org/2000/svg" xmlns:xlink="http://www.w3.org/1999/xlink" viewBox="0 0 348.86 336"><defs><style>.cls-1{fill:none;}.cls-2{clip-path:url(#clippath);}.cls-3{fill:#fff;}.cls-4{fill:#158bcb;}.cls-5{fill:#701e5e;}.cls-6{fill:#546976;}.cls-7{fill:#9ad8f3;}.cls-8{clip-path:url(#clippath-1);}.cls-9{clip-path:url(#clippath-2);}.cls-10{opacity:.6;}</style><clipPath id="clippath"><rect class="cls-1" width="348.86" height="336"/></clipPath><clipPath id="clippath-1"><rect class="cls-1" width="348.86" height="336"/></clipPath><clipPath id="clippath-2"><rect class="cls-1" x="13.61" width="328.35" height="333.77"/></clipPath></defs><g id="Layer_1-2"><g class="cls-2"><g id="Group_696"><g id="Group_695"><g class="cls-8"><g id="Group_694"><g id="Group_693" class="cls-10" transform="translate(13.611)"><g id="Group_692"><g class="cls-9"><g id="Group_691"><path id="Path_4937" class="cls-7" d="M27.98,103.67c-11.85,26.59-16.47,55.83-13.4,84.78,5.43,48.91,32.28,87.47,58.4,109.14,86.67,71.9,245.33,25.45,266.35-42.28,3.81-12.29,2.74-24.14,1.42-38.72-4.19-46.38-26.29-60.17-41.14-109.41-13.52-44.82-.19-49.86-12.83-69.78C259.33-5.82,180.16-8,125.68,12.72c-20.93,7.96-71.7,32.37-97.7,90.96"/></g></g></g></g><path id="Path_4938" class="cls-4" d="M341.78,149.87h-108.4c-3.91,0-7.09,3.17-7.09,7.09v40.22c0,.13,0,.26-.01,.39l-7.26,130.95c-.22,3.91,2.78,7.25,6.68,7.47,.13,0,.26,.01,.39,.01h108.38c3.76,0,6.87-2.94,7.08-6.69l7.3-131.52c0-.13,.01-.26,.01-.39v-40.44c0-3.91-3.17-7.09-7.09-7.09"/><path id="Path_4939" class="cls-7" d="M334.74,150.48h-110.58c-3.31,0-6,2.69-6,6v40.79l-7.26,131.78c-.18,3.31,2.35,6.14,5.66,6.32,.11,0,.22,0,.33,0h110.56c3.19,0,5.82-2.49,5.99-5.67l7.3-132.09v-41.14c0-3.31-2.69-6-6-6"/><path id="Path_4940" d="M327.46,335.98h-110.56c-3.65,0-6.61-2.96-6.61-6.61,0-.12,0-.24,0-.36l.4-7.19c.01-.33,.29-.59,.63-.57h.01c.33,.02,.59,.31,.57,.64l-.4,7.19c-.16,2.97,2.11,5.52,5.09,5.68,.1,0,.2,0,.3,0h110.56c2.86,0,5.23-2.24,5.39-5.1l7.3-132.09v-41.1c0-2.98-2.42-5.39-5.39-5.39h-110.58c-2.98,0-5.39,2.42-5.39,5.39v40.79l-5.43,98.63c-.03,.33-.33,.58-.66,.55-.31-.03-.55-.3-.55-.61l5.43-98.59v-40.75c0-3.65,2.96-6.6,6.61-6.61h110.58c3.65,0,6.6,2.96,6.61,6.61v41.14l-7.3,132.12c-.19,3.5-3.09,6.24-6.6,6.24"/><path id="Path_4941" d="M334.09,198.06h-109.48c-.34-.01-.6-.3-.58-.63,.01-.32,.27-.57,.58-.58h109.48c.34,.01,.6,.3,.58,.63-.01,.32-.27,.57-.58,.58"/><path id="Path_4942" class="cls-3" d="M235.49,161.91h87.92c2.62,0,4.74,2.12,4.74,4.74h0v14.79c0,2.62-2.12,4.74-4.74,4.74h-87.92c-2.62,0-4.74-2.12-4.74-4.74h0v-14.79c0-2.62,2.12-4.74,4.74-4.74h0"/><path id="Path_4943" d="M323.42,186.79h-87.92c-2.95,0-5.34-2.39-5.35-5.35v-14.79c0-2.95,2.39-5.34,5.35-5.35h87.92c2.95,0,5.34,2.39,5.35,5.35v14.79c0,2.95-2.39,5.34-5.35,5.35m-87.92-24.26c-2.28,0-4.13,1.85-4.13,4.13v14.79c0,2.28,1.85,4.13,4.13,4.13h87.92c2.28,0,4.13-1.85,4.13-4.13v-14.79c0-2.28-1.85-4.13-4.13-4.13h-87.92Z"/><path id="Path_4944" class="cls-7" d="M285.74,168.88h32.09c1.46,0,2.65,1.18,2.65,2.65v5.05c0,1.46-1.18,2.65-2.65,2.65h-32.09c-1.46,0-2.65-1.18-2.65-2.65v-5.05c0-1.46,1.18-2.65,2.65-2.65"/><path id="Path_4945" class="cls-7" d="M258.62,168.88h15.27c1.46,0,2.65,1.18,2.65,2.65v5.05c0,1.46-1.18,2.65-2.65,2.65h-15.27c-1.46,0-2.65-1.18-2.65-2.65v-5.05c0-1.46,1.18-2.65,2.65-2.65"/><path id="Path_4946" class="cls-3" d="M270.13,298.25l.88-14.78c.1-1.7-1.2-3.16-2.9-3.26-.06,0-.12,0-.18,0h-15.49c-1.63,0-2.98,1.27-3.08,2.9l-.88,14.78c-.1,1.7,1.2,3.16,2.9,3.26,.06,0,.12,0,.18,0h15.49c1.63,0,2.98-1.27,3.08-2.9"/><path id="Path_4947" class="cls-3" d="M298.9,298.25l.88-14.78c.1-1.7-1.2-3.16-2.9-3.26-.06,0-.12,0-.18,0h-15.49c-1.63,0-2.98,1.27-3.08,2.9l-.88,14.78c-.1,1.7,1.2,3.16,2.9,3.26,.06,0,.12,0,.18,0h15.49c1.63,0,2.98-1.27,3.08-2.9"/><path id="Path_4948" class="cls-3" d="M268.62,325.65l.88-15.19c.1-1.7-1.2-3.16-2.9-3.26-.06,0-.12,0-.18,0h-15.49c-1.64,0-2.99,1.28-3.08,2.91l-.88,15.19c-.1,1.7,1.2,3.16,2.9,3.26,.06,0,.12,0,.18,0h15.49c1.64,0,2.99-1.28,3.08-2.91"/><path id="Path_4949" class="cls-3" d="M297.39,325.65l.88-15.19c.1-1.7-1.2-3.16-2.9-3.26-.06,0-.12,0-.18,0h-15.49c-1.64,0-2.99,1.28-3.08,2.91l-.88,15.19c-.1,1.7,1.2,3.16,2.9,3.26,.06,0,.12,0,.18,0h15.49c1.64,0,2.99-1.28,3.08-2.91"/><path id="Path_4950" class="cls-3" d="M242.86,270.84l.88-14.78c.1-1.7-1.2-3.16-2.9-3.26-.06,0-.12,0-.18,0h-15.49c-1.63,0-2.98,1.27-3.08,2.9l-.88,14.78c-.1,1.7,1.2,3.16,2.9,3.26,.06,0,.12,0,.18,0h15.49c1.63,0,2.98-1.27,3.08-2.9"/><path id="Path_4951" class="cls-3" d="M271.63,270.84l.88-14.78c.1-1.7-1.2-3.16-2.9-3.26-.06,0-.12,0-.18,0h-15.49c-1.63,0-2.98,1.27-3.08,2.9l-.88,14.78c-.1,1.7,1.2,3.16,2.9,3.26,.06,0,.12,0,.18,0h15.49c1.63,0,2.98-1.27,3.08-2.9"/><path id="Path_4952" class="cls-3" d="M300.4,270.84l.88-14.78c.1-1.7-1.2-3.16-2.9-3.26-.06,0-.12,0-.18,0h-15.49c-1.63,0-2.98,1.27-3.08,2.9l-.88,14.78c-.1,1.7,1.2,3.16,2.9,3.26,.06,0,.12,0,.18,0h15.49c1.63,0,2.98-1.27,3.08-2.9"/><path id="Path_4953" class="cls-3" d="M329.17,270.84l.88-14.78c.1-1.7-1.2-3.16-2.9-3.26-.06,0-.12,0-.18,0h-15.49c-1.63,0-2.98,1.27-3.08,2.9l-.88,14.78c-.1,1.7,1.2,3.16,2.9,3.26,.06,0,.12,0,.18,0h15.49c1.63,0,2.98-1.27,3.08-2.9"/><path id="Path_4954" class="cls-3" d="M244.37,243.43l.88-14.78c.1-1.7-1.2-3.16-2.9-3.26-.06,0-.12,0-.18,0h-15.49c-1.63,0-2.98,1.27-3.08,2.9l-.88,14.78c-.1,1.7,1.2,3.16,2.9,3.26,.06,0,.12,0,.18,0h15.49c1.63,0,2.98-1.27,3.08-2.9"/><path id="Path_4955" class="cls-3" d="M273.14,243.43l.88-14.78c.1-1.7-1.2-3.16-2.9-3.26-.06,0-.12,0-.18,0h-15.49c-1.63,0-2.98,1.27-3.08,2.9l-.88,14.78c-.1,1.7,1.2,3.16,2.9,3.26,.06,0,.12,0,.18,0h15.49c1.63,0,2.98-1.27,3.08-2.9"/><path id="Path_4956" class="cls-3" d="M301.91,243.43l.88-14.78c.1-1.7-1.2-3.16-2.9-3.26-.06,0-.12,0-.18,0h-15.49c-1.63,0-2.98,1.27-3.08,2.9l-.88,14.78c-.1,1.7,1.2,3.16,2.9,3.26,.06,0,.12,0,.18,0h15.49c1.63,0,2.98-1.27,3.08-2.9"/><path id="Path_4957" class="cls-3" d="M330.68,243.43l.88-14.78c.1-1.7-1.2-3.16-2.9-3.26-.06,0-.12,0-.18,0h-15.49c-1.63,0-2.98,1.27-3.08,2.9l-.88,14.78c-.1,1.7,1.2,3.16,2.9,3.26,.06,0,.12,0,.18,0h15.49c1.63,0,2.98-1.27,3.08-2.9"/><path id="Path_4958" class="cls-3" d="M241.35,298.25l.88-14.78c.1-1.7-1.2-3.16-2.9-3.26-.06,0-.12,0-.18,0h-15.49c-1.63,0-2.98,1.27-3.08,2.9l-.88,14.78c-.1,1.7,1.2,3.16,2.9,3.26,.06,0,.12,0,.18,0h15.49c1.63,0,2.98-1.27,3.08-2.9"/><path id="Path_4959" class="cls-3" d="M239.85,325.65l.88-15.19c.1-1.7-1.2-3.16-2.9-3.26-.06,0-.12,0-.18,0h-15.49c-1.64,0-2.99,1.28-3.08,2.91l-.88,15.19c-.1,1.7,1.2,3.16,2.9,3.26,.06,0,.12,0,.18,0h15.49c1.64,0,2.99-1.28,3.08-2.91"/><path id="Path_4960" class="cls-4" d="M326.16,325.59l2.4-42.33c.1-1.7-1.21-3.16-2.91-3.26-.06,0-.12,0-.17,0h-15.5c-1.64,0-2.99,1.28-3.08,2.91l-2.4,42.33c-.1,1.7,1.2,3.16,2.91,3.26,.06,0,.12,0,.17,0h15.49c1.64,0,2.99-1.28,3.08-2.91"/><path id="Path_4961" class="cls-3" d="M224.89,206.44l-.33,5.37c-.07,1.19,.83,2.21,2.02,2.28,.04,0,.09,0,.13,0h17.36c1.14,0,2.08-.89,2.15-2.02l.33-5.37c.07-1.19-.83-2.21-2.02-2.28-.04,0-.09,0-.13,0h-17.36c-1.14,0-2.08,.89-2.15,2.02"/><path id="Path_4962" class="cls-3" d="M253.66,206.44l-.33,5.37c-.07,1.19,.83,2.21,2.02,2.28,.04,0,.09,0,.13,0h17.36c1.14,0,2.08-.89,2.15-2.02l.33-5.37c.07-1.19-.83-2.21-2.02-2.28-.04,0-.09,0-.13,0h-17.36c-1.14,0-2.08,.89-2.15,2.02"/><path id="Path_4963" class="cls-3" d="M282.44,206.44l-.33,5.37c-.07,1.19,.83,2.21,2.02,2.28,.04,0,.09,0,.13,0h17.36c1.14,0,2.08-.89,2.15-2.02l.33-5.37c.07-1.19-.83-2.21-2.02-2.28-.04,0-.09,0-.13,0h-17.36c-1.14,0-2.08,.89-2.15,2.02"/><path id="Path_4964" class="cls-4" d="M311.21,206.41l-.33,5.36c-.07,1.19,.83,2.21,2.02,2.28,.04,0,.09,0,.13,0h17.36c1.14,0,2.08-.89,2.15-2.02l.33-5.36c.07-1.19-.83-2.21-2.02-2.28-.04,0-.09,0-.13,0h-17.36c-1.14,0-2.08,.89-2.15,2.02"/><path id="Path_4965" class="cls-3" d="M325.29,101.32c-1.18,11.69-11.44,20.45-22.92,19.55-11.28-.95-19.66-10.86-18.72-22.14,.02-.22,.04-.44,.07-.66,1.18-11.69,11.44-20.45,22.92-19.55,11.28,.95,19.66,10.86,18.72,22.14-.02,.22-.04,.44-.07,.66"/><path id="Path_4966" class="cls-6" d="M304.42,121.7c-2.98,0-5.93-.65-8.64-1.9-5.29-2.43-9.37-6.9-11.3-12.4-.88-2.44-1.33-5-1.33-7.59,0-.34,.27-.61,.61-.61h0c.34,0,.61,.27,.61,.61,0,2.45,.43,4.88,1.26,7.18,1.82,5.19,5.67,9.41,10.67,11.71,4.79,2.21,10.28,2.37,15.2,.46,10.42-4.02,15.76-16.02,11.9-26.75-1.82-5.19-5.67-9.42-10.67-11.71-4.79-2.21-10.28-2.37-15.2-.46-4.74,1.84-8.62,5.39-10.89,9.95-.15,.3-.52,.42-.82,.27-.3-.15-.42-.52-.27-.82,2.4-4.83,6.51-8.58,11.53-10.54,5.22-2.03,11.05-1.86,16.14,.49,5.29,2.43,9.37,6.9,11.3,12.4,4.08,11.35-1.57,24.05-12.61,28.3-2.39,.93-4.93,1.41-7.5,1.41"/><path id="Path_4967" class="cls-4" d="M301.99,112.17l.3-2.94c-1.78-.19-3.5-.78-5.03-1.73l1.28-3.55c1.46,.99,3.14,1.59,4.9,1.75,1.73,.13,2.98-.45,3.11-1.69,.12-1.18-.78-1.99-2.95-2.94-3.14-1.37-5.2-3.09-4.89-6.09,.27-2.72,2.37-4.71,5.68-5.1l.3-2.94,2.97,.23-.28,2.72c1.51,.14,2.98,.61,4.3,1.36l-1.23,3.43c-1.29-.79-2.75-1.26-4.27-1.39-1.97-.15-2.7,.66-2.78,1.53-.1,1.02,.89,1.75,3.38,2.94,3.48,1.58,4.77,3.4,4.49,6.18-.28,2.75-2.43,4.95-5.98,5.3l-.32,3.15-2.98-.24Z"/><path id="Path_4968" class="cls-5" d="M8.27,221.21l80.96-31.91c3.11-1.22,4.63-4.74,3.41-7.84-.35-.88-.9-1.67-1.6-2.3l-9.85-8.77c-2.49-2.22-2.71-6.04-.5-8.53l42.78-48.19c2.22-2.5,6.04-2.72,8.54-.51l57.34,50.91c2.5,2.22,6.32,1.99,8.54-.51h0L312.47,34.92c2.22-2.5,1.99-6.32-.51-8.53l-20.96-18.61c-2.5-2.22-6.32-1.99-8.54,.51l-87.95,98.62c-2.22,2.5-6.04,2.72-8.54,.51l-57.32-50.9c-2.5-2.22-6.32-1.99-8.54,.51L50.75,135.15c-2.22,2.5-6.04,2.72-8.54,.51h0l-10.62-9.47c-2.49-2.22-6.32-2-8.54,.49-.65,.72-1.11,1.59-1.35,2.54L.19,214.1c-.82,3.24,1.14,6.53,4.38,7.35,1.23,.31,2.52,.23,3.7-.24"/><path id="Path_4969" class="cls-4" d="M162.21,315.25v9.02c0,2.73-3.15,5.47-9.5,7.59-12.7,4.24-33.43,4.42-46.71,.45-.22-.07-.43-.13-.65-.2-6.73-2.12-10.11-4.93-10.11-7.76v-9.02c0,2.82,3.38,5.64,10.1,7.76,.21,.07,.43,.13,.65,.2,13.28,3.97,34.01,3.78,46.71-.45,6.35-2.12,9.51-4.86,9.51-7.59"/><path id="Path_4970" class="cls-7" d="M151.44,307.29c.22,.07,.43,.13,.65,.2,13.24,4.17,13.51,11.04,.6,15.35-12.7,4.24-33.43,4.42-46.71,.45-.22-.07-.43-.13-.65-.2-13.24-4.17-13.51-11.04-.6-15.35,12.7-4.24,33.43-4.42,46.7-.46"/><path id="Path_4971" class="cls-4" d="M157.5,303.48v9.02c0,2.73-3.15,5.47-9.5,7.59-12.7,4.24-33.43,4.42-46.71,.45-.22-.07-.43-.13-.65-.2-6.73-2.12-10.11-4.93-10.11-7.76v-9.02c0,2.82,3.38,5.64,10.1,7.76,.21,.07,.43,.13,.65,.2,13.28,3.97,34.01,3.78,46.71-.45,6.35-2.12,9.51-4.86,9.51-7.59"/><path id="Path_4972" class="cls-7" d="M146.74,295.52c.22,.07,.43,.13,.65,.2,13.24,4.17,13.51,11.04,.6,15.35-12.7,4.24-33.43,4.42-46.71,.45-.22-.07-.43-.13-.65-.2-13.24-4.17-13.51-11.04-.6-15.35,12.7-4.24,33.43-4.42,46.7-.46"/><path id="Path_4973" class="cls-4" d="M160.92,290.97v9.02c0,2.73-3.15,5.47-9.5,7.59-12.7,4.24-33.43,4.42-46.71,.45-.22-.07-.43-.13-.65-.2-6.73-2.12-10.11-4.93-10.11-7.76v-9.02c0,2.82,3.38,5.64,10.1,7.76,.21,.07,.43,.13,.65,.2,13.28,3.97,34.01,3.78,46.71-.45,6.35-2.12,9.51-4.86,9.51-7.59"/><path id="Path_4974" class="cls-7" d="M150.16,283.02c.22,.07,.43,.13,.65,.2,13.24,4.17,13.51,11.04,.6,15.35-12.7,4.24-33.43,4.42-46.71,.45-.22-.07-.43-.13-.65-.2-13.24-4.17-13.51-11.04-.6-15.35,12.7-4.24,33.43-4.42,46.7-.46"/><path id="Path_4975" class="cls-4" d="M155.61,278.36v9.02c0,2.73-3.15,5.47-9.5,7.59-12.7,4.24-33.43,4.42-46.71,.45-.22-.07-.43-.13-.65-.2-6.73-2.12-10.11-4.93-10.11-7.76v-9.02c0,2.82,3.38,5.64,10.1,7.76,.21,.07,.43,.13,.65,.2,13.28,3.97,34.01,3.78,46.71-.45,6.35-2.12,9.51-4.86,9.51-7.59"/><path id="Path_4976" class="cls-7" d="M144.85,270.41c.22,.07,.43,.13,.65,.2,13.24,4.17,13.51,11.04,.6,15.35-12.7,4.24-33.43,4.42-46.71,.45-.22-.07-.43-.13-.65-.2-13.24-4.17-13.51-11.04-.6-15.35,12.7-4.24,33.43-4.42,46.7-.46"/><path id="Path_4977" class="cls-4" d="M162.19,267.98v9.02c0,2.73-3.15,5.47-9.5,7.59-12.7,4.24-33.43,4.42-46.71,.45-.22-.07-.43-.13-.65-.2-6.73-2.12-10.11-4.93-10.11-7.76v-9.02c0,2.82,3.38,5.64,10.1,7.76,.21,.07,.43,.13,.65,.2,13.28,3.97,34.01,3.78,46.71-.45,6.35-2.12,9.51-4.86,9.51-7.59"/><path id="Path_4978" class="cls-7" d="M151.43,260.02c.22,.07,.43,.13,.65,.2,13.24,4.17,13.51,11.04,.6,15.35-12.7,4.24-33.43,4.42-46.71,.45-.22-.07-.43-.13-.65-.2-13.24-4.17-13.51-11.04-.6-15.35,12.7-4.24,33.43-4.42,46.7-.46"/><path id="Path_4979" class="cls-4" d="M154.41,257.69v9.02c0,2.73-3.15,5.47-9.5,7.59-12.7,4.24-33.43,4.42-46.71,.45-.22-.07-.43-.13-.65-.2-6.73-2.12-10.11-4.93-10.11-7.76v-9.02c0,2.82,3.38,5.64,10.1,7.76,.21,.07,.43,.13,.65,.2,13.28,3.97,34.01,3.79,46.71-.45,6.35-2.12,9.51-4.86,9.51-7.59"/><path id="Path_4980" class="cls-7" d="M143.65,249.73c.22,.07,.43,.13,.65,.2,13.24,4.17,13.51,11.04,.6,15.35-12.7,4.24-33.43,4.42-46.71,.45-.22-.07-.43-.13-.65-.2-13.24-4.17-13.51-11.04-.6-15.35,12.7-4.24,33.43-4.42,46.7-.46"/><path id="Path_4981" class="cls-4" d="M160.08,246.1v9.02c0,2.73-3.15,5.47-9.5,7.59-12.7,4.24-33.43,4.42-46.71,.45-.22-.07-.43-.13-.65-.2-6.73-2.12-10.11-4.93-10.11-7.76v-9.02c0,2.82,3.38,5.64,10.1,7.76,.21,.07,.43,.13,.65,.2,13.28,3.97,34.01,3.78,46.71-.45,6.35-2.12,9.51-4.86,9.51-7.59"/><path id="Path_4982" d="M126.47,266.65c-7.69,.1-15.35-.88-22.77-2.9-.22-.07-.44-.13-.66-.2-6.79-2.14-10.53-5.1-10.54-8.34v-9.02h0c0-.34,.27-.61,.61-.61h0c.34,0,.61,.27,.61,.61,0,2.62,3.53,5.24,9.69,7.18,.21,.07,.42,.13,.64,.2,13.1,3.91,33.89,3.71,46.34-.45,5.78-1.93,9.1-4.49,9.09-7.02h0c0-.34,.27-.61,.61-.61h0c.34,0,.61,.27,.61,.61h0v9.02c0,3.13-3.51,6.03-9.92,8.17-6.69,2.23-15.49,3.36-24.3,3.36m-32.76-17.34v5.9c0,2.62,3.53,5.24,9.68,7.18,.21,.07,.42,.13,.64,.2,13.1,3.91,33.89,3.71,46.34-.45,5.78-1.93,9.1-4.49,9.09-7.02v-5.9c-1.54,1.91-4.5,3.65-8.71,5.05-12.87,4.3-33.55,4.5-47.07,.46-.22-.07-.44-.13-.66-.2-4.53-1.43-7.71-3.22-9.32-5.22"/><path id="Path_4983" class="cls-3" d="M149.32,238.14c.22,.07,.43,.13,.65,.2,13.24,4.17,13.51,11.04,.6,15.35-12.7,4.24-33.43,4.42-46.71,.45-.22-.07-.43-.13-.65-.2-13.24-4.17-13.51-11.04-.6-15.35,12.7-4.24,33.43-4.42,46.7-.46"/><path id="Path_4984" d="M126.46,257.62c-7.69,.1-15.35-.88-22.77-2.9-.22-.07-.44-.13-.66-.2-6.77-2.13-10.51-5.08-10.54-8.3-.03-3.14,3.5-6.06,9.92-8.2,12.87-4.3,33.55-4.5,47.07-.46,.22,.07,.44,.13,.66,.2,6.77,2.13,10.51,5.08,10.54,8.3,.03,3.14-3.5,6.05-9.92,8.2-6.69,2.23-15.49,3.36-24.3,3.36m.29-21.71c-8.73,0-17.46,1.09-23.94,3.25-5.8,1.94-9.12,4.5-9.09,7.04,.02,2.62,3.55,5.23,9.68,7.16,.21,.07,.42,.13,.64,.2,13.1,3.91,33.89,3.71,46.34-.45,5.8-1.94,9.11-4.5,9.09-7.04-.02-2.62-3.55-5.23-9.69-7.16-.21-.07-.42-.13-.64-.2h0c-7.3-1.97-14.84-2.91-22.4-2.8"/><path id="Path_4985" class="cls-4" d="M134.8,239.75l-1.6,1.41c1.15,.14,2.28,.35,3.4,.64,.49,.13,.97,.29,1.45,.48l-3.15,1.69c-.58-.22-1.17-.42-1.77-.59-.99-.26-2-.44-3.02-.54-2.44-.26-3.74,.1-4.25,.55-.6,.53,.33,1,2.94,1.86,3.7,1.15,4.5,2.22,2.86,3.66-1.62,1.42-5.38,2.38-10.06,2.23l-1.86,1.63-3.68-.4,1.73-1.52c-1.25-.16-2.48-.39-3.7-.71-.65-.16-1.29-.39-1.9-.66l3.26-1.75c.72,.33,1.47,.59,2.24,.79,1.05,.28,2.12,.47,3.19,.58,2.14,.23,4.01,.04,4.74-.6,.69-.61-.07-1.12-2.39-1.82-3.36-1.01-5.19-2.1-3.42-3.65,1.61-1.41,5.2-2.26,9.6-2.16l1.73-1.51,3.68,.39Z"/><path id="Path_4986" class="cls-4" d="M84.69,315.5v9.02c0,2.73-3.15,5.47-9.5,7.59-12.7,4.24-33.43,4.42-46.71,.45-.22-.07-.43-.13-.65-.2-6.73-2.12-10.11-4.93-10.11-7.76v-9.02c0,2.82,3.38,5.64,10.1,7.76,.21,.07,.43,.13,.65,.2,13.28,3.97,34.01,3.78,46.71-.45,6.35-2.12,9.51-4.86,9.51-7.59"/><path id="Path_4987" class="cls-7" d="M73.93,307.55c.22,.07,.43,.13,.65,.2,13.24,4.17,13.51,11.04,.6,15.35-12.7,4.24-33.43,4.42-46.71,.45-.22-.07-.43-.13-.65-.2-13.24-4.17-13.51-11.04-.6-15.35,12.7-4.24,33.43-4.42,46.7-.46"/><path id="Path_4988" class="cls-4" d="M88.27,304.17v9.02c0,2.73-3.15,5.47-9.5,7.59-12.7,4.24-33.43,4.42-46.71,.45-.22-.07-.43-.13-.65-.2-6.73-2.12-10.11-4.93-10.11-7.76v-9.02c0,2.82,3.38,5.64,10.1,7.76,.22,.07,.43,.13,.65,.2,13.28,3.97,34.01,3.78,46.71-.45,6.35-2.12,9.51-4.86,9.51-7.59"/><path id="Path_4989" class="cls-7" d="M77.51,296.21c.22,.07,.43,.13,.65,.2,13.24,4.17,13.51,11.04,.6,15.35-12.7,4.24-33.43,4.42-46.71,.45-.22-.07-.43-.13-.65-.2-13.24-4.17-13.51-11.04-.6-15.35,12.7-4.24,33.43-4.42,46.7-.46"/><path id="Path_4990" class="cls-4" d="M83.2,294.26v9.02c0,2.73-3.15,5.47-9.5,7.59-12.7,4.24-33.43,4.42-46.71,.45-.22-.07-.43-.13-.65-.2-6.73-2.12-10.11-4.93-10.11-7.76v-9.02c0,2.82,3.38,5.64,10.1,7.76,.21,.07,.43,.13,.65,.2,13.28,3.97,34.01,3.78,46.71-.45,6.35-2.12,9.51-4.86,9.51-7.59"/><path id="Path_4991" class="cls-7" d="M72.44,286.3c.22,.07,.43,.13,.65,.2,13.24,4.17,13.51,11.04,.6,15.35-12.7,4.24-33.43,4.42-46.71,.45-.22-.07-.43-.13-.65-.2-13.24-4.17-13.51-11.04-.6-15.35,12.7-4.24,33.43-4.42,46.7-.46"/><path id="Path_4992" class="cls-4" d="M85.96,281.14v9.02c0,2.73-3.15,5.47-9.5,7.59-12.7,4.24-33.43,4.42-46.71,.45-.22-.07-.43-.13-.65-.2-6.73-2.12-10.11-4.93-10.11-7.76v-9.02c0,2.82,3.38,5.64,10.1,7.76,.21,.07,.43,.13,.65,.2,13.28,3.97,34.01,3.78,46.71-.45,6.35-2.12,9.51-4.86,9.51-7.59"/><path id="Path_4993" class="cls-7" d="M75.2,273.19c.22,.07,.43,.13,.65,.2,13.24,4.17,13.51,11.04,.6,15.35-12.7,4.24-33.43,4.42-46.71,.45-.22-.07-.43-.13-.65-.2-13.24-4.17-13.51-11.04-.6-15.35,12.7-4.24,33.43-4.42,46.7-.46"/><path id="Path_4994" class="cls-4" d="M84.55,270.04v9.02c0,2.73-3.15,5.47-9.5,7.59-12.7,4.24-33.43,4.42-46.71,.45-.22-.07-.43-.13-.65-.2-6.73-2.12-10.11-4.93-10.11-7.76v-9.02c0,2.82,3.38,5.64,10.1,7.76,.21,.07,.43,.13,.65,.2,13.28,3.97,34.01,3.79,46.71-.45,6.35-2.12,9.51-4.86,9.51-7.59"/><path id="Path_4995" class="cls-7" d="M73.79,262.09c.22,.07,.43,.13,.65,.2,13.24,4.17,13.51,11.04,.6,15.35-12.7,4.24-33.43,4.42-46.71,.45-.22-.07-.43-.13-.65-.2-13.24-4.17-13.51-11.04-.6-15.35,12.7-4.24,33.43-4.42,46.7-.46"/><path id="Path_4996" class="cls-4" d="M81.9,257.51v9.02c0,2.73-3.15,5.47-9.5,7.59-12.7,4.24-33.43,4.42-46.71,.45-.22-.07-.43-.13-.65-.2-6.73-2.12-10.11-4.93-10.11-7.76v-9.02c0,2.82,3.38,5.64,10.1,7.76,.21,.07,.43,.13,.65,.2,13.28,3.97,34.01,3.78,46.71-.45,6.35-2.12,9.51-4.86,9.51-7.59"/><path id="Path_4997" class="cls-7" d="M71.14,249.55c.22,.07,.43,.13,.65,.2,13.24,4.17,13.51,11.04,.6,15.35-12.7,4.24-33.43,4.42-46.71,.45-.22-.07-.43-.13-.65-.2-13.24-4.17-13.51-11.04-.6-15.35,12.7-4.24,33.43-4.42,46.7-.46"/><path id="Path_4998" class="cls-4" d="M84.71,245.52v9.02c0,2.73-3.15,5.47-9.5,7.59-12.7,4.24-33.43,4.42-46.71,.45-.22-.07-.43-.13-.65-.2-6.73-2.12-10.11-4.93-10.11-7.76v-9.02c0,2.82,3.38,5.64,10.1,7.76,.21,.07,.43,.13,.65,.2,13.28,3.97,34.01,3.79,46.71-.45,6.35-2.12,9.51-4.86,9.51-7.59"/><path id="Path_4999" class="cls-7" d="M73.95,237.56c.22,.07,.43,.13,.65,.2,13.24,4.17,13.51,11.04,.6,15.35-12.7,4.24-33.43,4.42-46.71,.45-.22-.07-.43-.13-.65-.2-13.24-4.17-13.51-11.04-.6-15.35,12.7-4.24,33.43-4.42,46.7-.46"/><path id="Path_5000" class="cls-4" d="M80.29,236.34v9.02c0,2.73-3.15,5.47-9.5,7.59-12.7,4.24-33.43,4.42-46.71,.45-.22-.07-.43-.13-.65-.2-6.73-2.12-10.11-4.93-10.11-7.76v-9.02c0,2.82,3.38,5.64,10.1,7.76,.21,.07,.43,.13,.65,.2,13.28,3.97,34.01,3.78,46.71-.45,6.35-2.12,9.51-4.86,9.51-7.59"/><path id="Path_5001" class="cls-7" d="M69.53,228.38c.22,.07,.43,.13,.65,.2,13.24,4.17,13.51,11.04,.6,15.35-12.7,4.24-33.43,4.42-46.71,.45-.22-.07-.43-.13-.65-.2-13.24-4.17-13.51-11.04-.6-15.35,12.7-4.24,33.43-4.42,46.7-.46"/><path id="Path_5002" class="cls-4" d="M84.57,223.77v9.02c0,2.73-3.15,5.47-9.5,7.59-12.7,4.24-33.43,4.42-46.71,.45-.22-.07-.43-.13-.65-.2-6.73-2.12-10.11-4.93-10.11-7.76v-9.02c0,2.82,3.38,5.64,10.1,7.76,.21,.07,.43,.13,.65,.2,13.28,3.97,34.01,3.79,46.71-.45,6.35-2.12,9.51-4.86,9.51-7.59"/><path id="Path_5003" class="cls-7" d="M73.81,215.81c.22,.07,.43,.13,.65,.2,13.24,4.17,13.51,11.04,.6,15.35-12.7,4.24-33.43,4.42-46.71,.45-.22-.07-.43-.13-.65-.2-13.24-4.17-13.51-11.04-.6-15.35,12.7-4.24,33.43-4.42,46.7-.46"/><path id="Path_5004" class="cls-4" d="M80.66,210.47v9.02c0,2.73-3.15,5.47-9.5,7.59-12.7,4.24-33.43,4.42-46.71,.45-.22-.07-.43-.13-.65-.2-6.73-2.12-10.11-4.93-10.11-7.76v-9.02c0,2.82,3.38,5.64,10.1,7.76,.21,.07,.43,.13,.65,.2,13.28,3.97,34.01,3.78,46.71-.45,6.35-2.12,9.51-4.86,9.51-7.59"/><path id="Path_5005" class="cls-7" d="M69.9,202.51c.22,.07,.43,.13,.65,.2,13.24,4.17,13.51,11.04,.6,15.35-12.7,4.24-33.43,4.42-46.71,.45-.22-.07-.43-.13-.65-.2-13.24-4.17-13.51-11.04-.6-15.35,12.7-4.24,33.43-4.42,46.7-.45"/><path id="Path_5006" class="cls-4" d="M83.16,197.86v9.02c0,2.73-3.15,5.47-9.5,7.59-12.7,4.24-33.43,4.42-46.71,.45-.22-.07-.43-.13-.65-.2-6.73-2.12-10.11-4.93-10.11-7.76v-9.02c0,2.82,3.38,5.64,10.1,7.76,.21,.07,.43,.13,.65,.2,13.28,3.96,34.01,3.79,46.71-.45,6.35-2.12,9.51-4.86,9.51-7.59"/><path id="Path_5007" d="M49.55,218.41c-7.69,.1-15.35-.88-22.77-2.9-.22-.07-.44-.13-.66-.2-6.79-2.14-10.53-5.1-10.54-8.33v-9.02h0c0-.34,.27-.61,.61-.61h0c.34,0,.61,.27,.61,.61,0,2.62,3.53,5.24,9.69,7.18,.21,.07,.42,.13,.64,.2,13.1,3.91,33.89,3.71,46.34-.45,5.78-1.93,9.1-4.49,9.09-7.02h0c0-.34,.27-.61,.61-.61h0c.34,0,.61,.27,.61,.61h0v9.02c0,3.13-3.51,6.03-9.92,8.17-6.69,2.23-15.49,3.36-24.3,3.36m-32.76-17.34v5.9c0,2.62,3.53,5.24,9.69,7.18,.21,.07,.42,.13,.64,.2,13.1,3.91,33.89,3.71,46.34-.45,5.78-1.93,9.1-4.49,9.09-7.02v-5.9c-1.54,1.91-4.5,3.65-8.71,5.05-12.87,4.3-33.55,4.5-47.08,.46-.22-.07-.44-.13-.66-.2-4.53-1.43-7.71-3.22-9.32-5.22"/><path id="Path_5008" class="cls-3" d="M72.4,189.9c.22,.07,.43,.13,.65,.2,13.24,4.17,13.51,11.04,.6,15.35-12.7,4.24-33.43,4.42-46.71,.45-.22-.07-.43-.13-.65-.2-13.24-4.17-13.51-11.04-.6-15.35,12.7-4.24,33.43-4.42,46.7-.45"/><path id="Path_5009" d="M49.54,209.39c-7.69,.1-15.35-.88-22.77-2.9-.22-.07-.44-.13-.66-.2-6.77-2.13-10.51-5.08-10.54-8.3-.03-3.14,3.5-6.06,9.92-8.2,12.87-4.3,33.55-4.5,47.07-.46h0c.22,.07,.44,.13,.66,.2,6.77,2.13,10.51,5.08,10.54,8.3,.03,3.14-3.5,6.05-9.92,8.2-6.69,2.23-15.49,3.36-24.3,3.36m.29-21.71c-8.73,0-17.47,1.09-23.94,3.25-5.8,1.94-9.11,4.5-9.09,7.04,.02,2.62,3.55,5.23,9.69,7.16,.21,.07,.42,.13,.64,.2,13.1,3.91,33.89,3.71,46.34-.45,5.8-1.94,9.11-4.5,9.09-7.04-.02-2.62-3.55-5.23-9.69-7.16-.21-.07-.42-.13-.64-.2-7.3-1.97-14.84-2.91-22.4-2.8"/><path id="Path_5010" class="cls-4" d="M57.26,192.18l-.45,1.94c-2.52-.16-5.05-.14-7.56,.06-3.27,.28-4.08,.82-3.83,1.27,.18,.21,.43,.35,.7,.38,2.02,.34,4.07,.51,6.12,.49,2.54-.01,5.07,.25,7.56,.78,1.01,.15,1.93,.7,2.54,1.53,.8,1.43-1.7,2.93-7.31,3.74l.92,1.64-4.94,.42-.85-1.53c-2.98,.22-5.97,.23-8.96,.03l.46-2.01c2.92,.24,5.84,.24,8.76,0,2.88-.24,4.64-.76,4.29-1.41-.23-.28-.55-.46-.91-.51-1.72-.32-3.47-.47-5.22-.44-2.8,.03-5.6-.24-8.34-.81-.94-.14-1.79-.63-2.38-1.38-.79-1.42,1.72-2.79,6.92-3.58l-.85-1.53,4.94-.42,.79,1.42c2.53-.2,5.07-.23,7.61-.08"/><path id="Path_5011" class="cls-3" d="M193.93,285.41c.12,.34,13.69,14.09,13.69,14.09l-8.34,3.82-10.97-11.97,5.62-5.94Z"/><path id="Path_5012" d="M199.28,303.93c-.17,0-.33-.07-.45-.2l-10.97-11.97c-.22-.23-.21-.6,0-.83l5.62-5.94c.23-.24,.61-.26,.86-.03,.04,.04,.07,.08,.1,.13,.54,.68,8.41,8.71,13.61,13.98,.24,.24,.23,.62,0,.86-.05,.05-.11,.09-.17,.12l-8.34,3.82c-.08,.04-.17,.06-.25,.06m-10.14-12.57l10.29,11.23,7.15-3.27c-8.68-8.8-11.64-11.88-12.66-13.01l-4.78,5.05Z"/><path id="Path_5013" class="cls-3" d="M198.82,297.44c.33-.9,.95-1.67,1.76-2.18,1.46-.84,3.28-.73,4.61,.3,3.36,2.5,12.49,9.59,17.81,16.57,1.88,2.47,1.05,5.78-3.11,5.78-6.81,0-17.71-2.62-26.9-10.3-1.06-.88-1.59-2.24-1.42-3.6,.16-1.3,.46-2.59,.88-3.84,.46-1.26,1.76-2.01,3.08-1.77l1.19,.22c.89,.16,1.77-.33,2.1-1.18"/><path id="Path_5014" d="M219.88,318.53c-7.15,0-18.08-2.74-27.29-10.44-1.22-1.01-1.84-2.58-1.63-4.15,.16-1.35,.47-2.67,.91-3.96,.55-1.55,2.15-2.47,3.77-2.16l1.19,.22c.61,.11,1.2-.23,1.43-.8,.38-1.02,1.09-1.89,2.01-2.47,1.67-.97,3.75-.84,5.29,.33,3.62,2.7,12.61,9.72,17.93,16.69,1.09,1.27,1.36,3.04,.71,4.58-.4,.81-1.5,2.18-4.31,2.18h0Zm-24.86-19.56c-.9,0-1.71,.56-2.01,1.41-.41,1.2-.69,2.45-.85,3.71-.15,1.16,.31,2.31,1.21,3.06,8.96,7.49,19.57,10.16,26.51,10.16h0c1.6,0,2.74-.53,3.22-1.5,.44-1.12,.21-2.4-.59-3.3-5.23-6.85-14.11-13.79-17.69-16.45-1.14-.87-2.69-.98-3.93-.27-.7,.44-1.23,1.1-1.51,1.88-.44,1.11-1.59,1.76-2.77,1.56l-1.19-.22c-.13-.02-.26-.04-.39-.04"/><path id="Path_5015" d="M217.53,315.28c-4.11,0-11.42-1.61-22.86-9.34-.28-.19-.35-.57-.16-.84,.19-.28,.57-.35,.84-.16h0c18.56,12.54,25.7,8.53,25.78,8.49,.29-.17,.66-.08,.83,.21s.08,.66-.21,.83c-1.32,.63-2.77,.91-4.23,.82"/><path id="Path_5016" d="M210.5,308.02c-.34,0-.61-.27-.61-.61,0-.14,.05-.28,.14-.39l3.25-3.91c.2-.27,.59-.32,.85-.11,.27,.2,.32,.59,.11,.85,0,.01-.02,.02-.03,.04l-3.25,3.91c-.12,.14-.29,.22-.47,.22"/><path id="Path_5017" d="M207.31,305.68c-.34,0-.61-.27-.61-.61,0-.15,.05-.29,.15-.4l3.59-4.03c.22-.25,.61-.27,.86-.05s.27,.61,.05,.86l-3.59,4.03c-.12,.13-.28,.2-.45,.2"/><path id="Path_5018" class="cls-3" d="M167.69,294.58l-2.99,17.45-6.72-4.56,2.08-16.73,7.63,3.84Z"/><path id="Path_5019" d="M164.71,312.64c-.12,0-.24-.03-.34-.1l-6.72-4.56c-.19-.13-.29-.35-.26-.58l2.08-16.73c.04-.33,.34-.57,.68-.53,.07,0,.14,.03,.2,.06l7.62,3.84c.24,.12,.37,.38,.33,.65l-2.99,17.45c-.05,.29-.3,.51-.6,.51m-6.07-5.46l5.63,3.82,2.75-16.07-6.45-3.25-1.93,15.5Z"/><path id="Path_5020" class="cls-3" d="M166.76,308.79c-.1,5.38-.46,16.22-4.1,24.09-.98,2.11-5.23,2.19-6.93-.53-3.53-5.66-8.18-15.34-6.41-27.44,.14-.95,.72-1.77,1.56-2.22,1.53-.78,3.15-1.37,4.82-1.74,1.08-.26,2.17,.41,2.43,1.5,0,.04,.02,.08,.02,.12l.74,4.19,.5-.73c.75-1.1,2.16-1.54,3.4-1.07l2.08,.78c1.22,.51,1.98,1.74,1.89,3.05"/><path id="Path_5021" d="M159.65,335.03c-1.78,.02-3.46-.87-4.44-2.36-5.68-9.1-7.87-18.47-6.5-27.85,.17-1.14,.86-2.13,1.88-2.67,1.57-.81,3.24-1.41,4.97-1.8,1.41-.33,2.82,.54,3.16,1.95,.01,.05,.02,.1,.03,.15l.49,2.79c.97-1.02,2.45-1.36,3.76-.86l2.08,.78c1.46,.6,2.38,2.06,2.29,3.64-.08,4.38-.3,16-4.16,24.33-.64,1.17-1.88,1.9-3.22,1.89-.11,0-.23,.01-.34,.01m-3.48-33.53c-.11,0-.22,.01-.33,.04-1.62,.36-3.2,.93-4.68,1.69-.67,.36-1.13,1.01-1.25,1.77-1.33,9.09,.8,18.18,6.33,27.03,.81,1.21,2.22,1.89,3.67,1.78,.89,.02,1.72-.43,2.19-1.19,3.75-8.1,3.97-19.54,4.05-23.84,.09-1.06-.52-2.06-1.5-2.47l-2.08-.78c-.98-.37-2.09-.02-2.68,.85l-.5,.73c-.19,.28-.57,.35-.85,.16-.13-.09-.23-.23-.25-.4l-.74-4.19c-.12-.67-.7-1.16-1.38-1.17"/><path id="Path_5022" d="M159.01,331.7c-.2,0-.38-.09-.49-.25-8.15-11.39-7.16-25.51-7.15-25.65,.03-.33,.33-.58,.67-.54,.32,.03,.56,.31,.55,.64-.01,.14-.97,13.83,6.92,24.85,.2,.27,.13,.65-.14,.85-.1,.07-.23,.11-.35,.11"/><path id="Path_5023" d="M165.84,316.82s-.09,0-.14-.02l-5.1-1.17c-.32-.09-.52-.42-.43-.75,.08-.31,.39-.5,.7-.44l5.1,1.17c.33,.08,.53,.4,.45,.73-.06,.27-.31,.47-.59,.47"/><path id="Path_5024" d="M165.11,321.23c-.06,0-.12,0-.18-.03l-4.84-1.53c-.32-.11-.48-.46-.37-.77,.11-.3,.43-.47,.74-.38l4.84,1.53c.32,.1,.5,.44,.39,.76-.08,.25-.31,.42-.58,.42"/><path id="Path_5025" d="M119.66,218.23s23.87-4.16,46.17,6.91c5.62,2.79,9.29,8.41,9.59,14.68,.61,12.45,.53,35.26-6.02,55.42-.36,1.11-1.55,1.72-2.66,1.35-.03-.01-.06-.02-.09-.03l-9.98-3.78c-.67-.25-1.17-.83-1.32-1.53-.96-4.52-4.33-21.74-2.59-34.45,1.8-13.18-36.19-24.89-44.35-27.25-.98-.28-21.88-5.86-21.88-5.86l33.13-5.46Z"/><path id="Path_5026" d="M196.72,288.3l-8.37,6.18c-.56,.41-1.34,.36-1.83-.13-5.66-5.57-37.61-36.82-45.4-40.71-8.56-4.28-24.47-10.55-38.56-9.7-13.13,.79-17.09-7.5-17.54-8.65-.91-2.24-1.61-4.56-2.08-6.94l14.64-9.83s41.77,4.6,57.11,15.76c13.86,10.07,37.84,45.35,42.36,52.1,.42,.63,.27,1.48-.34,1.92"/><path id="Path_5027" class="cls-3" d="M176.18,257.16c-.18,0-.36-.08-.47-.23-6.3-7.84-16.02-18.27-21.37-22.16-5.79-4.21-15.05-7.6-27.54-10.08-.33-.07-.54-.39-.48-.71,.07-.33,.39-.54,.71-.48,12.66,2.52,22.08,5.98,28.01,10.29,5.43,3.95,15.25,14.48,21.6,22.38,.21,.26,.17,.64-.09,.85-.11,.09-.24,.13-.38,.13"/><path id="Path_5028" class="cls-3" d="M111.35,178.66l1.63,6.08c1.94,7.23,5.79,13.8,11.16,19.01l2.18,2.11c1.39,1.35,3.2,2.21,5.13,2.43l.3,.03c2.95,.33,5.68,1.74,7.66,3.95l-6.94,.84c-4.23,.53-8.5-.64-11.88-3.24-4.09-3.15-7.42-7.17-9.75-11.77-5.72-11.42-6.3-17.89-6.3-17.89l6.81-1.56Z"/><path id="Path_5029" d="M130.45,213.84c-3.7,.01-7.3-1.22-10.23-3.49-4.17-3.19-7.56-7.29-9.92-11.98-5.7-11.39-6.34-17.84-6.36-18.1-.03-.3,.17-.58,.47-.65l6.82-1.56c.32-.07,.64,.12,.72,.43l1.63,6.08c1.91,7.12,5.71,13.6,11,18.73l2.17,2.11c1.3,1.26,2.98,2.05,4.78,2.26l.3,.03c3.1,.35,5.96,1.83,8.05,4.15,.22,.25,.2,.63-.05,.86-.09,.08-.21,.14-.33,.15l-6.94,.84c-.69,.08-1.39,.13-2.09,.13m-25.24-33.15c.27,1.75,1.49,7.79,6.17,17.15,2.28,4.53,5.56,8.48,9.58,11.56,3.25,2.51,7.36,3.63,11.43,3.11l5.7-.69c-1.78-1.61-4.03-2.63-6.42-2.9l-.3-.03c-2.06-.24-3.99-1.15-5.49-2.6l-2.18-2.11c-5.45-5.29-9.36-11.96-11.33-19.29l-1.48-5.51-5.7,1.31Z"/><path id="Path_5030" d="M92.76,230.33s-9.5,4.73-13.71,2.03,5.14-8.97,7.5-8.83,6.2,6.8,6.2,6.8"/><path id="Path_5031" class="cls-3" d="M57.41,184.37s1.1-5.69,1.86-7.88c4.62-13.2,24.11-14.26,24.11-14.26,0,0,19.57-1.73,25.61,6.87,.58,.73,1.07,1.52,1.46,2.36l3.43,8.23h-.05c-4.25,.86-7.01,4.99-6.17,9.24,.07,.33,.15,.65,.26,.97,1.75,5.15,4.35,11.27,7.54,14.23,1.01,.93,9.51,6.51,9.51,6.51,0,0,.93,7.35-14.41,10.53s-26.12,3.33-30.51,10.07c-2.6,3.99-5.78-18.15-6.65-38.49-.16-3.91-3.18-7.11-7.08-7.49l-8.92-.87Z"/><path id="Path_5032" d="M79.43,232.31c-.1,0-.19-.01-.29-.04-.59-.16-2.15-.59-4-13.32-1.1-7.51-1.95-17.06-2.34-26.19-.17-3.6-2.95-6.54-6.54-6.91l-8.92-.88c-.33-.03-.58-.33-.55-.66,0-.02,0-.04,0-.06,.04-.23,1.11-5.76,1.88-7.97,4.7-13.43,23.84-14.63,24.65-14.67,.79-.07,19.97-1.65,26.14,7.13,.08,.12,.17,.24,.26,.36,.51,.65,.94,1.37,1.27,2.13l3.43,8.22c.13,.31-.02,.67-.33,.79-.04,.02-.07,.03-.11,.03h-.05c-3.92,.79-6.47,4.6-5.69,8.53,.06,.3,.14,.6,.24,.9,2.32,6.82,4.87,11.65,7.38,13.98,.8,.74,7.08,4.9,9.43,6.45,.15,.1,.25,.25,.27,.43,.04,.32,.82,7.94-14.89,11.2-3.46,.72-6.75,1.29-9.65,1.8-9.99,1.74-17.21,3.01-20.47,8.01-.22,.43-.65,.72-1.14,.75m-21.3-48.48l8.25,.81c4.19,.43,7.43,3.86,7.63,8.07,.39,8.99,1.22,18.4,2.3,25.84,1.54,10.69,2.84,12.29,3.11,12.51,.05-.05,.09-.11,.13-.17,3.55-5.45,10.99-6.74,21.28-8.54,2.89-.51,6.17-1.08,9.61-1.79,12.9-2.67,13.88-8.32,13.94-9.6-1.48-.97-8.38-5.52-9.32-6.39-2.7-2.49-5.29-7.37-7.7-14.48-1.49-4.43,.89-9.22,5.31-10.71,.13-.04,.26-.08,.39-.12l-3.16-7.57c-.3-.67-.68-1.3-1.13-1.87-.09-.13-.18-.25-.27-.37-5.77-8.21-24.87-6.63-25.06-6.62-.21,.01-19.17,1.2-23.59,13.86-.59,1.69-1.4,5.59-1.71,7.14"/><path id="Path_5033" class="cls-3" d="M109.31,213.31l-6.5-3.29c-.97-.49-2.12-.44-3.04,.13l-3.52,2.19c-.67,.42-1.48,.56-2.25,.4-3.38-.69-18.31-7.33-19.52-10.25-.6-1.45-.92-6.97-1.17-10.88-.21-3.27-2.76-5.9-6.02-6.22l-7.03-.68s-.33,17.91,4.66,24.07c3.87,4.78,14.03,8.29,29.3,9.43,2.36-.13,4.6-1.1,6.3-2.74,1.97-1.79,5.96-.19,8.49-.46,.5-.05,.86-.5,.81-1-.03-.31-.22-.57-.49-.71"/><path id="Path_5034" d="M94.24,218.82h-.04c-15.07-1.12-25.63-4.56-29.76-9.66-5.07-6.26-4.81-23.72-4.79-24.46,0-.34,.28-.6,.62-.6,.02,0,.03,0,.05,0l7.03,.68c3.56,.34,6.35,3.22,6.57,6.79l.05,.71c.24,3.67,.56,8.71,1.08,9.97,1.03,2.49,15.36,9.13,19.08,9.89,.62,.13,1.27,.01,1.81-.32l3.52-2.19c1.1-.68,2.48-.74,3.63-.16l6.5,3.29c.75,.38,1.05,1.29,.67,2.03-.23,.46-.68,.77-1.19,.82-1.06,.06-2.13,0-3.18-.18-1.91-.24-3.89-.49-4.96,.48-1.81,1.73-4.18,2.76-6.68,2.89m-33.38-33.44c0,3.27,.27,17.75,4.53,23.02,3.86,4.77,14.38,8.13,28.87,9.21,2.19-.15,4.26-1.06,5.84-2.58,1.49-1.36,3.85-1.06,5.94-.79,.96,.16,1.93,.22,2.9,.18,.16-.02,.28-.17,.26-.33-.01-.1-.07-.19-.16-.23l-6.5-3.29c-.78-.39-1.7-.35-2.44,.11l-3.52,2.19c-.8,.5-1.77,.67-2.7,.48-3.32-.68-18.62-7.37-19.96-10.61-.6-1.45-.92-6.39-1.17-10.36l-.05-.71c-.18-2.98-2.5-5.38-5.47-5.66l-6.36-.62Z"/><path id="Path_5035" d="M83.53,133.52c-2.99,2.08-1.53,4.2-5.57,9.2-2.97,3.68-5.29,4.43-5.43,7-.13,2.31,1.62,4.13,2.77,5.33,5.24,5.45,13.1,5.59,17.93,5.68,3.9,.07,9.26,.17,10.2-2.2,.93-2.34-3.52-4.39-3.52-9.16,0-3.84,2.88-4.67,2.55-8.1-.43-4.44-5.65-7.13-6.49-7.57-3.36-1.73-8.76-2.74-12.45-.19"/><path id="Path_5036" d="M86.8,133.4s2.5-7.08-3.61-8.15-4.05,7.01-.39,9.55,4.01-1.4,4.01-1.4"/><path id="Path_5037" class="cls-3" d="M77.2,165.48c-.12-1.65,3.97-2.08,5.05-3.58,1.76-2.44,2.77-4.8,5.2-10.24,.15-.35,.27-.7,0-.97-1.06-.96-1.59-2.36-1.44-3.77,.17-.82,.77-2,1.57-2.02,.56-.02,1.19,.55,1.58,1.51,.14,.36,.55,.53,.9,.38,.12-.05,.23-.14,.31-.25h0c.31-.44,.56-.91,.74-1.4,.1-.29,.37-.48,.68-.48,6.07-.03,3.06-7.43,7.03-6.25,.16,.05,.29,.16,.38,.3,.48,.64,.92,1.31,1.32,2.01,.87,1.72,.76,5.75,2.51,7.51,.19,.2,.24,.49,.13,.75-.29,.66-.91,.74-1.43,1-.21,.11-.34,.33-.35,.56-.04,.97-.4,3.19-.55,4.9-.09,1.06-.98,1.88-2.05,1.87-.92-.02-1.83-.14-2.72-.36-.18-.05-1.33-.45-1.41-.27-1.18,2.21-2.24,4.48-3.15,6.81-.11,.29,3.09,.46,3.03,.81-.45,2.67-4.04,4.87-9.15,4.27-8.11-.95-8.2-3.09-8.2-3.09"/><path id="Path_5038" d="M87.09,169.27c-.59,0-1.18-.04-1.77-.11-8.13-.95-8.71-3.18-8.73-3.65-.1-1.36,1.41-2,2.87-2.63,.85-.28,1.63-.73,2.29-1.34,1.64-2.27,2.63-4.5,4.8-9.38l.34-.76c.05-.1,.09-.21,.11-.32-1.19-1.1-1.78-2.7-1.58-4.3,.21-.99,.95-2.47,2.15-2.5,.86-.03,1.68,.7,2.16,1.89,.01,.03,.04,.05,.07,.05,.03,0,.06,0,.08-.03,.28-.38,.51-.79,.67-1.23,.18-.54,.68-.9,1.25-.9,2.84-.01,3.33-1.74,3.85-3.57,.31-1.08,.6-2.1,1.45-2.57,.6-.29,1.29-.32,1.91-.08,.3,.09,.55,.29,.72,.55,.19,.3,.37,.54,.53,.77,.31,.4,.58,.84,.82,1.29,.38,.93,.65,1.9,.78,2.89,.31,1.64,.67,3.51,1.62,4.47,.37,.38,.47,.94,.25,1.42-.27,.56-.77,.97-1.36,1.15-.12,.05-.23,.09-.34,.15-.01,.01-.02,.03-.02,.05-.02,.53-.13,1.36-.25,2.33-.11,.84-.23,1.79-.3,2.6-.12,1.38-1.28,2.44-2.67,2.43-.96-.02-1.92-.15-2.85-.38-.04-.01-.13-.04-.24-.07s-.43-.13-.65-.19c-.23,.46-.43,.86-.62,1.24-.79,1.5-1.49,3.04-2.12,4.61,.23,.04,.5,.08,.71,.12,1.32,.21,1.77,.3,2.01,.64,.11,.14,.15,.32,.12,.5-.42,2.52-3.34,4.88-8.04,4.88m-9.29-3.87c.06,.16,.85,1.76,7.66,2.55,4.51,.53,7.67-1.23,8.37-3.34-.3-.06-.72-.13-1.01-.17-1.23-.19-1.63-.27-1.83-.63-.09-.17-.11-.38-.04-.56,.69-1.81,1.49-3.58,2.39-5.29,.24-.46,.49-.98,.79-1.57s1.02-.38,1.93-.1c.08,.02,.14,.04,.17,.05,.85,.21,1.71,.33,2.58,.34,.75,.01,1.38-.57,1.44-1.32,.07-.83,.2-1.79,.3-2.64,.12-.9,.22-1.75,.24-2.23,.02-.45,.27-.86,.67-1.08,.14-.07,.29-.13,.44-.19,.39-.16,.59-.25,.71-.51,.01-.02,0-.05,0-.07-1.21-1.22-1.6-3.28-1.95-5.1-.12-.88-.35-1.74-.67-2.57-.21-.39-.44-.77-.72-1.12-.17-.23-.36-.5-.58-.83,0-.02-.02-.03-.04-.04-.31-.13-.66-.14-.98-.02-.41,.23-.63,1.01-.87,1.84-.5,1.77-1.25,4.43-5.01,4.45-.04,0-.08,.01-.1,.05-.2,.55-.47,1.08-.82,1.55-.4,.6-1.21,.76-1.8,.36-.22-.15-.39-.35-.48-.6-.32-.78-.77-1.13-.99-1.13h0c-.33,0-.83,.79-.99,1.54-.1,1.22,.37,2.41,1.29,3.23,.38,.47,.42,1.12,.11,1.64l-.34,.75c-2.21,4.96-3.22,7.22-4.93,9.6-.77,.81-1.73,1.41-2.8,1.75-.95,.41-2.13,.92-2.14,1.4"/><path id="Path_5039" d="M96.08,157.55s-.09,0-.13-.02c-2-.49-3.79-1.6-5.12-3.17-.21-.26-.16-.65,.1-.85,.26-.21,.65-.16,.85,.1,1.16,1.35,2.71,2.3,4.43,2.74,.33,.08,.53,.4,.45,.73-.06,.27-.31,.47-.59,.47"/><path id="Path_5040" class="cls-5" d="M147.79,222.79l-33.82,.22,20.81-32.12c.79-1.22,2.15-1.96,3.6-1.96l27.45-.18c1.19-.04,2.18,.89,2.22,2.08,.01,.43-.1,.84-.32,1.21l-19.93,30.75Z"/><path id="Path_5041" d="M112.85,223.63l21.42-33.07c.9-1.4,2.45-2.24,4.11-2.24l27.45-.18c1.04-.01,1.99,.55,2.5,1.45,.49,.87,.45,1.94-.09,2.77l-20.11,31.03-35.27,.23Zm53-34.27h-.01l-27.45,.18c-1.25,0-2.42,.63-3.1,1.68l-20.2,31.18,32.37-.21,19.76-30.48c.3-.46,.32-1.05,.05-1.53-.28-.51-.83-.83-1.42-.82"/><path id="Path_5042" class="cls-3" d="M144.53,206.32c-.82,1.21-2.14,1.98-3.59,2.11-1.24,0-1.64-.92-.9-2.08,.82-1.21,2.14-1.98,3.59-2.11,1.24,0,1.64,.92,.9,2.08"/><path id="Path_5043" class="cls-5" d="M146.31,225.72l-44.93,.3c-.62,0-1.16-.66-1.46-1.65-.21-.7,.18-1.44,.88-1.66,.12-.04,.25-.06,.38-.06l46.79-.31c.01,1.86-.73,3.37-1.66,3.38"/><path id="Path_5044" d="M101.37,226.63c-.88,0-1.64-.78-2.03-2.08-.31-1.02,.26-2.1,1.29-2.42,.18-.05,.36-.08,.55-.08l47.4-.32v.61c.01,2.27-.96,3.98-2.26,3.99l-44.93,.3h0Zm45.96-3.67l-46.15,.31c-.22,0-.44,.11-.57,.29-.14,.18-.18,.42-.11,.64,.24,.8,.62,1.22,.87,1.22h0l44.93-.3c.37,0,.91-.84,1.03-2.16"/><path id="Path_5045" class="cls-3" d="M86.67,85.68c5.82,10.21,2.54,23.3-7.34,29.22-9.74,5.77-22.32,2.56-28.09-7.19-.11-.19-.22-.38-.33-.57-5.82-10.21-2.54-23.3,7.33-29.22,9.74-5.77,22.31-2.56,28.09,7.18,.11,.19,.22,.38,.33,.57"/><path id="Path_5046" class="cls-6" d="M68.64,117.77c-7.48,.06-14.48-3.7-18.56-9.98-3.04-4.71-4.03-10.46-2.74-15.91,1.32-5.67,4.9-10.56,9.9-13.55,2.21-1.35,4.64-2.3,7.17-2.82,.33-.05,.64,.17,.7,.51,.05,.31-.15,.61-.45,.68-2.4,.49-4.7,1.39-6.79,2.67-4.72,2.82-8.09,7.43-9.35,12.79-1.21,5.14-.28,10.55,2.58,14.99,6.02,9.41,18.84,12.25,28.59,6.32,4.72-2.82,8.09-7.43,9.35-12.79,1.21-5.14,.28-10.55-2.58-14.99-2.75-4.28-7-7.37-11.92-8.68-.32-.1-.5-.44-.4-.76,.09-.31,.41-.49,.72-.41,5.21,1.39,9.71,4.67,12.62,9.2,3.04,4.71,4.03,10.46,2.74,15.91-1.32,5.67-4.9,10.56-9.9,13.55-3.52,2.14-7.57,3.27-11.69,3.27"/><path id="Path_5047" class="cls-4" d="M73.98,108.02l-1.46-2.57c-1.56,.88-3.31,1.39-5.1,1.5l-1.02-3.63c1.76-.04,3.49-.53,5.01-1.41,1.49-.89,2.17-2.1,1.55-3.18-.59-1.03-1.79-1.17-4.11-.69-3.35,.71-6.02,.5-7.51-2.12-1.35-2.38-.8-5.21,1.67-7.46l-1.46-2.57,2.56-1.54,1.35,2.38c1.32-.76,2.78-1.23,4.29-1.38l.98,3.51c-1.51,.11-2.98,.57-4.28,1.34-1.7,1.02-1.81,2.1-1.38,2.86,.51,.89,1.74,.91,4.46,.44,3.75-.73,5.85,0,7.24,2.43,1.37,2.4,.9,5.44-1.8,7.79l1.57,2.75-2.56,1.54Z"/></g></g></g></g></g></g></svg>