<svg xmlns="http://www.w3.org/2000/svg" width="36" height="36" viewBox="0 0 36 36"><g transform="translate(-1033 -244)"><rect width="36" height="36" rx="5" transform="translate(1033 244)" fill="#71005d"/><path d="M8.429,6.115l-2.857,1.6,1.6-2.857L5.572,2,8.429,3.6,11.287,2l-1.6,2.857,1.6,2.857-2.857-1.6m13.715,11.2L25,15.715l-1.6,2.857L25,21.43l-2.857-1.6-2.857,1.6,1.6-2.857-1.6-2.857,2.857,1.6M25,2,23.4,4.857,25,7.715l-2.857-1.6-2.857,1.6,1.6-2.857L19.287,2l2.857,1.6L25,2M15.1,14.321l2.789-2.789L15.47,9.109,12.681,11.9,15.1,14.321m1.177-6.275,2.674,2.674a1.138,1.138,0,0,1,0,1.612L5.618,25.67a1.138,1.138,0,0,1-1.612,0L1.332,23a1.138,1.138,0,0,1,0-1.612L14.67,8.046A1.138,1.138,0,0,1,16.281,8.046Z" transform="translate(1038.002 248)" fill="#fff"/></g></svg>