<svg xmlns="http://www.w3.org/2000/svg" xmlns:xlink="http://www.w3.org/1999/xlink" viewBox="0 0 328.66 336.32"><defs><style>.cls-1{fill:none;}.cls-2{clip-path:url(#clip-path);}.cls-3{opacity:0.6;}.cls-4{clip-path:url(#clip-path-3);}.cls-5{fill:#9ad8f3;}.cls-6{fill:#701e5e;}.cls-7{fill:#fff;}.cls-8{fill:#5b72b7;}.cls-9{fill:#1a8bcb;}.cls-10{fill:#59164f;}.cls-11{fill:#a3238e;}</style><clipPath id="clip-path"><rect class="cls-1" width="328.66" height="336.32"/></clipPath><clipPath id="clip-path-3"><rect class="cls-1" x="27.28" width="301.38" height="299.97"/></clipPath></defs><g id="Layer_2" data-name="Layer 2"><g id="Layer_1-2" data-name="Layer 1"><g class="cls-2"><g id="Group_251" data-name="Group 251"><g id="Group_250" data-name="Group 250"><g class="cls-2"><g id="Group_249" data-name="Group 249"><g id="Group_248" data-name="Group 248" class="cls-3"><g id="Group_247" data-name="Group 247"><g class="cls-4"><g id="Group_246" data-name="Group 246"><path id="Path_2837" data-name="Path 2837" class="cls-5" d="M92.4,13.57c61.21-33.7,143.21,1.32,185.94,40.13,12.21,11.09,41.8,38.75,48.79,83.09,8.68,55.07-19.73,121.82-84.91,150.38C171.28,318.25,92,288.79,54.84,241c-34.72-44.72-27.77-97.36-25.29-116.17,2.91-22.07,11.57-83,62.85-111.24"/></g></g></g></g><path id="Path_2838" data-name="Path 2838" class="cls-6" d="M39.8,80.38C13.38,86.05.58,134.86,0,166.46c-.95,53.77,32.7,105.3,79.14,130.07,61.71,32.91,153.7,22.68,184-30.8,18.08-31.9,15.6-81.69-9.55-101.69s-51.1,7.42-99.29-4.88c-66.6-17-81.48-85.86-114.52-78.77"/><path id="Path_2839" data-name="Path 2839" class="cls-7" d="M53.11,241.86a.72.72,0,0,1-.29-.06.75.75,0,0,1-.4-1h0c6.27-15.17,26.52-18,27.38-18.11a.74.74,0,0,1,.84.64.75.75,0,0,1-.64.85h0c-.2,0-20.25,2.84-26.19,17.19a.76.76,0,0,1-.7.47"/><path id="Path_2840" data-name="Path 2840" class="cls-7" d="M81.41,251.11a.75.75,0,0,1-.75-.67,32.78,32.78,0,0,1,7.15-24.37.76.76,0,0,1,1.12,1,31.81,31.81,0,0,0-6.77,23.19.77.77,0,0,1-.67.83h-.08"/><path id="Path_2841" data-name="Path 2841" class="cls-7" d="M258,264c.18.5,20,20.59,20,20.59l-12.18,5.57-16-17.48Z"/><path id="Path_2842" data-name="Path 2842" d="M265.8,290.9a.77.77,0,0,1-.56-.25l-16-17.48a.75.75,0,0,1,0-1l8.2-8.68a.77.77,0,0,1,1.07,0,.7.7,0,0,1,.13.17c.73.95,12.27,12.71,19.89,20.44a.75.75,0,0,1,0,1.06.51.51,0,0,1-.21.15l-12.18,5.58a.7.7,0,0,1-.31.07m-15-18.23L266,289.23l10.7-4.9C263.57,271,259.35,266.62,258,265.09Z"/><path id="Path_2843" data-name="Path 2843" class="cls-7" d="M265.12,281.57a6.3,6.3,0,0,1,2.57-3.18,6.05,6.05,0,0,1,6.74.43c4.9,3.65,18.23,14,26,24.2,2.75,3.6,1.53,8.45-4.54,8.45-9.95,0-25.87-3.83-39.3-15.05a5.87,5.87,0,0,1-2.07-5.26,27.56,27.56,0,0,1,1.28-5.6,4,4,0,0,1,4.5-2.58l1.74.31a2.75,2.75,0,0,0,3.06-1.72"/><path id="Path_2844" data-name="Path 2844" d="M295.89,312.22c-10.43,0-26.35-4-39.77-15.22a6.58,6.58,0,0,1-2.34-5.93,28.47,28.47,0,0,1,1.32-5.76,4.73,4.73,0,0,1,5.35-3.07l1.74.31a2,2,0,0,0,2.23-1.25,7,7,0,0,1,2.88-3.55,6.85,6.85,0,0,1,7.58.47c5.28,3.93,18.4,14.18,26.16,24.35a6.29,6.29,0,0,1,1,6.55c-.58,1.16-2.14,3.1-6.17,3.1Zm-36.31-28.56a3.23,3.23,0,0,0-3.06,2.15,27.44,27.44,0,0,0-1.25,5.45,5.1,5.1,0,0,0,1.81,4.58c13.12,11,28.65,14.87,38.8,14.87h0c2.39,0,4.1-.8,4.83-2.26a4.83,4.83,0,0,0-.88-5c-7.65-10-20.64-20.16-25.87-24.05a5.32,5.32,0,0,0-5.89-.4,5.51,5.51,0,0,0-2.26,2.81,3.52,3.52,0,0,1-3.9,2.19l-1.74-.32a4,4,0,0,0-.6,0"/><path id="Path_2845" data-name="Path 2845" d="M292.44,307.48c-6,0-16.61-2.34-33.3-13.62a.75.75,0,0,1,.84-1.25c27,18.25,37.7,12.46,37.8,12.4a.76.76,0,0,1,.77,1.3h0c-.18.11-2.08,1.18-6.11,1.18"/><path id="Path_2846" data-name="Path 2846" d="M282.18,296.87a.76.76,0,0,1-.75-.75.74.74,0,0,1,.17-.48l4.75-5.71a.74.74,0,0,1,1-.13.75.75,0,0,1,.13,1.06l0,0-4.75,5.71a.75.75,0,0,1-.58.27"/><path id="Path_2847" data-name="Path 2847" d="M277.53,293.45a.76.76,0,0,1-.76-.75.74.74,0,0,1,.2-.51l5.24-5.89a.76.76,0,0,1,1.06-.1.77.77,0,0,1,.1,1.07l0,0-5.24,5.89a.73.73,0,0,1-.56.26"/><path id="Path_2848" data-name="Path 2848" class="cls-7" d="M219.66,277.38l-4.36,25.48-9.82-6.66,3-24.43Z"/><path id="Path_2849" data-name="Path 2849" d="M215.3,303.62a.83.83,0,0,1-.43-.13l-9.81-6.67a.74.74,0,0,1-.33-.71l3-24.43a.76.76,0,0,1,.84-.66.73.73,0,0,1,.25.08L220,276.71a.77.77,0,0,1,.4.8L216,303a.75.75,0,0,1-.74.63m-9-7.78,8.47,5.74,4.07-23.78-9.69-4.88Z"/><path id="Path_2850" data-name="Path 2850" class="cls-7" d="M218.3,298.12c-.15,7.87-.68,23.7-6,35.18-1.42,3.09-7.64,3.21-10.11-.76-5.16-8.26-11.95-22.41-9.37-40.08a4.4,4.4,0,0,1,2.28-3.24,30,30,0,0,1,7.05-2.54,2.93,2.93,0,0,1,3.54,2.18,1.36,1.36,0,0,1,0,.17l1.07,6.12.73-1.06a4.21,4.21,0,0,1,5-1.57l3,1.14a4.51,4.51,0,0,1,2.76,4.46"/><path id="Path_2851" data-name="Path 2851" d="M207.91,336.32a7.49,7.49,0,0,1-6.36-3.38c-8.29-13.27-11.48-26.92-9.48-40.59a5.15,5.15,0,0,1,2.68-3.79A30.26,30.26,0,0,1,202,286a3.66,3.66,0,0,1,2.88.5,3.74,3.74,0,0,1,1.62,2.45l.76,4.34a5,5,0,0,1,5.53-1.42l3,1.14a5.26,5.26,0,0,1,3.25,5.18c-.12,6.38-.45,23.34-6.07,35.48a5.18,5.18,0,0,1-4.58,2.69h-.49m-5.08-49a2.22,2.22,0,0,0-.51.06,29.39,29.39,0,0,0-6.87,2.48,3.64,3.64,0,0,0-1.89,2.68c-1.94,13.3,1.17,26.62,9.26,39.57a6.05,6.05,0,0,0,5.49,2.66,3.76,3.76,0,0,0,3.31-1.81c5.48-11.86,5.8-28.58,5.92-34.88a3.72,3.72,0,0,0-2.27-3.74l-3-1.14a3.46,3.46,0,0,0-4.08,1.28l-.73,1.07a.74.74,0,0,1-1,.19.75.75,0,0,1-.32-.49L205,289.16a2.21,2.21,0,0,0-2.15-1.81"/><path id="Path_2852" data-name="Path 2852" d="M207,331.46a.76.76,0,0,1-.62-.31C194.48,314.55,195.93,294,196,293.78a.75.75,0,0,1,1.5.11c0,.2-1.42,20.24,10.14,36.38a.75.75,0,0,1-.18,1.05.74.74,0,0,1-.43.14"/><path id="Path_2853" data-name="Path 2853" d="M217,309.72l-.17,0L209.34,308a.75.75,0,1,1,.33-1.47h0l7.45,1.72a.76.76,0,0,1-.17,1.49"/><path id="Path_2854" data-name="Path 2854" d="M215.89,316.17a.59.59,0,0,1-.23,0l-7.06-2.23a.75.75,0,1,1,.45-1.43l7.06,2.23a.75.75,0,0,1,.5.94.76.76,0,0,1-.72.53"/><path id="Path_2855" data-name="Path 2855" d="M149.5,165.85s34.86-6.08,67.44,10.09a25.27,25.27,0,0,1,14,21.45c.89,18.18.77,51.5-8.8,80.95a3.08,3.08,0,0,1-3.89,2l-.13-.05-14.57-5.52a3.07,3.07,0,0,1-1.92-2.24c-1.41-6.6-6.32-31.75-3.78-50.32,2.95-21.55-67-40.43-67-40.43Z"/><path id="Path_2856" data-name="Path 2856" d="M262.06,268.21l-12.23,9a2.08,2.08,0,0,1-2.68-.19c-8.26-8.13-54.93-53.77-66.31-59.46-12.51-6.25-35.74-15.42-56.32-14.18s-25.7-12.82-25.7-12.82L127.14,170s51.11,3,73.53,19.28c20.23,14.71,55.27,66.23,61.88,76.1a2.07,2.07,0,0,1-.5,2.81"/><path id="Path_2857" data-name="Path 2857" class="cls-8" d="M232.05,222.58a.79.79,0,0,1-.59-.28c-9.21-11.46-23.42-26.7-31.24-32.39-8.46-6.16-22-11.12-40.27-14.75a.76.76,0,0,1-.58-.89.74.74,0,0,1,.88-.59c18.47,3.68,32.21,8.73,40.86,15,7.92,5.76,22.25,21.13,31.53,32.66a.75.75,0,0,1-.12,1.06.73.73,0,0,1-.47.17"/><path id="Path_2858" data-name="Path 2858" class="cls-7" d="M125.65,125.62l3.2,8a56.85,56.85,0,0,0,18.28,24l3.3,2.52a12,12,0,0,0,7.37,2.47h.41a16.56,16.56,0,0,1,11.06,4.13l-9.3,2.27a22.23,22.23,0,0,1-16.68-2.47,47.46,47.46,0,0,1-15.18-14.43c-9.63-14.6-11.48-23.3-11.48-23.3Z"/><path id="Path_2859" data-name="Path 2859" d="M154.58,170.45a22.53,22.53,0,0,1-11.67-3.23,47.59,47.59,0,0,1-15.42-14.66C117.89,138,116,129.36,115.9,129a.74.74,0,0,1,.48-.86l9-3.23a.74.74,0,0,1,.95.43l3.2,8a56,56,0,0,0,18,23.72l3.3,2.52a11.3,11.3,0,0,0,6.91,2.32h.41a17.36,17.36,0,0,1,11.56,4.31.76.76,0,0,1,.08,1.07.71.71,0,0,1-.4.23l-9.29,2.27a23.35,23.35,0,0,1-5.58.68m-37-41.13c.62,2.24,3.23,10.32,11.21,22.41a46,46,0,0,0,14.94,14.19,21.24,21.24,0,0,0,16.11,2.39l7.81-1.91a15.82,15.82,0,0,0-9.29-3h-.59a12.85,12.85,0,0,1-7.75-2.63l-3.3-2.52a57.54,57.54,0,0,1-18.52-24.36l-2.93-7.32Z"/><path id="Path_2860" data-name="Path 2860" d="M108.76,198.91s-12.15,8-18.31,5,5.53-13,8.77-13.23,9.54,8.25,9.54,8.25"/><path id="Path_2861" data-name="Path 2861" d="M120.08,69.26c5.24-.35,10.82,4.62,9.68,12.31-.93,6.29-7.67,7.73-11,10.89-10.66,10.21-2,22.74-10.53,33.08-8.1,9.84-18.74,1.9-34.53,12.75-12.43,8.53,31.33-2.65,15.66,6.17-12.5,7-34.85,4.77-46.47-10.64-11-14.66-12.32-35.57.72-44.68C55.38,81,62.45,92,74.87,84.41,87.12,76.93,84.5,68.65,92,65.7c10.29-4,13.22,4.55,28.06,3.56"/><path id="Path_2862" data-name="Path 2862" class="cls-9" d="M53.21,142.15a90.47,90.47,0,0,1,3.42-11.28c3.68-9.06,6.18-15,16.92-19.72a32.12,32.12,0,0,1,5-1.7l6.4-1.64s26.33-5.53,35.95,5.18a17,17,0,0,1,2.38,3l6,10.64-.06,0a10.75,10.75,0,0,0-6.89,13.56,10,10,0,0,0,.51,1.28c3.22,6.72,7.75,14.63,12.57,18.13,1.52,1.1,14,7.29,14,7.29s2.47,9.84-17.89,16.67-35,8.77-39.86,18.65c-2.88,5.85-10.81-23.75-15.31-51.27a10.76,10.76,0,0,0-10.85-9Z"/><path id="Path_2863" data-name="Path 2863" d="M90.78,203.71l-.21,0c-.81-.12-3-.44-7.54-17.41-2.71-10-5.42-22.87-7.44-35.23a10.08,10.08,0,0,0-10.09-8.4l-12.28.25a.76.76,0,0,1-.77-.73,1.36,1.36,0,0,1,0-.2,92.27,92.27,0,0,1,3.46-11.39c3.59-8.81,6.17-15.17,17.31-20.12a31.72,31.72,0,0,1,5.11-1.74l6.4-1.64c1.12-.24,26.9-5.5,36.7,5.41l.4.45a13.36,13.36,0,0,1,2.07,2.67l6,10.62a.75.75,0,0,1-.28,1l-.14,0-.06,0a10,10,0,0,0-6.41,12.6,10.29,10.29,0,0,0,.47,1.2c4.27,8.91,8.54,15.08,12.34,17.84,1.21.87,10.43,5.52,13.88,7.24a.71.71,0,0,1,.4.49c.11.43,2.4,10.59-18.38,17.56-4.59,1.53-9,2.85-12.83,4-13.33,4-23,6.9-26.59,14.26a1.72,1.72,0,0,1-1.53,1.17M65.7,141.14a11.58,11.58,0,0,1,11.37,9.67c2,12.25,4.69,25,7.38,34.95,4,14.83,6,16.29,6.31,16.43a1.16,1.16,0,0,0,.2-.32c3.93-8,13.82-10.92,27.51-15,3.85-1.16,8.22-2.47,12.78-4,17.3-5.8,17.59-13.77,17.45-15.45-2.09-1-12.32-6.16-13.75-7.2-5.06-3.67-9.75-12-12.8-18.41a11.49,11.49,0,0,1,5.44-15.32l.58-.26-5.57-9.86a11.92,11.92,0,0,0-1.86-2.38l-.42-.46c-9.21-10.27-35-5-35.23-5l-6.37,1.63a29.74,29.74,0,0,0-4.87,1.66c-10.58,4.7-12.95,10.52-16.52,19.31a85.15,85.15,0,0,0-3.16,10.23l11.29-.24h.24"/><path id="Path_2864" data-name="Path 2864" class="cls-7" d="M128.5,172l-9.38-3.41a4.26,4.26,0,0,0-4.11.67l-4.43,3.55a4.23,4.23,0,0,1-3,.92c-4.72-.39-26.1-7-28.22-10.77-1-1.87-2.39-8.24-3.37-13.51a9.14,9.14,0,0,0-9.2-7.48l-9.66.21S59.59,165.46,67.37,173c6,5.88,20.44,9,41.39,8.07a13.51,13.51,0,0,0,8.12-4.75c2.38-2.76,8.07-1.22,11.47-2a1.24,1.24,0,0,0,.15-2.37"/><path id="Path_2865" data-name="Path 2865" d="M101.66,182c-16.93,0-29.15-2.93-34.8-8.44C59,165.9,56.49,143.19,56.39,142.23a.75.75,0,0,1,.67-.83h.06l9.67-.21a9.86,9.86,0,0,1,9.95,8.1c1.33,7.16,2.5,11.87,3.28,13.27,1.82,3.23,22.43,10,27.63,10.39a3.55,3.55,0,0,0,2.47-.75l4.43-3.55a5,5,0,0,1,4.84-.8l9.38,3.41a2,2,0,0,1-.24,3.82,19.72,19.72,0,0,1-4.34.27c-2.66,0-5.41,0-6.73,1.49a14.19,14.19,0,0,1-8.62,5q-3.72.16-7.18.17M58,142.88c.53,4.16,3.24,23.1,9.93,29.61,6,5.87,20.92,8.73,40.82,7.85a13,13,0,0,0,7.59-4.48c1.78-2.06,5-2,7.88-2a18.37,18.37,0,0,0,4-.23.49.49,0,0,0,.37-.59.5.5,0,0,0-.31-.35l-9.38-3.41a3.53,3.53,0,0,0-3.38.56l-4.43,3.55a5,5,0,0,1-3.53,1.07c-4.62-.38-26.47-7-28.82-11.15-.89-1.59-2-6.21-3.45-13.74a8.35,8.35,0,0,0-8.44-6.86Z"/><path id="Path_2866" data-name="Path 2866" class="cls-7" d="M88.1,107.39s7.64-16.57,8.1-18.64A3.74,3.74,0,0,1,95.05,85c.84-5,5.48-1.85,5.48-1.85l.47.18a15.3,15.3,0,0,0,8.65.7l6.07-1.26s.94,2.3-1,6.22a14.35,14.35,0,0,0-1.06,6.6,1.16,1.16,0,0,1-1.14,1.19l-1.58,0a10.8,10.8,0,0,1-3.43,3.83,2,2,0,0,1-1.41.31,8.93,8.93,0,0,1-2.77-1l-1.83,7.21,3.86.41s.78,4.78-7,7.15c-4.26,1.3-9.91.18-14.12-1.09a2.4,2.4,0,0,1-.24-4.51Z"/><path id="Path_2867" data-name="Path 2867" d="M94,116a36.08,36.08,0,0,1-10-1.7,3.14,3.14,0,0,1-.31-5.92l3.8-1.59c2.07-4.5,6.93-15.23,7.8-17.83a4.7,4.7,0,0,1-1-4.1,3.82,3.82,0,0,1,2.07-3.2c1.83-.78,4,.51,4.49.8l.4.15a14.6,14.6,0,0,0,8.22.67L115.57,82a.76.76,0,0,1,.85.45c0,.11,1,2.66-1,6.84a13.8,13.8,0,0,0-1,6.26,1.92,1.92,0,0,1-1.88,2l-1.17,0a11,11,0,0,1-3.43,3.7,2.64,2.64,0,0,1-2,.43,9.44,9.44,0,0,1-2.13-.68l-1.39,5.46,3,.32a.75.75,0,0,1,.66.63c0,.22.8,5.45-7.47,8A15.65,15.65,0,0,1,94,116m3.63-33.08a1.89,1.89,0,0,0-.7.13c-.6.26-1,1-1.18,2.06a3,3,0,0,0,.84,3,.75.75,0,0,1,.3.78C96.47,91,89.57,106,88.79,107.69a.71.71,0,0,1-.4.38l-4.07,1.7a1.65,1.65,0,0,0-.89,2.16,1.68,1.68,0,0,0,1.06.94c4,1.19,9.55,2.35,13.68,1.08,5.48-1.67,6.33-4.53,6.43-5.74l-3.2-.34a.75.75,0,0,1-.67-.83.43.43,0,0,1,0-.11l1.84-7.21a.76.76,0,0,1,.91-.55l.2.08a7.85,7.85,0,0,0,2.52,1,1.16,1.16,0,0,0,.85-.18,10,10,0,0,0,3.2-3.59.72.72,0,0,1,.63-.37l1.59,0a.43.43,0,0,0,.4-.42,15,15,0,0,1,1.13-7,8.91,8.91,0,0,0,1.13-5l-5.35,1.11a16.14,16.14,0,0,1-9.07-.74l-.47-.18-.15-.08a5.11,5.11,0,0,0-2.44-.85"/><path id="Path_2868" data-name="Path 2868" d="M103.31,100.67a.8.8,0,0,1-.4-.11l-1-.65a.75.75,0,1,1,.81-1.26l1,.64a.76.76,0,0,1,.23,1,.77.77,0,0,1-.64.34"/><path id="Path_2869" data-name="Path 2869" class="cls-10" d="M181.94,178l-46.32.3,28.51-44a5.88,5.88,0,0,1,4.93-2.68l37.6-.25a3,3,0,0,1,3,2.85,3,3,0,0,1-.45,1.65Z"/><path id="Path_2870" data-name="Path 2870" class="cls-9" d="M177.46,156a6.69,6.69,0,0,1-4.92,2.89c-1.7,0-2.25-1.26-1.23-2.85a6.72,6.72,0,0,1,4.92-2.9c1.7,0,2.25,1.27,1.23,2.86"/><path id="Path_2871" data-name="Path 2871" class="cls-11" d="M179.9,180.38l-61.54.41c-1.27,0-2.31-2-2.33-4.6l-.08-.7,66.15-.44.08.7c0,2.55-1,4.62-2.28,4.63"/><path id="Path_2872" data-name="Path 2872" class="cls-8" d="M138.27,181.41a.76.76,0,0,1-.75-.75.74.74,0,0,1,.75-.75l36.7-.28h0a.76.76,0,0,1,.76.75.75.75,0,0,1-.75.75l-36.7.28Z"/></g></g></g></g></g></g></g></svg>