<svg xmlns="http://www.w3.org/2000/svg" xmlns:xlink="http://www.w3.org/1999/xlink" viewBox="0 0 330.77 331.38"><defs><style>.cls-1{fill:none;}.cls-2{clip-path:url(#clip-path);}.cls-3{opacity:0.6;}.cls-4{fill:#9ad8f3;}.cls-5{fill:#701e5e;}.cls-6{fill:#fff;}.cls-7{fill:#cddcf1;}.cls-8{fill:#9fb6df;}.cls-9{fill:#158bcb;}</style><clipPath id="clip-path"><rect class="cls-1" width="330.77" height="331.38"/></clipPath></defs><g id="Layer_2" data-name="Layer 2"><g id="Layer_1-2" data-name="Layer 1"><g class="cls-2"><g id="Group_244" data-name="Group 244"><g id="Group_243" data-name="Group 243"><g class="cls-2"><g id="Group_242" data-name="Group 242"><g id="Group_241" data-name="Group 241" class="cls-3"><g id="Group_240" data-name="Group 240"><g class="cls-2"><g id="Group_239" data-name="Group 239"><path id="Path_2761" data-name="Path 2761" class="cls-4" d="M71.48,15c67.18-37.23,157.17,1.45,204.07,44.33,13.4,12.25,45.88,42.81,53.55,91.79,9.53,60.83-21.66,134.58-93.19,166.12C158.05,351.57,71,319,30.25,266.22-7.86,216.82-.23,158.65,2.49,137.87,5.69,113.5,15.2,46.19,71.48,15"/></g></g></g></g><path id="Path_2762" data-name="Path 2762" class="cls-5" d="M85,140v10.83c0,15.52,12.21,28.1,27.26,28.1s27.27,12.58,27.27,28.1a2.49,2.49,0,0,1-2.49,2.5H64.81c-22.57,0-40.87-18.86-40.87-42.12V138.59A16.51,16.51,0,0,1,40.2,121.83H67.32A17.9,17.9,0,0,1,85,140"/><rect id="Rectangle_423" data-name="Rectangle 423" class="cls-5" x="85.06" y="207.11" width="7.6" height="82.35"/><path id="Path_2763" data-name="Path 2763" class="cls-5" d="M124.46,288.24l-33.62-3H87.75l-34.31,3v2.35h71Z"/><path id="Path_2764" data-name="Path 2764" class="cls-6" d="M76.63,211l-10.3,6.92,5.22,6.18,11.86-5.81Z"/><path id="Path_2765" data-name="Path 2765" d="M71.55,224.69a.59.59,0,0,1-.46-.21l-5.21-6.18a.59.59,0,0,1,.07-.85l0,0,10.3-6.92a.61.61,0,0,1,.77.09l6.78,7.29a.6.6,0,0,1,0,.85.45.45,0,0,1-.14.1l-11.86,5.81a.6.6,0,0,1-.27.06M67.23,218l4.48,5.32,10.71-5.25-5.88-6.32Z"/><path id="Path_2766" data-name="Path 2766" class="cls-5" d="M68.1,214.79a69,69,0,0,0-6.73,4.67,3.75,3.75,0,0,0-.78,4.9A146,146,0,0,0,77.7,246a2.61,2.61,0,0,0,3.23.28c5.37-2.91-.36-12-4.21-23.77l-2.76-.3a3.68,3.68,0,0,1-3.11-2.62l-1.22-4.16a1,1,0,0,0-1.27-.7.85.85,0,0,0-.26.11"/><path id="Path_2767" data-name="Path 2767" d="M79.43,247.25a3,3,0,0,1-2.16-.88,146.16,146.16,0,0,1-17.19-21.69A4.33,4.33,0,0,1,61,219a66.31,66.31,0,0,1,6.79-4.72,1.63,1.63,0,0,1,2.24.53,2,2,0,0,1,.17.4l1.23,4.16a3.06,3.06,0,0,0,2.6,2.19l3.14.35.12.37c1,2.92,2.06,5.74,3,8.22,3,7.72,5.38,13.82.9,16.26a3.79,3.79,0,0,1-1.8.49m-11-31.95a66.62,66.62,0,0,0-6.67,4.63,3.14,3.14,0,0,0-.66,4.11,145.81,145.81,0,0,0,17,21.49,2,2,0,0,0,2.52.17c3.56-1.93,1.46-7.31-1.44-14.76-.94-2.4-2-5.1-2.93-7.92l-2.38-.27a4.26,4.26,0,0,1-3.62-3l-1.22-4.16a.47.47,0,0,0-.26-.29.43.43,0,0,0-.38,0"/><path id="Path_2768" data-name="Path 2768" class="cls-6" d="M61.73,219.18l-.36.28a3.75,3.75,0,0,0-.78,4.9A146.51,146.51,0,0,0,77.7,246a2.61,2.61,0,0,0,3.23.28,7.62,7.62,0,0,0,1.19-.93l-.49-.53a212.69,212.69,0,0,1-19.12-24.43Z"/><path id="Path_2769" data-name="Path 2769" d="M79.43,247.25a3,3,0,0,1-2.16-.88,146.16,146.16,0,0,1-17.19-21.69A4.34,4.34,0,0,1,61,219l.36-.29a.6.6,0,0,1,.84.09l0,0L63,220a212.51,212.51,0,0,0,19.07,24.35l.49.54a.61.61,0,0,1,0,.84,8.68,8.68,0,0,1-1.31,1,3.79,3.79,0,0,1-1.8.49M61.59,220.06a3.17,3.17,0,0,0-.5,4,145.81,145.81,0,0,0,17,21.49,2,2,0,0,0,2.53.17,5.24,5.24,0,0,0,.61-.44l-.08-.09A214.64,214.64,0,0,1,62,220.68Z"/><path id="Path_2770" data-name="Path 2770" d="M78.6,229.8h0l-5.24-.42a.59.59,0,0,1-.55-.65.61.61,0,0,1,.65-.55h0l5.23.42a.6.6,0,0,1,0,1.2"/><path id="Path_2771" data-name="Path 2771" d="M75.25,233.43a.6.6,0,0,1-.6-.6.6.6,0,0,1,.6-.6h5.11a.6.6,0,0,1,0,1.2Z"/><path id="Path_2772" data-name="Path 2772" d="M150.12,165.53c4.23,0,18.57,2.4,19,15.53.14,4.48,3.72,12.73-23.1,18A228.56,228.56,0,0,0,84.9,220.32a3.31,3.31,0,0,1-2.54.26c-2.68-.83-8.34-3.13-9-8a3,3,0,0,1,1.21-2.83l6.6-4.8-6.26-3.35A31.83,31.83,0,0,1,59.5,183.78c-2.29-6.9-3.43-18.71-3.43-18.71Z"/><path id="Path_2773" data-name="Path 2773" class="cls-6" d="M268.09,291.09,241,197.1l-27.11,94h-6.5L237.16,185h7.64l29.79,106.06Z"/><path id="Path_2774" data-name="Path 2774" class="cls-6" d="M154.91,267.33a30.39,30.39,0,0,1,.76,11.82l15.39-2.57a13,13,0,0,1-7.87-8.49l-.88-3Z"/><path id="Path_2775" data-name="Path 2775" d="M155.67,279.75a.6.6,0,0,1-.6-.6.19.19,0,0,1,0-.08,29.8,29.8,0,0,0-.75-11.59.61.61,0,0,1,.41-.73l7.4-2.22a.6.6,0,0,1,.75.4h0l.87,3a12.47,12.47,0,0,0,7.51,8.1.6.6,0,0,1-.11,1.15l-15.39,2.57h-.1m0-12a30.77,30.77,0,0,1,.73,10.69l12.69-2.12a13.71,13.71,0,0,1-6.44-8.05l-.7-2.41Z"/><path id="Path_2776" data-name="Path 2776" class="cls-5" d="M155.11,274.2c-.5,1.92-1.52,7.32-1.92,10.57a4,4,0,0,0,3.05,4.42c5.61,1.39,18.95,1.05,30.06,1.31a2.85,2.85,0,0,0,2.74-2.23c2-6.33-10-8-21.77-14.24a11.41,11.41,0,0,1-1.7,1.13,7.06,7.06,0,0,1-6.15-.12l-2.68-1.53a1.11,1.11,0,0,0-1.52.41,1,1,0,0,0-.11.28"/><path id="Path_2777" data-name="Path 2777" d="M186.36,291.1h-.07c-2.84-.07-5.87-.09-8.79-.12-8.82-.08-17.15-.16-21.39-1.2a4.64,4.64,0,0,1-3.51-5.08c.4-3.24,1.42-8.65,1.93-10.65a1.72,1.72,0,0,1,2.09-1.23,1.54,1.54,0,0,1,.42.17l2.69,1.53a6.47,6.47,0,0,0,5.57.12,11.27,11.27,0,0,0,1.59-1.06l.31-.26.36.19a113.7,113.7,0,0,0,10.57,4.75c7.29,3,13.05,5.3,11.5,10.2a3.49,3.49,0,0,1-3.27,2.64m-30.67-16.75c-.5,1.95-1.51,7.39-1.9,10.5a3.46,3.46,0,0,0,2.6,3.77c4.11,1,12.75,1.09,21.12,1.17,2.93,0,6,0,8.82.12a2.25,2.25,0,0,0,2.15-1.81c1.16-3.66-3.13-5.6-10.8-8.73-3.17-1.29-6.76-2.75-10.34-4.62a10.78,10.78,0,0,1-1.47.94,7.68,7.68,0,0,1-6.73-.12L156.45,274a.51.51,0,0,0-.7.19.29.29,0,0,0-.05.13"/><path id="Path_2778" data-name="Path 2778" class="cls-6" d="M152.88,286.24c0,.06,0,.1,0,.12-.25,2,1.71,3.24,3.58,4.07,5.66,2.5,28.6.45,28.6.45s3.08,0,3.89-1.82a3.24,3.24,0,0,0,.2-1A3.3,3.3,0,0,0,189,287l-.2-.83c-3.12,1.25-17.18,2.2-27.38.93a21,21,0,0,1-8.18-3.09s-.2,1.11-.4,2.27"/><path id="Path_2779" data-name="Path 2779" d="M168.19,292.27c-5,0-9.75-.3-12-1.3-1.84-.81-4.24-2.18-3.93-4.7a.7.7,0,0,1,0-.14c.2-1.16.4-2.27.4-2.27a.59.59,0,0,1,.69-.49l.16.05,1,.53a17.84,17.84,0,0,0,7,2.51c10.1,1.25,24,.33,27.08-.89a.6.6,0,0,1,.78.34.19.19,0,0,1,0,.07l.2.83a3.91,3.91,0,0,1,.11,1.27,3.78,3.78,0,0,1-.25,1.21c-.93,2.1-4,2.18-4.42,2.18-.77.07-9.14.8-16.87.8m-14.45-7.38c-.07.41-.17.93-.26,1.46v.09c-.17,1.32.83,2.38,3.22,3.44,5.46,2.42,28.08.42,28.31.4h.06c.74,0,2.8-.24,3.34-1.46a2.83,2.83,0,0,0,.15-.82,2.58,2.58,0,0,0-.07-.88l-.05-.2c-4.14,1.15-17.36,1.95-27,.75a19,19,0,0,1-7.47-2.66l-.19-.11"/><path id="Path_2780" data-name="Path 2780" d="M168.55,279.85a.6.6,0,0,1-.37-1.07l3.32-2.63a.6.6,0,0,1,.84.08.59.59,0,0,1-.08.84l0,0-3.32,2.63a.59.59,0,0,1-.37.13"/><path id="Path_2781" data-name="Path 2781" d="M173.06,281.58a.6.6,0,0,1-.6-.6.58.58,0,0,1,.24-.47l2.9-2.27a.6.6,0,0,1,.73.95l-2.9,2.26a.59.59,0,0,1-.36.13"/><path id="Path_2782" data-name="Path 2782" d="M122.52,186s11.72,2.59,20.44,8.62c7.56,5.23,15.53,15.23,22.79,67.64.48,3.52-2.52,6-4.58,6.52a9.3,9.3,0,0,1-7.76-1.18c-4.19-2.73-20-43-29.46-51.59s-49.3-10.39-57-21.27,11.19-10.89,11.19-10.89Z"/><path id="Path_2783" data-name="Path 2783" class="cls-7" d="M100.82,214a.59.59,0,0,1-.6-.59.6.6,0,0,1,.34-.54l2.22-1.1c9.49-4.68,15.22-7.5,32.57-10.54a.6.6,0,1,1,.21,1.18h0c-17.19,3-22.85,5.8-32.25,10.43l-2.23,1.1a.58.58,0,0,1-.26.06"/><path id="Path_2784" data-name="Path 2784" class="cls-8" d="M205.45,175.64H131.81a2.87,2.87,0,0,1-2.87-2.86v-1.41h79.38v1.41a2.87,2.87,0,0,1-2.87,2.86"/><path id="Path_2785" data-name="Path 2785" d="M205.45,176.24H131.81a3.48,3.48,0,0,1-3.47-3.46v-1.41a.6.6,0,0,1,.6-.6h79.38a.6.6,0,0,1,.6.6h0v1.41a3.47,3.47,0,0,1-3.47,3.46M129.54,172v.81a2.28,2.28,0,0,0,2.27,2.27h73.64a2.28,2.28,0,0,0,2.27-2.27V172Z"/><path id="Path_2786" data-name="Path 2786" class="cls-8" d="M208.32,171.44H162.9l13.44-39.65a4.75,4.75,0,0,1,4-2.15h38.4a2.4,2.4,0,0,1,2.44,2.35,2.49,2.49,0,0,1-.14.85c-.23.6-12.69,38.6-12.69,38.6"/><path id="Path_2787" data-name="Path 2787" d="M208.32,172H162.9a.6.6,0,0,1-.6-.6.63.63,0,0,1,0-.19l13.44-39.66a.83.83,0,0,1,.07-.13,5.29,5.29,0,0,1,4.48-2.42h38.4a3,3,0,0,1,2.51,1.31,2.92,2.92,0,0,1,.34,2.7c-.2.56-8.38,25.48-12.68,38.58a.59.59,0,0,1-.57.41m-44.58-1.2h44.15c1.42-4.33,12.34-37.64,12.56-38.22a1.73,1.73,0,0,0-.2-1.59,1.83,1.83,0,0,0-1.53-.79h-38.4a4.13,4.13,0,0,0-3.44,1.81Z"/><path id="Path_2788" data-name="Path 2788" class="cls-6" d="M205.43,167.74H168.06l11.52-34.32,37.26,0Z"/><path id="Path_2789" data-name="Path 2789" class="cls-7" d="M178.09,163.44h-4.37l1.34-4h4.36Z"/><path id="Path_2790" data-name="Path 2790" class="cls-8" d="M186.19,163.44h-4.67l3.52-10.5,4.64,0Z"/><path id="Path_2791" data-name="Path 2791" class="cls-5" d="M195.25,163.44h-5l7-20.76,5,0Z"/><path id="Path_2792" data-name="Path 2792" class="cls-9" d="M39.38,117.26c2-4.38,7.26-7.21,11.36-8.82a27.32,27.32,0,0,1,8.88-1.83l10.76-.43a57.77,57.77,0,0,1,14.08.83,29.28,29.28,0,0,1,17.6,10.55c2,2.49,3.77,4.65,3.91,4.69,5.82,8.2,6.6,9.64,10.81,12.7,7,5.11,19.3.94,19.3.94,4.1-.61,5.58,2.46,6.33,4.16.9,2,0,4.55-.76,6.15a4.7,4.7,0,0,1-2.43,2.26c-5.27,2.16-23.18,8.87-31.4,4.2-6.85-3.9-11.45-12-15.12-16a.57.57,0,0,0-.8,0,.58.58,0,0,0-.18.48c.77,9,8.14,19.63,10.38,22.69a2.42,2.42,0,0,0,1.69,1L120,162.6a1.81,1.81,0,0,1,.71.24,3.79,3.79,0,0,1,1.91,2.85c.26,1.92.09,5.51-.49,6.67l-.56,1.1a2.65,2.65,0,0,1-2.33,1.47c-8.62.14-47.46.15-58,.09-9.65-.05-13.52-4.83-18.67-18.33-2.05-5.36-8.48-27.72-3.19-39.42"/><path id="Path_2793" data-name="Path 2793" d="M80.91,175.65c-8.39,0-15.86,0-19.69,0-10.36-.06-14.3-5.82-19.22-18.72-2-5.38-8.59-27.9-3.17-39.89l.55.25-.55-.25c2.07-4.57,7.5-7.49,11.69-9.13A28,28,0,0,1,59.6,106l10.76-.42a58.29,58.29,0,0,1,14.2.84,29.83,29.83,0,0,1,18,10.76c2.75,3.43,3.52,4.31,3.74,4.53l.07,0,.12.17,1.64,2.32c4.31,6.11,5.34,7.56,9,10.24,6.69,4.87,18.64.9,18.76.86l.1,0c4.69-.7,6.34,3.08,7,4.51,1,2.23.11,4.85-.78,6.66a5.31,5.31,0,0,1-2.73,2.55c-4,1.63-15.18,5.84-24.08,5.84a15.93,15.93,0,0,1-7.85-1.68c-5-2.83-8.8-7.86-11.86-11.9-1.19-1.57-2.32-3.05-3.34-4.17.8,8.8,8.06,19.29,10.26,22.3a1.86,1.86,0,0,0,1.27.74L120.05,162a2.38,2.38,0,0,1,.93.31,4.38,4.38,0,0,1,2.22,3.3c.25,1.89.13,5.67-.55,7l-.56,1.1a3.25,3.25,0,0,1-2.86,1.8c-5.49.09-23.38.13-38.33.13m-7-69c-1.2,0-2.39,0-3.53.13l-10.78.42A26.69,26.69,0,0,0,51,109c-4,1.56-9.13,4.31-11,8.51-5.2,11.49,1.31,34,3.2,39,5.35,14,9.24,17.9,18.1,17.95,10.65.06,49.43,0,58-.1a2,2,0,0,0,1.81-1.14l.56-1.1c.51-1,.68-4.46.43-6.31a3.19,3.19,0,0,0-1.6-2.41,1.28,1.28,0,0,0-.46-.17l-16.24-1.85a3.05,3.05,0,0,1-2.1-1.22c-2.27-3.09-9.71-13.87-10.5-23a1.17,1.17,0,0,1,1-1.27,1.13,1.13,0,0,1,1,.37c1.08,1.17,2.24,2.7,3.47,4.32,3,3.95,6.74,8.87,11.5,11.58,8,4.54,25.65-2.09,30.88-4.23a4,4,0,0,0,2.11-2c.78-1.58,1.54-3.84.75-5.64-.94-2.15-2.34-4.28-5.63-3.81-1,.33-12.78,4.06-19.8-1-3.85-2.8-4.9-4.28-9.3-10.52l-1.6-2.27c-.36-.32-1.21-1.33-3.93-4.71A28.63,28.63,0,0,0,84.35,107.6,59.4,59.4,0,0,0,74,106.65"/><path id="Path_2794" data-name="Path 2794" class="cls-5" d="M126.33,175.33h18.82a5.8,5.8,0,0,0-5.8-5.8h-7.22a5.8,5.8,0,0,0-5.8,5.8Z"/><path id="Path_2795" data-name="Path 2795" d="M145.15,175.93H126.33a.6.6,0,0,1-.6-.6h0a6.41,6.41,0,0,1,6.4-6.4h7.22a6.4,6.4,0,0,1,6.4,6.4.6.6,0,0,1-.6.61M127,174.73h17.55a5.2,5.2,0,0,0-5.17-4.61h-7.22a5.2,5.2,0,0,0-5.16,4.61"/><path id="Path_2796" data-name="Path 2796" class="cls-6" d="M118.18,166.45a2.93,2.93,0,0,1,1.58-1.42,9.37,9.37,0,0,0,1.44-.66l6.4-3.4c1.2-.59,2.92.78,4.16,1.19,3.76,1.24,11.54,4.15,10.9,6.89-.69,3-7.37,1.56-9.75,1-.54-.13-5.45,1.65-7,1.77a5.07,5.07,0,0,1-3.69-.94,3.38,3.38,0,0,0-1.59-.37,2.92,2.92,0,0,1-2.28-1.07v0a2.5,2.5,0,0,1-.27-2.69Z"/><path id="Path_2797" data-name="Path 2797" d="M125.2,172.41a4.84,4.84,0,0,1-2.82-.79l-.45-.25a2.86,2.86,0,0,0-1.31-.3,3.49,3.49,0,0,1-2.75-1.3,3.12,3.12,0,0,1-.35-3.35l.13-.25a3.45,3.45,0,0,1,1.91-1.71,10.36,10.36,0,0,0,1.36-.62l6.4-3.41c1.12-.55,2.38.08,3.49.64a9.74,9.74,0,0,0,1.14.52c8.05,2.65,11.85,5.2,11.29,7.6a2.48,2.48,0,0,1-1.18,1.58c-2.16,1.32-6.71.47-9.26-.17a25.42,25.42,0,0,0-2.69.72,27.08,27.08,0,0,1-4.17,1.05l-.75,0m3.07-11a.8.8,0,0,0-.4.08l-6.38,3.4a10.91,10.91,0,0,1-1.52.69,2.31,2.31,0,0,0-1.25,1.13l-.13.25a1.91,1.91,0,0,0,.21,2,2.31,2.31,0,0,0,1.83.86,3.92,3.92,0,0,1,1.86.44l.48.27a4.09,4.09,0,0,0,2.89.6,29.64,29.64,0,0,0,3.92-1c2.28-.68,2.9-.84,3.28-.75,3.95,1,7.08,1.11,8.38.32a1.31,1.31,0,0,0,.64-.83c.36-1.54-3.76-4-10.5-6.19a10.09,10.09,0,0,1-1.3-.58,5.59,5.59,0,0,0-2-.73"/><path id="Path_2798" data-name="Path 2798" class="cls-6" d="M165.19,140.9a.86.86,0,0,0-.12-1.21.76.76,0,0,0-.19-.12l-11.37-5a6.76,6.76,0,0,0-5.06-.18c-1.68.61-4.1,1.42-6.87,2.12-7.15,1.81-7.69,11.26-.29,7.62,2.36-1.15,3.77-2,3.77-2a6.13,6.13,0,0,0,7,2,12.66,12.66,0,0,0,4-2.31,2.54,2.54,0,0,1,2.32-.56c2,.52,4.83,2,6.8-.35"/><path id="Path_2799" data-name="Path 2799" d="M138.36,145.58a3,3,0,0,1-1.92-.6,3.25,3.25,0,0,1-1-3.38,7.88,7.88,0,0,1,6-5.65c2.81-.72,5.25-1.54,6.81-2.11a7.32,7.32,0,0,1,5.5.2l11.37,5a1.45,1.45,0,0,1,.74,1.92,1.2,1.2,0,0,1-.21.34c-1.9,2.3-4.51,1.46-6.42.85-.35-.11-.69-.22-1-.3a1.94,1.94,0,0,0-1.77.43,13,13,0,0,1-4.17,2.42,6.51,6.51,0,0,1-6.77-1.22,6.32,6.32,0,0,1-.6-.56c-.6.35-1.77,1-3.37,1.79a7.32,7.32,0,0,1-3.2.9m12.39-11a6.22,6.22,0,0,0-2.09.37,69.85,69.85,0,0,1-6.93,2.14,6.69,6.69,0,0,0-5.07,4.74,2.12,2.12,0,0,0,.52,2.19c.74.57,2.14.42,3.85-.42,2.3-1.14,3.7-2,3.72-2a.6.6,0,0,1,.69,0,.87.87,0,0,1,.13.15,5.5,5.5,0,0,0,6.3,1.76,12.12,12.12,0,0,0,3.8-2.19,3.13,3.13,0,0,1,2.87-.7c.34.09.69.2,1.06.32,2.19.7,3.84,1.08,5.13-.47a.27.27,0,0,0,0-.37l-.06,0-11.37-5a6.22,6.22,0,0,0-2.52-.53"/><path id="Path_2800" data-name="Path 2800" d="M148.07,141.26a3.77,3.77,0,0,1-2.64-1.26.59.59,0,0,1,0-.84.6.6,0,0,1,.85,0l.06.06c.05.06,1.35,1.45,2.63.58a4,4,0,0,1,3.33-.74c2.32.9,3.22.46,3.37.22a.67.67,0,0,0,.09-.55,1.65,1.65,0,0,0-.88-.72l-3.25-1.32a.6.6,0,1,1,.46-1.11h0l3.26,1.33a2.68,2.68,0,0,1,1.54,1.43,1.85,1.85,0,0,1-.16,1.49c-.07.17-1,1.87-4.87.35a2.8,2.8,0,0,0-2.21.61,2.76,2.76,0,0,1-1.57.5"/><path id="Path_2801" data-name="Path 2801" d="M103.78,161.34h-.08c-1-.13-2.21-.26-3.64-.4-6.28-.63-15.76-1.57-24.8-5.13-11-4.31-18.12-11.34-21.25-20.91a.6.6,0,0,1,1.15-.37c7,21.45,32.68,24,45,25.22,1.45.14,2.69.27,3.69.4a.6.6,0,0,1-.08,1.19"/><path id="Path_2802" data-name="Path 2802" class="cls-6" d="M72.32,103.08A1.47,1.47,0,0,1,73.67,102l4.72-.16a1.34,1.34,0,0,0,1.26-1l1.27-5.4,2.13-1a.34.34,0,0,0,.17-.44l-1.67-4c-.5-1.49-.48-4.66-1.25-4.68,0,0-14.43-6.3-17.56.9a4.78,4.78,0,0,0-.12,3.45l.77,2.3A10.07,10.07,0,0,1,63.22,99a27.76,27.76,0,0,1-2.13,3.8A18.06,18.06,0,0,1,56.43,107,1.56,1.56,0,0,0,56,109.1a1.4,1.4,0,0,0,.31.33,26.65,26.65,0,0,0,5.62,3.73c4,1.63,6,2,8.09,1.82a3,3,0,0,0,2.64-3.4,3.41,3.41,0,0,0-.2-.76,13,13,0,0,1-.15-7.75"/><path id="Path_2803" data-name="Path 2803" d="M69,115.65c-1.88,0-3.91-.55-7.29-1.92A27.52,27.52,0,0,1,56,109.91a2.15,2.15,0,0,1,.15-3.45,17.54,17.54,0,0,0,4.49-4,28,28,0,0,0,2.08-3.7,9.52,9.52,0,0,0,.15-6.65l-.77-2.3A5.36,5.36,0,0,1,62.19,86a5.88,5.88,0,0,1,3.35-3.18c5.25-2.06,13.89,1.49,14.91,1.93.87.14,1,1.42,1.28,3a13.83,13.83,0,0,0,.38,2l1.67,4A1,1,0,0,1,83.3,95l-1.86.84-1.21,5.11a2,2,0,0,1-1.82,1.51l-4.72.16a.86.86,0,0,0-.79.64v0a12.48,12.48,0,0,0,.15,7.36,3.76,3.76,0,0,1-.33,3.31,3.5,3.5,0,0,1-2.61,1.65,10,10,0,0,1-1.09.06m.35-32.31c-3.14,0-5.17,1-6.07,3.1a4.2,4.2,0,0,0-.1,3l.77,2.3a10.67,10.67,0,0,1-.18,7.49,26.66,26.66,0,0,1-2.19,3.9,18.25,18.25,0,0,1-4.83,4.31,1,1,0,0,0-.25,1.32.9.9,0,0,0,.19.2,25.29,25.29,0,0,0,5.47,3.64c3.83,1.55,5.8,2,7.8,1.78a2.31,2.31,0,0,0,1.73-1.08,2.65,2.65,0,0,0,.21-2.28,13.43,13.43,0,0,1-.16-8.13,2.05,2.05,0,0,1,1.9-1.49l4.72-.16a.77.77,0,0,0,.7-.59l1.27-5.4a.57.57,0,0,1,.34-.4l1.9-.87L81,90.2s0,0,0,0a13.36,13.36,0,0,1-.44-2.25,10.13,10.13,0,0,0-.42-2l-.06,0a36.82,36.82,0,0,0-7.49-2.21,19.17,19.17,0,0,0-3.21-.3"/><path id="Path_2804" data-name="Path 2804" d="M84.31,73.9c-3.39-1.23-.11,3.64-11.74-3.91-4.64-3-3.83,3.72-5,3-4.44-2.87-4.29-2.78-6.85-2.86-1.7,0-3.58,2.56-3.93,4.83-.46,3,2.22,10.21,4.32,15.73,1.08,2.85,5,4.3,6.78,1,.48-.92-1.59-3.85,0-5,3-2.21,3,2.38,5.3,1.74A29.77,29.77,0,0,0,78.81,86c3-1.41,5.92,3.12,8.74-1.28,1.47-2.29,1.39-9.12-3.24-10.8"/><path id="Path_2805" data-name="Path 2805" class="cls-6" d="M83.64,290.33l-27.11-94-27.11,94h-6.5L52.71,184.26h7.64L90.14,290.33Z"/><path id="Path_2806" data-name="Path 2806" d="M90.93,290.93H83.19L56.53,198.49,29.87,290.93H22.13L52.25,183.66H60.8Zm-6.83-1.2h5.25L59.9,184.85H53.16L23.71,289.73H29l27.56-95.57Z"/><rect id="Rectangle_424" data-name="Rectangle 424" class="cls-6" x="22.86" y="175.64" width="251.02" height="10.21"/><path id="Path_2807" data-name="Path 2807" d="M274.48,186.45H22.26V175H274.48Zm-251-1.2H273.28v-9H23.46Z"/><path id="Path_2808" data-name="Path 2808" class="cls-5" d="M83.44,184.05a.6.6,0,0,1-.6-.6h0v-5.69a.59.59,0,0,1,.59-.6.6.6,0,0,1,.61.6h0v5.69a.6.6,0,0,1-.6.6h0"/><path id="Path_2809" data-name="Path 2809" class="cls-6" d="M221.9,266.68l1.45,16.54-15.59,1.64,4.84-6.62a7.45,7.45,0,0,0,1.21-6.15l-1.33-5.34Z"/><path id="Path_2810" data-name="Path 2810" d="M206.47,285.6l5.65-7.72a6.8,6.8,0,0,0,1.11-5.65l-1.51-6.08,10.73-.07L224,283.75Zm6.78-18.26,1.14,4.6a8,8,0,0,1-1.3,6.65L209,284.12l13.67-1.44-1.36-15.4Z"/><path id="Path_2811" data-name="Path 2811" class="cls-5" d="M224.43,280.39l1.3,6.8a2.75,2.75,0,0,1-2.35,2.92c-3.28.56-16.09,2.32-25.16.67a3.87,3.87,0,0,1-3.19-2.36c-.47-1.89.74-4.59,4.53-6,6.77-2.5,9.35-3.32,12.65-5.55a1.88,1.88,0,0,1,2.33.69,7.26,7.26,0,0,1,1.18,3.58.92.92,0,0,0,.91.92A1,1,0,0,0,217,282l5.78-2.48a1.2,1.2,0,0,1,1.57.62.87.87,0,0,1,.08.26"/><path id="Path_2812" data-name="Path 2812" d="M207.21,292.08a52.23,52.23,0,0,1-9.09-.7,4.4,4.4,0,0,1-3.66-2.81c-.55-2.15.75-5.17,4.9-6.7l2.14-.79c5.16-1.9,7.51-2.76,10.38-4.7a2.46,2.46,0,0,1,3.15.82,7.86,7.86,0,0,1,1.3,3.95.3.3,0,0,0,.14.26.32.32,0,0,0,.3,0l5.78-2.48a1.8,1.8,0,0,1,2.37.93,1.9,1.9,0,0,1,.11.39l1.31,6.87a3.3,3.3,0,0,1-2.84,3.55,108.39,108.39,0,0,1-16.28,1.38m5.67-14.8a.58.58,0,0,0-.34.09c-3,2-5.38,2.9-10.63,4.84l-2.14.78c-3.45,1.28-4.57,3.63-4.15,5.28a3.3,3.3,0,0,0,2.71,1.93c8.08,1.46,19.86.2,24.95-.68a2.13,2.13,0,0,0,1.86-2.25l-1.3-6.77a.6.6,0,0,0-.31-.42.59.59,0,0,0-.52,0l-5.77,2.48a1.53,1.53,0,0,1-1.45-.13,1.5,1.5,0,0,1-.67-1.27,6.71,6.71,0,0,0-1.07-3.24,1.68,1.68,0,0,0-1.17-.62"/><path id="Path_2813" data-name="Path 2813" d="M207.48,289.63a65.63,65.63,0,0,1-8.52-.53.6.6,0,1,1,.14-1.2h0a80.44,80.44,0,0,0,23.08-.79.59.59,0,0,1,.72.45.61.61,0,0,1-.45.72h0a84.41,84.41,0,0,1-15,1.34"/><path id="Path_2814" data-name="Path 2814" class="cls-6" d="M255.71,261.55a27.26,27.26,0,0,0,4,11.42l-7.32,5.55L246.84,273c1.3-1.76,2.45-5.91.71-11.37Z"/><path id="Path_2815" data-name="Path 2815" d="M252.33,279.31l-6.28-6.21.31-.42c1-1.44,2.37-5.35.62-10.84l-.25-.77,9.54-.13,0,.56a26.81,26.81,0,0,0,3.88,11.13l.32.47ZM247.62,273l4.81,4.78,6.46-4.91a28.1,28.1,0,0,1-3.72-10.66l-6.82.09c1.35,4.83.52,8.65-.73,10.7"/><path id="Path_2816" data-name="Path 2816" class="cls-5" d="M259.94,271.4l3,5.36a2.83,2.83,0,0,1-1.17,3.65,106.66,106.66,0,0,1-16,7.86c-2.63,1-10.27,1.49-12.06-.86-1.21-1.58-.75-3.63,2.41-5.33,7.06-3.78,8.7-9.63,9.71-11,1.55-2.1,4.2,1.56,4.92,4.35a.94.94,0,0,0,1.14.68,1,1,0,0,0,.36-.18l5.95-4.85a1.13,1.13,0,0,1,1.58.16.91.91,0,0,1,.11.16"/><path id="Path_2817" data-name="Path 2817" d="M239.86,289.69c-2.74,0-5.48-.49-6.58-1.92a3.23,3.23,0,0,1-.67-2.69c.29-1.31,1.42-2.53,3.28-3.53a19.93,19.93,0,0,0,8.73-9.43,12.06,12.06,0,0,1,.78-1.41,1.89,1.89,0,0,1,1.92-.82c1.84.36,3.54,3.36,4.06,5.39a.35.35,0,0,0,.23.24.29.29,0,0,0,.31-.06l6-4.85a1.73,1.73,0,0,1,2.43.25,1.77,1.77,0,0,1,.17.24l3,5.4a3.39,3.39,0,0,1-1.41,4.43,106.52,106.52,0,0,1-16.08,7.9,20.45,20.45,0,0,1-6.17.86m7.1-18.64a.75.75,0,0,0-.59.38,9.77,9.77,0,0,0-.67,1.23,21.05,21.05,0,0,1-9.24,9.95c-1.54.82-2.46,1.76-2.67,2.72a2,2,0,0,0,.45,1.71c1.5,2,8.73,1.64,11.38.66a103.87,103.87,0,0,0,15.88-7.8,2.2,2.2,0,0,0,.94-2.86l-3-5.34a.52.52,0,0,0-.72-.2l-.08.05-5.95,4.85a1.55,1.55,0,0,1-2.16-.22,1.69,1.69,0,0,1-.3-.6c-.53-2.07-2.08-4.3-3.12-4.51H247"/><path id="Path_2818" data-name="Path 2818" d="M239.42,286.7a12,12,0,0,1-2.4-.22.6.6,0,1,1,.25-1.17,18,18,0,0,0,6.81-.37,42.89,42.89,0,0,0,15.53-7.75.58.58,0,0,1,.84.07.59.59,0,0,1-.06.84h0a43.3,43.3,0,0,1-16,8,22.26,22.26,0,0,1-5,.59"/><path id="Path_2819" data-name="Path 2819" class="cls-6" d="M230.41,209C229.23,222,240,252,244,261.63a2.92,2.92,0,0,0,2.7,1.9h9.17a2.69,2.69,0,0,0,2.8-2.58v0c-.1-10.18-4.72-38.9,2.11-49.58,4-6.19,15.7-3.58,20.54-6.52,11.62-7.07,7.25-30.07,7.25-30.07S232.06,191,230.41,209"/><path id="Path_2820" data-name="Path 2820" d="M255.87,264.13h-9.18a3.51,3.51,0,0,1-3.25-2.27c-3.92-9.5-14.84-39.62-13.62-52.9,1.66-18.25,56.26-34.1,58.58-34.77L289,174l.12.64c.18,1,4.32,23.5-7.53,30.7-2,1.24-5.07,1.54-8.3,1.86-4.82.48-9.8,1-12.05,4.47-5.13,8-3.62,27-2.62,39.55.32,3.93.59,7.31.61,9.7a3.05,3.05,0,0,1-.9,2.19,3.52,3.52,0,0,1-2.49,1M230.42,209l.6.06c-1.1,12.07,8.64,40.47,13.54,52.33a2.34,2.34,0,0,0,2.14,1.54h9.17a2.35,2.35,0,0,0,1.64-.66,1.86,1.86,0,0,0,.56-1.34c0-2.34-.29-5.71-.6-9.62-1-12.71-2.54-31.92,2.81-40.29,2.55-4,8.06-4.53,12.93-5,3.09-.3,6-.6,7.8-1.68,10.05-6.12,7.67-25,7.08-28.79-6.26,1.86-55.58,17.12-57.08,33.53Z"/><path id="Path_2821" data-name="Path 2821" class="cls-6" d="M249.06,177.21s-38.33.32-50.41,13.7c-10.87,12,5.24,66.55,8.61,77.15a2.77,2.77,0,0,0,2.68,1.85h14.4a.53.53,0,0,0,.55-.51l-2.29-20.73c-2.46-27.52.53-33.34.53-33.34,2.43-7.78,23.17-7.45,34.45-7.37,35.82.25,25.3-31.21,25.3-31.21Z"/><path id="Path_2822" data-name="Path 2822" d="M224.34,270.51h-14.4a3.38,3.38,0,0,1-3.26-2.27A359.72,359.72,0,0,1,197,230.13c-4-21.06-3.55-34.39,1.18-39.62,12.12-13.42,49.27-13.89,50.85-13.9l34.25-.46.14.41c.19.56,4.46,13.67-2.34,23-4.36,6-12.27,9-23.52,9h-.79c-10.78-.07-30.85-.22-33.09,7l0,.1c0,.06-2.86,6.2-.47,33l2.29,20.79a1.12,1.12,0,0,1-1.15,1.1m24.73-92.7c-.38,0-38.2.47-50,13.5-4.4,4.88-4.71,18.22-.89,38.6a357.11,357.11,0,0,0,9.63,38,2.17,2.17,0,0,0,2.11,1.43h14.33L222,248.74c-2.35-26.35.26-32.94.57-33.62,2.56-8,22.38-7.85,34.23-7.76h.78c10.83.08,18.42-2.77,22.55-8.45,5.78-8,3-19.25,2.3-21.55Z"/><path id="Path_2823" data-name="Path 2823" class="cls-6" d="M222.27,153.07c-.24-.06-5.7.21-6.21,0-2.58-.87-8-2.84-10.55-2.85a37.87,37.87,0,0,1-7.27-.85c-1-.21-1.71.19-1.9.84a1.84,1.84,0,0,0,1.37,2.19l.12,0c1.71.39,3.41.82,4.87,1.17.46.1.93.12.5.27-1,.36-2.1.93-2.17,1.74-.13,1.53,3.65,5,7.81,5.27,3.57.22,4.55-1.53,5.92-1.79.22,0,6.16.1,6.42,0,2.69-.56,2.54-5.71,1.1-6.09"/><path id="Path_2824" data-name="Path 2824" d="M209.43,161.52c-.2,0-.41,0-.63,0a11.21,11.21,0,0,1-7.34-3.67,3.44,3.44,0,0,1-1-2.25,2.18,2.18,0,0,1,1.18-1.61l-.76-.18c-1-.25-2.08-.51-3.15-.75a2.48,2.48,0,0,1-1.67-1.16,2.4,2.4,0,0,1-.26-1.81,2.08,2.08,0,0,1,2.6-1.26,37.23,37.23,0,0,0,7.14.84c2.38,0,6.87,1.55,9.84,2.58l.9.31c.34.07,2.75,0,4,0a12.63,12.63,0,0,1,2.13,0c1.06.28,1.5,1.82,1.47,3.23,0,1.62-.75,3.64-2.6,4-.16,0-.61,0-3.63,0-1.15,0-2.58,0-2.83,0a3.64,3.64,0,0,0-1.1.54,7.56,7.56,0,0,1-4.3,1.28m-11.7-11.58a.77.77,0,0,0-.82.46,1.2,1.2,0,0,0,.15.87,1.31,1.31,0,0,0,.9.6l3.17.76,1.7.41.29.05c.32.06.8.16.84.66,0,.23-.07.54-.57.71-1.26.45-1.74.93-1.77,1.22a2.41,2.41,0,0,0,.74,1.37,10.19,10.19,0,0,0,6.51,3.26,6.38,6.38,0,0,0,4.24-1.1,4.8,4.8,0,0,1,1.53-.69c.13,0,.41,0,3.05,0,1.31,0,3.1.05,3.39,0,1.14-.26,1.58-1.71,1.61-2.88a2.61,2.61,0,0,0-.54-2c-.24,0-1.08,0-1.82,0a24.72,24.72,0,0,1-4.47,0l-.9-.32c-2.72-.93-7.27-2.5-9.46-2.51a38.13,38.13,0,0,1-7.38-.86,1.72,1.72,0,0,0-.39,0"/><path id="Path_2825" data-name="Path 2825" d="M251.32,120.06c-7.55,5.92-10,23.05-14.85,26.92-4.19,3.36-19.2,4.42-19.2,4.42l-.12,9.62,13.1.51c7.89.3,15.43-2.9,18.22-5.52,9.29-8.72,28.58-27.16,33.45-39.47l-13.54-1.42a22.82,22.82,0,0,0-17,4.94"/><path id="Path_2826" data-name="Path 2826" d="M252.94,150.09a16.39,16.39,0,0,0,.65,7.83,14.8,14.8,0,0,1-3.53,15.25,18.9,18.9,0,0,1-5.56,4s.95,5.89,9.88,6.72c3.62.33,13.21,1.14,20.37,1.07a101.64,101.64,0,0,0,17.07-1.54l1.39-45.28s1.44-19-11.67-21.6l-18.89-1.18Z"/><path id="Path_2827" data-name="Path 2827" class="cls-7" d="M251.73,154.33a.6.6,0,0,1-.6-.6.62.62,0,0,1,.16-.41,50.37,50.37,0,0,0,9.19-13.46.61.61,0,0,1,.79-.31.6.6,0,0,1,.31.8,51.7,51.7,0,0,1-9.4,13.78.61.61,0,0,1-.45.2"/><path id="Path_2828" data-name="Path 2828" d="M251.9,93.84s-4.76.14-4.1-8.31,10-8,13.19-9.12,8.52-8,10.57-9.82,8.34-9.44,21.35-2.22c0,0,2.29,2.16,11.07-.2,7.64-2.05,22.11-.06,19.39,11.14A13.05,13.05,0,0,1,318,83.06q-.72.48-1.59,1a5.67,5.67,0,0,0-2.92,4.69c-.36,6.59-3.76,19.8-26.34,11.31a5.48,5.48,0,0,0-5,.57c-1.82,1.22-3.37,5-13.07,5.29-6.23.22-9.32-6.11-11.45-8.85a7.71,7.71,0,0,0-5.68-3.19"/><path id="Path_2829" data-name="Path 2829" class="cls-6" d="M253.29,93.84s0,1.51,0,2.18a11,11,0,0,1-.94,5.1.51.51,0,0,0,.2.65l1.67,1a.49.49,0,0,1,.22.32c.15.83.72,3.89.92,4.44a2.27,2.27,0,0,0,1.15,1.23c.75.26,3.66-.65,3.66-.65s-.43-.55,1.89,3.46c1.63,2.81-1.86,7.43-1.86,7.43s13.14,5.3,20.5-1a.81.81,0,0,0,0-1.14.75.75,0,0,0-.35-.22c-7-1.72-7.88-5.22-10.62-10.67a.92.92,0,0,0-.73-.4c-1.17-.1-4.25,0-5.29-4.91a.81.81,0,0,1,0-.38c.33-1,1.73-6-2.77-3.92a3.85,3.85,0,0,1-5.23-1.5l0,0a1.45,1.45,0,0,0-.87-.62Z"/><path id="Path_2830" data-name="Path 2830" d="M270.94,121.75a32.88,32.88,0,0,1-11-2.14.6.6,0,0,1-.33-.78.39.39,0,0,1,.08-.14c.9-1.2,3-4.75,1.81-6.77q-1.17-2-1.65-2.91l-.06-.12a8.41,8.41,0,0,1-3.52.49,2.89,2.89,0,0,1-1.51-1.6c-.2-.55-.67-3-.94-4.49l-1.63-1a1.12,1.12,0,0,1-.42-1.41,10.07,10.07,0,0,0,.89-4.52V96c0-.66,0-2.17,0-2.17a.61.61,0,0,1,.61-.59l.14,0,1.52.37a2,2,0,0,1,1.24.88,3.26,3.26,0,0,0,4.4,1.36l.09-.05c1.52-.71,2.65-.75,3.37-.12,1.18,1,.65,3.43.22,4.76v.08c.88,4.17,3.24,4.33,4.5,4.42l.26,0a1.43,1.43,0,0,1,1.21.73c.31.62.6,1.21.87,1.78,2.16,4.44,3.46,7.12,9.36,8.58a1.41,1.41,0,0,1,1,1.73,1.39,1.39,0,0,1-.41.66A15.15,15.15,0,0,1,271,121.74m-9.84-3c2.78,1,13.12,4,19.17-1.2a.16.16,0,0,0,0-.17.19.19,0,0,0-.11-.15c-6.45-1.6-8-4.79-10.15-9.22-.28-.56-.56-1.15-.87-1.76a.53.53,0,0,0-.24-.08h-.24c-1.35-.1-4.52-.32-5.59-5.38a1.43,1.43,0,0,1,0-.68c.53-1.66.58-3.1.13-3.5s-1.07-.16-2.08.31a4.48,4.48,0,0,1-6-1.75.79.79,0,0,0-.51-.36l-.79-.2c0,.48,0,1.07,0,1.43v.28a11.08,11.08,0,0,1-1,5l1.61,1a1.12,1.12,0,0,1,.49.72c.42,2.31.77,4,.9,4.35a1.79,1.79,0,0,0,.77.86,10.15,10.15,0,0,0,3.09-.6h0a.65.65,0,0,1,.84.15.67.67,0,0,1,.13.3c.12.26.53,1,1.81,3.23,1.43,2.48-.5,6-1.44,7.44"/><path id="Path_2831" data-name="Path 2831" d="M262.23,101.72a1.79,1.79,0,0,1-1.45-.57.6.6,0,0,1,.18-.83.61.61,0,0,1,.77.1,1.21,1.21,0,0,0,.88,0,1.28,1.28,0,0,0,.71-1,.6.6,0,0,1,1.17.26v0a2.27,2.27,0,0,1-2.25,2"/><path id="Path_2832" data-name="Path 2832" d="M251.92,101.39a2.53,2.53,0,0,1-1.72-.64c-1.55-1.4-1.4-4.57-1.37-4.93a.6.6,0,0,1,.59-.56L260.53,95a.6.6,0,0,1,0,1.2L250,96.45c0,1,.2,2.7,1,3.41a1.41,1.41,0,0,0,1.26.3.6.6,0,1,1,.26,1.17h-.06a3.41,3.41,0,0,1-.55,0"/><path id="Path_2833" data-name="Path 2833" class="cls-5" d="M261.67,103.12a.81.81,0,1,1,.89.75.83.83,0,0,1-.89-.75"/><path id="Path_2834" data-name="Path 2834" class="cls-5" d="M267.65,141.15V152c0,15.52-12.21,28.1-27.27,28.1s-27.27,12.58-27.27,28.1a2.5,2.5,0,0,0,2.5,2.5h72.17c22.58,0,40.88-18.86,40.88-42.13V139.73A16.52,16.52,0,0,0,312.4,123H285.27c-9.73,0-17.62,8.13-17.62,18.17"/><path id="Path_2835" data-name="Path 2835" class="cls-7" d="M229.58,200.26a.6.6,0,0,1-.49-.95c3.83-5.44,9.93-8.57,18.14-9.28a34.24,34.24,0,0,0,13-3.56c8.42-4.63,19.6-12.82,19.6-30.49v-2c0-17.86,6.17-18.77,16.24-18.77a.6.6,0,0,1,0,1.2c-9.88,0-15,.78-15,17.57v2c0,18.3-11.54,26.76-20.22,31.54a35.58,35.58,0,0,1-13.43,3.71c-8,.69-13.6,3.56-17.26,8.77a.61.61,0,0,1-.49.26"/><rect id="Rectangle_425" data-name="Rectangle 425" class="cls-5" x="271.08" y="208.45" width="7.6" height="82.35"/><path id="Path_2836" data-name="Path 2836" class="cls-5" d="M239.28,289.57l33.62-3H276l34.32,3v2.36h-71Z"/></g></g></g></g></g></g></g></svg>