<svg xmlns="http://www.w3.org/2000/svg" xmlns:xlink="http://www.w3.org/1999/xlink" viewBox="0 0 333.15 334.91"><defs><style>.cls-1{fill:none;}.cls-2{clip-path:url(#clip-path);}.cls-3{opacity:0.6;}.cls-4{clip-path:url(#clip-path-3);}.cls-5{fill:#9ad8f3;}.cls-6{fill:#158bcb;}.cls-7{fill:#fff;}.cls-8{clip-path:url(#clip-path-4);}.cls-9{fill:#5ecbf1;}.cls-10{clip-path:url(#clip-path-5);}.cls-11{clip-path:url(#clip-path-6);}.cls-12{clip-path:url(#clip-path-7);}.cls-13{clip-path:url(#clip-path-8);}.cls-14{clip-path:url(#clip-path-9);}.cls-15{clip-path:url(#clip-path-10);}.cls-16{fill:#701e5e;}.cls-17{fill:#546976;}.cls-18{fill:#cddcf1;}</style><clipPath id="clip-path"><rect class="cls-1" width="333.15" height="334.91"/></clipPath><clipPath id="clip-path-3"><rect class="cls-1" width="333.15" height="333.23"/></clipPath><clipPath id="clip-path-4"><rect class="cls-1" x="84.88" y="77.46" width="148.19" height="4.41"/></clipPath><clipPath id="clip-path-5"><rect class="cls-1" x="84.88" y="93.78" width="103.2" height="4.41"/></clipPath><clipPath id="clip-path-6"><rect class="cls-1" x="84.88" y="110.1" width="148.19" height="4.41"/></clipPath><clipPath id="clip-path-7"><rect class="cls-1" x="84.88" y="126.42" width="103.2" height="4.41"/></clipPath><clipPath id="clip-path-8"><rect class="cls-1" x="84.88" y="142.74" width="148.19" height="4.41"/></clipPath><clipPath id="clip-path-9"><rect class="cls-1" x="84.88" y="159.06" width="103.2" height="4.41"/></clipPath><clipPath id="clip-path-10"><rect class="cls-1" x="84.88" y="175.38" width="148.19" height="4.41"/></clipPath></defs><g id="Layer_2" data-name="Layer 2"><g id="Layer_1-2" data-name="Layer 1"><g class="cls-2"><g id="Group_364" data-name="Group 364"><g id="Group_363" data-name="Group 363"><g class="cls-2"><g id="Group_362" data-name="Group 362"><g id="Group_340" data-name="Group 340" class="cls-3"><g id="Group_339" data-name="Group 339"><g class="cls-4"><g id="Group_338" data-name="Group 338"><path id="Path_3921" data-name="Path 3921" class="cls-5" d="M248.79,302.49c83.27-52.65,84.39-147.27,84.36-151.61C332.85,101.74,310.38,33,253.2,8.73c-6.61-2.81-43.1-16-75.72-3.34C139.41,20.15,114,52,107.59,79.76c-.91,3.94-1.56,8-5,12.4C89.41,109.1,76.2,97,54.24,103.64,16.84,115-11.16,181.11,4.38,236.7c18.7,66.93,92,88,103.48,91.13,70.74,19,129-17.77,140.93-25.34"/></g></g></g></g><path id="Path_3922" data-name="Path 3922" class="cls-6" d="M261,268.64H65.17l1.26-215H258.08a2.82,2.82,0,0,1,2.82,2.82Z"/><path id="Path_3923" data-name="Path 3923" class="cls-7" d="M254.91,267.7h-190a2.9,2.9,0,0,1-2.9-2.9V57.13a2.9,2.9,0,0,1,2.9-2.9h190a2.9,2.9,0,0,1,2.9,2.9V264.8a2.9,2.9,0,0,1-2.9,2.9"/><path id="Path_3924" data-name="Path 3924" d="M254.91,268.3h-190a3.5,3.5,0,0,1-3.5-3.5h0V57.13a3.5,3.5,0,0,1,3.5-3.5h190a3.5,3.5,0,0,1,3.5,3.5V264.8a3.5,3.5,0,0,1-3.5,3.5h0M64.88,54.84a2.3,2.3,0,0,0-2.29,2.29V264.8a2.29,2.29,0,0,0,2.29,2.29h190a2.29,2.29,0,0,0,2.29-2.29V57.13a2.3,2.3,0,0,0-2.29-2.29Z"/><g id="Group_343" data-name="Group 343" class="cls-3"><g id="Group_342" data-name="Group 342"><g class="cls-8"><g id="Group_341" data-name="Group 341"><path id="Path_3925" data-name="Path 3925" class="cls-9" d="M230.87,81.88H87.08a2.21,2.21,0,0,1-2.2-2.2h0a2.2,2.2,0,0,1,2.2-2.2H230.87a2.19,2.19,0,0,1,2.2,2.2h0a2.2,2.2,0,0,1-2.2,2.2h0"/></g></g></g></g><g id="Group_346" data-name="Group 346" class="cls-3"><g id="Group_345" data-name="Group 345"><g class="cls-10"><g id="Group_344" data-name="Group 344"><path id="Path_3926" data-name="Path 3926" class="cls-9" d="M186.25,98.19H86.72a1.83,1.83,0,0,1-1.84-1.83h0v-.74a1.84,1.84,0,0,1,1.84-1.84h99.53a1.85,1.85,0,0,1,1.84,1.84h0v.74a1.84,1.84,0,0,1-1.84,1.83h0"/></g></g></g></g><g id="Group_349" data-name="Group 349" class="cls-3"><g id="Group_348" data-name="Group 348"><g class="cls-11"><g id="Group_347" data-name="Group 347"><path id="Path_3927" data-name="Path 3927" class="cls-9" d="M230.87,114.51H87.08a2.2,2.2,0,0,1-2.2-2.2h0a2.21,2.21,0,0,1,2.2-2.2H230.87a2.2,2.2,0,0,1,2.2,2.2h0a2.19,2.19,0,0,1-2.2,2.2h0"/></g></g></g></g><g id="Group_352" data-name="Group 352" class="cls-3"><g id="Group_351" data-name="Group 351"><g class="cls-12"><g id="Group_350" data-name="Group 350"><path id="Path_3928" data-name="Path 3928" class="cls-9" d="M186.25,130.83H86.72A1.84,1.84,0,0,1,84.88,129h0v-.73a1.84,1.84,0,0,1,1.84-1.84h99.53a1.84,1.84,0,0,1,1.84,1.84h0V129a1.84,1.84,0,0,1-1.84,1.84h0"/></g></g></g></g><g id="Group_355" data-name="Group 355" class="cls-3"><g id="Group_354" data-name="Group 354"><g class="cls-13"><g id="Group_353" data-name="Group 353"><path id="Path_3929" data-name="Path 3929" class="cls-9" d="M230.87,147.15H87.08a2.21,2.21,0,0,1-2.2-2.2h0a2.21,2.21,0,0,1,2.2-2.2H230.87a2.2,2.2,0,0,1,2.2,2.2h0a2.2,2.2,0,0,1-2.2,2.2h0"/></g></g></g></g><g id="Group_358" data-name="Group 358" class="cls-3"><g id="Group_357" data-name="Group 357"><g class="cls-14"><g id="Group_356" data-name="Group 356"><path id="Path_3930" data-name="Path 3930" class="cls-9" d="M186.25,163.47H86.72a1.84,1.84,0,0,1-1.84-1.84h0v-.74a1.83,1.83,0,0,1,1.84-1.83h99.53a1.84,1.84,0,0,1,1.84,1.83h0v.74a1.85,1.85,0,0,1-1.84,1.84h0"/></g></g></g></g><g id="Group_361" data-name="Group 361" class="cls-3"><g id="Group_360" data-name="Group 360"><g class="cls-15"><g id="Group_359" data-name="Group 359"><path id="Path_3931" data-name="Path 3931" class="cls-9" d="M230.87,179.79H87.08a2.21,2.21,0,0,1-2.2-2.21h0a2.2,2.2,0,0,1,2.2-2.2H230.87a2.19,2.19,0,0,1,2.2,2.2h0a2.2,2.2,0,0,1-2.2,2.21h0"/></g></g></g></g><path id="Path_3932" data-name="Path 3932" class="cls-6" d="M196.34,218.26H128.48a2.53,2.53,0,0,1-2.53-2.53V204.32a2.53,2.53,0,0,1,2.53-2.53h67.86a2.53,2.53,0,0,1,2.53,2.53h0v11.41a2.53,2.53,0,0,1-2.53,2.53h0"/><path id="Path_3933" data-name="Path 3933" class="cls-7" d="M182.77,90.3a2.12,2.12,0,0,1,.54-1.46c1.12-1.26,3.62-4,4.81-4.49,1.55-.67,7.57-5.33,9.12-5.13s.2,3.51-1.15,4.59-3.92,2.23-3.58,3,5.47.54,6.42,2S196.16,99,192,100c-2.94.66-6.2-.67-7.88-1.51a2.15,2.15,0,0,1-1.17-1.86Z"/><path id="Path_3934" data-name="Path 3934" d="M190.29,100.74A15.1,15.1,0,0,1,183.82,99a2.74,2.74,0,0,1-1.5-2.38l-.15-6.29a2.75,2.75,0,0,1,.69-1.89c1.63-1.82,3.82-4.11,5-4.63a27.67,27.67,0,0,0,2.79-1.74c3.27-2.17,5.5-3.59,6.65-3.44a1.32,1.32,0,0,1,1.15,1c.37,1.33-.81,3.72-2,4.67-.51.38-1,.74-1.58,1.08a10.29,10.29,0,0,0-1.71,1.23,13.58,13.58,0,0,0,1.8.33c1.77.25,3.78.55,4.46,1.63s-.12,3.23-.63,4.47c-1.26,3.06-3.77,6.86-6.7,7.52a8,8,0,0,1-1.82.19m6.82-20.92c-.88,0-4.05,2.1-5.77,3.25a27.4,27.4,0,0,1-3,1.84c-.75.33-2.47,2-4.6,4.33a1.54,1.54,0,0,0-.38,1.05l.15,6.29a1.5,1.5,0,0,0,.84,1.33c1.6.81,4.71,2.09,7.47,1.46,2.29-.52,4.63-3.86,5.83-6.75.86-2.08.88-3.21.75-3.41-.39-.62-2.33-.9-3.62-1.09-1.6-.23-2.57-.37-2.84-1-.43-1,.83-1.82,2.28-2.74.51-.31,1-.65,1.48-1,.89-.72,1.8-2.65,1.59-3.4,0-.1-.06-.12-.14-.13h-.06"/><path id="Path_3935" data-name="Path 3935" class="cls-16" d="M183.93,36.26c13,0,26.52,2,39.48,17.38H155.74s-4.13,20.15-.63,23.83C160,82.6,176,86.73,181.69,86.72A2.27,2.27,0,0,1,184,89h0v9a2.27,2.27,0,0,1-2.06,2.27c-8.86.83-42.59,4.21-46.24-15.81-3.55-19.44-2.77-42.6,22.57-47.63,5.47-1.08,12.64-1,17.07-.78q4.31.19,8.62.2"/><path id="Path_3936" data-name="Path 3936" class="cls-7" d="M185.14,50.1s-8.74,1.63-10.25,3.5c-1.06,1.32-2.79,5.44-1.35,8.6A4.83,4.83,0,0,0,180,64.47a4.68,4.68,0,0,0,.94-.6,10.31,10.31,0,0,0,3.45-5.44,5.44,5.44,0,0,1,3.07-3.55,4.92,4.92,0,0,1,1.21-.33,1,1,0,0,0,.86-1.07,1.6,1.6,0,0,0-.05-.21,4.48,4.48,0,0,0-4.31-3.16"/><path id="Path_3937" data-name="Path 3937" d="M177.85,65.52a5.44,5.44,0,0,1-1.33-.16A5.25,5.25,0,0,1,173,62.45c-1.53-3.37.18-7.67,1.43-9.23,1.6-2,9.69-3.54,10.61-3.71h.14A5.08,5.08,0,0,1,190,53.07a1.58,1.58,0,0,1-1,2,2,2,0,0,1-.33.08,4,4,0,0,0-1.06.28,4.84,4.84,0,0,0-2.71,3.16,11,11,0,0,1-3.66,5.75,5.61,5.61,0,0,1-3.43,1.18m7.33-14.82c-3.3.62-8.83,2-9.82,3.27s-2.6,5.06-1.27,8a4.05,4.05,0,0,0,2.72,2.25,4.38,4.38,0,0,0,3.73-.8,9.82,9.82,0,0,0,3.24-5.14,6,6,0,0,1,3.41-3.94,5.11,5.11,0,0,1,1.38-.36.39.39,0,0,0,.27-.18.34.34,0,0,0,0-.31,3.9,3.9,0,0,0-3.7-2.76"/><path id="Path_3938" data-name="Path 3938" class="cls-7" d="M176.3,27.6s-1.53,5.23,1.77,8.69a4.6,4.6,0,0,1-.23,6.5l-.19.18c-1.64,1.36-4.29,2.51-8.54,2.64A12,12,0,0,1,162,44a4.64,4.64,0,0,1,.24-7.83c2.46-1.4,5.06-4.74,3.76-12.67Z"/><path id="Path_3939" data-name="Path 3939" d="M168.5,46.22a12.14,12.14,0,0,1-6.79-1.71,5.25,5.25,0,0,1-1.43-7.27,5.17,5.17,0,0,1,1.7-1.59c2.27-1.3,4.7-4.44,3.46-12.06l-.17-1.05L177,27.25l-.16.52c0,.08-1.38,4.95,1.63,8.1a5.06,5.06,0,0,1,1.39,3.84A5.24,5.24,0,0,1,178,43.43c-2.07,1.73-5.07,2.66-8.9,2.78h-.64m-1.71-21.78c1,7.55-1.72,10.83-4.2,12.25a4,4,0,0,0-.2,6.81A11.44,11.44,0,0,0,169.1,45c3.56-.1,6.3-1,8.17-2.5a4,4,0,0,0,1.43-2.86,3.91,3.91,0,0,0-1.06-2.93c-2.9-3.05-2.36-7.26-2-8.74Z"/><path id="Path_3940" data-name="Path 3940" d="M166.72,24.52s-3.76-.26-5.48-2.4A10.37,10.37,0,0,1,159,15.41c.13-2,.89-7.53,5.75-9s9.07-.09,10.64-.64a11.75,11.75,0,0,1,6.53-.61c3,.43,5.93,7.39-1.38,9.18a4.8,4.8,0,0,1-.64.12l-13.24,1.95Z"/><path id="Path_3941" data-name="Path 3941" class="cls-7" d="M166.86,18.58v-3a1.5,1.5,0,0,1,1.5-1.5h11.5s2.81,15.33-5.47,15.88-9.31-6.84-9.31-6.84a2.49,2.49,0,0,1-2.54-1.65c-.52-1.42-.47-3.9,1.78-3.76a2.74,2.74,0,0,1,2.18,1,.19.19,0,0,0,.28,0,.19.19,0,0,0,.08-.15"/><path id="Path_3942" data-name="Path 3942" d="M173.52,30.57a8.77,8.77,0,0,1-8.94-6.89,3,3,0,0,1-2.61-2,4.15,4.15,0,0,1,.24-3.68,2.31,2.31,0,0,1,2.15-.89,3.83,3.83,0,0,1,1.89.57v-2.1a2.11,2.11,0,0,1,2.1-2.1h12l.09.5c.07.4,1.76,9.89-1.71,14.34a5.76,5.76,0,0,1-4.32,2.26l-.9,0m-7.93-8.15.08.59c0,.27,1.06,6.82,8.67,6.32a4.53,4.53,0,0,0,3.45-1.8c2.72-3.49,1.85-10.9,1.55-12.88h-11a.9.9,0,0,0-.9.9v3a.8.8,0,0,1-1.45.48,2.24,2.24,0,0,0-1.73-.78,1.19,1.19,0,0,0-1.1.41,3.07,3.07,0,0,0-.07,2.55A1.84,1.84,0,0,0,165,22.5Z"/><path id="Path_3943" data-name="Path 3943" class="cls-7" d="M305.52,93.49H244.9a3.18,3.18,0,0,1-3.18-3.19h0v-22a3.18,3.18,0,0,1,3.18-3.19h60.62a3.19,3.19,0,0,1,3.19,3.19h0v22a3.19,3.19,0,0,1-3.19,3.19h0"/><path id="Path_3944" data-name="Path 3944" class="cls-17" d="M305.52,94.09H244.91a3.8,3.8,0,0,1-3.8-3.79v-22a3.81,3.81,0,0,1,3.8-3.8h60.61a3.8,3.8,0,0,1,3.79,3.8v22a3.79,3.79,0,0,1-3.79,3.79M244.91,65.72a2.59,2.59,0,0,0-2.59,2.59v22a2.6,2.6,0,0,0,2.59,2.59h60.61a2.59,2.59,0,0,0,2.58-2.59v-22a2.58,2.58,0,0,0-2.58-2.59Z"/><path id="Path_3945" data-name="Path 3945" class="cls-17" d="M299.42,75.84H251.26a.61.61,0,0,1,0-1.21h48.17a.61.61,0,0,1,0,1.21"/><path id="Path_3946" data-name="Path 3946" class="cls-17" d="M299.42,82.27H289.35a.61.61,0,0,1,0-1.21h10.07a.61.61,0,1,1,0,1.21"/><path id="Path_3947" data-name="Path 3947" class="cls-17" d="M282.91,82.27H251.26a.61.61,0,0,1,0-1.21h31.65a.61.61,0,1,1,0,1.21h0"/><path id="Path_3948" data-name="Path 3948" class="cls-7" d="M95.7,45.07H35.09a3.19,3.19,0,0,1-3.19-3.19h0v-22a3.19,3.19,0,0,1,3.19-3.19H95.7a3.19,3.19,0,0,1,3.19,3.19v22a3.19,3.19,0,0,1-3.19,3.19"/><path id="Path_3949" data-name="Path 3949" class="cls-17" d="M95.7,45.67H35.09a3.8,3.8,0,0,1-3.79-3.79v-22a3.79,3.79,0,0,1,3.79-3.79H95.7a3.79,3.79,0,0,1,3.79,3.79v22a3.8,3.8,0,0,1-3.79,3.79M35.09,17.3a2.59,2.59,0,0,0-2.59,2.58v22a2.59,2.59,0,0,0,2.59,2.58H95.7a2.59,2.59,0,0,0,2.59-2.58v-22A2.58,2.58,0,0,0,95.7,17.3Z"/><path id="Path_3950" data-name="Path 3950" class="cls-17" d="M90.05,28.29H41.88a.61.61,0,0,1,0-1.21H90.05a.61.61,0,0,1,0,1.21"/><path id="Path_3951" data-name="Path 3951" class="cls-17" d="M90.05,34.72H80a.61.61,0,1,1,0-1.21H90.05a.61.61,0,0,1,0,1.21"/><path id="Path_3952" data-name="Path 3952" class="cls-17" d="M73.54,34.72H41.88a.61.61,0,0,1,0-1.21H73.54a.61.61,0,0,1,0,1.21"/><rect id="Rectangle_512" data-name="Rectangle 512" class="cls-7" x="31.9" y="60.83" width="66.99" height="28.37" rx="7.94"/><path id="Path_3953" data-name="Path 3953" class="cls-17" d="M95.7,89.8H35.1A3.8,3.8,0,0,1,31.3,86h0V64a3.8,3.8,0,0,1,3.8-3.8H47.05a.61.61,0,0,1,0,1.21H35.1A2.6,2.6,0,0,0,32.5,64V86a2.6,2.6,0,0,0,2.6,2.59H95.69A2.6,2.6,0,0,0,98.29,86V64a2.6,2.6,0,0,0-2.6-2.59H55.11a.61.61,0,1,1,0-1.21H95.69A3.81,3.81,0,0,1,99.5,64h0V86a3.81,3.81,0,0,1-3.81,3.8h0"/><path id="Path_3955" data-name="Path 3955" class="cls-17" d="M90.05,71.9H41.88a.61.61,0,0,1-.6-.61.6.6,0,0,1,.6-.6H90.05a.6.6,0,0,1,.6.6.61.61,0,0,1-.6.61"/><path id="Path_3957" data-name="Path 3957" class="cls-17" d="M90.05,78.33H80a.61.61,0,1,1,0-1.21H90.05a.61.61,0,0,1,0,1.21h0"/><path id="Path_3959" data-name="Path 3959" class="cls-17" d="M73.54,78.33H41.88a.61.61,0,0,1,0-1.21H73.54a.61.61,0,0,1,0,1.21"/><path id="Path_3960" data-name="Path 3960" class="cls-7" d="M282.3,297.2l3.83,4.53a12,12,0,0,1,2.8,6.85,4.82,4.82,0,0,1-1.33,3.7,3.23,3.23,0,0,1-4.58.08l-.09-.08-5.9-6.11-4.7-5.44Z"/><path id="Path_3961" data-name="Path 3961" d="M285.26,313.87a3.81,3.81,0,0,1-2.77-1.17l-5.9-6.11-5.3-6.14,11.2-4,4.1,4.85a12.47,12.47,0,0,1,2.94,7.2,5.42,5.42,0,0,1-1.5,4.15,3.8,3.8,0,0,1-2.76,1.18ZM273.36,301l4.12,4.77,5.88,6.09a2.65,2.65,0,0,0,1.9.8h0a2.61,2.61,0,0,0,1.9-.81,4.21,4.21,0,0,0,1.17-3.23,11.25,11.25,0,0,0-2.66-6.51l-3.55-4.21Z"/><path id="Path_3962" data-name="Path 3962" class="cls-7" d="M271.81,305.8l-.15,8.16-4.54,1.77a3.47,3.47,0,0,1-4-1.13l-1.66-2.18,2.8-11.84Z"/><path id="Path_3963" data-name="Path 3963" d="M265.87,316.57a4.09,4.09,0,0,1-3.25-1.61l-1.83-2.41,3.06-13,8.57,5.9-.16,8.89-4.92,1.92a4.12,4.12,0,0,1-1.47.27m-3.77-4.29,1.48,2a2.88,2.88,0,0,0,3.32.93l4.17-1.62.13-7.43-6.58-4.53Z"/><path id="Path_3964" data-name="Path 3964" class="cls-7" d="M262.18,309.16a4.42,4.42,0,0,0-2.35,2.15c-1,1.77-.88,4.9-2.45,7.36s-7.16,6.17-7.65,8.72.1,4.31,2.26,5.68,12.35,3.24,16.17-4.6,4.51-10.2,3.63-17.35l-.07.05a2.57,2.57,0,0,1-3.63-.21l-.13-.17a2.59,2.59,0,0,0-1.68-1Z"/><path id="Path_3965" data-name="Path 3965" d="M257.87,334.91a13.38,13.38,0,0,1-6.21-1.33c-2.3-1.46-3.08-3.41-2.52-6.31.33-1.7,2.46-3.67,4.52-5.57a22.67,22.67,0,0,0,3.21-3.36,12.69,12.69,0,0,0,1.48-4.27,11.26,11.26,0,0,1,.95-3.05,5,5,0,0,1,2.71-2.44l.13,0,4.23.65a3.15,3.15,0,0,1,2.07,1.24,2,2,0,0,0,2.75.4l.13-.1.92-.82.14,1.14c.91,7.34.11,9.9-3.68,17.68a10.41,10.41,0,0,1-6.83,5.65,14.61,14.61,0,0,1-4,.53m4.37-25.13a4,4,0,0,0-1.88,1.83,10.83,10.83,0,0,0-.83,2.72,13.79,13.79,0,0,1-1.64,4.66,22.72,22.72,0,0,1-3.41,3.59c-1.83,1.69-3.9,3.61-4.15,4.92-.47,2.4.11,3.87,2,5.06,1.27.81,5.45,1.72,9.23.66a9.31,9.31,0,0,0,6.08-5c3.54-7.28,4.36-9.72,3.68-16.05a3.18,3.18,0,0,1-3.83-1,2,2,0,0,0-1.28-.77Z"/><path id="Path_3966" data-name="Path 3966" d="M266.89,319a.6.6,0,0,1-.61-.6.53.53,0,0,1,.16-.41,8.43,8.43,0,0,0,1.61-5.93.59.59,0,0,1,.55-.64h0a.59.59,0,0,1,.64.55h0a9.46,9.46,0,0,1-1.92,6.82.61.61,0,0,1-.44.2"/><path id="Path_3967" data-name="Path 3967" d="M259.53,331.91c-7.55,0-10.17-4-10.31-4.2a.6.6,0,0,1,1-.65c0,.08,4,5.93,16.49,2.59a.6.6,0,0,1,.74.42.61.61,0,0,1-.43.74h0a29.32,29.32,0,0,1-7.51,1.1"/><path id="Path_3968" data-name="Path 3968" class="cls-7" d="M279.94,310.62a7.63,7.63,0,0,1,5.94-1.19.87.87,0,0,0,1-.7s0,0,0-.06l.58-5.29s7.64.49,8.62,2.05-1.25,9.75-1.35,13,1.55,11.53-2.86,13.39-10.39,2.25-11.76-.1,2.55-6.08,3.13-10.49c.31-2.32-2.53-7.64-3.56-9.47a.86.86,0,0,1,.25-1.13"/><path id="Path_3969" data-name="Path 3969" d="M284.57,334c-2.24,0-4.16-.55-5-1.94-.93-1.6,0-3.48,1.11-5.66a16.78,16.78,0,0,0,1.94-5.22c.23-1.71-1.65-5.82-3.49-9.09a1.46,1.46,0,0,1,.43-1.91,8.21,8.21,0,0,1,6.4-1.29.25.25,0,0,0,.19,0,.27.27,0,0,0,.11-.18l.64-5.87.58,0c1.86.12,8,.65,9.1,2.34.68,1.09.25,3.82-.53,8.19a44.6,44.6,0,0,0-.73,5.13c0,.63,0,1.47.09,2.44.23,3.92.59,9.84-3.32,11.49a21.08,21.08,0,0,1-7.55,1.59m-.3-24.07a6.85,6.85,0,0,0-4,1.23.25.25,0,0,0-.07.34c1.49,2.66,3.95,7.47,3.63,9.84a18,18,0,0,1-2.06,5.6c-.94,1.87-1.75,3.48-1.16,4.5,1.09,1.86,6.43,1.78,11-.15,3.13-1.32,2.8-6.72,2.59-10.3-.06-1-.11-1.86-.09-2.55a43.08,43.08,0,0,1,.76-5.3c.46-2.61,1.17-6.56.68-7.33s-4.19-1.47-7.57-1.74l-.52,4.72a1.52,1.52,0,0,1-.59,1,1.48,1.48,0,0,1-1.13.26,7.63,7.63,0,0,0-1.5-.15"/><path id="Path_3970" data-name="Path 3970" d="M284.37,331.43a27.69,27.69,0,0,1-4.45-.41.6.6,0,1,1,.2-1.19c4.77.78,8.07.38,9.82-1.22,1.95-1.78,1.73-4.86,1.58-7.11,0-.42-.06-.81-.07-1.16,0-.57-.07-1.2-.12-1.88a27.89,27.89,0,0,1-.13-3.77,43.82,43.82,0,0,1,2.07-10.44.6.6,0,0,1,1.14.4h0a43.65,43.65,0,0,0-2,10.12,27.08,27.08,0,0,0,.13,3.6c.05.69.1,1.33.12,1.92,0,.35,0,.72.07,1.13.17,2.5.41,5.91-2,8.08-1.41,1.29-3.52,1.93-6.37,1.93"/><path id="Path_3971" data-name="Path 3971" class="cls-7" d="M289.72,223.79s-9,63.41-14.31,73.41l-18.23-6.47,8.82-73Z"/><path id="Path_3972" data-name="Path 3972" d="M275.7,297.94l-19.17-6.8,9-74.18,24.91,6.39-.08.53c-.37,2.59-9.09,63.63-14.37,73.61Zm-17.86-7.62,17.27,6.13c4.95-10.6,13.06-66.13,13.94-72.21l-22.53-5.77Z"/><path id="Path_3973" data-name="Path 3973" class="cls-7" d="M246.31,212.66a.29.29,0,0,0-.36.21.08.08,0,0,1,0,0c-.52,4.12-5.75,45.63-4.49,57,1,8.83,14.11,24.72,20.82,32.32a13.27,13.27,0,0,0,9.48,4.49l6.21.23-1.37-1.76a2.36,2.36,0,0,1,.31-3.23l5.4-4.71a.79.79,0,0,0,.11-1.08l-14.7-19.46a24.07,24.07,0,0,1-4.8-16.19l1.72-24.33L266,217.71Z"/><path id="Path_3974" data-name="Path 3974" d="M279.23,307.55l-7.51-.28a13.92,13.92,0,0,1-9.91-4.7c-7.4-8.4-20-23.81-21-32.65-1.26-11.35,3.9-52.45,4.5-57.09a.9.9,0,0,1,1-.78l.1,0,20.18,5.18-1.41,18.93-1.71,24.33a23.42,23.42,0,0,0,4.68,15.78l14.7,19.46a1.42,1.42,0,0,1-.2,1.9l-5.4,4.71a1.76,1.76,0,0,0-.24,2.41ZM246.5,213.33c-.76,6-5.67,45.49-4.45,56.46,1,8.83,14.78,25.31,20.67,32a12.76,12.76,0,0,0,9,4.29l4.93.18-.58-.74a3,3,0,0,1,.39-4.06l5.4-4.71a.18.18,0,0,0,0-.25L267.23,277a24.6,24.6,0,0,1-4.92-16.6L264,236.1l1.34-17.93Z"/><path id="Path_3975" data-name="Path 3975" d="M283.89,238h-.1a.6.6,0,0,1-.5-.68h0c1.3-8.18,2.22-14.07,2.22-14.12a.61.61,0,1,1,1.2.18c0,.06-.92,5.95-2.22,14.13a.61.61,0,0,1-.6.51"/><path id="Path_3976" data-name="Path 3976" d="M275.43,286.75a.6.6,0,0,1-.6-.6.71.71,0,0,1,0-.14c1.94-9,5-27.48,7.28-41.38a.59.59,0,0,1,.69-.49.6.6,0,0,1,.5.69c-2.25,13.91-5.34,32.39-7.29,41.44a.6.6,0,0,1-.59.48"/><path id="Path_3977" data-name="Path 3977" d="M271.36,129.52s-6.7-7.85-.82-14a10.26,10.26,0,0,1,8.52-3c4.52.5,11.13,3.27,13.71,14.64,0,0,.35,7.31,5.25,9.76s12.09,2.1,14.71,10.86S310,161.14,312.6,166s7.27,7.11,7,14.67c-.4,9.9-20.06,18-34.42,7Z"/><path id="Path_3978" data-name="Path 3978" class="cls-7" d="M252.25,158.61s-3.7,25.2-9.57,35.58-7.65,23.33-9.6,25.68-8,3.37-9,5.83l2.21,1.51,5.47,4.37s4-2.15,5.48-4.58c.84-1.38,5.1-8.55,8.6-14.46a58.21,58.21,0,0,0,6.86-17.42L259.5,165Z"/><path id="Path_3979" data-name="Path 3979" d="M231.72,232.3,226,227.7l-2.59-1.76.18-.45c.6-1.56,2.68-2.5,4.88-3.5,1.66-.75,3.38-1.53,4.19-2.5s1.49-3.62,2.41-6.83c1.5-5.26,3.56-12.46,7.13-18.76,5.76-10.17,9.47-35.12,9.5-35.37l.16-1.1,8.35,7.3-6.85,30.52a59,59,0,0,1-6.92,17.6c-3.47,5.83-7.77,13.08-8.61,14.46-1.54,2.54-5.54,4.71-5.71,4.8Zm-6.82-6.79,1.79,1.23,5.15,4.11c1-.57,3.78-2.31,4.9-4.16.84-1.38,5.15-8.62,8.6-14.45A57.47,57.47,0,0,0,252.12,195l6.7-29.84-6.14-5.37c-.79,5-4.24,25.44-9.48,34.7-3.5,6.17-5.54,13.3-7,18.5-1,3.62-1.79,6.23-2.65,7.27s-2.83,2-4.62,2.83c-1.64.74-3.33,1.51-4,2.42"/><path id="Path_3980" data-name="Path 3980" class="cls-16" d="M304.84,162.87C303.36,157,299.17,146,288.12,142a21.57,21.57,0,0,0-4.4-1.07c-2.59-.14-10.69-.28-12.22-.12a23.86,23.86,0,0,0-3.64.7c-5.47,1.51-14.71,5.56-18.53,16.09a1.73,1.73,0,0,0,.49,1.89l6,5.13a1.74,1.74,0,0,1,.59,1.46c-.4,4.24-2.23,22.48-4.47,27.15-2.55,5.29-6.28,20-6.28,20s21.47,15.14,45,11.41c0,0,.3-11.22-.3-18.28s-4.9-15.87-5.29-22.54,13.53-12.93,13.53-12.93l3.9-2.28a5.17,5.17,0,0,0,2.4-5.72"/><path id="Path_3981" data-name="Path 3981" class="cls-7" d="M240.47,235c0-.68-8.62-3-10.34-5.14-1.35-1.7-11.12-7.21-15.18-9.47a1.76,1.76,0,0,0-2.39.69.88.88,0,0,0-.1.22c-2.5,6.36-11.06,27.23-18.93,35.07a1.76,1.76,0,0,0,0,2.49,1.71,1.71,0,0,0,.52.37c5.36,2.46,17.77,8.31,22.22,11.6a1.76,1.76,0,0,0,2.31-.2c4.69-4.83,21.92-23.45,21.92-35.62"/><path id="Path_3982" data-name="Path 3982" d="M217.27,271.78a2.32,2.32,0,0,1-1.39-.46c-4.42-3.27-16.94-9.16-22.11-11.54a2.3,2.3,0,0,1-1.34-1.72,2.42,2.42,0,0,1,.67-2.11c7.79-7.76,16.35-28.65,18.79-34.87a2.36,2.36,0,0,1,3.06-1.33,1.85,1.85,0,0,1,.29.13c5.15,2.85,14,7.9,15.36,9.62.92,1.15,4.51,2.53,6.89,3.45,2.9,1.11,3.58,1.4,3.58,2.07,0,12.3-16.91,30.7-22.09,36a2.38,2.38,0,0,1-1.71.72m-3.18-51a1,1,0,0,0-.39.07,1.09,1.09,0,0,0-.68.66c-2.46,6.28-11.1,27.36-19.07,35.29a1.18,1.18,0,0,0-.33,1,1.15,1.15,0,0,0,.65.84c5.21,2.4,17.82,8.33,22.33,11.66a1.15,1.15,0,0,0,1.52-.13c5.07-5.23,21.53-23.13,21.74-35-.91-.44-1.85-.83-2.8-1.18-2.8-1.07-6.28-2.41-7.4-3.82-.89-1.12-6.5-4.6-15-9.31a1.09,1.09,0,0,0-.56-.15"/><path id="Path_3983" data-name="Path 3983" d="M218.77,263.76a.62.62,0,0,1-.41-.16c-2.78-2.62-16.67-8.5-16.81-8.56a.6.6,0,1,1,.47-1.11c.58.24,14.23,6,17.17,8.79a.6.6,0,0,1,0,.84.61.61,0,0,1-.46.2"/><path id="Path_3984" data-name="Path 3984" d="M222.58,258.83a.58.58,0,0,1-.36-.12c-3.59-2.73-17.27-9.15-17.4-9.22a.6.6,0,1,1,.51-1.09c.57.26,13.94,6.54,17.63,9.35a.6.6,0,0,1,.12.84.59.59,0,0,1-.49.24"/><path id="Path_3985" data-name="Path 3985" d="M226.5,253.73a.59.59,0,0,1-.38-.14c-1.49-1.2-6.33-3.71-13.63-7.05a.6.6,0,0,1,.5-1.1h0c5.23,2.39,11.88,5.59,13.89,7.21a.6.6,0,0,1-.38,1.08"/><path id="Path_3986" data-name="Path 3986" d="M230.4,248.65a.65.65,0,0,1-.31-.08c-6.37-3.79-20-9.63-20.16-9.69a.61.61,0,0,1-.32-.79.62.62,0,0,1,.8-.32h0c.13.06,13.86,5.93,20.3,9.76a.61.61,0,0,1,.23.82.6.6,0,0,1-.54.3"/><path id="Path_3987" data-name="Path 3987" d="M233.7,242.7a.64.64,0,0,1-.28-.07c-2.07-1.12-19.76-9.45-19.94-9.53a.61.61,0,0,1-.29-.81.6.6,0,0,1,.8-.29c.73.35,17.91,8.43,20,9.56a.6.6,0,0,1,.27.81.59.59,0,0,1-.55.33"/><path id="Path_3988" data-name="Path 3988" class="cls-7" d="M298.19,172.28a41.9,41.9,0,0,1-9.5,16.87,31.82,31.82,0,0,1-17.43,9.3c-4.22.76-10.65,1.89-17.33,2.87a30.44,30.44,0,0,0-8.39,2.52c-2.84,1.33-5.93,2.34-7.94,3.32a1,1,0,0,1-1.38-.48,1,1,0,0,1-.08-.23c-.36-1.58-1.28-3.58-.47-5.69a10.57,10.57,0,0,1,5.93-6c3-1.17,9.12-.39,12.64-.49s18-5.7,22.07-9a52.19,52.19,0,0,0,10.07-11.9,3.7,3.7,0,0,1,2.83-1.71l7.91-.66a1,1,0,0,1,1.1.93.92.92,0,0,1,0,.37"/><path id="Path_3989" data-name="Path 3989" d="M237.15,207.87a1.66,1.66,0,0,1-1.6-1.29c-.07-.3-.16-.63-.26-1a7.67,7.67,0,0,1-.18-5.07,11.17,11.17,0,0,1,6.27-6.32c2.25-.87,5.94-.73,9.2-.6,1.34,0,2.61.1,3.65.07,3.19-.09,17.68-5.57,21.7-8.89A51.39,51.39,0,0,0,285.87,173a4.35,4.35,0,0,1,3.29-2l7.91-.66a1.62,1.62,0,0,1,1.75,1.49,1.56,1.56,0,0,1-.05.57,42.58,42.58,0,0,1-9.65,17.13A32.61,32.61,0,0,1,271.37,199c-4.23.77-10.68,1.89-17.35,2.88a29.46,29.46,0,0,0-8.22,2.47c-1.48.69-3.05,1.3-4.43,1.84s-2.55,1-3.5,1.47a1.6,1.6,0,0,1-.71.16m9.75-13.13a15.63,15.63,0,0,0-5.09.61,10,10,0,0,0-5.58,5.64,6.61,6.61,0,0,0,.22,4.3c.1.36.2.7.27,1a.45.45,0,0,0,.24.3.4.4,0,0,0,.37,0c1-.49,2.26-1,3.59-1.5s2.92-1.15,4.36-1.82a30.79,30.79,0,0,1,8.55-2.56c6.66-1,13.1-2.11,17.32-2.88a31.37,31.37,0,0,0,17.09-9.11,41.3,41.3,0,0,0,9.36-16.62.4.4,0,0,0-.08-.38.41.41,0,0,0-.36-.15l-7.91.65a3.13,3.13,0,0,0-2.36,1.44,53,53,0,0,1-10.2,12c-4,3.29-18.7,9.06-22.43,9.16-1.08,0-2.37,0-3.73-.07-1.19,0-2.43-.09-3.63-.09"/><path id="Path_3990" data-name="Path 3990" class="cls-7" d="M233,226.78c-2.06-.22-7,5.85-8.27,6.21s-1.54-.48-1.54-.48c-1-1.61,5-7,5-7Z"/><path id="Path_3991" data-name="Path 3991" d="M224.1,233.72a1.77,1.77,0,0,1-1.5-.79c-1.09-1.85,3.23-6.1,5.14-7.84a.6.6,0,1,1,.81.89h0c-2.94,2.69-5.28,5.7-4.92,6.33.05.07.3.34.89.12a16.64,16.64,0,0,0,2.33-2c2.71-2.58,4.75-4.39,6.21-4.23a.61.61,0,0,1,.54.67.61.61,0,0,1-.67.53c-1-.11-3.67,2.4-5.25,3.9a12.23,12.23,0,0,1-2.74,2.28,2.41,2.41,0,0,1-.84.16"/><path id="Path_3992" data-name="Path 3992" class="cls-7" d="M274.77,117.35c-.79.66-8.46,6.11-2.53,17.19,0,0,1.59,6.21-1.77,8.56a1.12,1.12,0,0,0-.29,1.56,1.1,1.1,0,0,0,.21.22,9.91,9.91,0,0,0,6.34,2.15,16,16,0,0,0,8-2.12,1.12,1.12,0,0,0,.42-1.53,1.13,1.13,0,0,0-.22-.27,12.6,12.6,0,0,1-3.6-5.75,3.67,3.67,0,0,1,1-3.7,7.94,7.94,0,0,0,2.53-5.36c.26-4.48-2.45-5.77-4.22-6.94-3.61-2.38-5.83-4-5.83-4"/><path id="Path_3993" data-name="Path 3993" d="M277,147.64h-.24a10.62,10.62,0,0,1-6.72-2.29,1.75,1.75,0,0,1,.12-2.75c2.81-1.95,1.7-7.19,1.55-7.84-3.72-7-2.78-13.49,2.59-17.78l.48-.4.38.28s2.26,1.65,5.8,4l.46.3c1.82,1.15,4.3,2.73,4,7.19a8.45,8.45,0,0,1-2.73,5.75,3.11,3.11,0,0,0-.83,3.1,11.93,11.93,0,0,0,3.43,5.47,1.73,1.73,0,0,1,.55,1.48,1.65,1.65,0,0,1-.86,1.3,16.49,16.49,0,0,1-8,2.2m-2.16-29.52c-2.86,2.38-6.64,7.51-2,16.14l.05.14c.07.27,1.65,6.64-2,9.2a.52.52,0,0,0-.14.72.47.47,0,0,0,.1.1,9.32,9.32,0,0,0,6,2,15.36,15.36,0,0,0,7.66-2,.48.48,0,0,0,.25-.38.51.51,0,0,0-.17-.45,13.09,13.09,0,0,1-3.77-6,4.28,4.28,0,0,1,1.17-4.31,7.33,7.33,0,0,0,2.34-4.95c.22-3.75-1.74-5-3.47-6.1l-.48-.31c-2.73-1.8-4.69-3.18-5.47-3.74"/><path id="Path_3994" data-name="Path 3994" d="M275.49,136.55a4.73,4.73,0,0,1-4-2.24.61.61,0,0,1,.23-.82.59.59,0,0,1,.82.22,3.65,3.65,0,0,0,4.52,1.36.6.6,0,0,1,.39,1.14,6,6,0,0,1-1.92.34"/><path id="Path_3995" data-name="Path 3995" d="M85.76,143.32s-4.2-.53-5.52-9.2S78.66,117.83,70,115.47s-16.81,2.63-16.55,11,.23,15.19-5.25,18.92c-7.09,4.82-13.75,1.31-26.89,13.05C4.77,173.24,9.57,218.19,57.38,205.84Z"/><path id="Path_3996" data-name="Path 3996" class="cls-7" d="M74.93,135.89a4.37,4.37,0,0,1-4,.93Z"/><path id="Path_3997" data-name="Path 3997" d="M72,137.54a8.54,8.54,0,0,1-1.24-.12.61.61,0,1,1,.22-1.19h0a3.84,3.84,0,0,0,3.49-.75.6.6,0,0,1,.85,0,.62.62,0,0,1,0,.86A4.68,4.68,0,0,1,72,137.54"/><path id="Path_3998" data-name="Path 3998" class="cls-7" d="M73.93,306.54s2.28,7,4.56,9.11S89.83,322,90,326.53c.15,5.29-2.92,6.27-11.16,4.36a26,26,0,0,1-12.61-7.09c-1.55-1.84-.68-3.4-.3-5.55a45.53,45.53,0,0,0,.55-8v-4.37Z"/><path id="Path_3999" data-name="Path 3999" d="M85,332.39a29.39,29.39,0,0,1-6.32-.91,26.76,26.76,0,0,1-12.94-7.29c-1.43-1.7-1.07-3.23-.7-4.84.09-.39.19-.78.26-1.2a45.36,45.36,0,0,0,.54-7.9v-5l8.56.75.12.38c0,.07,2.26,6.86,4.4,8.86a27.41,27.41,0,0,0,3,2.13c3.6,2.35,8.54,5.56,8.64,9.17.06,2.28-.47,3.84-1.62,4.78a6,6,0,0,1-4,1.1M67,306.53v3.72a47.81,47.81,0,0,1-.57,8.11c-.08.45-.17.86-.27,1.27-.36,1.53-.6,2.54.45,3.78a25.35,25.35,0,0,0,12.28,6.89c5,1.17,7.87,1.18,9.25.06.85-.7,1.22-1.91,1.17-3.81-.08-3-4.71-6-8.09-8.19a28.39,28.39,0,0,1-3.19-2.27c-2.07-1.94-4.07-7.47-4.59-9Z"/><path id="Path_4000" data-name="Path 4000" d="M89.63,329.33h0l-2.93-.21a31.39,31.39,0,0,1-20.11-9.26c-.72-.73-1.11-1.19-1.13-1.2a.61.61,0,1,1,.92-.79h0s.38.45,1.07,1.14a30.16,30.16,0,0,0,19.34,8.9l2.92.21a.61.61,0,1,1,0,1.21"/><path id="Path_4001" data-name="Path 4001" d="M72,318.1a.6.6,0,0,1-.65-.55.61.61,0,0,1,.55-.65s3.73-.65,5.07-2.4a.6.6,0,0,1,.85-.11.59.59,0,0,1,.11.84h0c-1.63,2.14-5.66,2.83-5.83,2.86H72"/><path id="Path_4002" data-name="Path 4002" d="M75.44,320.46a.6.6,0,0,1-.66-.53.61.61,0,0,1,.54-.66c1-.21,3.67-1,4.49-2.44a.61.61,0,0,1,1,.62h0c-1.26,2.13-5.12,3-5.28,3h-.13"/><path id="Path_4003" data-name="Path 4003" d="M79.19,322.69a.6.6,0,0,1-.63-.57.61.61,0,0,1,.42-.6s2.85-1.08,3.65-2.76a.6.6,0,0,1,1.09.52h0c-1,2.13-4.19,3.33-4.32,3.38l-.21,0"/><path id="Path_4004" data-name="Path 4004" class="cls-7" d="M56.36,289.36c-.28,0-4.24-.39-6.53-.62a1.62,1.62,0,0,0-1.78,1.44l-.45,4.15a25.33,25.33,0,0,1-.86,4.33c-.75,2.58-1.86,7-1.26,9a26,26,0,0,0,4,6.89,2.35,2.35,0,0,0,2.61.78,16.72,16.72,0,0,0,6-3.26c2.45-2.45-.2-7.16-.2-7.16Z"/><path id="Path_4005" data-name="Path 4005" d="M51.36,316.09A3,3,0,0,1,49,315a26.62,26.62,0,0,1-4.12-7.09c-.62-2.07.34-6.24,1.25-9.37a24.28,24.28,0,0,0,.85-4.22l.45-4.15a2.24,2.24,0,0,1,2.44-2c3.82.38,6.24.61,6.47.62h.54l.06.53,1.56,15.46c.41.79,2.58,5.22,0,7.77a17,17,0,0,1-6.25,3.4,2.73,2.73,0,0,1-.94.16m-1.69-26.76a1,1,0,0,0-1,.92l-.45,4.15a24.84,24.84,0,0,1-.89,4.43c-1.21,4.14-1.66,7.3-1.25,8.68A25.09,25.09,0,0,0,50,314.2a1.77,1.77,0,0,0,2,.59,16.4,16.4,0,0,0,5.78-3.12c2.1-2.1-.27-6.39-.3-6.43l-.06-.11-1.53-15.21-6-.58h-.1"/><path id="Path_4006" data-name="Path 4006" d="M53.18,315.4a.58.58,0,0,1-.49-.25c-4.91-6.91-4.56-8.85-3.85-12.72.15-.8.32-1.7.45-2.76.37-2.83,1.46-10.61,1.47-10.69a.61.61,0,0,1,.69-.51.59.59,0,0,1,.51.68h0c0,.08-1.1,7.85-1.47,10.68-.14,1.08-.31,2-.46,2.82-.69,3.75-1,5.3,3.64,11.8a.6.6,0,0,1-.13.84.58.58,0,0,1-.36.12"/><path id="Path_4007" data-name="Path 4007" d="M52.52,303.52a.6.6,0,0,1-.64-.56.59.59,0,0,1,.55-.64l4.47-.66a.61.61,0,1,1,.18,1.2l-4.47.65h-.09"/><path id="Path_4008" data-name="Path 4008" d="M53,306.73a.59.59,0,0,1-.64-.55.6.6,0,0,1,.55-.65l4.47-.65a.61.61,0,0,1,.69.51.6.6,0,0,1-.51.68h0l-4.47.66H53"/><path id="Path_4009" data-name="Path 4009" d="M57.84,308c2.6,1.8,8.11,4.11,17.37,1.33L71,215.36,53.52,212a264.65,264.65,0,0,0,.2,46.85A432.93,432.93,0,0,1,56,304.42,4.24,4.24,0,0,0,57.84,308"/><path id="Path_4010" data-name="Path 4010" d="M54.3,209.29l41.75,2.35-1.42,45.65a28.71,28.71,0,0,1-4.75,15c-4.72,7.13-12.26,17.61-18.23,21.72-9.41,6.46-17.35-84.68-17.35-84.68"/><path id="Path_4011" data-name="Path 4011" class="cls-18" d="M75.05,292.65a.6.6,0,0,1-.6-.58l-1.38-29.59a.61.61,0,1,1,1.21-.05L75.66,292a.6.6,0,0,1-.57.63h0"/><path id="Path_4012" data-name="Path 4012" class="cls-7" d="M125.51,127a.57.57,0,0,1-.47-.57c0-1.46.34-5.82,2.79-7.83,3-2.42,5.48-8,7.27-7.45s-2.15,5.39-1.7,5.93,3.59-2.52,4.58-4.31,2.18-5.31,3.61-5.19c2,.16,2.4,3.12-.2,9-2.48,5.55-10.81,7-11.46,10.74a.57.57,0,0,1-.67.45h0Z"/><path id="Path_4013" data-name="Path 4013" d="M129.37,128.33a.91.91,0,0,1-.23,0l-3.75-.73a1.16,1.16,0,0,1-1-1.17c0-1.79.41-6.16,3-8.28a23.66,23.66,0,0,0,3.39-4c1.67-2.26,3-4,4.44-3.62a1.21,1.21,0,0,1,.8.71c.37.92-.32,2.3-1.34,4.13-.09.15-.19.33-.28.5a14.85,14.85,0,0,0,3-3.43c.23-.41.47-.92.72-1.46,1-2,2-4.18,3.48-4a2.11,2.11,0,0,1,1.71,1.07c.93,1.56.44,4.59-1.41,8.74-1.38,3.09-4.38,4.94-7,6.57-2.21,1.36-4.13,2.54-4.39,4a1.18,1.18,0,0,1-1.15,1m-3.73-1.94,3.7.72c.37-2,2.49-3.3,4.94-4.81s5.33-3.28,6.55-6c2.4-5.36,1.74-7.2,1.48-7.64a.94.94,0,0,0-.77-.48h0c-.68,0-1.7,2.19-2.26,3.37-.26.55-.51,1.08-.75,1.52-.88,1.59-3.66,4.56-4.86,4.68a.8.8,0,0,1-.71-.28c-.44-.52,0-1.23.75-2.64.44-.8,1.49-2.68,1.27-3.09-.65-.19-2.1,1.76-3.15,3.18a23.39,23.39,0,0,1-3.6,4.16c-2.25,1.84-2.53,6-2.56,7.34"/><path id="Path_4014" data-name="Path 4014" class="cls-7" d="M34.56,220.93a.59.59,0,0,0-.63.35c-.48,1.12-1.84,3.92-4,5a15.14,15.14,0,0,0-4.68,2.95c-1.84,1.73-5,6.23-4.29,7.34.81,1.32,3.42,0,5.43-1.25s4-4.16,6-4.45-2.18,4.4-1.59,5.14,2.7-.36,4.05-2.58c.53-.88,3.71-8.61,4.67-11a.58.58,0,0,0-.31-.75.5.5,0,0,0-.13,0Z"/><path id="Path_4015" data-name="Path 4015" d="M22.09,237.68a1.75,1.75,0,0,1-1.6-.83c-1.06-1.71,3-6.79,4.38-8.1A13.86,13.86,0,0,1,29,226l.7-.34c1.91-.95,3.2-3.58,3.67-4.66a1.18,1.18,0,0,1,1.28-.7l4.51.71a1.18,1.18,0,0,1,1,1.35,1.12,1.12,0,0,1-.08.26c-1.24,3-4.18,10.15-4.72,11-1,1.72-2.68,3-3.9,3.1a1.28,1.28,0,0,1-1.13-.45c-.52-.65.07-1.64,1-3.14a17.93,17.93,0,0,0,.93-1.73,9.36,9.36,0,0,0-3,2.24,16.55,16.55,0,0,1-2.49,2.08c-1.55.95-3.32,1.89-4.66,1.89m12.4-16.15c-.65,1.5-2.06,4.17-4.24,5.24l-.73.35a12.71,12.71,0,0,0-3.81,2.5c-2.13,2-4.47,5.89-4.19,6.6.18.29,1,.74,4.6-1.46a15,15,0,0,0,2.29-1.92c1.24-1.18,2.53-2.4,3.89-2.61a1,1,0,0,1,1.06.37c.44.65-.08,1.6-1,3.22a12.27,12.27,0,0,0-.95,1.79,5.07,5.07,0,0,0,2.95-2.54c.4-.66,2.65-6,4.62-10.83Z"/><path id="Path_4016" data-name="Path 4016" class="cls-6" d="M75.78,142.7a41.69,41.69,0,0,1,11.35-1c4.36.24,9.87.91,13.48,2.71,6.76,3.39,10,7.5,14,5.89,3.33-1.36,7.68-18.08,9-23.42a1.74,1.74,0,0,1,2-1.3l4.18.83a1.74,1.74,0,0,1,1.39,1.86c-.59,7.1-3.38,36.13-9.7,38.19-7.2,2.36-25.29-7.05-25.29-7.05s.15,35.72,4.85,54.54c0,0-7.42,0-12.25,2-25.74,10.66-36.6-2-36.6-2,.16-7.31,1.77-12.31,7-20.46,2.88-4.46,3.7-11.66-2-18.16,0,0-13.87,42.85-16.45,47.9-.18.34-8.72-1.55-8.74-1.75-1.38-15.37,9.16-44,10.69-51a36.13,36.13,0,0,1,1.92-6.17c2.6-6.21,8.41-16.4,19.25-19Z"/><path id="Path_4017" data-name="Path 4017" d="M80.37,213.81a.59.59,0,0,1-.6-.59.67.67,0,0,1,.06-.28L90,192.16a.6.6,0,0,1,.81-.27.61.61,0,0,1,.28.81l-10.2,20.77a.6.6,0,0,1-.54.34"/><path id="Path_4018" data-name="Path 4018" d="M89.29,207a.59.59,0,0,1-.6-.59.61.61,0,0,1,0-.24l2.8-6.77a.6.6,0,0,1,1.11.46h0l-2.79,6.77a.62.62,0,0,1-.56.37"/><path id="Path_4019" data-name="Path 4019" class="cls-7" d="M74.74,136.07c2.66-1.83-.37-12.79-3.38-14.4s-9.34.14-9.34.14c2.35,7.72-1.87,9.63-2.46,9.63s-2.46.11-1.29,2.61,3.83,1.14,3.83,1.14a9.33,9.33,0,0,0,2.75,1.46,10.44,10.44,0,0,1-1.52,9.67,1.7,1.7,0,0,0,1,2.64,17,17,0,0,0,8.32-.24,16.18,16.18,0,0,0,5.8-2.65,1.68,1.68,0,0,0,.31-2.36,1.62,1.62,0,0,0-.61-.49c-3.07-1.41-5.13-5.93-3.37-7.15"/><path id="Path_4020" data-name="Path 4020" d="M67.83,150a15.17,15.17,0,0,1-3.68-.42,2.27,2.27,0,0,1-1.61-1.41,2.32,2.32,0,0,1,.29-2.16,9.84,9.84,0,0,0,1.53-8.86A11.07,11.07,0,0,1,62,135.89a3.86,3.86,0,0,1-2.49.11,3.06,3.06,0,0,1-1.78-1.69,2.68,2.68,0,0,1-.17-2.6,2.17,2.17,0,0,1,2-.87,3.29,3.29,0,0,0,1.71-1.45c.75-1.18,1.39-3.41.18-7.4l-.18-.59.6-.17c.27-.07,6.59-1.81,9.78-.1,2.33,1.25,4.48,7.11,4.7,11.13.12,2.2-.3,3.65-1.26,4.31a1.28,1.28,0,0,0-.38,1.19,7,7,0,0,0,3.65,4.9,2.23,2.23,0,0,1,1.3,1.81,2.27,2.27,0,0,1-.88,2.08,17.11,17.11,0,0,1-6,2.75,19.58,19.58,0,0,1-4.93.66m-5.64-15.49.31.27a9.07,9.07,0,0,0,2.56,1.34l.27.1.09.27a11,11,0,0,1-1.6,10.22,1.1,1.1,0,0,0-.14,1,1,1,0,0,0,.75.66,16.38,16.38,0,0,0,8-.24A15.84,15.84,0,0,0,78,145.59a1.06,1.06,0,0,0,.41-1,1,1,0,0,0-.6-.85,8.06,8.06,0,0,1-4.35-5.9,2.38,2.38,0,0,1,.9-2.29c.56-.39.83-1.57.74-3.25-.22-4-2.31-9.18-4.07-10.12-2.25-1.21-6.7-.33-8.3,0,1.17,4.31.28,6.78-.7,8.11A3.9,3.9,0,0,1,59.56,132a1.22,1.22,0,0,0-1,.31c-.16.25-.07.78.25,1.44a1.88,1.88,0,0,0,1.07,1.07,2.92,2.92,0,0,0,1.93-.21Z"/><path id="Path_4021" data-name="Path 4021" class="cls-17" d="M304.5,60.47a.6.6,0,0,1-.6-.6.88.88,0,0,1,0-.17l3.86-13.49a.59.59,0,0,1,.74-.41.6.6,0,0,1,.42.74L305.08,60a.6.6,0,0,1-.58.44"/><path id="Path_4022" data-name="Path 4022" class="cls-17" d="M310.46,62.74a.59.59,0,0,1-.61-.59.58.58,0,0,1,.18-.43l20.14-20.49a.59.59,0,0,1,.85,0,.6.6,0,0,1,0,.85h0L310.89,62.56a.58.58,0,0,1-.43.18"/><path id="Path_4023" data-name="Path 4023" class="cls-17" d="M313.79,71.33a.6.6,0,0,1-.31-1.13l6.83-4a.61.61,0,0,1,.83.22.6.6,0,0,1-.22.82h0l-6.83,4a.55.55,0,0,1-.3.09"/><path id="Path_4024" data-name="Path 4024" class="cls-17" d="M142.19,320.57h0c-1.57,0-3.2-.05-4.85-.13a.6.6,0,0,1-.58-.62h0a.62.62,0,0,1,.63-.58c1.63.08,3.24.12,4.8.13a.61.61,0,1,1,0,1.21m4.83-.08a.6.6,0,1,1,0-1.2c1.63-.06,3.24-.17,4.79-.31a.6.6,0,0,1,.65.54.61.61,0,0,1-.54.66h0c-1.57.14-3.2.25-4.85.31h0m-14.48-.36h-.05c-1.58-.13-3.2-.28-4.83-.47a.6.6,0,1,1,.14-1.2c1.61.18,3.22.34,4.79.47a.6.6,0,0,1,.58.62.59.59,0,0,1-.63.58m24.09-.54A.59.59,0,0,1,156,319a.6.6,0,0,1,.55-.65c.37-.05.73-.11,1.09-.18,1.23-.21,2.43-.47,3.58-.77a.61.61,0,0,1,.74.44.61.61,0,0,1-.44.73c-1.18.31-2.42.57-3.68.79l-1.11.19h-.09m-33.7-.54h-.09c-1.58-.23-3.2-.49-4.79-.76a.59.59,0,0,1-.49-.69.6.6,0,0,1,.69-.5h0c1.58.27,3.18.52,4.76.75a.6.6,0,1,1-.08,1.2m-9.53-1.63-.12,0c-1.64-.32-3.24-.67-4.75-1a.61.61,0,0,1-.45-.72.61.61,0,0,1,.73-.46c1.49.35,3.08.69,4.71,1a.6.6,0,0,1-.12,1.2m52.54-.29a.59.59,0,0,1-.62-.57.6.6,0,0,1,.4-.59A30.88,30.88,0,0,0,170,313.9a.61.61,0,0,1,.61,1.05,32.73,32.73,0,0,1-4.42,2.14.54.54,0,0,1-.22,0M104,315.07a.69.69,0,0,1-.2,0c-1.53-.53-3.06-1.08-4.55-1.65a.61.61,0,0,1-.36-.78.61.61,0,0,1,.78-.35c1.49.56,3,1.11,4.53,1.64a.61.61,0,0,1,.4.75.59.59,0,0,1-.6.42m70.2-2.81a.6.6,0,0,1-.61-.59.56.56,0,0,1,.22-.48,24.22,24.22,0,0,0,3.28-3.36.61.61,0,0,1,.85-.1.61.61,0,0,1,.1.85,24.56,24.56,0,0,1-3.46,3.53.54.54,0,0,1-.38.15M95,311.66a.59.59,0,0,1-.23-.05c-1.49-.61-3-1.26-4.45-1.91a.6.6,0,1,1,.49-1.1h0c1.45.65,2.94,1.29,4.42,1.9a.6.6,0,0,1-.23,1.16m72.86-2.77h0a15.82,15.82,0,0,1-4.92-.87.6.6,0,1,1,.39-1.14,15,15,0,0,0,4.55.8.6.6,0,0,1,.6.61.6.6,0,0,1-.61.6m4.78-.51a.6.6,0,1,1-.13-1.19,31.09,31.09,0,0,0,4.52-1.4.61.61,0,0,1,.44,1.13,33.59,33.59,0,0,1-4.7,1.45h-.13m-86.44-.67a.68.68,0,0,1-.27-.07c-1.45-.7-2.9-1.44-4.32-2.18a.6.6,0,0,1,.56-1.07c1.41.74,2.85,1.47,4.29,2.17a.59.59,0,0,1,.3.79.62.62,0,0,1-.56.36m72.64-1.85a.6.6,0,0,1-.34-.11,25,25,0,0,1-3.79-3.16.6.6,0,1,1,.86-.85,24.29,24.29,0,0,0,3.61,3,.6.6,0,0,1,.17.83.61.61,0,0,1-.51.27m22.83-.84a.6.6,0,0,1-.26-1.14c1.28-.62,2.68-1.34,4.28-2.19a.61.61,0,0,1,.82.24.62.62,0,0,1-.25.82c-1.62.87-3,1.59-4.32,2.21a.66.66,0,0,1-.27.06m-1.48-.3a.59.59,0,0,1-.61-.59.63.63,0,0,1,.06-.27,18.74,18.74,0,0,0,1.5-4.42.6.6,0,0,1,.71-.47.59.59,0,0,1,.47.71h0a19.88,19.88,0,0,1-1.59,4.7.6.6,0,0,1-.54.34m10-4.22a.6.6,0,0,1-.62-.58.62.62,0,0,1,.32-.55l2.13-1.19,2.09-1.17a.6.6,0,0,1,.59,1.05h0l-2.09,1.17-2.13,1.19a.6.6,0,0,1-.29.08m-38-1.55a.59.59,0,0,1-.52-.3,15.93,15.93,0,0,1-1.85-4.64.59.59,0,0,1,.46-.72.61.61,0,0,1,.72.46,14.76,14.76,0,0,0,1.71,4.29.59.59,0,0,1-.21.82.56.56,0,0,1-.31.09m46.45-3.14a.61.61,0,0,1-.29-1.14c1.53-.83,2.93-1.57,4.28-2.27a.6.6,0,1,1,.56,1.07c-1.35.7-2.74,1.44-4.26,2.26a.57.57,0,0,1-.29.08m-16.6-.45a.62.62,0,0,1-.6-.56,15,15,0,0,0-1-4.52.6.6,0,0,1,.34-.78.61.61,0,0,1,.79.34h0a16.64,16.64,0,0,1,1.1,4.87.6.6,0,0,1-.55.64H182m25.19-4a.6.6,0,0,1-.62-.58.62.62,0,0,1,.36-.56c1.47-.72,2.95-1.4,4.4-2.05a.6.6,0,0,1,.49,1.1c-1.43.64-2.9,1.32-4.36,2a.66.66,0,0,1-.27.06m-56.9-1.69h-.12a.61.61,0,0,1-.47-.71h0a10.32,10.32,0,0,1,2.19-4.58.61.61,0,0,1,.93.78h0a9.1,9.1,0,0,0-1.94,4,.59.59,0,0,1-.59.48m65.72-2.24a.59.59,0,0,1-.62-.57.6.6,0,0,1,.4-.59c1.51-.61,3-1.19,4.53-1.73a.6.6,0,0,1,.41,1.13h0c-1.49.54-3,1.12-4.49,1.72a.59.59,0,0,1-.23,0m-37.53-.91a.61.61,0,0,1-.46-.21,14,14,0,0,0-3.52-3,.6.6,0,0,1-.2-.83.59.59,0,0,1,.82-.21,15.62,15.62,0,0,1,3.82,3.24.6.6,0,0,1-.06.85.63.63,0,0,1-.4.14m46.62-2.35a.6.6,0,0,1-.63-.57A.59.59,0,0,1,225,283c1.55-.49,3.11-.95,4.66-1.37a.62.62,0,0,1,.74.43.6.6,0,0,1-.42.74c-1.54.41-3.09.87-4.61,1.35a.57.57,0,0,1-.18,0m-68.93-1.7a.6.6,0,0,1-.62-.59.58.58,0,0,1,.36-.56,17,17,0,0,1,4.78-1.42.61.61,0,1,1,.18,1.2,15.34,15.34,0,0,0-4.44,1.31.76.76,0,0,1-.26.06m78.24-.83a.6.6,0,1,1-.13-1.19h0c1.16-.26,2.35-.51,3.52-.73l1.24-.23a.6.6,0,0,1,.7.48.61.61,0,0,1-.48.71h0l-1.24.22c-1.15.23-2.32.47-3.47.73l-.14,0m-64-.08-.15,0a18.57,18.57,0,0,0-2.87-.52c-.6-.06-1.2-.11-1.78-.14a.6.6,0,1,1,0-1.2c.61,0,1.23.07,1.86.14a19.57,19.57,0,0,1,3,.55.6.6,0,0,1-.15,1.18"/><path id="Path_4025" data-name="Path 4025" class="cls-17" d="M47.31,279.38a.53.53,0,0,1-.44-.19c-1.1-1.18-2.19-2.4-3.24-3.62a.59.59,0,0,1,.07-.85.61.61,0,0,1,.85.07h0c1,1.21,2.11,2.41,3.2,3.58a.6.6,0,0,1,0,.85.63.63,0,0,1-.43.17M41,272.06a.63.63,0,0,1-.48-.23c-1-1.27-2-2.57-2.93-3.87a.59.59,0,0,1,.13-.84.61.61,0,0,1,.85.13c.93,1.29,1.91,2.58,2.9,3.83a.59.59,0,0,1-.09.84.62.62,0,0,1-.39.14m-5.67-7.82a.63.63,0,0,1-.5-.26c-.89-1.34-1.77-2.72-2.61-4.1a.6.6,0,1,1,1-.63h0c.83,1.37,1.7,2.73,2.59,4.06a.59.59,0,0,1-.16.83.52.52,0,0,1-.34.1m-5-8.24a.61.61,0,0,1-.53-.31c-.78-1.41-1.55-2.85-2.28-4.29a.6.6,0,0,1,1.08-.54h0c.72,1.42,1.48,2.85,2.26,4.24a.61.61,0,0,1-.22.82.58.58,0,0,1-.31.08M26,247.39a.6.6,0,0,1-.55-.36c-.67-1.46-1.32-2.95-1.93-4.45a.6.6,0,1,1,1.11-.46c.61,1.48,1.26,3,1.92,4.41a.6.6,0,0,1-.29.8.47.47,0,0,1-.26,0"/><path id="Path_4026" data-name="Path 4026" class="cls-17" d="M19.73,230.82a.62.62,0,0,1-.58-.43c-.46-1.54-.9-3.12-1.3-4.68a.61.61,0,0,1,.44-.73.59.59,0,0,1,.73.43h0c.4,1.55.84,3.11,1.29,4.63a.59.59,0,0,1-.39.75h0l-.17,0m-2.42-9.35a.6.6,0,0,1-.59-.48c-.35-1.57-.67-3.17-1-4.76a.6.6,0,0,1,.48-.7A.61.61,0,0,1,17,216h0c.28,1.57.6,3.15.94,4.71a.6.6,0,0,1-.46.72h0l-.13,0M15.6,212a.6.6,0,0,1-.6-.52c-.23-1.62-.42-3.24-.58-4.82a.6.6,0,1,1,1.2-.12h0c.16,1.56.35,3.17.57,4.77a.6.6,0,0,1-.5.68h-.1m-.94-9.62a.6.6,0,0,1-.6-.57c-.09-1.75-.11-3.08-.11-3.88s0-1,0-1a.61.61,0,0,1,1.21,0h0s0,.34,0,1c0,.79,0,2.09.11,3.82a.6.6,0,0,1-.57.63h0"/><path id="Path_4027" data-name="Path 4027" class="cls-17" d="M286.73,276.06a.6.6,0,0,1-.64-.56.59.59,0,0,1,.49-.62,39.62,39.62,0,0,0,4.51-1.48.62.62,0,0,1,.79.34.6.6,0,0,1-.34.78,40.23,40.23,0,0,1-4.66,1.52.39.39,0,0,1-.15,0m9-3.53a.6.6,0,0,1-.28-1.14,43.16,43.16,0,0,0,4.06-2.48.6.6,0,0,1,.84.16.61.61,0,0,1-.15.84,43.59,43.59,0,0,1-4.18,2.55.59.59,0,0,1-.29.07m7.95-5.46a.6.6,0,0,1-.61-.59.56.56,0,0,1,.21-.47,42.93,42.93,0,0,0,3.44-3.3.61.61,0,0,1,.86,0,.6.6,0,0,1,0,.85h0a43.35,43.35,0,0,1-3.53,3.38.58.58,0,0,1-.39.15m6.6-7a.6.6,0,0,1-.61-.59.58.58,0,0,1,.13-.38,46,46,0,0,0,2.66-3.94.61.61,0,0,1,1,.62,46.37,46.37,0,0,1-2.74,4.05.6.6,0,0,1-.48.24m5-8.26a.6.6,0,0,1-.6-.6.75.75,0,0,1,0-.26,44.33,44.33,0,0,0,1.78-4.42.6.6,0,1,1,1.14.39h0a44.31,44.31,0,0,1-1.82,4.54.61.61,0,0,1-.55.35m3.13-9.12-.14,0a.6.6,0,0,1-.45-.72h0c.35-1.53.64-3.11.84-4.69a.6.6,0,0,1,.68-.53.61.61,0,0,1,.52.68h0c-.21,1.62-.5,3.24-.86,4.81a.61.61,0,0,1-.59.47m1.23-9.56h0a.6.6,0,0,1-.58-.62h0c0-.57,0-1.15,0-1.73,0-1,0-2-.09-3a.61.61,0,0,1,.57-.64.61.61,0,0,1,.64.57c.06,1,.09,2.09.09,3.11,0,.59,0,1.19,0,1.77a.61.61,0,0,1-.6.59m-.53-9.64a.59.59,0,0,1-.6-.52c-.22-1.55-.5-3.13-.85-4.7a.61.61,0,0,1,.46-.72.6.6,0,0,1,.72.46h0c.35,1.6.64,3.22.86,4.8a.6.6,0,0,1-.5.68H319M317,214a.6.6,0,0,1-.58-.44c-.44-1.5-.94-3-1.5-4.55a.62.62,0,0,1,.37-.78.61.61,0,0,1,.77.37h0c.56,1.54,1.07,3.1,1.52,4.62a.61.61,0,0,1-.4.75.57.57,0,0,1-.18,0M313.7,205a.61.61,0,0,1-.56-.37c-.38-.89-.79-1.8-1.21-2.69a.6.6,0,1,1,1.09-.51q.64,1.37,1.23,2.73a.6.6,0,0,1-.3.79.74.74,0,0,1-.25.05"/></g></g></g></g></g></g></g></svg>