<svg xmlns="http://www.w3.org/2000/svg" xmlns:xlink="http://www.w3.org/1999/xlink" viewBox="0 0 335.1 335.58"><defs><style>.cls-1{fill:none;}.cls-2{clip-path:url(#clip-path);}.cls-3{opacity:0.6;}.cls-4{clip-path:url(#clip-path-3);}.cls-5{fill:#9ad8f3;}.cls-6{fill:#546976;}.cls-7{fill:#158bcb;}.cls-8{fill:#fff;}.cls-9{fill:#45b1e0;}.cls-10{fill:#701e5e;}.cls-11{fill:#cddcf1;}.cls-12{fill:#9fb6df;}.cls-13{opacity:0.5;}.cls-14{clip-path:url(#clip-path-4);}</style><clipPath id="clip-path"><rect class="cls-1" width="335.1" height="335.58"/></clipPath><clipPath id="clip-path-3"><rect class="cls-1" x="0.04" width="335.06" height="335.58"/></clipPath><clipPath id="clip-path-4"><rect class="cls-1" x="82.07" y="29.04" width="29.52" height="30.76"/></clipPath></defs><g id="Layer_2" data-name="Layer 2"><g id="Layer_1-2" data-name="Layer 1"><g id="Group_206" data-name="Group 206"><g class="cls-2"><g id="Group_205" data-name="Group 205"><g id="Group_204" data-name="Group 204"><g class="cls-2"><g id="Group_203" data-name="Group 203"><g id="Group_199" data-name="Group 199" class="cls-3"><g id="Group_198" data-name="Group 198"><g class="cls-4"><g id="Group_197" data-name="Group 197"><path id="Path_2417" data-name="Path 2417" class="cls-5" d="M141.27.18c76.11-2.7,161.18,24.09,186.19,103.47,12.88,40.89,8.33,91-5.13,131.25-10.62,31.75-29.43,61.73-58.13,80.21a121.67,121.67,0,0,1-46.31,17.64l-1.3.21c-17.4,2.75-35.12,2.75-52.74,2.55-38.1-.45-73.77-4.19-105.25-27.23C17,277.84,8.93,228.33,2.77,177.67c-6-49.71-4.2-97.43,28-134.53C57.46,12.28,99.61,1.67,141.27.18"/></g></g></g></g><path id="Path_2418" data-name="Path 2418" class="cls-6" d="M101.37,278.7l-1.3-4.75-5.38.24a19.84,19.84,0,0,0-1.72-3l2.84-4.56-3.5-3.47-4.53,2.9a19.93,19.93,0,0,0-3-1.7L85,259l-4.76-1.25-2.47,4.77a20.79,20.79,0,0,0-3.44,0l-2.52-4.75-4.75,1.3.24,5.37a20.81,20.81,0,0,0-3,1.73l-4.56-2.84-3.46,3.5,2.9,4.53a19.93,19.93,0,0,0-1.7,3l-5.38-.19L50.88,279l4.77,2.47a19.75,19.75,0,0,0,0,3.44l-4.75,2.53,1.3,4.75,5.37-.24a20.42,20.42,0,0,0,1.73,3l-2.85,4.56,3.5,3.47,4.53-2.9a21.41,21.41,0,0,0,3,1.7l-.19,5.38,4.77,1.25,2.47-4.78a20.68,20.68,0,0,0,3.43,0l2.53,4.75,4.75-1.3L85,301.61a20.86,20.86,0,0,0,3-1.72l4.56,2.84,3.46-3.5-2.9-4.53a20.44,20.44,0,0,0,1.7-3l5.38.19,1.24-4.77-4.76-2.48a21.82,21.82,0,0,0,0-3.43ZM79.49,295.29a12.68,12.68,0,1,1,8.88-15.59h0a12.67,12.67,0,0,1-8.86,15.58h0"/><path id="Path_2419" data-name="Path 2419" class="cls-7" d="M229.94,258.29c-5.6-4.58-11.48-8.85-17.5-12.92-12.23-8.26-25.12-15.65-38.14-22.8-6.85-3.76-14-7.17-21-10.67s-14.14-7-21.23-10.51l-19.41-9.58C98,142.15,82,85.85,85.2,85.85L326,79.05c5.67,0,9.48,4.61,8.48,10.28L305.34,255.74A12.8,12.8,0,0,1,293.25,266h-53.6c-3.16-2.66-6.51-5.12-9.71-7.74"/><path id="Path_2420" data-name="Path 2420" class="cls-8" d="M78.32,79.63H321.05c5.36,0,8.94,4.34,8,9.7L299.86,255.74a12.06,12.06,0,0,1-11.4,9.7H45.74c-5.36,0-8.94-4.34-8-9.7L66.92,89.32a12.07,12.07,0,0,1,11.4-9.7"/><path id="Path_2421" data-name="Path 2421" d="M301.5,249.38h-.1a.62.62,0,0,1-.5-.7L328.46,89.22a7.7,7.7,0,0,0-1.55-6.41,7.45,7.45,0,0,0-5.85-2.58L302,79.77a.62.62,0,0,1-.58-.64.6.6,0,0,1,.6-.57l19.1.46a8.64,8.64,0,0,1,6.77,3,8.93,8.93,0,0,1,1.82,7.4L302.1,248.88a.62.62,0,0,1-.6.5"/><path id="Path_2422" data-name="Path 2422" d="M130.78,80.31a.61.61,0,1,1,0-1.21H244a.61.61,0,0,1,0,1.21Z"/><path id="Path_2423" data-name="Path 2423" d="M39.31,249h-.1a.61.61,0,0,1-.5-.7L62.11,113.5a.6.6,0,0,1,.7-.49.61.61,0,0,1,.5.7L39.91,248.54a.61.61,0,0,1-.6.5"/><path id="Path_2424" data-name="Path 2424" class="cls-7" d="M7.43,265.54H289.71a7.11,7.11,0,0,1,0,14.21H7.43a7.11,7.11,0,0,1,0-14.21"/><path id="Path_2425" data-name="Path 2425" class="cls-9" d="M84.31,86h229.4a7.4,7.4,0,0,1,7.73,7.07,7.57,7.57,0,0,1-.17,2L293.68,250a11.36,11.36,0,0,1-10.77,9H53.51A7.42,7.42,0,0,1,45.77,252,7.13,7.13,0,0,1,46,250L73.53,95.07a11.36,11.36,0,0,1,10.78-9"/><path id="Path_2426" data-name="Path 2426" class="cls-10" d="M320.07,101.8l1.2-6.71a7.41,7.41,0,0,0-5.6-8.85,7.57,7.57,0,0,0-2-.17H84.31a11.34,11.34,0,0,0-10.78,9l-1.2,6.71Z"/><path id="Path_2427" data-name="Path 2427" class="cls-11" d="M282.25,184.63H152.61l14.82-77.55,128.65-.66Z"/><path id="Path_2428" data-name="Path 2428" class="cls-11" d="M268.29,259.24,159,259.51,173.64,188l108.21-.2Z"/><path id="Path_2429" data-name="Path 2429" class="cls-11" d="M155.28,259.77l-104-1c-2.18,0-2.73-1.63-2.32-3.78l12.83-67.33H170.24Z"/><path id="Path_2430" data-name="Path 2430" class="cls-11" d="M300.35,106.15l18.7.13L293.16,254.09c-.48,2.7-3.75,5.09-6.5,5.08l-14-.2Z"/><path id="Path_2431" data-name="Path 2431" class="cls-11" d="M149,184l-86.43.4,14.49-78h86.69Z"/><path id="Path_2432" data-name="Path 2432" class="cls-8" d="M132.82,141.78c-1.24,11-11,20-21.73,20s-18.47-9-17.22-20,11-20,21.73-20,18.46,8.95,17.22,20"/><path id="Path_2433" data-name="Path 2433" class="cls-12" d="M120.9,139a8.58,8.58,0,0,1-8.22,7.57,6.55,6.55,0,0,1-6.6-6.5,7.71,7.71,0,0,1,.08-1.07,8.59,8.59,0,0,1,8.22-7.57,6.55,6.55,0,0,1,6.6,6.5,6.35,6.35,0,0,1-.08,1.07"/><path id="Path_2434" data-name="Path 2434" class="cls-12" d="M97.35,155.1c10.68-6,18.66-8.1,29.32-.38-9.54,9.47-22.35,9.27-29.32.38"/><path id="Path_2435" data-name="Path 2435" class="cls-8" d="M126.7,175.29H87.94a2.46,2.46,0,0,1-2.56-2.36,2.38,2.38,0,0,1,.16-1,4.62,4.62,0,0,1,4.16-3.32h38.76A2.46,2.46,0,0,1,131,171a2.4,2.4,0,0,1-.15.95,4.61,4.61,0,0,1-4.16,3.31"/><path id="Path_2436" data-name="Path 2436" class="cls-12" d="M154.46,116.54H132a1.52,1.52,0,0,1-1.58-1.47,1.35,1.35,0,0,1,.05-.44,2.45,2.45,0,0,1,2.28-1.9h22.51a1.52,1.52,0,0,1,1.58,1.46,1.61,1.61,0,0,1-.05.44,2.46,2.46,0,0,1-2.29,1.91"/><path id="Path_2437" data-name="Path 2437" d="M210.85,280.41a.59.59,0,0,1-.58-.63.61.61,0,0,1,.58-.58l16.83-.06h62a6.5,6.5,0,0,0,0-13h-62L190,266a.61.61,0,1,1,0-1.21h0l37.67.16h62a7.72,7.72,0,0,1,0,15.42h-62l-16.83.06Z"/><path id="Path_2438" data-name="Path 2438" d="M98.9,280.35H7.43a7.72,7.72,0,0,1,0-15.42H89.69a.61.61,0,0,1,0,1.22H7.43a6.5,6.5,0,0,0,0,13H98.9a.61.61,0,1,1,0,1.21"/><path id="Path_2439" data-name="Path 2439" d="M197.93,324.18a.61.61,0,0,1,0-1.22c2.08-.15,4.18-.35,6.24-.59a.62.62,0,0,1,.68.54.61.61,0,0,1-.54.68c-2.08.24-4.2.44-6.3.59h0"/><path id="Path_2440" data-name="Path 2440" d="M204.2,323.59a.61.61,0,0,1-.07-1.21c25.81-2.94,49-12.28,66.9-27a.61.61,0,0,1,.77.94c-18.14,14.87-41.49,24.3-67.53,27.28h-.07"/><path id="Path_2441" data-name="Path 2441" d="M208.52,315.12a.61.61,0,0,1-.08-1.21,118.1,118.1,0,0,0,46.1-15.32.61.61,0,0,1,.62,1.05,119.34,119.34,0,0,1-46.57,15.47h-.07"/><path id="Path_2442" data-name="Path 2442" class="cls-10" d="M122.82,60.4A40.71,40.71,0,1,1,82.11,19.69h0A40.71,40.71,0,0,1,122.82,60.4"/><path id="Path_2443" data-name="Path 2443" d="M82.11,101.71A41.32,41.32,0,1,1,123.43,60.4a41.3,41.3,0,0,1-41.32,41.31m0-81.41a40.1,40.1,0,1,0,40.1,40.1h0a40.14,40.14,0,0,0-40.1-40.1"/><path id="Path_2444" data-name="Path 2444" class="cls-8" d="M118.77,60.41A36.71,36.71,0,1,1,82.06,23.7a36.71,36.71,0,0,1,36.71,36.71h0"/><g id="Group_202" data-name="Group 202" class="cls-13"><g id="Group_201" data-name="Group 201"><g class="cls-14"><g id="Group_200" data-name="Group 200"><path id="Path_2445" data-name="Path 2445" class="cls-10" d="M111.58,49.66A31.37,31.37,0,0,0,82.11,29h0l0,30.76Z"/></g></g></g></g><path id="Path_2446" data-name="Path 2446" class="cls-6" d="M84,28.9A1.91,1.91,0,1,1,82.11,27h0A1.9,1.9,0,0,1,84,28.9"/><path id="Path_2447" data-name="Path 2447" d="M82.11,31.42a2.52,2.52,0,1,1,2.52-2.52h0a2.52,2.52,0,0,1-2.52,2.52m0-3.83a1.31,1.31,0,1,0,1.31,1.31,1.31,1.31,0,0,0-1.31-1.31"/><path id="Path_2448" data-name="Path 2448" class="cls-6" d="M84,91.9A1.91,1.91,0,1,1,82.11,90h0A1.9,1.9,0,0,1,84,91.9"/><path id="Path_2449" data-name="Path 2449" d="M82.11,94.42a2.52,2.52,0,1,1,2.52-2.52h0a2.52,2.52,0,0,1-2.52,2.52m0-3.83a1.31,1.31,0,1,0,1.31,1.31,1.31,1.31,0,0,0-1.31-1.31"/><path id="Path_2450" data-name="Path 2450" class="cls-6" d="M50.61,58.49A1.91,1.91,0,1,1,48.7,60.4h0a1.9,1.9,0,0,1,1.91-1.91"/><path id="Path_2451" data-name="Path 2451" d="M50.61,62.92a2.52,2.52,0,1,1,2.52-2.52h0a2.52,2.52,0,0,1-2.52,2.52m0-3.83a1.31,1.31,0,1,0,1.31,1.31h0a1.31,1.31,0,0,0-1.31-1.31"/><path id="Path_2452" data-name="Path 2452" class="cls-6" d="M113.61,58.49a1.91,1.91,0,1,1-1.91,1.91h0a1.9,1.9,0,0,1,1.91-1.91"/><path id="Path_2453" data-name="Path 2453" d="M113.61,62.92a2.52,2.52,0,1,1,2.52-2.52,2.52,2.52,0,0,1-2.52,2.52m0-3.83a1.31,1.31,0,1,0,1.31,1.31h0a1.31,1.31,0,0,0-1.31-1.31"/><path id="Path_2454" data-name="Path 2454" class="cls-8" d="M67.24,32.61a1,1,0,1,1-1.39-.37,1,1,0,0,1,1.39.37h0"/><path id="Path_2455" data-name="Path 2455" d="M66.36,34.75a2,2,0,0,1-.42-.06,1.6,1.6,0,1,1,.42.06m0-2a.46.46,0,0,0-.2,0,.41.41,0,0,0,.37.74l0,0a.41.41,0,0,0,.15-.57.42.42,0,0,0-.36-.2"/><path id="Path_2456" data-name="Path 2456" class="cls-8" d="M54.32,75.27A1,1,0,1,1,54,76.66a1,1,0,0,1,.37-1.39h0"/><path id="Path_2457" data-name="Path 2457" d="M54.83,77.77a2,2,0,0,1-.42,0,1.64,1.64,0,1,1,.42,0m0-2a.41.41,0,1,0,.42.41.42.42,0,0,0-.31-.4h-.11"/><path id="Path_2458" data-name="Path 2458" class="cls-8" d="M108.88,43.77a1,1,0,1,1-.37,1.39,1,1,0,0,1,.37-1.39h0"/><path id="Path_2459" data-name="Path 2459" d="M109.4,46.27A1.62,1.62,0,1,1,111,44.65a1.47,1.47,0,0,1-.06.42,1.61,1.61,0,0,1-1.56,1.2m-.21-2a.41.41,0,0,0-.15.57.41.41,0,0,0,.25.19.42.42,0,0,0,.31,0,.41.41,0,0,0,.15-.57h0a.42.42,0,0,0-.56-.15"/><path id="Path_2460" data-name="Path 2460" class="cls-8" d="M55.34,43.77a1,1,0,1,1-1.39.37,1,1,0,0,1,1.39-.37h0"/><path id="Path_2461" data-name="Path 2461" d="M54.83,46.27a1.62,1.62,0,1,1,1.63-1.62,1.64,1.64,0,0,1-.22.81,1.59,1.59,0,0,1-1.41.81m0-2h-.11a.42.42,0,0,0-.29.51.47.47,0,0,0,.19.25.42.42,0,1,0,.43-.71h0a.46.46,0,0,0-.2,0"/><path id="Path_2462" data-name="Path 2462" class="cls-8" d="M109.9,75.27a1,1,0,0,1,.37,1.39,1,1,0,1,1-.37-1.39h0"/><path id="Path_2463" data-name="Path 2463" d="M109.39,77.77A1.63,1.63,0,1,1,111,76.15a1.66,1.66,0,0,1-.21.81,1.63,1.63,0,0,1-1.41.81m0-2h-.11a.42.42,0,0,0-.29.51.41.41,0,0,0,.5.29.46.46,0,0,0,.26-.19.43.43,0,0,0-.16-.57h0a.35.35,0,0,0-.2-.05"/><path id="Path_2464" data-name="Path 2464" class="cls-8" d="M65.48,87.17a1,1,0,1,1,.37,1.39,1,1,0,0,1-.37-1.39h0"/><path id="Path_2465" data-name="Path 2465" d="M66.36,89.3a1.6,1.6,0,1,1,1.41-.81,1.59,1.59,0,0,1-1.41.81m0-2h-.11a.41.41,0,0,0-.25.19h0a.38.38,0,0,0,0,.31.4.4,0,0,0,.5.3.43.43,0,0,0,.3-.51.44.44,0,0,0-.2-.25.35.35,0,0,0-.2,0"/><path id="Path_2466" data-name="Path 2466" class="cls-8" d="M97,32.61A1,1,0,1,1,97.35,34,1,1,0,0,1,97,32.61h0"/><path id="Path_2467" data-name="Path 2467" d="M97.86,34.75a1.65,1.65,0,1,1,.42-.06,2,2,0,0,1-.42.06m0-2h-.11a.42.42,0,0,0-.29.51.41.41,0,0,0,.5.29.41.41,0,0,0,.3-.51.44.44,0,0,0-.2-.25.46.46,0,0,0-.2,0"/><path id="Path_2468" data-name="Path 2468" class="cls-8" d="M97,87.65A1,1,0,1,1,97.35,89,1,1,0,0,1,97,87.65h0"/><path id="Path_2469" data-name="Path 2469" d="M97.86,89.78a1.62,1.62,0,0,1-1.62-1.63,1.67,1.67,0,0,1,.22-.81,1.62,1.62,0,1,1,1.4,2.44m0-2a.41.41,0,0,0-.36.21.41.41,0,0,0,.17.56.4.4,0,0,0,.54-.15.4.4,0,0,0-.15-.56.36.36,0,0,0-.2-.06"/><path id="Path_2470" data-name="Path 2470" class="cls-9" d="M93.52,64.9c-9.59-1.68-12.08-3.16-11.86-4.4s3.06-1.77,12.65-.09a149.69,149.69,0,0,1,19.39,5.26c.64.22.52.9-.15.89a149.2,149.2,0,0,1-20-1.66"/><path id="Path_2471" data-name="Path 2471" d="M113.57,67.17h0A148.89,148.89,0,0,1,93.42,65.5c-11.3-2-12.62-3.62-12.36-5.1s2.06-2.57,13.35-.58a148.61,148.61,0,0,1,19.48,5.28,1,1,0,0,1-.32,2.07M93.62,64.3a144.62,144.62,0,0,0,18.93,1.63A143.5,143.5,0,0,0,94.2,61c-11.33-2-11.92-.57-12-.4s0,1.7,11.37,3.7"/><path id="Path_2472" data-name="Path 2472" class="cls-9" d="M88.12,52.06C86.33,58,84.6,59.25,83.07,58.8s-2.27-2.49-.48-8.41c1.28-4.24,4.29-9.09,5.9-11.52.25-.37,1.09-.11,1.1.33,0,2.91-.18,8.62-1.46,12.86"/><path id="Path_2473" data-name="Path 2473" d="M83.65,59.49a2.85,2.85,0,0,1-.76-.11c-3-.91-1.93-5.67-.88-9.17,1.3-4.29,4.3-9.15,6-11.67a1.24,1.24,0,0,1,1.77-.13,1.22,1.22,0,0,1,.43.79c0,3-.19,8.74-1.49,13-1,3.2-2.51,7.26-5,7.26m5.28-20.18c-1.65,2.49-4.53,7.17-5.76,11.25-1,3.19-1.73,7.11.07,7.66s3.34-3.15,4.3-6.34C88.78,47.8,89,42.31,89,39.32h0"/><path id="Path_2474" data-name="Path 2474" class="cls-9" d="M86.51,60.15a4.06,4.06,0,1,1-4.05-4h0a4,4,0,0,1,4.05,4"/><path id="Path_2475" data-name="Path 2475" d="M82.46,64.82a4.67,4.67,0,1,1,4.66-4.67h0a4.67,4.67,0,0,1-4.66,4.67m0-8.12a3.46,3.46,0,1,0,3.45,3.45,3.45,3.45,0,0,0-3.45-3.45"/><path id="Path_2476" data-name="Path 2476" class="cls-6" d="M112.15,20.81a.6.6,0,0,1-.61-.6.59.59,0,0,1,.41-.58c1.53-.51,3.09-1,4.64-1.47a.6.6,0,0,1,.76.38.6.6,0,0,1-.38.77h0c-1.53.46-3.08.95-4.6,1.46a.58.58,0,0,1-.19,0M121.42,18a.6.6,0,0,1-.6-.6.59.59,0,0,1,.45-.59c1.56-.41,3.16-.79,4.73-1.15a.61.61,0,0,1,.72.46.6.6,0,0,1-.46.72c-1.56.35-3.13.74-4.68,1.14l-.16,0m9.45-2.12a.6.6,0,0,1-.6-.6.62.62,0,0,1,.49-.6c1.59-.3,3.2-.57,4.8-.81a.61.61,0,1,1,.18,1.2c-1.58.24-3.18.51-4.75.8h-.11m9.57-1.44a.61.61,0,0,1-.06-1.21c1.6-.18,3.23-.34,4.84-.47a.62.62,0,0,1,.65.56.6.6,0,0,1-.56.65c-1.59.13-3.2.28-4.8.46h-.07m24.18-.57h0c-1.6-.1-3.22-.18-4.81-.23a.61.61,0,1,1,0-1.21h0c1.61,0,3.25.13,4.86.24a.59.59,0,0,1,.56.65.62.62,0,0,1-.6.56m-14.52-.19a.61.61,0,0,1-.6-.61.62.62,0,0,1,.57-.6c1.62-.07,3.26-.11,4.87-.11h0a.6.6,0,0,1,.58.63.62.62,0,0,1-.58.58c-1.6,0-3.22,0-4.82.11h0"/><path id="Path_2477" data-name="Path 2477" class="cls-8" d="M260.31,61.1a19.86,19.86,0,1,1,6.29,27.37h0a19.86,19.86,0,0,1-6.29-27.37"/><path id="Path_2478" data-name="Path 2478" d="M277.11,92.1a20.46,20.46,0,1,1,17.38-9.6,20.45,20.45,0,0,1-17.38,9.6m.07-39.72a19.35,19.35,0,0,0-4.35.5,19.15,19.15,0,1,0,4.35-.5"/><path id="Path_2479" data-name="Path 2479" class="cls-6" d="M281.57,85.1a2.68,2.68,0,0,1-1.41-.4l-16-10a2.65,2.65,0,0,1-.84-3.65l6.85-10.94a2.65,2.65,0,0,1,3.65-.84l16,10a2.65,2.65,0,0,1,.84,3.65l-6.86,10.94a2.65,2.65,0,0,1-2.25,1.24m-.75-1.43a1.43,1.43,0,0,0,2-.46l6.85-10.93a1.45,1.45,0,0,0-.45-2l-16-10a1.44,1.44,0,0,0-2,.45l-6.86,10.94a1.44,1.44,0,0,0,.46,2Z"/><path id="Path_2480" data-name="Path 2480" class="cls-6" d="M276.68,73.26a.58.58,0,0,1-.55-.35l-3.69-8a.62.62,0,0,1,.3-.8.59.59,0,0,1,.8.3l3.69,8a.62.62,0,0,1-.3.81.74.74,0,0,1-.25.05"/><path id="Path_2481" data-name="Path 2481" class="cls-6" d="M276.72,73.29a.61.61,0,0,1,0-1.21l8.81-.18a.61.61,0,0,1,.6.61.62.62,0,0,1-.57.6l-8.82.18Z"/><path id="Path_2482" data-name="Path 2482" class="cls-6" d="M190,47.75a.58.58,0,0,1-.5-.26l-3.65-5.27a2.4,2.4,0,0,0-2.22-1l-8.72.9a3.61,3.61,0,0,1-4-3.22l-1.9-18.51a3.61,3.61,0,0,1,3.22-4l29.09-3a3.61,3.61,0,0,1,4,3.23h0l1.9,18.5a3.62,3.62,0,0,1-3.23,4h0l-9.48,1a2.43,2.43,0,0,0-2,1.61l-1.92,5.65a.6.6,0,0,1-.49.4H190M183.9,40a3.59,3.59,0,0,1,3,1.56l3,4.28,1.54-4.51a3.62,3.62,0,0,1,3.05-2.43l9.48-1a2.42,2.42,0,0,0,2.14-2.64h0l-1.9-18.5a2.41,2.41,0,0,0-2.63-2.15h0l-29.1,3a2.41,2.41,0,0,0-2.14,2.63h0l1.9,18.5a2.41,2.41,0,0,0,2.63,2.15h0l8.71-.9a2.36,2.36,0,0,1,.37,0"/><path id="Path_2483" data-name="Path 2483" class="cls-6" d="M177.82,24.5a.6.6,0,0,1-.07-1.2l20.92-2.21a.61.61,0,0,1,.62.6.62.62,0,0,1-.49.6L177.88,24.5h-.06"/><path id="Path_2484" data-name="Path 2484" class="cls-6" d="M177.83,29.46a.6.6,0,0,1-.6-.61.6.6,0,0,1,.53-.6l15.5-1.64a.62.62,0,0,1,.72.48.61.61,0,0,1-.48.71h-.11l-15.5,1.64h-.06"/><path id="Path_2485" data-name="Path 2485" class="cls-6" d="M178.92,34.42a.61.61,0,0,1-.6-.61.62.62,0,0,1,.54-.6L199.78,31a.6.6,0,0,1,.13,1.19L179,34.41h-.07"/><path id="Path_2486" data-name="Path 2486" class="cls-8" d="M222.59,37.54A19.57,19.57,0,1,1,242.15,57.1h0a19.56,19.56,0,0,1-19.56-19.56"/><path id="Path_2487" data-name="Path 2487" d="M242.15,57.71a20.18,20.18,0,1,1,20.18-20.17,20.17,20.17,0,0,1-20.18,20.17m0-39.14a19,19,0,1,0,19,19,19,19,0,0,0-19-19"/><path id="Path_2488" data-name="Path 2488" class="cls-6" d="M251.49,44.07a3.85,3.85,0,0,1-1.12-1.58,18.16,18.16,0,0,1-1.09-7.15v0a6.88,6.88,0,0,0-4-6.3l0-1.65a2.71,2.71,0,0,0-2.66-2.74h-.22a2.7,2.7,0,0,0-2.74,2.66l0,1.64a6.88,6.88,0,0,0-4.15,6.21,18,18,0,0,1-1.3,7.11,3.71,3.71,0,0,1-1.17,1.54.71.71,0,0,0-.39.78.73.73,0,0,0,.7.57l5.21.08a3.66,3.66,0,0,0,7.32.11l5.21.09a.74.74,0,0,0,.72-.55.69.69,0,0,0-.37-.79M241.15,27.3A1.27,1.27,0,0,1,242.44,26h.23a1.28,1.28,0,0,1,1.26,1.3l0,1.18a6.8,6.8,0,0,0-2.77,0Zm1.09,20.15a2.24,2.24,0,0,1-2.2-2.22l4.47.07a2.24,2.24,0,0,1-2.27,2.15"/><path id="Path_2489" data-name="Path 2489" class="cls-6" d="M51.11,101.82,50.33,99l-3.22.15a12.17,12.17,0,0,0-1-1.78l1.71-2.74-2.1-2.07L43,94.27a12.05,12.05,0,0,0-1.78-1L41.29,90l-2.86-.75L37,92.13a12.89,12.89,0,0,0-2.06,0L33.38,89.3l-2.85.78.15,3.22a13.14,13.14,0,0,0-1.78,1l-2.73-1.71-2.08,2.1,1.74,2.72a12.16,12.16,0,0,0-1,1.79l-3.22-.12L20.84,102l2.86,1.49a11.82,11.82,0,0,0,0,2.06L20.87,107l.78,2.85,3.22-.15a12.17,12.17,0,0,0,1,1.78l-1.71,2.73,2.1,2.08L29,114.59a12.16,12.16,0,0,0,1.79,1l-.11,3.23,2.85.75L35,116.72a11.81,11.81,0,0,0,2.06,0l1.52,2.85,2.84-.78-.14-3.23a12,12,0,0,0,1.77-1l2.74,1.7,2.07-2.1-1.74-2.72a12.05,12.05,0,0,0,1-1.78l3.23.11.75-2.86-2.86-1.48a12.88,12.88,0,0,0,0-2.06ZM38,111.77a7.61,7.61,0,1,1,5.32-9.35h0A7.61,7.61,0,0,1,38,111.77h0"/><path id="Path_2490" data-name="Path 2490" class="cls-8" d="M300.84,116.47c2.34,0,4,2.06,3.66,4.61l-3.95,31.7a5.18,5.18,0,0,1-4.81,4.61H190.91c-2.34,0-4-2.07-3.66-4.61l3.95-31.7a5.18,5.18,0,0,1,4.81-4.61Z"/><path id="Path_2491" data-name="Path 2491" d="M295.73,158H258.26a.61.61,0,1,1,0-1.21h37.47a4.56,4.56,0,0,0,4.21-4.08l4-31.7a3.75,3.75,0,0,0-.81-2.92,3,3,0,0,0-2.26-1H196a4.54,4.54,0,0,0-4.21,4.07l-4,31.7a3.7,3.7,0,0,0,.81,2.93,3,3,0,0,0,2.25,1h38.55a.61.61,0,1,1,0,1.21H190.91a4.15,4.15,0,0,1-3.16-1.41,5,5,0,0,1-1.1-3.88L190.6,121a5.79,5.79,0,0,1,5.41-5.13H300.83a4.14,4.14,0,0,1,3.16,1.4,4.88,4.88,0,0,1,1.1,3.88l-3.95,31.7a5.8,5.8,0,0,1-5.41,5.14"/><path id="Path_2492" data-name="Path 2492" class="cls-12" d="M288.16,130.84H230.27c-1.65,0-2.8-1-2.57-2.16s1.73-2.16,3.37-2.16H289c1.64,0,2.79,1,2.57,2.16s-1.73,2.16-3.37,2.16"/><path id="Path_2493" data-name="Path 2493" class="cls-11" d="M277.88,140.12H228.29c-1.41,0-2.39-1-2.2-2.15a2.89,2.89,0,0,1,2.89-2.16h49.6a2,2,0,0,1,2.2,2.16,2.9,2.9,0,0,1-2.9,2.15"/><path id="Path_2494" data-name="Path 2494" class="cls-11" d="M288.18,149.41h-61c-1.73,0-2.94-1-2.71-2.16s1.83-2.15,3.56-2.15h61c1.73,0,2.94,1,2.71,2.15s-1.83,2.16-3.56,2.16"/><path id="Path_2495" data-name="Path 2495" class="cls-6" d="M207.66,147.51a11,11,0,1,1,11-11,11,11,0,0,1-11,11m0-20.84a9.82,9.82,0,1,0,9.81,9.82,9.82,9.82,0,0,0-9.81-9.82"/><path id="Path_2496" data-name="Path 2496" class="cls-6" d="M208.39,139.51a20.15,20.15,0,0,0-5.85.37,9.77,9.77,0,0,0-3.76,1.9,10.25,10.25,0,0,0,18.37-1.24,16,16,0,0,0-5.81-.93c-1,0-2,0-3-.09"/><path id="Path_2497" data-name="Path 2497" class="cls-8" d="M206.06,136.52a3.31,3.31,0,0,1-.61,3,1.58,1.58,0,0,0,.08,2.23l.06.06a4.67,4.67,0,0,0,2.93.9,4.11,4.11,0,0,0,2.42-.55,1.58,1.58,0,0,0,.43-2.2,1.56,1.56,0,0,0-.51-.48c-.84-.48-1.73-1.63-1.29-4.34Z"/><path id="Path_2498" data-name="Path 2498" d="M208.73,143.29h-.23a5.33,5.33,0,0,1-3.29-1,2.17,2.17,0,0,1-.2-3.17,2.73,2.73,0,0,0,.46-2.39l-.15-.52,5-2-.17,1.06c-.22,1.31-.22,3,1,3.71a2.19,2.19,0,0,1,.79,3,2.13,2.13,0,0,1-.68.72,4.54,4.54,0,0,1-2.54.66m-2-6.4a3.66,3.66,0,0,1-.85,3,1,1,0,0,0-.26.71,1,1,0,0,0,.35.7,4.08,4.08,0,0,0,2.55.76,3.52,3.52,0,0,0,2.08-.45,1,1,0,0,0,.25-1.36.92.92,0,0,0-.3-.29c-.88-.5-1.83-1.59-1.7-3.93Z"/><path id="Path_2499" data-name="Path 2499" d="M209.34,135.46a2.94,2.94,0,0,0,1.87-.82,3.54,3.54,0,0,0,.78-2.3c-.05-.67-.3-2.57-2-3.09s-3.11,0-3.65-.22a4,4,0,0,0-2.23-.21c-1,.15-2,2.53.47,3.15l.22,0,4.53.66Z"/><path id="Path_2500" data-name="Path 2500" class="cls-8" d="M209.29,133.43v-1a.51.51,0,0,0-.51-.51h-3.94s-1,5.25,1.87,5.44A2.84,2.84,0,0,0,209.9,135a.86.86,0,0,0,.87-.56c.18-.49.16-1.34-.61-1.29a1,1,0,0,0-.75.35.06.06,0,0,1-.09,0,.05.05,0,0,1,0,0"/><path id="Path_2501" data-name="Path 2501" d="M207,137.93h-.34a2.37,2.37,0,0,1-1.77-.93c-1.27-1.63-.73-4.86-.66-5.22l.09-.5h4.45a1.13,1.13,0,0,1,1.12,1.12v.15l.22,0a1.22,1.22,0,0,1,1.08.47,1.83,1.83,0,0,1,.13,1.64,1.42,1.42,0,0,1-.94.89,3.36,3.36,0,0,1-3.39,2.42m-1.64-5.45c-.13,1.06-.18,2.9.5,3.77a1.16,1.16,0,0,0,.89.46,2.2,2.2,0,0,0,2.54-1.81v0l.09-.57.57.06a.25.25,0,0,0,.24-.17.79.79,0,0,0,0-.48h0a.41.41,0,0,0-.3.11.68.68,0,0,1-.94.13.66.66,0,0,1-.27-.53v-1Z"/><path id="Path_2502" data-name="Path 2502" class="cls-6" d="M207.66,147.51a11,11,0,1,1,11-11,11,11,0,0,1-11,11m0-20.84a9.82,9.82,0,1,0,9.81,9.82,9.82,9.82,0,0,0-9.81-9.82"/><path id="Path_2503" data-name="Path 2503" d="M118.65,267.35c-7.23,10-16.39,40.38-20.51,60.5,33.31,10,62.72,8,89.16,6a3.93,3.93,0,0,0,3.6-4.22v0c-2.36-25.28-6.6-48.4-6.6-48.4Z"/><path id="Path_2504" data-name="Path 2504" class="cls-8" d="M193.37,194.86s16.17,10.88,23.72,8.83c10.64-2.89,15.32-30,15.78-32.38s2.5-14.6,4.63-19.15a61.6,61.6,0,0,0,3.85-11.34c.39-1.63,1.5-2.41,2.59-2.24s1.6.9,1.06,3.32c-.63,2.8-1.18,5.61-1.69,8-.17.75-.47,1.46.06.93,1.23-1.25,2.85-2.47,4.11-2,2.37.86,4.9,8.86,2.35,15.2s-6.62,5.63-7.32,8.61-4.38,40.82-7.32,47.75c-4.23,10-44.78,2.69-44.78,2.69Z"/><path id="Path_2505" data-name="Path 2505" d="M217,226.22a174,174,0,0,1-26.66-2.56l-.56-.1,3.13-29.77.84.56c.14.1,13.46,9,21.23,9a7.43,7.43,0,0,0,2-.24c9.21-2.5,14-24.81,15.28-31.59l.06-.31c0-.28.13-.67.22-1.17.7-3.83,2.54-14,4.46-18.13a60.31,60.31,0,0,0,3.81-11.22c.44-1.82,1.78-2.93,3.27-2.7a1.9,1.9,0,0,1,1.36.8,4.13,4.13,0,0,1,.2,3.25c-.39,1.76-.75,3.51-1.1,5.2-.16.75-.31,1.48-.46,2.18,1.41-1.14,2.64-1.53,3.66-1.16s1.94,1.79,2.43,2.88a17.88,17.88,0,0,1,.28,13.11,12.21,12.21,0,0,1-5.22,6.26c-1.11.74-1.84,1.22-2.08,2.26-.2.82-.66,4.72-1.25,9.64-1.49,12.42-4,33.2-6.1,38.2-1.85,4.34-9.93,5.62-18.78,5.62m-25.9-3.66c11.55,2,40.3,5.25,43.56-2.43,2.06-4.85,4.54-25.52,6-37.87.62-5.16,1.07-8.89,1.28-9.78.35-1.5,1.39-2.19,2.59-3a11,11,0,0,0,4.76-5.71,16.84,16.84,0,0,0-.26-12.16,4.28,4.28,0,0,0-1.73-2.24c-.78-.28-2,.39-3.48,1.87-.15.15-.54.55-1,.28s-.34-.76-.2-1.28q.06-.23.12-.48c.19-.88.38-1.82.58-2.79.36-1.7.72-3.45,1.12-5.22.33-1.49.13-2.08,0-2.3a.72.72,0,0,0-.54-.29c-.86-.13-1.63.59-1.91,1.78a61.65,61.65,0,0,1-3.89,11.46c-1.86,4-3.69,14-4.37,17.83-.1.5-.17.9-.22,1.18l-.06.31c-1.65,8.91-6.53,29.93-16.15,32.54-6.82,1.85-19.92-6.14-23.38-8.37Z"/><path id="Path_2506" data-name="Path 2506" class="cls-8" d="M97.81,207.72,86.27,234.63c-.17.39-.37.78-.56,1.16a13.38,13.38,0,0,0,6.05,17.92,13.08,13.08,0,0,0,2.25.87l34.8,10,.92-14.76L111.09,244a5.88,5.88,0,0,1-3.85-7.36,5.53,5.53,0,0,1,.54-1.22l3.23-5.51Z"/><path id="Path_2507" data-name="Path 2507" d="M129.38,265.34,93.85,255.16a14,14,0,0,1-9.59-17.28,14.38,14.38,0,0,1,.91-2.36l.06-.11c.17-.35.33-.68.48-1l12-28,14,23.48-3.42,5.82a5.27,5.27,0,0,0,3,7.69l19.09,6ZM97.89,209.05,86.82,234.87c-.15.37-.33.73-.51,1.08l0,.11A12.75,12.75,0,0,0,92,253.16a12,12,0,0,0,2.15.84l34.08,9.76.85-13.54-18.19-5.69a6.48,6.48,0,0,1-4.25-8.12,6.36,6.36,0,0,1,.59-1.34l3-5.2Z"/><path id="Path_2508" data-name="Path 2508" class="cls-7" d="M125.32,180.13c19.49-8.7,57.16-6.89,83.58,21.47C212,204.93,203,230.08,195,228.35c-5.93-1.28-10.94-2.73-12.72-.75a2.88,2.88,0,0,0-.66,1.55c-2.23,14.23,2.13,32,2.13,32,2.61,10.66,5.43,22.19,1.4,30.94-10.86,23.66-66.41,16.24-79.41,9.1-5.34-2.94.27-11,4.2-37.43,2.93-19.66,4.64-36,1-29.67-1.78,3.09-20.4-15.46-18.45-21,4.26-12.15,11.76-23.61,32.8-33"/><path id="Path_2509" data-name="Path 2509" d="M144.89,308.82c-16.42,0-32.89-3.48-39.41-7.06-3.71-2-2.74-6.16-.62-15.19,1.28-5.42,3-12.84,4.52-22.86,3.58-24.07,3.25-29.22,2.81-30.24a4.29,4.29,0,0,0-.68,1c-.31.54-1,1-2.69.25C104,232.44,90.07,218.29,92,212.92c3.82-10.88,10.75-23.36,33.12-33.34,10.6-4.73,25.38-5.93,39.56-3.2a81.84,81.84,0,0,1,44.72,24.81c2.23,2.4-.72,13-4.7,20-3.22,5.67-6.68,8.42-9.75,7.76l-2.12-.47c-4.66-1-8.7-1.95-10-.47a2.25,2.25,0,0,0-.51,1.24c-2.19,13.94,2.07,31.63,2.12,31.81,2.56,10.49,5.47,22.38,1.36,31.33-2.73,6-8.38,10.39-16.79,13.17-7.08,2.33-15.56,3.27-24.05,3.27m-32.64-76.67a1.19,1.19,0,0,1,.32.05c.9.32,2.59.9-2,31.68-1.5,10.07-3.25,17.52-4.53,23-2,8.67-2.89,12.25,0,13.85,9.72,5.34,42,10.47,62.5,3.71,8.07-2.67,13.48-6.88,16.07-12.52,3.94-8.57,1.2-19.74-1.44-30.55-.05-.18-4.36-18.1-2.14-32.28a3.51,3.51,0,0,1,.8-1.86c1.8-2,6-1.08,11.19.1l2.12.46c2.47.54,5.55-2.08,8.44-7.16,4.25-7.48,6.37-17,4.86-18.59a80.73,80.73,0,0,0-44.06-24.45c-13.94-2.67-28.46-1.51-38.83,3.12-22,9.8-28.74,22-32.47,32.64-1.43,4.07,11,17.84,16.22,20.26.78.35,1.1.3,1.14.24.46-.8,1.07-1.67,1.79-1.67"/><path id="Path_2510" data-name="Path 2510" class="cls-8" d="M173.56,135.31c1.78.39,3,3.83,3.44,5.58,1.55,5.8,0,20-4.15,21.34s-4-.57-7,1.56c-2.4,1.71-2.45,4.35-3,10.1,0,.37,7.56,1.62,7.73,2,.38.74-3.1,10.79-17.48,10.59-13.62-.19-16.5-9.08-16.62-9.71-.08-.38,10-2.22,10.15-2.61,1.81-5.08,2.62-13.67,2.62-13.67s5.56-29.24,24.26-25.13"/><path id="Path_2511" data-name="Path 2511" d="M153.57,187h-.43c-14.61-.21-17.19-10.11-17.21-10.21-.13-.7.55-.86,2.06-1.23,1-.24,2.31-.53,3.59-.81,1.69-.38,3.95-.87,4.6-1.1,1.72-5,2.51-13.22,2.52-13.3v-.06c.13-.69,3.34-17.06,13.1-23.5a15,15,0,0,1,11.89-2.1c2.11.46,3.34,4,3.89,6,1.55,5.78.14,20.52-4.55,22.07a8.88,8.88,0,0,1-3.89.53,3.62,3.62,0,0,0-2.92,1c-2,1.41-2.18,3.59-2.61,8.36l-.08.89c.7.21,2.42.57,3.61.82,3.67.76,3.83.84,4,1.2.34.67-.37,2.39-1.18,3.69-1.46,2.36-6,7.78-16.42,7.78m-16.3-10c.68,1.82,4,8.62,15.89,8.79h.42c7.37,0,11.55-2.78,13.78-5.14a10.47,10.47,0,0,0,2.66-4.45c-.61-.17-2-.47-3.11-.7-4.28-.89-4.68-1-4.61-1.71l.12-1.3c.45-5,.67-7.5,3.11-9.23a4.73,4.73,0,0,1,3.7-1.17,7.9,7.9,0,0,0,3.44-.47c3.66-1.21,5.25-15,3.76-20.61-.59-2.2-1.73-4.88-3-5.16a13.87,13.87,0,0,0-11,1.94c-9.16,6-12.42,21.95-12.57,22.69s-.87,8.8-2.65,13.79c-.16.44-.18.5-5.4,1.65-1.6.35-3.7.81-4.58,1.08"/><path id="Path_2512" data-name="Path 2512" d="M167.45,150.81h0c-2.64-.07-4.42-2.72-5-5.32-.53-2.35-.08-4.27,1.16-4.9,2.81-1.43,5.31,2.74,5.41,2.92a.6.6,0,0,1-.21.83.61.61,0,0,1-.83-.21s-2-3.36-3.82-2.46c-.68.35-.9,1.87-.52,3.55.48,2.14,1.87,4.33,3.86,4.37a.61.61,0,0,1,0,1.22"/><path id="Path_2513" data-name="Path 2513" d="M179.48,128.9c1.23,4-2.86,5.46-5.89,8.41s-3.17,6.92-5.06,7a4.15,4.15,0,0,1-1.61-2.08c-.81-2-6.1-2-3,5.1,4.93,11.22,17.82,38.4,12.51,58.93-4.26,16.45-11.57,24.64-46.28,25.34-29.06.59-42.5-33.2-39.94-46.74,5.71-30.16,37.18,1.86,39.11-39.85,1.35-29.25,27-45.07,46.18-23.6a19.7,19.7,0,0,1,3.94,7.47"/></g></g></g></g></g></g></g></g></svg>