<svg xmlns="http://www.w3.org/2000/svg" xmlns:xlink="http://www.w3.org/1999/xlink" viewBox="0 0 334.01 333.89"><defs><style>.cls-1,.cls-6{fill:none;}.cls-2{clip-path:url(#clip-path);}.cls-3{opacity:0.6;}.cls-4{clip-path:url(#clip-path-3);}.cls-5{fill:#9ad8f3;}.cls-6{stroke:#546976;stroke-miterlimit:10;stroke-width:3px;}.cls-7{fill:#158bcb;}.cls-8{fill:#fff;}.cls-9{fill:#4bb5e4;}.cls-10{fill:#701e5e;}</style><clipPath id="clip-path"><rect class="cls-1" width="334.01" height="333.89"/></clipPath><clipPath id="clip-path-3"><rect class="cls-1" width="334.01" height="332.89"/></clipPath></defs><g id="Layer_2" data-name="Layer 2"><g id="Layer_1-2" data-name="Layer 1"><g id="Group_194" data-name="Group 194"><g class="cls-2"><g id="Group_193" data-name="Group 193"><g id="Group_192" data-name="Group 192"><g class="cls-2"><g id="Group_191" data-name="Group 191"><g id="Group_190" data-name="Group 190" class="cls-3"><g id="Group_189" data-name="Group 189"><g class="cls-4"><g id="Group_188" data-name="Group 188"><path id="Path_2265" data-name="Path 2265" class="cls-5" d="M248.64,302.43c83.56-52.15,84.95-113.5,85.35-148.51.7-61.19-22.58-116.5-80.92-142.49C225.42-.89,181.71-7.27,150.55,13.48,121.45,32.85,134.06,55.39,102,94.07c-37,44.56-66.71,38.54-91.5,77.46-16.38,25.7-9.15,56.81-7.08,65.73,15.19,65.42,94.9,87.9,103.85,90.28,71,18.86,129.4-17.61,141.41-25.11"/></g></g></g></g><path id="Path_2266" data-name="Path 2266" class="cls-6" d="M195.35,296.93l-1.21-4.42-5,.22a18.52,18.52,0,0,0-1.6-2.76l2.65-4.24-3.27-3.23-4.22,2.7a20,20,0,0,0-2.77-1.58l.17-5-4.44-1.16-2.3,4.44a20.1,20.1,0,0,0-3.2,0l-2.36-4.42-4.42,1.21.22,5a19,19,0,0,0-2.76,1.6l-4.25-2.65-3.22,3.27,2.7,4.22a18.5,18.5,0,0,0-1.58,2.77l-5-.17-1.17,4.43,4.45,2.3a18,18,0,0,0,0,3.2L148.35,305l1.21,4.42,5-.23a19.6,19.6,0,0,0,1.61,2.77l-2.65,4.24,3.27,3.23,4.22-2.7a20,20,0,0,0,2.77,1.58l-.17,5,4.44,1.16,2.3-4.44a19,19,0,0,0,3.2,0l2.36,4.43,4.42-1.21-.23-5a19.6,19.6,0,0,0,2.77-1.61l4.24,2.65,3.23-3.26-2.7-4.22a19.52,19.52,0,0,0,1.58-2.78l5,.17,1.17-4.43-4.45-2.3a18,18,0,0,0,0-3.2ZM175,312.37a11.81,11.81,0,1,1,8.27-14.5,11.81,11.81,0,0,1-8.27,14.5Z"/><path id="Path_2267" data-name="Path 2267" class="cls-6" d="M327,140.14l-1.21-4.43-5,.23a19.49,19.49,0,0,0-1.61-2.76l2.65-4.25-3.26-3.22-4.23,2.7a18.88,18.88,0,0,0-2.77-1.58l.17-5-4.44-1.16L305,125.1a19,19,0,0,0-3.2,0l-2.35-4.42L295,121.91l.23,5a19.49,19.49,0,0,0-2.76,1.61l-4.25-2.65L285,129.13l2.7,4.22a19.52,19.52,0,0,0-1.58,2.78l-5-.18-1.16,4.44,4.44,2.3a20.1,20.1,0,0,0,0,3.2L280,148.25l1.21,4.42,5-.23a18.08,18.08,0,0,0,1.61,2.76l-2.65,4.25,3.26,3.23,4.22-2.7a19.52,19.52,0,0,0,2.78,1.58l-.17,5,4.44,1.17,2.3-4.45a18,18,0,0,0,3.2,0l2.35,4.42,4.43-1.21-.23-5a18.58,18.58,0,0,0,2.76-1.61l4.25,2.65,3.23-3.26-2.7-4.22a20,20,0,0,0,1.58-2.77l5,.17L327,148l-4.44-2.3a19,19,0,0,0,0-3.2ZM306.6,155.58a11.81,11.81,0,1,1,8.28-14.5A11.8,11.8,0,0,1,306.6,155.58Z"/><path id="Path_2268" data-name="Path 2268" class="cls-7" d="M88,34.94l212.88-.62a7.27,7.27,0,0,1,7.29,7.28c0,.21,0,.43,0,.64l-14.9,167.7a7.3,7.3,0,0,1-7.27,6.64l-262.23,0a7.64,7.64,0,0,1-7.32-7.95c0-.12,0-.24,0-.36L31.34,41.58c.33-3.76,3.36-7,7.14-7Z"/><path id="Path_2269" data-name="Path 2269" class="cls-8" d="M77.84,34.94H290.69A7.28,7.28,0,0,1,298,42.22c0,.21,0,.43,0,.64l-14.83,166.5a7.28,7.28,0,0,1-7.26,6.64H13.62a7.3,7.3,0,0,1-7.29-7.28c0-.22,0-.43,0-.65L21.19,41.57a7.28,7.28,0,0,1,7.27-6.63Z"/><path id="Path_2270" data-name="Path 2270" d="M13.63,216.6a7.88,7.88,0,0,1-7.9-7.87c0-.24,0-.48,0-.71L20.59,41.52a7.86,7.86,0,0,1,7.86-7.19H77.84a.61.61,0,0,1,0,1.21H28.45a6.64,6.64,0,0,0-6.65,6.09L7,208.13A6.69,6.69,0,0,0,13,215.37a5.83,5.83,0,0,0,.59,0l15.91-.21a.61.61,0,0,1,.61.6.59.59,0,0,1-.58.61h0Z"/><path id="Path_2271" data-name="Path 2271" d="M291.72,111.77h-.06a.61.61,0,0,1-.55-.66l6.24-68.3a6.68,6.68,0,0,0-6.07-7.24,5.68,5.68,0,0,0-.59,0H77.84a.61.61,0,0,1,0-1.21H290.69a7.9,7.9,0,0,1,7.9,7.89c0,.23,0,.47,0,.7l-6.24,68.3a.61.61,0,0,1-.6.55"/><path id="Path_2272" data-name="Path 2272" class="cls-9" d="M82.57,41.72h201a6.79,6.79,0,0,1,6.88,6.69c0,.21,0,.42,0,.62l-14,153.69a6.83,6.83,0,0,1-6.86,6.12H21.94a6.79,6.79,0,0,1-6.88-6.7c0-.2,0-.41,0-.62l14-153.68a6.83,6.83,0,0,1,6.86-6.12Z"/><path id="Path_2273" data-name="Path 2273" class="cls-7" d="M289.47,59.29l.93-10.18a6.82,6.82,0,0,0-6.25-7.32c-.21,0-.41,0-.61,0H35.94a6.85,6.85,0,0,0-6.86,6.15l-1,11.37Z"/><path id="Path_2274" data-name="Path 2274" class="cls-7" d="M89.49,109.23H32.79l4.12-42.8h56.7Z"/><path id="Path_2275" data-name="Path 2275" class="cls-7" d="M151.63,109.53H94.93l4.12-42.8h56.7Z"/><path id="Path_2276" data-name="Path 2276" class="cls-7" d="M214.16,109.23h-56.7l4.12-42.8h56.7Z"/><path id="Path_2277" data-name="Path 2277" class="cls-7" d="M205.42,203.34H24.05l7-72.12H212.36Z"/><path id="Path_2278" data-name="Path 2278" class="cls-7" d="M212.44,127.12H31.07l1.27-13.2H213.7Z"/><path id="Path_2279" data-name="Path 2279" class="cls-7" d="M267.85,203.69H212l12.8-138h55.83Z"/><path id="Path_2280" data-name="Path 2280" class="cls-10" d="M206.34,276.09c-5-4.06-10.19-7.84-15.54-11.45C180,257.32,168.53,250.78,157,244.43c-6.08-3.33-12.39-6.35-18.62-9.45s-12.54-6.23-18.84-9.32q-8.61-4.23-17.22-8.5c-13-44-27.18-93.89-24.37-93.89l213.68-6a7.45,7.45,0,0,1,7.7,7.19,7.28,7.28,0,0,1-.18,1.92L273.23,273.83a11.34,11.34,0,0,1-10.72,9.11H215c-2.8-2.36-5.78-4.53-8.62-6.85"/><path id="Path_2281" data-name="Path 2281" class="cls-7" d="M71.82,117.77H287.17a7,7,0,0,1,7.28,6.76,7.1,7.1,0,0,1-.18,1.84l-25.9,147.46a10.68,10.68,0,0,1-10.11,8.6H42.91a7,7,0,0,1-7.28-6.76,7.1,7.1,0,0,1,.18-1.84L61.7,126.36a10.71,10.71,0,0,1,10.12-8.6"/><path id="Path_2282" data-name="Path 2282" d="M287.29,166.24h-.11a.6.6,0,0,1-.49-.69h0l7-39.27a6.76,6.76,0,0,0-1.35-5.63,6.61,6.61,0,0,0-5.15-2.26l-32.42.25h0a.61.61,0,1,1,0-1.21l32.43-.24a7.73,7.73,0,0,1,6.07,2.69,7.92,7.92,0,0,1,1.62,6.61l-7,39.27a.6.6,0,0,1-.59.5"/><path id="Path_2283" data-name="Path 2283" d="M37.2,268h-.1a.61.61,0,0,1-.49-.69h0l24.5-141a11.34,11.34,0,0,1,10.71-9.1H126a.61.61,0,0,1,0,1.21H71.82a10.09,10.09,0,0,0-9.52,8.1l-24.5,141a.6.6,0,0,1-.6.5"/><path id="Path_2284" data-name="Path 2284" d="M225.06,118.37H143.42a.6.6,0,0,1-.61-.6.61.61,0,0,1,.61-.61h81.64a.61.61,0,0,1,.61.61.6.6,0,0,1-.61.6"/><path id="Path_2285" data-name="Path 2285" class="cls-7" d="M8.92,282.51H259.36a6.3,6.3,0,0,1,0,12.6H8.92a6.31,6.31,0,0,1,0-12.6"/><path id="Path_2286" data-name="Path 2286" d="M174.11,295.71H8.92a6.9,6.9,0,0,1,0-13.8H204.34l9.07.26a.59.59,0,0,1,.59.62.6.6,0,0,1-.62.58l-9.06-.25H8.92a5.7,5.7,0,0,0,0,11.38H204.34l11.11-.2a.61.61,0,1,1,0,1.21l-11.13.2Z"/><path id="Path_2287" data-name="Path 2287" class="cls-8" d="M77.13,123.45H280.65a6.57,6.57,0,0,1,6.86,6.27,6.27,6.27,0,0,1-.15,1.73L262.89,268.74a10.07,10.07,0,0,1-9.56,8H49.8a6.57,6.57,0,0,1-6.86-6.26,6.76,6.76,0,0,1,.16-1.74L67.57,131.46a10.06,10.06,0,0,1,9.56-8"/><path id="Path_2288" data-name="Path 2288" class="cls-9" d="M286.3,137.42l1.06-5.95a6.57,6.57,0,0,0-5-7.84,6.41,6.41,0,0,0-1.75-.15H77.13a10.06,10.06,0,0,0-9.56,8l-1.06,5.95Z"/><path id="Path_2289" data-name="Path 2289" class="cls-9" d="M191.69,234.62H59.34l17-89.83H208.43Z"/><path id="Path_2290" data-name="Path 2290" class="cls-9" d="M184.48,269.86H52.36l5.91-28.65H190.39Z"/><path id="Path_2291" data-name="Path 2291" class="cls-9" d="M274.17,171.26H209l5-26.87h65.18Z"/><path id="Path_2292" data-name="Path 2292" class="cls-9" d="M268.61,204.74H203.43l5-26.86h65.18Z"/><path id="Path_2293" data-name="Path 2293" class="cls-9" d="M262.64,236.76H197.46l5-26.86h65.18Z"/><path id="Path_2294" data-name="Path 2294" class="cls-9" d="M256.3,270.25H191.12l5-26.87h65.18Z"/><path id="Path_2295" data-name="Path 2295" d="M304.29,322.9H232.92a4.78,4.78,0,0,1-4.92-4.65,4.39,4.39,0,0,1,.06-.89L245.63,178.7a6.5,6.5,0,0,1,6.27-5.55l67.79-.79c7.78,0,8.83,3.27,8.44,6.34L310.56,317.36a6.49,6.49,0,0,1-6.27,5.54"/><path id="Path_2296" data-name="Path 2296" class="cls-7" d="M300,322.9H228.63a4.8,4.8,0,0,1-4.93-4.67,4.39,4.39,0,0,1,.06-.89l17.57-139.1a6.51,6.51,0,0,1,6.28-5.56H319a4.79,4.79,0,0,1,4.92,4.67,4.44,4.44,0,0,1-.06.89l-17.57,139.1A6.51,6.51,0,0,1,300,322.9"/><path id="Path_2297" data-name="Path 2297" class="cls-9" d="M282.4,179.75a1.8,1.8,0,0,1-1.85-1.75,1.84,1.84,0,0,1,0-.33,2.43,2.43,0,0,1,2.34-2.09,1.81,1.81,0,0,1,1.85,1.76c0,.11,0,.22,0,.33a2.44,2.44,0,0,1-2.35,2.08"/><path id="Path_2298" data-name="Path 2298" class="cls-8" d="M227.83,317.53l16.78-132.82a1.49,1.49,0,0,1,1.45-1.28h71.75a1.11,1.11,0,0,1,1.14,1.08,1.23,1.23,0,0,1,0,.2L302.15,317.53a1.49,1.49,0,0,1-1.44,1.29H229a1.11,1.11,0,0,1-1.13-1.08.74.74,0,0,1,0-.21"/><path id="Path_2299" data-name="Path 2299" class="cls-10" d="M318.12,191.63l1-7.47a1.37,1.37,0,0,0-1.29-1.44H246.06a1.47,1.47,0,0,0-1.45,1.25l-1,7.66Z"/><path id="Path_2300" data-name="Path 2300" class="cls-9" d="M316.6,184.59a.91.91,0,1,1-.91-.9h0a.9.9,0,0,1,.9.9h0"/><path id="Path_2301" data-name="Path 2301" class="cls-9" d="M316.34,187.27a.91.91,0,1,1-.91-.91h0a.91.91,0,0,1,.91.91h0"/><path id="Path_2302" data-name="Path 2302" class="cls-9" d="M316,189.9a.91.91,0,1,1-.91-.91h0a.91.91,0,0,1,.91.91h0"/><path id="Path_2303" data-name="Path 2303" class="cls-9" d="M309.92,233.44H242l4.84-38h67.94Z"/><path id="Path_2304" data-name="Path 2304" class="cls-9" d="M304.33,274.28H236.39l4.83-38h68Z"/><path id="Path_2305" data-name="Path 2305" class="cls-9" d="M299.44,315.74H231.49l4.84-38h67.95Z"/><path id="Path_2306" data-name="Path 2306" d="M300,323.51H228.63a5.4,5.4,0,0,1-5.47-6.24l8.1-64.1.6.07-.6-.07,9.48-75a7.12,7.12,0,0,1,6.87-6.09H319a5.4,5.4,0,0,1,5.46,6.24l-17.57,139.1a7.12,7.12,0,0,1-6.87,6.1M247.61,173.28a5.9,5.9,0,0,0-5.67,5l-17.57,139.1a4.31,4.31,0,0,0,1,3.47,4.26,4.26,0,0,0,3.26,1.41H300a5.89,5.89,0,0,0,5.67-5l17.58-139.1a4.38,4.38,0,0,0-1-3.47,4.33,4.33,0,0,0-3.27-1.41Z"/><path id="Path_2307" data-name="Path 2307" class="cls-8" d="M69.37,64.94A17,17,0,1,1,53.21,47.12h0A17,17,0,0,1,69.37,64.94"/><path id="Path_2308" data-name="Path 2308" d="M52.37,47.09V48.3l.8,0a15.78,15.78,0,0,1-.77,31.55l-.81,0a15.78,15.78,0,0,1,.78-31.55Zm0,0a17,17,0,0,0-.84,34l.87,0a17,17,0,0,0,.84-34l-.87,0"/><path id="Path_2309" data-name="Path 2309" class="cls-10" d="M50.65,74.92a1.87,1.87,0,0,1-1.55-1L43.38,63a1.87,1.87,0,0,1,3.3-1.73l4.19,8L58.5,56.9a1.87,1.87,0,0,1,3.18,2L52.33,74a1.84,1.84,0,0,1-1.65.88h0"/><path id="Path_2310" data-name="Path 2310" d="M131,206.55c1.7.11,11.16.7,18.2-6.19,8-7.76,9-21.26,3.68-28-3.24-4.16-5.82-1.9-16.46-7.93-9.36-5.31-11.85-9.61-16.65-8.7-3.74.7-6,4-8.33,7.54-2,3-7.52,11.2-5.62,21.47,2.22,12,13.41,21.12,25.18,21.86"/><path id="Path_2311" data-name="Path 2311" d="M132.78,206.81c-.65,0-1.25,0-1.79-.05-12.28-.78-23.18-10.25-25.36-22-1.92-10.35,3.58-18.53,5.65-21.62,2.38-3.55,4.64-6.91,8.45-7.63,3.14-.58,5.3,1,8.87,3.54a83.11,83.11,0,0,0,7.93,5.19,45.91,45.91,0,0,0,10.77,4.59c2.52.75,4,1.2,5.75,3.39,5.15,6.62,4.67,20.13-3.7,28.32-5.4,5.28-12.15,6.3-16.57,6.3M121,155.76a7,7,0,0,0-1.21.12c-3.65.68-5.85,4-8.2,7.46-2,3-7.47,11.13-5.58,21.32,2.15,11.6,12.89,20.93,25,21.69,4.13.27,12-.18,18.05-6.13A23.56,23.56,0,0,0,155.8,186c.6-5.3-.52-10.23-3.08-13.51-1.62-2.08-3.1-2.52-5.55-3.25a46.19,46.19,0,0,1-10.85-4.63,81.85,81.85,0,0,1-8-5.21c-3-2.16-5-3.59-7.36-3.59"/><path id="Path_2312" data-name="Path 2312" d="M143.14,219.57s1.67,5.73-23.31,7.13S99,221,99,221l26.23-7.63Z"/><path id="Path_2313" data-name="Path 2313" class="cls-8" d="M118.16,309.47l.32,11.78,4.16.45L124.7,309Z"/><path id="Path_2314" data-name="Path 2314" d="M122.64,322.3h-.07l-4.16-.45a.6.6,0,0,1-.54-.59l-.32-11.77a.6.6,0,0,1,.56-.62l6.54-.45a.6.6,0,0,1,.49.2.58.58,0,0,1,.15.5l-2.06,12.67a.6.6,0,0,1-.6.51m-3.57-1.6,3.07.33L124,309.68l-5.2.35Z"/><path id="Path_2315" data-name="Path 2315" class="cls-8" d="M94.53,313.33l-.67,9.38,5.5.45,2-9.83Z"/><path id="Path_2316" data-name="Path 2316" d="M99.37,323.77h-.05l-5.5-.45a.6.6,0,0,1-.56-.64h0l.67-9.38a.6.6,0,0,1,.6-.56h6.8a.6.6,0,0,1,.6.6.62.62,0,0,1,0,.13l-2,9.82a.59.59,0,0,1-.59.49m-4.86-1.61,4.37.36,1.72-8.58h-5.5Z"/><path id="Path_2317" data-name="Path 2317" class="cls-10" d="M100.84,327.2a1.4,1.4,0,0,0,.62-1.14c0-1.37,0-4.3-.51-5.41-.74-1.46-3.78.58-3.78.58s-1.78-2.47-2.83-3c-.54-.27-3.7,1.83-6.88,4.69-3.48,3.14-5.06,4.14-5.81,6.84a2.11,2.11,0,0,0,1.5,2.58,2.57,2.57,0,0,0,.4.06c3.2.23,9.67-.15,17.29-5.22"/><path id="Path_2318" data-name="Path 2318" d="M85,333.07c-.54,0-1,0-1.45-.05a2.71,2.71,0,0,1-2.44-3.4c.68-2.45,2-3.64,4.49-5.79l1.51-1.34c.62-.56,6.15-5.48,7.55-4.78a11.25,11.25,0,0,1,2.71,2.71,4.89,4.89,0,0,1,3.17-.83,1.46,1.46,0,0,1,1,.8c.58,1.13.63,3.72.58,5.7a2,2,0,0,1-.9,1.62c-6.76,4.49-12.65,5.37-16.22,5.37m9.22-14.23c-.63.14-3.12,1.7-6.3,4.55-.55.5-1.06.94-1.52,1.34-2.43,2.13-3.53,3.1-4.12,5.21a1.46,1.46,0,0,0,.22,1.23,1.49,1.49,0,0,0,1.14.64c3.1.22,9.43-.14,16.91-5.12a.79.79,0,0,0,.36-.65,14.74,14.74,0,0,0-.45-5.12.3.3,0,0,0-.22-.17,4.88,4.88,0,0,0-2.69,1,.6.6,0,0,1-.82-.15,13.12,13.12,0,0,0-2.52-2.74"/><path id="Path_2319" data-name="Path 2319" d="M86.55,330.56a15.58,15.58,0,0,1-3.41-.32.6.6,0,1,1,.27-1.17h0a21,21,0,0,0,16.52-4.53.6.6,0,1,1,.75.94,22.54,22.54,0,0,1-14.13,5.08"/><path id="Path_2320" data-name="Path 2320" class="cls-10" d="M116.51,324.11l.06-6.45a1.94,1.94,0,0,1,2.67-.68,1.72,1.72,0,0,1,.4.31s1.64-2.3,4.69.57c0,0,4.28,8,6.18,12.72a2,2,0,0,1-1.09,2.56,2.17,2.17,0,0,1-.68.14c-2,0-4.51-.06-5.62-.81-1.73-1.17-4.7-4.86-6-6.52a3,3,0,0,1-.63-1.84"/><path id="Path_2321" data-name="Path 2321" d="M128,333.89c-2.53,0-4.27-.31-5.18-.92-1.75-1.18-4.59-4.67-6.12-6.65a3.51,3.51,0,0,1-.75-2.22l.06-6.45a.58.58,0,0,1,.1-.33,2.91,2.91,0,0,1,1.9-1.24,2.39,2.39,0,0,1,1.62.41,2.94,2.94,0,0,1,1.57-.66,4.66,4.66,0,0,1,3.58,1.59.44.44,0,0,1,.12.15c0,.08,4.32,8.06,6.21,12.79a2.57,2.57,0,0,1-1.42,3.34,2.77,2.77,0,0,1-.89.18H128m-10.84-9.78a2.32,2.32,0,0,0,.5,1.47c1.2,1.55,4.17,5.26,5.85,6.39.76.51,2.63.76,5.26.7A1.36,1.36,0,0,0,130,330.8c-1.75-4.39-5.63-11.69-6.1-12.57a3.6,3.6,0,0,0-2.55-1.2,1.72,1.72,0,0,0-1.17.62.61.61,0,0,1-.89.09,1.44,1.44,0,0,0-1.11-.46,1.63,1.63,0,0,0-.95.59Z"/><path id="Path_2322" data-name="Path 2322" d="M119.64,321.37h0a.6.6,0,0,1-.6-.6V317.3a.6.6,0,0,1,.6-.6h0a.6.6,0,0,1,.6.6v3.47a.6.6,0,0,1-.6.6"/><path id="Path_2323" data-name="Path 2323" d="M92.85,313.87s-1.57-23.68,1-45S106,217.19,106,217.19a120.53,120.53,0,0,1,17.82.54c7.5,1,10.47,0,10.47,0s5.6,6.4,5.15,18.45-13.53,62.86-13,74.79a17.12,17.12,0,0,1-10.09,1.11l2.36-68.48s-4.88,14.1-7.17,23.75a46.53,46.53,0,0,1-5.11,13s.13,18.3-4.07,33.49a17.74,17.74,0,0,1-9.48.09"/><path id="Path_2324" data-name="Path 2324" class="cls-8" d="M101.1,288.75a.6.6,0,0,1-.61-.59.59.59,0,0,1,.11-.36l3.6-5.23a.6.6,0,1,1,1,.68h0l-3.6,5.24a.61.61,0,0,1-.5.26"/><path id="Path_2325" data-name="Path 2325" class="cls-8" d="M125.31,276a9,9,0,0,1-2.2-.24.6.6,0,1,1,.3-1.17s3.31.81,5.52-.84a.62.62,0,0,1,.85.13.61.61,0,0,1-.13.85h0a7.26,7.26,0,0,1-4.33,1.27"/><path id="Path_2326" data-name="Path 2326" class="cls-8" d="M108.19,197.72s-5.79,13-15.21,15.65S77,208,77,199.73l3.21-1.07s3.28,8.49,10.62,6.28,10.74-19.47,10.74-19.47Z"/><path id="Path_2327" data-name="Path 2327" d="M89.35,214.5a11.82,11.82,0,0,1-7.2-2.45,15.57,15.57,0,0,1-5.74-12.33.6.6,0,0,1,.42-.57l3.2-1.06a.6.6,0,0,1,.76.35c.12.33,3.18,7.94,9.89,5.92,6.9-2.08,10.29-18.84,10.32-19a.6.6,0,0,1,.69-.49.6.6,0,0,1,.43.32l6.6,12.25a.58.58,0,0,1,0,.53c-.24.54-6,13.28-15.6,16a13.89,13.89,0,0,1-3.79.55M77.63,200.16a14.26,14.26,0,0,0,5.26,10.93,10.86,10.86,0,0,0,9.92,1.7c8.32-2.34,13.82-13.2,14.7-15l-5.68-10.56c-1.06,4.42-4.49,16.43-10.8,18.33a8.77,8.77,0,0,1-2.55.4c-5,0-7.8-4.87-8.58-6.5Z"/><path id="Path_2328" data-name="Path 2328" class="cls-10" d="M143.14,185.19s-5.8-7.56-22.18-6.15c-19.56,1.69-21,5.55-21,5.55L105,194.92,99,221s4.1,3.39,13.69,1.49,26.07-4.24,30.43-2.92l-6.08-24.89Z"/><path id="Path_2329" data-name="Path 2329" d="M80.24,209.62h25.2L88.91,179.73H63.71Z"/><path id="Path_2330" data-name="Path 2330" d="M105.77,209.83H80.11l-16.75-30.3H89Zm-25.42-.4h24.74l-16.3-29.49H64Z"/><path id="Path_2331" data-name="Path 2331" class="cls-8" d="M79.65,208.68a11,11,0,0,0,0-4.13A40.15,40.15,0,0,0,75.4,197c-.83-1-1.55,10,4.25,11.73"/><path id="Path_2332" data-name="Path 2332" d="M79.65,209.29a.57.57,0,0,1-.18,0c-3.67-1.13-5.11-5.65-5.23-9.51-.06-2.05.21-3.21.8-3.43a.72.72,0,0,1,.83.25,40.09,40.09,0,0,1,4.36,7.81,11.48,11.48,0,0,1,0,4.41.6.6,0,0,1-.59.5M75.5,198.13a14.67,14.67,0,0,0,.87,6.33,6,6,0,0,0,2.79,3.38,8.9,8.9,0,0,0-.09-3.13,39.49,39.49,0,0,0-3.57-6.58"/><path id="Path_2333" data-name="Path 2333" class="cls-8" d="M132.39,202.26,113,192.92l-10.08,1.78a2.17,2.17,0,0,0,2.14.8,5.18,5.18,0,0,1,4.54,1.48c1.2,1.32,3.22.48,3.22.48s11,14.09,20.83,15.9c8,1.48,8.89-27.22,8.89-27.22l-9.63,8.53Z"/><path id="Path_2334" data-name="Path 2334" d="M134.23,214a3.26,3.26,0,0,1-.7-.07c-9.23-1.7-19.16-13.58-20.94-15.79a3.38,3.38,0,0,1-3.45-.78,4.57,4.57,0,0,0-4-1.29A2.78,2.78,0,0,1,102.4,195a.62.62,0,0,1,.16-.84.54.54,0,0,1,.24-.09l10.09-1.79a.64.64,0,0,1,.36.05l18.6,9,.45-6.69a.58.58,0,0,1,.2-.41l9.63-8.54a.59.59,0,0,1,.85,0,.56.56,0,0,1,.16.43c0,.91-.75,22.35-6.45,27a3.9,3.9,0,0,1-2.46.92M112.8,196.86a.6.6,0,0,1,.48.24c.11.13,11,13.92,20.46,15.67a2.54,2.54,0,0,0,2.18-.61c4.48-3.61,5.68-19.72,5.94-24.62L133.48,195,133,202.3a.59.59,0,0,1-.63.56.6.6,0,0,1-.23-.06l-19.23-9.26-7.32,1.3a5.71,5.71,0,0,1,4.45,1.74c.9,1,2.53.33,2.54.32a.62.62,0,0,1,.23,0"/><path id="Path_2335" data-name="Path 2335" class="cls-8" d="M110.56,170.63c-.22-.34.81-2.21.85-2.89s-.5-1.25-.72-2a5.28,5.28,0,0,1,0-2c.3-8.5,9.58-6.48,9.58-6.48,2.13.64,3.38,3,3.79,4.62.8,3.07-.67,6.8-.67,6.8s1.59,10.1,1.65,10.22c1,1.85-5.5,3.06-7.52,1.2-.69-.63.19-5.25,0-5.26-.77,0-1.7.8-2.66.54-1.41-.37-2.47-3.91-2.68-4.17a1.62,1.62,0,0,0-.76-.27c-.38-.09-.78-.18-.89-.36"/><path id="Path_2336" data-name="Path 2336" d="M120.82,181.69a5.58,5.58,0,0,1-3.68-1.09c-.59-.53-.55-1.83-.26-4.53,0-.13,0-.27,0-.41l-.18.07a3.15,3.15,0,0,1-2,.29c-1.23-.32-2.09-2.1-2.84-4l-.15-.37-.41-.1a1.92,1.92,0,0,1-1.29-.63c-.28-.43-.08-1,.35-2.05a7.62,7.62,0,0,0,.41-1.19,1.88,1.88,0,0,0-.32-.89,7.26,7.26,0,0,1-.38-.86,5.58,5.58,0,0,1,0-2.23,7.19,7.19,0,0,1,2.55-5.66c3-2.35,7.57-1.4,7.76-1.35h0c2.32.7,3.72,3.16,4.2,5a13.15,13.15,0,0,1-.63,7c.08.42.25,1.53.75,4.69.34,2.17.76,4.84.85,5.28a1.48,1.48,0,0,1-.59,1.84,7.62,7.62,0,0,1-4.24,1.09M118,179.74c1.34,1.18,5.16.81,6.34-.1.3-.23.25-.34.22-.4s-.08-.16-.94-5.58c-.33-2.1-.7-4.49-.76-4.76a.65.65,0,0,1,0-.39s1.38-3.58.65-6.42c-.33-1.27-1.4-3.58-3.36-4.19-.33-.06-4.27-.79-6.75,1.14a6,6,0,0,0-2.08,4.78.38.38,0,0,1,0,.1,4.52,4.52,0,0,0,0,1.68,4.43,4.43,0,0,0,.3.67,3,3,0,0,1,.45,1.5,6.17,6.17,0,0,1-.49,1.58,10,10,0,0,0-.35,1l.4.1a1.78,1.78,0,0,1,1.11.5,3.06,3.06,0,0,1,.33.71c.3.75,1.22,3,2,3.24a2.17,2.17,0,0,0,1.25-.24,3.21,3.21,0,0,1,1.26-.32.68.68,0,0,1,.45.21c.22.26.2.48.07,1.71a13,13,0,0,0-.1,3.53"/><path id="Path_2337" data-name="Path 2337" d="M108.23,157.64c.93-.94,1.88,0,5.58-.52,3.08-.43,4-1.3,6.3-.91a6.51,6.51,0,0,1,3,1.14,7.33,7.33,0,0,1,2.69,4.32,12.82,12.82,0,0,1-.54,6.67.62.62,0,0,1-.65.43,14.68,14.68,0,0,1-2.08-.3.47.47,0,0,1-.37-.56l0-.08c0-.08,0-.16.08-.23a1.8,1.8,0,1,0-3.28-1.49,1.5,1.5,0,0,0-.15.51,1.89,1.89,0,0,0,0,.23c-1.36-1-2.06-2.2-3.32-2.83a4.56,4.56,0,0,0-1.82-.41c-2.19-.07-2.91,1.22-3.95,1-1.81-.44-3.13-5.24-1.46-6.94"/><path id="Path_2338" data-name="Path 2338" d="M117.32,175.5a.6.6,0,0,1-.18-1.18c2.78-.88,3.24-2.63,3.24-2.65a.6.6,0,1,1,1.18.26c0,.1-.56,2.44-4.06,3.54a.57.57,0,0,1-.18,0"/><path id="Path_2339" data-name="Path 2339" class="cls-8" d="M189.81,213.59a17,17,0,1,1-16.17-17.83h0a17,17,0,0,1,16.14,17.83"/><path id="Path_2340" data-name="Path 2340" d="M172.8,195.74V197c.27,0,.54,0,.81,0a15.78,15.78,0,0,1-.78,31.54c-.27,0-.54,0-.81,0A15.78,15.78,0,0,1,172.8,197Zm0,0a17,17,0,0,0-.83,34c.29,0,.57,0,.86,0a17,17,0,0,0,.84-34l-.87,0"/><path id="Path_2341" data-name="Path 2341" class="cls-10" d="M171.09,223.57a1.9,1.9,0,0,1-1.56-1l-5.71-10.89a1.86,1.86,0,0,1,3.3-1.73l4.19,8,7.63-12.39a1.87,1.87,0,0,1,3.18,2l-9.35,15.17a1.87,1.87,0,0,1-1.65.89h0"/><path id="Path_2342" data-name="Path 2342" class="cls-8" d="M306.81,217.65a17,17,0,1,1-16.16-17.82h0a17,17,0,0,1,16.14,17.82h0"/><path id="Path_2343" data-name="Path 2343" d="M289.8,199.81V201c.27,0,.54,0,.81,0a15.78,15.78,0,0,1-.78,31.54c-.26,0-.54,0-.8,0A15.78,15.78,0,0,1,289.8,201Zm0,0a17,17,0,0,0-.83,34c.29,0,.58,0,.86,0a17,17,0,0,0,.84-34l-.87,0"/><path id="Path_2344" data-name="Path 2344" class="cls-10" d="M288.09,227.64a1.9,1.9,0,0,1-1.56-1l-5.71-10.89a1.86,1.86,0,0,1,3.3-1.73l4.19,8,7.63-12.38a1.86,1.86,0,0,1,3.17,1.95l-9.34,15.18a1.84,1.84,0,0,1-1.65.88h0"/><path id="Path_2345" data-name="Path 2345" class="cls-10" d="M259,129.19,241.55,110.1l-19.12,17.41Z"/><path id="Path_2346" data-name="Path 2346" class="cls-10" d="M118,100.23l18.43,20.19L156.65,102Z"/><path id="Path_2347" data-name="Path 2347" class="cls-10" d="M239.49,142.48a56.16,56.16,0,0,0,5.77-13.92l13.72.63L241.55,110.1l-19.12,17.41,11.64.53a55.37,55.37,0,0,1-14,21.07,45.74,45.74,0,0,1-62.87-3.93,5.39,5.39,0,0,0-7.91,7.32,56.15,56.15,0,0,0,45.95,17.88c1.62-.13,3.23-.33,4.81-.59h0q1-.16,1.92-.36l.19,0L204,169l.27-.07c.6-.14,1.19-.3,1.78-.46l.23-.07c1.22-.35,2.43-.73,3.63-1.16l.2-.07c.57-.21,1.14-.43,1.7-.66l.28-.11c.55-.22,1.11-.46,1.66-.71l.23-.1c.57-.26,1.14-.52,1.7-.8h0c.57-.28,1.13-.57,1.68-.86l.21-.12c.53-.28,1.06-.58,1.58-.88l.27-.16c.51-.31,1-.62,1.53-1l.23-.14c.53-.34,1.05-.69,1.57-1.05h0c.52-.36,1-.73,1.53-1.1l.22-.16c.48-.36,1-.73,1.43-1.11l.26-.21c.46-.38.93-.77,1.39-1.17l.21-.18c.48-.42,1-.85,1.42-1.28h0c1.14-1.07,2.23-2.17,3.27-3.32l.78-.87c.39-.46.78-.92,1.15-1.38.85-1,1.65-2.1,2.42-3.19q1.42-2,2.67-4.17"/><path id="Path_2348" data-name="Path 2348" d="M190.61,171.17a56.75,56.75,0,0,1-41.76-18.25,6,6,0,0,1,8.8-8.15,45.14,45.14,0,0,0,62,3.9,55.69,55.69,0,0,0,13.55-20.06l-10.82-.5a.6.6,0,0,1-.59-.61.62.62,0,0,1,.21-.44l19.11-17.41a.6.6,0,0,1,.85,0h0l17.43,19.09a.6.6,0,0,1,0,.85.62.62,0,0,1-.45.16l-13.24-.61a57.38,57.38,0,0,1-5.7,13.6c-.84,1.45-1.75,2.86-2.7,4.21-.75,1.07-1.58,2.16-2.44,3.22-.43.52-.81,1-1.17,1.4l-.78.88c-1.05,1.16-2.16,2.28-3.3,3.35h0c-.43.4-.9.83-1.43,1.3l-.22.19q-.66.57-1.41,1.17l-.26.22c-.51.4-1,.77-1.45,1.12l-.21.16c-.56.42-1.07.78-1.55,1.12s-1,.68-1.6,1.06l-.22.15-1.55.95-.28.16c-.55.32-1.07.62-1.59.9l-.21.11c-.61.33-1.17.62-1.7.88s-1.1.53-1.73.81l-.23.1c-.53.24-1.1.48-1.68.72l-.28.11c-.59.24-1.17.46-1.72.66l-.2.07c-1.2.44-2.44.83-3.68,1.18l-.23.07c-.58.16-1.18.32-1.79.47l-.28.07c-.63.15-1.25.28-1.83.4l-.19,0c-.69.14-1.32.25-1.94.36-1.6.26-3.23.46-4.86.6s-3.13.19-4.7.19m-37.35-27.12a4.78,4.78,0,0,0-3.51,8,55.54,55.54,0,0,0,45.46,17.68c1.59-.13,3.19-.32,4.76-.58.6-.1,1.23-.22,1.9-.35l.19,0c.57-.12,1.17-.25,1.79-.4l.27-.07c.6-.14,1.19-.3,1.76-.46l.22-.06c1.22-.34,2.43-.73,3.6-1.15l.19-.07c.55-.2,1.1-.41,1.69-.65l.27-.11c.57-.23,1.13-.47,1.65-.7l.22-.1c.61-.28,1.17-.54,1.69-.8l1.66-.86.21-.11c.5-.27,1-.56,1.55-.88l.27-.15c.53-.32,1-.63,1.52-.94l.22-.14c.58-.37,1.09-.71,1.56-1s1-.68,1.52-1.1l.21-.15c.46-.35.92-.7,1.42-1.1l.26-.21c.48-.39.94-.78,1.38-1.16l.21-.18c.52-.46,1-.87,1.4-1.26h0c1.12-1,2.2-2.15,3.24-3.28l.76-.86,1.15-1.37c.84-1,1.65-2.1,2.39-3.15.92-1.32,1.81-2.7,2.64-4.12a56.24,56.24,0,0,0,5.7-13.77.61.61,0,0,1,.61-.44l12.27.56L241.5,111l-17.59,16,10.18.46a.6.6,0,0,1,.58.63.47.47,0,0,1,0,.17,56.48,56.48,0,0,1-14.14,21.31l0,0a46.36,46.36,0,0,1-63.71-4,4.73,4.73,0,0,0-3.51-1.53"/><path id="Path_2349" data-name="Path 2349" class="cls-10" d="M236.43,78.39a59.73,59.73,0,0,0-39.91-21.57h0l-.9-.08-.7-.06-.87-.06-.78,0-.8,0-1.48,0h-1.67l-.62,0-1.12,0-.53,0c-.55,0-1.1.06-1.65.11-.9.07-1.8.17-2.7.28-.72.09-1.43.19-2.14.31-1.47.23-2.92.52-4.36.87a59.56,59.56,0,0,0-32.55,20.7c-.51.64-1,1.29-1.49,1.94a60.16,60.16,0,0,0-9.64,20.12L118,100.23l18.43,20.19L156.66,102l-12.4-.57a57.24,57.24,0,0,1,2.21-5.75A48.3,48.3,0,0,1,227.6,85.6a5.7,5.7,0,1,0,8.83-7.21h0"/><path id="Path_2350" data-name="Path 2350" d="M136.44,121a.61.61,0,0,1-.44-.2l-18.44-20.19a.59.59,0,0,1-.1-.67.61.61,0,0,1,.57-.34l14,.64a60.13,60.13,0,0,1,9.61-19.85c.48-.66,1-1.32,1.5-2a60.51,60.51,0,0,1,5.91-6.38,59.16,59.16,0,0,1,27-14.53c1.46-.35,2.94-.65,4.4-.88.72-.12,1.45-.23,2.16-.31.92-.12,1.84-.22,2.72-.29L187,56h.54l1.13,0H191c.51,0,1,0,1.5,0q.33,0,.66,0h.16l.78,0,.88.06.66.06.2,0,.76.07A60,60,0,0,1,236.9,78a6.29,6.29,0,0,1-.88,8.86h0a6.32,6.32,0,0,1-8.88-.89A47.7,47.7,0,0,0,147,96c-.73,1.63-1.38,3.28-1.94,4.92l11.6.54a.59.59,0,0,1,.59.61.62.62,0,0,1-.21.44l-20.21,18.41a.62.62,0,0,1-.41.16m-17-20.12,17.05,18.66,18.68-17-10.93-.5a.61.61,0,0,1-.58-.63.45.45,0,0,1,0-.16,57.66,57.66,0,0,1,2.23-5.82,48.92,48.92,0,0,1,82.15-10.22,5.1,5.1,0,0,0,7.9-6.44h0a58.84,58.84,0,0,0-39.52-21.35l-.73-.07-.21,0-.64,0-.86-.07-.77,0h-.16l-.64,0-1.47,0h-1.65l-.6,0-1.11,0-.54,0c-.54,0-1.08.06-1.62.11-.87.07-1.77.16-2.67.27-.71.09-1.42.19-2.12.3-1.44.23-2.89.52-4.32.86A58.08,58.08,0,0,0,149.91,73a59.24,59.24,0,0,0-5.79,6.27c-.5.63-1,1.28-1.48,1.93a59,59,0,0,0-9.54,19.91.61.61,0,0,1-.61.45Z"/></g></g></g></g></g></g></g></g></svg>