<svg xmlns="http://www.w3.org/2000/svg" xmlns:xlink="http://www.w3.org/1999/xlink" viewBox="0 0 335.27 335.88"><defs><style>.cls-1,.cls-5,.cls-6{fill:none;}.cls-2{opacity:0.6;}.cls-3{clip-path:url(#clip-path);}.cls-4{fill:#9ad8f3;}.cls-5,.cls-6{stroke:#546976;stroke-miterlimit:10;}.cls-5{stroke-width:5px;}.cls-6{stroke-width:2px;}.cls-7{fill:#fff;}.cls-8{fill:#158bcb;}.cls-9{fill:#44b0de;}.cls-10{fill:#cddcf1;}.cls-11{fill:#701e5e;}</style><clipPath id="clip-path"><rect class="cls-1" width="335.27" height="335.88"/></clipPath></defs><g id="Layer_2" data-name="Layer 2"><g id="Layer_1-2" data-name="Layer 1"><g id="Group_367" data-name="Group 367"><g id="Group_217" data-name="Group 217" class="cls-2"><g id="Group_216" data-name="Group 216"><g class="cls-3"><g id="Group_215" data-name="Group 215"><path id="Path_2649" data-name="Path 2649" class="cls-4" d="M72.45,15.2c68.09-37.74,159.31,1.47,206.85,44.93,13.58,12.42,46.51,43.39,54.28,93,9.66,61.66-22,136.41-94.46,168.38C160.2,356.35,72,323.37,30.66,269.83-8,219.77-.24,160.81,2.53,139.75,5.77,115,15.4,46.82,72.45,15.2"/></g></g></g></g><path id="Path_2650" data-name="Path 2650" class="cls-5" d="M22.76,266.84A39.38,39.38,0,0,0,21,273.41l-10.4,2.33v9.77L21,287.86a40.31,40.31,0,0,0,1.76,6.57l-7.85,7.22,4.87,8.46L29.93,307a39.73,39.73,0,0,0,4.81,4.81l-3.18,10.17L40,326.83,47.25,319a39.38,39.38,0,0,0,6.57,1.78l2.33,10.4h9.77l2.35-10.4A42.41,42.41,0,0,0,74.84,319l7.22,7.84L90.53,322l-3.16-10.18A39.73,39.73,0,0,0,92.18,307l10.18,3.18,4.89-8.45-7.83-7.24a40.37,40.37,0,0,0,1.78-6.57l10.39-2.33v-9.76l-10.4-2.36a40.55,40.55,0,0,0-1.75-6.57l7.85-7.22-4.88-8.46-10.17,3.15a42,42,0,0,0-4.81-4.81l3.18-10.18-8.45-4.89-7.25,7.83a40.25,40.25,0,0,0-6.56-1.78L66,230.17H56.26l-2.36,10.4a41.2,41.2,0,0,0-6.56,1.75l-7.23-7.84-8.46,4.87,3.16,10.17A39.81,39.81,0,0,0,30,254.33l-10.18-3.18-4.89,8.45Zm16.57,1.25a25.14,25.14,0,1,1,9.17,34.34h0a25.15,25.15,0,0,1-9.16-34.35Z"/><path id="Path_2651" data-name="Path 2651" class="cls-6" d="M244.24,37.77a40.37,40.37,0,0,0-1.78,6.57l-10.39,2.33v9.76l10.4,2.36a40.55,40.55,0,0,0,1.75,6.57l-7.85,7.22L241.23,81l10.18-3.15a40.47,40.47,0,0,0,4.81,4.81L253,92.87l8.45,4.9,7.24-7.83a41.41,41.41,0,0,0,6.57,1.78l2.33,10.39h9.76l2.36-10.4A41.6,41.6,0,0,0,296.32,90l7.22,7.84L312,92.94l-3.14-10.17a40.47,40.47,0,0,0,4.8-4.82l10.18,3.18,4.89-8.45-7.83-7.24a40.1,40.1,0,0,0,1.78-6.57l10.39-2.33V46.78l-10.4-2.36a40.16,40.16,0,0,0-1.75-6.56l7.85-7.23-4.88-8.46-10.17,3.15a41.14,41.14,0,0,0-4.81-4.8l3.18-10.18-8.45-4.89-7.24,7.82a41.7,41.7,0,0,0-6.57-1.78L287.51,1.1h-9.77l-2.35,10.4a41.31,41.31,0,0,0-6.57,1.75L261.59,5.4l-8.46,4.87,3.16,10.18a39,39,0,0,0-4.81,4.81L241.3,22.08l-4.89,8.45ZM260.82,39A25.14,25.14,0,1,1,270,73.36h0A25.14,25.14,0,0,1,260.82,39Z"/><path id="Path_2652" data-name="Path 2652" d="M265.23,94.41,15.11,84.75A10.8,10.8,0,0,0,4.32,95.54V270.15a10.79,10.79,0,0,0,10.79,10.78l90.37-6.12-11.6,42.35-9.52.38c-3.82,0-4.59,3.47-4.59,7.3s2.12,5.41,5.94,5.41l98.71-4c3.83,0-3.33-45.31-3.33-45.31S271.18,94.42,265.23,94.42"/><path id="Path_2653" data-name="Path 2653" class="cls-7" d="M179.47,258.61H115.69l-18.1,66h100Z"/><path id="Path_2654" data-name="Path 2654" d="M197.56,325.26h-100a.61.61,0,0,1-.61-.6.41.41,0,0,1,0-.16l18.09-66.05a.61.61,0,0,1,.59-.45h63.78a.61.61,0,0,1,.58.45l18.1,66.05a.6.6,0,0,1-.43.74.41.41,0,0,1-.16,0m-99.17-1.21h98.37L179,259.22H116.15Z"/><path id="Path_2655" data-name="Path 2655" class="cls-7" d="M274.91,85.36H20.24A10.18,10.18,0,0,0,10.06,95.54V270.15a10.18,10.18,0,0,0,10.18,10.18H274.91a10.18,10.18,0,0,0,10.18-10.18h0V95.54a10.18,10.18,0,0,0-10.18-10.18h0"/><path id="Path_2656" data-name="Path 2656" class="cls-7" d="M208.42,317.87H86.74a6.34,6.34,0,1,0,0,12.67H208.42a6.34,6.34,0,0,0,0-12.67"/><path id="Path_2657" data-name="Path 2657" d="M208.42,331.14H86.74a6.94,6.94,0,1,1,0-13.88H208.42a6.94,6.94,0,1,1,0,13.88M86.74,318.48a5.73,5.73,0,1,0,0,11.45H208.42a5.73,5.73,0,0,0,0-11.45Z"/><path id="Path_2658" data-name="Path 2658" class="cls-8" d="M271.72,270.62H23.33a3.7,3.7,0,0,1-3.7-3.7h0v-221a7.69,7.69,0,0,1,7.69-7.69h237.1a11.24,11.24,0,0,1,11.25,11.24V266.67a4,4,0,0,1-3.95,3.95"/><path id="Path_2659" data-name="Path 2659" class="cls-7" d="M275.58,59.3V46.82c0-4.73-5.07-8.61-11.44-8.61H30c-5.71,0-10.2,3.48-10.2,7.72V59.3Z"/><rect id="Rectangle_387" data-name="Rectangle 387" class="cls-9" x="45.64" y="97.98" width="202.37" height="114.93"/><rect id="Rectangle_388" data-name="Rectangle 388" class="cls-7" x="51.47" y="136.64" width="105.14" height="5.8"/><rect id="Rectangle_389" data-name="Rectangle 389" class="cls-7" x="86.84" y="146.48" width="122.9" height="6.04"/><rect id="Rectangle_390" data-name="Rectangle 390" class="cls-7" x="114.21" y="156.43" width="122.9" height="6.04"/><rect id="Rectangle_391" data-name="Rectangle 391" class="cls-7" x="158.76" y="166.39" width="78.34" height="6.04"/><rect id="Rectangle_392" data-name="Rectangle 392" class="cls-7" x="114.21" y="106.66" width="122.9" height="6.04"/><rect id="Rectangle_393" data-name="Rectangle 393" class="cls-7" x="158.76" y="126.57" width="48.7" height="6.04"/><rect id="Rectangle_394" data-name="Rectangle 394" class="cls-7" x="158.76" y="116.61" width="78.34" height="6.04"/><rect id="Rectangle_395" data-name="Rectangle 395" class="cls-7" x="51.47" y="176.46" width="105.14" height="5.8"/><rect id="Rectangle_396" data-name="Rectangle 396" class="cls-7" x="86.84" y="186.29" width="122.9" height="6.04"/><rect id="Rectangle_397" data-name="Rectangle 397" class="cls-7" x="114.21" y="196.25" width="118.94" height="6.04"/><path id="Path_2660" data-name="Path 2660" d="M271.72,271.22H236a.61.61,0,0,1,0-1.21h35.74a3.34,3.34,0,0,0,3.34-3.34V205.25a.61.61,0,0,1,.61-.61.61.61,0,0,1,.61.61v61.42a4.56,4.56,0,0,1-4.56,4.55"/><path id="Path_2661" data-name="Path 2661" d="M275.67,67.21a.61.61,0,0,1-.6-.61V49.5a10.65,10.65,0,0,0-10.65-10.64H254.5a.61.61,0,0,1-.61-.61.61.61,0,0,1,.61-.61h9.92A11.87,11.87,0,0,1,276.28,49.5V66.6a.61.61,0,0,1-.61.61"/><path id="Path_2662" data-name="Path 2662" d="M190.85,38.83H136.12a.61.61,0,1,1,0-1.21h54.73a.61.61,0,1,1,0,1.21"/><path id="Path_2663" data-name="Path 2663" d="M23.33,271.22A4.31,4.31,0,0,1,19,266.91v-221a8.31,8.31,0,0,1,8.3-8.3l10.55-.16h0a.61.61,0,1,1,0,1.21h0l-10.55.17a7.08,7.08,0,0,0-7.09,7.08v221A3.09,3.09,0,0,0,23.33,270l22.92-.1h0a.61.61,0,0,1,.61.61.61.61,0,0,1-.61.61Z"/><rect id="Rectangle_398" data-name="Rectangle 398" class="cls-9" x="46.52" y="79.57" width="108.25" height="8.92"/><rect id="Rectangle_399" data-name="Rectangle 399" class="cls-9" x="46.11" y="223.08" width="201.49" height="8.92"/><rect id="Rectangle_400" data-name="Rectangle 400" class="cls-9" x="46.52" y="238.08" width="126.49" height="8.92"/><path id="Path_2664" data-name="Path 2664" class="cls-8" d="M266.24,173.22a28.2,28.2,0,1,0,31.32-24.68l-.14,0a28.13,28.13,0,0,0-31.18,24.7h0"/><path id="Path_2665" data-name="Path 2665" d="M294.31,205.06a28.67,28.67,0,0,1-.37-57.34,28.06,28.06,0,0,1,3.55.2,28.65,28.65,0,0,1-3.17,57.14M294.21,149a27.77,27.77,0,1,0,3.15.18,27.72,27.72,0,0,0-3.15-.18"/><path id="Path_2666" data-name="Path 2666" class="cls-7" d="M296.26,175.52a2.68,2.68,0,0,1-2.64,2.72h-.08a2.82,2.82,0,0,1-2.72-2.82,2.68,2.68,0,0,1,2.65-2.72h.06a2.8,2.8,0,0,1,2.73,2.82"/><path id="Path_2667" data-name="Path 2667" class="cls-7" d="M293.85,185.22c-10.63,0-19-4.27-19-9.73s8.33-9.73,19-9.73,19,4.27,19,9.73-8.33,9.73-19,9.73m0-18.24c-9.62,0-17.75,3.9-17.75,8.51s8.13,8.52,17.75,8.52,17.75-3.9,17.75-8.52S303.47,167,293.85,167"/><path id="Path_2668" data-name="Path 2668" class="cls-7" d="M286,191.77a5.82,5.82,0,0,1-3.46-1c-2.19-1.55-3-4.64-2.4-8.71a33.46,33.46,0,0,1,15.34-21.61c3.62-1.94,6.82-2.16,9-.61,4.45,3.16,3.11,12.43-3,21.1-4.8,6.75-10.89,10.87-15.46,10.87M301.06,160a10.78,10.78,0,0,0-5,1.49,32.22,32.22,0,0,0-14.72,20.72c-.56,3.59.11,6.26,1.9,7.53,3.77,2.67,11.65-1.7,17.22-9.54s7.1-16.73,3.33-19.4a4.59,4.59,0,0,0-2.74-.8"/><path id="Path_2669" data-name="Path 2669" class="cls-7" d="M300.59,192.75a11.31,11.31,0,0,1-6.07-2.18,33.44,33.44,0,0,1-13.25-22.95c-.26-4.11.88-7.11,3.2-8.45s5.49-.82,8.92,1.45a33.5,33.5,0,0,1,13.25,22.95c.25,4.11-.88,7.11-3.2,8.45a5.68,5.68,0,0,1-2.85.73m-13.26-33.09a4.46,4.46,0,0,0-2.25.57c-1.9,1.1-2.82,3.7-2.6,7.32a32.29,32.29,0,0,0,12.71,22c3,2,5.74,2.51,7.64,1.41s2.82-3.7,2.6-7.32a32.27,32.27,0,0,0-12.71-22,10.22,10.22,0,0,0-5.39-2"/><path id="Path_2670" data-name="Path 2670" class="cls-8" d="M245.62,100.27a28.2,28.2,0,1,0,31.32-24.68l-.14,0a28.13,28.13,0,0,0-31.18,24.7h0"/><path id="Path_2671" data-name="Path 2671" d="M273.73,132.12a28.3,28.3,0,0,1-3.32-.19,28.75,28.75,0,1,1,3.32.19M273.59,76a27.55,27.55,0,0,0-27.37,24.34,27.23,27.23,0,0,0,5.85,20.2,27.69,27.69,0,0,0,38.77,4.4,27.2,27.2,0,0,0,10.22-18.38A27.63,27.63,0,0,0,273.58,76"/><path id="Path_2672" data-name="Path 2672" class="cls-7" d="M281.87,103.84a8.41,8.41,0,0,1-8.29,8.54h-.35a8.87,8.87,0,0,1-8.47-8.9,8.44,8.44,0,0,1,8.32-8.55h.15a8.86,8.86,0,0,1,8.64,8.91"/><path id="Path_2673" data-name="Path 2673" class="cls-7" d="M285.09,89a3.7,3.7,0,0,1-3.68,3.72,0,0,0,0,1,0,0A3.72,3.72,0,1,1,285.09,89"/><path id="Path_2674" data-name="Path 2674" class="cls-7" d="M273.57,120.69a17.2,17.2,0,1,1,17.19-17.2h0a17.21,17.21,0,0,1-17.19,17.2m0-33.17a16,16,0,1,0,16,16h0a16,16,0,0,0-16-16"/><path id="Path_2675" data-name="Path 2675" class="cls-8" d="M195.21,44.11a28.2,28.2,0,1,0,31.32-24.68l-.14,0a28.13,28.13,0,0,0-31.18,24.7h0"/><path id="Path_2676" data-name="Path 2676" d="M223.29,76a27.5,27.5,0,0,1-3.28-.19,28.74,28.74,0,1,1,3.28.19m-.11-56.12a27.66,27.66,0,1,0,3.14.18,27.45,27.45,0,0,0-3.14-.18"/><path id="Path_2677" data-name="Path 2677" class="cls-7" d="M240.18,36.93v21L222.2,66l-.1-.14L207.45,55.34l.13-17.29,14.78-9.8,0-.13Z"/><path id="Path_2678" data-name="Path 2678" class="cls-10" d="M222.37,28.24l-.14,37.66L207.47,55.34l.12-17.29Z"/><path id="Path_2679" data-name="Path 2679" d="M153.55,128.83c-8.73-9.44-21.69-11.42-31.44-8.76-12.33,3.37-18.55,14-22.94,21.56-7.76,13.3-4,18.13-10.1,25.85-10.79,13.69-27.71,5.14-40.87,15.13-20.07,15.26-22.79,67,4.36,86.73,18.11,13.14,42.74,5.54,49.44,3.47,20.34-6.28,45.65-23.8,49.28-47.54,3-19.64-9.94-36,.89-52.44,2.76-4.19,5-5.32,7.09-10.57,3.33-8.51,4.08-22.84-5.71-33.43"/><path id="Path_2680" data-name="Path 2680" d="M127.24,131.16c4.64-3.76,1.7-14.85-1.26-20.83-1.11-2.24-6.09-12.27-12.63-11.88-6.71.4-13.15,11.68-10.75,20.61,3,11.17,19.21,16.5,24.64,12.1"/><path id="Path_2681" data-name="Path 2681" class="cls-7" d="M203.42,286.91s-46.6-81.23-53-85.13,0,37.21,0,37.21l34.8,58.1Z"/><path id="Path_2682" data-name="Path 2682" d="M185.21,297.69a.6.6,0,0,1-.53-.3l-34.8-58.1a.72.72,0,0,1-.08-.22c0-.08-1.36-8.76-2.2-17.67-1.54-16.43-.1-19.42,1.12-20.23a1.75,1.75,0,0,1,2,.08c6.47,3.93,51.32,82,53.23,85.35a.62.62,0,0,1-.23.83h0L185.5,297.61a.63.63,0,0,1-.3.07M151,238.78l34.43,57.49,17.17-9.59c-16.18-28.19-47.56-81.38-52.5-84.38-.44-.27-.61-.16-.69-.11-.67.45-2.07,3.21-.58,19.1.78,8.31,2,16.42,2.17,17.49"/><path id="Path_2683" data-name="Path 2683" class="cls-11" d="M81.61,200.13s32-15.68,68.8,1.65c0,0,31.6,110.64,33.82,121.71s-14.68,10.65-29.06,11.62c-20,1.35-39.73,0-62,.41-16.71.3-15.78-13.85-14.13-27s2.59-108.39,2.59-108.39"/><path id="Path_2684" data-name="Path 2684" class="cls-7" d="M84.25,285.59l45.64-27.21,24.79,8.3a5.52,5.52,0,0,1-5.7,1.23,13.15,13.15,0,0,0-12,2c-3.53,2.88-8.32,0-8.32,0s-29,43-54.58,43.86c-20.79.72-9.43-72.3-4.45-99.64a18.26,18.26,0,0,1,11.47-13.8l7.65-2.92Z"/><path id="Path_2685" data-name="Path 2685" d="M73.75,314.42a8.24,8.24,0,0,1-6.43-3.07c-11.95-13.82-2.8-72.65,1.69-97.3A19,19,0,0,1,80.86,199.8l7.65-2.92a.61.61,0,0,1,.79.35.73.73,0,0,1,0,.25l-4.42,87,44.66-26.62a.62.62,0,0,1,.5-.06l24.79,8.3a.62.62,0,0,1,.38.77.54.54,0,0,1-.13.22,6.09,6.09,0,0,1-6.34,1.4,12.57,12.57,0,0,0-11.44,1.93c-3.16,2.58-7.12,1-8.52.32A185.73,185.73,0,0,1,111.37,292c-14,14.52-26.53,22.07-37.3,22.44h-.33M88.07,198.35l-6.78,2.59a17.73,17.73,0,0,0-11.08,13.33c-4.46,24.48-13.57,82.86-2,96.29A7,7,0,0,0,74,313.2c25-.87,53.8-43.17,54.1-43.59a.61.61,0,0,1,.81-.19c.05,0,4.48,2.63,7.62.05a13.84,13.84,0,0,1,12.6-2.14,5,5,0,0,0,4.25-.44L130,259,84.57,286.1a.61.61,0,0,1-.84-.21.57.57,0,0,1-.08-.34Z"/><path id="Path_2686" data-name="Path 2686" d="M206.6,295.88,140,298.58a2.88,2.88,0,0,1-2.45-4.4l33.6-54.71a4.53,4.53,0,0,1,3.86-2.16l67.34,1.54Z"/><path id="Path_2687" data-name="Path 2687" d="M140,299.18a3.48,3.48,0,0,1-3.52-3.46,3.4,3.4,0,0,1,.52-1.86l33.6-54.7A5.18,5.18,0,0,1,175,236.7l68.42,1.57-36.47,58.21h-.32L140,299.18Zm35-61.26a4,4,0,0,0-3.33,1.87l-33.6,54.71A2.28,2.28,0,0,0,140,298l66.27-2.68,35-55.86Z"/><path id="Path_2688" data-name="Path 2688" class="cls-8" d="M211.39,298.58h-71.9l37.63-61.27H249Z"/><path id="Path_2689" data-name="Path 2689" d="M211.39,299.18h-71.9a.6.6,0,0,1-.6-.61.56.56,0,0,1,.09-.31L176.6,237a.61.61,0,0,1,.52-.29H249a.61.61,0,0,1,.61.61.62.62,0,0,1-.09.32l-37.63,61.26a.6.6,0,0,1-.51.29M140.58,298h70.48l36.88-60.05H177.46Z"/><path id="Path_2690" data-name="Path 2690" class="cls-7" d="M213.05,295.88s-1.36-7.08,0-11.8,9.72-18.77,12.12-21.71,4.42,28.45-12.12,33.52"/><path id="Path_2691" data-name="Path 2691" d="M213.05,296.49a.6.6,0,0,1-.6-.49c-.06-.3-1.37-7.28,0-12.09s9.71-18.83,12.24-21.93a1,1,0,0,1,1.1-.36c1.75.65,1.59,7.88,1.56,8.7-.32,10.65-4.2,23.11-14.13,26.15a.55.55,0,0,1-.18,0M225.47,263c-2.66,3.44-10.58,16.88-11.84,21.27-1,3.69-.39,9-.1,10.83,7-2.53,10.12-10,11.49-15.95,1.78-7.73,1.14-14.64.45-16.15"/><path id="Path_2692" data-name="Path 2692" class="cls-7" d="M135.3,177.07a5.41,5.41,0,0,0,6.25-1,31.38,31.38,0,0,0,4.64-5.93l2.38.05a1.41,1.41,0,0,0,1.43-1.34l.41-9.29c5.47-8.92,1.16-13.7,1.16-13.7-.4-4.57-12-7.3-18.43,1.52-4.39,6-10.7,0-10.7,0s-3.31-8.92-7.18-3.43,3.8,15.12,3.8,15.12l-5.73,24.41a17.44,17.44,0,0,1-10.74,12.32l-5.5,2.11s8.6,28.16,32.94,27.64c18.58-.4,10.57-25.51,10.57-25.51L138.16,199a14.6,14.6,0,0,1-8.34-16.58l1.63-7.23Z"/><path id="Path_2693" data-name="Path 2693" d="M133.4,177.56a.6.6,0,0,1-.27-.06c-7.11-3.46-7.79-11.83-7.81-12.18a.6.6,0,0,1,.56-.65.59.59,0,0,1,.65.56c0,.08.67,8,7.13,11.17a.61.61,0,0,1,.28.82.6.6,0,0,1-.54.34"/><path id="Path_2694" data-name="Path 2694" class="cls-11" d="M129.17,81l-23.41,3.23a7.45,7.45,0,0,0-6.12,5.23l-4.29,14.17-9.5-12.76a7.45,7.45,0,0,0-7-2.93l-21.53,3a7.45,7.45,0,0,1-8.4-6.37l-6.3-45.74A7.46,7.46,0,0,1,49,30.38l71.84-9.91a7.45,7.45,0,0,1,8.4,6.37l6.3,45.74A7.45,7.45,0,0,1,129.16,81"/><path id="Path_2695" data-name="Path 2695" d="M95.35,104.23a.63.63,0,0,1-.49-.24l-9.5-12.76a6.83,6.83,0,0,0-6.42-2.7l-21.53,3a8.06,8.06,0,0,1-9.09-6.89L42,38.87a8.08,8.08,0,0,1,6.88-9.1l71.85-9.91a8.07,8.07,0,0,1,9.09,6.89h0l6.3,45.74a8.08,8.08,0,0,1-6.89,9.1l-23.41,3.23a6.86,6.86,0,0,0-5.62,4.8L95.93,103.8a.6.6,0,0,1-.47.42h-.11m-15.47-17a8,8,0,0,1,6.46,3.25l8.78,11.79,3.94-13a8.1,8.1,0,0,1,6.61-5.66l23.41-3.23a6.85,6.85,0,0,0,5.85-7.72l-6.3-45.74a6.85,6.85,0,0,0-7.71-5.86h0L49.07,31a6.85,6.85,0,0,0-5.85,7.72l6.3,45.74a6.85,6.85,0,0,0,7.72,5.85h0l21.53-3a8.13,8.13,0,0,1,1.1-.07"/><path id="Path_2696" data-name="Path 2696" class="cls-7" d="M80.24,68.59l-20.67-8-.46-3.26L76.84,44.63,77.6,50l-12.19,8.2,14.08,5.1Z"/><path id="Path_2697" data-name="Path 2697" class="cls-7" d="M95.31,39.33l-5.43,32.8-5.15.56,5.53-33Z"/><path id="Path_2698" data-name="Path 2698" class="cls-7" d="M102.06,61.12,113.24,54l-13-5.8L99.48,43l18.89,9.23.43,3-16,11Z"/><rect id="Rectangle_401" data-name="Rectangle 401" class="cls-1" width="335.27" height="335.88"/><rect id="Rectangle_402" data-name="Rectangle 402" class="cls-1" width="335.27" height="335.88"/></g></g></g></svg>