<svg xmlns="http://www.w3.org/2000/svg" xmlns:xlink="http://www.w3.org/1999/xlink" viewBox="0 0 339.7 336"><defs><style>.cls-1{fill:none;}.cls-2{clip-path:url(#clip-path);}.cls-3{opacity:0.6;}.cls-4{fill:#9ad8f3;}.cls-5{fill:#fff;}.cls-6{fill:#cddcf1;}.cls-7{fill:#158bcb;}.cls-8{fill:#932682;}.cls-9{fill:#701e5e;}.cls-10{fill:#546976;}</style><clipPath id="clip-path"><rect class="cls-1" width="339.7" height="336"/></clipPath></defs><g id="Layer_2" data-name="Layer 2"><g id="Layer_1-2" data-name="Layer 1"><g id="Group_224" data-name="Group 224"><g class="cls-2"><g id="Group_231" data-name="Group 231"><g id="Group_228" data-name="Group 228"><g class="cls-2"><g id="Group_227" data-name="Group 227"><g id="Group_226" data-name="Group 226" class="cls-3"><g id="Group_225" data-name="Group 225"><g class="cls-2"><g id="Group_224-2" data-name="Group 224-2"><path id="Path_2699" data-name="Path 2699" class="cls-4" d="M53,281C14.77,242.65,10.31,197,1.88,110.85-5,40.78,8.81,29.5,13,26.62,47.18,2.89,128.44,63.93,140,48.92c6.65-8.67-19.76-29.83-13.64-40.47C137.29-10.61,255.41-.67,308.76,72c51.55,70.25,40.43,196.1-46.53,245C190.9,357.21,99.93,328,53,281"/></g></g></g></g></g></g></g><path id="Path_2700" data-name="Path 2700" class="cls-5" d="M218.18,244.51H162.47L146.66,302.2H234Z"/><g id="Group_230" data-name="Group 230"><g class="cls-2"><g id="Group_229" data-name="Group 229"><path id="Path_2701" data-name="Path 2701" d="M234,302.82H146.66a.61.61,0,0,1-.61-.62.44.44,0,0,1,0-.16l15.8-57.69a.62.62,0,0,1,.6-.45h55.71a.6.6,0,0,1,.59.45L234.58,302a.62.62,0,0,1-.43.76l-.16,0m-86.52-1.23h85.71l-15.47-56.46H162.94Z"/><path id="Path_2702" data-name="Path 2702" class="cls-5" d="M301.56,93.17H79.09a8.89,8.89,0,0,0-8.89,8.89h0V254.59a8.89,8.89,0,0,0,8.89,8.89H301.56a8.89,8.89,0,0,0,8.89-8.89V102.06a8.89,8.89,0,0,0-8.89-8.89"/><path id="Path_2703" data-name="Path 2703" d="M301.57,264.09H79.09a9.52,9.52,0,0,1-9.51-9.5V102.06a9.52,9.52,0,0,1,9.51-9.5H301.57a9.52,9.52,0,0,1,9.5,9.5V254.59a9.52,9.52,0,0,1-9.5,9.5M79.09,93.78a8.3,8.3,0,0,0-8.28,8.28V254.59a8.3,8.3,0,0,0,8.28,8.28H301.57a8.29,8.29,0,0,0,8.27-8.28V102.06a8.29,8.29,0,0,0-8.27-8.28Z"/><path id="Path_2704" data-name="Path 2704" class="cls-5" d="M243.47,296.27H137.17a5.54,5.54,0,0,0,0,11.07h106.3a5.54,5.54,0,0,0,0-11.07"/><path id="Path_2705" data-name="Path 2705" d="M243.47,308H137.18a6.15,6.15,0,0,1,0-12.29H243.48a6.15,6.15,0,0,1,0,12.29m-106.3-11.07a4.92,4.92,0,0,0,0,9.84h106.3a4.92,4.92,0,0,0,0-9.84Z"/><rect id="Rectangle_405" data-name="Rectangle 405" class="cls-6" x="82.65" y="105.91" width="215.36" height="10.67"/><rect id="Rectangle_406" data-name="Rectangle 406" class="cls-7" x="82.65" y="124.38" width="215.36" height="70.99"/><path id="Path_2706" data-name="Path 2706" class="cls-5" d="M293.1,111.25a2.57,2.57,0,1,1-2.57-2.57,2.55,2.55,0,0,1,2.57,2.57"/><rect id="Rectangle_407" data-name="Rectangle 407" class="cls-6" x="82.65" y="200.26" width="67.66" height="44.26"/><rect id="Rectangle_408" data-name="Rectangle 408" class="cls-6" x="156.49" y="200.26" width="67.67" height="44.26"/><rect id="Rectangle_409" data-name="Rectangle 409" class="cls-6" x="230.34" y="200.26" width="67.66" height="44.26"/><path id="Path_2707" data-name="Path 2707" class="cls-5" d="M278.32,222.38a14.15,14.15,0,1,1-14.15-14.14h0a14.15,14.15,0,0,1,14.15,14.14"/><path id="Path_2708" data-name="Path 2708" class="cls-5" d="M204.47,222.38a14.15,14.15,0,1,1-14.14-14.14h0a14.14,14.14,0,0,1,14.14,14.14"/><path id="Path_2709" data-name="Path 2709" class="cls-5" d="M130.62,222.38a14.15,14.15,0,1,1-14.14-14.14h0a14.14,14.14,0,0,1,14.14,14.14"/><path id="Path_2710" data-name="Path 2710" class="cls-5" d="M180.6,179.5H18.88A6.47,6.47,0,0,0,12.41,186h0V296.84a6.47,6.47,0,0,0,6.47,6.46H180.6a6.46,6.46,0,0,0,6.46-6.46V186a6.46,6.46,0,0,0-6.46-6.46h0"/><path id="Path_2711" data-name="Path 2711" d="M180.6,303.92H18.87a7.09,7.09,0,0,1-7.08-7.08V186a7.09,7.09,0,0,1,7.08-7.08H180.6a7.08,7.08,0,0,1,7.07,7.08V296.84a7.08,7.08,0,0,1-7.07,7.08M18.87,180.11A5.86,5.86,0,0,0,13,186V296.84a5.86,5.86,0,0,0,5.85,5.85H180.6a5.86,5.86,0,0,0,5.85-5.85V186a5.86,5.86,0,0,0-5.85-5.85Z"/><rect id="Rectangle_410" data-name="Rectangle 410" class="cls-6" x="21.46" y="188.76" width="156.55" height="7.76"/><rect id="Rectangle_411" data-name="Rectangle 411" class="cls-7" x="21.46" y="202.19" width="156.55" height="51.61"/><path id="Path_2712" data-name="Path 2712" class="cls-5" d="M174.45,192.64a1.87,1.87,0,1,1-1.87-1.87,1.87,1.87,0,0,1,1.87,1.87h0"/><rect id="Rectangle_412" data-name="Rectangle 412" class="cls-6" x="21.46" y="257.34" width="49.19" height="32.17"/><rect id="Rectangle_413" data-name="Rectangle 413" class="cls-6" x="75.14" y="257.34" width="49.19" height="32.17"/><rect id="Rectangle_414" data-name="Rectangle 414" class="cls-6" x="128.82" y="257.34" width="49.19" height="32.17"/><path id="Path_2713" data-name="Path 2713" class="cls-5" d="M163.7,273.43a10.28,10.28,0,1,1-10.28-10.28,10.28,10.28,0,0,1,10.28,10.28h0"/><path id="Path_2714" data-name="Path 2714" class="cls-5" d="M110,273.43a10.29,10.29,0,1,1-10.28-10.28A10.28,10.28,0,0,1,110,273.43h0"/><path id="Path_2715" data-name="Path 2715" class="cls-5" d="M56.34,273.43a10.29,10.29,0,1,1-10.28-10.28,10.29,10.29,0,0,1,10.28,10.28h0"/><path id="Path_2716" data-name="Path 2716" class="cls-5" d="M191.28,303.3H8.28a3.43,3.43,0,0,0-3.43,3.44h0v.8a6,6,0,0,0,6,6H188.7a6,6,0,0,0,6-6v-.8a3.44,3.44,0,0,0-3.43-3.44h0"/><path id="Path_2717" data-name="Path 2717" d="M188.7,314.17H10.86a6.64,6.64,0,0,1-6.63-6.63v-.8a4.07,4.07,0,0,1,4-4.05h183a4.05,4.05,0,0,1,4.05,4.05v.8a6.63,6.63,0,0,1-6.63,6.63M8.28,303.92a2.82,2.82,0,0,0-2.82,2.82v.8a5.42,5.42,0,0,0,5.4,5.4H188.7a5.42,5.42,0,0,0,5.4-5.4v-.8a2.82,2.82,0,0,0-2.82-2.82Z"/><path id="Path_2718" data-name="Path 2718" class="cls-5" d="M164.66,139H95.26a6.07,6.07,0,0,0-6.07,6.07h0v68.17a6.07,6.07,0,0,0,6.07,6.07h69.4a6.07,6.07,0,0,0,6.07-6.07h0V145.06a6.07,6.07,0,0,0-6.07-6.07h0"/><path id="Path_2719" data-name="Path 2719" d="M164.66,219.92H95.26a6.68,6.68,0,0,1-6.68-6.68V145.06a6.68,6.68,0,0,1,6.68-6.68h69.4a6.69,6.69,0,0,1,6.69,6.68v68.17a6.71,6.71,0,0,1-6.69,6.69M95.26,139.6a5.46,5.46,0,0,0-5.45,5.46v68.17a5.45,5.45,0,0,0,5.45,5.46h69.4a5.45,5.45,0,0,0,5.46-5.46V145.06a5.47,5.47,0,0,0-5.46-5.46Z"/><path id="Path_2720" data-name="Path 2720" d="M165.91,149.57H94a.62.62,0,1,1,0-1.23h71.89a.62.62,0,0,1,0,1.23h0"/><path id="Path_2721" data-name="Path 2721" d="M100,143.66a1.56,1.56,0,1,1-1.55-1.56,1.56,1.56,0,0,1,1.55,1.56"/><path id="Path_2722" data-name="Path 2722" d="M106.24,143.66a1.56,1.56,0,1,1-1.56-1.56,1.56,1.56,0,0,1,1.56,1.56"/><path id="Path_2723" data-name="Path 2723" d="M112.46,143.66a1.56,1.56,0,1,1-1.55-1.56,1.55,1.55,0,0,1,1.55,1.56h0"/><path id="Path_2724" data-name="Path 2724" d="M166,144.27h-8.77a.61.61,0,0,1-.62-.61.61.61,0,0,1,.62-.61H166a.61.61,0,0,1,0,1.22h0"/><path id="Path_2725" data-name="Path 2725" d="M153.28,144.27h-19.8a.61.61,0,1,1,0-1.22h19.8a.61.61,0,0,1,.61.61.61.61,0,0,1-.61.61"/><path id="Path_2726" data-name="Path 2726" d="M123.93,144.27H116.2a.6.6,0,0,1-.61-.61.61.61,0,0,1,.61-.61h7.73a.61.61,0,1,1,0,1.22"/><rect id="Rectangle_415" data-name="Rectangle 415" class="cls-7" x="96.94" y="154.89" width="64.83" height="39.64"/><path id="Path_2727" data-name="Path 2727" d="M136.58,206.29H96.94a.61.61,0,0,1-.62-.61h0v-6.61a.61.61,0,0,1,.62-.61h39.64a.61.61,0,0,1,.61.61h0v6.61a.61.61,0,0,1-.61.61h0m-39-1.22H136v-5.38H97.55Z"/><path id="Path_2728" data-name="Path 2728" d="M195.48,75.92A8.46,8.46,0,0,1,191,70.83c-1.38-3.93-2.05-12,1.14-11.25s10,17.58,10,17.58Z"/><path id="Path_2729" data-name="Path 2729" d="M233.35,33.85c-.26-1.51-1.32-6.4-6.84-11.76-1.9-1.84-12.38-12-23.07-9.62s-10.05,15-20.1,17.27c-10.25,2.32-15.59-10.4-26.56-8.39-10.44,1.9-17.87,15.52-15.49,19,1.65,2.39,6.81-1.77,15.69.21,9.8,2.17,10.93,8.88,18.07,8.7s8.43-7.11,15.38-7,7.73,7,16.31,9.5c9.45,2.73,21.8-1.87,25.47-9.9a14.57,14.57,0,0,0,1.14-7.95"/><path id="Path_2730" data-name="Path 2730" d="M243.52,44.66c2.39,0,5.15-.32,5.74-1.79,1.45-3.63-9.73-16-17.95-12.48-5.36,2.26-8.69,10.91-5.61,15.14,2.71,3.73,10.8,4.55,17.82-.87"/><path id="Path_2731" data-name="Path 2731" class="cls-5" d="M236.89,39.1c-2.32.92-2.79,5.8-3.41,5.68s.11-3-1.14-3.61a1.77,1.77,0,0,0-1.75.31c-1,.74-1.19,2.49-.31,4.23q-4,3-8.07,6-4.86,3.57-9.66,7l12.5,4.11,7.34-9.46a8.67,8.67,0,0,0,2.79,2.39s2.75-.2,5.32-3.82l.6.25a.66.66,0,0,0,.86-.36.59.59,0,0,0,0-.23l.05-1.53a4.87,4.87,0,0,1,.36-1.69A29.68,29.68,0,0,0,244,43c-4-4-6-4.29-7.08-3.85"/><path id="Path_2732" data-name="Path 2732" d="M225.05,63.41a.63.63,0,0,1-.19,0l-12.51-4.12a.61.61,0,0,1-.39-.77.65.65,0,0,1,.23-.31c3.21-2.29,6.46-4.63,9.65-7,2.56-1.87,5.13-3.79,7.68-5.7-.73-1.79-.46-3.64.7-4.52a2.37,2.37,0,0,1,2.41-.37,2.55,2.55,0,0,1,1.14,2.08c.52-1.54,1.32-3.54,2.89-4.17,1.85-.73,4.38.57,7.75,4a.62.62,0,0,1,.16.55,30.08,30.08,0,0,1-1.59,5.5,4.41,4.41,0,0,0-.32,1.48l0,1.53a1.27,1.27,0,0,1-1.31,1.24,1.46,1.46,0,0,1-.45-.1l-.15-.06c-2.63,3.43-5.37,3.67-5.49,3.67a.59.59,0,0,1-.32-.06,8.93,8.93,0,0,1-2.49-2l-6.87,8.86a.63.63,0,0,1-.49.24m-11.16-4.94,11,3.6L231.91,53a.61.61,0,0,1,.48-.24h0a.59.59,0,0,1,.48.23,8.09,8.09,0,0,0,2.42,2.13c.58-.1,2.67-.66,4.7-3.53a.62.62,0,0,1,.74-.21l.6.24.67,0-.61,0,0-1.53a5.56,5.56,0,0,1,.4-1.9,27.67,27.67,0,0,0,1.46-5c-2.77-2.78-4.91-4-6.18-3.48s-1.89,2.53-2.34,3.88c-.4,1.19-.66,2-1.41,1.83s-.69-.82-.74-1.62-.1-1.81-.56-2A1.21,1.21,0,0,0,231,42c-.66.51-.93,1.89-.14,3.47a.62.62,0,0,1-.17.77c-2.68,2-5.39,4-8.08,6-2.87,2.1-5.78,4.21-8.68,6.28"/><path id="Path_2733" data-name="Path 2733" class="cls-5" d="M231.09,48.1a6.84,6.84,0,0,0,1.3,5.23Z"/><path id="Path_2734" data-name="Path 2734" d="M232.39,54a.63.63,0,0,1-.49-.25A7.45,7.45,0,0,1,230.49,48a.62.62,0,0,1,.74-.47.62.62,0,0,1,.46.74,6.22,6.22,0,0,0,1.2,4.73.62.62,0,0,1-.13.86.67.67,0,0,1-.36.12"/><path id="Path_2735" data-name="Path 2735" class="cls-5" d="M106.55,78,71,87.66,68.6,92.42h37.17Z"/><path id="Path_2736" data-name="Path 2736" d="M105.77,93H68.6a.62.62,0,0,1-.62-.62.72.72,0,0,1,.07-.28l2.42-4.75a.62.62,0,0,1,.39-.32l35.53-9.64a.61.61,0,0,1,.77.62l-.78,14.4a.61.61,0,0,1-.61.58M69.6,91.81h35.59l.7-13L71.44,88.18Z"/><path id="Path_2737" data-name="Path 2737" class="cls-8" d="M79.3,83.06a14.53,14.53,0,0,0-2.73-6.93,2.86,2.86,0,0,0-3.79-.71L51.1,88.72a2,2,0,0,0,1.2,3.7H78L75.4,87.84l2.44-1.62a3.33,3.33,0,0,0,1.46-3.16"/><path id="Path_2738" data-name="Path 2738" d="M78,93H52.29a2.66,2.66,0,0,1-1.55-4.81l0,0L72.46,74.9a3.5,3.5,0,0,1,4.6.87A15.21,15.21,0,0,1,79.91,83a3.92,3.92,0,0,1-1.73,3.75l-2,1.31,2.3,4.08a.62.62,0,0,1-.24.84A.6.6,0,0,1,78,93m-26.55-3.8a1.43,1.43,0,0,0-.29,2,1.45,1.45,0,0,0,1.15.58H76.93l-2.06-3.68a.61.61,0,0,1,.19-.81l2.44-1.62a2.72,2.72,0,0,0,1.19-2.58,14,14,0,0,0-2.61-6.64,2.26,2.26,0,0,0-3-.55Z"/><path id="Path_2739" data-name="Path 2739" d="M53.51,91.55a.61.61,0,0,1-.61-.61.63.63,0,0,1,.31-.54L75.45,77.66a.61.61,0,0,1,.84.21.61.61,0,0,1-.21.84h0L53.82,91.47a.61.61,0,0,1-.3.08"/><path id="Path_2740" data-name="Path 2740" class="cls-5" d="M115.93,53.81l-33-16.33-5,2L105.8,64.08Z"/><path id="Path_2741" data-name="Path 2741" d="M105.8,64.69a.59.59,0,0,1-.4-.15L77.57,39.9a.62.62,0,0,1-.06-.87.63.63,0,0,1,.24-.16l5-2a.67.67,0,0,1,.5,0l33,16.33a.62.62,0,0,1,.28.82.61.61,0,0,1-.12.16L106.24,64.51a.62.62,0,0,1-.43.18m-26.68-25,26.64,23.59L114.9,54l-32-15.83Z"/><path id="Path_2742" data-name="Path 2742" class="cls-8" d="M86.22,36.75a14.64,14.64,0,0,0,1-7.37,2.87,2.87,0,0,0-3-2.48l-25.42,1a2,2,0,0,0-.77,3.82l22.38,12.6V39l2.92-.22a3.32,3.32,0,0,0,2.83-2"/><path id="Path_2743" data-name="Path 2743" d="M80.47,44.88a.67.67,0,0,1-.3-.08L57.79,32.2a2.66,2.66,0,0,1,1-5h0l25.43-1a3.49,3.49,0,0,1,3.58,3A15.22,15.22,0,0,1,86.78,37a3.91,3.91,0,0,1-3.35,2.41l-2.35.18v4.68a.61.61,0,0,1-.61.62M58.91,28.46a1.43,1.43,0,0,0-.52,2.67L79.86,43.21V39a.61.61,0,0,1,.56-.61l2.92-.22a2.71,2.71,0,0,0,2.31-1.66,14,14,0,0,0,1-7.07,2.26,2.26,0,0,0-2.32-1.94Z"/><path id="Path_2744" data-name="Path 2744" d="M59.88,31.58a.62.62,0,0,1-.62-.62.61.61,0,0,1,.62-.61l25.63-.2h0a.62.62,0,0,1,0,1.23Z"/><path id="Path_2745" data-name="Path 2745" d="M148.07,84.53S133.92,64.13,126.63,56a122.57,122.57,0,0,1-12.46-16.8s-15,6.47-23,14.13l34.69,36Z"/><path id="Path_2746" data-name="Path 2746" d="M214.26,92.89H87.85l11.4-18.25s18.09-4.42,27.49-.71,15.37,5.63,22.38,4.73,22.95-9.9,33.07-8.92,26.69,7.72,26.69,7.72Z"/><path id="Path_2747" data-name="Path 2747" class="cls-5" d="M144.56,78.79h0c-5-.33-10-2-17.43-4.94-3.34-1.31-8.18-1.73-14.41-1.23a.62.62,0,0,1-.1-1.23c6.41-.51,11.44-.06,15,1.32,7.36,2.9,12.26,4.54,17.07,4.86a.61.61,0,0,1,0,1.22"/><path id="Path_2748" data-name="Path 2748" class="cls-5" d="M199.61,74.13a.63.63,0,0,1-.19,0l-6.41-2a.61.61,0,0,1,.37-1.17l6.41,2a.61.61,0,0,1-.18,1.2"/><path id="Path_2749" data-name="Path 2749" class="cls-5" d="M237.53,83.55l13.86-27.33a4.91,4.91,0,0,1,3.17-2.54l13.1-3.32a3.69,3.69,0,0,1-2.38,2.56l-2.78.95s-.16,5.81-7.5,6.25l-8.44,23.43Z"/><path id="Path_2750" data-name="Path 2750" d="M246.55,84.16h-9a.61.61,0,0,1-.61-.61.67.67,0,0,1,.06-.28l13.86-27.33a5.51,5.51,0,0,1,3.57-2.85l13.1-3.32a.6.6,0,0,1,.74.44.55.55,0,0,1,0,.31,4.29,4.29,0,0,1-2.77,3l-2.41.81c-.22,1.43-1.39,5.83-7.63,6.38l-8.31,23.06a.62.62,0,0,1-.58.4m-8-1.22h7.59l8.3-23a.62.62,0,0,1,.54-.4c6.7-.4,6.92-5.44,6.93-5.65a.6.6,0,0,1,.41-.57l2.78-.94a3,3,0,0,0,1.47-1.07l-11.85,3a4.32,4.32,0,0,0-2.77,2.22Z"/><path id="Path_2751" data-name="Path 2751" d="M255.15,59a.61.61,0,0,1-.08-1.22,2,2,0,0,0,1.47-.7,4,4,0,0,1,1.88-1.55,2.23,2.23,0,0,0,1.16-.79c-4,1.07-4.39,1-4.51,1a.61.61,0,0,1-.53-.69.61.61,0,0,1,.64-.53c.4,0,2.88-.64,5.07-1.23a.61.61,0,0,1,.75.43.11.11,0,0,1,0,.05c.13.69-.17,2.19-2.17,2.91a2.8,2.8,0,0,0-1.29,1.09A3.1,3.1,0,0,1,255.23,59h-.08m0-4.48h0"/><path id="Path_2752" data-name="Path 2752" class="cls-9" d="M205.64,93.3,192.1,59.58s4.94,2.23,12.51-.49,15-6,19.3-2.42l9.93,9.69L231,67.43l-3.3,12.28L220,93.3Z"/><path id="Path_2753" data-name="Path 2753" class="cls-7" d="M268.78,60l10.64-11.33,6.17-.56s-10.69,12.66-11,13.52S268.78,60,268.78,60"/><path id="Path_2754" data-name="Path 2754" d="M274.21,62.4c-1.35,0-4-1.11-5.68-1.85a.62.62,0,0,1-.32-.81.66.66,0,0,1,.12-.17L279,48.24a.63.63,0,0,1,.4-.19l6.16-.56a.62.62,0,0,1,.67.56.66.66,0,0,1-.14.45c-4,4.74-10.5,12.56-10.88,13.35a.85.85,0,0,1-.46.47,1.32,1.32,0,0,1-.52.08m-.16-1,0,0s0,0,0,0m-4.22-1.6a18.29,18.29,0,0,0,4.33,1.41c.93-1.51,6.67-8.37,10-12.34l-4.45.4Z"/><path id="Path_2755" data-name="Path 2755" class="cls-5" d="M232.84,66.49s-9.08,2-10.5,10.1l13,14.81a5.61,5.61,0,0,0,7.91.51l.12-.11L270,67l6.27-4.9a11,11,0,0,0,4-6.33l.44-2s-6,6.82-10,6.12l1.91-4.55s-1.82-.45-3.06,1.86c-.49.9-1.79,3.58-2.58,5.22a5.23,5.23,0,0,1-1.88,2.13L243.23,78.57Z"/><path id="Path_2756" data-name="Path 2756" d="M239.56,93.92h-.32a6.18,6.18,0,0,1-4.36-2.1L221.88,77a.6.6,0,0,1-.14-.51c1.47-8.45,10.88-10.58,11-10.6a.61.61,0,0,1,.6.2l10,11.67L264.76,64a4.64,4.64,0,0,0,1.66-1.88c.92-1.91,2.12-4.38,2.59-5.25,1.46-2.7,3.66-2.18,3.76-2.16a.61.61,0,0,1,.44.74.16.16,0,0,1,0,.09l-1.56,3.74c3-.28,7.17-4.28,8.65-6a.6.6,0,0,1,.86,0,.62.62,0,0,1,.2.59l-.44,2a11.73,11.73,0,0,1-4.21,6.68l-6.25,4.88L243.79,92.25a6.12,6.12,0,0,1-4.22,1.67M223,76.41,235.81,91a5,5,0,0,0,7,.45.52.52,0,0,0,.11-.1l26.66-24.84a.08.08,0,0,1,0,0l6.27-4.9a10.44,10.44,0,0,0,3.74-5.87c-2.12,2-6,5.29-9.06,4.76a.62.62,0,0,1-.5-.71.74.74,0,0,1,0-.14L271.67,56a2.87,2.87,0,0,0-1.58,1.48c-.48.9-1.81,3.64-2.57,5.2a5.72,5.72,0,0,1-2.1,2.37L243.56,79.08a.6.6,0,0,1-.8-.12L232.63,67.18c-1.61.45-8.31,2.7-9.63,9.23"/><path id="Path_2757" data-name="Path 2757" class="cls-10" d="M148.71,271.77h0c-1.65,0-3.3-.13-4.93-.27a.41.41,0,0,1,.07-.82c1.61.14,3.25.23,4.88.27a.41.41,0,0,1,0,.82m4.91,0a.41.41,0,0,1-.42-.4.42.42,0,0,1,.4-.42c1.61-.05,3.25-.15,4.88-.3a.4.4,0,0,1,.44.35v0a.41.41,0,0,1-.37.45h0c-1.64.15-3.29.25-4.92.3h0m-14.69-.85h-.06c-1.62-.26-3.25-.58-4.85-.95a.41.41,0,0,1-.31-.49.42.42,0,0,1,.5-.31c1.58.37,3.19.68,4.79.94a.4.4,0,0,1,.34.46.39.39,0,0,1-.41.35m24.46,0a.4.4,0,0,1-.4-.41.39.39,0,0,1,.35-.4c1.58-.23,3.21-.5,4.82-.82a.42.42,0,0,1,.51.29.41.41,0,0,1-.29.5h-.06c-1.63.32-3.27.6-4.87.83h-.06M173,269a.41.41,0,0,1-.42-.4.42.42,0,0,1,.32-.41c1.56-.38,3.15-.8,4.73-1.26a.41.41,0,0,1,.22.79h0c-1.59.46-3.19.89-4.76,1.27H173m-43.66-.34a.23.23,0,0,1-.12,0c-1.58-.48-3.15-1-4.67-1.61a.4.4,0,0,1-.23-.53.41.41,0,0,1,.53-.24h0c1.51.59,3.06,1.12,4.61,1.6a.41.41,0,0,1,.27.52.4.4,0,0,1-.39.28m53.1-2.39a.41.41,0,0,1-.42-.39.43.43,0,0,1,.29-.41c1.52-.5,3.08-1.05,4.62-1.63a.4.4,0,0,1,.52.24.4.4,0,0,1-.24.52c-1.54.59-3.11,1.14-4.64,1.65l-.13,0m-62.26-1.15a.33.33,0,0,1-.17,0c-1.49-.7-3-1.47-4.39-2.27a.41.41,0,0,1-.14-.56.41.41,0,0,1,.54-.15c1.4.79,2.86,1.55,4.34,2.24a.41.41,0,0,1-.18.78m71.45-2.3a.4.4,0,0,1-.4-.41.4.4,0,0,1,.25-.38c1.48-.61,3-1.27,4.49-1.95a.41.41,0,0,1,.54.2.41.41,0,0,1-.2.54c-1.51.69-3,1.35-4.52,2l-.15,0m-80-2.53a.39.39,0,0,1-.23-.07c-1.38-.92-2.72-1.9-4-2.91a.4.4,0,0,1-.07-.57.41.41,0,0,1,.58-.07c1.25,1,2.58,2,3.94,2.87a.41.41,0,0,1-.23.75m88.94-1.53a.41.41,0,0,1-.18-.78c1.44-.71,2.91-1.45,4.37-2.22a.41.41,0,0,1,.38.72c-1.47.77-2.94,1.52-4.39,2.24a.48.48,0,0,1-.18,0M104,254.19a.43.43,0,0,1-.28-.11c-1.2-1.14-2.36-2.33-3.45-3.54a.41.41,0,0,1,0-.58.4.4,0,0,1,.57,0c1.07,1.2,2.22,2.38,3.4,3.49a.4.4,0,0,1,0,.58.37.37,0,0,1-.3.13m105.32,0a.41.41,0,0,1-.41-.41.42.42,0,0,1,.21-.36c1.43-.8,2.86-1.63,4.24-2.45a.4.4,0,0,1,.55.17.41.41,0,0,1-.13.53c-1.39.83-2.82,1.66-4.26,2.46a.36.36,0,0,1-.2.06m8.43-5a.41.41,0,0,1-.22-.76c1.39-.88,2.76-1.79,4.09-2.69a.41.41,0,0,1,.46.68h0c-1.33.91-2.72,1.82-4.11,2.7a.34.34,0,0,1-.22.07M97.46,246.86a.4.4,0,0,1-.33-.17c-1-1.33-1.9-2.72-2.73-4.12a.41.41,0,0,1,.09-.57.4.4,0,0,1,.57.1.1.1,0,0,1,0,.05,48.33,48.33,0,0,0,2.69,4.06.41.41,0,0,1-.09.57.43.43,0,0,1-.24.08m128.38-3.25a.41.41,0,0,1-.24-.74c1.33-1,2.64-2,3.91-3a.41.41,0,0,1,.5.65c-1.27,1-2.6,2-3.94,3a.41.41,0,0,1-.24.08M92.45,238.43a.42.42,0,0,1-.37-.23c-.32-.7-.63-1.42-.92-2.13a.41.41,0,0,1,.22-.53.41.41,0,0,1,.54.22c.28.7.59,1.4.9,2.09a.4.4,0,0,1-.19.54.39.39,0,0,1-.18,0m141.11-.87a.4.4,0,0,1-.4-.41.38.38,0,0,1,.14-.31c1.25-1.05,2.49-2.14,3.68-3.22a.4.4,0,0,1,.58,0,.39.39,0,0,1,0,.57l0,0c-1.2,1.09-2.44,2.19-3.7,3.24a.39.39,0,0,1-.27.1m7.27-6.61a.41.41,0,0,1-.41-.41.4.4,0,0,1,.12-.29c1.16-1.15,2.31-2.33,3.41-3.51a.41.41,0,1,1,.6.56c-1.1,1.19-2.26,2.38-3.44,3.54a.41.41,0,0,1-.28.11m6.68-7.19a.41.41,0,0,1-.41-.41.42.42,0,0,1,.1-.26c.82-1,1.63-2,2.41-2.93l.67-.87a.41.41,0,0,1,.57-.09.4.4,0,0,1,.09.57v0l-.68.87c-.79,1-1.6,2-2.43,3a.4.4,0,0,1-.31.14m6-7.77a.41.41,0,0,1-.41-.41.38.38,0,0,1,.08-.23c.92-1.34,1.83-2.71,2.69-4.09a.41.41,0,0,1,.69.43h0c-.86,1.39-1.78,2.78-2.71,4.12a.42.42,0,0,1-.34.18m5.19-8.34a.41.41,0,0,1-.41-.41.46.46,0,0,1,0-.2c.79-1.42,1.55-2.88,2.25-4.34a.41.41,0,0,1,.74.36c-.71,1.47-1.48,2.94-2.27,4.38a.41.41,0,0,1-.36.21m4.28-8.83a.42.42,0,0,1-.41-.42.4.4,0,0,1,0-.15c.63-1.51,1.22-3,1.76-4.56a.39.39,0,0,1,.52-.25.41.41,0,0,1,.25.52h0c-.54,1.53-1.14,3.08-1.78,4.6a.4.4,0,0,1-.37.25m3.26-9.26h-.12a.42.42,0,0,1-.28-.51c.45-1.57.86-3.16,1.2-4.74a.41.41,0,0,1,.8.18c-.35,1.59-.76,3.2-1.21,4.78a.41.41,0,0,1-.39.3m2.11-9.58h-.07a.42.42,0,0,1-.34-.47c.25-1.61.44-3.24.58-4.85a.41.41,0,0,1,.82.07c-.14,1.63-.34,3.28-.59,4.9a.41.41,0,0,1-.4.35m.83-9.78h0a.4.4,0,0,1-.4-.41v-.4c-1.11.14-2.23.26-3.33.35a.4.4,0,0,1-.44-.36v0a.4.4,0,0,1,.37-.44h0c1.13-.09,2.27-.21,3.41-.36,0-1.23-.05-2.46-.12-3.66a.41.41,0,0,1,.82,0c.07,1.18.11,2.39.11,3.6l.63-.09a.41.41,0,0,1,.47.34.42.42,0,0,1-.35.47l-.75.11v.52a.42.42,0,0,1-.41.4m-9.1-.25c-1.51,0-3-.06-4.52-.16a.41.41,0,0,1-.38-.44.42.42,0,0,1,.44-.38c1.47.1,3,.16,4.46.16h.42a.41.41,0,0,1,.41.41.42.42,0,0,1-.41.41Zm-9.37-.69h-.06c-1.63-.25-3.27-.56-4.86-.93a.4.4,0,0,1-.3-.49.41.41,0,0,1,.49-.31c1.57.37,3.18.67,4.79.91a.42.42,0,0,1,.35.47.42.42,0,0,1-.41.35m24.4-1a.41.41,0,0,1-.41-.41.4.4,0,0,1,.32-.4c1.58-.35,3.17-.77,4.73-1.23a.42.42,0,0,1,.51.28.41.41,0,0,1-.28.51c-1.58.46-3.19.88-4.78,1.24h-.09m-34-1.24-.13,0-1.16-.39c-1.2-.41-2.36-.87-3.47-1.35a.4.4,0,0,1-.22-.53.41.41,0,0,1,.54-.22c1.09.47,2.25.92,3.42,1.33l1.14.38a.41.41,0,0,1,.27.52.42.42,0,0,1-.39.28m43.36-1.54a.42.42,0,0,1-.41-.41.41.41,0,0,1,.27-.38c1.52-.56,3-1.18,4.53-1.84a.41.41,0,1,1,.33.74c-1.5.67-3,1.3-4.57,1.86a.4.4,0,0,1-.15,0m-52.36-2.37a.35.35,0,0,1-.2,0,35.69,35.69,0,0,1-4.13-2.75.41.41,0,0,1-.06-.58.42.42,0,0,1,.56-.07,34.16,34.16,0,0,0,4,2.69.42.42,0,0,1,.15.56.43.43,0,0,1-.35.21m61.33-1.63a.41.41,0,0,1-.41-.41.4.4,0,0,1,.22-.37c1.43-.75,2.86-1.56,4.24-2.41a.4.4,0,0,1,.56.14.41.41,0,0,1-.13.56c-1.4.86-2.84,1.68-4.29,2.44a.45.45,0,0,1-.19,0m-24.91-1.09a.39.39,0,0,1-.4-.35c-.24-1.63-.54-3.24-.9-4.79a.4.4,0,0,1,.3-.49.42.42,0,0,1,.5.31c.37,1.57.68,3.2.91,4.86a.4.4,0,0,1-.34.46h-.06m-44.12-3.32a.41.41,0,0,1-.3-.14,24.86,24.86,0,0,1-2.77-3.67c-.07-.11-.14-.22-.2-.33a.41.41,0,1,1,.7-.41l.19.32a23.75,23.75,0,0,0,2.69,3.54.41.41,0,0,1,0,.58.39.39,0,0,1-.27.11m77.4-.72a.42.42,0,0,1-.24-.75c1.33-.94,2.64-1.93,3.89-2.95a.41.41,0,0,1,.51.64c-1.26,1-2.58,2-3.93,3a.4.4,0,0,1-.23.08m-35.56-5.5a.41.41,0,0,1-.39-.27,42.09,42.09,0,0,0-1.85-4.5.42.42,0,0,1,.19-.55.41.41,0,0,1,.55.19h0a45.58,45.58,0,0,1,1.88,4.59.41.41,0,0,1-.25.52h0l-.13,0m43.17-.7a.41.41,0,0,1-.41-.41.39.39,0,0,1,.13-.3c1.18-1.1,2.34-2.26,3.46-3.44a.41.41,0,1,1,.6.56h0c-1.13,1.2-2.31,2.37-3.5,3.48a.39.39,0,0,1-.28.11m-89.88-1.51a.41.41,0,0,1-.39-.29,20.61,20.61,0,0,1-.84-4.93.4.4,0,0,1,.39-.42.4.4,0,0,1,.42.39,20.55,20.55,0,0,0,.81,4.73.41.41,0,0,1-.27.51h-.12M316.26,143a.41.41,0,0,1-.41-.41.39.39,0,0,1,.09-.26c1-1.24,2.05-2.53,3-3.84a.42.42,0,0,1,.58-.09.41.41,0,0,1,.08.58c-1,1.32-2,2.62-3.05,3.87a.39.39,0,0,1-.31.15m-54.16-1a.42.42,0,0,1-.35-.19q-.13-.22-.3-.45a34.75,34.75,0,0,0-2.59-3.44.41.41,0,1,1,.62-.54h0a35,35,0,0,1,2.65,3.53,4.53,4.53,0,0,1,.3.46.41.41,0,0,1-.12.57.43.43,0,0,1-.22.06m-42.89-3.09h-.09a.41.41,0,0,1-.31-.49h0a15.8,15.8,0,0,1,1.84-4.67.41.41,0,0,1,.55-.18.42.42,0,0,1,.18.56l0,0a15,15,0,0,0-1.74,4.43.41.41,0,0,1-.4.32m102.89-3.8a.42.42,0,0,1-.35-.63c.89-1.35,1.75-2.75,2.57-4.17a.41.41,0,1,1,.7.41c-.82,1.43-1.69,2.84-2.58,4.2a.4.4,0,0,1-.34.19m-66.37-.55a.38.38,0,0,1-.27-.1,33.57,33.57,0,0,0-3.86-2.94.41.41,0,0,1,.45-.69,34.09,34.09,0,0,1,4,3,.4.4,0,0,1,0,.57.41.41,0,0,1-.31.14m-31.53-3.89a.4.4,0,0,1-.41-.4.42.42,0,0,1,.15-.32,16.66,16.66,0,0,1,4.33-2.53.42.42,0,0,1,.54.23.41.41,0,0,1-.23.53,15.87,15.87,0,0,0-4.12,2.4.41.41,0,0,1-.26.09m23.33-1.45a.47.47,0,0,1-.17,0,28.42,28.42,0,0,0-4.56-1.62.4.4,0,0,1-.29-.49.41.41,0,0,1,.49-.3,29.68,29.68,0,0,1,4.69,1.66.41.41,0,0,1,.21.54.38.38,0,0,1-.37.24M233.14,127a.41.41,0,0,1-.06-.82,23.86,23.86,0,0,1,3.27-.23h0c.36,0,.72,0,1.07,0l.64,0a.41.41,0,0,1,.38.44.4.4,0,0,1-.43.38l-.63,0c-.34,0-.68,0-1,0h0a22.28,22.28,0,0,0-3.16.22h-.05m93.84-.35a.41.41,0,0,1-.41-.41.41.41,0,0,1,.05-.18c.73-1.44,1.44-2.93,2.1-4.42a.41.41,0,0,1,.75.32h0c-.67,1.5-1.38,3-2.12,4.46a.4.4,0,0,1-.37.22m4-9a.41.41,0,0,1-.38-.56h0c.58-1.51,1.13-3.06,1.64-4.61a.41.41,0,1,1,.77.26c-.51,1.56-1.07,3.12-1.65,4.64a.41.41,0,0,1-.38.27m3.06-9.33-.11,0a.41.41,0,0,1-.28-.5c.43-1.56.83-3.15,1.18-4.74a.41.41,0,1,1,.8.18h0c-.36,1.6-.76,3.21-1.19,4.78a.41.41,0,0,1-.4.3m2.16-9.58h-.07a.41.41,0,0,1-.34-.47c.29-1.6.53-3.23.74-4.84a.41.41,0,0,1,.48-.32.41.41,0,0,1,.33.42c-.21,1.63-.46,3.27-.74,4.88a.43.43,0,0,1-.4.34M337.44,89h0a.41.41,0,0,1-.37-.45h0c.13-1.61.23-3.25.28-4.88a.41.41,0,0,1,.43-.39.4.4,0,0,1,.39.42h0c-.06,1.64-.15,3.29-.28,4.92a.42.42,0,0,1-.41.38m.34-9.82a.4.4,0,0,1-.41-.4c0-1.65-.09-3.3-.2-4.88a.41.41,0,0,1,.38-.44.41.41,0,0,1,.43.38c.12,1.6.18,3.26.2,4.93a.41.41,0,0,1-.4.42Zm-.7-9.79a.41.41,0,0,1-.41-.35c-.22-1.64-.5-3.26-.83-4.81a.4.4,0,0,1,.32-.48.42.42,0,0,1,.48.31c.33,1.57.61,3.21.84,4.87a.41.41,0,0,1-.35.46h-.06M335,59.81a.43.43,0,0,1-.4-.29c-.47-1.58-1-3.12-1.62-4.6a.4.4,0,0,1,.22-.53.41.41,0,0,1,.54.22c.61,1.5,1.17,3.07,1.65,4.67a.42.42,0,0,1-.28.51l-.11,0m-3.73-9.07a.42.42,0,0,1-.36-.22,41.8,41.8,0,0,0-2.55-4.14.41.41,0,0,1,.1-.57.41.41,0,0,1,.57.1,46.85,46.85,0,0,1,2.6,4.22.41.41,0,0,1-.17.55.34.34,0,0,1-.19,0m-51.48-6.62a.41.41,0,0,1-.41-.41.41.41,0,0,1,.05-.18,20.85,20.85,0,0,1,2.74-4.17.4.4,0,0,1,.58-.05.42.42,0,0,1,.05.58,19.86,19.86,0,0,0-2.64,4,.4.4,0,0,1-.37.22m45.85-1.41a.43.43,0,0,1-.3-.13,39.77,39.77,0,0,0-3.45-3.42.4.4,0,0,1,.53-.61A38.65,38.65,0,0,1,326,42a.41.41,0,0,1,0,.58.43.43,0,0,1-.27.1m-39.62-6a.41.41,0,0,1-.41-.41.39.39,0,0,1,.16-.32A24.32,24.32,0,0,1,290,33.31a.41.41,0,1,1,.36.73h0a24.36,24.36,0,0,0-4.1,2.54.44.44,0,0,1-.25.08m32.2-.35a.41.41,0,0,1-.22-.07,32.44,32.44,0,0,0-4.24-2.35.39.39,0,0,1-.2-.54.41.41,0,0,1,.54-.2h0a32.94,32.94,0,0,1,4.35,2.41.4.4,0,0,1,.12.56.42.42,0,0,1-.35.19m-23.45-4a.4.4,0,0,1-.4-.42.41.41,0,0,1,.29-.38,28.1,28.1,0,0,1,4.89-.92.41.41,0,1,1,.08.81h0a27.27,27.27,0,0,0-4.75.9l-.11,0m14.55-.08-.11,0c-.55-.15-1.12-.29-1.68-.4a22.72,22.72,0,0,0-3.07-.45.41.41,0,0,1-.37-.44h0a.4.4,0,0,1,.42-.38h0a26,26,0,0,1,3.17.46c.58.13,1.16.27,1.73.42a.41.41,0,0,1,.27.51.4.4,0,0,1-.38.29"/><path id="Path_2758" data-name="Path 2758" class="cls-10" d="M22,145.66a.39.39,0,0,1-.15,0l-3.87-1a.63.63,0,0,1-.46-.61l.14-4a16.62,16.62,0,0,1-1.79-1l-3.34,2.14a.62.62,0,0,1-.76-.08L9,138.28a.61.61,0,0,1-.09-.76L11,134.16a16.7,16.7,0,0,1-1-1.79L6,132.55a.61.61,0,0,1-.62-.45l-1.06-3.85a.62.62,0,0,1,.3-.7l3.5-1.87a17.87,17.87,0,0,1,0-2.07l-3.51-1.82a.62.62,0,0,1-.31-.7l1-3.86a.61.61,0,0,1,.62-.46l4,.14a15,15,0,0,1,1-1.79l-2.13-3.34a.61.61,0,0,1,.08-.76l2.81-2.84a.62.62,0,0,1,.76-.09l3.35,2.1a18.91,18.91,0,0,1,1.79-1l-.18-4a.63.63,0,0,1,.45-.62l3.86-1a.61.61,0,0,1,.7.3l1.86,3.5a17.87,17.87,0,0,1,2.07,0l1.82-3.51a.62.62,0,0,1,.7-.31l3.86,1a.61.61,0,0,1,.46.62l-.14,4a15,15,0,0,1,1.79,1L38.11,108a.59.59,0,0,1,.76.08l2.84,2.81a.61.61,0,0,1,.09.76L39.71,115a17.73,17.73,0,0,1,1,1.79l4-.18a.62.62,0,0,1,.62.45l1.06,3.85a.61.61,0,0,1-.3.7l-3.5,1.87a17.68,17.68,0,0,1,0,2.06l3.51,1.82a.63.63,0,0,1,.31.7l-1,3.86a.61.61,0,0,1-.61.46l-4-.13a18.81,18.81,0,0,1-1,1.79L42,137.34a.62.62,0,0,1-.08.76l-2.81,2.84a.62.62,0,0,1-.76.09l-3.36-2.1a15.17,15.17,0,0,1-1.79,1l.18,4a.6.6,0,0,1-.45.62l-3.85,1a.61.61,0,0,1-.7-.29l-1.86-3.5a17.87,17.87,0,0,1-2.07,0l-1.82,3.51a.59.59,0,0,1-.54.33m-3.24-2.1,2.92.77,1.78-3.43a.6.6,0,0,1,.59-.33,17.13,17.13,0,0,0,2.68,0,.61.61,0,0,1,.6.32l1.82,3.42,2.9-.8-.18-3.87a.61.61,0,0,1,.35-.58,17.31,17.31,0,0,0,2.32-1.35.6.6,0,0,1,.67,0l3.28,2.05,2.12-2.14-2.09-3.26a.64.64,0,0,1,0-.68,16.28,16.28,0,0,0,1.33-2.33.58.58,0,0,1,.58-.35l3.87.13.76-2.91-3.43-1.78a.62.62,0,0,1-.33-.6,15.87,15.87,0,0,0,0-2.67.62.62,0,0,1,.32-.6l3.42-1.82-.8-2.91L40.4,118a.63.63,0,0,1-.58-.35,14.92,14.92,0,0,0-1.35-2.32.62.62,0,0,1,0-.68l2-3.28-2.14-2.11-3.26,2.08a.6.6,0,0,1-.68,0A16.12,16.12,0,0,0,32.1,110a.61.61,0,0,1-.36-.58l.13-3.87L29,104.78l-1.77,3.44a.61.61,0,0,1-.59.33,15,15,0,0,0-2.68,0,.61.61,0,0,1-.6-.33l-1.82-3.41-2.91.8.18,3.86a.61.61,0,0,1-.35.58,17.31,17.31,0,0,0-2.32,1.35.62.62,0,0,1-.68,0l-3.28-2L10,111.53l2.08,3.27a.59.59,0,0,1,0,.67,16.22,16.22,0,0,0-1.32,2.33.62.62,0,0,1-.56.36h0L6.33,118l-.77,2.92L9,122.72a.63.63,0,0,1,.33.59,15,15,0,0,0,0,2.68.63.63,0,0,1-.33.6l-3.41,1.82.8,2.9,3.86-.17a.59.59,0,0,1,.58.34,16.71,16.71,0,0,0,1.35,2.32.62.62,0,0,1,0,.68l-2.05,3.28,2.15,2.12,3.26-2.09a.62.62,0,0,1,.68,0,15.65,15.65,0,0,0,2.32,1.33.63.63,0,0,1,.36.57Zm6.53-8.11a10.92,10.92,0,1,1,2.89-.39,10.93,10.93,0,0,1-2.89.39m0-20.56A9.67,9.67,0,1,0,35,124.55a10,10,0,0,0-.34-2.55,9.66,9.66,0,0,0-9.33-7.11"/><path id="Path_2759" data-name="Path 2759" class="cls-10" d="M44.42,168.08l-.16,0-2.37-.62a.62.62,0,0,1-.46-.62l.08-2.28c-.29-.15-.58-.31-.86-.49l-1.92,1.23a.62.62,0,0,1-.76-.08l-1.74-1.72a.62.62,0,0,1-.09-.77l1.2-1.93a9,9,0,0,1-.5-.85l-2.28.1a.63.63,0,0,1-.62-.45l-.64-2.37a.61.61,0,0,1,.3-.7l2-1.07c0-.33,0-.66,0-1l-2-1a.62.62,0,0,1-.31-.7l.62-2.37a.6.6,0,0,1,.61-.46l2.28.08c.15-.3.32-.58.49-.86l-1.22-1.92a.63.63,0,0,1,.08-.77l1.73-1.73a.59.59,0,0,1,.76-.09l1.93,1.2a8,8,0,0,1,.86-.5l-.1-2.28a.61.61,0,0,1,.45-.62l2.36-.64a.6.6,0,0,1,.7.3l1.07,2c.33,0,.66,0,1,0l1-2a.6.6,0,0,1,.7-.31l2.37.62a.61.61,0,0,1,.45.61l-.07,2.28a8.92,8.92,0,0,1,.85.49l1.92-1.23a.63.63,0,0,1,.77.08l1.74,1.73a.62.62,0,0,1,.09.76L55.55,149c.18.27.34.56.5.85l2.27-.1a.62.62,0,0,1,.62.45l.65,2.37a.62.62,0,0,1-.3.7l-2,1.07c0,.33,0,.66,0,1l2,1.05a.62.62,0,0,1,.31.7L59,159.44a.62.62,0,0,1-.62.45l-2.28-.07c-.15.29-.31.58-.49.86l1.23,1.92a.61.61,0,0,1-.08.76L55,165.1a.62.62,0,0,1-.76.09L52.35,164c-.28.18-.56.34-.86.5l.1,2.27a.61.61,0,0,1-.45.62l-2.36.65a.6.6,0,0,1-.7-.3l-1.08-2a8.17,8.17,0,0,1-1,0l-1,2a.62.62,0,0,1-.55.34m-1.74-1.7,1.43.37,1-1.94a.6.6,0,0,1,.6-.33,9.51,9.51,0,0,0,1.6,0,.63.63,0,0,1,.6.33l1,1.93,1.42-.39-.1-2.19a.63.63,0,0,1,.35-.58,10.65,10.65,0,0,0,1.39-.8.59.59,0,0,1,.67,0l1.86,1.15,1-1L54.36,161a.62.62,0,0,1,0-.68,9.62,9.62,0,0,0,.8-1.39.6.6,0,0,1,.57-.36l2.19.08.37-1.42-1.94-1a.66.66,0,0,1-.33-.6,8.56,8.56,0,0,0,0-1.6.63.63,0,0,1,.33-.6l1.92-1L57.89,151l-2.19.1a.63.63,0,0,1-.58-.35,9.68,9.68,0,0,0-.81-1.39.6.6,0,0,1,0-.68l1.15-1.85-1-1L52.57,147a.62.62,0,0,1-.68,0,9.62,9.62,0,0,0-1.39-.8.6.6,0,0,1-.36-.58l.08-2.18L48.8,143l-1,1.93a.59.59,0,0,1-.6.33,9.51,9.51,0,0,0-1.6,0A.63.63,0,0,1,45,145l-1-1.93-1.42.39.1,2.19a.63.63,0,0,1-.35.58,10.65,10.65,0,0,0-1.39.8.6.6,0,0,1-.68,0l-1.85-1.15-1,1,1.18,1.84a.62.62,0,0,1,0,.68,10.65,10.65,0,0,0-.8,1.39.6.6,0,0,1-.57.36L35,151.12l-.37,1.42,1.94,1a.63.63,0,0,1,.32.6,9.5,9.5,0,0,0,0,1.6.63.63,0,0,1-.33.6l-1.93,1,.39,1.41,2.19-.1a.63.63,0,0,1,.58.35,10,10,0,0,0,.8,1.39.6.6,0,0,1,0,.68L37.45,163l1,1,1.84-1.18a.62.62,0,0,1,.68,0,9.62,9.62,0,0,0,1.39.8.6.6,0,0,1,.36.57Zm3.78-4.56a6.95,6.95,0,1,1,1.82-.25,7,7,0,0,1-1.82.25m0-12.62a5.7,5.7,0,1,0,5.69,5.69,5.83,5.83,0,0,0-.2-1.5,5.67,5.67,0,0,0-5.49-4.19"/></g></g></g></g></g></g></g></g></svg>