<svg xmlns="http://www.w3.org/2000/svg" xmlns:xlink="http://www.w3.org/1999/xlink" viewBox="0 0 361.23 336"><defs><style>.cls-1{fill:none;}.cls-2{clip-path:url(#clip-path);}.cls-3{opacity:0.6;}.cls-4{fill:#9ad8f3;}.cls-5{clip-path:url(#clip-path-4);}.cls-6{fill:#fff;}.cls-7{fill:#1a8bcb;}.cls-8{fill:#5bbbe6;}.cls-9{fill:#701e5e;}.cls-10{fill:#5b72b7;}</style><clipPath id="clip-path"><rect class="cls-1" width="361.23" height="336"/></clipPath><clipPath id="clip-path-4"><rect class="cls-1" x="18.83" y="21.1" width="319.4" height="305.77"/></clipPath></defs><g id="Layer_2" data-name="Layer 2"><g id="Layer_1-2" data-name="Layer 1"><g id="Group_366" data-name="Group 366"><g id="Group_238" data-name="Group 238"><g class="cls-2"><g id="Group_237" data-name="Group 237"><g id="Group_236" data-name="Group 236"><g class="cls-2"><g id="Group_235" data-name="Group 235"><g id="Group_234" data-name="Group 234" class="cls-3"><g id="Group_233" data-name="Group 233"><g class="cls-2"><g id="Group_232" data-name="Group 232"><path id="Path_2760" data-name="Path 2760" class="cls-4" d="M112,14.87C103.58,18.55,39.59,48,12.38,122.43c-26.08,71.36-10.2,168.3,40.39,197.65,41.47,24.06,70.07-18.33,162.83-1.35,48.2,8.82,63.93,24.54,89.24,13.45,44.32-19.43,52.41-92.16,54.46-110.65,2.37-21.28,12.46-112-55.15-174.91C250.43-3.37,173.42-11.82,112,14.87"/></g></g></g></g></g></g></g></g></g></g><g id="Group_185" data-name="Group 185"><g id="Group_184" data-name="Group 184"><g class="cls-5"><g id="Group_184-2" data-name="Group 184-2"><path id="Path_2054" data-name="Path 2054" class="cls-6" d="M283.79,54.06H48.53a9.38,9.38,0,0,0-9.4,9.38v161a9.39,9.39,0,0,0,9.4,9.39H283.79a9.41,9.41,0,0,0,9.4-9.39v-161a9.4,9.4,0,0,0-9.4-9.38"/><path id="Path_2055" data-name="Path 2055" d="M283.79,234.38H48.53a10,10,0,0,1-10-10v-161a10,10,0,0,1,10-10H283.79a10,10,0,0,1,10,10v161a10,10,0,0,1-10,10M48.53,54.64a8.82,8.82,0,0,0-8.82,8.8v161a8.82,8.82,0,0,0,8.82,8.81H283.79a8.83,8.83,0,0,0,8.82-8.81v-161a8.83,8.83,0,0,0-8.82-8.81Z"/><rect id="Rectangle_363" data-name="Rectangle 363" class="cls-7" x="52.29" y="67.51" width="227.73" height="11.26"/><rect id="Rectangle_364" data-name="Rectangle 364" class="cls-7" x="52.29" y="87" width="227.73" height="74.93"/><path id="Path_2056" data-name="Path 2056" class="cls-6" d="M272.12,75.85a2.71,2.71,0,1,0-2.72-2.71,2.72,2.72,0,0,0,2.72,2.71h0"/><rect id="Rectangle_365" data-name="Rectangle 365" class="cls-7" x="52.29" y="167.08" width="71.55" height="46.71"/><rect id="Rectangle_366" data-name="Rectangle 366" class="cls-7" x="130.38" y="167.08" width="71.55" height="46.71"/><rect id="Rectangle_367" data-name="Rectangle 367" class="cls-7" x="208.47" y="167.08" width="71.55" height="46.71"/><path id="Path_2057" data-name="Path 2057" class="cls-6" d="M247.69,205a15.49,15.49,0,1,0-.05,0h.05"/><path id="Path_2058" data-name="Path 2058" class="cls-6" d="M93.79,204.23a16.11,16.11,0,1,0-.06,0l.06,0"/><path id="Path_2059" data-name="Path 2059" class="cls-6" d="M329.81,21.68H192.63a10.83,10.83,0,0,0-10.38,9L167.36,132.18a7.63,7.63,0,0,0,7.73,9H312.28a10.84,10.84,0,0,0,10.38-9L337.54,30.72a7.62,7.62,0,0,0-7.72-9"/><path id="Path_2060" data-name="Path 2060" d="M312.28,141.79H175.09a8.35,8.35,0,0,1-6.42-2.81,8.48,8.48,0,0,1-1.88-6.89L181.68,30.63a11.44,11.44,0,0,1,10.95-9.53H329.81a8.36,8.36,0,0,1,6.43,2.82,8.45,8.45,0,0,1,1.88,6.88L323.23,132.26a11.46,11.46,0,0,1-11,9.53M192.63,22.26a10.25,10.25,0,0,0-9.8,8.54L167.94,132.26a7.31,7.31,0,0,0,1.61,6,7.18,7.18,0,0,0,5.54,2.41H312.28a10.26,10.26,0,0,0,9.8-8.54L337,30.63a7.32,7.32,0,0,0-1.61-6,7.2,7.2,0,0,0-5.55-2.41Z"/><path id="Path_2061" data-name="Path 2061" d="M329.5,37.09H188.6a.58.58,0,1,1,0-1.16H329.5a.58.58,0,0,1,0,1.16"/><path id="Path_2062" data-name="Path 2062" class="cls-8" d="M198.68,28.63A2.78,2.78,0,0,1,196,31a2,2,0,0,1-2-1.9,2,2,0,0,1,0-.42,2.77,2.77,0,0,1,2.66-2.31,2,2,0,0,1,2,1.89,2,2,0,0,1,0,.42"/><path id="Path_2063" data-name="Path 2063" class="cls-8" d="M208,28.63A2.79,2.79,0,0,1,205.31,31a2,2,0,0,1-2-1.9,2,2,0,0,1,0-.42A2.76,2.76,0,0,1,206,26.32a1.94,1.94,0,0,1,2,1.88,2,2,0,0,1,0,.43"/><path id="Path_2064" data-name="Path 2064" class="cls-8" d="M217.25,28.63A2.79,2.79,0,0,1,214.59,31a2,2,0,0,1-2-1.9,2,2,0,0,1,0-.42,2.76,2.76,0,0,1,2.66-2.31,1.94,1.94,0,0,1,2,1.89,2,2,0,0,1,0,.42"/><path id="Path_2065" data-name="Path 2065" d="M330.77,29.21H317.69a.58.58,0,0,1,0-1.16h13.08a.58.58,0,0,1,.58.58h0a.58.58,0,0,1-.58.58"/><path id="Path_2066" data-name="Path 2066" d="M311.81,29.21H248.58a.58.58,0,0,1,0-1.16h63.23a.58.58,0,1,1,0,1.16"/><path id="Path_2067" data-name="Path 2067" d="M234.35,29.21H222.82a.58.58,0,0,1,0-1.16h11.53a.58.58,0,0,1,.58.58h0a.58.58,0,0,1-.58.58"/><path id="Path_2068" data-name="Path 2068" class="cls-7" d="M310.45,124.19H180.08l11.57-78.85H322Z"/><path id="Path_2069" data-name="Path 2069" d="M85.69,131.87c-3.19,10.43-16.45,20.8-28.43,18.27-1.95-.41-7.19-1.86-12.19-8.14-8.26,4.29-18,2.15-22.7-4-5.76-7.56-3.5-20.46,6.67-26.32-7.49-.69-9.24-3.44-9.73-4.5-2.88-6.27,7.87-19.48,16.53-18.77,3.2.26,7.06,4.14,14.66,11.89,7.86,8,8.07,9.45,10.66,9.92,7.59,1.39,11.12-10.09,21.43-10.52,7.06-.3,14.38,4.7,14.53,8.85.14,3.57-5.09,4.38-8.7,11.17-2.68,5.06-1.26,7.39-2.73,12.18"/><path id="Path_2070" data-name="Path 2070" d="M81.24,95.42c.38,1.67-.59,6.21-3.1,6.78s-5.64-3.06-6-4.73S73.48,94,76,93.41s4.87.33,5.24,2"/><path id="Path_2071" data-name="Path 2071" class="cls-9" d="M60.2,202.94s-20-21.17,3.6-46.1c0,0-2.83,19-2.83,23s-4.73,22.79,8.54,24.41,53.53,6.51,51.58-11.63a244.48,244.48,0,0,0-5.57-32s16.75,2.3,31.18-6.66,20.45-29.7,20.45-29.7l-3.72-3.72s-10,14.75-23.74,16.09-57.86-8.87-73.17-5.58S29,166.34,33.25,181.88s23.37,24.25,23.37,24.25Z"/><path id="Path_2072" data-name="Path 2072" d="M56.62,206.71a.53.53,0,0,1-.24-.06c-.79-.36-19.42-9-23.69-24.62-1.82-6.68.92-16.72,7.52-27.55,6.4-10.51,17-22,26.19-24,8.73-1.88,26.11.51,42.93,2.81,12.53,1.72,24.36,3.34,30.31,2.76,13.35-1.3,23.22-15.69,23.32-15.84a.49.49,0,0,1,.18-.17.53.53,0,0,1,.24-.08.57.57,0,0,1,.47.17l3.71,3.71a.58.58,0,0,1,.15.57c-.06.21-6.25,21-20.7,30-12.6,7.83-27.12,7.14-30.72,6.83a251.33,251.33,0,0,1,5.38,31.31,9.48,9.48,0,0,1-2.77,8.15c-9.17,9-38.43,5.46-49.44,4.12-11.77-1.43-10.12-15.45-9.32-22.19.14-1.23.25-2.2.25-2.79,0-3.3,1.86-16.36,2.57-21.28-8.67,9.76-11.78,20-9.26,30.44a33,33,0,0,0,6.92,13.49.63.63,0,0,1,.13.2.91.91,0,0,1,0,.23.63.63,0,0,1-.19.41L57,206.56a.54.54,0,0,1-.38.15m7.18-50.45a.57.57,0,0,1,.55.42.52.52,0,0,1,0,.25c0,.19-2.83,19-2.83,23a29.22,29.22,0,0,1-.26,2.93c-.75,6.37-2.31,19.62,8.3,20.91,10.87,1.32,39.73,4.83,48.5-3.8a8.26,8.26,0,0,0,2.43-7.2,245.5,245.5,0,0,0-5.55-32,.66.66,0,0,1,0-.28.57.57,0,0,1,.64-.43c.17,0,16.72,2.17,30.79-6.58,13.1-8.14,19.27-26.39,20.1-29l-3-3c-2,2.79-11.27,14.55-23.77,15.77-6.07.59-18-1-30.58-2.76-15.93-2.19-34-4.67-42.52-2.83-7.68,1.65-17.91,11.08-25.44,23.45-6.34,10.41-9.1,20.37-7.39,26.65,3.81,14,20.14,22.45,22.71,23.71l2.86-2.54a33.9,33.9,0,0,1-6.8-13.52c-1.9-7.82-1.58-19.87,10.8-32.94a.5.5,0,0,1,.19-.13.46.46,0,0,1,.23-.05Z"/><path id="Path_2073" data-name="Path 2073" class="cls-7" d="M160.05,119a1.7,1.7,0,0,1,.57-2.16l26.95-11.71,1.87,4.59L162,120.18a1.69,1.69,0,0,1-1.91-1.15"/><path id="Path_2074" data-name="Path 2074" d="M161.62,120.8a2.35,2.35,0,0,1-2.1-1.56,2.23,2.23,0,0,1,.83-2.88l0,0,27-11.71a.59.59,0,0,1,.22,0,.85.85,0,0,1,.23,0,.64.64,0,0,1,.19.13.59.59,0,0,1,.13.19l1.87,4.59a.57.57,0,0,1-.32.75h0l-27.48,10.42,0,0a1.79,1.79,0,0,1-.51.07m-.74-3.41a1.31,1.31,0,0,0,0,1.85,1.3,1.3,0,0,0,.91.38l26.9-10.2-1.43-3.49Z"/><path id="Path_2075" data-name="Path 2075" class="cls-8" d="M200.9,103.58l-.82-2-4.63,1a37.44,37.44,0,0,0-6.47,2l-1.44.58,1.94,4.74,1.43-.58a37.58,37.58,0,0,0,6-3.11Z"/><path id="Path_2076" data-name="Path 2076" d="M189.48,110.4a.58.58,0,0,1-.54-.36L187,105.3a.58.58,0,0,1,.32-.75l1.44-.59a38.71,38.71,0,0,1,6.58-2L200,101a.58.58,0,0,1,.65.35l.82,2a.59.59,0,0,1-.23.7l-4,2.54a36.72,36.72,0,0,1-6.1,3.16l-1.43.59a.57.57,0,0,1-.22,0m-1.18-5,1.5,3.67.9-.36a36.4,36.4,0,0,0,5.91-3.07l3.57-2.29-.45-1.11-4.16.86A36.3,36.3,0,0,0,189.2,105Z"/><path id="Path_2077" data-name="Path 2077" class="cls-6" d="M211.52,104.59c-5.28,2.14-10.57,1.39-11.83-1.68s2-7.31,7.28-9.46,11.82,1.69,11.82,1.69-2,7.3-7.27,9.45"/><path id="Path_2078" data-name="Path 2078" d="M205.66,106.39a13.06,13.06,0,0,1-1.65-.11c-2.44-.35-4.17-1.47-4.86-3.16s-.23-3.69,1.27-5.64a15.23,15.23,0,0,1,6.33-4.56c5.48-2.23,12.06,1.55,12.34,1.72a.58.58,0,0,1,.26.65c-.08.31-2.14,7.61-7.61,9.83a16.3,16.3,0,0,1-6.08,1.27m4.86-13a8.82,8.82,0,0,0-3.33.61,14.08,14.08,0,0,0-5.85,4.19c-1.24,1.62-1.64,3.22-1.11,4.5s1.93,2.16,4,2.45a14.14,14.14,0,0,0,7.12-1.08c4.22-1.72,6.28-7.07,6.8-8.64a17.92,17.92,0,0,0-7.58-2Z"/><path id="Path_2079" data-name="Path 2079" d="M204.08,102.78a.58.58,0,0,1-.58-.58.57.57,0,0,1,.49-.57c6.91-1,8.81-4.15,8.83-4.18a.57.57,0,0,1,.8-.14.58.58,0,0,1,.2.72c-.09.14-2.14,3.6-9.66,4.74h-.09"/><path id="Path_2080" data-name="Path 2080" class="cls-6" d="M163.44,120.56s2.92-6.86,4.85-8.12,9.58-.83,9.58-.83-1.42,2-3.2,2.16-3.36.72-3.35,2.78l9-3.75s-3.15,6.34-7.22,7.45a29.92,29.92,0,0,0-7.05,2.9Z"/><path id="Path_2081" data-name="Path 2081" d="M166,123.73a.58.58,0,0,1-.41-.17L163,121a.59.59,0,0,1-.13-.64c.31-.72,3-7,5.07-8.38s9.12-1,9.93-.92a.58.58,0,0,1,.43.92,7,7,0,0,1-2.33,2l4.08-1.7a.59.59,0,0,1,.76.31.57.57,0,0,1,0,.48c-.13.27-3.32,6.59-7.59,7.75a29.86,29.86,0,0,0-6.9,2.84.61.61,0,0,1-.3.08m-1.9-3.3,2,2a31.84,31.84,0,0,1,6.8-2.74c2.6-.7,4.87-3.82,6-5.7l-7.43,3.1a.58.58,0,0,1-.75-.31.54.54,0,0,1-.05-.22c0-3,2.92-3.26,3.88-3.36a3.76,3.76,0,0,0,2-1.06c-2.54-.07-6.78,0-8,.79-1.38.9-3.57,5.42-4.48,7.5m11.38-6.26a3.62,3.62,0,0,1-.79.18c-1.51.15-2.34.52-2.67,1.27Z"/><path id="Path_2082" data-name="Path 2082" d="M71,193.5l-.13,0c-8.77-2-6.79-13.43-6.77-13.54a.58.58,0,0,1,1.14.21c-.08.42-1.8,10.41,5.89,12.21A.58.58,0,0,1,71,193.5"/><path id="Path_2083" data-name="Path 2083" class="cls-6" d="M88,123.06h2.24a1.67,1.67,0,0,0,1.66-1.64c0-.75,0-1.49-.07-2.22a1.74,1.74,0,0,1,.76-1.58,1,1,0,0,0,.26-1.37L91,112.21c-.56-2.09-1.24-3.88-1.24-3.88-6.68,5.44-7.87,1.11-9.56,2.49s.25,3.91.25,3.91a2,2,0,0,0-2.23,1.67s0,.1,0,.15C77.74,118.71,82,120,82,120L79,131.78c4.11,6.25,13,1.64,13,1.64L90.41,132a6,6,0,0,1-2.18-4.37Z"/><path id="Path_2084" data-name="Path 2084" d="M85.45,135.61a7.81,7.81,0,0,1-6.9-3.51.57.57,0,0,1-.07-.46l2.81-11.24c-1.25-.47-4.12-1.8-3.7-4a2.61,2.61,0,0,1,1.83-2.22c-.59-1.15-.93-2.79.37-3.85a2.17,2.17,0,0,1,2.32-.14c1.29.45,3,1.07,7.24-2.35a.59.59,0,0,1,.76,0,.66.66,0,0,1,.15.22c0,.08.69,1.82,1.24,3.89l1.89,4A1.57,1.57,0,0,1,93,118.1a1.22,1.22,0,0,0-.51,1.07c.06.77.09,1.54.08,2.27a2.25,2.25,0,0,1-2.23,2.2H88.64l.16,4a5.44,5.44,0,0,0,2,4L92.44,133a.56.56,0,0,1,.08.81.65.65,0,0,1-.18.15,17.29,17.29,0,0,1-6.89,1.68m-5.79-3.94c3.17,4.48,9.15,2.52,11.33,1.6l-.95-.78a6.54,6.54,0,0,1-2.39-4.8l-.19-4.61a.58.58,0,0,1,.56-.6h2.26a1.08,1.08,0,0,0,1.07-1.07c0-.7,0-1.42-.07-2.17a2.36,2.36,0,0,1,1-2.1.41.41,0,0,0,.11-.57l0-.07-1.93-4.05a1,1,0,0,1,0-.1c-.32-1.23-.7-2.37-.95-3.08-4.25,3.25-6.33,2.53-7.72,2-.71-.25-.91-.29-1.2,0-1.23,1,.33,3.09.35,3.11a.58.58,0,0,1-.12.81.39.39,0,0,1-.11.06.58.58,0,0,1-.34,0c-.21,0-1.28-.13-1.57,1.36s2.45,2.52,3.42,2.82a.57.57,0,0,1,.39.69Z"/><path id="Path_2085" data-name="Path 2085" class="cls-6" d="M84.59,121.9s.62.9,3.45,1.16Z"/><path id="Path_2086" data-name="Path 2086" d="M88,123.63H88c-3-.27-3.75-1.22-3.87-1.4a.58.58,0,0,1,.94-.68s.68.72,3,.93a.58.58,0,0,1,.52.64.59.59,0,0,1-.57.52"/><path id="Path_2087" data-name="Path 2087" d="M119.77,229.11s-48-1-51.1-2.5c-2.67-1.26-2.35-2.94-2.35-2.94l50.79,2.94Z"/><path id="Path_2088" data-name="Path 2088" d="M119.77,229.69h0c-4.92-.11-48.2-1.08-51.33-2.55s-2.69-3.49-2.67-3.57a.58.58,0,0,1,.21-.35.55.55,0,0,1,.39-.12L117.14,226a.56.56,0,0,1,.37.15l2.66,2.49a.59.59,0,0,1,0,.82.55.55,0,0,1-.43.18ZM67,224.29a3.41,3.41,0,0,0,2,1.8c2.14,1,30.11,2,49.35,2.4l-1.41-1.32Z"/><path id="Path_2089" data-name="Path 2089" class="cls-6" d="M116.34,225.21s6.55,31.34,6.27,33.56S132,301.61,132,301.61l-6.71.06s-14.53-32.16-15-38-13.49-39.08-13.49-39.08Z"/><path id="Path_2090" data-name="Path 2090" d="M125.24,302.25a.57.57,0,0,1-.53-.34c-.6-1.32-14.58-32.32-15-38.17-.42-5.66-13.32-38.58-13.45-38.91a.58.58,0,0,1,.55-.79l19.56.59a.58.58,0,0,1,.55.46c.67,3.22,6.56,31.5,6.28,33.75-.18,1.62,5.48,26.39,9.33,42.64a.57.57,0,0,1,0,.26.58.58,0,0,1-.56.45l-6.72.06Zm-27.6-77c2.06,5.26,12.81,33,13.21,38.43s13.2,34,14.76,37.44l5.61-.06c-1.54-6.52-9.45-40.18-9.18-42.34.19-1.54-3.55-20.36-6.17-32.92Z"/><path id="Path_2091" data-name="Path 2091" class="cls-6" d="M71,221.32s3.35,31.79,4.28,38.8.45,10.12,1.17,14.57c1.2,7.4,7.21,30.87,7.21,30.87l5.1-.59s-.58-76.76.14-80.57-1.78-5-1.78-5Z"/><path id="Path_2092" data-name="Path 2092" d="M83.61,306.14a.59.59,0,0,1-.56-.44c-.06-.23-6-23.58-7.22-30.92a48,48,0,0,1-.51-6.1,83.23,83.23,0,0,0-.67-8.49c-.92-6.93-4.25-38.5-4.28-38.81a.59.59,0,0,1,.51-.64L87,218.87a.65.65,0,0,1,.31,0c.12.06,2.9,1.39,2.11,5.59-.7,3.7-.14,79.69-.13,80.46a.59.59,0,0,1-.51.58l-5.1.59h-.07m-12-84.31C72,226.14,75,253.64,75.8,260a85.2,85.2,0,0,1,.68,8.59,47.74,47.74,0,0,0,.49,6c1.09,6.7,6.21,26.92,7.08,30.33l4.08-.47c0-7.3-.55-76.47.15-80.16.54-2.84-.89-4-1.33-4.26Z"/><path id="Path_2093" data-name="Path 2093" d="M119.32,261.56a6.49,6.49,0,0,1-1.32-.13.58.58,0,1,1,.23-1.13h0a4,4,0,0,0,2.82-.35.59.59,0,0,1,.43-.12.54.54,0,0,1,.21.08.57.57,0,0,1,.29.57.58.58,0,0,1-.08.22.59.59,0,0,1-.15.17,4.1,4.1,0,0,1-2.45.7"/><path id="Path_2094" data-name="Path 2094" d="M81.58,266.25a.57.57,0,0,1-.35-.12.58.58,0,0,1-.11-.81.61.61,0,0,1,.17-.15l2-1.2a.58.58,0,0,1,.79.2.59.59,0,0,1-.2.8h0l-2,1.2a.61.61,0,0,1-.3.08"/><path id="Path_2095" data-name="Path 2095" class="cls-10" d="M91.32,301c-2.37-.23-7.49.58-9.63.95a.84.84,0,0,0-.59.4.86.86,0,0,0-.09.7l2,6.71,8.25-.55.79-7.25a.87.87,0,0,0-.77-1h0"/><path id="Path_2096" data-name="Path 2096" class="cls-6" d="M94.85,308.59c-1.2-1.09-3.26,0-3.26,0l-.88-1.76-8.21,1-.79,3.41s-4.33,3.77-5.17,9.06a1.66,1.66,0,0,0,.87,1.74,1.85,1.85,0,0,0,.66.18c3.45.2,11.39.51,15.69-.42A1.63,1.63,0,0,0,95,320.33c.24-3,.78-10.87-.19-11.75"/><path id="Path_2097" data-name="Path 2097" d="M85.14,323c-2.85,0-5.53-.13-7.1-.21a2.25,2.25,0,0,1-2-1.66,2.29,2.29,0,0,1,0-.94,17.36,17.36,0,0,1,5.21-9.27l.75-3.24a.6.6,0,0,1,.5-.44l8.21-1a.61.61,0,0,1,.35.07.53.53,0,0,1,.24.25l.63,1.27a3.3,3.3,0,0,1,3.37.32c.32.28,1.27,1.15.38,12.21a2.21,2.21,0,0,1-1.73,2,45.77,45.77,0,0,1-8.74.65M83,308.35l-.7,3a.62.62,0,0,1-.18.3s-4.19,3.7-5,8.71a1.1,1.1,0,0,0,.23.87,1.07,1.07,0,0,0,.76.39c3.26.18,11.28.51,15.54-.41a1,1,0,0,0,.81-1c.58-7.07.41-10.75,0-11.28-.87-.78-2.57.08-2.59.09a.59.59,0,0,1-.45,0,.58.58,0,0,1-.34-.29l-.7-1.4Z"/><path id="Path_2098" data-name="Path 2098" d="M92.52,319.92c-.83,0-2.15-.48-3.81-2.69-2.26-3-8.63-.87-8.69-.85a.58.58,0,1,1-.4-1.08c.07,0,7.22-2.47,10,1.23,2.09,2.77,3.19,2.17,3.2,2.16a.59.59,0,0,1,.64,0,.49.49,0,0,1,.16.16.58.58,0,0,1-.13.81,1.75,1.75,0,0,1-1,.28"/><path id="Path_2099" data-name="Path 2099" class="cls-10" d="M133.84,300.53a31.78,31.78,0,0,0-9.08-.29,3.26,3.26,0,0,0-2.57,3.82,3,3,0,0,0,.11.4c1,2.84,2.27,6.35,2.27,6.35,1.48.69,11.22.43,11.22.43v-8.42a2.32,2.32,0,0,0-1.95-2.29"/><path id="Path_2100" data-name="Path 2100" class="cls-6" d="M122.62,308.74c-.51.07-.7,6.26.46,11.17a1.36,1.36,0,0,0,1.31,1h29.42a1.33,1.33,0,0,0,1.35-1.32,1.31,1.31,0,0,0-.11-.52c-1.94-4.37-14-12.2-17.8-12a5,5,0,0,0-4.78,3.57s-5.88-2.58-9.85-2"/><path id="Path_2101" data-name="Path 2101" d="M153.8,321.52H124.38a1.93,1.93,0,0,1-1.87-1.47c-1.09-4.59-1.08-10.66-.45-11.58a.66.66,0,0,1,.47-.3c3.42-.52,8.05,1.17,9.63,1.8a5.38,5.38,0,0,1,5.05-3.4c4.22-.28,16.4,7.88,18.37,12.29a1.86,1.86,0,0,1-.15,1.77,1.94,1.94,0,0,1-1.63.88M123,309.27a32.24,32.24,0,0,0,.67,10.5.74.74,0,0,0,.74.58h29.43a.71.71,0,0,0,.37-.1.77.77,0,0,0,.28-.26.67.67,0,0,0,.06-.67c-1.9-4.25-13.83-11.85-17.23-11.61a4.34,4.34,0,0,0-4.2,3l-.09.2a.57.57,0,0,1-.76.3h0c-.06,0-5.5-2.39-9.26-2Z"/><path id="Path_2102" data-name="Path 2102" d="M129,318.62c-3.23,0-5.59-.15-5.86-.16a.56.56,0,0,1-.4-.2.58.58,0,0,1,.47-1c.2,0,19.19,1.15,24.77-3.13a.58.58,0,1,1,.7.92h0c-3.9,3-13.42,3.52-19.68,3.52"/><path id="Path_2103" data-name="Path 2103" d="M68.23,199.09l-2.57,24.64,54.11,5.37s-4.64-27.79-6-30.89c0,0-1.94,3.23-10.76,3.81s-26.73-6.79-34.76-2.93"/><path id="Path_2104" data-name="Path 2104" d="M119.77,229.69h0L65.6,224.31a.59.59,0,0,1-.52-.64h0L67.65,199a.57.57,0,0,1,.33-.46c5-2.4,13.37-.66,21.46,1,5.18,1.07,10.08,2.09,13.51,1.86,8.42-.55,10.28-3.5,10.3-3.53a.52.52,0,0,1,.23-.21.59.59,0,0,1,.6,0,.78.78,0,0,1,.2.24c1.4,3.13,5.87,29.9,6.06,31a.58.58,0,0,1-.32.62.7.7,0,0,1-.25.05Zm-53.48-6.47,52.79,5.24c-1.51-9-4.31-24.8-5.57-29.14-1.2,1.07-4.12,2.86-10.48,3.28-3.6.24-8.56-.79-13.83-1.88-7.38-1.54-15.72-3.27-20.43-1.24Z"/><path id="Path_2105" data-name="Path 2105" class="cls-6" d="M112.07,225.2a.58.58,0,0,1-.57-.47L108,207.07a.57.57,0,0,1,.45-.68.58.58,0,0,1,.68.46l3.47,17.66a.59.59,0,0,1-.46.68h-.11"/><path id="Path_2106" data-name="Path 2106" class="cls-6" d="M85.67,221.94a.58.58,0,0,1-.58-.58v-9.67a.58.58,0,1,1,1.15,0v9.67a.58.58,0,0,1-.57.58"/><path id="Path_2107" data-name="Path 2107" class="cls-6" d="M60.2,202.94s8.61,1.42,10.48,3.64,1.95,6.28,1.95,6.28-3.38-1.56-5.26-2.2-9.65-.73-10.75-4.54Z"/><path id="Path_2108" data-name="Path 2108" d="M72.63,213.44a.7.7,0,0,1-.25-.05s-3.37-1.56-5.2-2.18a15.77,15.77,0,0,0-2.05-.39c-3.23-.5-8.12-1.26-9.06-4.53a.54.54,0,0,1,.17-.59l3.57-3.19a.6.6,0,0,1,.48-.14c.9.15,8.88,1.52,10.83,3.84s2.08,6.47,2.09,6.64a.59.59,0,0,1-.57.59ZM57.3,206.3c1,2.29,5.36,3,8,3.38a15.3,15.3,0,0,1,2.24.44c1.3.44,3.29,1.3,4.42,1.81a9.89,9.89,0,0,0-1.74-5c-1.37-1.62-7.33-2.95-9.86-3.39Z"/><path id="Path_2109" data-name="Path 2109" class="cls-7" d="M322.45,247.07H236.91v79.22l79.2-4.44,11.8-68.32a5.53,5.53,0,0,0-4.52-6.38,4.87,4.87,0,0,0-.93-.08"/><path id="Path_2110" data-name="Path 2110" d="M236.91,326.87a.58.58,0,0,1-.58-.58V247.07a.58.58,0,0,1,.58-.58h85.54a6.09,6.09,0,0,1,6.11,6.09,5.31,5.31,0,0,1-.08,1L316.68,322a.6.6,0,0,1-.54.48l-79.2,4.43Zm.58-79.23v78l78.12-4.38,11.72-67.87a5,5,0,0,0-4-5.71,4.76,4.76,0,0,0-.84-.07Z"/><path id="Path_2111" data-name="Path 2111" class="cls-8" d="M303.69,318.78H218.93a5,5,0,0,1-5-5.71l16.8-122.65a5,5,0,0,1,5-4.35h84.76a5,5,0,0,1,5,5,5.32,5.32,0,0,1,0,.69l-16.8,122.65a5,5,0,0,1-5,4.35"/><path id="Path_2112" data-name="Path 2112" d="M303.7,319.35H218.93a5.6,5.6,0,0,1-5.62-5.59,6.81,6.81,0,0,1,.05-.78l16.8-122.64a5.63,5.63,0,0,1,5.57-4.85h84.76a5.61,5.61,0,0,1,5.62,5.6,6.78,6.78,0,0,1-.05.77l-16.8,122.65a5.62,5.62,0,0,1-5.56,4.84m-68-132.7a4.46,4.46,0,0,0-4.42,3.84l-16.8,122.65a4.46,4.46,0,0,0,3.82,5c.2,0,.4,0,.6,0H303.7a4.48,4.48,0,0,0,4.41-3.85l16.8-122.65a4.45,4.45,0,0,0-3.81-5,4.17,4.17,0,0,0-.61,0Z"/><path id="Path_2113" data-name="Path 2113" class="cls-6" d="M307.63,247.94h-.09a.59.59,0,0,1-.49-.66h0l7.51-49.51h-9.78a.58.58,0,0,1,0-1.16h10.45a.58.58,0,0,1,.56.42.52.52,0,0,1,0,.25l-7.6,50.17a.58.58,0,0,1-.57.49"/><path id="Path_2114" data-name="Path 2114" class="cls-6" d="M299.5,167.6H214a4.68,4.68,0,0,0-4.65,4.05L192.5,295a4.7,4.7,0,0,0,4,5.28,4.44,4.44,0,0,0,.63,0h85.46a4.69,4.69,0,0,0,4.65-4.05l16.89-123.34a4.68,4.68,0,0,0-4-5.27,4.46,4.46,0,0,0-.63,0"/><path id="Path_2115" data-name="Path 2115" d="M282.61,300.88H197.15a5.26,5.26,0,0,1-5.27-5.26,5.52,5.52,0,0,1,.05-.71l16.89-123.34A5.27,5.27,0,0,1,214,167H299.5a5.25,5.25,0,0,1,5.27,5.25,4.36,4.36,0,0,1,0,.72L287.84,296.33a5.3,5.3,0,0,1-5.23,4.55M214,168.17a4.14,4.14,0,0,0-4.08,3.55L193.08,295.06a4.11,4.11,0,0,0,3.52,4.63,5.07,5.07,0,0,0,.55,0h85.46a4.12,4.12,0,0,0,4.08-3.55l16.88-123.33a4.11,4.11,0,0,0-3.52-4.63,3.39,3.39,0,0,0-.55,0Z"/><path id="Path_2116" data-name="Path 2116" class="cls-8" d="M285.93,248.55h-79.2l9.88-72.14h79.2Z"/><path id="Path_2117" data-name="Path 2117" class="cls-8" d="M285.93,248.55h-79.2l9.88-72.14h79.2Z"/><path id="Path_2118" data-name="Path 2118" class="cls-7" d="M278.56,207a6,6,0,0,0-8.39-.6l0,0-17.93,15.74a3.76,3.76,0,0,1-5.31-.34v0l-5.56-6.42a5.93,5.93,0,0,0-8.38-.61l0,0-20.11,17.65-1.67,12.22h71.41l3.91-28.53Z"/><path id="Path_2119" data-name="Path 2119" class="cls-7" d="M251.53,199.72c3.78-3.53,4.35-9.07,1.27-12.37s-8.67-3.11-12.45.43-4.36,9.07-1.28,12.36,8.67,3.11,12.45-.42"/><path id="Path_2120" data-name="Path 2120" d="M244.74,203.08a8.06,8.06,0,0,1-8.15-9.41,11,11,0,0,1,10.54-9.25,8.54,8.54,0,0,1,4.36,1.15.58.58,0,0,1-.59,1,7.34,7.34,0,0,0-3.77-1,9.79,9.79,0,0,0-9.39,8.26,7.1,7.1,0,0,0,1.61,5.75,7,7,0,0,0,5.39,2.34,9.36,9.36,0,0,0,6.16-2.42.82.82,0,0,1,.2-.12.59.59,0,0,1,.45,0,.59.59,0,0,1,.18.13.57.57,0,0,1,.15.43.62.62,0,0,1-.2.4,10.59,10.59,0,0,1-6.94,2.71"/><path id="Path_2121" data-name="Path 2121" d="M217.25,229.17a.58.58,0,0,1-.38-1l15.56-13.66a6.68,6.68,0,0,1,9.43.61l0,0,5.5,6.36a3.1,3.1,0,0,0,4.37.31h0l17.87-15.69a6.68,6.68,0,0,1,9.43.61l0,0,1.47,1.69a.58.58,0,0,1-.06.82.59.59,0,0,1-.82-.06l-1.46-1.7a5.55,5.55,0,0,0-7.8-.56l0,0-17.87,15.69a4.26,4.26,0,0,1-6-.4v0L241,215.9a5.53,5.53,0,0,0-7.8-.56l0,0L217.63,229a.59.59,0,0,1-.38.14"/><path id="Path_2122" data-name="Path 2122" class="cls-7" d="M284.43,235.28H246.74c-5.61,0-9.06,4.54-7.71,10.14l.85,3.5H171.15c-3.5,0-5.65,2.83-4.81,6.32L182,320a8.56,8.56,0,0,0,7.86,6.32h120.4c3.5,0,5.65-2.83,4.81-6.32l-18-74.54c-1.35-5.6-7-10.14-12.6-10.14"/><path id="Path_2123" data-name="Path 2123" d="M310.24,326.87H189.84a9.18,9.18,0,0,1-8.42-6.77l-15.64-64.72a5.76,5.76,0,0,1,.93-5,5.51,5.51,0,0,1,4.44-2h68l-.67-2.79a8.91,8.91,0,0,1,1.43-7.77,8.46,8.46,0,0,1,6.84-3.09h37.69c5.85,0,11.76,4.75,13.17,10.58l18,74.55a5.76,5.76,0,0,1-.93,5,5.5,5.5,0,0,1-4.44,2M171.14,249.5a4.37,4.37,0,0,0-3.52,1.57,4.62,4.62,0,0,0-.72,4l15.64,64.72a8,8,0,0,0,7.3,5.88h120.4a4.4,4.4,0,0,0,3.53-1.57,4.62,4.62,0,0,0,.71-4l-18-74.54c-1.29-5.35-6.7-9.7-12-9.7H246.74a7.32,7.32,0,0,0-5.93,2.65,7.76,7.76,0,0,0-1.22,6.77l.85,3.5a.58.58,0,0,1-.43.7l-.13,0Z"/><path id="Path_2124" data-name="Path 2124" class="cls-6" d="M241,97.06h0a38.58,38.58,0,0,1-4.68-.31.55.55,0,0,1-.4-.21.58.58,0,0,1,.08-.81h0a.54.54,0,0,1,.2-.1.45.45,0,0,1,.23,0,43.28,43.28,0,0,0,4.56.3.57.57,0,0,1,.22,0,.58.58,0,0,1,.35.54.57.57,0,0,1,0,.22.58.58,0,0,1-.54.35Zm4.63-.23a.58.58,0,0,1-.06-1.15,40.64,40.64,0,0,0,4.5-.76.58.58,0,0,1,.26,1.13h0a40.47,40.47,0,0,1-4.64.78Zm-13.8-.91-.14,0a37.6,37.6,0,0,1-4.49-1.4.59.59,0,0,1-.34-.3.55.55,0,0,1,0-.45.58.58,0,0,1,.32-.33.59.59,0,0,1,.45,0A39.28,39.28,0,0,0,232,94.78a.58.58,0,0,1,.42.7.61.61,0,0,1-.56.44Zm22.8-1.16a.58.58,0,0,1-.57-.48.59.59,0,0,1,.38-.64c.53-.19,1.07-.4,1.58-.61.88-.36,1.75-.76,2.6-1.19a.58.58,0,0,1,.78.25.59.59,0,0,1-.25.78h0c-.88.44-1.78.86-2.69,1.23-.53.22-1.08.43-1.63.63a.69.69,0,0,1-.2,0Zm8.25-4.16a.58.58,0,0,1-.55-.41.59.59,0,0,1,.23-.65,38.9,38.9,0,0,0,3.64-2.74.57.57,0,0,1,.82,0,.58.58,0,0,1,0,.82l0,0a38.25,38.25,0,0,1-3.75,2.82.51.51,0,0,1-.32.1Zm7.05-6a.58.58,0,0,1-.58-.57.59.59,0,0,1,.15-.4c.87-.93,1.7-1.92,2.48-2.93a.58.58,0,0,1,.14-1.14,32.77,32.77,0,0,0,4.54-.07.57.57,0,0,1,.61.54.58.58,0,0,1-.51.61c-1.12.09-2.25.14-3.38.12l0,0a41.3,41.3,0,0,1-3,3.61.5.5,0,0,1-.19.13.59.59,0,0,1-.23.05Zm-2.43-4.49h-.12a30.84,30.84,0,0,1-4.53-1.3.59.59,0,0,1-.34-.75.57.57,0,0,1,.74-.34A29.92,29.92,0,0,0,267.62,79a.58.58,0,0,1-.12,1.14Zm13.78-.21a.58.58,0,0,1-.13-1.14,31.1,31.1,0,0,0,4.33-1.37.57.57,0,0,1,.75.76h0a.59.59,0,0,1-.13.19.62.62,0,0,1-.19.12,31.78,31.78,0,0,1-4.5,1.42h-.13Zm-5.89-2.74a.57.57,0,0,1-.57-.58.64.64,0,0,1,.07-.28c.56-1,1.08-2,1.54-3,.15-.34.31-.7.45-1.06a.53.53,0,0,1,.31-.31.52.52,0,0,1,.44,0,.55.55,0,0,1,.19.12.59.59,0,0,1,.13.18.63.63,0,0,1,0,.45c-.15.37-.31.75-.47,1.11-.48,1-1,2.1-1.59,3.12a.58.58,0,0,1-.5.29Zm-16.52-.3a.55.55,0,0,1-.29-.08A21.23,21.23,0,0,1,254.76,74a.57.57,0,0,1,0-.82.58.58,0,0,1,.82,0,20.55,20.55,0,0,0,3.61,2.67.57.57,0,0,1,.21.79.61.61,0,0,1-.5.28Zm31-.4a.57.57,0,0,1-.58-.57.56.56,0,0,1,.28-.5,29.91,29.91,0,0,0,3.71-2.62.47.47,0,0,1,.2-.1.57.57,0,0,1,.62.18.54.54,0,0,1,.1.2.56.56,0,0,1,0,.22.57.57,0,0,1-.07.22.62.62,0,0,1-.14.18,30.42,30.42,0,0,1-3.86,2.71.6.6,0,0,1-.29.08ZM297,70.62a.63.63,0,0,1-.32-.1.57.57,0,0,1-.17-.79.42.42,0,0,1,.06-.08,31.15,31.15,0,0,0,2.78-3.58.57.57,0,0,1,.8-.17.58.58,0,0,1,.17.8h0a33.29,33.29,0,0,1-2.88,3.72.9.9,0,0,1-.2.14.69.69,0,0,1-.24.05Zm-44.71-.08a.57.57,0,0,1-.5-.29q-.21-.34-.39-.72a12.65,12.65,0,0,1-1.24-3.8.55.55,0,0,1,.1-.43.61.61,0,0,1,.16-.16.83.83,0,0,1,.22-.08.58.58,0,0,1,.66.48h0A12.11,12.11,0,0,0,252.4,69q.18.34.36.66a.57.57,0,0,1-.21.79.51.51,0,0,1-.29.08Zm26.42-2h-.1a.67.67,0,0,1-.21-.09.6.6,0,0,1-.26-.58,18.32,18.32,0,0,0,.29-3.13c0-.45,0-.9-.06-1.33a.58.58,0,0,1,.54-.61.59.59,0,0,1,.61.51q.06.71.06,1.44a18.55,18.55,0,0,1-.3,3.32.58.58,0,0,1-.57.48Zm23.4-5.64a.58.58,0,0,1-.58-.54.45.45,0,0,1,.06-.28,32,32,0,0,0,1.63-4.24.56.56,0,0,1,.73-.38.54.54,0,0,1,.2.1.86.86,0,0,1,.14.18.56.56,0,0,1,0,.44,30.4,30.4,0,0,1-1.7,4.39.57.57,0,0,1-.52.33Zm-51.27-1.32-.12,0a.57.57,0,0,1-.44-.69h0a10.29,10.29,0,0,1,2.11-4.37.58.58,0,0,1,.82-.07.55.55,0,0,1,.14.17.57.57,0,0,1,.07.22.6.6,0,0,1-.14.42,8.94,8.94,0,0,0-1.87,3.88.59.59,0,0,1-.57.45m26.83-2a.59.59,0,0,1-.51-.3,8.48,8.48,0,0,0-1.9-2.36,8.66,8.66,0,0,0-1-.76.61.61,0,0,1-.26-.37.56.56,0,0,1,.23-.6.57.57,0,0,1,.65,0A9.2,9.2,0,0,1,276,56a9.69,9.69,0,0,1,2.16,2.68.57.57,0,0,1-.23.78.55.55,0,0,1-.28.07M256.52,54.8a.58.58,0,0,1-.58-.58.57.57,0,0,1,.36-.53A15.59,15.59,0,0,1,261,52.6a.58.58,0,0,1,.62.52.56.56,0,0,1-.13.43.6.6,0,0,1-.4.2,14,14,0,0,0-4.31,1,.59.59,0,0,1-.23,0Zm13.7-.27h-.14c-.79-.19-1.66-.35-2.73-.5-.6-.09-1.2-.16-1.76-.21a.57.57,0,0,1-.22-.07.54.54,0,0,1-.29-.34.56.56,0,0,1,0-.44.65.65,0,0,1,.15-.18.6.6,0,0,1,.43-.13c.58.06,1.2.13,1.81.22,1.1.16,2,.32,2.84.52a.58.58,0,0,1-.13,1.14m34.52-.42a.57.57,0,0,1-.44-.2.54.54,0,0,1-.13-.46l0-.26a.58.58,0,1,1,1.15.15l0,.27A.57.57,0,0,1,304.74,54.11Z"/><path id="Path_2125" data-name="Path 2125" d="M216.62,81.28a.85.85,0,0,1-.22,0,.8.8,0,0,1-.19-.13l-1.69-1.69a.58.58,0,0,1,.82-.82L217,80.29a.59.59,0,0,1,.16.3.57.57,0,0,1-.46.68h-.11"/><path id="Path_2126" data-name="Path 2126" d="M222.55,87.2a.58.58,0,0,1-.41-.17l-1.69-1.69a.57.57,0,0,1,0-.82.58.58,0,0,1,.78,0L223,86.21a.57.57,0,0,1,0,.82.57.57,0,0,1-.41.17"/><path id="Path_2127" data-name="Path 2127" d="M214.93,87.2a.6.6,0,0,1-.32-.1.58.58,0,0,1-.25-.59.55.55,0,0,1,.16-.3l1.69-1.69a.58.58,0,1,1,.86.78l0,0L215.34,87a.58.58,0,0,1-.41.17"/><path id="Path_2128" data-name="Path 2128" d="M220.86,81.28a.58.58,0,0,1-.41-1l1.69-1.69a.59.59,0,0,1,.82,0,.58.58,0,0,1,0,.82s0,0,0,0l-1.69,1.69a.55.55,0,0,1-.19.12.59.59,0,0,1-.22,0"/><path id="Path_2129" data-name="Path 2129" d="M155.82,245.53a.58.58,0,0,1-.41-.17l-1.69-1.69a.58.58,0,0,1,.82-.81l1.69,1.69a.56.56,0,0,1,0,.81.22.22,0,0,1-.09.07.51.51,0,0,1-.32.1"/><path id="Path_2130" data-name="Path 2130" d="M161.75,251.45a.58.58,0,0,1-.41-.17l-1.69-1.69a.59.59,0,0,1-.18-.41.59.59,0,0,1,0-.23.57.57,0,0,1,.32-.31.56.56,0,0,1,.64.13l1.69,1.69a.57.57,0,0,1,0,.82.58.58,0,0,1-.41.17"/><path id="Path_2131" data-name="Path 2131" d="M154.13,251.45a.58.58,0,0,1-.41-1l1.69-1.69a.59.59,0,0,1,.19-.13.59.59,0,0,1,.23,0,.59.59,0,0,1,.22,0,.62.62,0,0,1,.19.12.8.8,0,0,1,.13.19.6.6,0,0,1-.14.64l-1.69,1.69a.58.58,0,0,1-.41.17"/><path id="Path_2132" data-name="Path 2132" d="M160.06,245.53a.58.58,0,0,1-.54-.35.57.57,0,0,1,.13-.63l1.69-1.69a.58.58,0,0,1,.82.81l-1.69,1.69a.58.58,0,0,1-.41.17"/><path id="Path_2133" data-name="Path 2133" d="M117.34,46.1a.58.58,0,0,1-.58-.58.57.57,0,0,1,.2-.43c.16-.14,16.54-14,44.15-19.47a.57.57,0,0,1,.68.45.88.88,0,0,1,0,.23.72.72,0,0,1-.09.2.41.41,0,0,1-.16.16.5.5,0,0,1-.21.09C134,32.16,117.87,45.82,117.71,46a.57.57,0,0,1-.37.14"/><path id="Path_2134" data-name="Path 2134" d="M108,43.48a.58.58,0,0,1-.41-1c.12-.11,12-11.8,33-17.65a.62.62,0,0,1,.23,0,.58.58,0,0,1,.4.22.63.63,0,0,1,.1.2.59.59,0,0,1,0,.23.57.57,0,0,1-.22.38.51.51,0,0,1-.21.1c-20.71,5.77-32.33,17.24-32.45,17.35a.58.58,0,0,1-.41.17"/><path id="Path_2135" data-name="Path 2135" class="cls-6" d="M172.81,189.07l-12.67-8.42a1.64,1.64,0,0,0-2.28.44,1.66,1.66,0,0,0-.28.92v16.84a1.64,1.64,0,0,0,2.56,1.36l12.67-8.42a1.61,1.61,0,0,0,.5-2.23,1.7,1.7,0,0,0-.5-.5"/></g></g></g></g></g></g></g></svg>