<svg xmlns="http://www.w3.org/2000/svg" xmlns:xlink="http://www.w3.org/1999/xlink" viewBox="0 0 319.68 335.1"><defs><style>.cls-1{fill:none;}.cls-2{clip-path:url(#clip-path);}.cls-3{opacity:0.6;}.cls-4{clip-path:url(#clip-path-3);}.cls-5{fill:#9ad8f3;}.cls-6{fill:#fff;}.cls-7{fill:#1a8bcb;}.cls-8{fill:#53bbe8;}.cls-9{fill:#a0759a;}.cls-10{fill:#701e5e;}.cls-11{fill:#056793;}.cls-12{fill:#546976;}.cls-13{fill:#5b72b7;}.cls-14{fill:#9fb6df;}.cls-15{fill:#cddcf1;}</style><clipPath id="clip-path"><rect class="cls-1" width="319.68" height="335.1"/></clipPath><clipPath id="clip-path-3"><rect class="cls-1" x="0.99" width="318.69" height="318.69"/></clipPath></defs><g id="Layer_2" data-name="Layer 2"><g id="Layer_1-2" data-name="Layer 1"><g id="Group_214" data-name="Group 214"><g id="Group_213" data-name="Group 213"><g class="cls-2"><g id="Group_212" data-name="Group 212"><g id="Group_211" data-name="Group 211"><g class="cls-2"><g id="Group_210" data-name="Group 210"><g id="Group_209" data-name="Group 209" class="cls-3"><g id="Group_208" data-name="Group 208"><g class="cls-4"><g id="Group_207" data-name="Group 207"><path id="Path_2514" data-name="Path 2514" class="cls-5" d="M14.93,99c-6.9,15.29-17.1,44.55-13,81,5.27,46.7,31.33,83.52,56.68,104.21,84.13,68.66,238.12,24.3,258.52-40.37,3.7-11.73,2.66-23,1.38-37-4.07-44.28-25.52-57.45-39.94-104.47-13.12-42.79-.18-47.61-12.46-66.63C239.49-5.56,162.64-7.64,109.76,12.14,89.45,19.74,40.17,43.06,14.93,99"/></g></g></g></g><path id="Path_2515" data-name="Path 2515" class="cls-6" d="M193.79,162.9a.6.6,0,0,1-.42-.18c-1.05-1.1-2.13-2.2-3.22-3.26a.58.58,0,0,1,0-.82.58.58,0,0,1,.75,0c1.1,1.08,2.19,2.19,3.25,3.3a.57.57,0,0,1,0,.81.59.59,0,0,1-.4.16m-6.58-6.44a.54.54,0,0,1-.39-.15c-1.13-1-2.29-2-3.45-3a.59.59,0,0,1-.07-.82.57.57,0,0,1,.81-.06h0c1.18,1,2.35,2,3.48,3.05a.57.57,0,0,1-.38,1m-7-6a.56.56,0,0,1-.35-.13c-1.2-.93-2.43-1.87-3.66-2.76a.58.58,0,0,1,.68-.94c1.24.91,2.48,1.85,3.69,2.8a.58.58,0,0,1-.36,1m-7.44-5.43a.58.58,0,0,1-.32-.1c-1.27-.85-2.56-1.69-3.85-2.5a.58.58,0,0,1,.59-1h0c1.3.81,2.61,1.66,3.88,2.52a.59.59,0,0,1,.16.8.58.58,0,0,1-.48.25m-7.82-4.87a.54.54,0,0,1-.28-.08c-1.32-.76-2.67-1.5-4-2.21a.59.59,0,0,1-.22-.79.58.58,0,0,1,.76-.23c1.36.72,2.72,1.47,4.05,2.23a.57.57,0,0,1,.21.79.57.57,0,0,1-.5.29m-8.15-4.3a.57.57,0,0,1-.25-.06c-1.37-.66-2.77-1.31-4.16-1.92a.57.57,0,0,1-.32-.75.59.59,0,0,1,.76-.31h0c1.4.61,2.82,1.26,4.2,1.93a.57.57,0,0,1-.25,1.1m-8.43-3.7a.54.54,0,0,1-.22,0c-1.41-.56-2.86-1.1-4.29-1.61a.57.57,0,0,1,.38-1.08c1.45.51,2.91,1.06,4.34,1.62a.58.58,0,0,1,.32.75.57.57,0,0,1-.54.36m-8.68-3.07a.47.47,0,0,1-.17,0c-1.45-.45-2.93-.89-4.4-1.29a.58.58,0,0,1,.23-1.13l.07,0c1.48.41,3,.84,4.44,1.3a.58.58,0,0,1,.38.72.59.59,0,0,1-.55.41"/><path id="Path_2516" data-name="Path 2516" class="cls-7" d="M314.26,272.9l-2.7,2.48a9.07,9.07,0,0,1-7.46,2.35l-285.6-43c-3.8-.58-5.64-4.53-5.67-8.42L10.92,29.41c0-2.32,1.38-11.58,1.38-11.58s6.94-5,11.09-6.93a10.49,10.49,0,0,1,6-.89L312.19,51.85a5.81,5.81,0,0,1,5,5.81l.64,207.28a10.83,10.83,0,0,1-3.54,8"/><path id="Path_2517" data-name="Path 2517" class="cls-8" d="M305.6,277.25,19.42,234.91A8.94,8.94,0,0,1,11.78,226L11.14,21.39a4,4,0,0,1,4.06-4,3.87,3.87,0,0,1,.48,0L302.62,59.85a5.79,5.79,0,0,1,5,5.81l.65,209.27a2.35,2.35,0,0,1-2.36,2.33l-.28,0"/><path id="Path_2518" data-name="Path 2518" d="M11.48,132a.58.58,0,0,1-.58-.57l-.33-110a4.6,4.6,0,0,1,1.6-3.48,4.47,4.47,0,0,1,3.59-1.08L190,42.93a.58.58,0,0,1,.52.63.57.57,0,0,1-.63.52h-.06L15.59,18a3.31,3.31,0,0,0-2.66.81,3.4,3.4,0,0,0-1.21,2.61l.34,110a.58.58,0,0,1-.58.58Z"/><path id="Path_2519" data-name="Path 2519" d="M305.92,277.84a2.69,2.69,0,0,1-.4,0L289,275.34a.58.58,0,0,1-.47-.66.59.59,0,0,1,.64-.48l16.57,2.47a1.67,1.67,0,0,0,1.35-.41,1.75,1.75,0,0,0,.62-1.33L307,65.66a5.31,5.31,0,0,0-1.87-4.07.57.57,0,0,1,.74-.88,6.45,6.45,0,0,1,2.28,4.95l.65,209.27a3,3,0,0,1-1,2.2,2.84,2.84,0,0,1-1.88.71"/><path id="Path_2520" data-name="Path 2520" class="cls-6" d="M242.62,194.71,111.8,174.13a6.47,6.47,0,0,1-5.48-6.49V48.3a7.42,7.42,0,0,1,7.47-7.37,7.28,7.28,0,0,1,.93.07L245.54,61.58A6.46,6.46,0,0,1,251,68.07V187.41a7.42,7.42,0,0,1-7.47,7.37c-.31,0-.62,0-.93-.07"/><path id="Path_2521" data-name="Path 2521" class="cls-9" d="M120.21,163.23l-3.72-.67a3.82,3.82,0,0,1-2.93-3.74l0-19.47a2.63,2.63,0,0,1,2.4-2.82,2.35,2.35,0,0,1,.65,0l3.69.65a3.82,3.82,0,0,1,3,3.73v19.5a2.63,2.63,0,0,1-2.4,2.82,2.51,2.51,0,0,1-.67,0"/><path id="Path_2522" data-name="Path 2522" class="cls-9" d="M133.38,165.3l-3.72-.67a3.83,3.83,0,0,1-2.94-3.74l0-31.77a2.61,2.61,0,0,1,2.4-2.81,2.81,2.81,0,0,1,.65,0l3.68.65a3.83,3.83,0,0,1,2.95,3.73v31.8a2.62,2.62,0,0,1-2.39,2.83,3,3,0,0,1-.67,0"/><path id="Path_2523" data-name="Path 2523" class="cls-9" d="M146.55,167.37l-3.72-.67a3.83,3.83,0,0,1-2.94-3.74l0-25.21a2.62,2.62,0,0,1,2.4-2.82,2.35,2.35,0,0,1,.65,0l3.68.64a3.82,3.82,0,0,1,3,3.74v25.25a2.62,2.62,0,0,1-2.39,2.82,3.76,3.76,0,0,1-.67,0"/><path id="Path_2524" data-name="Path 2524" class="cls-9" d="M159.72,169.45l-3.72-.68a3.82,3.82,0,0,1-2.94-3.73l0-49.61a2.61,2.61,0,0,1,2.4-2.82,2.38,2.38,0,0,1,.65,0l3.68.64a3.84,3.84,0,0,1,2.95,3.74v49.64a2.61,2.61,0,0,1-2.39,2.82,2.49,2.49,0,0,1-.67,0"/><path id="Path_2525" data-name="Path 2525" class="cls-9" d="M172.89,171.52l-3.73-.67a3.84,3.84,0,0,1-2.93-3.74l0-62.39a2.62,2.62,0,0,1,2.4-2.82,3.58,3.58,0,0,1,.65,0l3.68.65a3.83,3.83,0,0,1,2.95,3.73v62.42a2.61,2.61,0,0,1-2.4,2.82,2.44,2.44,0,0,1-.66,0"/><path id="Path_2526" data-name="Path 2526" class="cls-10" d="M186.05,173.59l-3.72-.67a3.83,3.83,0,0,1-2.93-3.74l0-71.88a2.61,2.61,0,0,1,2.39-2.82,2.92,2.92,0,0,1,.66,0l3.68.65a3.84,3.84,0,0,1,3,3.73V170.8a2.62,2.62,0,0,1-2.4,2.82,2.51,2.51,0,0,1-.67,0"/><path id="Path_2527" data-name="Path 2527" class="cls-9" d="M199.22,175.66,195.5,175a3.82,3.82,0,0,1-2.93-3.74l0-51.06a2.61,2.61,0,0,1,2.39-2.82,2.44,2.44,0,0,1,.66,0l3.68.64a3.84,3.84,0,0,1,2.95,3.74v51.09a2.63,2.63,0,0,1-2.4,2.82,2.51,2.51,0,0,1-.67,0"/><path id="Path_2528" data-name="Path 2528" class="cls-9" d="M212.39,177.73l-3.72-.67a3.83,3.83,0,0,1-2.94-3.74l.05-67.76a2.61,2.61,0,0,1,2.39-2.82,3.65,3.65,0,0,1,.66,0l3.67.65a3.81,3.81,0,0,1,2.95,3.74V175a2.6,2.6,0,0,1-2.39,2.81,2.51,2.51,0,0,1-.67,0"/><path id="Path_2529" data-name="Path 2529" class="cls-9" d="M225.56,179.8l-3.72-.67a3.83,3.83,0,0,1-2.94-3.73l0-88.12a2.61,2.61,0,0,1,2.39-2.82,2.44,2.44,0,0,1,.66,0l3.68.65a3.82,3.82,0,0,1,2.95,3.73V177a2.63,2.63,0,0,1-2.4,2.82,2.51,2.51,0,0,1-.67,0"/><path id="Path_2530" data-name="Path 2530" class="cls-10" d="M238.91,181.9l-3.73-.67a3.82,3.82,0,0,1-2.93-3.73l0-101.79a2.61,2.61,0,0,1,2.4-2.82,2.35,2.35,0,0,1,.65,0l3.68.64A3.83,3.83,0,0,1,242,77.3V179.11a2.62,2.62,0,0,1-2.39,2.83,3,3,0,0,1-.67,0"/><path id="Path_2531" data-name="Path 2531" class="cls-6" d="M201.26,253.69l-52.41-8.38a3.8,3.8,0,0,1-3-3.69V189.5a2.59,2.59,0,0,1,2.41-2.76,2.51,2.51,0,0,1,.61,0l52.41,8.38a3.78,3.78,0,0,1,3,3.68V251a2.58,2.58,0,0,1-2.41,2.75,3.12,3.12,0,0,1-.61,0"/><path id="Path_2532" data-name="Path 2532" class="cls-7" d="M159.76,242.61l-5.24-.83V204.14l5.24.84Z"/><path id="Path_2533" data-name="Path 2533" class="cls-8" d="M159.76,242.61l-5.24-.83V217.5l5.24.83Z"/><path id="Path_2534" data-name="Path 2534" class="cls-7" d="M169.58,244.18l-5.24-.83V211.26l5.24.84Z"/><path id="Path_2535" data-name="Path 2535" class="cls-8" d="M169.58,244.18l-5.24-.83V225l5.24.84Z"/><path id="Path_2536" data-name="Path 2536" class="cls-7" d="M178.75,245.82l-5.24-.83V215.85l5.24.84Z"/><path id="Path_2537" data-name="Path 2537" class="cls-8" d="M178.75,245.82l-5.24-.83V231.46l5.24.84Z"/><path id="Path_2538" data-name="Path 2538" class="cls-7" d="M188.16,247.68l-5.24-.84V209.2l5.24.84Z"/><path id="Path_2539" data-name="Path 2539" class="cls-8" d="M188.16,247.68l-5.24-.84V215.45l5.24.83Z"/><path id="Path_2540" data-name="Path 2540" class="cls-7" d="M197.65,249l-5.24-.84v-35l5.24.84Z"/><path id="Path_2541" data-name="Path 2541" class="cls-8" d="M197.65,249l-5.24-.84V225.12l5.24.83Z"/><path id="Path_2542" data-name="Path 2542" class="cls-8" d="M200.93,250.08h-.09L150.07,242a2.28,2.28,0,0,1-1.85-2.24l.2-44.47a.58.58,0,0,1,.58-.58h0a.58.58,0,0,1,.57.58h0l-.2,44.47a1.13,1.13,0,0,0,.88,1.1L201,248.93a.59.59,0,0,1,.48.66.57.57,0,0,1-.57.48"/><path id="Path_2543" data-name="Path 2543" class="cls-8" d="M170.1,196.92l-15.74-2.52v-2.94L170.1,194Z"/><path id="Path_2544" data-name="Path 2544" class="cls-8" d="M170.15,201.44l-15.74-2.52V196l15.74,2.52Z"/><path id="Path_2545" data-name="Path 2545" class="cls-6" d="M93.36,162.56,21.56,150a3.6,3.6,0,0,1-3-3.55V31.57A3.6,3.6,0,0,1,22.17,28a4.48,4.48,0,0,1,.64.05L94.61,40.6a3.6,3.6,0,0,1,3,3.55V159A3.61,3.61,0,0,1,94,162.62a3.39,3.39,0,0,1-.64-.06"/><path id="Path_2546" data-name="Path 2546" class="cls-8" d="M89.42,78.84c2.4,17.82-9.85,32.22-27.37,32.19S28.39,96.53,26,78.71s9.86-32.22,27.37-32.18S87,61,89.42,78.85"/><path id="Path_2547" data-name="Path 2547" class="cls-7" d="M58.28,78.91l20.41,26.81C86.48,100,90.8,90.08,89.29,78.85a37.16,37.16,0,0,0-8.69-19Z"/><path id="Path_2548" data-name="Path 2548" class="cls-11" d="M60.23,47.32,58.28,78.91,80.6,59.81A37.82,37.82,0,0,0,60.23,47.33"/><path id="Path_2549" data-name="Path 2549" class="cls-6" d="M67.37,78.8c.73,5.43-3,9.82-8.34,9.81a11.54,11.54,0,0,1-11-9.85c-.73-5.43,3-9.82,8.34-9.81a11.54,11.54,0,0,1,11,9.85"/><path id="Path_2550" data-name="Path 2550" class="cls-7" d="M88.9,132.41l-62.34-8.6V117l62.34,8.6Z"/><path id="Path_2551" data-name="Path 2551" class="cls-7" d="M89,145.11l-62.35-8.6v-6.83L89,138.28Z"/><path id="Path_2552" data-name="Path 2552" d="M97.59,79.94a.58.58,0,0,1-.58-.58V44.15a3,3,0,0,0-2.5-3L22.71,28.58a3,3,0,0,0-3.55,3V78.25a.58.58,0,0,1-1.16,0V31.56a4.14,4.14,0,0,1,4.9-4.11L94.7,40a4.17,4.17,0,0,1,3.46,4.12V79.37a.57.57,0,0,1-.57.57"/><path id="Path_2553" data-name="Path 2553" class="cls-7" d="M295.64,223.67l-80.78-12.95v-8.35l80.78,12.95Z"/><path id="Path_2554" data-name="Path 2554" class="cls-7" d="M296,237.06l-80.78-12.95v-8.35l80.78,13Z"/><path id="Path_2555" data-name="Path 2555" class="cls-7" d="M296.15,251l-80.78-13v-8.35l80.78,13Z"/><path id="Path_2556" data-name="Path 2556" class="cls-7" d="M296.15,263.87l-80.78-13v-8.35l80.78,13Z"/><path id="Path_2557" data-name="Path 2557" class="cls-7" d="M295.23,80.58l-30.08-4.27V68.5l30.08,4.27Z"/><path id="Path_2558" data-name="Path 2558" class="cls-7" d="M298.28,102.37l-38.45-5.46v-7.8l38.45,5.45Z"/><path id="Path_2559" data-name="Path 2559" class="cls-7" d="M298.41,115,260,109.58v-7.8l38.46,5.45Z"/><path id="Path_2560" data-name="Path 2560" class="cls-7" d="M298.53,140.63l-38.46-5.45v-7.81l38.46,5.45Z"/><path id="Path_2561" data-name="Path 2561" class="cls-7" d="M298.41,153.4,260,148v-7.81l38.46,5.45Z"/><path id="Path_2562" data-name="Path 2562" class="cls-7" d="M298.16,166l-38.46-5.45v-8.18l38.46,5.45Z"/><path id="Path_2563" data-name="Path 2563" d="M169.77,257.76h-.08L131.1,252a.57.57,0,1,1,.15-1.14h0l38.59,5.76a.58.58,0,0,1-.08,1.15"/><path id="Path_2564" data-name="Path 2564" d="M304.61,53.33A50.66,50.66,0,1,1,254,2.68a50.66,50.66,0,0,1,50.66,50.65h0"/><path id="Path_2565" data-name="Path 2565" class="cls-10" d="M298.37,53.33A50.66,50.66,0,1,1,247.71,2.68h0a50.65,50.65,0,0,1,50.65,50.65h0"/><path id="Path_2566" data-name="Path 2566" d="M247.71,104.56a51.23,51.23,0,1,1,51.23-51.23,51.23,51.23,0,0,1-51.23,51.23m0-101.3a50.08,50.08,0,1,0,50.08,50.07h0A50.13,50.13,0,0,0,247.71,3.26"/><path id="Path_2567" data-name="Path 2567" class="cls-6" d="M281.48,53.33a33.77,33.77,0,1,1-33.77-33.77,33.77,33.77,0,0,1,33.77,33.77"/><path id="Path_2568" data-name="Path 2568" class="cls-10" d="M264.6,53.33a16.89,16.89,0,1,1-16.89-16.88h0A16.89,16.89,0,0,1,264.6,53.33"/><path id="Path_2569" data-name="Path 2569" class="cls-6" d="M248.09,53.75l9.85-7.58,1,1.44L248.28,54a.19.19,0,0,1-.24,0,.18.18,0,0,1,.05-.24h0"/><path id="Path_2570" data-name="Path 2570" d="M248.19,54.64a.74.74,0,0,1-.74-.76.73.73,0,0,1,.29-.58l9.85-7.59a.55.55,0,0,1,.44-.11.56.56,0,0,1,.39.24l1,1.45a.58.58,0,0,1-.15.8l0,0-10.65,6.42a.77.77,0,0,1-.39.11M257.81,47l-3.71,2.87,4-2.42Z"/><path id="Path_2571" data-name="Path 2571" class="cls-6" d="M257.7,47.39h0a1.24,1.24,0,0,1,.32-1.71L262,43l1.38,2-4,2.72a1.22,1.22,0,0,1-1.71-.32h0"/><path id="Path_2572" data-name="Path 2572" d="M258.72,48.5a1.79,1.79,0,0,1-1.49-.78h0a1.81,1.81,0,0,1,.47-2.51l4-2.72a.58.58,0,0,1,.8.15l1.39,2a.58.58,0,0,1-.15.8h0l-4,2.72a1.85,1.85,0,0,1-1,.31m-.54-1.43a.67.67,0,0,0,.91.17l3.5-2.4-.73-1.08-3.51,2.4a.66.66,0,0,0-.17.91"/><path id="Path_2573" data-name="Path 2573" class="cls-6" d="M260.76,45.65l-.32-.47a1.82,1.82,0,0,1,.47-2.53l46.93-32.06a1.81,1.81,0,0,1,2.52.48l.33.47a1.83,1.83,0,0,1-.48,2.53L263.29,46.12a1.82,1.82,0,0,1-2.53-.47"/><path id="Path_2574" data-name="Path 2574" d="M262.27,47a2.4,2.4,0,0,1-2-1.05L260,45.5a2.41,2.41,0,0,1,.63-3.33l46.92-32.05a2.41,2.41,0,0,1,3.33.62l.32.48a2.39,2.39,0,0,1-.63,3.33L263.61,46.6a2.37,2.37,0,0,1-1.35.42m46.6-36.17a1.24,1.24,0,0,0-.7.22L261.24,43.12a1.25,1.25,0,0,0-.33,1.73h0l.33.47h0a1.25,1.25,0,0,0,1.73.33l46.92-32a1.24,1.24,0,0,0,.32-1.73l-.32-.47a1.25,1.25,0,0,0-1-.55"/><path id="Path_2575" data-name="Path 2575" class="cls-7" d="M294,20l-.1-6.11a7.17,7.17,0,0,1,3.12-6L306,1.79a.49.49,0,0,1,.68.13.46.46,0,0,1,.09.27l.15,9.06Z"/><path id="Path_2576" data-name="Path 2576" d="M294,20.6a.57.57,0,0,1-.58-.56l-.1-6.11a7.7,7.7,0,0,1,3.37-6.52l8.91-6.09a1.07,1.07,0,0,1,1.67.86l.16,9.06a.59.59,0,0,1-.26.48L294.35,20.5a.53.53,0,0,1-.32.1M306.15,2.36l-8.78,6a6.57,6.57,0,0,0-2.87,5.55l.08,5,11.72-8Z"/><path id="Path_2577" data-name="Path 2577" class="cls-7" d="M296.4,23.5l5.66,2.32a7.13,7.13,0,0,0,6.75-.71L317.72,19a.48.48,0,0,0,.13-.68.43.43,0,0,0-.22-.18l-8.38-3.44Z"/><path id="Path_2578" data-name="Path 2578" d="M304.78,26.94a7.78,7.78,0,0,1-2.94-.58L296.18,24a.58.58,0,0,1-.31-.75.54.54,0,0,1,.21-.26l12.85-8.78a.6.6,0,0,1,.55-.06l8.37,3.44a1.06,1.06,0,0,1,.2,1.87l-8.91,6.09a7.77,7.77,0,0,1-4.36,1.35m-7.17-3.56,4.67,1.91a6.55,6.55,0,0,0,6.21-.66l8.79-6-7.95-3.25Z"/><path id="Path_2579" data-name="Path 2579" class="cls-6" d="M307.46,17.55l6.83,2.65Z"/><path id="Path_2580" data-name="Path 2580" d="M314.29,20.78a.78.78,0,0,1-.21,0l-6.84-2.66a.58.58,0,0,1,.42-1.08l6.84,2.66a.58.58,0,0,1,.33.75.58.58,0,0,1-.54.37"/><path id="Path_2581" data-name="Path 2581" class="cls-6" d="M304,19.88l6.83,2.66Z"/><path id="Path_2582" data-name="Path 2582" d="M310.87,23.12a.78.78,0,0,1-.21,0l-6.83-2.66a.58.58,0,0,1,.41-1.08L311.08,22a.58.58,0,0,1-.21,1.12"/><path id="Path_2583" data-name="Path 2583" class="cls-6" d="M292.39,22.43l1.18,1.73Z"/><path id="Path_2584" data-name="Path 2584" d="M293.58,24.74a.58.58,0,0,1-.48-.26l-1.19-1.73a.58.58,0,0,1,.13-.81.57.57,0,0,1,.8.13l0,0,1.19,1.74a.58.58,0,0,1-.15.8.75.75,0,0,1-.32.1"/><path id="Path_2585" data-name="Path 2585" class="cls-6" d="M294.4,21.05l1.18,1.74Z"/><path id="Path_2586" data-name="Path 2586" d="M295.59,23.36a.57.57,0,0,1-.48-.25l-1.19-1.73a.58.58,0,0,1,.93-.69l0,0,1.19,1.73a.58.58,0,0,1-.15.8.55.55,0,0,1-.32.1"/><path id="Path_2587" data-name="Path 2587" class="cls-6" d="M296.41,19.68l1.18,1.73Z"/><path id="Path_2588" data-name="Path 2588" d="M297.59,22a.56.56,0,0,1-.47-.25L295.93,20a.57.57,0,1,1,.94-.66h0l1.19,1.74a.58.58,0,0,1-.15.8.64.64,0,0,1-.33.1"/><path id="Path_2589" data-name="Path 2589" class="cls-12" d="M171.62,319.52a.57.57,0,0,1-.53-.37l-1.47-3.89a18.29,18.29,0,0,1-2.21-.28L165,318.4a.58.58,0,0,1-.69.2L160.49,317a.58.58,0,0,1-.35-.63l.68-4.1A18,18,0,0,1,159,311l-3.76,1.77a.57.57,0,0,1-.7-.17L152,309.3a.59.59,0,0,1,0-.72l2.64-3.22a19.38,19.38,0,0,1-.87-2.05l-4.15-.35a.57.57,0,0,1-.52-.49l-.57-4.12a.58.58,0,0,1,.36-.62l3.89-1.46a18.29,18.29,0,0,1,.28-2.21l-3.42-2.38a.58.58,0,0,1-.2-.69l1.56-3.85a.58.58,0,0,1,.63-.35l4.1.68a18,18,0,0,1,1.34-1.78l-1.77-3.76a.56.56,0,0,1,.17-.7l3.28-2.56a.56.56,0,0,1,.71,0l3.22,2.64a19.38,19.38,0,0,1,2-.87l.35-4.15a.57.57,0,0,1,.49-.52l4.12-.57a.58.58,0,0,1,.62.36l1.46,3.89a18.29,18.29,0,0,1,2.21.28l2.38-3.42a.56.56,0,0,1,.69-.2l3.85,1.56a.57.57,0,0,1,.35.62l-.68,4.11a18,18,0,0,1,1.78,1.34l3.77-1.77a.57.57,0,0,1,.7.16l2.55,3.28a.57.57,0,0,1,0,.72l-2.64,3.22a19.38,19.38,0,0,1,.87,2.05l4.15.35a.56.56,0,0,1,.52.49l.58,4.12a.6.6,0,0,1-.37.62l-3.89,1.46a18.29,18.29,0,0,1-.28,2.21l3.42,2.37a.57.57,0,0,1,.2.69l-1.56,3.86a.58.58,0,0,1-.62.35l-4.11-.68a16.57,16.57,0,0,1-1.34,1.78l1.78,3.76a.58.58,0,0,1-.17.7l-3.28,2.56a.59.59,0,0,1-.72,0l-3.22-2.64a19.22,19.22,0,0,1-2,.87l-.35,4.15a.57.57,0,0,1-.5.52l-4.11.57h-.08m-4.48-5.76.12,0a17.47,17.47,0,0,0,2.78.35.56.56,0,0,1,.52.37l1.43,3.81,3.2-.45.34-4.06a.58.58,0,0,1,.4-.5,18.18,18.18,0,0,0,2.57-1.09.58.58,0,0,1,.64.06l3.15,2.59,2.55-2-1.73-3.69a.57.57,0,0,1,.09-.63,16.68,16.68,0,0,0,1.68-2.23.58.58,0,0,1,.58-.27l4,.67,1.21-3-3.35-2.33a.57.57,0,0,1-.23-.59,17.47,17.47,0,0,0,.35-2.78.55.55,0,0,1,.37-.51l3.81-1.44-.44-3.2-4.07-.34a.57.57,0,0,1-.5-.39,17.2,17.2,0,0,0-1.09-2.58.58.58,0,0,1,.06-.63l2.59-3.16-2-2.55L182.54,285a.58.58,0,0,1-.63-.09,16.64,16.64,0,0,0-2.24-1.69.56.56,0,0,1-.26-.58l.66-4-3-1.22-2.32,3.35a.61.61,0,0,1-.6.24,16.15,16.15,0,0,0-2.77-.35.58.58,0,0,1-.52-.37l-1.44-3.82-3.2.45-.34,4.07a.58.58,0,0,1-.39.5,16.22,16.22,0,0,0-2.58,1.09.58.58,0,0,1-.63-.07l-3.15-2.58-2.56,2,1.74,3.69a.58.58,0,0,1-.09.63,16.85,16.85,0,0,0-1.69,2.24.58.58,0,0,1-.58.26l-4-.66-1.22,3,3.36,2.32a.57.57,0,0,1,.23.59,17.47,17.47,0,0,0-.35,2.78.59.59,0,0,1-.37.52l-3.81,1.43.44,3.2,4.07.34a.58.58,0,0,1,.5.4,17.08,17.08,0,0,0,1.09,2.57.58.58,0,0,1-.07.64L153.22,309l2,2.55,3.68-1.73a.56.56,0,0,1,.63.09,17.45,17.45,0,0,0,2.24,1.68.58.58,0,0,1,.26.58l-.66,4,3,1.21,2.32-3.35a.61.61,0,0,1,.48-.25m3.56-5.12a11.3,11.3,0,1,1,4.39-.9,11.3,11.3,0,0,1-4.39.9m0-21.4a10.12,10.12,0,1,0,3.79.74,10.13,10.13,0,0,0-3.79-.74"/><path id="Path_2590" data-name="Path 2590" class="cls-12" d="M236.68,335.1a.57.57,0,0,1-.53-.37l-2.6-6.91a30.63,30.63,0,0,1-4.26-.54l-4.21,6.07a.57.57,0,0,1-.69.21l-6.59-2.67a.59.59,0,0,1-.36-.63l1.2-7.29a30.63,30.63,0,0,1-3.42-2.58l-6.68,3.15a.59.59,0,0,1-.7-.17l-4.37-5.61a.57.57,0,0,1,0-.72l4.68-5.71a33.38,33.38,0,0,1-1.67-3.95l-7.36-.61a.58.58,0,0,1-.53-.5l-1-7a.58.58,0,0,1,.37-.62l6.9-2.6a30.3,30.3,0,0,1,.54-4.25l-6.07-4.22a.56.56,0,0,1-.2-.69l2.67-6.59a.57.57,0,0,1,.62-.35l7.29,1.2a30.74,30.74,0,0,1,2.58-3.43L209.18,271a.57.57,0,0,1,.16-.7l5.61-4.38a.59.59,0,0,1,.72,0l5.72,4.69a29.65,29.65,0,0,1,3.94-1.67l.61-7.37a.58.58,0,0,1,.5-.52l7-1a.57.57,0,0,1,.62.36l2.6,6.91a32.19,32.19,0,0,1,4.26.53l4.21-6.07a.58.58,0,0,1,.69-.2l6.59,2.67a.57.57,0,0,1,.35.63l-1.2,7.29a30.74,30.74,0,0,1,3.43,2.58l6.68-3.15a.59.59,0,0,1,.7.17l4.37,5.61a.59.59,0,0,1,0,.72l-4.69,5.71a30.22,30.22,0,0,1,1.67,3.94l7.37.62a.57.57,0,0,1,.52.49l1,7.05a.57.57,0,0,1-.36.62l-6.91,2.6a30.28,30.28,0,0,1-.53,4.25l6.07,4.22a.58.58,0,0,1,.2.69l-2.67,6.59a.58.58,0,0,1-.63.35l-7.29-1.2a29.56,29.56,0,0,1-2.58,3.43l3.15,6.67a.56.56,0,0,1-.17.7l-5.61,4.38a.57.57,0,0,1-.71,0l-5.72-4.69a29.65,29.65,0,0,1-3.94,1.67l-.62,7.36a.58.58,0,0,1-.49.53l-7.05,1h-.08m-7.65-9h.12a28,28,0,0,0,4.82.6.57.57,0,0,1,.51.38l2.58,6.83,6.13-.86.61-7.28a.57.57,0,0,1,.39-.5,29.8,29.8,0,0,0,4.47-1.89.58.58,0,0,1,.64.06l5.65,4.64,4.88-3.81-3.11-6.6a.58.58,0,0,1,.09-.63,29,29,0,0,0,2.92-3.88.58.58,0,0,1,.59-.26l7.21,1.18,2.32-5.74-6-4.16a.58.58,0,0,1-.23-.59,29,29,0,0,0,.6-4.83.57.57,0,0,1,.38-.51l6.83-2.58-.86-6.13-7.28-.61a.55.55,0,0,1-.5-.39,29.26,29.26,0,0,0-1.9-4.47.58.58,0,0,1,.07-.63l4.63-5.65-3.8-4.89-6.6,3.11a.56.56,0,0,1-.63-.09,29,29,0,0,0-3.89-2.92.58.58,0,0,1-.26-.58l1.19-7.21-5.74-2.33-4.17,6a.57.57,0,0,1-.59.24,29,29,0,0,0-4.82-.61.57.57,0,0,1-.52-.37l-2.57-6.83-6.13.86-.61,7.28a.59.59,0,0,1-.39.5,30.36,30.36,0,0,0-4.48,1.89.58.58,0,0,1-.63-.06l-5.65-4.64-4.88,3.81,3.11,6.6a.56.56,0,0,1-.1.63,29.82,29.82,0,0,0-2.92,3.88.58.58,0,0,1-.58.27l-7.21-1.19-2.32,5.74,6,4.16a.59.59,0,0,1,.23.6,27.86,27.86,0,0,0-.6,4.82.57.57,0,0,1-.38.51l-6.83,2.58.86,6.13,7.28.61a.57.57,0,0,1,.5.39,28.84,28.84,0,0,0,1.9,4.47.58.58,0,0,1-.07.63l-4.63,5.66,3.8,4.88,6.6-3.11a.58.58,0,0,1,.63.09,28.42,28.42,0,0,0,3.89,2.92.6.6,0,0,1,.26.58L218.65,330l5.74,2.33,4.17-6a.55.55,0,0,1,.47-.25m6.07-9.59a18.89,18.89,0,1,1,17.53-11.8,18.9,18.9,0,0,1-17.53,11.8M228.46,314a17.75,17.75,0,1,0-9.67-9.53,17.73,17.73,0,0,0,9.67,9.53"/><path id="Path_2591" data-name="Path 2591" class="cls-6" d="M120.81,85.39a16.27,16.27,0,0,1,18.82-13.1,16.05,16.05,0,0,1,13,18.58.51.51,0,0,1,0,.13,16.27,16.27,0,0,1-18.82,13.1,16.05,16.05,0,0,1-13.05-18.58l0-.13"/><path id="Path_2592" data-name="Path 2592" d="M136.65,104.93a16.68,16.68,0,0,1-16.43-19.51.51.51,0,0,1,0-.13h0a16.88,16.88,0,0,1,19.49-13.56A16.63,16.63,0,0,1,153.25,91l0,.13a16.89,16.89,0,0,1-16.56,13.82M121.37,85.49a15.49,15.49,0,0,0,12.44,18l.12,0A15.73,15.73,0,0,0,152.09,90.9a15.49,15.49,0,0,0-12.43-18l-.13,0a15.71,15.71,0,0,0-18.15,12.63Z"/><path id="Path_2593" data-name="Path 2593" class="cls-7" d="M146.58,82,141,84a.41.41,0,0,0-.25.53.39.39,0,0,0,.11.17l.66.62a.4.4,0,0,1,0,.58l-3,3.25a.41.41,0,0,1-.59,0h0L134,85.62a.41.41,0,0,0-.59,0h0l-6.73,7.2a.41.41,0,0,0,0,.59l1.41,1.31a.41.41,0,0,0,.59,0h0l4.85-5.18a.41.41,0,0,1,.59,0h0l3.86,3.6a.42.42,0,0,0,.59,0l4.9-5.26a.41.41,0,0,1,.59,0h0l.72.67a.42.42,0,0,0,.58,0,.4.4,0,0,0,.1-.18l1.62-5.8a.41.41,0,0,0-.3-.51.36.36,0,0,0-.25,0"/><path id="Path_2594" data-name="Path 2594" class="cls-6" d="M86.66,295.25l.9,8.58,5.8.68V294.33Z"/><path id="Path_2595" data-name="Path 2595" d="M93.37,305.09H93.3l-5.8-.68a.59.59,0,0,1-.5-.52l-.9-8.58a.58.58,0,0,1,.5-.63l6.7-.91a.56.56,0,0,1,.65.49.19.19,0,0,1,0,.08v10.17a.58.58,0,0,1-.58.58m-5.28-1.77,4.7.55V295l-5.5.74Z"/><path id="Path_2596" data-name="Path 2596" class="cls-13" d="M94.29,319.45a40.09,40.09,0,0,1-11.05,0A2.59,2.59,0,0,1,81,316.53c0-.09,0-.17,0-.26,1-4.17,2.8-12.08,5.83-15.74l.75,2,1-1.87a.92.92,0,0,1,.69-.47l2.28-.29a.93.93,0,0,1,1,.73l.36,1.72.79-2.26,2.66,16.47a2.6,2.6,0,0,1-2.2,2.91"/><path id="Path_2597" data-name="Path 2597" d="M88.8,320.4a42.52,42.52,0,0,1-5.64-.38,3.17,3.17,0,0,1-2.71-3.57q0-.18.06-.33l.22-.9c1.06-4.32,2.81-11.55,5.72-15.07a.59.59,0,0,1,.82-.08.81.81,0,0,1,.17.24l.31.83.44-.79a1.51,1.51,0,0,1,1.12-.75l2.28-.29a1.49,1.49,0,0,1,1.57.92l.13-.36a.59.59,0,0,1,.59-.38.56.56,0,0,1,.52.48l2.65,16.48A3.18,3.18,0,0,1,94.37,320a41.59,41.59,0,0,1-5.57.38m-2.07-18.69c-2.39,3.55-3.93,9.88-4.88,13.78l-.22.9a2,2,0,0,0,.29,1.61,2.06,2.06,0,0,0,1.4.87,40.52,40.52,0,0,0,10.89,0,2,2,0,0,0,1.7-2.26L93.62,302.4l0,.12a.57.57,0,0,1-1.1-.07l-.37-1.72a.33.33,0,0,0-.38-.27l-2.28.29a.32.32,0,0,0-.25.17l-1,1.87a.57.57,0,0,1-.78.23.63.63,0,0,1-.26-.3Z"/><path id="Path_2598" data-name="Path 2598" d="M87.56,317.64a22.17,22.17,0,0,1-4.94-.52.57.57,0,0,1-.45-.68.58.58,0,0,1,.68-.45h0a26.63,26.63,0,0,0,11.58-.39.59.59,0,0,1,.73.37.58.58,0,0,1-.37.73h0a28.8,28.8,0,0,1-7.21.92"/><path id="Path_2599" data-name="Path 2599" d="M86.17,311.26a.58.58,0,0,1,0-1.16l5.44-.18a.57.57,0,0,1,.59.55h0a.59.59,0,0,1-.56.6l-5.44.18h0"/><path id="Path_2600" data-name="Path 2600" class="cls-6" d="M113.85,290.68l.87,12.52h7l.32-12.52Z"/><path id="Path_2601" data-name="Path 2601" d="M121.71,303.78h-7a.58.58,0,0,1-.57-.54l-.87-12.53a.58.58,0,0,1,.53-.61H122a.58.58,0,0,1,.58.57v0l-.33,12.53a.57.57,0,0,1-.57.56m-6.45-1.15h5.89l.3-11.38h-7Z"/><path id="Path_2602" data-name="Path 2602" class="cls-13" d="M112.9,310.27a2.52,2.52,0,0,0,1.94,2.5c4,.93,13.06,3,15.65,3.4,3.34.5,7.46-.53,9.23-2.49s-4-6.63-6.68-8.33c-4-2.53-7.93-7.53-9.55-7.75s-4.67,4.5-4.67,4.5l-5-2.09a62,62,0,0,0-.95,10.27"/><path id="Path_2603" data-name="Path 2603" d="M132.23,316.87a12.32,12.32,0,0,1-1.83-.13c-2.52-.38-10.91-2.3-15.69-3.41a3.13,3.13,0,0,1-2.39-3.06,63.42,63.42,0,0,1,1-10.38.58.58,0,0,1,.68-.45l.1,0,4.53,1.9c1-1.47,3.29-4.58,5-4.35,1,.13,2.16,1.23,4.2,3.17a38.2,38.2,0,0,0,5.58,4.66c1.76,1.1,6.88,4.86,7.26,7.61a1.92,1.92,0,0,1-.46,1.6c-1.53,1.7-4.78,2.8-7.92,2.8m-17.93-16.05a65.17,65.17,0,0,0-.81,9.46,1.94,1.94,0,0,0,1.5,1.93c3.83.89,13,3,15.59,3.39,3.23.48,7.14-.55,8.72-2.3a.74.74,0,0,0,.17-.67c-.25-1.85-4.07-5.13-6.73-6.79A39.54,39.54,0,0,1,127,301c-1.44-1.37-2.93-2.79-3.56-2.87s-2.73,2.1-4.1,4.23a.57.57,0,0,1-.71.22Z"/><path id="Path_2604" data-name="Path 2604" d="M132.17,314.56c-7.34,0-17.12-3.95-17.67-4.17a.58.58,0,0,1,.44-1.07c.18.07,17.72,7.17,22.81,2.57a.57.57,0,0,1,.77.85c-1.47,1.33-3.76,1.82-6.35,1.82"/><path id="Path_2605" data-name="Path 2605" d="M124.43,307a.58.58,0,0,1-.58-.58A.57.57,0,0,1,124,306l3.55-3.2a.59.59,0,0,1,.82,0,.58.58,0,0,1,0,.82h0l-3.55,3.2a.58.58,0,0,1-.38.15"/><path id="Path_2606" data-name="Path 2606" d="M84.68,209s-2.16,39.16-3.3,52.68S84,296.94,84,296.94l10.78-.57s.74-26.42,1.54-33.76c0,0,4.56-9.94,5.9-18.81s6-22.89,6-22.89,3.73,69.94,4.09,75.44c0,0,8.46.37,11.49-1.53,0,0,5.37-25.5,4.6-39.38s.07-48.35.07-48.35Z"/><path id="Path_2607" data-name="Path 2607" class="cls-6" d="M94.37,263.19h-3.3a.58.58,0,0,1,0-1.15h3.31a.57.57,0,0,1,.58.57.58.58,0,0,1-.57.58h0"/><path id="Path_2608" data-name="Path 2608" class="cls-6" d="M117.85,283.53h0a.58.58,0,0,1-.57-.59c.12-6.53,7.25-18.18,7.55-18.67a.58.58,0,1,1,1,.54l0,.06c-.07.12-7.27,11.87-7.38,18.09a.57.57,0,0,1-.57.56"/><path id="Path_2609" data-name="Path 2609" class="cls-6" d="M131.88,146.38c.78-.07,4.63,7.82,16.69,7.5s21.72-13.83,21.72-13.83,4.17-7,7.33-9.56,3.65-2.87,3.65-2.87a2.55,2.55,0,0,1,0,2.87,45.18,45.18,0,0,1-3.73,4.46,4,4,0,0,1,1.66,5.1c-1.56,4-6,3.64-6,3.64s-8.94,39.58-45.88,20.77Z"/><path id="Path_2610" data-name="Path 2610" d="M145.67,170.11c-5.65,0-11.86-1.71-18.58-5.13a.58.58,0,0,1-.3-.65l4.52-18.09a.59.59,0,0,1,.52-.44c.44,0,.74.3,1.4,1,1.8,2,6,6.7,15.32,6.47,11.42-.32,20.84-13,21.26-13.57s4.3-7.16,7.44-9.69,3.68-2.88,3.7-2.9a.58.58,0,0,1,.78.13,3.14,3.14,0,0,1,0,3.53,38,38,0,0,1-3.33,4.06,4.51,4.51,0,0,1,1.31,5.4,6.56,6.56,0,0,1-6,4c-.74,2.79-5.23,17.81-17.48,23.56a24.53,24.53,0,0,1-10.53,2.28m-17.65-6c10.69,5.34,20,6.23,27.68,2.63,13-6.08,16.93-23,17-23.22a.57.57,0,0,1,.6-.45c.16,0,4,.23,5.39-3.28a3.4,3.4,0,0,0-1.4-4.38.58.58,0,0,1-.23-.78.27.27,0,0,1,.09-.12,45.16,45.16,0,0,0,3.66-4.38,2,2,0,0,0,.27-1.68c-.5.39-1.42,1.1-3.08,2.44-3.05,2.45-7.15,9.34-7.19,9.4l0,0c-.4.56-10,13.73-22.18,14.07h-.76c-9.3,0-13.59-4.79-15.45-6.86l-.16-.19Z"/><path id="Path_2611" data-name="Path 2611" class="cls-10" d="M72.12,164.46s3.62-23.35,16.4-29.1,30.08-4.94,34.84-2.07,17.2,15.84,17.2,15.84l-11,15.33s2.51,41.28.52,52.17c0,0-12.21,1.43-17.4-.61s-22.22-4.9-30.36-1.16l1.48-52.25Z"/><path id="Path_2612" data-name="Path 2612" d="M121.49,217.7c-3.27,0-6.74-.26-9-1.15-5.33-2.1-22.17-4.72-29.91-1.17a.56.56,0,0,1-.76-.28.47.47,0,0,1,0-.26l1.46-51.56-11,1.75a.58.58,0,0,1-.66-.47.54.54,0,0,1,0-.18c.15-1,3.81-23.73,16.73-29.54,12.67-5.69,30.19-5.16,35.38-2,4.78,2.87,16.8,15.4,17.31,15.93a.58.58,0,0,1,.05.74l-10.86,15.16c.21,3.51,2.43,41.55.51,52.1a.58.58,0,0,1-.5.47,81.31,81.31,0,0,1-8.68.49m-28.08-5.23c7.77,0,16.15,1.7,19.51,3,4.45,1.76,14.5.85,16.69.63,1.82-11.32-.58-51.2-.6-51.61a.61.61,0,0,1,.1-.37l10.7-14.94c-2-2.07-12.52-12.87-16.74-15.4-4.45-2.68-21.59-3.61-34.31,2.11-11.05,5-15.16,23.78-15.93,27.87L83.73,162a.57.57,0,0,1,.66.48.34.34,0,0,1,0,.1L82.94,214a30.28,30.28,0,0,1,10.47-1.52"/><path id="Path_2613" data-name="Path 2613" d="M93.57,204.67a.58.58,0,0,1-.1-1.15c19.27-3.4,24.91-16.73,25-16.86a.58.58,0,0,1,1.07.43c-.06.14-5.9,14-25.83,17.57h-.1"/><path id="Path_2614" data-name="Path 2614" d="M128.65,180.79H103.78L111.57,153h24.87Z"/><path id="Path_2615" data-name="Path 2615" class="cls-6" d="M74.32,164.56l12.58-5.63s-1.77,21.33,23.7,11.48a18.15,18.15,0,0,1-.81-5.94c.13-3.21,2-.1,2.32,2.5s6.24,1.54,9.84.52,8.31-.36,0,4.23-10.13,2.53-10.13,2.53S101.2,189.1,88,186c-16.24-3.88-13.68-21.4-13.68-21.4"/><path id="Path_2616" data-name="Path 2616" d="M91.78,187a17.13,17.13,0,0,1-3.91-.46c-16.56-4-14.15-21.86-14.12-22a.56.56,0,0,1,.33-.44l12.59-5.63a.57.57,0,0,1,.76.3.62.62,0,0,1,0,.27c0,.08-.57,7.69,4.4,11.4,3.82,2.86,9.88,2.75,18-.31a19,19,0,0,1-.67-5.62c0-.46.08-1.88,1.07-1.91h0c1.26,0,2.21,2.84,2.37,4.38a.87.87,0,0,0,.41.65c1.33.9,5.33.34,8.7-.63,1.57-.44,4.68-.91,5.28.53.48,1.18-1,2.65-4.84,4.76-6.38,3.52-9.17,3.25-10.26,2.8-1.7,2.21-9.74,11.95-20.19,11.95m-16.93-22a24.48,24.48,0,0,0,.78,8.73c1.8,6.22,6,10.16,12.5,11.71,12.69,3,23.11-11.32,23.22-11.47a.58.58,0,0,1,.43-.24.6.6,0,0,1,.46.2s1.87,1.51,9.43-2.66c4.37-2.42,4.33-3.31,4.33-3.32-.18-.27-1.84-.44-3.9.14-1.71.49-7.46,2-9.66.48a2,2,0,0,1-.91-1.49,7.17,7.17,0,0,0-1.1-3.16,3.36,3.36,0,0,0-.06.63,17.66,17.66,0,0,0,.77,5.73.57.57,0,0,1-.34.72c-8.78,3.4-15.39,3.52-19.62.35-4.43-3.32-4.89-9.17-4.88-11.46Z"/><path id="Path_2617" data-name="Path 2617" d="M107.91,124.72c-1.08,1-3.21,2.21-4.87,1.38-1.24-.63-1.93-2.24-1.89-4.1a2.47,2.47,0,0,1-1.86-.46c-.83-.73-.67-2.08-.64-3,.15-4.07-2.22-4.7-1.64-7.46a6.59,6.59,0,0,1,2.48-3.71c1.61-1.22,2.7-.83,5.41-1.54,4.56-1.19,4.7-3.16,7.71-3.17.18,0,4.26,0,5.65,2.87,1.13,2.3-.19,5.09-1.55,6.56-1.77,1.9-3,1-4.8,2.55-3.11,2.8-.76,7.09-4,10"/><path id="Path_2618" data-name="Path 2618" class="cls-6" d="M117,117.46l-.18-.16a5.62,5.62,0,0,1-2.08-2.85c-1-5-5.56-6.76-5.77-2.2,0,1.15-4.25,1.09-3.75,2.3,1.3,3.14,1.33,2.3-.51,3.46a1.39,1.39,0,0,0-.6.14,2.1,2.1,0,0,0-.75,2.85,2.47,2.47,0,0,0,1.49,1.34v5a4.57,4.57,0,0,1-2.85,4.24l-1.67.69s7.82,5.1,15.76-.5l-1.06-.48a5.36,5.36,0,0,1-3.16-4.71v-1a4.13,4.13,0,0,0,1.53-.13c2.22-.64,3-3.2,2.58-6.39l.9-.48a.68.68,0,0,0,.28-.93.7.7,0,0,0-.15-.19"/><path id="Path_2619" data-name="Path 2619" d="M108.08,134.92a16.31,16.31,0,0,1-8.06-2.2.58.58,0,0,1-.16-.8.56.56,0,0,1,.26-.22l1.68-.68a4,4,0,0,0,2.49-3.72v-4.57a3,3,0,0,1-1.43-1.49,2.66,2.66,0,0,1,1-3.61,2.17,2.17,0,0,1,.66-.19c.29-.18.53-.3.72-.41s.24-.12.31-.17c-.11-.32-.24-.64-.38-1s-.3-.68-.49-1.14a1,1,0,0,1,0-.84c.3-.62,1.16-.86,2.16-1.14a4.91,4.91,0,0,0,1.53-.59c.14-2.76,1.73-3.1,2.22-3.14h.16c1.69,0,3.85,2,4.53,5.28a5.13,5.13,0,0,0,1.89,2.53l.18.15a1.26,1.26,0,0,1,.13,1.78,1.39,1.39,0,0,1-.35.29l-.57.3c.33,3.55-.76,6-3,6.61a4.59,4.59,0,0,1-1.11.17v.37a4.8,4.8,0,0,0,2.82,4.19l1.06.48a.57.57,0,0,1,.29.76.63.63,0,0,1-.19.24,14.26,14.26,0,0,1-8.36,2.71m-6.41-2.61a13.63,13.63,0,0,0,13.24-.48l-.1,0a6,6,0,0,1-3.5-5.22v-1a.57.57,0,0,1,.57-.58h.06a3.68,3.68,0,0,0,1.32-.11c2.49-.72,2.34-4.27,2.17-5.76a.57.57,0,0,1,.3-.58l.9-.49a.08.08,0,0,0,0-.08.09.09,0,0,0,0-.09l-.17-.16a6,6,0,0,1-2.27-3.16c-.6-2.94-2.45-4.45-3.48-4.37s-1.13,1.47-1.15,2.07c0,1-1.23,1.3-2.38,1.62a6.24,6.24,0,0,0-1.39.5c.17.42.32.77.45,1.06.62,1.43.83,1.91-.44,2.6-.2.11-.46.24-.77.44a.66.66,0,0,1-.28.09.86.86,0,0,0-.39.09,1.54,1.54,0,0,0-.47,2.08,1.91,1.91,0,0,0,1.13,1,.57.57,0,0,1,.42.55v5a5.16,5.16,0,0,1-3.21,4.78Z"/><path id="Path_2620" data-name="Path 2620" d="M111.88,126.15h-.09a7.07,7.07,0,0,1-4.88-3.15.58.58,0,0,1,.21-.79.57.57,0,0,1,.79.21A5.92,5.92,0,0,0,112,125a.59.59,0,0,1,.48.66.58.58,0,0,1-.57.48"/><path id="Path_2621" data-name="Path 2621" d="M55.16,116.59a13.49,13.49,0,0,0-13.27-3.7c-5.21,1.42-7.84,5.93-9.69,9.1-3.27,5.62-1.69,7.65-4.26,10.91-4.56,5.78-15.62,1.95-21,6.39C-6,150,1.06,167.58,12.52,175.9c7.65,5.55,18.05,2.34,20.87,1.47,8.59-2.65,22.82-7.84,24.2-20.24.92-8.34-7.59-15-3-22,1.17-1.77,2.13-2.25,3-4.46,1.4-3.59,1.72-9.65-2.41-14.12"/><path id="Path_2622" data-name="Path 2622" d="M41.72,117.57c2-1.58.72-6.27-.54-8.79-.47-1-2.57-5.18-5.33-5s-5.55,4.93-4.54,8.7c1.27,4.72,8.11,7,10.4,5.11"/><path id="Path_2623" data-name="Path 2623" class="cls-7" d="M28.5,146.31a41.33,41.33,0,0,1,25.65.12,10.48,10.48,0,0,1,7.21,8.78l8.76,50.42c.43,3.66-4.46,7.23-7.92,8.54a47.34,47.34,0,0,1-16.77,2.66c-8.27,0-18.26-.05-21.62-1.52l-.3-.13a11.37,11.37,0,0,1-6.44-11.32l1.79-7.41a98.05,98.05,0,0,0,2.71-25l-.29-14.67a10.52,10.52,0,0,1,7.23-10.49"/><path id="Path_2624" data-name="Path 2624" class="cls-7" d="M69.86,168s-7-19.37-14.83-21.23l4,27.44Z"/><path id="Path_2625" data-name="Path 2625" class="cls-7" d="M11.15,179.27a9.4,9.4,0,0,1-3.19-10c1-3.3,2.17-7.27,3.23-10.14,3.61-9.83,11.08-12,14-12.73.46-.11,5.64-.8,5.64-.8L27.71,175.7l-13.32,5.46Z"/><path id="Path_2626" data-name="Path 2626" d="M20.6,203.26a.58.58,0,0,1-.58-.58.68.68,0,0,1,.07-.27c2.8-5.31,8.42-8.95,16.27-10.54a46.5,46.5,0,0,1,16.8-.21,35.24,35.24,0,0,1,10.56,4.49.57.57,0,0,1,.15.8.56.56,0,0,1-.77.17,34.7,34.7,0,0,0-10.16-4.33c-7.82-1.54-25.9-1.1-31.83,10.16a.58.58,0,0,1-.51.31"/><path id="Path_2627" data-name="Path 2627" class="cls-14" d="M42.17,183.79l34.33,0a1.89,1.89,0,0,0,1.83-1.44l5.83-24.22a1.89,1.89,0,0,0-1.39-2.29,1.74,1.74,0,0,0-.45-.06L48,155.78a1.91,1.91,0,0,0-1.84,1.44l-5.82,24.23a1.9,1.9,0,0,0,1.38,2.29,2.4,2.4,0,0,0,.46,0"/><path id="Path_2628" data-name="Path 2628" d="M42.17,184.37a2.46,2.46,0,0,1-2.47-2.47,2,2,0,0,1,.07-.59l5.82-24.22A2.47,2.47,0,0,1,48,155.21l34.33-.05h0a2.48,2.48,0,0,1,2.4,3.06l-5.82,24.21a2.46,2.46,0,0,1-2.4,1.88l-34.32.06Zm40.15-28.06h0L48,156.36a1.32,1.32,0,0,0-1.27,1l-5.83,24.22a1.31,1.31,0,0,0,1,1.6,1.65,1.65,0,0,0,.32,0h0l34.33-.06a1.3,1.3,0,0,0,1.27-1L83.6,158a1.33,1.33,0,0,0-1-1.6,1.17,1.17,0,0,0-.32,0"/><path id="Path_2629" data-name="Path 2629" class="cls-6" d="M65.26,170.22A2.54,2.54,0,1,1,63.41,167a2.63,2.63,0,0,1,1.85,3.22"/><path id="Path_2630" data-name="Path 2630" class="cls-6" d="M82.14,167.3,81.71,169a1.2,1.2,0,0,1-1.46.87,1,1,0,0,1-.22-.08l-5.81-2.75a1.41,1.41,0,0,0-1.89.67.77.77,0,0,0-.07.16c-.54,1.65-.08,4.59,7.31,7.59,4.52,1.83,4.68-3.13,3.94-6.15a3.7,3.7,0,0,0-1.37-2"/><path id="Path_2631" data-name="Path 2631" d="M81.32,176.47a5.33,5.33,0,0,1-2-.44c-7.56-3.06-8.33-6.21-7.64-8.3a2,2,0,0,1,1.1-1.2,2,2,0,0,1,1.66,0l5.8,2.76a.63.63,0,0,0,.83-.3.61.61,0,0,0,.05-.12l.43-1.74a.58.58,0,0,1,.7-.42.66.66,0,0,1,.19.09,4.31,4.31,0,0,1,1.6,2.38c.53,2.22.61,5.28-.94,6.62a2.73,2.73,0,0,1-1.82.65m-7.71-9a.75.75,0,0,0-.33.07.83.83,0,0,0-.47.5c-.75,2.3,1.72,4.74,7,6.88,1.17.47,2,.47,2.6,0,1-.88,1.07-3.42.57-5.47a3.08,3.08,0,0,0-.5-1l-.19.75a1.78,1.78,0,0,1-2.16,1.29,1.75,1.75,0,0,1-.32-.12L74,167.6a.69.69,0,0,0-.37-.08"/><path id="Path_2632" data-name="Path 2632" class="cls-6" d="M32,159.87s-15.42,8.69-18.6,11.41S6.8,176.08,11.29,182c3.83,5,10.56.54,22.42-16.48a3.94,3.94,0,0,1,2.41-1.5c1.19-.27,2.92-1.21,3.72-4.33,0,0,5.62.8,6.12-1.94l-8.45-1.35a3.48,3.48,0,0,0-3.09,1Z"/><path id="Path_2633" data-name="Path 2633" d="M14.81,184.54a4.88,4.88,0,0,1-4-2.17c-4.48-5.92-1.45-8.45,1.48-10.9l.74-.62c3.1-2.66,17.33-10.71,18.61-11.44L34,157a4,4,0,0,1,3.6-1.16l8.44,1.35a.58.58,0,0,1,.48.65v0c-.49,2.73-4.77,2.6-6.26,2.46-1,3.13-2.9,4-4,4.27a3.36,3.36,0,0,0-2.07,1.27c-8.82,12.66-14.95,18.59-19.28,18.67h-.1m22.1-27.6a2.88,2.88,0,0,0-2.07.88l-2.4,2.46a.45.45,0,0,1-.13.1c-.15.08-15.4,8.69-18.5,11.34-.24.22-.5.43-.74.63-3,2.49-5.12,4.28-1.3,9.32a3.73,3.73,0,0,0,3.05,1.72h.08c3.87-.07,9.88-6,18.35-18.18A4.53,4.53,0,0,1,36,163.48c1.1-.25,2.58-1.13,3.28-3.91a.58.58,0,0,1,.64-.43s4.14.53,5.23-.92L37.43,157a4.57,4.57,0,0,0-.52-.05"/><path id="Path_2634" data-name="Path 2634" class="cls-6" d="M47.85,137a2.13,2.13,0,0,0,2.48-.41,12.87,12.87,0,0,0,1.83-2.33l.94,0a.55.55,0,0,0,.56-.53l.17-3.68a6.83,6.83,0,0,0,1.08-3,5.7,5.7,0,0,0-2.34-4.43c-1.67-.81-4.68-1.25-6.26,1.11-.68,1-1.77,1.75-2.44,1.63s-.88-.65-1.19-1.2c-.58-1-2-2-3.38-.37s-.43,3.18.44,4.45c.34.51,0,1.93-.17,2.53l-2,8.68a6.92,6.92,0,0,1-4.26,4.88l-2.18.83s2.41,7.31,12.05,7.11c7.36-.16,6.8-6.21,6.8-6.21l-1-.42a5.79,5.79,0,0,1-3.31-6.57l.65-2.86Z"/><path id="Path_2635" data-name="Path 2635" d="M42.75,152.9c-9.62,0-12.18-7.43-12.2-7.5a.57.57,0,0,1,.34-.72l2.18-.84a6.32,6.32,0,0,0,3.9-4.47L39,130.56c.32-1.36.3-1.8.22-1.94-.79-1.16-2.11-3.1-.4-5.14a2.5,2.5,0,0,1,2.21-1.07,2.88,2.88,0,0,1,2.11,1.53l.06.11c.29.53.44.75.73.8s1.25-.46,1.86-1.38c1.63-2.45,4.77-2.4,7-1.31,1.49.73,2.79,3.48,2.66,5a7.25,7.25,0,0,1-1.09,3.12l-.15,3.53a1.14,1.14,0,0,1-1.13,1.08h-.64A12.83,12.83,0,0,1,50.74,137a2.74,2.74,0,0,1-3.16.53l-.87-.44-.48,2.15a5.21,5.21,0,0,0,3,5.91l1,.43a.56.56,0,0,1,.34.47A6.47,6.47,0,0,1,49,150.65a7.68,7.68,0,0,1-5.82,2.25h-.41m-10.9-7.35c.73,1.6,3.55,6.36,11.28,6.2a6.6,6.6,0,0,0,5-1.86,5.33,5.33,0,0,0,1.26-3.38l-.64-.28A6.36,6.36,0,0,1,45.11,139l.65-2.87a.57.57,0,0,1,.69-.43l.13,0,1.52.77a1.58,1.58,0,0,0,1.83-.31A12.53,12.53,0,0,0,51.67,134a.58.58,0,0,1,.5-.28l.94,0,.14-3.66a.57.57,0,0,1,.08-.28,6.23,6.23,0,0,0,1-2.73,5.19,5.19,0,0,0-2-3.86c-1.29-.63-4.1-1.25-5.53.91-.7,1-2,2.06-3,1.88a2.26,2.26,0,0,1-1.54-1.39l-.06-.1a1.77,1.77,0,0,0-1.22-.94,1.45,1.45,0,0,0-1.21.66c-1.07,1.27-.48,2.36.47,3.75.43.64.21,1.76-.05,2.86l0,.14-2,8.68a7.52,7.52,0,0,1-4.61,5.28Z"/><path id="Path_2636" data-name="Path 2636" class="cls-6" d="M47.35,288.29l-5.12,15.25s5.57-.48,6.1-.37,7.05-13.91,7.05-13.91Z"/><path id="Path_2637" data-name="Path 2637" d="M42.23,304.11a.58.58,0,0,1-.58-.57.52.52,0,0,1,0-.18L46.8,288.1a.57.57,0,0,1,.61-.39l8,1a.58.58,0,0,1,.5.65,1.09,1.09,0,0,1-.05.17s-1.65,3.55-3.33,7c-3.58,7.38-3.79,7.33-4.35,7.23-.37-.05-3.31.15-5.94.38h-.05m5.51-15.2-4.68,14c1.66-.14,4.11-.33,5.06-.31.76-1.07,3.73-7.14,6.4-12.85Zm.67,13.68h0"/><path id="Path_2638" data-name="Path 2638" class="cls-14" d="M43.4,300.19s7.69-3.15,9.11.8c1.81,5,4.64,12.7,4.64,12.7a2.16,2.16,0,0,1-1.3,2.76,2.66,2.66,0,0,1-.56.12c-2.81.22-7,.41-8.95-.28-3.08-1.08-8.2-10.83-8.2-10.83l1.58-8.3s2.79-.4,3.68,3"/><path id="Path_2639" data-name="Path 2639" d="M50.77,317.35a15.29,15.29,0,0,1-4.62-.51c-3.2-1.12-8-10.09-8.52-11.11a.56.56,0,0,1-.05-.38l1.57-8.3a.57.57,0,0,1,.49-.46,4,4,0,0,1,4.13,2.84c1.43-.5,5.12-1.62,7.46-.58a3.25,3.25,0,0,1,1.82,1.95c1.79,5,4.61,12.62,4.64,12.7a2.73,2.73,0,0,1-2.35,3.64c-1.41.12-3,.21-4.57.21m-12-12c1.47,2.78,5.48,9.58,7.78,10.38,1.41.5,4.51.59,8.71.25a1.58,1.58,0,0,0,1.45-1.7,1.51,1.51,0,0,0-.09-.41c0-.07-2.84-7.73-4.63-12.7a2.14,2.14,0,0,0-1.2-1.28c-2-.9-5.85.28-7.15.81a.58.58,0,0,1-.75-.31.24.24,0,0,1,0-.08c-.57-2.17-2-2.56-2.65-2.6Z"/><path id="Path_2640" data-name="Path 2640" d="M55.18,313.82h-7.9a.56.56,0,0,1-.57-.57.57.57,0,0,1,.57-.58h7.9a.58.58,0,0,1,.57.58.57.57,0,0,1-.57.57"/><path id="Path_2641" data-name="Path 2641" class="cls-6" d="M32.85,292l1.74,15.35,7-1.92L41,291.64Z"/><path id="Path_2642" data-name="Path 2642" d="M34.58,308a.58.58,0,0,1-.57-.51L32.28,292.1a.57.57,0,0,1,.5-.64h0l8.19-.4a.58.58,0,0,1,.6.55l.54,13.82a.58.58,0,0,1-.43.58l-7,1.92-.16,0m-1.09-15.37,1.59,14.06L41,305l-.5-12.78Z"/><path id="Path_2643" data-name="Path 2643" class="cls-14" d="M33.93,318.68H45a2.44,2.44,0,0,0,2.45-2.45,2.17,2.17,0,0,0,0-.36c-.37-2.5-1.57-6.63-5.18-12.33a2.15,2.15,0,0,0-1.82-1H37.05a1.13,1.13,0,0,0-1.12,1L35.67,306l-1-1a.75.75,0,0,0-1.08,0,.81.81,0,0,0-.19.31,38.86,38.86,0,0,0-1.91,11,2.47,2.47,0,0,0,2.41,2.5h0"/><path id="Path_2644" data-name="Path 2644" d="M45,319.26h-11a3,3,0,0,1-3-3v-.06a38.93,38.93,0,0,1,1.93-11.12,1.33,1.33,0,0,1,2.24-.51l.16.16.12-1.2a1.71,1.71,0,0,1,1.7-1.53h3.37a2.73,2.73,0,0,1,2.3,1.27c3.66,5.8,4.88,10,5.25,12.56a3,3,0,0,1-2.55,3.43,3.29,3.29,0,0,1-.45,0m-10.86-14h0a.2.2,0,0,0-.13.12,37.79,37.79,0,0,0-1.88,10.79,1.87,1.87,0,0,0,1.84,1.91H45a1.86,1.86,0,0,0,1.88-1.87,2.45,2.45,0,0,0,0-.27c-.36-2.42-1.53-6.49-5.1-12.11a1.6,1.6,0,0,0-1.33-.74H37.05a.56.56,0,0,0-.55.5L36.25,306a.58.58,0,0,1-.64.51.53.53,0,0,1-.35-.17l-1-1a.16.16,0,0,0-.13-.06"/><path id="Path_2645" data-name="Path 2645" d="M45,316.61H33.79a.57.57,0,0,1-.58-.57.58.58,0,0,1,.57-.58H45a.58.58,0,0,1,.58.57.57.57,0,0,1-.57.58h0"/><path id="Path_2646" data-name="Path 2646" d="M59.09,199.89a2.58,2.58,0,0,0-1.6-1.48,39.44,39.44,0,0,0-32.65,4.7,2.61,2.61,0,0,0-1.18,2c-.52,7.37-2.48,45.92,9.71,91.55l8.22-.58,1.67-78s12.17,28.6,2.27,74.13l8.55,1.58s12.5-16.44,14.74-41.56c2-22.22-7.51-46.9-9.73-52.3"/><path id="Path_2647" data-name="Path 2647" class="cls-15" d="M35.46,260.64h0c-7.81-.34-8.69-10.91-8.7-11a.57.57,0,0,1,.53-.62.59.59,0,0,1,.62.54c0,.09.81,9.65,7.6,10a.57.57,0,0,1,.54.6.59.59,0,0,1-.57.55"/><path id="Path_2648" data-name="Path 2648" class="cls-15" d="M44,225.76a.57.57,0,0,1-.57-.56l-.22-7.41a5,5,0,0,1,2.1-4.19l3.2-2.25a.57.57,0,0,1,.8.15.58.58,0,0,1-.14.8l-3.2,2.25a3.77,3.77,0,0,0-1.61,3.21l.22,7.41a.57.57,0,0,1-.56.59h0"/></g></g></g></g></g></g></g></g></g></svg>