<svg xmlns="http://www.w3.org/2000/svg" xmlns:xlink="http://www.w3.org/1999/xlink" viewBox="0 0 348.34 335.95"><defs><style>.cls-1{fill:none;}.cls-2{clip-path:url(#clip-path);}.cls-3{opacity:0.6;}.cls-4{clip-path:url(#clip-path-3);}.cls-5{fill:#9ad8f3;}.cls-6{fill:#fff;}.cls-7{fill:#9fb6df;}.cls-8{fill:#1a8bcb;}.cls-9{fill:#59beeb;}.cls-10{clip-path:url(#clip-path-4);}.cls-11{fill:#b58caf;}.cls-12{fill:#f3f8fc;}.cls-13{clip-path:url(#clip-path-6);}.cls-14{fill:#e4b5d4;}.cls-15{clip-path:url(#clip-path-8);}.cls-16{fill:#cddcf1;}.cls-17{clip-path:url(#clip-path-10);}.cls-18{fill:#701e5e;}.cls-19{fill:#6dc3ea;}.cls-20{fill:#c69fc1;}.cls-21{fill:#5b72b7;}</style><clipPath id="clip-path"><rect class="cls-1" width="348.34" height="335.95"/></clipPath><clipPath id="clip-path-3"><rect class="cls-1" x="13.81" y="8.42" width="315.93" height="314.45"/></clipPath><clipPath id="clip-path-4"><polygon class="cls-1" points="102 35.63 91.06 120.11 175.4 120.11 186.35 35.63 102 35.63"/></clipPath><clipPath id="clip-path-6"><polygon class="cls-1" points="98.96 138.22 88.01 222.7 172.35 222.7 183.3 138.22 98.96 138.22"/></clipPath><clipPath id="clip-path-8"><polygon class="cls-1" points="205.87 158.16 194.92 242.64 279.26 242.64 290.21 158.16 205.87 158.16"/></clipPath><clipPath id="clip-path-10"><polygon class="cls-1" points="208.45 38.4 197.02 126.6 285.08 126.6 296.51 38.4 208.45 38.4"/></clipPath></defs><g id="Layer_2" data-name="Layer 2"><g id="Layer_1-2" data-name="Layer 1"><g class="cls-2"><g id="Group_274" data-name="Group 274"><g id="Group_257" data-name="Group 257"><g class="cls-2"><g id="Group_256" data-name="Group 256"><g id="Group_255" data-name="Group 255" class="cls-3"><g id="Group_254" data-name="Group 254"><g class="cls-4"><g id="Group_253" data-name="Group 253"><path id="Path_2873" data-name="Path 2873" class="cls-5" d="M261.47,308.64C197.3,344,111.35,307.26,66.55,266.57,53.75,255,22.73,226,15.4,179.47c-9.1-57.73,20.69-127.71,89-157.64,74.36-32.58,157.51-1.7,196.43,48.42C337.25,117.12,330,172.32,327.36,192c-3.06,23.13-12.14,87-65.89,116.6"/></g></g></g></g><path id="Path_2874" data-name="Path 2874" class="cls-6" d="M235,202.89l-64.33.4c-.41,0-.55.39-.55.76v54.73c0,5.24-36.55,18.85-36.9,18.16l-.05,5.79a2.12,2.12,0,0,0,2.16,2H190.1a19,19,0,0,0,7.24-1.51L227,270.77a13.61,13.61,0,0,0,8.71-12.34V203.65a.72.72,0,0,0-.68-.76"/><path id="Path_2875" data-name="Path 2875" class="cls-7" d="M163.62,200.11v54.74c0,5.4-3.47,10.31-8.92,12.64l-20,8.54a1.2,1.2,0,0,0-.69,1.55,1.21,1.21,0,0,0,1.27.76h55a18.7,18.7,0,0,0,7.15-1.43l22.16-9.33c5.5-2.32,9-7.26,9-12.68V200.1a.41.41,0,0,0-.45-.4h-64a.41.41,0,0,0-.45.4"/><path id="Path_2876" data-name="Path 2876" class="cls-8" d="M43.8,231.13l264.5.58h13.13a4.84,4.84,0,0,0,4.73-4.3L348.27,54.6c.54-4.2-2.52-8.18-6.75-8.18l-274,.25Z"/><path id="Path_2877" data-name="Path 2877" class="cls-9" d="M331.24,46.38c4.77,0,8.65,4.8,8,9.54L317,227.43a4.82,4.82,0,0,1-4.78,4.22l-2.09.08-270-.08a4.84,4.84,0,0,1-4.83-4.84c0-.21,0-.41,0-.62l22.73-175c.31-2.41,2.16-4.82,4.59-4.82Z"/><path id="Path_2878" data-name="Path 2878" d="M40.13,232.24a5.42,5.42,0,0,1-5.41-5.43,5.32,5.32,0,0,1,0-.69L50.86,105.9a.59.59,0,1,1,1.17.16L35.93,226.27A4.24,4.24,0,0,0,39.59,231a3.27,3.27,0,0,0,.54,0l272.18-.5a4.67,4.67,0,0,0,4.41-4l22-170.75a7.33,7.33,0,0,0-6.32-8.22,7.42,7.42,0,0,0-.94-.06H303.28a.59.59,0,0,1-.59-.59.58.58,0,0,1,.59-.59h28.15a8.5,8.5,0,0,1,8.5,8.52,8,8,0,0,1-.07,1.09l-22,170.75a5.89,5.89,0,0,1-5.57,5Z"/><path id="Path_2879" data-name="Path 2879" d="M256.05,47.57h0L76.62,47.48a.59.59,0,0,1-.59-.59.58.58,0,0,1,.59-.59h0l179.43.09a.58.58,0,0,1,.59.59.59.59,0,0,1-.59.59"/><path id="Path_2880" data-name="Path 2880" class="cls-8" d="M307.73,221.4h-.07a.58.58,0,0,1-.51-.66h0L328.56,57.82a.59.59,0,0,1,.66-.51.59.59,0,0,1,.51.66L308.32,220.89a.59.59,0,0,1-.59.51"/><path id="Path_2881" data-name="Path 2881" class="cls-6" d="M175.4,120.11H91.06L102,35.63h84.35Z"/></g></g></g><g id="Group_259" data-name="Group 259"><g class="cls-10"><g id="Group_258" data-name="Group 258"><path id="Path_2882" data-name="Path 2882" d="M148.93,44.71a9.29,9.29,0,0,1,2.12.93c7.28,4.45,1,14.75,3.89,21.43,2.48,5.72.18,10.24-4.7,14.77-2.82,2.63-5.44,4.8-6.67,8.48-.71,2.12-1.1,4.3-1.92,6.4C137.56,107,125.17,110.25,116.12,108a21.65,21.65,0,0,1-10.46-6c-3.22-3.37-7.1-9.14-2.41-13.94a16.24,16.24,0,0,1,5.46-3.4c3.42-1.45,9.17-2.94,10.73-6.89,1.18-3-.7-6.1,1.32-9,1.58-2.26,4.57-3,6.24-5.15,1.45-1.91,1.5-4.36,1.75-6.6,1.37-12.48,12.71-14.53,20.18-12.3"/><path id="Path_2883" data-name="Path 2883" class="cls-11" d="M98.66,119.74c3.2-9,6.55-20.4,9.9-27.82a12.57,12.57,0,0,1,9.7-7.22,171.05,171.05,0,0,1,38.5-1.5A8.63,8.63,0,0,1,164,88.67c3.27,8.41,5.33,20.15,7.15,32.54Z"/><path id="Path_2884" data-name="Path 2884" d="M171.2,121.79h0l-72.54-1.47a.59.59,0,0,1-.57-.6.52.52,0,0,1,0-.18c1-2.88,2.07-6.07,3.1-9.15,2.22-6.7,4.52-13.64,6.82-18.72a13.12,13.12,0,0,1,10.16-7.56,169.88,169.88,0,0,1,38.63-1.5,9.14,9.14,0,0,1,7.78,5.84c3.36,8.65,5.44,20.81,7.19,32.66a.59.59,0,0,1-.5.67h-.09m-71.7-2.63,71,1.43c-1.72-11.56-3.76-23.34-7-31.71a8,8,0,0,0-6.78-5.1,168.66,168.66,0,0,0-38.36,1.5,11.91,11.91,0,0,0-9.25,6.88c-2.28,5-4.57,11.92-6.78,18.6-.93,2.81-1.9,5.72-2.83,8.4"/><path id="Path_2885" data-name="Path 2885" class="cls-6" d="M136.54,70.41l-3.21,12.32-6.19.92a10.1,10.1,0,0,0,9.33,7.94c8,.55,12.5-5.08,13.33-8l-5.61-.81.58-12Z"/><path id="Path_2886" data-name="Path 2886" d="M137.55,92.22c-.37,0-.74,0-1.12,0-8.32-.57-9.85-8.34-9.87-8.42a.6.6,0,0,1,.48-.69h0l5.8-.87L136,70.26a.59.59,0,0,1,.6-.44l8.23.37a.58.58,0,0,1,.56.61h0l-.55,11.42,5.08.73a.6.6,0,0,1,.5.67s0,0,0,.08c-.78,2.77-5.05,8.52-12.83,8.52m-9.67-8.08A9.35,9.35,0,0,0,136.51,91,12.54,12.54,0,0,0,149,84l-4.9-.7a.6.6,0,0,1-.51-.61l.55-11.38L137,71,133.9,82.87a.6.6,0,0,1-.48.44Z"/><path id="Path_2887" data-name="Path 2887" class="cls-6" d="M150.2,61.09a1.27,1.27,0,0,0-1,.29,1.48,1.48,0,0,1,0-.21l1-7.44c-9.18,6.1-10.23,2.2-15.75,4,0,0-.5,3.45-.56,3.7a1,1,0,0,0-.94-.29c-.85.2-1.38,1.57-1.2,3s1.4,3,2.25,2.92c.79,3.75,3,7,5.93,7s6-3.23,7.74-7c.82.08,2.47-1.5,3-2.92s.37-2.83-.42-3"/><path id="Path_2888" data-name="Path 2888" d="M139.87,74.63c-2.9,0-5.4-2.75-6.42-7a4.36,4.36,0,0,1-2.35-3.38c-.21-1.82.49-3.4,1.65-3.68a1.49,1.49,0,0,1,.63,0c.12-.79.3-2,.43-2.91a.59.59,0,0,1,.41-.48,12.11,12.11,0,0,1,5-.44c2.5.18,4.86.36,10.56-3.43a.59.59,0,0,1,.82.16.63.63,0,0,1,.1.4l-.87,6.68a1.41,1.41,0,0,1,1.4.81,3.94,3.94,0,0,1-.1,3.05A5.8,5.8,0,0,1,148,67.6c-1.63,3.31-4.67,7-8.13,7m-5.93-8.17a.6.6,0,0,1,.57.47c.69,3.24,2.61,6.52,5.36,6.52s5.65-3.34,7.21-6.65a.56.56,0,0,1,.59-.33h0a4.75,4.75,0,0,0,2.38-2.55,2.9,2.9,0,0,0,.15-2.09c-.07-.14-.14-.16-.17-.17a.78.78,0,0,0-.53.2.6.6,0,0,1-.83-.13.62.62,0,0,1-.1-.38v-.19a.13.13,0,0,1,0-.06l.8-6.18c-5.29,3.3-7.8,3.11-10.23,2.93a11.07,11.07,0,0,0-4.25.29c-.14,1-.46,3.14-.5,3.35a.61.61,0,0,1-.7.47.59.59,0,0,1-.27-.14.46.46,0,0,0-.42-.15c-.41.1-.91,1.08-.76,2.39a3.16,3.16,0,0,0,1.59,2.41h.08"/></g></g></g><g id="Group_261" data-name="Group 261"><g class="cls-2"><g id="Group_260" data-name="Group 260"><path id="Path_2890" data-name="Path 2890" d="M98.7,61.75h-.08a.59.59,0,0,1-.51-.66h0l1.12-8.62a.6.6,0,0,1,.65-.52.59.59,0,0,1,.52.66v0l-1.12,8.61a.59.59,0,0,1-.58.52"/><path id="Path_2891" data-name="Path 2891" d="M175.92,120.69H90.38L95.65,80.1a.58.58,0,0,1,.67-.5.59.59,0,0,1,.5.65l-5.09,39.27h83.15l10.8-83.3H181.2a.59.59,0,0,1-.59-.59.58.58,0,0,1,.59-.59H187Z"/><path id="Path_2892" data-name="Path 2892" d="M101.38,41.07h-.08a.59.59,0,0,1-.51-.66h0l.7-5.38h45.74a.6.6,0,0,1,.59.59.59.59,0,0,1-.59.59H102.52L102,40.56a.59.59,0,0,1-.58.51"/><path id="Path_2893" data-name="Path 2893" class="cls-12" d="M172.35,222.7H88L99,138.22h84.33Z"/></g></g></g><g id="Group_263" data-name="Group 263"><g class="cls-13"><g id="Group_262" data-name="Group 262"><path id="Path_2894" data-name="Path 2894" class="cls-14" d="M176.74,197.86c-5.1-8.17-7.64-12.26-11.19-14.53-8.4-5.4-18.3-4.13-26.7-3.06s-17.67,2.26-27.19,9.06c-1.24.88-21.39,15.72-20.58,37.53a32.84,32.84,0,0,0,7.5,19.8,37.11,37.11,0,0,1,10.74-8.93s0,0,0-.06c-2.23-8.59.84-18.47,7.93-25.57L114,238.65a12.85,12.85,0,0,0,7,4.79c7.84,1.89,14-5.41,23.91-6.11,3.73-.27,9,.33,15.11,4.42q-.22-12.21-.44-24.42c.13,1.14.94,7.4,6.51,10.52,1.11.62,5.53,3.08,10.42,1,5.55-2.37,7.49-8.81,7.71-9.6,1.79-6.26-1.29-11.38-7.52-21.38"/><path id="Path_2895" data-name="Path 2895" class="cls-6" d="M178.24,220.64c-7.16-4.59-24.7-10.56-24.7-10.56a12.69,12.69,0,0,1-4.69-6.47l-.55-1.72s-2.69-.31-1.33,5.42c-.6-.13-.28-.22-.73-.07a2.16,2.16,0,0,0-1.64,2.58l.06.2s-1.32,2.06-.39,3.15c0,0-1.14,4.31,3,4.51,0,0,18.07,11.56,23,12.43s12.58-6.51,8-9.47"/><path id="Path_2896" data-name="Path 2896" d="M171.1,230.77a4.87,4.87,0,0,1-.93-.08c-4.79-.85-21.28-11.3-23-12.43a3.69,3.69,0,0,1-2.87-1.41,4.76,4.76,0,0,1-.61-3.55c-.71-1.17,0-2.76.39-3.37a2.87,2.87,0,0,1,.2-1.8,2.94,2.94,0,0,1,1.82-1.45l.17-.06c-.42-2.21-.24-3.77.53-4.64a1.92,1.92,0,0,1,1.62-.67.57.57,0,0,1,.49.4l.55,1.72a12,12,0,0,0,4.4,6.12c1.47.5,17.85,6.17,24.74,10.59a3.49,3.49,0,0,1,1.37,4.54c-1.14,2.93-5.31,6.09-8.82,6.09m-24.63-23h0a1.83,1.83,0,0,0-1.14.86,1.77,1.77,0,0,0-.08,1.18.58.58,0,0,1-.06.51c-.28.44-1,1.83-.43,2.44a.62.62,0,0,1,.12.54,3.86,3.86,0,0,0,.36,2.84,2.68,2.68,0,0,0,2.13.93.48.48,0,0,1,.29.09c.18.11,18,11.51,22.76,12.35,3.07.54,7.36-2.52,8.44-5.28a2.32,2.32,0,0,0-.9-3.12c-7-4.5-24.4-10.44-24.57-10.5a.8.8,0,0,1-.16-.08,13.24,13.24,0,0,1-4.9-6.77l-.39-1.23a.79.79,0,0,0-.28.23c-.33.38-.77,1.46-.07,4.38a.6.6,0,0,1-.44.72.57.57,0,0,1-.26,0l-.38-.1"/><path id="Path_2897" data-name="Path 2897" d="M136.94,161.87a34.41,34.41,0,0,0-1.73-5.1c-.55-.78-.94-1.59,1.34-2.91s8.28-4.83,11.52-4.62,5.11,2.53,3.82,4-1.86,2.14-1.11,2.29,1,1.08-1.41,2.29-11.08,6.56-12.43,4"/><path id="Path_2898" data-name="Path 2898" class="cls-6" d="M147.08,179l.16-7.52c4.3-1.77,3.23-4.62,3-6.86-.19-2.42-1.19-7.68-1.19-7.68-3.58,1.73-9.8.8-9.8.8s.63,1.51,0,2.2a5.09,5.09,0,0,0-.87,2.28,1.82,1.82,0,0,0-2.29-.38c-.77.42-.36,2.44,0,3.57a2.24,2.24,0,0,0,1.51,1.42s.24,1.08.47,2.08l-4.44,11.73-4.54,1.53,13.65,2.7,8.08-5.06Z"/><path id="Path_2899" data-name="Path 2899" d="M142.77,185.49h-.11L129,182.78a.59.59,0,0,1-.07-1.14l4.28-1.44,4.27-11.3-.36-1.59a2.74,2.74,0,0,1-1.57-1.69c-.41-1.31-.91-3.6.28-4.26a2.33,2.33,0,0,1,2.19-.11,4.08,4.08,0,0,1,.83-1.68c.25-.27.1-1.08-.1-1.57a.58.58,0,0,1,.32-.77.55.55,0,0,1,.31,0c.06,0,6.09.88,9.47-.75a.58.58,0,0,1,.78.27.44.44,0,0,1,.05.15c0,.22,1,5.33,1.2,7.74,0,.29.06.6.1.9.26,2,.6,4.68-3.16,6.4l-.14,6.65,3.3.71a.59.59,0,0,1,.45.7.6.6,0,0,1-.26.38l-8.08,5.06a.59.59,0,0,1-.31.09m-11.37-3.44,11.25,2.22,6.65-4.16-2.36-.5a.61.61,0,0,1-.47-.59l.16-7.52A.6.6,0,0,1,147,171c3.31-1.36,3.06-3.28,2.8-5.31,0-.33-.08-.65-.11-1-.14-1.83-.77-5.37-1-6.9-2.89,1.07-6.8.84-8.56.67a2.16,2.16,0,0,1-.4,1.91,4.47,4.47,0,0,0-.71,2,.59.59,0,0,1-.66.51.63.63,0,0,1-.38-.21,1.19,1.19,0,0,0-1.55-.24c-.18.12-.24,1.2.28,2.88a1.66,1.66,0,0,0,1.09,1,.58.58,0,0,1,.43.44s.25,1.08.47,2.08a.57.57,0,0,1,0,.34l-4.44,11.73a.59.59,0,0,1-.36.35Z"/><path id="Path_2900" data-name="Path 2900" d="M143.83,172.74a5.87,5.87,0,0,1-2.82-.65,4.74,4.74,0,0,1-2.28-2.71.59.59,0,1,1,1.14-.31h0a3.55,3.55,0,0,0,1.72,2c1.34.7,3.17.67,5.46-.11a.59.59,0,1,1,.38,1.12h0a11.08,11.08,0,0,1-3.6.67"/></g></g></g><g id="Group_265" data-name="Group 265"><g class="cls-2"><g id="Group_264" data-name="Group 264"><path id="Path_2902" data-name="Path 2902" d="M172.87,223.29H87.34l3.83-29.61a.59.59,0,0,1,1.18.13v0l-3.66,28.28h83.15l10.8-83.3H167.11a.59.59,0,1,1,0-1.18H184Z"/><path id="Path_2903" data-name="Path 2903" d="M148.69,138.81H124.3a.59.59,0,1,1,0-1.18h24.39a.59.59,0,0,1,.59.59.58.58,0,0,1-.59.59"/><path id="Path_2904" data-name="Path 2904" class="cls-8" d="M279.26,242.64H194.92l10.94-84.48h84.35Z"/></g></g></g><g id="Group_267" data-name="Group 267"><g class="cls-15"><g id="Group_266" data-name="Group 266"><path id="Path_2905" data-name="Path 2905" d="M228.83,175.4a15.13,15.13,0,0,1,14-4.2c5.19,1.29,7.43,5.81,9,9,2.79,5.64,1,7.76,3.27,11,4.08,5.76,11.76,1.85,17,6,8,6.32,7,28.61-5.59,37.47-8.39,5.91-18.71,3-21.52,2.15-8.53-2.44-18.72-9.66-19.28-19.86-.46-8.43,5.83-15.64,1.86-22.6-1-1.77-2-2.23-2.62-4.47a15,15,0,0,1,3.9-14.5"/><path id="Path_2906" data-name="Path 2906" d="M240.38,176.58c-1.83-1.54-.1-6.33,1.42-8.92.58-1,3.13-5.33,5.92-5.25s5.15,4.82,3.74,8.68c-1.76,4.81-8.94,7.31-11.08,5.5"/><path id="Path_2907" data-name="Path 2907" class="cls-6" d="M179.72,198.88s-4.79-5.07-6.18-6.36c-1.57-1.47,2.53-2,7.09,2.8Z"/><path id="Path_2908" data-name="Path 2908" d="M180,200.06l-.74-.78c-.05-.05-4.8-5.07-6.16-6.33a1.25,1.25,0,0,1-.5-1.23,1.05,1.05,0,0,1,.82-.74c1.48-.39,4.65.85,7.6,3.93l.23.24Zm-6.1-8h0c1.06,1,4.06,4.13,5.47,5.6l.56-2.2c-2.74-2.75-5.18-3.47-6-3.41"/><path id="Path_2909" data-name="Path 2909" class="cls-6" d="M179.4,197.85c-.07.28-.14.56-.22.84a2.66,2.66,0,0,0,.18,2.33,30.26,30.26,0,0,0,5,3.25c.48.28-.63,8.46-.63,8.46l5.76-2s.53-9.16-.2-12.89-3.69-5.49-4.53-5.37-1.3,1.7-1.3,1.7-1.6-1.38-2.79-.64c-.61.39-.42,1-.6,1.68Z"/><path id="Path_2910" data-name="Path 2910" d="M183,213.59l.13-.94a62.62,62.62,0,0,0,.73-8,27.27,27.27,0,0,1-4.94-3.3,3.2,3.2,0,0,1-.28-2.87c.07-.25.14-.5.21-.8l.64-2.62a2.63,2.63,0,0,0,.07-.49,1.82,1.82,0,0,1,.79-1.55,2.73,2.73,0,0,1,2.82.24,2.23,2.23,0,0,1,1.5-1.38c1.22-.17,4.42,1.87,5.19,5.85.73,3.75.23,12.65.21,13l0,.4Zm-1.55-19.66a.81.81,0,0,0-.48.13c-.17.1-.2.22-.24.66a3.87,3.87,0,0,1-.1.67L180,198c-.07.28-.15.58-.24.87s-.35,1.27.07,1.78a26.86,26.86,0,0,0,4.8,3.12c.36.2.8.45-.2,8.1l4.48-1.54c.09-1.79.41-9.16-.21-12.34-.67-3.41-3.34-4.94-3.87-4.9-.26,0-.65.72-.81,1.28l-.26.88-.7-.6a3.28,3.28,0,0,0-1.61-.72"/><path id="Path_2911" data-name="Path 2911" d="M183.94,201.73a1.53,1.53,0,0,1-1.36-.86,4,4,0,0,1-.31-2.67.59.59,0,0,1,1.14.33h0a2.71,2.71,0,0,0,.22,1.79c.14.26.3.23.36.22.34,0,.93-.59,1.14-1.85.33-2-2.16-4.11-2.19-4.13a.59.59,0,0,1,0-.83.58.58,0,0,1,.78-.07c.13.1,3,2.59,2.59,5.23-.26,1.55-1.09,2.66-2.11,2.82a1,1,0,0,1-.25,0"/><path id="Path_2912" data-name="Path 2912" class="cls-6" d="M255.47,252.66l-5.68,6.67a1.86,1.86,0,0,1-2.61.39,1.37,1.37,0,0,1-.23-.19l-1-1.24c-.7-.84-1.79-2.05-2.94-2.09,0,0-9.16.11-8.51,5.17a1.61,1.61,0,0,0,1.4.88,26.76,26.76,0,0,1,3.58.33l1.5.31a10.78,10.78,0,0,1,2.61,1.46,7.08,7.08,0,0,0,4.84,1.69c2.13-.07,11.72-7.14,11.72-7.14Z"/><path id="Path_2913" data-name="Path 2913" d="M248.17,266.64a7.79,7.79,0,0,1-5-1.83,9.8,9.8,0,0,0-2.4-1.35l-1.46-.3a23.82,23.82,0,0,0-3.48-.32,2.17,2.17,0,0,1-1.91-1.21.55.55,0,0,1-.06-.18,3.82,3.82,0,0,1,.92-3.12c2.27-2.62,7.93-2.72,8.17-2.72,1.37,0,2.53,1.25,3.4,2.3l1,1.24a1,1,0,0,0,.79.36h0a1.57,1.57,0,0,0,1.14-.56l5.68-6.68a.6.6,0,0,1,.83-.06l.09.09,4.67,6.24a.6.6,0,0,1-.12.83h0c-1.62,1.2-9.85,7.19-12.05,7.26h-.26m-13.12-5.44a1,1,0,0,0,.85.47,26.64,26.64,0,0,1,3.68.34l1.5.31.09,0A11.38,11.38,0,0,1,244,263.9a6.49,6.49,0,0,0,4.44,1.55c1.36,0,7.21-4,10.91-6.68l-3.86-5.17-5.2,6.11a2.69,2.69,0,0,1-2,1h0a2.21,2.21,0,0,1-1.69-.79l-1-1.24c-.42-.5-1.52-1.84-2.5-1.87,0,0-5.34.1-7.27,2.32a2.61,2.61,0,0,0-.65,2.08"/><path id="Path_2914" data-name="Path 2914" class="cls-6" d="M251.44,209.11v0a48.22,48.22,0,0,0-14.68-3.09A65.73,65.73,0,0,0,218,207.31a17.84,17.84,0,0,0-7.12,4.41l-3.52,3.55c-3.4,5-7.53,8.39-10.28,7.76-2.25-.51-3.09-3.83-4.76-10.46a17.76,17.76,0,0,1-.85-3.94,36.9,36.9,0,0,0-8.75,2.92c-1.15,3.49-1.74,9.65.1,17.35.76,3.19,1.67,6.95,4.5,8.95,4.26,3,12.87,2.34,21.64-2.49q-1.51,4.53-3,9c-5.1,13.6-3.81,18-1.77,19.55,3.37,2.55,8.33-3,18.52-2,5.72.57,7,2.6,15.83,3.59,5.66.63,8.52.91,10.16-.69,2.67-2.62,3.3-27.2,3.41-33.25,9.54,9.41,2.74,18.92.3,21.75a1.52,1.52,0,0,0-.24,1.76l4.05,6.79a1.4,1.4,0,0,0,1.95.38l.07-.05a38.44,38.44,0,0,0,12.23-12.72,37.66,37.66,0,0,0,4.29-10.07c3.24-22.1-23.27-30.34-23.27-30.34"/><path id="Path_2915" data-name="Path 2915" d="M244.6,266.64q-3.1-.11-6.17-.51a42.22,42.22,0,0,1-9.8-2.17,24.9,24.9,0,0,0-6-1.42,27.35,27.35,0,0,0-12,1.66c-2.8.9-5,1.6-6.86.2-3.16-2.38-2.64-9,1.56-20.23.8-2.36,1.65-4.86,2.56-7.61-8.23,4.16-16.53,4.9-21,1.77-3-2.13-4-6.1-4.73-9.3-2.31-9.64-.65-16-.09-17.66a.58.58,0,0,1,.29-.34,38.28,38.28,0,0,1,8.89-3,.58.58,0,0,1,.7.45.09.09,0,0,1,0,.05c.05.37.08.63.11.82a4.92,4.92,0,0,0,.2,1c.1.35.25.94.54,2.07,1.56,6.18,2.42,9.59,4.31,10,2.35.53,6.23-2.49,9.66-7.52l.07-.08,3.53-3.55a18.59,18.59,0,0,1,7.35-4.56v0a63.52,63.52,0,0,1,19-1.32,48.79,48.79,0,0,1,14.67,3.06.35.35,0,0,1,.14,0,45.93,45.93,0,0,1,13,7c8.32,6.45,12,14.75,10.64,24a38.29,38.29,0,0,1-4.37,10.29,39,39,0,0,1-12.4,12.91,2.22,2.22,0,0,1-1.68.33,1.86,1.86,0,0,1-1.18-.85l-4-6.8a1.71,1.71,0,0,1-.17-.39c-.54,5.11-1.3,9.2-2.38,10.25s-2.45,1.37-4.46,1.37m-24.43-5.4a25.28,25.28,0,0,1,2.56.12,26.6,26.6,0,0,1,6.27,1.47,41.19,41.19,0,0,0,9.56,2.12c5.69.64,8.27.86,9.68-.52,2-1.93,3-18.89,3.23-32.84a.59.59,0,0,1,.61-.57.57.57,0,0,1,.39.16c9.93,9.8,2.76,19.74.33,22.56a.94.94,0,0,0-.18,1.07l4.05,6.79a.7.7,0,0,0,.43.3,1,1,0,0,0,.76-.16,37.82,37.82,0,0,0,12.05-12.54,36.52,36.52,0,0,0,4.21-9.85c1.31-8.94-2.12-16.64-10.2-22.9a45.57,45.57,0,0,0-12.51-6.73.58.58,0,0,1-.19,0,47.94,47.94,0,0,0-14.48-3.05,66.36,66.36,0,0,0-18.6,1.23,17.48,17.48,0,0,0-6.86,4.27l-3.49,3.51c-3.76,5.48-8,8.6-10.87,8-2.6-.59-3.47-4-5.2-10.89-.28-1.12-.44-1.7-.53-2a5.81,5.81,0,0,1-.23-1.16,1,1,0,0,1,0-.18,35.85,35.85,0,0,0-7.76,2.63c-.59,1.92-2,7.84.19,16.79.76,3.16,1.61,6.73,4.27,8.61,4.23,3,12.88,1.95,21-2.53a.59.59,0,0,1,.8.23.6.6,0,0,1,0,.47c-1.1,3.3-2.09,6.25-3,9-3.9,10.4-4.57,16.93-2,18.9,1.36,1,3.13.47,5.8-.39a30.47,30.47,0,0,1,9.87-1.83m32.45-28.18c-.12,5.32-.4,13.54-1,20.38a2.17,2.17,0,0,1,.32-.47c2.18-2.52,8.44-11.17.71-19.91"/><path id="Path_2916" data-name="Path 2916" d="M244.61,266.64q-3.11-.11-6.18-.51a41.73,41.73,0,0,1-9.8-2.18,25.36,25.36,0,0,0-6-1.41,27.49,27.49,0,0,0-12,1.65c-2.8.9-5,1.61-6.86.21-3.16-2.38-2.64-9,1.56-20.23.79-2.32,1.63-4.82,2.56-7.61-8.23,4.16-16.52,4.9-21,1.77-3-2.13-4-6.1-4.73-9.3-2.31-9.64-.65-16-.09-17.67a.61.61,0,0,1,.29-.34,38.75,38.75,0,0,1,8.89-3,.59.59,0,0,1,.7.45.11.11,0,0,1,0,0c.05.37.08.63.11.83a5.06,5.06,0,0,0,.2,1c.1.35.25.93.54,2.06,1.56,6.19,2.42,9.6,4.31,10,2.34.53,6.23-2.49,9.66-7.53l.07-.08,3.53-3.55a18.56,18.56,0,0,1,7.35-4.56h0a67.13,67.13,0,0,1,19-1.27,48.79,48.79,0,0,1,14.67,3.06l.14,0a45.93,45.93,0,0,1,13,7c8.32,6.45,12,14.75,10.64,24a38,38,0,0,1-4.38,10.29,38.85,38.85,0,0,1-12.4,12.91,2.19,2.19,0,0,1-1.67.33,1.86,1.86,0,0,1-1.18-.85l-4-6.79a2.2,2.2,0,0,1-.17-.39c-.13,1.19-.26,2.32-.4,3.37a.59.59,0,1,1-1.18-.12v0c1.18-8.46,1.52-22.53,1.6-26.64a.6.6,0,0,1,.6-.58.66.66,0,0,1,.4.17c9.93,9.8,2.76,19.74.33,22.55a1,1,0,0,0-.18,1.07l4.05,6.79a.61.61,0,0,0,.43.3,1,1,0,0,0,.76-.16,37.92,37.92,0,0,0,12.05-12.54,36.84,36.84,0,0,0,4.21-9.85c1.31-8.92-2.11-16.62-10.17-22.88a45.85,45.85,0,0,0-12.55-6.75.58.58,0,0,1-.18,0,47.94,47.94,0,0,0-14.48-3.05,66,66,0,0,0-18.6,1.24,17.34,17.34,0,0,0-6.86,4.26l-3.49,3.51c-3.75,5.48-8,8.61-10.87,8-2.6-.59-3.46-4-5.2-10.89-.28-1.11-.43-1.69-.53-2a5.81,5.81,0,0,1-.23-1.16s0-.11,0-.18a36,36,0,0,0-7.76,2.63c-.59,1.92-2,7.85.19,16.79.76,3.16,1.62,6.74,4.27,8.61,4.23,3,12.88,1.95,21-2.53a.6.6,0,0,1,.81.24.61.61,0,0,1,0,.46c-1.12,3.36-2.11,6.32-3,9-3.9,10.4-4.58,16.92-2,18.89,1.36,1,3.13.47,5.8-.39a28.86,28.86,0,0,1,12.42-1.7,26.48,26.48,0,0,1,6.27,1.47,41.38,41.38,0,0,0,9.57,2.12,35.83,35.83,0,0,0,7.46.42.59.59,0,0,1,.66.51.58.58,0,0,1-.5.66,13.77,13.77,0,0,1-1.57.09m8-33.58c-.1,4.29-.37,13.09-1,20.39a2.51,2.51,0,0,1,.32-.48c2.18-2.51,8.44-11.17.71-19.91"/><path id="Path_2917" data-name="Path 2917" class="cls-6" d="M234.21,194.31l-2.92,11.2-5.63.83a9.18,9.18,0,0,0,8.49,7.23c7.24.5,11.36-4.63,12.12-7.33l-5.1-.73.53-10.87Z"/><path id="Path_2918" data-name="Path 2918" d="M235.12,214.19l-1,0a9.85,9.85,0,0,1-9-7.7.59.59,0,0,1,.47-.69h0l5.25-.78,2.82-10.83a.59.59,0,0,1,.6-.44l7.48.33a.6.6,0,0,1,.57.62h0l-.5,10.34,4.57.65a.6.6,0,0,1,.5.67s0,0,0,.08c-.71,2.53-4.62,7.78-11.72,7.79m-8.72-7.36a8.43,8.43,0,0,0,7.79,6.14,11.35,11.35,0,0,0,11.28-6.25l-4.38-.63a.6.6,0,0,1-.51-.61l.5-10.29-6.42-.28-2.8,10.74a.59.59,0,0,1-.48.44Z"/><path id="Path_2919" data-name="Path 2919" class="cls-6" d="M246.64,185.83a1.18,1.18,0,0,0-.94.26c0-.06,0-.13,0-.19l.79-5c-7.46,2.53-6.63,1.51-14.24,1.8,0,0-.46,3.15-.5,3.37a1,1,0,0,0-.86-.26c-.77.19-1.26,1.42-1.1,2.76s1.27,2.73,2,2.66c.72,3.41,2.69,6.35,5.4,6.35s5.44-2.94,7-6.35c.75.07,2.25-1.37,2.74-2.66s.34-2.57-.38-2.76"/><path id="Path_2920" data-name="Path 2920" d="M237.24,198.2c-2.66,0-4.94-2.51-5.88-6.43a4,4,0,0,1-2.15-3.1c-.2-1.68.46-3.15,1.54-3.4a1.24,1.24,0,0,1,.54,0c.11-.72.27-1.82.38-2.59a.6.6,0,0,1,.56-.5c2.16-.09,3.64-.07,4.83-.05,3,0,4,.06,9.25-1.73a.6.6,0,0,1,.75.37.72.72,0,0,1,0,.29l-.67,4.2a1.11,1.11,0,0,1,.36,0,1.34,1.34,0,0,1,.87.72,3.63,3.63,0,0,1-.08,2.82,5.4,5.4,0,0,1-2.9,3c-1.5,3-4.27,6.4-7.44,6.4m-5.41-7.53a.6.6,0,0,1,.59.47c.62,2.92,2.36,5.88,4.82,5.88s5.1-3,6.51-6a.59.59,0,0,1,.59-.34,4.21,4.21,0,0,0,2.13-2.28,2.55,2.55,0,0,0,.14-1.86q-.06-.1-.12-.12a.66.66,0,0,0-.44.17.58.58,0,0,1-.82-.14.53.53,0,0,1-.11-.37v-.17s0-.06,0-.08l.64-4c-4.68,1.53-5.86,1.52-8.73,1.48-1.08,0-2.4,0-4.27,0-.13.95-.4,2.73-.43,2.91a.61.61,0,0,1-.7.47.59.59,0,0,1-.27-.14.41.41,0,0,0-.33-.13c-.36.09-.79,1-.65,2.12a2.79,2.79,0,0,0,1.39,2.14h0"/><path id="Path_2921" data-name="Path 2921" class="cls-6" d="M234.44,184.08l2.32-4.94-.49,4.62Z"/></g></g></g><g id="Group_269" data-name="Group 269"><g class="cls-2"><g id="Group_268" data-name="Group 268"><path id="Path_2923" data-name="Path 2923" d="M244.26,158.75H212.19a.58.58,0,0,1-.59-.58.59.59,0,0,1,.58-.6h32.08a.59.59,0,0,1,.59.59.58.58,0,0,1-.58.59h0"/><path id="Path_2924" data-name="Path 2924" d="M201.28,194.17h-.08a.59.59,0,0,1-.51-.66h0l2.84-21.88a.59.59,0,0,1,.65-.53.6.6,0,0,1,.52.65v0l-2.84,21.89a.59.59,0,0,1-.58.51"/><path id="Path_2925" data-name="Path 2925" d="M279.77,243.23H194.24l5.57-42.9a.58.58,0,0,1,.67-.5.6.6,0,0,1,.5.65l-5.39,41.57h83.15l8.46-65.28a.58.58,0,0,1,.65-.52.57.57,0,0,1,.52.65v0Z"/><path id="Path_2926" data-name="Path 2926" class="cls-16" d="M285.08,126.6H197l11.43-88.2h88.06Z"/></g></g></g><g id="Group_271" data-name="Group 271"><g class="cls-17"><g id="Group_270" data-name="Group 270"><path id="Path_2927" data-name="Path 2927" class="cls-6" d="M287.35,62.66c1.85-2.47,1.2-9.18,1.2-9.18s-.6-3.75-3.75-3.8c-2.05.17-2.45,2.89-2.45,3.12,0,1.06.07,3.9.15,4.64.1.92.17,3.55-1.24,1.53s-3.78-2.16-2.95-1.48,2.3,3.6,2.85,4.38a3.75,3.75,0,0,0,1.53.86,22.92,22.92,0,0,1-1.82,8.72c-1.79,4.24-5.18,11.07-7.45,13.1,1.79,3,3.66,9.27,10.52,9.35,4.21-8.5,7.23-23.39,3.41-31.24"/><path id="Path_2928" data-name="Path 2928" d="M283.94,94.48h0c-6.07-.06-8.5-4.8-10.11-7.93-.32-.62-.62-1.21-.91-1.69a.58.58,0,0,1,.11-.74c2.2-2,5.57-8.8,7.3-12.9a22.36,22.36,0,0,0,1.77-8.1,2.93,2.93,0,0,1-1.42-.92c-.19-.27-.47-.75-.78-1.3a16.34,16.34,0,0,0-2-3,.83.83,0,0,1-.37-.87.76.76,0,0,1,.62-.53,4.44,4.44,0,0,1,3.56,2.09l.18.25a6.37,6.37,0,0,0,0-1.38c-.08-.73-.13-3.25-.15-4.69,0-.46.51-3.51,3-3.73h.06c2.88.05,4.08,2.84,4.32,4.3,0,.31.61,6.53-1.1,9.33,3.55,7.82,1,22.32-3.56,31.44a.6.6,0,0,1-.53.33m-9.79-9.83c.24.42.47.87.72,1.35,1.61,3.15,3.62,7,8.7,7.29,3.81-7.93,7-22.65,3.25-30.37a.58.58,0,0,1,.06-.62c1.4-1.87,1.25-7,1.08-8.77,0-.1-.56-3.2-3.14-3.27-1.61.17-1.88,2.52-1.88,2.54,0,2.37.09,4.08.14,4.57.13,1.15.1,2.58-.7,2.88s-1.37-.61-1.61-1a4,4,0,0,0-1.14-1.11c.38.57.81,1.3,1.28,2.12.3.53.57,1,.73,1.22a3.35,3.35,0,0,0,1.26.64.57.57,0,0,1,.37.56,23.5,23.5,0,0,1-1.86,8.94c-1.45,3.45-4.76,10.38-7.26,13"/><path id="Path_2929" data-name="Path 2929" class="cls-18" d="M276.46,77.17c-1.78,4.89-4.2,7.08-5.88,8.18-7.44,4.84-16.58-1.27-33.36-1.78a57.23,57.23,0,0,0-10.7.7,53.26,53.26,0,0,0-8.24,2,25.88,25.88,0,0,0-12,8.21,48,48,0,0,0-10.66,26.71c-.31,3.91,0,9.21,2.8,11.33,4.9-5.27,15.7,4.6,16.24,5.24,3.59,4.21,11.37-1.43,27.88-1.68,7.84-.12,12.84,1.05,14.66-1.66,1.31-1.95-.15-4.26-1-7.66-1-4.19-1.3-10.66,2.7-20.27a24.49,24.49,0,0,0,28.37-19.87l.15-.93c-4.12.47-10.46-7.65-11-8.54"/><path id="Path_2930" data-name="Path 2930" d="M210.93,133.88h0a.59.59,0,0,1-.58-.59c0-6.69,1.42-14.65,4.27-24.32a.57.57,0,0,1,.73-.4.59.59,0,0,1,.4.73c-2.81,9.57-4.19,17.42-4.22,24a.6.6,0,0,1-.59.59"/><path id="Path_2931" data-name="Path 2931" d="M241.53,73.77a5.19,5.19,0,0,0,2.88.71,7.7,7.7,0,0,0,4.82-2.6c2-2.12,3.22-5.59,2.06-7.63-.84-1.47-2.2-.92-3.17-2.56-1.1-1.87.47-3.39-.55-5-1.19-1.88-4.34-1.74-4.91-1.71-1.95.09-2.3,1-4.13,1s-2-1-3.7-1a5.64,5.64,0,0,0-4.52,2.15c-1.37,2-.57,4.59.58,6,1.38,1.65,2.61.77,4.67,2.11,3.56,2.34,2.1,6.5,6,8.59"/><path id="Path_2932" data-name="Path 2932" class="cls-6" d="M233.19,82.59l1.89-6.52a20.73,20.73,0,0,1-2.32-.47c-1.66-.89-.59-5.38-.59-5.38L231.33,69l3.82-6.64c2.8,2.63,4.26.05,7.2,1.34s.81,4.76.81,4.76,2.69-1.12,1.83,1.34a2.57,2.57,0,0,1-2.91,1.9l.21,11.18s5.14,1.52,6.14,1.79c-1.34-.06-11.14,4-21.1-.44Z"/><path id="Path_2933" data-name="Path 2933" d="M237.49,86.93a25.47,25.47,0,0,1-10.4-2.12.58.58,0,0,1-.3-.77.6.6,0,0,1,.38-.33l5.54-1.6,1.62-5.57a11.67,11.67,0,0,1-1.84-.42c-1.81-1-1.21-4.56-1-5.77l-.69-1a.59.59,0,0,1,0-.64l3.81-6.63a.59.59,0,0,1,.81-.22l.11.08a3.37,3.37,0,0,0,3.5,1,5.66,5.66,0,0,1,3.54.28,3,3,0,0,1,1.76,1.85,4.27,4.27,0,0,1-.16,2.6,1.57,1.57,0,0,1,1.16.36c.44.42.51,1.1.18,2a3.12,3.12,0,0,1-2.85,2.3l.19,10.14,5.71,1.67a.59.59,0,0,1,.42.72.61.61,0,0,1-.61.44,10.81,10.81,0,0,0-1.48.31,38,38,0,0,1-9.43,1.31m-8.34-2.56c6.85,2.44,13.47,1.07,16.85.26l-3.87-1.14a.58.58,0,0,1-.42-.56l-.21-11.18a.59.59,0,0,1,.58-.6h.06a2,2,0,0,0,2.29-1.5c.21-.6.12-.78.12-.78a2,2,0,0,0-1.16.17.58.58,0,0,1-.77-.31.6.6,0,0,1,0-.54,4.14,4.14,0,0,0,.58-2.79,1.88,1.88,0,0,0-1.12-1.12,4.63,4.63,0,0,0-2.87-.2,4.46,4.46,0,0,1-3.93-.77L232,69l.62.88a.58.58,0,0,1,.09.48c-.38,1.62-.56,4.22.28,4.71.3.1,1.9.39,2.12.41a.58.58,0,0,1,.52.65.3.3,0,0,1,0,.1l-1.89,6.52a.54.54,0,0,1-.4.4Z"/><path id="Path_2934" data-name="Path 2934" d="M235.8,76.71a7.16,7.16,0,0,1-.8,0,.59.59,0,0,1-.5-.67.58.58,0,0,1,.66-.5,4.47,4.47,0,0,0,4.1-1.69.6.6,0,0,1,.83-.13.59.59,0,0,1,.13.82,5.69,5.69,0,0,1-4.42,2.22"/></g></g></g><g id="Group_273" data-name="Group 273"><g class="cls-2"><g id="Group_272" data-name="Group 272"><path id="Path_2936" data-name="Path 2936" d="M285.6,127.19H196.35l6.61-51a.59.59,0,0,1,1.18.13v0L197.69,126h86.87l2.93-22.6a.59.59,0,0,1,1.17.12v0Z"/><path id="Path_2937" data-name="Path 2937" d="M293.56,61.75h-.08a.59.59,0,0,1-.51-.66h0L295.84,39H209l-.54,4.13a.58.58,0,0,1-.64.52.58.58,0,0,1-.53-.64v0l.67-5.16h89.25l-3,23.42a.58.58,0,0,1-.58.52"/><path id="Path_2938" data-name="Path 2938" class="cls-6" d="M314.94,135.86a2.54,2.54,0,0,1,2.5,2.57,2.61,2.61,0,0,1-.05.48l-2.78,21a3.5,3.5,0,0,1-3.26,3h-54a2.5,2.5,0,0,1-2.44-3l2.78-21a3.47,3.47,0,0,1,3.25-3Z"/><path id="Path_2939" data-name="Path 2939" d="M311.35,163.53h-54a3,3,0,0,1-2.27-1,3.44,3.44,0,0,1-.76-2.7l2.79-21a4.07,4.07,0,0,1,3.83-3.56h10.66a.58.58,0,0,1,.59.59.59.59,0,0,1-.59.59H260.91a2.89,2.89,0,0,0-2.67,2.53l-2.78,21a2.22,2.22,0,0,0,.48,1.77,1.79,1.79,0,0,0,1.38.61h54a2.87,2.87,0,0,0,2.67-2.53l2.78-21a2.25,2.25,0,0,0-.47-1.77,1.8,1.8,0,0,0-1.39-.61H278.75a.59.59,0,1,1,0-1.18h36.19a3,3,0,0,1,2.27,1A3.39,3.39,0,0,1,318,139l-2.78,21a4.1,4.1,0,0,1-3.84,3.56"/><path id="Path_2941" data-name="Path 2941" d="M308.58,146.44H265.64a.58.58,0,0,1-.59-.59.59.59,0,0,1,.59-.59h42.94a.59.59,0,0,1,0,1.18h0"/><path id="Path_2943" data-name="Path 2943" d="M307.77,152.58h-9a.59.59,0,0,1,0-1.18h9a.59.59,0,0,1,.59.59.58.58,0,0,1-.59.59h0"/><path id="Path_2945" data-name="Path 2945" d="M293.05,152.58H264.83a.59.59,0,1,1,0-1.18h28.23a.59.59,0,0,1,.59.59.58.58,0,0,1-.59.59h0"/><path id="Path_2946" data-name="Path 2946" class="cls-6" d="M75,59.27H28.62c-1.61,0-3,1.75-3,3.62l-.67,23.27a3,3,0,0,0,2.71,3.33h5.67l2.25,6.65,5-6.65H74.11a3.12,3.12,0,0,0,3-3.22l.67-23.47c0-1.87-1.21-3.54-2.83-3.54"/><path id="Path_2947" data-name="Path 2947" d="M35.56,96.74h-.09a.61.61,0,0,1-.47-.39l-2.11-6.25H27.76a3.22,3.22,0,0,1-2.33-1,4,4,0,0,1-1.08-2.94L25,62.88c.06-2.27,1.72-4.19,3.61-4.19H75a3.12,3.12,0,0,1,2.24,1,4.38,4.38,0,0,1,1.18,3.15L77.71,86.3a3.75,3.75,0,0,1-3.6,3.8H40.86L36,96.5a.59.59,0,0,1-.47.24M28.62,59.87c-1.23,0-2.39,1.45-2.44,3l-.66,23.27a2.84,2.84,0,0,0,.76,2.09,2.07,2.07,0,0,0,1.48.65H33.3a.58.58,0,0,1,.56.4l1.9,5.58,4.34-5.75a.57.57,0,0,1,.48-.23H74.11a2.55,2.55,0,0,0,2.42-2.66l.67-23.47a3.22,3.22,0,0,0-.84-2.3A1.94,1.94,0,0,0,75,59.86Z"/><path id="Path_2948" data-name="Path 2948" class="cls-19" d="M37.83,69.59H65.46A1.66,1.66,0,0,0,66.94,68a1.51,1.51,0,0,0-1.36-1.59H38A1.66,1.66,0,0,0,36.46,68a1.51,1.51,0,0,0,1.36,1.58"/><path id="Path_2949" data-name="Path 2949" class="cls-19" d="M37.63,75.41H65.27a1.4,1.4,0,0,0,1.47-1.32,1.29,1.29,0,0,0-1.24-1.33H37.74a1.4,1.4,0,0,0-1.47,1.33,1.28,1.28,0,0,0,1.24,1.32h.12"/><path id="Path_2950" data-name="Path 2950" class="cls-19" d="M37.42,81.76H65.05a1.64,1.64,0,0,0,1.48-1.59,1.5,1.5,0,0,0-1.36-1.58H37.54a1.65,1.65,0,0,0-1.48,1.58,1.51,1.51,0,0,0,1.36,1.59"/><path id="Path_2951" data-name="Path 2951" class="cls-6" d="M341.61.59H295.26c-1.61,0-3,1.75-3,3.62l-.66,23.27a3,3,0,0,0,2.7,3.33H300l2.25,6.64,5-6.64h33.53a3.13,3.13,0,0,0,3-3.23l.67-23.46c.06-1.87-1.21-3.54-2.82-3.54"/><path id="Path_2952" data-name="Path 2952" d="M302.2,38.05a.6.6,0,0,1-.56-.4l-2.11-6.24h-5.12a3.2,3.2,0,0,1-2.33-1A4,4,0,0,1,291,27.46l.66-23.26c.07-2.28,1.72-4.2,3.61-4.2h46.35a3.12,3.12,0,0,1,2.24,1A4.33,4.33,0,0,1,345,4.14l-.67,23.47a3.74,3.74,0,0,1-3.6,3.8H307.51l-4.84,6.41a.6.6,0,0,1-.47.23M295.26,1.18c-1.22,0-2.38,1.45-2.43,3l-.66,23.27a2.86,2.86,0,0,0,.75,2.09,2.05,2.05,0,0,0,1.49.65H300a.59.59,0,0,1,.56.4l1.89,5.59,4.35-5.75a.58.58,0,0,1,.47-.24h33.53a2.54,2.54,0,0,0,2.42-2.65l.67-23.47a3.2,3.2,0,0,0-.84-2.3,1.94,1.94,0,0,0-1.39-.63Z"/><path id="Path_2953" data-name="Path 2953" class="cls-20" d="M304.47,10.9H332.1a1.65,1.65,0,0,0,1.48-1.58,1.51,1.51,0,0,0-1.36-1.59H304.6a1.65,1.65,0,0,0-1.48,1.59,1.5,1.5,0,0,0,1.36,1.58"/><path id="Path_2954" data-name="Path 2954" class="cls-20" d="M304.28,16.73h27.63a1.41,1.41,0,0,0,1.47-1.33,1.27,1.27,0,0,0-1.24-1.32H304.39a1.4,1.4,0,0,0-1.48,1.32h0a1.29,1.29,0,0,0,1.24,1.33h.13"/><path id="Path_2955" data-name="Path 2955" class="cls-20" d="M304.06,23.08H331.7a1.65,1.65,0,0,0,1.48-1.59,1.51,1.51,0,0,0-1.36-1.58H304.19a1.64,1.64,0,0,0-1.48,1.58,1.5,1.5,0,0,0,1.36,1.59"/><rect id="Rectangle_436" data-name="Rectangle 436" class="cls-21" x="32.93" y="316.65" width="8.58" height="10.07"/><rect id="Rectangle_437" data-name="Rectangle 437" class="cls-21" x="56.05" y="316.65" width="10.07" height="8.58" transform="translate(-265.3 306.66) rotate(-76.72)"/><path id="Path_2956" data-name="Path 2956" d="M25.84,191.7s-2.56,20.25-.6,28.12S31.8,300.35,31.8,320H43.37l5.22-92.88,16.14,33.7a14.44,14.44,0,0,1,.85,8.68L56.05,320l10.82.74L85,265.3a16,16,0,0,0,.17-8.44L70.46,198.19Z"/><path id="Path_2957" data-name="Path 2957" class="cls-6" d="M48,225.67a.58.58,0,0,1-.46-.22l-6-7.46a.6.6,0,0,1,.12-.83.58.58,0,0,1,.8.09l6,7.46a.58.58,0,0,1-.09.83.54.54,0,0,1-.37.13"/><path id="Path_2958" data-name="Path 2958" class="cls-6" d="M32.37,324.48H42.44l1.49,7.6a2.34,2.34,0,0,1-1.76,2.79,2.1,2.1,0,0,1-.43.05H33.07a2.33,2.33,0,0,1-2.25-2.41,3.18,3.18,0,0,1,.06-.43Z"/><path id="Path_2959" data-name="Path 2959" d="M41.74,335.52H33.06a2.78,2.78,0,0,1-2.14-1,3,3,0,0,1-.63-2.52l1.5-7.6a.57.57,0,0,1,.58-.47H42.44a.58.58,0,0,1,.58.47l1.49,7.6a3,3,0,0,1-.63,2.52,2.78,2.78,0,0,1-2.14,1m-8.89-10.45-1.4,7.13a1.86,1.86,0,0,0,.38,1.54,1.56,1.56,0,0,0,1.23.6h8.68a1.55,1.55,0,0,0,1.23-.6,1.86,1.86,0,0,0,.38-1.54L42,325.07Z"/><path id="Path_2961" data-name="Path 2961" d="M42.81,333.09H32.37a.59.59,0,0,1-.59-.59.58.58,0,0,1,.59-.59H42.81a.59.59,0,0,1,0,1.18"/><path id="Path_2962" data-name="Path 2962" class="cls-6" d="M55.49,322.24l-2.75,9.16c-.48,1.59.49,3.27,1.91,3.32l18.95.64c1.17,0,1.64-1.77.65-2.52-3.09-2.31-7.19-5.53-8.31-7.06-2.61-3.53-5.23-.44-5.23-.44s-1.86-3.09-5.22-3.09"/><path id="Path_2963" data-name="Path 2963" d="M73.63,336h0l-18.95-.64a2.58,2.58,0,0,1-2-1.12,3.42,3.42,0,0,1-.46-3l2.75-9.15a.6.6,0,0,1,.57-.42,6.91,6.91,0,0,1,5.31,2.79,3.86,3.86,0,0,1,2.51-.95,4.09,4.09,0,0,1,3.1,1.93c.84,1.14,3.75,3.6,8.19,6.94a2.08,2.08,0,0,1,.65,2.36A1.74,1.74,0,0,1,73.63,336m-17.71-13.1-2.62,8.71a2.26,2.26,0,0,0,.29,1.94,1.4,1.4,0,0,0,1.08.63l19,.64a.55.55,0,0,0,.51-.44.89.89,0,0,0-.24-1c-3.21-2.41-7.27-5.61-8.43-7.18a3,3,0,0,0-2.19-1.46,3.08,3.08,0,0,0-2.11,1,.57.57,0,0,1-.5.21.59.59,0,0,1-.46-.28,6.24,6.24,0,0,0-4.28-2.79"/><path id="Path_2964" data-name="Path 2964" class="cls-6" d="M71.53,332.5l-17.16-.74Z"/><path id="Path_2965" data-name="Path 2965" d="M71.53,333.09h0l-17.16-.74a.6.6,0,0,1-.57-.62.57.57,0,0,1,.59-.56h0l17.16.74a.59.59,0,0,1,.57.61.58.58,0,0,1-.6.57"/><path id="Path_2966" data-name="Path 2966" class="cls-6" d="M45.42,128.85l-9.32,6.34L61.77,134l-7.4-4.74-1-4.59c1.32-.19,3.12-.33,3.7-1,1-1.27.55-5.64.55-5.64l1.12-.88a.48.48,0,0,0,.21-.63l0,0c-.94-1.5-1.83-2-2.25-3.52s-.23-1.29-1.86-4.55H45.05L45,115.64a1.81,1.81,0,0,0-2.45.34c-.69,1,.84,4.13,2.08,4.13Z"/><path id="Path_2967" data-name="Path 2967" d="M36.1,135.78a.6.6,0,0,1-.34-1.08l9-6.15-.73-8a4.12,4.12,0,0,1-1.7-1.85c-.51-1-.85-2.34-.3-3.11a2.16,2.16,0,0,1,2.35-.86l0-6.45a.6.6,0,0,1,.59-.59h9.77a.6.6,0,0,1,.53.33,17.54,17.54,0,0,1,1.76,4.13c0,.15.08.32.14.52a4.79,4.79,0,0,0,1.13,2,13.35,13.35,0,0,1,1,1.42,1.06,1.06,0,0,1-.33,1.46h0l-.82.65c.09,1.13.28,4.51-.71,5.75-.64.79-2.06,1-3.45,1.17l.81,3.72,7.2,4.61a.59.59,0,0,1,.17.82.57.57,0,0,1-.46.27l-25.69,1.23h0m7.76-19.9a1,1,0,0,0-.84.45,2.63,2.63,0,0,0,.4,1.87c.46.9,1,1.32,1.2,1.32a.59.59,0,0,1,.59.54l.8,8.73a.61.61,0,0,1-.25.55l-7.6,5.16,21.74-1-5.84-3.74a.57.57,0,0,1-.26-.37l-1-4.59a.58.58,0,0,1,.45-.7h0l.61-.09c.94-.12,2.37-.31,2.71-.74.63-.78.6-3.61.43-5.21a.6.6,0,0,1,.22-.53l1.1-.86a11.73,11.73,0,0,0-.9-1.2A6,6,0,0,1,56.1,113c-.06-.21-.1-.38-.14-.54a14.6,14.6,0,0,0-1.52-3.57H45.63l-.05,6.73a.59.59,0,0,1-.59.59.58.58,0,0,1-.32-.1,1.71,1.71,0,0,0-.82-.25"/><path id="Path_2968" data-name="Path 2968" d="M44.14,123.38c2,.66,3.91-.88,4.26-1.16,1.37-1.08,2.49-3,1.94-3.87-.3-.47-.84-.21-1.55-.77-1-.83-1.34-2.62-.78-3.1s1.18.36,1.94,0c.92-.44.45-1.85,1.16-3.1,1.16-2,3.87-.81,6-3,1.36-1.41,2-3.77,1.17-5.1a2.78,2.78,0,0,0-1.07-1c-3.28-1.81-3.77.66-7,.69-6.57.06-9.79,1.37-11,4.1-.81,1.84.18,4.79.66,6.21a23.23,23.23,0,0,1,.77,2.71c.31,1.46.21,1.84.39,2.71.12.61.77,3.87,3.1,4.65"/><path id="Path_2969" data-name="Path 2969" class="cls-6" d="M108.1,159.55H83.47a1.26,1.26,0,0,1-1.26-1.26h0v-42a1.25,1.25,0,0,1,1.26-1.26H108.1a1.25,1.25,0,0,1,1.26,1.26h0v42a1.26,1.26,0,0,1-1.26,1.26h0"/><path id="Path_2970" data-name="Path 2970" d="M108.1,160.15H83.47a1.86,1.86,0,0,1-1.85-1.86v-42a1.85,1.85,0,0,1,1.85-1.85H108.1a1.84,1.84,0,0,1,1.85,1.85v42a1.84,1.84,0,0,1-1.85,1.85m-24.63-44.5a.67.67,0,0,0-.67.67v42a.67.67,0,0,0,.67.67H108.1a.67.67,0,0,0,.67-.67h0v-42a.67.67,0,0,0-.67-.67H83.47Z"/><path id="Path_2971" data-name="Path 2971" class="cls-6" d="M102.39,144.93,105,133.76l7.2-6.39s4.1.07-2.61,7.09c0,0,3.2,6.27,1.14,8.76-.6.72-4.06,5.21-4.06,5.21Z"/><path id="Path_2972" data-name="Path 2972" d="M106.64,149a.57.57,0,0,1-.37-.14l-4.25-3.5a.58.58,0,0,1-.2-.59l2.58-11.17a.62.62,0,0,1,.18-.3l7.2-6.39a.54.54,0,0,1,.4-.15,1.86,1.86,0,0,1,1.68,1.06c.56,1.35-.61,3.55-3.59,6.72.72,1.52,2.9,6.6.88,9-.59.71-4,5.15-4,5.2a.58.58,0,0,1-.4.22.09.09,0,0,1-.07,0m-3.59-4.31,3.5,2.88c.91-1.19,3.2-4.16,3.7-4.75,1.49-1.79-.37-6.46-1.21-8.11a.61.61,0,0,1,.1-.68c3.9-4.08,3.77-5.43,3.64-5.75a.59.59,0,0,0-.42-.3l-6.85,6.08Z"/><path id="Path_2973" data-name="Path 2973" class="cls-8" d="M102.37,144.16s-4.2,10.08-10.36,11.2c-11.31,2.06-11.31-18.2-23-23.2a5.4,5.4,0,0,0-.79-.31,14.12,14.12,0,0,0-3.75-.76v.06c-8.29-1.26-22.66-2.2-36.55,2.92C16,137.43.59,150.35.59,173.79.59,190.68,25.47,205,25.47,205l1.87-4.6c8,3.87,21,3.24,26.85,1.76.54-.14,2.78-.73,6.45-1.65,4.2-1.06,7.65-1.9,10-2.45a9.47,9.47,0,0,0,4.1-3.36c2.63-4,.87-9.21,0-12.68-1.29-5.12-.86-7.36-.4-11.42,3.63,3.9,8.11,6.88,13.23,6.6,14.17-.74,17.55-16.33,22.39-30.51ZM16.51,172.91c.25-4.39,3.64-7.37,7.22-9.32-.52,5.21-.27,5.7-1.62,18.78-.18,1.77-.34,3.25-.48,4.52-2.9-3.85-5.41-8.75-5.12-14"/><path id="Path_2974" data-name="Path 2974" d="M25.47,205.57a.52.52,0,0,1-.3-.08C24.14,204.9,0,190.82,0,173.79,0,163.14,3.22,153.54,9.31,146a37.59,37.59,0,0,1,18.4-12.51c14.13-5.2,28.86-4.13,36.55-3a.55.55,0,0,1,.22,0,14.46,14.46,0,0,1,3.9.79,6.78,6.78,0,0,1,.85.33c5.58,2.38,8.6,8.15,11.27,13.24,3.07,5.87,5.73,10.94,11.4,9.91s9.87-10.74,9.92-10.84a.57.57,0,0,1,.73-.33l7.56,2.52a.59.59,0,0,1,.37.74h0c-.54,1.56-1.06,3.16-1.57,4.71-4.1,12.54-8.34,25.51-21.35,26.2-4.36.23-8.67-1.75-12.83-5.89a23,23,0,0,0,.54,10c.08.33.17.67.26,1,.92,3.49,2.18,8.27-.34,12.12a10,10,0,0,1-4.35,3.57.45.45,0,0,1-.11,0c-3.27.79-6.62,1.61-10,2.45l-5.68,1.46-.77.2c-6.09,1.54-18.6,2.07-26.68-1.54l-1.64,4a.6.6,0,0,1-.55.37m26-74.82a67.94,67.94,0,0,0-23.38,3.87H28c-12.93,3.64-26.86,17.44-26.86,39.15,0,14.92,20.28,28.05,24,30.33l1.62-4a.59.59,0,0,1,.77-.32h0c7.44,3.61,20.14,3.32,26.44,1.73l.76-.2c1-.27,3-.78,5.69-1.46,3.32-.84,6.65-1.66,9.91-2.44a8.77,8.77,0,0,0,3.8-3.12c2.24-3.41,1.06-7.89.2-11.16l-.28-1.05a24.68,24.68,0,0,1-.52-10.71l.1-.92a.59.59,0,0,1,.66-.51.56.56,0,0,1,.37.19c4.17,4.48,8.48,6.64,12.77,6.41,12.21-.64,16.13-12.66,20.3-25.38.45-1.37.91-2.78,1.38-4.16l-6.49-2.17c-1,2.11-4.91,10-10.57,11.05-6.52,1.19-9.5-4.5-12.66-10.53-2.7-5.15-5.49-10.48-10.71-12.71a5.84,5.84,0,0,0-.73-.29,13.25,13.25,0,0,0-3.35-.71.67.67,0,0,1-.31,0,86.76,86.76,0,0,0-12.88-1M21.63,187.48a.59.59,0,0,1-.47-.24c-3.73-5-5.49-9.78-5.24-14.37.22-3.9,2.75-7.2,7.53-9.8a.6.6,0,0,1,.8.24.65.65,0,0,1,.07.34c-.19,1.92-.28,3.2-.38,4.7-.17,2.6-.39,5.83-1.24,14.09-.15,1.42-.28,2.66-.4,3.75l-.09.77a.58.58,0,0,1-.58.52M17.1,172.94c-.22,3.92,1.16,8.07,4.11,12.35.09-.89.2-1.88.31-3,.85-8.24,1.07-11.46,1.24-14.05.08-1.18.15-2.24.27-3.6-3.76,2.29-5.75,5.07-5.93,8.27"/><path id="Path_2975" data-name="Path 2975" d="M30.59,202.24h-.08c-.12,0-11.24-1.76-9.8-12.11a.59.59,0,0,1,.66-.5.6.6,0,0,1,.51.67c-1.29,9.2,8.38,10.71,8.8,10.77a.59.59,0,0,1-.09,1.18"/></g></g></g></g></g></g></g></svg>