<svg id="Group_365" data-name="Group 365" xmlns="http://www.w3.org/2000/svg" xmlns:xlink="http://www.w3.org/1999/xlink" width="333.15" height="334.909" viewBox="0 0 333.15 334.909">
  <defs>
    <clipPath id="clip-path">
      <rect id="Rectangle_514" data-name="Rectangle 514" width="333.15" height="334.909" fill="none"/>
    </clipPath>
    <clipPath id="clip-path-3">
      <rect id="Rectangle_504" data-name="Rectangle 504" width="333.15" height="333.235" fill="none"/>
    </clipPath>
    <clipPath id="clip-path-4">
      <rect id="Rectangle_505" data-name="Rectangle 505" width="148.19" height="4.41" fill="none"/>
    </clipPath>
    <clipPath id="clip-path-5">
      <rect id="Rectangle_506" data-name="Rectangle 506" width="103.204" height="4.411" fill="none"/>
    </clipPath>
    <clipPath id="clip-path-9">
      <rect id="Rectangle_510" data-name="Rectangle 510" width="103.204" height="4.41" fill="none"/>
    </clipPath>
    <clipPath id="clip-path-10">
      <rect id="Rectangle_511" data-name="Rectangle 511" width="148.19" height="4.411" fill="none"/>
    </clipPath>
  </defs>
  <g id="Group_364" data-name="Group 364" clip-path="url(#clip-path)">
    <g id="Group_363" data-name="Group 363">
      <g id="Group_362" data-name="Group 362" clip-path="url(#clip-path)">
        <g id="Group_340" data-name="Group 340" opacity="0.6">
          <g id="Group_339" data-name="Group 339">
            <g id="Group_338" data-name="Group 338" clip-path="url(#clip-path-3)">
              <path id="Path_3921" data-name="Path 3921" d="M248.788,302.49c83.269-52.648,84.388-147.274,84.361-151.612-.3-49.133-22.767-117.851-79.949-142.147-6.608-2.808-43.1-15.98-75.722-3.336-38.07,14.756-63.442,46.575-69.889,74.366-.913,3.938-1.559,8.012-4.977,12.4-13.2,16.935-26.413,4.823-48.368,11.479C16.843,114.979-11.162,181.11,4.376,236.7c18.708,66.931,92,88.04,103.489,91.133C178.6,346.87,236.816,310.059,248.788,302.49" transform="translate(0 0)" fill="#98d8f4"/>
            </g>
          </g>
        </g>
        <path id="Path_3922" data-name="Path 3922" d="M357.736,348.248H161.914l1.261-215.006,191.648.011a2.821,2.821,0,0,1,2.821,2.82Z" transform="translate(-96.743 -79.611)" fill="#118bcb"/>
        <path id="Path_3923" data-name="Path 3923" d="M346.923,348.206H156.9a2.9,2.9,0,0,1-2.9-2.9V137.639a2.9,2.9,0,0,1,2.9-2.9H346.923a2.9,2.9,0,0,1,2.9,2.9v207.67a2.9,2.9,0,0,1-2.9,2.9" transform="translate(-92.013 -80.508)" fill="#fff"/>
        <path id="Path_3924" data-name="Path 3924" d="M346.027,347.913H156a3.5,3.5,0,0,1-3.5-3.5V136.743a3.5,3.5,0,0,1,3.5-3.5H346.027a3.5,3.5,0,0,1,3.5,3.5v207.67a3.5,3.5,0,0,1-3.5,3.5M156,134.45a2.3,2.3,0,0,0-2.293,2.293v207.67A2.3,2.3,0,0,0,156,346.706H346.027a2.3,2.3,0,0,0,2.293-2.293V136.743a2.3,2.3,0,0,0-2.293-2.293Z" transform="translate(-91.117 -79.611)"/>
        <g id="Group_343" data-name="Group 343" transform="translate(84.882 77.465)" opacity="0.6">
          <g id="Group_342" data-name="Group 342">
            <g id="Group_341" data-name="Group 341" clip-path="url(#clip-path-4)">
              <path id="Path_3925" data-name="Path 3925" d="M356.872,196.866H213.085a2.2,2.2,0,0,1-2.2-2.2v-.008a2.2,2.2,0,0,1,2.2-2.2H356.872a2.2,2.2,0,0,1,2.2,2.2v.008a2.2,2.2,0,0,1-2.2,2.2" transform="translate(-210.884 -192.456)" fill="#5ccbf2"/>
            </g>
          </g>
        </g>
        <g id="Group_346" data-name="Group 346" transform="translate(84.882 93.783)" opacity="0.6">
          <g id="Group_345" data-name="Group 345">
            <g id="Group_344" data-name="Group 344" clip-path="url(#clip-path-5)">
              <path id="Path_3926" data-name="Path 3926" d="M312.25,237.409H212.721a1.837,1.837,0,0,1-1.837-1.837v-.736A1.837,1.837,0,0,1,212.721,233H312.25a1.837,1.837,0,0,1,1.837,1.837v.736a1.837,1.837,0,0,1-1.837,1.837" transform="translate(-210.884 -232.999)" fill="#5ccbf2"/>
            </g>
          </g>
        </g>
        <g id="Group_349" data-name="Group 349" transform="translate(84.882 110.102)" opacity="0.6">
          <g id="Group_348" data-name="Group 348">
            <g id="Group_347" data-name="Group 347" clip-path="url(#clip-path-4)">
              <path id="Path_3927" data-name="Path 3927" d="M356.872,277.951H213.085a2.2,2.2,0,0,1-2.2-2.2v-.008a2.2,2.2,0,0,1,2.2-2.2H356.872a2.2,2.2,0,0,1,2.2,2.2v.008a2.2,2.2,0,0,1-2.2,2.2" transform="translate(-210.884 -273.541)" fill="#5ccbf2"/>
            </g>
          </g>
        </g>
        <g id="Group_352" data-name="Group 352" transform="translate(84.882 126.42)" opacity="0.6">
          <g id="Group_351" data-name="Group 351">
            <g id="Group_350" data-name="Group 350" clip-path="url(#clip-path-5)">
              <path id="Path_3928" data-name="Path 3928" d="M312.25,318.494H212.721a1.837,1.837,0,0,1-1.837-1.837v-.736a1.837,1.837,0,0,1,1.837-1.837H312.25a1.837,1.837,0,0,1,1.837,1.837v.736a1.837,1.837,0,0,1-1.837,1.837" transform="translate(-210.884 -314.084)" fill="#5ccbf2"/>
            </g>
          </g>
        </g>
        <g id="Group_355" data-name="Group 355" transform="translate(84.882 142.739)" opacity="0.6">
          <g id="Group_354" data-name="Group 354">
            <g id="Group_353" data-name="Group 353" clip-path="url(#clip-path-4)">
              <path id="Path_3929" data-name="Path 3929" d="M356.872,359.036H213.085a2.2,2.2,0,0,1-2.2-2.2v-.008a2.2,2.2,0,0,1,2.2-2.2H356.872a2.2,2.2,0,0,1,2.2,2.2v.008a2.2,2.2,0,0,1-2.2,2.2" transform="translate(-210.884 -354.626)" fill="#5ccbf2"/>
            </g>
          </g>
        </g>
        <g id="Group_358" data-name="Group 358" transform="translate(84.882 159.057)" opacity="0.6">
          <g id="Group_357" data-name="Group 357">
            <g id="Group_356" data-name="Group 356" clip-path="url(#clip-path-9)">
              <path id="Path_3930" data-name="Path 3930" d="M312.25,399.578H212.721a1.837,1.837,0,0,1-1.837-1.837v-.736a1.837,1.837,0,0,1,1.837-1.837H312.25a1.837,1.837,0,0,1,1.837,1.837v.736a1.837,1.837,0,0,1-1.837,1.837" transform="translate(-210.884 -395.168)" fill="#5ccbf2"/>
            </g>
          </g>
        </g>
        <g id="Group_361" data-name="Group 361" transform="translate(84.882 175.375)" opacity="0.6">
          <g id="Group_360" data-name="Group 360">
            <g id="Group_359" data-name="Group 359" clip-path="url(#clip-path-10)">
              <path id="Path_3931" data-name="Path 3931" d="M356.872,440.121H213.085a2.2,2.2,0,0,1-2.2-2.2v-.008a2.2,2.2,0,0,1,2.2-2.2H356.872a2.2,2.2,0,0,1,2.2,2.2v.008a2.2,2.2,0,0,1-2.2,2.2" transform="translate(-210.884 -435.711)" fill="#5ccbf2"/>
            </g>
          </g>
        </g>
        <path id="Path_3932" data-name="Path 3932" d="M383.3,517.8H315.437a2.528,2.528,0,0,1-2.527-2.528V503.86a2.528,2.528,0,0,1,2.527-2.528H383.3a2.528,2.528,0,0,1,2.528,2.528v11.41A2.528,2.528,0,0,1,383.3,517.8" transform="translate(-186.962 -299.543)" fill="#118bcb"/>
        <path id="Path_3933" data-name="Path 3933" d="M454.084,207.891a2.126,2.126,0,0,1,.539-1.467c1.118-1.252,3.624-3.965,4.81-4.481,1.554-.675,7.566-5.336,9.12-5.134s.2,3.513-1.148,4.593-3.918,2.229-3.58,3.04,5.472.541,6.417,2.027-2.77,10.133-6.958,11.079c-2.941.664-6.2-.664-7.88-1.513a2.13,2.13,0,0,1-1.17-1.852Z" transform="translate(-271.313 -117.589)" fill="#fff"/>
        <path id="Path_3934" data-name="Path 3934" d="M460.706,217.437a15.168,15.168,0,0,1-6.471-1.757,2.73,2.73,0,0,1-1.5-2.376l-.148-6.292a2.719,2.719,0,0,1,.692-1.883c1.629-1.826,3.823-4.112,5.02-4.632a28.739,28.739,0,0,0,2.791-1.742c3.27-2.174,5.494-3.587,6.648-3.437a1.328,1.328,0,0,1,1.149,1c.37,1.326-.809,3.713-2,4.664a18.452,18.452,0,0,1-1.582,1.079,10.725,10.725,0,0,0-1.71,1.231,13.985,13.985,0,0,0,1.8.331c1.771.256,3.778.547,4.467,1.629.638,1-.126,3.234-.637,4.475-1.259,3.054-3.769,6.856-6.7,7.517a8.232,8.232,0,0,1-1.815.194m6.814-20.926c-.877,0-4.045,2.106-5.765,3.249a27.116,27.116,0,0,1-2.978,1.843c-.755.328-2.474,1.946-4.6,4.329a1.519,1.519,0,0,0-.386,1.051l.149,6.292a1.525,1.525,0,0,0,.839,1.327c1.609.813,4.719,2.087,7.475,1.463,2.291-.517,4.627-3.864,5.828-6.755.863-2.076.879-3.211.754-3.41-.391-.615-2.335-.9-3.621-1.083-1.6-.232-2.568-.372-2.844-1.036-.426-1.022.831-1.819,2.285-2.741a17.711,17.711,0,0,0,1.475-1c.892-.713,1.8-2.649,1.59-3.4-.029-.1-.054-.116-.142-.128a.443.443,0,0,0-.058,0" transform="translate(-270.417 -116.694)"/>
        <path id="Path_3935" data-name="Path 3935" d="M383.046,89.592c13.043.03,26.525,2.009,39.485,17.377H354.859s-4.135,20.15-.632,23.828c4.887,5.132,20.863,9.266,26.576,9.251a2.276,2.276,0,0,1,2.283,2.277v9.019a2.274,2.274,0,0,1-2.062,2.266c-8.852.83-42.585,4.207-46.237-15.807-3.546-19.441-2.769-42.606,22.572-47.631,5.471-1.085,12.637-.989,17.07-.782,2.871.134,5.743.2,8.617.2" transform="translate(-199.117 -53.331)" fill="#72005d"/>
        <path id="Path_3936" data-name="Path 3936" d="M441.939,124.472s-8.741,1.628-10.249,3.5c-1.065,1.321-2.793,5.442-1.352,8.6a4.818,4.818,0,0,0,7.367,1.672,10.31,10.31,0,0,0,3.451-5.442,5.455,5.455,0,0,1,3.065-3.552,4.619,4.619,0,0,1,1.215-.324.975.975,0,0,0,.812-1.284,4.487,4.487,0,0,0-4.31-3.165" transform="translate(-256.796 -74.371)" fill="#fff"/>
        <path id="Path_3937" data-name="Path 3937" d="M433.748,138.995a5.562,5.562,0,0,1-1.334-.163,5.233,5.233,0,0,1-3.526-2.916c-1.536-3.362.174-7.669,1.431-9.227,1.6-1.985,9.691-3.54,10.608-3.711l.071-.013.072,0a5.1,5.1,0,0,1,4.849,3.573,1.579,1.579,0,0,1-1.312,2.077,4.047,4.047,0,0,0-1.057.282,4.833,4.833,0,0,0-2.717,3.166,10.966,10.966,0,0,1-3.661,5.748,5.591,5.591,0,0,1-3.424,1.18m7.327-14.817c-3.3.621-8.828,2.043-9.816,3.268-.923,1.144-2.6,5.062-1.272,7.968a4.032,4.032,0,0,0,2.717,2.246,4.366,4.366,0,0,0,3.73-.8,9.8,9.8,0,0,0,3.241-5.136,6.033,6.033,0,0,1,3.414-3.939,5.262,5.262,0,0,1,1.374-.365.372.372,0,0,0,.276-.172.368.368,0,0,0,.036-.318,3.889,3.889,0,0,0-3.7-2.751" transform="translate(-255.895 -73.47)"/>
        <path id="Path_3938" data-name="Path 3938" d="M413.8,62.486s-1.527,5.223,1.772,8.688a4.6,4.6,0,0,1-.425,6.675c-1.641,1.367-4.283,2.511-8.535,2.642a11.9,11.9,0,0,1-7.078-1.607,4.63,4.63,0,0,1,.241-7.833c2.453-1.4,5.052-4.742,3.757-12.672Z" transform="translate(-237.5 -34.881)" fill="#fff"/>
        <path id="Path_3939" data-name="Path 3939" d="M405.1,79.683a12.156,12.156,0,0,1-6.788-1.717,5.233,5.233,0,0,1,.275-8.86c2.265-1.3,4.7-4.44,3.46-12.051L401.869,56l11.77,4.708-.154.526c-.021.072-1.377,4.945,1.629,8.1a5.074,5.074,0,0,1,1.392,3.835,5.246,5.246,0,0,1-1.868,3.72c-2.075,1.728-5.071,2.664-8.9,2.782q-.325.01-.642.01m-1.709-21.776c.96,7.546-1.72,10.823-4.2,12.246a4.027,4.027,0,0,0-.208,6.806,11.451,11.451,0,0,0,6.727,1.507c3.557-.109,6.3-.951,8.167-2.5A4.036,4.036,0,0,0,415.3,73.1a3.88,3.88,0,0,0-1.061-2.932c-2.9-3.045-2.353-7.254-2.044-8.738Z" transform="translate(-236.603 -33.46)"/>
        <path id="Path_3940" data-name="Path 3940" d="M402.7,31.866s-3.759-.267-5.477-2.4a10.349,10.349,0,0,1-2.259-6.709c.137-1.986.89-7.53,5.751-9.037s9.074-.09,10.648-.637a11.782,11.782,0,0,1,6.524-.613c2.979.431,5.928,7.394-1.382,9.186-.21.052-.426.089-.64.12L402.629,23.72Z" transform="translate(-235.979 -7.342)"/>
        <path id="Path_3941" data-name="Path 3941" d="M407.734,39.436v-3.03a1.5,1.5,0,0,1,1.5-1.5h11.508s2.807,15.335-5.477,15.882-9.31-6.846-9.31-6.846a2.474,2.474,0,0,1-2.533-1.643c-.525-1.418-.479-3.9,1.78-3.765a2.757,2.757,0,0,1,2.176,1.022.2.2,0,0,0,.357-.121" transform="translate(-240.878 -20.857)" fill="#fff"/>
        <path id="Path_3942" data-name="Path 3942" d="M413.5,50.526a8.762,8.762,0,0,1-8.939-6.88,3.041,3.041,0,0,1-2.609-2.032,4.141,4.141,0,0,1,.239-3.683,2.319,2.319,0,0,1,2.143-.894,3.8,3.8,0,0,1,1.893.578v-2.1a2.105,2.105,0,0,1,2.1-2.1h12.012l.091.5c.073.4,1.759,9.881-1.711,14.335a5.734,5.734,0,0,1-4.32,2.258q-.465.031-.9.031m-7.931-8.143.08.582c.04.278,1.062,6.825,8.673,6.327a4.514,4.514,0,0,0,3.446-1.8c2.721-3.492,1.849-10.9,1.555-12.881H408.334a.9.9,0,0,0-.9.9v3.03a.8.8,0,0,1-1.444.482,2.2,2.2,0,0,0-1.729-.78,1.173,1.173,0,0,0-1.1.409,3.051,3.051,0,0,0-.076,2.544,1.842,1.842,0,0,0,1.9,1.253Z" transform="translate(-239.979 -19.961)"/>
        <path id="Path_3943" data-name="Path 3943" d="M664.331,190.154H603.719a3.189,3.189,0,0,1-3.189-3.189V164.97a3.189,3.189,0,0,1,3.189-3.189h60.612a3.189,3.189,0,0,1,3.189,3.189v21.994a3.189,3.189,0,0,1-3.189,3.189" transform="translate(-358.814 -96.663)" fill="#fff"/>
        <path id="Path_3944" data-name="Path 3944" d="M663.435,189.861H602.823a3.8,3.8,0,0,1-3.793-3.793V164.074a3.8,3.8,0,0,1,3.793-3.793h60.612a3.8,3.8,0,0,1,3.793,3.793v21.994a3.8,3.8,0,0,1-3.793,3.793m-60.612-28.372a2.588,2.588,0,0,0-2.585,2.585v21.994a2.588,2.588,0,0,0,2.585,2.585h60.612a2.588,2.588,0,0,0,2.586-2.585V164.074a2.588,2.588,0,0,0-2.586-2.585Z" transform="translate(-357.917 -95.767)" fill="#536876"/>
        <path id="Path_3945" data-name="Path 3945" d="M671.511,186.616H623.348a.6.6,0,0,1,0-1.207h48.163a.6.6,0,1,1,0,1.207" transform="translate(-372.086 -110.78)" fill="#536876"/>
        <path id="Path_3946" data-name="Path 3946" d="M728.057,202.607h-10.07a.6.6,0,0,1,0-1.208h10.07a.6.6,0,1,1,0,1.208" transform="translate(-428.633 -120.335)" fill="#536876"/>
        <path id="Path_3947" data-name="Path 3947" d="M655,202.607H623.348a.6.6,0,0,1,0-1.208H655a.6.6,0,1,1,0,1.208" transform="translate(-372.086 -120.335)" fill="#536876"/>
        <path id="Path_3948" data-name="Path 3948" d="M143.056,69.843H82.444a3.189,3.189,0,0,1-3.189-3.189V44.659a3.189,3.189,0,0,1,3.189-3.189h60.612a3.189,3.189,0,0,1,3.189,3.189V66.654a3.189,3.189,0,0,1-3.189,3.189" transform="translate(-47.354 -24.778)" fill="#fff"/>
        <path id="Path_3949" data-name="Path 3949" d="M142.16,69.55H81.548a3.8,3.8,0,0,1-3.793-3.793V43.763a3.8,3.8,0,0,1,3.793-3.793H142.16a3.8,3.8,0,0,1,3.792,3.793V65.757a3.8,3.8,0,0,1-3.792,3.793M81.548,41.178a2.588,2.588,0,0,0-2.585,2.585V65.757a2.588,2.588,0,0,0,2.585,2.586H142.16a2.588,2.588,0,0,0,2.585-2.586V43.763a2.588,2.588,0,0,0-2.585-2.585Z" transform="translate(-46.458 -23.882)" fill="#536876"/>
        <path id="Path_3950" data-name="Path 3950" d="M151.324,68.481H103.161a.6.6,0,0,1,0-1.208h48.163a.6.6,0,0,1,0,1.208" transform="translate(-61.277 -40.195)" fill="#536876"/>
        <path id="Path_3951" data-name="Path 3951" d="M207.869,84.472H197.8a.6.6,0,0,1,0-1.208h10.071a.6.6,0,0,1,0,1.208" transform="translate(-117.823 -49.75)" fill="#536876"/>
        <path id="Path_3952" data-name="Path 3952" d="M134.817,84.472H103.161a.6.6,0,0,1,0-1.208h31.656a.6.6,0,1,1,0,1.208" transform="translate(-61.277 -49.75)" fill="#536876"/>
        <rect id="Rectangle_512" data-name="Rectangle 512" width="66.991" height="28.373" rx="7.937" transform="translate(31.901 60.827)" fill="#fff"/>
        <path id="Path_3953" data-name="Path 3953" d="M142.155,179.2h-60.6a3.8,3.8,0,0,1-3.8-3.8V153.418a3.8,3.8,0,0,1,3.8-3.8H93.508a.6.6,0,0,1,0,1.208H81.553a2.593,2.593,0,0,0-2.591,2.591V175.4a2.594,2.594,0,0,0,2.591,2.591h60.6a2.594,2.594,0,0,0,2.591-2.591V153.418a2.593,2.593,0,0,0-2.591-2.591h-40.59a.6.6,0,0,1,0-1.208h40.59a3.8,3.8,0,0,1,3.8,3.8V175.4a3.8,3.8,0,0,1-3.8,3.8" transform="translate(-46.458 -89.397)" fill="#536876"/>
        <path id="Path_3954" data-name="Path 3954" d="M104.057,177.118h0Z" transform="translate(-62.174 -105.827)" fill="#536876"/>
        <path id="Path_3955" data-name="Path 3955" d="M151.324,176.826H103.161a.6.6,0,0,1,0-1.208h48.163a.6.6,0,1,1,0,1.208" transform="translate(-61.277 -104.931)" fill="#536876"/>
        <path id="Path_3956" data-name="Path 3956" d="M198.7,193.109h0Z" transform="translate(-118.72 -115.382)" fill="#536876"/>
        <path id="Path_3957" data-name="Path 3957" d="M207.869,192.816H197.8a.6.6,0,0,1,0-1.208h10.071a.6.6,0,0,1,0,1.208" transform="translate(-117.823 -114.485)" fill="#536876"/>
        <path id="Path_3958" data-name="Path 3958" d="M104.057,193.109h0Z" transform="translate(-62.174 -115.382)" fill="#536876"/>
        <path id="Path_3959" data-name="Path 3959" d="M134.817,192.816H103.161a.6.6,0,0,1,0-1.208h31.656a.6.6,0,1,1,0,1.208" transform="translate(-61.277 -114.485)" fill="#536876"/>
        <path id="Path_3960" data-name="Path 3960" d="M686.553,738.365l3.827,4.53a11.977,11.977,0,0,1,2.8,6.855,4.819,4.819,0,0,1-1.335,3.7,3.239,3.239,0,0,1-4.663,0l-5.9-6.11-4.7-5.44Z" transform="translate(-404.249 -441.169)" fill="#fff"/>
        <path id="Path_3961" data-name="Path 3961" d="M687.97,753.99a3.812,3.812,0,0,1-2.764-1.174l-5.9-6.11L674,740.573l11.207-3.968,4.1,4.849a12.5,12.5,0,0,1,2.937,7.2,5.432,5.432,0,0,1-1.5,4.159,3.811,3.811,0,0,1-2.765,1.177Zm-11.9-12.869,4.126,4.77,5.877,6.086a2.614,2.614,0,0,0,1.9.8h0a2.614,2.614,0,0,0,1.9-.807,4.223,4.223,0,0,0,1.168-3.233,11.3,11.3,0,0,0-2.655-6.509l-3.557-4.211Z" transform="translate(-402.712 -440.118)"/>
        <path id="Path_3962" data-name="Path 3962" d="M659.91,752l-.147,8.159-4.545,1.77a3.467,3.467,0,0,1-4.02-1.135l-1.653-2.179,2.793-11.834Z" transform="translate(-388.1 -446.197)" fill="#fff"/>
        <path id="Path_3963" data-name="Path 3963" d="M653,761.282a4.089,4.089,0,0,1-3.253-1.608l-1.825-2.406,3.062-12.971,8.565,5.9-.16,8.888-4.922,1.917a4.042,4.042,0,0,1-1.467.275m-3.772-4.289,1.481,1.952a2.874,2.874,0,0,0,3.32.937l4.168-1.623.134-7.43-6.577-4.534Z" transform="translate(-387.131 -444.714)"/>
        <path id="Path_3964" data-name="Path 3964" d="M632.654,768.085a4.42,4.42,0,0,0-2.352,2.156c-.98,1.764-.882,4.9-2.45,7.351s-7.155,6.175-7.645,8.723.1,4.312,2.254,5.684,12.349,3.235,16.171-4.606,4.509-10.193,3.627-17.348l-.063.056a2.57,2.57,0,0,1-3.765-.387,2.572,2.572,0,0,0-1.674-1Z" transform="translate(-370.474 -458.927)" fill="#fff"/>
        <path id="Path_3965" data-name="Path 3965" d="M627.45,792.92a13.343,13.343,0,0,1-6.209-1.327c-2.3-1.465-3.08-3.411-2.523-6.308.328-1.7,2.457-3.672,4.516-5.579a21.877,21.877,0,0,0,3.214-3.355,12.765,12.765,0,0,0,1.482-4.27,11.486,11.486,0,0,1,.949-3.049,5.016,5.016,0,0,1,2.714-2.444l.126-.036,4.233.645a3.154,3.154,0,0,1,2.066,1.24,1.967,1.967,0,0,0,2.882.3l.922-.818.141,1.14c.905,7.341.11,9.905-3.683,17.686a10.443,10.443,0,0,1-6.835,5.648,14.744,14.744,0,0,1-3.994.53m4.369-25.131a4.031,4.031,0,0,0-1.885,1.829,10.768,10.768,0,0,0-.825,2.72A13.9,13.9,0,0,1,627.464,777a22.391,22.391,0,0,1-3.41,3.591c-1.827,1.691-3.9,3.608-4.15,4.921-.463,2.4.113,3.87,1.985,5.061,1.273.811,5.446,1.722,9.227.654a9.28,9.28,0,0,0,6.078-5.016c3.549-7.281,4.367-9.716,3.681-16.047a3.172,3.172,0,0,1-3.825-1.005,1.953,1.953,0,0,0-1.28-.768Z" transform="translate(-369.578 -458.011)"/>
        <path id="Path_3966" data-name="Path 3966" d="M662.163,781.224a.6.6,0,0,1-.447-1.009,8.4,8.4,0,0,0,1.609-5.923.6.6,0,0,1,.559-.645.6.6,0,0,1,.645.559,9.418,9.418,0,0,1-1.92,6.82.6.6,0,0,1-.446.2" transform="translate(-395.278 -462.249)"/>
        <path id="Path_3967" data-name="Path 3967" d="M629.349,817c-7.553,0-10.174-3.981-10.31-4.2a.6.6,0,0,1,1.02-.646c.052.08,4.023,5.932,16.486,2.583a.6.6,0,1,1,.313,1.166A29.031,29.031,0,0,1,629.349,817" transform="translate(-369.817 -485.091)"/>
        <path id="Path_3968" data-name="Path 3968" d="M694.96,760.961a7.632,7.632,0,0,1,5.937-1.188.862.862,0,0,0,1.01-.76l.579-5.295s7.645.49,8.625,2.058-1.254,9.743-1.352,12.977,1.548,11.525-2.862,13.386-10.389,2.254-11.761-.1,2.548-6.077,3.136-10.487c.309-2.32-2.537-7.643-3.561-9.468a.862.862,0,0,1,.25-1.127" transform="translate(-415.019 -450.343)" fill="#fff"/>
        <path id="Path_3969" data-name="Path 3969" d="M698.692,783.34c-2.238,0-4.16-.545-4.976-1.942-.928-1.591.021-3.472,1.118-5.651a17.06,17.06,0,0,0,1.941-5.22c.229-1.717-1.653-5.822-3.489-9.092a1.464,1.464,0,0,1,.427-1.916,8.229,8.229,0,0,1,6.4-1.289.237.237,0,0,0,.189-.045.267.267,0,0,0,.107-.187l.642-5.869.576.037c1.866.12,8.036.642,9.1,2.341.68,1.089.256,3.82-.522,8.189a43.461,43.461,0,0,0-.738,5.128c-.019.628.031,1.467.089,2.439.235,3.916.59,9.835-3.32,11.486a20.724,20.724,0,0,1-7.542,1.592m-.3-24.069a6.851,6.851,0,0,0-3.975,1.233.258.258,0,0,0-.073.339c1.492,2.657,3.95,7.47,3.633,9.843a17.964,17.964,0,0,1-2.06,5.6c-.939,1.865-1.751,3.476-1.154,4.5,1.081,1.853,6.43,1.778,11-.154,3.123-1.319,2.8-6.724,2.585-10.3-.06-1-.112-1.865-.091-2.548a43.985,43.985,0,0,1,.757-5.3c.466-2.614,1.17-6.564.687-7.337s-4.19-1.469-7.576-1.734l-.516,4.717a1.484,1.484,0,0,1-.59,1.027,1.456,1.456,0,0,1-1.133.26,7.984,7.984,0,0,0-1.5-.145m-4.324.74h0Z" transform="translate(-414.121 -449.393)"/>
        <path id="Path_3970" data-name="Path 3970" d="M699.148,782.477a27.641,27.641,0,0,1-4.455-.409.6.6,0,1,1,.2-1.191c4.767.785,8.07.376,9.819-1.218,1.953-1.779,1.736-4.859,1.578-7.109-.029-.418-.057-.81-.07-1.165-.021-.566-.069-1.2-.121-1.876a28.962,28.962,0,0,1-.13-3.769A44.106,44.106,0,0,1,708.04,755.3a.6.6,0,1,1,1.141.4,43.712,43.712,0,0,0-2.009,10.117,28.021,28.021,0,0,0,.129,3.6c.052.686.1,1.333.123,1.923.012.343.039.721.068,1.125.176,2.5.416,5.914-1.969,8.087-1.412,1.286-3.516,1.925-6.374,1.925" transform="translate(-414.774 -451.047)"/>
        <path id="Path_3971" data-name="Path 3971" d="M671.492,546.978s-9.017,63.412-14.31,73.409l-18.229-6.469,8.82-73.017Z" transform="translate(-381.771 -323.186)" fill="#fff"/>
        <path id="Path_3972" data-name="Path 3972" d="M656.5,620.008l-19.177-6.8,8.962-74.18,24.909,6.382-.076.535c-.369,2.593-9.093,63.631-14.374,73.607Zm-17.862-7.619,17.269,6.128c4.952-10.6,13.06-66.13,13.938-72.211l-22.527-5.771Z" transform="translate(-380.795 -322.064)"/>
        <path id="Path_3973" data-name="Path 3973" d="M604.443,528.327a.294.294,0,0,0-.367.247c-.526,4.122-5.75,45.636-4.493,56.949.982,8.838,14.111,24.721,20.816,32.324a13.294,13.294,0,0,0,9.478,4.492l6.215.232-1.371-1.762a2.366,2.366,0,0,1,.313-3.236l5.4-4.71a.792.792,0,0,0,.111-1.074l-14.7-19.462a24.052,24.052,0,0,1-4.8-16.192l1.718-24.327,1.372-18.426Z" transform="translate(-358.132 -315.667)" fill="#fff"/>
        <path id="Path_3974" data-name="Path 3974" d="M636.468,622.326l-7.51-.28a13.963,13.963,0,0,1-9.908-4.7c-7.407-8.4-19.98-23.81-20.962-32.657-1.261-11.343,3.9-52.443,4.494-57.092a.9.9,0,0,1,1.115-.755l20.181,5.182-1.41,18.929-1.717,24.325a23.447,23.447,0,0,0,4.68,15.785l14.7,19.462a1.4,1.4,0,0,1-.2,1.893l-5.4,4.71a1.764,1.764,0,0,0-.233,2.41ZM603.735,528.1c-.764,6.033-5.665,45.495-4.447,56.458.982,8.834,14.781,25.315,20.668,31.991A12.748,12.748,0,0,0,629,620.839l4.921.184-.576-.74a2.972,2.972,0,0,1,.393-4.062l5.4-4.71a.188.188,0,0,0,.026-.254l-14.7-19.462a24.653,24.653,0,0,1-4.921-16.6l1.717-24.327,1.335-17.924Zm-.338-.086h0Z" transform="translate(-357.236 -314.771)"/>
        <path id="Path_3975" data-name="Path 3975" d="M704.418,568.531a.653.653,0,0,1-.1-.007.6.6,0,0,1-.5-.691c1.3-8.182,2.212-14.067,2.221-14.125a.6.6,0,1,1,1.193.184c-.009.058-.917,5.946-2.222,14.131a.6.6,0,0,1-.6.509" transform="translate(-420.525 -330.531)"/>
        <path id="Path_3976" data-name="Path 3976" d="M683.395,649.14a.6.6,0,0,1-.591-.731c1.942-9.027,5.029-27.485,7.278-41.38a.6.6,0,1,1,1.192.193c-2.251,13.909-5.342,32.388-7.289,41.441a.6.6,0,0,1-.59.477" transform="translate(-407.964 -362.394)"/>
        <path id="Path_3977" data-name="Path 3977" d="M669.372,296.461s-6.694-7.858-.823-13.986a10.249,10.249,0,0,1,8.527-3.018c4.519.5,11.133,3.265,13.707,14.639,0,0,.351,7.312,5.254,9.764s12.084,2.1,14.712,10.858-2.758,13.354-.131,18.258,7.263,7.11,6.962,14.668c-.394,9.9-20.053,18.04-34.415,7.006Z" transform="translate(-398.014 -166.936)"/>
        <path id="Path_3978" data-name="Path 3978" d="M584.917,394.054s-3.7,25.2-9.576,35.585-7.644,23.326-9.6,25.678-8.016,3.371-8.97,5.832l2.21,1.507,5.475,4.37s4-2.153,5.475-4.579c.839-1.385,5.1-8.556,8.608-14.457a58.281,58.281,0,0,0,6.852-17.422l6.772-30.177Z" transform="translate(-332.665 -235.445)" fill="#fff"/>
        <path id="Path_3979" data-name="Path 3979" d="M563.293,465.988l-5.769-4.6-2.588-1.764.174-.447c.6-1.561,2.682-2.5,4.882-3.5,1.659-.751,3.376-1.529,4.187-2.5.7-.842,1.495-3.616,2.414-6.829,1.5-5.258,3.563-12.459,7.13-18.76,5.758-10.172,9.467-35.124,9.5-35.375l.161-1.1,8.345,7.3-6.851,30.527a58.77,58.77,0,0,1-6.921,17.6c-3.464,5.832-7.77,13.075-8.61,14.461-1.538,2.537-5.536,4.707-5.705,4.8Zm-6.826-6.787,1.792,1.224,5.156,4.116c.978-.57,3.777-2.31,4.9-4.166.838-1.382,5.142-8.622,8.6-14.452a57.562,57.562,0,0,0,6.781-17.241l6.695-29.831-6.143-5.377c-.788,5.01-4.241,25.446-9.481,34.7-3.5,6.176-5.532,13.3-7.019,18.5-1.035,3.618-1.782,6.232-2.647,7.27-.989,1.187-2.833,2.022-4.617,2.83-1.644.744-3.337,1.511-4.023,2.427" transform="translate(-331.572 -233.687)"/>
        <path id="Path_3980" data-name="Path 3980" d="M669.447,371.761c-1.488-5.912-5.679-16.906-16.727-20.889a21.891,21.891,0,0,0-4.4-1.071c-2.584-.136-10.686-.283-12.214-.117a23.211,23.211,0,0,0-3.64.694c-5.47,1.512-14.71,5.567-18.535,16.094a1.722,1.722,0,0,0,.494,1.889l5.951,5.134a1.713,1.713,0,0,1,.588,1.459c-.4,4.235-2.228,22.48-4.476,27.149-2.548,5.292-6.273,19.994-6.273,19.994s21.463,15.142,44.985,11.418c0,0,.3-11.222-.293-18.279s-4.9-15.878-5.293-22.542,13.525-12.937,13.525-12.937l3.9-2.278a5.157,5.157,0,0,0,2.4-5.718" transform="translate(-364.603 -208.891)" fill="#72005d"/>
        <path id="Path_3981" data-name="Path 3981" d="M526.971,561.863c0-.686-8.625-2.989-10.34-5.146-1.353-1.7-11.118-7.211-15.185-9.464a1.757,1.757,0,0,0-2.49.9c-2.5,6.366-11.055,27.236-18.926,35.076a1.763,1.763,0,0,0,.492,2.859c5.353,2.46,17.771,8.309,22.216,11.6a1.765,1.765,0,0,0,2.314-.2c4.684-4.833,21.919-23.446,21.919-35.623" transform="translate(-286.5 -326.848)" fill="#fff"/>
        <path id="Path_3982" data-name="Path 3982" d="M502.879,597.733a2.339,2.339,0,0,1-1.4-.458c-4.417-3.272-16.933-9.159-22.109-11.538a2.325,2.325,0,0,1-1.335-1.725,2.39,2.39,0,0,1,.67-2.111c7.793-7.763,16.352-28.651,18.789-34.869a2.361,2.361,0,0,1,3.345-1.2c5.152,2.854,14,7.9,15.365,9.616.92,1.157,4.513,2.539,6.89,3.453,2.9,1.114,3.581,1.4,3.581,2.068,0,12.3-16.907,30.7-22.089,36.044a2.378,2.378,0,0,1-1.711.722m-3.18-50.995a1.153,1.153,0,0,0-.393.07,1.14,1.14,0,0,0-.683.665c-2.459,6.273-11.1,27.355-19.061,35.284a1.167,1.167,0,0,0-.333,1.044,1.133,1.133,0,0,0,.651.84c5.21,2.395,17.816,8.325,22.323,11.664a1.162,1.162,0,0,0,1.521-.134c5.069-5.231,21.534-23.13,21.747-34.974a28.717,28.717,0,0,0-2.805-1.172c-2.8-1.075-6.276-2.413-7.4-3.827-.89-1.119-6.5-4.6-15.005-9.312a1.153,1.153,0,0,0-.56-.147" transform="translate(-285.604 -325.952)"/>
        <path id="Path_3983" data-name="Path 3983" d="M517.414,640.632a.6.6,0,0,1-.413-.164c-2.779-2.611-16.67-8.494-16.81-8.553a.6.6,0,0,1,.47-1.113c.58.245,14.232,6.029,17.167,8.786a.6.6,0,0,1-.413,1.044" transform="translate(-298.641 -376.873)"/>
        <path id="Path_3984" data-name="Path 3984" d="M526.1,627.484a.6.6,0,0,1-.365-.124c-3.585-2.731-17.266-9.151-17.4-9.216a.6.6,0,1,1,.512-1.094c.568.266,13.937,6.54,17.624,9.349a.6.6,0,0,1-.366,1.084" transform="translate(-303.516 -368.651)"/>
        <path id="Path_3985" data-name="Path 3985" d="M541.4,618a.6.6,0,0,1-.38-.135c-1.488-1.206-6.33-3.711-13.634-7.051a.6.6,0,0,1,.5-1.1c5.231,2.392,11.887,5.585,13.893,7.211A.6.6,0,0,1,541.4,618" transform="translate(-314.9 -364.272)"/>
        <path id="Path_3986" data-name="Path 3986" d="M541.485,601.543a.6.6,0,0,1-.308-.085c-6.372-3.789-20.02-9.626-20.157-9.684a.6.6,0,0,1,.474-1.11c.138.059,13.86,5.927,20.3,9.757a.6.6,0,0,1-.309,1.123" transform="translate(-311.088 -352.889)"/>
        <path id="Path_3987" data-name="Path 3987" d="M550.088,587.009a.6.6,0,0,1-.287-.073c-2.062-1.117-19.757-9.446-19.935-9.529a.6.6,0,0,1,.514-1.093c.73.343,17.9,8.427,20,9.561a.6.6,0,0,1-.288,1.135" transform="translate(-316.385 -344.31)"/>
        <path id="Path_3988" data-name="Path 3988" d="M647.541,426.093a41.809,41.809,0,0,1-9.5,16.874,31.776,31.776,0,0,1-17.421,9.291c-4.221.766-10.659,1.889-17.335,2.879a30.382,30.382,0,0,0-8.389,2.518c-2.841,1.325-5.933,2.336-7.938,3.313a1.036,1.036,0,0,1-1.464-.71c-.357-1.577-1.278-3.576-.467-5.685a10.542,10.542,0,0,1,5.929-5.978c3.039-1.176,9.115-.392,12.643-.49s18.036-5.7,22.065-9.029a52.3,52.3,0,0,0,10.075-11.9,3.692,3.692,0,0,1,2.822-1.717l7.913-.656a1.022,1.022,0,0,1,1.07,1.3" transform="translate(-349.355 -253.812)" fill="#fff"/>
        <path id="Path_3989" data-name="Path 3989" d="M585.607,460.781a1.644,1.644,0,0,1-1.6-1.286c-.068-.3-.16-.626-.257-.969a7.71,7.71,0,0,1-.185-5.066,11.167,11.167,0,0,1,6.275-6.325c2.248-.87,5.938-.729,9.194-.6,1.346.052,2.617.1,3.65.072,3.195-.089,17.683-5.575,21.7-8.891a51.391,51.391,0,0,0,9.948-11.759,4.317,4.317,0,0,1,3.283-2l7.913-.657a1.626,1.626,0,0,1,1.7,2.06,42.557,42.557,0,0,1-9.646,17.126,32.592,32.592,0,0,1-17.751,9.469c-4.232.768-10.678,1.891-17.354,2.882a29.749,29.749,0,0,0-8.222,2.467c-1.475.688-3.042,1.3-4.424,1.845-1.311.514-2.549,1-3.5,1.465a1.639,1.639,0,0,1-.717.166m9.75-13.135a15.313,15.313,0,0,0-5.082.616,9.989,9.989,0,0,0-5.584,5.632,6.651,6.651,0,0,0,.219,4.3c.1.359.2.7.273,1.031a.44.44,0,0,0,.239.3.42.42,0,0,0,.372,0c1-.486,2.258-.98,3.592-1.5,1.433-.562,2.915-1.143,4.355-1.815a30.964,30.964,0,0,1,8.555-2.567c6.66-.988,13.093-2.109,17.316-2.876a31.372,31.372,0,0,0,17.091-9.112,41.305,41.305,0,0,0,9.359-16.622.413.413,0,0,0-.079-.379.426.426,0,0,0-.359-.151l-7.913.656a3.106,3.106,0,0,0-2.361,1.437,52.6,52.6,0,0,1-10.2,12.047c-3.984,3.291-18.7,9.063-22.432,9.167-1.073.03-2.363-.02-3.73-.073-1.185-.045-2.431-.093-3.63-.093" transform="translate(-348.459 -252.916)"/>
        <path id="Path_3990" data-name="Path 3990" d="M564.148,561.57c-2.058-.221-6.983,5.844-8.269,6.211s-1.544-.478-1.544-.478c-.956-1.617,4.962-6.983,4.962-6.983Z" transform="translate(-331.15 -334.788)" fill="#fff"/>
        <path id="Path_3991" data-name="Path 3991" d="M554.279,567.611a1.772,1.772,0,0,1-1.507-.793c-1.09-1.844,3.233-6.1,5.142-7.84a.6.6,0,0,1,.814.892c-2.944,2.688-5.288,5.706-4.919,6.331.049.071.291.339.883.119a16.474,16.474,0,0,0,2.335-2.02c2.71-2.574,4.745-4.383,6.209-4.226a.6.6,0,0,1-.128,1.2c-1.032-.115-3.67,2.4-5.25,3.9a12.18,12.18,0,0,1-2.745,2.276,2.388,2.388,0,0,1-.835.161" transform="translate(-330.175 -333.892)"/>
        <path id="Path_3992" data-name="Path 3992" d="M675.541,291.553c-.791.66-8.462,6.11-2.526,17.191,0,0,1.588,6.209-1.777,8.553a1.121,1.121,0,0,0-.078,1.785,9.953,9.953,0,0,0,6.34,2.15,16,16,0,0,0,7.964-2.12,1.12,1.12,0,0,0,.2-1.8,12.559,12.559,0,0,1-3.606-5.749,3.708,3.708,0,0,1,1-3.707,7.879,7.879,0,0,0,2.532-5.352c.264-4.485-2.446-5.778-4.221-6.947-3.605-2.375-5.828-4-5.828-4" transform="translate(-400.772 -174.201)" fill="#fff"/>
        <path id="Path_3993" data-name="Path 3993" d="M676.834,320.7l-.241,0a10.545,10.545,0,0,1-6.715-2.289,1.725,1.725,0,0,1,.118-2.745c2.806-1.954,1.7-7.19,1.553-7.842-3.727-7.011-2.785-13.487,2.59-17.775l.481-.4.381.278c.022.016,2.254,1.645,5.8,3.983.148.1.3.2.46.3,1.812,1.153,4.294,2.731,4.032,7.191a8.479,8.479,0,0,1-2.722,5.757,3.083,3.083,0,0,0-.836,3.1,11.89,11.89,0,0,0,3.433,5.469,1.743,1.743,0,0,1,.552,1.478,1.693,1.693,0,0,1-.859,1.3,16.528,16.528,0,0,1-8.03,2.2m-2.168-29.524c-2.857,2.38-6.641,7.511-2.016,16.146l.053.136c.069.27,1.65,6.644-2.017,9.2a.517.517,0,0,0-.038.824,9.352,9.352,0,0,0,5.964,2.011,15.465,15.465,0,0,0,7.658-2.042.494.494,0,0,0,.254-.382.523.523,0,0,0-.17-.45,13.1,13.1,0,0,1-3.778-6.03,4.286,4.286,0,0,1,1.172-4.312,7.291,7.291,0,0,0,2.343-4.947c.221-3.751-1.743-5-3.474-6.1-.164-.1-.324-.206-.477-.307-2.731-1.8-4.69-3.183-5.474-3.744" transform="translate(-399.876 -173.065)"/>
        <path id="Path_3994" data-name="Path 3994" d="M678.331,334.59a4.712,4.712,0,0,1-4.038-2.235.6.6,0,0,1,1.049-.6,3.642,3.642,0,0,0,4.513,1.356.6.6,0,1,1,.39,1.143,5.9,5.9,0,0,1-1.914.336" transform="translate(-402.839 -198.041)"/>
        <path id="Path_3995" data-name="Path 3995" d="M104.584,313.853s-4.2-.525-5.517-9.195-1.576-16.288-10.246-18.652-16.813,2.627-16.551,11.034.231,15.191-5.254,18.915c-7.093,4.816-13.748,1.314-26.884,13.048C23.6,343.775,28.4,388.724,76.211,376.377Z" transform="translate(-18.828 -170.536)"/>
        <path id="Path_3996" data-name="Path 3996" d="M180.155,337.607a4.39,4.39,0,0,1-4.042.935Z" transform="translate(-105.227 -201.718)" fill="#fff"/>
        <path id="Path_3997" data-name="Path 3997" d="M176.348,338.362a6.82,6.82,0,0,1-1.241-.118.6.6,0,1,1,.219-1.187,3.824,3.824,0,0,0,3.489-.751.6.6,0,0,1,.89.817,4.622,4.622,0,0,1-3.358,1.24" transform="translate(-104.33 -200.827)"/>
        <path id="Path_3998" data-name="Path 3998" d="M170.854,760.589s2.279,6.983,4.558,9.115,11.34,6.323,11.467,10.879c.147,5.292-2.927,6.271-11.16,4.36a25.972,25.972,0,0,1-12.61-7.093c-1.55-1.834-.684-3.393-.306-5.542a46.128,46.128,0,0,0,.553-8v-4.378Z" transform="translate(-96.924 -454.053)" fill="#fff"/>
        <path id="Path_3999" data-name="Path 3999" d="M181.01,785.466a29.164,29.164,0,0,1-6.326-.914,26.768,26.768,0,0,1-12.935-7.291c-1.434-1.7-1.076-3.222-.7-4.836.09-.386.184-.784.257-1.2a45.97,45.97,0,0,0,.545-7.9V758.29l8.552.754.124.379c.023.068,2.257,6.86,4.4,8.861a26.249,26.249,0,0,0,3.021,2.134c3.6,2.343,8.536,5.553,8.637,9.169.063,2.275-.466,3.837-1.617,4.779a6.039,6.039,0,0,1-3.957,1.1m-17.948-25.858v3.719a47.066,47.066,0,0,1-.563,8.106c-.079.45-.177.865-.271,1.267-.36,1.535-.6,2.548.444,3.781a25.41,25.41,0,0,0,12.285,6.895c5.016,1.164,7.867,1.181,9.246.055.854-.7,1.227-1.909,1.174-3.81-.083-2.983-4.71-5.992-8.088-8.191a26.606,26.606,0,0,1-3.188-2.264c-2.077-1.943-4.071-7.472-4.591-8.989Z" transform="translate(-96.027 -453.074)"/>
        <path id="Path_4000" data-name="Path 4000" d="M186.527,800.861l-.044,0-2.927-.212a31.364,31.364,0,0,1-20.112-9.26c-.716-.728-1.111-1.186-1.127-1.2a.6.6,0,0,1,.915-.788s.388.449,1.072,1.145a30.158,30.158,0,0,0,19.339,8.9l2.927.212a.6.6,0,0,1-.043,1.206" transform="translate(-96.896 -471.534)"/>
        <path id="Path_4001" data-name="Path 4001" d="M177.892,784.6a.6.6,0,0,1-.1-1.2c.037-.007,3.726-.643,5.072-2.4a.6.6,0,0,1,.958.735c-1.637,2.134-5.661,2.827-5.832,2.855a.554.554,0,0,1-.1.008" transform="translate(-105.929 -466.502)"/>
        <path id="Path_4002" data-name="Path 4002" d="M186.54,790.343a.6.6,0,0,1-.124-1.195c.97-.206,3.667-1.043,4.487-2.431a.6.6,0,0,1,1.04.615c-1.259,2.13-5.114,2.964-5.277,3a.609.609,0,0,1-.125.013" transform="translate(-111.096 -469.882)"/>
        <path id="Path_4003" data-name="Path 4003" d="M195.842,795.369a.6.6,0,0,1-.211-1.17c.029-.011,2.849-1.079,3.65-2.759a.6.6,0,1,1,1.09.52c-1.013,2.123-4.184,3.321-4.319,3.371a.6.6,0,0,1-.21.038" transform="translate(-116.654 -472.676)"/>
        <path id="Path_4004" data-name="Path 4004" d="M123.617,717.962c-.278,0-4.239-.393-6.529-.622a1.626,1.626,0,0,0-1.779,1.445l-.45,4.15a25.094,25.094,0,0,1-.867,4.332c-.751,2.572-1.859,7-1.253,9.023a25.927,25.927,0,0,0,4.015,6.888,2.357,2.357,0,0,0,2.612.786,16.565,16.565,0,0,0,6.015-3.263c2.45-2.451-.2-7.155-.2-7.155Z" transform="translate(-67.256 -428.602)" fill="#fff"/>
        <path id="Path_4005" data-name="Path 4005" d="M117.725,743.793a2.97,2.97,0,0,1-2.34-1.14,26.233,26.233,0,0,1-4.118-7.086c-.622-2.074.337-6.238,1.251-9.366a24.538,24.538,0,0,0,.847-4.227l.45-4.15a2.237,2.237,0,0,1,2.44-1.981c3.817.383,6.237.614,6.473.619l.534.012.063.531,1.556,15.463c.417.789,2.58,5.216.034,7.763a16.9,16.9,0,0,1-6.25,3.409,2.942,2.942,0,0,1-.94.154m-1.693-26.755a1.027,1.027,0,0,0-1.017.914l-.45,4.15a25.774,25.774,0,0,1-.888,4.436c-1.21,4.14-1.667,7.3-1.254,8.68a25.191,25.191,0,0,0,3.913,6.69,1.761,1.761,0,0,0,1.944.585,16.179,16.179,0,0,0,5.781-3.118c2.1-2.1-.271-6.388-.3-6.432l-.062-.11-1.53-15.205c-.689-.06-2.278-.209-6.04-.586a.954.954,0,0,0-.1-.005" transform="translate(-66.363 -427.706)"/>
        <path id="Path_4006" data-name="Path 4006" d="M125.074,743.608a.6.6,0,0,1-.493-.254c-4.911-6.909-4.555-8.85-3.844-12.716.147-.8.314-1.706.45-2.761.365-2.831,1.46-10.612,1.471-10.69a.6.6,0,1,1,1.2.168c-.011.078-1.1,7.852-1.469,10.677-.14,1.087-.31,2.01-.46,2.825-.69,3.752-.975,5.3,3.64,11.8a.6.6,0,0,1-.491.954" transform="translate(-71.894 -428.205)"/>
        <path id="Path_4007" data-name="Path 4007" d="M129.593,751.3a.6.6,0,0,1-.087-1.2l4.466-.657a.6.6,0,1,1,.176,1.195l-4.466.657a.613.613,0,0,1-.089.006" transform="translate(-77.071 -447.783)"/>
        <path id="Path_4008" data-name="Path 4008" d="M130.736,759.293a.6.6,0,0,1-.087-1.2l4.466-.657a.6.6,0,1,1,.176,1.195l-4.466.657a.6.6,0,0,1-.089.006" transform="translate(-77.754 -452.559)"/>
        <path id="Path_4009" data-name="Path 4009" d="M135.864,622.7c2.6,1.8,8.115,4.108,17.377,1.33l-4.25-93.919-17.445-3.332a264.956,264.956,0,0,0,.2,46.848,431.433,431.433,0,0,1,2.312,45.539,4.249,4.249,0,0,0,1.811,3.534" transform="translate(-78.026 -314.747)"/>
        <path id="Path_4010" data-name="Path 4010" d="M134.913,519.96l41.752,2.352-1.42,45.656a28.7,28.7,0,0,1-4.757,14.953c-4.721,7.129-12.262,17.617-18.227,21.718-9.409,6.469-17.348-84.68-17.348-84.68" transform="translate(-80.61 -310.674)"/>
        <path id="Path_4011" data-name="Path 4011" d="M183.514,681.348a.6.6,0,0,1-.6-.576l-1.379-29.587a.6.6,0,1,1,1.206-.056l1.379,29.587a.6.6,0,0,1-.575.631h-.029" transform="translate(-108.464 -388.702)" fill="#caddff"/>
        <path id="Path_4012" data-name="Path 4012" d="M311.127,286.636a.573.573,0,0,1-.466-.574c.031-1.455.334-5.82,2.783-7.824,2.964-2.425,5.479-7.993,7.275-7.454s-2.155,5.389-1.706,5.928,3.592-2.515,4.581-4.311,2.184-5.311,3.618-5.192c1.967.164,2.4,3.126-.206,8.964-2.479,5.555-10.813,7.044-11.459,10.736a.571.571,0,0,1-.673.457Z" transform="translate(-185.618 -159.653)" fill="#fff"/>
        <path id="Path_4013" data-name="Path 4013" d="M314.091,287.082a1.193,1.193,0,0,1-.229-.022l-3.747-.729a1.176,1.176,0,0,1-.955-1.18c.038-1.781.408-6.154,3-8.279a22.888,22.888,0,0,0,3.389-3.946c1.674-2.264,3-4.054,4.441-3.619a1.2,1.2,0,0,1,.8.707c.376.926-.317,2.3-1.338,4.129-.088.158-.185.333-.28.507a15.062,15.062,0,0,0,2.992-3.439c.224-.407.463-.916.717-1.454.967-2.052,1.971-4.178,3.48-4.049a2.116,2.116,0,0,1,1.713,1.065c.927,1.567.437,4.592-1.417,8.747-1.378,3.088-4.377,4.935-7.023,6.564-2.217,1.365-4.133,2.544-4.393,4.03a1.174,1.174,0,0,1-1.154.968m-3.722-1.932,3.694.718c.373-2,2.492-3.3,4.942-4.812,2.5-1.538,5.328-3.28,6.554-6.028,2.394-5.364,1.738-7.2,1.48-7.64a.919.919,0,0,0-.774-.477h-.026c-.679,0-1.707,2.182-2.262,3.361-.262.556-.509,1.081-.751,1.521-.877,1.595-3.664,4.567-4.86,4.682a.812.812,0,0,1-.713-.275c-.433-.52-.038-1.23.749-2.644.446-.8,1.49-2.677,1.273-3.09-.653-.19-2.1,1.756-3.148,3.178a23.71,23.71,0,0,1-3.6,4.163c-2.254,1.844-2.531,6.051-2.561,7.343" transform="translate(-184.722 -158.756)"/>
        <path id="Path_4014" data-name="Path 4014" d="M65.584,548.889a.578.578,0,0,0-.627.342c-.483,1.126-1.844,3.92-3.96,4.963a15.233,15.233,0,0,0-4.687,2.949c-1.831,1.736-4.974,6.235-4.288,7.343.814,1.316,3.425-.025,5.431-1.249s4-4.16,5.951-4.456-2.177,4.4-1.587,5.143,2.694-.359,4.044-2.582c.533-.877,3.718-8.612,4.678-10.953a.578.578,0,0,0-.441-.788Z" transform="translate(-31.025 -327.954)" fill="#fff"/>
        <path id="Path_4015" data-name="Path 4015" d="M52.236,564.743a1.754,1.754,0,0,1-1.6-.835c-1.058-1.709,3.007-6.791,4.386-8.1a13.85,13.85,0,0,1,4.131-2.714c.233-.11.466-.221.7-.338,1.918-.945,3.207-3.573,3.672-4.659a1.18,1.18,0,0,1,1.278-.7l4.513.71a1.181,1.181,0,0,1,.906,1.614c-1.24,3.022-4.181,10.149-4.721,11.038-1.044,1.719-2.683,3.022-3.9,3.1a1.3,1.3,0,0,1-1.137-.454c-.514-.646.072-1.637.96-3.138a16.632,16.632,0,0,0,.935-1.726,9.3,9.3,0,0,0-2.978,2.234,15.987,15.987,0,0,1-2.494,2.083c-1.552.947-3.32,1.887-4.655,1.887m12.391-16.151c-.647,1.506-2.052,4.169-4.24,5.248-.244.12-.484.234-.723.346a12.671,12.671,0,0,0-3.815,2.5c-2.132,2.022-4.465,5.887-4.186,6.6.18.288,1,.743,4.6-1.455a15.2,15.2,0,0,0,2.29-1.926c1.241-1.182,2.524-2.4,3.886-2.612a1,1,0,0,1,1.065.374c.441.654-.079,1.6-1.036,3.219a13.207,13.207,0,0,0-.948,1.788,5.074,5.074,0,0,0,2.95-2.536c.4-.665,2.65-6.028,4.622-10.837Z" transform="translate(-30.148 -327.058)"/>
        <path id="Path_4016" data-name="Path 4016" d="M123.182,329.123a41.359,41.359,0,0,1,11.35-.963c4.357.237,9.869.91,13.477,2.715,6.762,3.381,10,7.5,13.966,5.881,3.332-1.357,7.685-18.079,9-23.419a1.751,1.751,0,0,1,2.045-1.3l4.172.834a1.75,1.75,0,0,1,1.4,1.862c-.592,7.1-3.389,36.129-9.709,38.192-7.2,2.352-25.286-7.056-25.286-7.056s.147,35.724,4.851,54.542c0,0-7.424-.039-12.251,1.96-25.735,10.661-36.6-1.96-36.6-1.96.163-7.306,1.767-12.315,7.032-20.465,2.878-4.456,3.7-11.654-1.99-18.151,0,0-13.87,42.845-16.454,47.892-.178.346-8.717-1.551-8.735-1.751-1.383-15.364,9.156-44.026,10.689-50.976a36.083,36.083,0,0,1,1.916-6.169c2.6-6.212,8.408-16.4,19.25-18.987Z" transform="translate(-47.397 -186.42)" fill="#118bcb"/>
        <path id="Path_4017" data-name="Path 4017" d="M198.786,498.565a.6.6,0,0,1-.542-.87l10.193-20.778a.6.6,0,0,1,1.084.532l-10.193,20.778a.6.6,0,0,1-.543.338" transform="translate(-118.413 -284.754)"/>
        <path id="Path_4018" data-name="Path 4018" d="M220.945,502.324a.6.6,0,0,1-.558-.834l2.793-6.763a.6.6,0,1,1,1.116.461L221.5,501.95a.6.6,0,0,1-.558.373" transform="translate(-131.653 -295.374)"/>
        <path id="Path_4019" data-name="Path 4019" d="M160.675,315.668c2.658-1.831-.367-12.79-3.381-14.407s-9.335.147-9.335.147c2.352,7.718-1.874,9.63-2.463,9.63s-2.463.11-1.286,2.609,3.823,1.139,3.823,1.139a9.4,9.4,0,0,0,2.753,1.453,10.459,10.459,0,0,1-1.519,9.675,1.69,1.69,0,0,0,.956,2.637,17.007,17.007,0,0,0,8.321-.24,16.317,16.317,0,0,0,5.8-2.645,1.683,1.683,0,0,0-.3-2.857c-3.068-1.407-5.126-5.929-3.367-7.141" transform="translate(-85.937 -179.594)" fill="#fff"/>
        <path id="Path_4020" data-name="Path 4020" d="M152.877,328.662a15.913,15.913,0,0,1-3.689-.418,2.263,2.263,0,0,1-1.6-1.412,2.318,2.318,0,0,1,.289-2.163,9.821,9.821,0,0,0,1.525-8.862,10.86,10.86,0,0,1-2.364-1.22,3.845,3.845,0,0,1-2.49.117,3.053,3.053,0,0,1-1.783-1.694,2.681,2.681,0,0,1-.175-2.6,2.176,2.176,0,0,1,2.007-.87,3.318,3.318,0,0,0,1.709-1.451c.751-1.175,1.391-3.411.176-7.4l-.18-.592.6-.166c.268-.074,6.593-1.81,9.783-.1,2.333,1.251,4.479,7.11,4.7,11.126.122,2.2-.3,3.65-1.263,4.311a1.283,1.283,0,0,0-.376,1.192,6.937,6.937,0,0,0,3.652,4.9,2.24,2.24,0,0,1,1.3,1.808,2.274,2.274,0,0,1-.883,2.078A17.042,17.042,0,0,1,157.8,328a19.3,19.3,0,0,1-4.927.661M147.23,313.17l.309.27a8.974,8.974,0,0,0,2.562,1.339l.271.1.092.274a10.986,10.986,0,0,1-1.6,10.218,1.114,1.114,0,0,0-.14,1.038,1.044,1.044,0,0,0,.745.66,16.444,16.444,0,0,0,8.028-.236,15.863,15.863,0,0,0,5.586-2.541,1.076,1.076,0,0,0,.415-.984,1.03,1.03,0,0,0-.6-.844,8.06,8.06,0,0,1-4.352-5.9,2.385,2.385,0,0,1,.894-2.291c.565-.389.836-1.574.743-3.25-.221-3.98-2.311-9.186-4.067-10.128-2.256-1.21-6.7-.328-8.3.048,1.17,4.306.279,6.777-.706,8.105a3.888,3.888,0,0,1-2.51,1.695c-.5,0-.863.113-.988.31-.157.247-.066.772.248,1.439a1.873,1.873,0,0,0,1.073,1.063,2.858,2.858,0,0,0,1.929-.205Z" transform="translate(-85.043 -178.7)"/>
        <path id="Path_4021" data-name="Path 4021" d="M755.624,128.416a.6.6,0,0,1-.581-.77l3.853-13.486a.6.6,0,0,1,1.161.332L756.2,127.979a.6.6,0,0,1-.58.438" transform="translate(-451.121 -67.949)" fill="#536876"/>
        <path id="Path_4022" data-name="Path 4022" d="M770.419,123.674a.6.6,0,0,1-.431-1.027l20.141-20.491a.6.6,0,1,1,.861.846L770.85,123.493a.6.6,0,0,1-.431.181" transform="translate(-459.961 -60.93)" fill="#536876"/>
        <path id="Path_4023" data-name="Path 4023" d="M778.686,169.433a.6.6,0,0,1-.307-1.124l6.83-4.028a.6.6,0,1,1,.614,1.04l-6.83,4.028a.6.6,0,0,1-.306.084" transform="translate(-464.9 -98.107)" fill="#536876"/>
        <path id="Path_4024" data-name="Path 4024" d="M262.842,735.47h0c-1.574-.01-3.207-.053-4.853-.129a.6.6,0,0,1-.576-.631.615.615,0,0,1,.631-.575c1.63.075,3.246.118,4.805.128a.6.6,0,0,1,0,1.208m4.829-.076a.6.6,0,0,1-.023-1.207c1.633-.063,3.244-.168,4.788-.31a.6.6,0,1,1,.111,1.2c-1.565.145-3.2.25-4.851.315h-.024m-14.48-.361-.049,0c-1.579-.128-3.2-.287-4.829-.471a.6.6,0,1,1,.136-1.2c1.612.183,3.224.34,4.791.467a.6.6,0,0,1-.048,1.206m24.092-.542a.6.6,0,0,1-.093-1.2q.547-.085,1.091-.179c1.226-.212,2.43-.472,3.58-.771a.6.6,0,1,1,.3,1.168c-1.182.308-2.42.575-3.678.793q-.552.1-1.11.183a.576.576,0,0,1-.094.007m-33.7-.541a.668.668,0,0,1-.086-.006c-1.589-.228-3.2-.481-4.791-.754a.6.6,0,0,1,.2-1.19c1.579.271,3.181.523,4.758.749a.6.6,0,0,1-.085,1.2m-9.528-1.634a.61.61,0,0,1-.119-.012c-1.642-.329-3.239-.673-4.746-1.024a.6.6,0,0,1,.274-1.176c1.494.348,3.079.689,4.709,1.016a.6.6,0,0,1-.118,1.2m52.541-.286a.6.6,0,0,1-.224-1.164,32.176,32.176,0,0,0,4.259-2.069.6.6,0,0,1,.608,1.043,33.411,33.411,0,0,1-4.419,2.146.61.61,0,0,1-.224.043m-61.918-2.06a.607.607,0,0,1-.2-.033c-1.53-.53-3.063-1.085-4.556-1.649a.6.6,0,1,1,.427-1.129c1.483.56,3.005,1.111,4.525,1.637a.6.6,0,0,1-.2,1.174m70.2-2.818a.6.6,0,0,1-.39-1.065,23.842,23.842,0,0,0,3.284-3.364.6.6,0,1,1,.945.752,25.032,25.032,0,0,1-3.451,3.535.6.6,0,0,1-.389.142m-79.236-.6a.61.61,0,0,1-.229-.046c-1.494-.615-2.993-1.259-4.455-1.913a.6.6,0,0,1,.493-1.1c1.45.649,2.938,1.288,4.421,1.9a.6.6,0,0,1-.23,1.162M288.5,723.79h-.014a16.042,16.042,0,0,1-4.919-.868.6.6,0,1,1,.391-1.142,14.863,14.863,0,0,0,4.555.8.6.6,0,0,1-.013,1.208m4.781-.507a.6.6,0,0,1-.13-1.193,31.741,31.741,0,0,0,4.522-1.394.6.6,0,0,1,.432,1.128,32.967,32.967,0,0,1-4.693,1.446.621.621,0,0,1-.131.014m-86.445-.676a.6.6,0,0,1-.263-.061c-1.454-.706-2.909-1.443-4.327-2.189a.6.6,0,0,1,.563-1.068c1.406.74,2.849,1.471,4.292,2.171a.6.6,0,0,1-.264,1.147m72.641-1.847a.6.6,0,0,1-.341-.106,25.164,25.164,0,0,1-3.792-3.167.6.6,0,1,1,.864-.844,23.991,23.991,0,0,0,3.61,3.014.6.6,0,0,1-.342,1.1m22.835-.831a.6.6,0,0,1-.262-1.148c1.277-.616,2.676-1.332,4.276-2.19a.6.6,0,0,1,.57,1.065c-1.616.865-3.029,1.589-4.322,2.213a.6.6,0,0,1-.262.06m-1.488-.3a.6.6,0,0,1-.544-.866,18.9,18.9,0,0,0,1.5-4.42.6.6,0,1,1,1.183.241,20.068,20.068,0,0,1-1.594,4.7.6.6,0,0,1-.544.342m10.022-4.222a.6.6,0,0,1-.295-1.131q1.049-.585,2.129-1.191l2.086-1.167a.6.6,0,1,1,.589,1.054l-2.084,1.167-2.131,1.193a.609.609,0,0,1-.294.076m-38.009-1.552a.6.6,0,0,1-.522-.3,15.968,15.968,0,0,1-1.852-4.643.6.6,0,0,1,1.18-.258,14.763,14.763,0,0,0,1.714,4.291.6.6,0,0,1-.52.909m46.454-3.142a.6.6,0,0,1-.289-1.134c1.521-.827,2.921-1.57,4.277-2.271a.6.6,0,0,1,.555,1.072c-1.349.7-2.741,1.437-4.255,2.26a.6.6,0,0,1-.287.073m-16.6-.45a.6.6,0,0,1-.6-.559,15.326,15.326,0,0,0-1.02-4.515.6.6,0,1,1,1.123-.443,16.526,16.526,0,0,1,1.1,4.87.6.6,0,0,1-.558.646l-.045,0m25.186-3.981a.6.6,0,0,1-.264-1.147c1.478-.716,2.958-1.4,4.4-2.046a.6.6,0,0,1,.492,1.1c-1.427.636-2.895,1.319-4.362,2.029a.6.6,0,0,1-.263.06m-56.9-1.688a.6.6,0,0,1-.122-.013.6.6,0,0,1-.471-.712,10.279,10.279,0,0,1,2.192-4.574.6.6,0,1,1,.927.773,9.087,9.087,0,0,0-1.936,4.043.6.6,0,0,1-.591.483m65.72-2.238a.6.6,0,0,1-.226-1.164c1.509-.61,3.034-1.193,4.532-1.732a.6.6,0,0,1,.409,1.136c-1.484.535-2.994,1.112-4.49,1.716a.6.6,0,0,1-.226.044m-37.532-.912a.6.6,0,0,1-.461-.213,14.221,14.221,0,0,0-3.517-2.982.6.6,0,1,1,.623-1.034,15.414,15.414,0,0,1,3.815,3.236.6.6,0,0,1-.46.994m46.617-2.357a.6.6,0,0,1-.182-1.18c1.543-.487,3.11-.946,4.657-1.364a.6.6,0,1,1,.315,1.165c-1.532.415-3.082.869-4.609,1.35a.6.6,0,0,1-.182.028m-68.927-1.7a.6.6,0,0,1-.26-1.149,16.911,16.911,0,0,1,4.784-1.412.6.6,0,0,1,.179,1.194,15.721,15.721,0,0,0-4.443,1.308.6.6,0,0,1-.26.059m78.245-.821a.6.6,0,0,1-.132-1.193c1.163-.262,2.346-.51,3.516-.736l1.241-.227a.6.6,0,1,1,.217,1.188l-1.235.226c-1.152.223-2.322.468-3.474.728a.6.6,0,0,1-.134.015m-64.043-.08a.6.6,0,0,1-.153-.02,19.509,19.509,0,0,0-2.862-.516c-.6-.064-1.2-.11-1.788-.138a.6.6,0,1,1,.058-1.206c.606.029,1.23.077,1.856.143a20.648,20.648,0,0,1,3.04.548.6.6,0,0,1-.152,1.188" transform="translate(-120.648 -414.9)" fill="#536876"/>
        <path id="Path_4025" data-name="Path 4025" d="M82.081,638.24a.6.6,0,0,1-.442-.192c-1.1-1.18-2.187-2.4-3.235-3.619a.6.6,0,1,1,.916-.786c1.037,1.209,2.114,2.414,3.2,3.583a.6.6,0,0,1-.442,1.015m-6.289-7.328a.6.6,0,0,1-.474-.23c-1-1.264-1.986-2.566-2.932-3.869a.6.6,0,0,1,.977-.71c.937,1.29,1.914,2.578,2.9,3.83a.6.6,0,0,1-.473.978M70.117,623.1a.6.6,0,0,1-.5-.269c-.893-1.339-1.771-2.716-2.611-4.093a.6.6,0,1,1,1.031-.629c.831,1.362,1.7,2.726,2.584,4.052a.6.6,0,0,1-.5.939m-5.029-8.245a.6.6,0,0,1-.528-.31c-.782-1.406-1.548-2.848-2.276-4.287a.6.6,0,0,1,1.078-.545c.721,1.425,1.479,2.853,2.253,4.245a.6.6,0,0,1-.527.9m-4.36-8.617a.6.6,0,0,1-.549-.353c-.668-1.46-1.319-2.957-1.934-4.451a.6.6,0,1,1,1.116-.46c.609,1.48,1.254,2.963,1.916,4.408a.6.6,0,0,1-.549.855" transform="translate(-34.773 -358.855)" fill="#536876"/>
        <path id="Path_4026" data-name="Path 4026" d="M40.434,522.221a.6.6,0,0,1-.578-.431c-.46-1.54-.9-3.112-1.3-4.675a.6.6,0,0,1,1.169-.3c.4,1.548.834,3.107,1.29,4.632a.6.6,0,0,1-.406.751.6.6,0,0,1-.173.025m-2.419-9.351a.6.6,0,0,1-.589-.475c-.345-1.576-.665-3.177-.95-4.76a.6.6,0,0,1,1.189-.214c.282,1.567.6,3.154.941,4.715a.6.6,0,0,1-.46.719.619.619,0,0,1-.13.014M36.3,503.361a.6.6,0,0,1-.6-.52c-.227-1.619-.422-3.241-.579-4.821a.6.6,0,1,1,1.2-.119c.155,1.565.348,3.17.573,4.772a.6.6,0,0,1-.514.682.611.611,0,0,1-.085.006m-.944-9.614a.6.6,0,0,1-.6-.572c-.091-1.754-.111-3.078-.111-3.881,0-.657.013-1,.013-1a.6.6,0,0,1,1.207.044c0,.007-.012.338-.012.959,0,.788.019,2.09.109,3.818a.6.6,0,0,1-.571.634H35.36" transform="translate(-20.701 -291.404)" fill="#536876"/>
        <path id="Path_4027" data-name="Path 4027" d="M711.458,574.486a.6.6,0,0,1-.151-1.188,38.575,38.575,0,0,0,4.518-1.477.6.6,0,0,1,.444,1.123,39.787,39.787,0,0,1-4.659,1.523.6.6,0,0,1-.152.019m8.967-3.536a.6.6,0,0,1-.286-1.136,43.31,43.31,0,0,0,4.065-2.48.6.6,0,0,1,.684,1,44.622,44.622,0,0,1-4.178,2.549.6.6,0,0,1-.285.072m7.944-5.463a.6.6,0,0,1-.394-1.061,44.868,44.868,0,0,0,3.44-3.294.6.6,0,0,1,.881.827,46.257,46.257,0,0,1-3.533,3.383.6.6,0,0,1-.394.146m6.6-7.029a.6.6,0,0,1-.481-.968,44.892,44.892,0,0,0,2.667-3.947.6.6,0,1,1,1.035.622,46.129,46.129,0,0,1-2.738,4.053.6.6,0,0,1-.482.24m4.964-8.263a.6.6,0,0,1-.547-.859,45.32,45.32,0,0,0,1.776-4.419.6.6,0,1,1,1.143.391,46.729,46.729,0,0,1-1.823,4.537.6.6,0,0,1-.548.35m3.125-9.12a.613.613,0,0,1-.136-.016.6.6,0,0,1-.452-.724c.353-1.532.636-3.11.838-4.692a.6.6,0,0,1,1.2.154c-.208,1.621-.5,3.24-.86,4.81a.6.6,0,0,1-.588.468m1.234-9.562h-.021a.6.6,0,0,1-.583-.623c.019-.571.029-1.154.029-1.735,0-1-.029-2.023-.086-3.039a.6.6,0,0,1,1.206-.067c.058,1.039.088,2.084.088,3.106,0,.594-.01,1.191-.029,1.775a.6.6,0,0,1-.6.584m-.531-9.633a.6.6,0,0,1-.6-.52c-.216-1.55-.5-3.134-.843-4.707a.6.6,0,0,1,1.179-.258c.35,1.6.639,3.217.86,4.8a.6.6,0,0,1-.515.681.6.6,0,0,1-.084.006m-2.047-9.431a.6.6,0,0,1-.579-.434c-.44-1.5-.943-3.034-1.494-4.552a.6.6,0,0,1,1.135-.413c.561,1.542,1.071,3.1,1.518,4.625a.6.6,0,0,1-.579.774m-3.289-9.076a.6.6,0,0,1-.555-.365c-.384-.891-.792-1.8-1.212-2.69a.6.6,0,0,1,1.092-.514c.427.906.84,1.823,1.229,2.726a.6.6,0,0,1-.555.843" transform="translate(-424.732 -298.423)" fill="#536876"/>
      </g>
    </g>
  </g>
</svg>
