<svg id="Group_252" data-name="Group 252" xmlns="http://www.w3.org/2000/svg" xmlns:xlink="http://www.w3.org/1999/xlink" width="328.657" height="336.322" viewBox="0 0 328.657 336.322">
  <defs>
    <clipPath id="clip-path">
      <rect id="Rectangle_430" data-name="Rectangle 430" width="328.657" height="336.322" fill="none"/>
    </clipPath>
    <clipPath id="clip-path-3">
      <rect id="Rectangle_428" data-name="Rectangle 428" width="301.378" height="299.966" fill="none"/>
    </clipPath>
  </defs>
  <g id="Group_251" data-name="Group 251" clip-path="url(#clip-path)">
    <g id="Group_250" data-name="Group 250">
      <g id="Group_249" data-name="Group 249" clip-path="url(#clip-path)">
        <g id="Group_248" data-name="Group 248" transform="translate(27.28)" opacity="0.6">
          <g id="Group_247" data-name="Group 247">
            <g id="Group_246" data-name="Group 246" clip-path="url(#clip-path-3)">
              <path id="Path_2837" data-name="Path 2837" d="M145.333,13.574c61.207-33.7,143.206,1.311,185.935,40.127,12.206,11.088,41.8,38.751,48.793,83.086,8.681,55.073-19.736,121.826-84.911,150.38-70.941,31.079-150.261,1.624-187.384-46.187C73.046,196.265,80,143.615,82.478,124.806c2.912-22.067,11.575-83,62.855-111.231" transform="translate(-80.208 0)" fill="#98d8f4"/>
            </g>
          </g>
        </g>
        <path id="Path_2838" data-name="Path 2838" d="M39.8,235.357C13.378,241.024.578,289.835.02,321.434c-.95,53.766,32.7,105.3,79.144,130.066,61.706,32.908,153.7,22.678,184-30.794,18.08-31.907,15.6-81.693-9.551-101.693-25.213-20.049-51.1,7.414-99.294-4.885-66.6-17-81.479-85.856-114.518-78.77" transform="translate(0 -154.972)" fill="#72005d"/>
        <path id="Path_2839" data-name="Path 2839" d="M154.692,673.944a.745.745,0,0,1-.288-.057A.753.753,0,0,1,154,672.9c6.277-15.162,26.519-18,27.378-18.11a.753.753,0,1,1,.2,1.493c-.2.027-20.242,2.841-26.184,17.193a.753.753,0,0,1-.7.465" transform="translate(-101.582 -432.084)" fill="#fff"/>
        <path id="Path_2840" data-name="Path 2840" d="M237.533,689.26a.753.753,0,0,1-.748-.674,32.766,32.766,0,0,1,7.152-24.365.753.753,0,0,1,1.114,1.013,31.845,31.845,0,0,0-6.769,23.193.753.753,0,0,1-.669.828.713.713,0,0,1-.081,0" transform="translate(-156.124 -438.147)" fill="#fff"/>
        <path id="Path_2841" data-name="Path 2841" d="M742.585,776.156c.183.5,20,20.585,20,20.585l-12.18,5.577-16.027-17.482Z" transform="translate(-484.605 -512.174)" fill="#fff"/>
        <path id="Path_2842" data-name="Path 2842" d="M748.943,801.61a.753.753,0,0,1-.555-.244l-16.027-17.482a.753.753,0,0,1,.008-1.026l8.208-8.68a.753.753,0,0,1,1.2.135c.73.949,12.262,12.711,19.887,20.439a.753.753,0,0,1-.222,1.214l-12.18,5.577a.748.748,0,0,1-.313.068m-15-18.227,15.183,16.561,10.7-4.9c-13.114-13.3-17.339-17.712-18.722-19.237Zm7.886-8.947h0m0,0h0" transform="translate(-483.144 -510.713)"/>
        <path id="Path_2843" data-name="Path 2843" d="M758.855,820.087a6.332,6.332,0,0,1,2.573-3.18,6.058,6.058,0,0,1,6.733.437c4.9,3.652,18.239,14.01,26.018,24.2,2.749,3.6,1.526,8.443-4.546,8.444-9.951,0-25.87-3.822-39.295-15.046a5.87,5.87,0,0,1-2.075-5.26,28.282,28.282,0,0,1,1.281-5.6,4.013,4.013,0,0,1,4.5-2.584l1.738.314a2.763,2.763,0,0,0,3.068-1.724" transform="translate(-493.735 -538.522)" fill="#fff"/>
        <path id="Path_2844" data-name="Path 2844" d="M788.159,849.3c-10.426,0-26.344-4-39.768-15.221a6.59,6.59,0,0,1-2.339-5.937,28.594,28.594,0,0,1,1.319-5.754,4.743,4.743,0,0,1,5.349-3.075l1.739.315a2.016,2.016,0,0,0,2.231-1.257,7.1,7.1,0,0,1,2.883-3.55,6.844,6.844,0,0,1,7.575.477c5.282,3.932,18.4,14.177,26.167,24.347a6.294,6.294,0,0,1,1.025,6.548c-.574,1.16-2.138,3.106-6.171,3.107ZM751.85,820.737a3.228,3.228,0,0,0-3.06,2.148,27.052,27.052,0,0,0-1.245,5.449,5.091,5.091,0,0,0,1.812,4.584c13.114,10.964,28.64,14.871,38.8,14.871h.01c2.386,0,4.1-.806,4.821-2.268a4.816,4.816,0,0,0-.873-4.966c-7.648-10.018-20.639-20.159-25.869-24.053a5.326,5.326,0,0,0-5.891-.4,5.527,5.527,0,0,0-2.263,2.81,3.525,3.525,0,0,1-3.9,2.193l-1.738-.315a3.393,3.393,0,0,0-.6-.054" transform="translate(-492.272 -537.075)"/>
        <path id="Path_2845" data-name="Path 2845" d="M794.57,874.951c-5.966,0-16.608-2.345-33.3-13.623a.753.753,0,1,1,.844-1.248c27.012,18.252,37.693,12.456,37.8,12.4a.753.753,0,0,1,.77,1.295c-.183.11-2.08,1.181-6.111,1.181" transform="translate(-502.132 -567.469)"/>
        <path id="Path_2846" data-name="Path 2846" d="M828.214,858.857a.753.753,0,0,1-.579-1.234l4.742-5.711a.753.753,0,1,1,1.158.962l-4.742,5.711a.752.752,0,0,1-.58.272" transform="translate(-546.03 -561.985)"/>
        <path id="Path_2847" data-name="Path 2847" d="M814.523,848.438a.753.753,0,0,1-.563-1.254l5.244-5.893a.753.753,0,1,1,1.125,1l-5.244,5.893a.752.752,0,0,1-.563.252" transform="translate(-536.995 -554.989)"/>
        <path id="Path_2848" data-name="Path 2848" d="M618.33,804.661l-4.364,25.483-9.815-6.662,3.041-24.432Z" transform="translate(-398.671 -527.281)" fill="#fff"/>
        <path id="Path_2849" data-name="Path 2849" d="M612.506,829.436a.751.751,0,0,1-.423-.13l-9.815-6.662a.752.752,0,0,1-.325-.716l3.041-24.432a.753.753,0,0,1,1.086-.58l11.137,5.612a.754.754,0,0,1,.4.8l-4.364,25.483a.752.752,0,0,1-.742.626m-9.01-7.78,8.465,5.747,4.073-23.781-9.686-4.88Z" transform="translate(-397.21 -525.82)"/>
        <path id="Path_2850" data-name="Path 2850" d="M591.3,854.175c-.15,7.865-.677,23.69-5.994,35.18-1.426,3.082-7.642,3.2-10.117-.767-5.16-8.262-11.949-22.409-9.367-40.076a4.388,4.388,0,0,1,2.282-3.238,29.8,29.8,0,0,1,7.046-2.546,2.945,2.945,0,0,1,3.58,2.354L579.8,851.2l.73-1.064a4.216,4.216,0,0,1,4.962-1.565l3.038,1.142a4.5,4.5,0,0,1,2.762,4.461" transform="translate(-373.001 -556.05)" fill="#fff"/>
        <path id="Path_2851" data-name="Path 2851" d="M579.445,890.909a7.522,7.522,0,0,1-6.367-3.385c-8.284-13.263-11.471-26.917-9.474-40.583a5.155,5.155,0,0,1,2.674-3.795,30.647,30.647,0,0,1,7.224-2.614,3.655,3.655,0,0,1,2.882.505,3.716,3.716,0,0,1,1.614,2.45l.766,4.341a4.958,4.958,0,0,1,5.528-1.425l3.038,1.142a5.253,5.253,0,0,1,3.25,5.18c-.121,6.383-.445,23.339-6.063,35.482a5.178,5.178,0,0,1-4.584,2.687q-.245.015-.488.015m-5.081-48.973a2.2,2.2,0,0,0-.512.061,29.142,29.142,0,0,0-6.868,2.479,3.646,3.646,0,0,0-1.89,2.682c-1.944,13.3,1.172,26.616,9.261,39.568a6.071,6.071,0,0,0,5.483,2.665,3.774,3.774,0,0,0,3.312-1.816c5.486-11.856,5.8-28.582,5.924-34.878a3.723,3.723,0,0,0-2.275-3.742l-3.038-1.142a3.457,3.457,0,0,0-4.075,1.285l-.73,1.065a.753.753,0,0,1-1.363-.295l-1.079-6.118a2.2,2.2,0,0,0-2.151-1.813" transform="translate(-371.533 -554.586)"/>
        <path id="Path_2852" data-name="Path 2852" d="M587.035,900.1a.753.753,0,0,1-.613-.315c-11.882-16.6-10.43-37.167-10.414-37.373a.753.753,0,0,1,1.5.117c-.016.2-1.418,20.24,10.137,36.379a.753.753,0,0,1-.612,1.191" transform="translate(-380.057 -568.636)"/>
        <path id="Path_2853" data-name="Path 2853" d="M621.963,904.378a.745.745,0,0,1-.17-.019l-7.445-1.715a.753.753,0,1,1,.338-1.468l7.445,1.714a.753.753,0,0,1-.168,1.487" transform="translate(-405.013 -594.661)"/>
        <path id="Path_2854" data-name="Path 2854" d="M619.58,922.347a.763.763,0,0,1-.227-.035l-7.064-2.229a.753.753,0,0,1,.453-1.437l7.064,2.228a.753.753,0,0,1-.226,1.472" transform="translate(-403.693 -606.179)"/>
        <path id="Path_2855" data-name="Path 2855" d="M403.367,485.466s34.86-6.08,67.446,10.086A25.305,25.305,0,0,1,484.822,517c.888,18.18.771,51.505-8.8,80.949A3.086,3.086,0,0,1,472,599.875l-14.57-5.525a3.077,3.077,0,0,1-1.921-2.235c-1.409-6.605-6.321-31.75-3.778-50.321,2.952-21.555-67.011-40.427-67.011-40.427Z" transform="translate(-253.868 -319.613)"/>
        <path id="Path_2856" data-name="Path 2856" d="M453.786,598.078,441.558,607.1a2.065,2.065,0,0,1-2.675-.189c-8.267-8.131-54.93-53.775-66.317-59.466-12.506-6.25-35.738-15.418-56.316-14.175s-25.7-12.82-25.7-12.82l28.323-20.563s51.108,2.99,73.523,19.282c20.239,14.71,55.27,66.233,61.881,76.1a2.062,2.062,0,0,1-.492,2.809" transform="translate(-191.731 -329.869)"/>
        <path id="Path_2857" data-name="Path 2857" d="M541.211,559.522a.753.753,0,0,1-.587-.281c-9.216-11.457-23.42-26.7-31.24-32.387-8.469-6.155-22.018-11.119-40.271-14.753a.753.753,0,0,1,.294-1.477c18.469,3.677,32.217,8.727,40.863,15.012,7.921,5.757,22.251,21.128,31.528,32.661a.753.753,0,0,1-.586,1.225" transform="translate(-309.16 -336.944)" fill="#5479f7"/>
        <path id="Path_2858" data-name="Path 2858" d="M351.945,369.337l3.2,8A56.8,56.8,0,0,0,373.42,401.38l3.3,2.521a12.029,12.029,0,0,0,7.374,2.467l.407,0a16.6,16.6,0,0,1,11.062,4.131l-9.3,2.27a22.182,22.182,0,0,1-16.68-2.472,47.29,47.29,0,0,1-15.179-14.424c-9.633-14.6-11.479-23.3-11.479-23.3Z" transform="translate(-226.294 -243.72)" fill="#fff"/>
        <path id="Path_2859" data-name="Path 2859" d="M379.411,412.71a22.6,22.6,0,0,1-11.673-3.233,47.639,47.639,0,0,1-15.419-14.655c-9.6-14.556-11.511-23.2-11.587-23.562a.753.753,0,0,1,.483-.865l9.016-3.228a.753.753,0,0,1,.953.429l3.2,8a56.066,56.066,0,0,0,18.03,23.726l3.3,2.521a11.284,11.284,0,0,0,6.912,2.313l.407,0a17.38,17.38,0,0,1,11.564,4.318.753.753,0,0,1-.319,1.3l-9.3,2.27a23.5,23.5,0,0,1-5.573.675m-37.043-41.13c.623,2.244,3.231,10.318,11.208,22.412a46.145,46.145,0,0,0,14.938,14.193,21.289,21.289,0,0,0,16.114,2.386l7.81-1.906a15.827,15.827,0,0,0-9.291-3.009h-.1l-.407,0h-.078a12.85,12.85,0,0,1-7.757-2.622l-3.3-2.521a57.576,57.576,0,0,1-18.515-24.363l-2.932-7.324Z" transform="translate(-224.833 -242.259)"/>
        <path id="Path_2860" data-name="Path 2860" d="M280.844,568.823s-12.156,7.972-18.311,4.987,5.528-13.042,8.771-13.232,9.54,8.244,9.54,8.244" transform="translate(-172.079 -369.916)"/>
        <path id="Path_2861" data-name="Path 2861" d="M186.541,194.621c5.237-.348,10.822,4.615,9.68,12.312-.933,6.288-7.666,7.726-10.96,10.883-10.655,10.212-2.029,22.742-10.528,33.08-8.1,9.848-18.743,1.907-34.531,12.751-12.43,8.537,31.33-2.652,15.659,6.171-12.5,7.039-34.849,4.774-46.464-10.642-11.045-14.659-12.328-35.568.718-44.678,11.727-8.189,18.8,2.852,31.223-4.73,12.247-7.475,9.621-15.76,17.147-18.71,10.292-4.034,13.214,4.55,28.056,3.564" transform="translate(-66.463 -125.359)"/>
        <path id="Path_2862" data-name="Path 2862" d="M156.434,348.551a91.5,91.5,0,0,1,3.426-11.285c3.683-9.058,6.174-14.944,16.914-19.716a31.509,31.509,0,0,1,4.987-1.705l6.4-1.639s26.332-5.53,35.952,5.184a16.454,16.454,0,0,1,2.375,2.973L232.5,333l-.064.021a10.752,10.752,0,0,0-6.378,14.837c3.217,6.722,7.749,14.628,12.571,18.125,1.523,1.105,13.99,7.3,13.99,7.3s2.465,9.838-17.893,16.661-34.977,8.778-39.853,18.657c-2.887,5.849-10.813-23.75-15.31-51.274a10.767,10.767,0,0,0-10.851-9.038Z" transform="translate(-103.229 -206.398)" fill="#178bcb"/>
        <path id="Path_2863" data-name="Path 2863" d="M192.549,408.594a1.419,1.419,0,0,1-.208-.016c-.811-.121-2.965-.443-7.547-17.407-2.71-10.036-5.422-22.876-7.44-35.229a10.073,10.073,0,0,0-10.092-8.407l-12.273.258a.753.753,0,0,1-.748-.932,91.107,91.107,0,0,1,3.46-11.39c3.581-8.808,6.168-15.172,17.306-20.121a31.938,31.938,0,0,1,5.105-1.746l6.4-1.639c1.125-.237,26.9-5.5,36.7,5.411.131.146.268.295.408.448a13.786,13.786,0,0,1,2.07,2.671l6,10.622a.754.754,0,0,1-.421,1.086l-.064.021a10,10,0,0,0-5.934,13.8c4.266,8.913,8.531,15.082,12.334,17.841,1.208.876,10.431,5.523,13.883,7.24a.754.754,0,0,1,.4.491c.108.429,2.4,10.594-18.385,17.558-4.584,1.537-8.964,2.853-12.828,4.014-13.325,4-22.953,6.9-26.589,14.263a1.724,1.724,0,0,1-1.533,1.166M167.47,346.027a11.58,11.58,0,0,1,11.37,9.673c2,12.243,4.687,24.981,7.373,34.95,3.994,14.824,6.006,16.286,6.313,16.426a1.142,1.142,0,0,0,.205-.314c3.926-7.954,13.817-10.925,27.506-15.039,3.854-1.158,8.221-2.47,12.783-4,17.3-5.8,17.591-13.763,17.444-15.448-2.084-1.039-12.316-6.158-13.743-7.193-5.061-3.671-9.759-12.038-12.809-18.41a11.5,11.5,0,0,1,6.029-15.585l-5.57-9.863a12.653,12.653,0,0,0-1.86-2.379c-.144-.157-.285-.311-.42-.461-9.218-10.266-34.978-5.005-35.237-4.951l-6.369,1.632a30.475,30.475,0,0,0-4.867,1.664c-10.583,4.7-12.946,10.514-16.522,19.312a85.684,85.684,0,0,0-3.156,10.228l11.289-.238.241,0" transform="translate(-101.767 -204.888)"/>
        <path id="Path_2864" data-name="Path 2864" d="M239.346,447.359l-9.378-3.414a4.251,4.251,0,0,0-4.11.675l-4.434,3.549a4.237,4.237,0,0,1-3,.913c-4.715-.388-26.1-6.99-28.222-10.768-1.048-1.868-2.386-8.238-3.364-13.506a9.154,9.154,0,0,0-9.2-7.484l-9.667.211s2.464,23.313,10.248,30.883c6.042,5.877,20.431,9,41.382,8.068a13.513,13.513,0,0,0,8.121-4.746c2.387-2.76,8.073-1.227,11.472-2a1.242,1.242,0,0,0,.149-2.378" transform="translate(-110.844 -275.385)" fill="#fff"/>
        <path id="Path_2865" data-name="Path 2865" d="M211.039,455.939c-16.93,0-29.144-2.938-34.8-8.442-7.888-7.672-10.37-30.381-10.471-31.344a.753.753,0,0,1,.733-.832l9.667-.211a9.878,9.878,0,0,1,9.957,8.1c1.329,7.16,2.494,11.874,3.28,13.275,1.815,3.232,22.426,9.958,27.627,10.386a3.472,3.472,0,0,0,2.466-.75l4.434-3.549a5.033,5.033,0,0,1,4.838-.8l9.378,3.414a1.995,1.995,0,0,1-.239,3.819,19.617,19.617,0,0,1-4.335.269c-2.66-.019-5.41-.039-6.735,1.493a14.185,14.185,0,0,1-8.618,5q-3.714.165-7.177.165m-43.68-39.13c.523,4.164,3.235,23.1,9.927,29.608,6.04,5.875,20.922,8.738,40.824,7.855a12.968,12.968,0,0,0,7.585-4.486c1.781-2.058,5.023-2.035,7.885-2.014a18.7,18.7,0,0,0,3.989-.231.489.489,0,0,0,.059-.936l-9.378-3.414a3.518,3.518,0,0,0-3.381.556l-4.434,3.549a4.971,4.971,0,0,1-3.531,1.075c-4.618-.38-26.472-6.974-28.817-11.15-.89-1.586-2.05-6.207-3.448-13.737a8.364,8.364,0,0,0-8.443-6.868Z" transform="translate(-109.382 -273.924)"/>
        <path id="Path_2866" data-name="Path 2866" d="M248.275,266.852s7.632-16.568,8.091-18.641a3.733,3.733,0,0,1-1.145-3.74c.841-4.978,5.477-1.847,5.477-1.847l.472.182a15.373,15.373,0,0,0,8.65.7l6.071-1.261s.935,2.293-1.022,6.221a14.33,14.33,0,0,0-1.059,6.6,1.166,1.166,0,0,1-1.14,1.186l-1.583.034a10.763,10.763,0,0,1-3.428,3.824,1.886,1.886,0,0,1-1.405.308,8.686,8.686,0,0,1-2.77-1.039l-1.838,7.215,3.864.413s.784,4.776-6.945,7.141c-4.267,1.305-9.918.182-14.125-1.087a2.4,2.4,0,0,1-.242-4.509Z" transform="translate(-160.17 -159.462)" fill="#fff"/>
        <path id="Path_2867" data-name="Path 2867" d="M252.751,274.027a36.12,36.12,0,0,1-9.991-1.7,3.15,3.15,0,0,1-.315-5.925l3.807-1.59c2.066-4.493,6.931-15.225,7.8-17.828a4.686,4.686,0,0,1-1.037-4.1,3.853,3.853,0,0,1,2.077-3.2c1.825-.782,4.038.516,4.485.8l.4.153a14.593,14.593,0,0,0,8.226.67l6.071-1.261a.752.752,0,0,1,.851.453c.044.107,1.04,2.656-1.045,6.842a13.791,13.791,0,0,0-.98,6.252,1.922,1.922,0,0,1-1.877,1.951l-1.169.025a11.1,11.1,0,0,1-3.432,3.7,2.656,2.656,0,0,1-1.968.428,9.315,9.315,0,0,1-2.137-.677l-1.39,5.455,3,.321a.753.753,0,0,1,.663.627c.036.221.8,5.454-7.468,7.982a15.707,15.707,0,0,1-4.572.611m3.628-33.078a1.743,1.743,0,0,0-.694.13c-.6.257-1,.951-1.183,2.062a3.053,3.053,0,0,0,.838,3,.752.752,0,0,1,.3.777c-.463,2.092-7.358,17.09-8.142,18.794a.752.752,0,0,1-.394.38l-4.078,1.7a1.644,1.644,0,0,0,.169,3.093c3.961,1.195,9.551,2.353,13.687,1.087,5.482-1.677,6.325-4.532,6.426-5.742l-3.2-.343a.753.753,0,0,1-.65-.935l1.838-7.215a.753.753,0,0,1,1.109-.465,7.948,7.948,0,0,0,2.528.95,1.14,1.14,0,0,0,.842-.189,9.993,9.993,0,0,0,3.207-3.588.754.754,0,0,1,.631-.368l1.583-.034a.413.413,0,0,0,.4-.419,15.114,15.114,0,0,1,1.138-6.95,8.913,8.913,0,0,0,1.123-5l-5.344,1.11a16.091,16.091,0,0,1-9.074-.739l-.472-.182a.732.732,0,0,1-.151-.079,5.11,5.11,0,0,0-2.436-.843M246.814,265.4h0Z" transform="translate(-158.709 -158.007)"/>
        <path id="Path_2868" data-name="Path 2868" d="M300.356,291.836a.749.749,0,0,1-.405-.119l-1-.64a.753.753,0,0,1,.813-1.269l1,.64a.753.753,0,0,1-.407,1.387" transform="translate(-197.045 -191.162)"/>
        <path id="Path_2869" data-name="Path 2869" d="M445.062,432.915l-46.326.3,28.509-44a5.9,5.9,0,0,1,4.936-2.685l37.6-.243a2.944,2.944,0,0,1,2.591,4.5Z" transform="translate(-263.12 -254.904)" fill="#5b004e"/>
        <path id="Path_2870" data-name="Path 2870" d="M508.838,453.109A6.685,6.685,0,0,1,503.921,456c-1.7.011-2.25-1.267-1.232-2.855a6.684,6.684,0,0,1,4.918-2.895c1.7-.011,2.25,1.267,1.232,2.855" transform="translate(-331.38 -297.116)" fill="#178bcb"/>
        <path id="Path_2871" data-name="Path 2871" d="M404.868,520.008l-61.542.409c-1.272.008-2.315-2.05-2.331-4.6l-.081-.7,66.146-.44.081.7c.016,2.548-1,4.62-2.274,4.629" transform="translate(-224.964 -339.627)" fill="#a50e90"/>
        <path id="Path_2872" data-name="Path 2872" d="M405.089,529.922a.753.753,0,0,1-.006-1.506l36.7-.277h.006a.753.753,0,0,1,.005,1.506l-36.7.277Z" transform="translate(-266.815 -348.511)" fill="#5479f7"/>
      </g>
    </g>
  </g>
</svg>
