<svg id="Group_275" data-name="Group 275" xmlns="http://www.w3.org/2000/svg" xmlns:xlink="http://www.w3.org/1999/xlink" width="348.336" height="335.954" viewBox="0 0 348.336 335.954">
  <defs>
    <clipPath id="clip-path">
      <rect id="Rectangle_439" data-name="Rectangle 439" width="348.336" height="335.954" fill="none"/>
    </clipPath>
    <clipPath id="clip-path-3">
      <rect id="Rectangle_431" data-name="Rectangle 431" width="315.929" height="314.448" fill="none"/>
    </clipPath>
    <clipPath id="clip-path-4">
      <path id="Path_2889" data-name="Path 2889" d="M242.415,90.564l-10.948,84.478h84.341l10.948-84.478Z" transform="translate(-231.467 -90.564)" fill="none"/>
    </clipPath>
    <clipPath id="clip-path-6">
      <path id="Path_2901" data-name="Path 2901" d="M234.664,351.357l-10.948,84.478h84.341l10.948-84.478Z" transform="translate(-223.716 -351.357)" fill="none"/>
    </clipPath>
    <clipPath id="clip-path-8">
      <path id="Path_2922" data-name="Path 2922" d="M506.429,402.056l-10.948,84.478h84.341l10.948-84.478Z" transform="translate(-495.481 -402.056)" fill="none"/>
    </clipPath>
    <clipPath id="clip-path-10">
      <path id="Path_2935" data-name="Path 2935" d="M512.26,97.607l-11.43,88.2h88.058l11.43-88.2Z" transform="translate(-500.83 -97.607)" fill="none"/>
    </clipPath>
  </defs>
  <g id="Group_274" data-name="Group 274" clip-path="url(#clip-path)">
    <g id="Group_257" data-name="Group 257">
      <g id="Group_256" data-name="Group 256" clip-path="url(#clip-path)">
        <g id="Group_255" data-name="Group 255" transform="translate(13.807 8.416)" opacity="0.6">
          <g id="Group_254" data-name="Group 254">
            <g id="Group_253" data-name="Group 253" clip-path="url(#clip-path-3)">
              <path id="Path_2873" data-name="Path 2873" d="M282.757,321.613c-64.163,35.33-150.121-1.375-194.913-42.064-12.8-11.624-43.822-40.622-51.149-87.1-9.1-57.732,20.689-127.708,89.011-157.64,74.366-32.58,157.516-1.7,196.432,48.417,36.4,46.874,29.111,102.067,26.509,121.784-3.053,23.132-12.135,87-65.89,116.6" transform="translate(-35.097 -21.394)" fill="#98d8f4"/>
            </g>
          </g>
        </g>
        <path id="Path_2874" data-name="Path 2874" d="M440.4,515.749l-64.327.4c-.417,0-.554.388-.554.759v54.729c0,5.24-36.549,18.854-36.905,18.162l-.044,5.792a2.114,2.114,0,0,0,2.154,2.035h54.754a18.846,18.846,0,0,0,7.24-1.509l29.654-12.487a13.6,13.6,0,0,0,8.705-12.341V516.508a.723.723,0,0,0-.678-.759" transform="translate(-205.379 -312.859)" fill="#fff"/>
        <path id="Path_2875" data-name="Path 2875" d="M370.124,508.045v54.741c0,5.4-3.473,10.313-8.929,12.642l-20,8.538a1.2,1.2,0,0,0,.588,2.309H396.74a18.459,18.459,0,0,0,7.148-1.429l22.164-9.332c5.5-2.314,9-7.251,9-12.674v-54.8a.433.433,0,0,0-.455-.406H370.579a.433.433,0,0,0-.455.406" transform="translate(-206.499 -307.939)" fill="#99b9ff"/>
        <path id="Path_2876" data-name="Path 2876" d="M111.332,302.7l264.5.577,4.592.01,8.539.018A4.851,4.851,0,0,0,393.694,299l22.115-172.832c.539-4.2-2.527-8.176-6.758-8.176l-274.041.249Z" transform="translate(-67.535 -71.572)" fill="#178bcb"/>
        <path id="Path_2877" data-name="Path 2877" d="M385.678,117.885c4.77,0,8.649,4.8,8.038,9.547L371.442,298.941a4.828,4.828,0,0,1-4.784,4.218l-2.088.079-270-.079a4.832,4.832,0,0,1-4.784-5.456l22.723-175c.31-2.412,2.165-4.82,4.59-4.82Z" transform="translate(-54.441 -71.51)" fill="#59beea"/>
        <path id="Path_2878" data-name="Path 2878" d="M93.663,303.767a5.422,5.422,0,0,1-5.37-6.121l16.1-120.218a.59.59,0,1,1,1.17.157L89.463,297.8a4.242,4.242,0,0,0,4.2,4.787l272.174-.493a4.677,4.677,0,0,0,4.411-3.963l21.975-170.755a7.333,7.333,0,0,0-7.259-8.28H356.811a.59.59,0,0,1,0-1.18h28.152a8.512,8.512,0,0,1,8.43,9.61L371.417,298.282a5.9,5.9,0,0,1-5.58,4.993Z" transform="translate(-53.532 -71.529)"/>
        <path id="Path_2879" data-name="Path 2879" d="M373.292,118.957h0l-179.432-.09a.59.59,0,0,1,0-1.18h0l179.432.09a.59.59,0,0,1,0,1.18" transform="translate(-117.24 -71.389)"/>
        <path id="Path_2880" data-name="Path 2880" d="M781.348,309.767a.573.573,0,0,1-.077-.005.59.59,0,0,1-.508-.662l21.413-162.914a.59.59,0,0,1,1.17.154L781.932,309.254a.59.59,0,0,1-.584.513" transform="translate(-473.615 -88.367)" fill="#178bcb"/>
        <path id="Path_2881" data-name="Path 2881" d="M315.808,175.042H231.467l10.948-84.478h84.341Z" transform="translate(-140.41 -54.937)" fill="#fff"/>
      </g>
    </g>
    <g id="Group_259" data-name="Group 259" transform="translate(91.057 35.627)">
      <g id="Group_258" data-name="Group 258" clip-path="url(#clip-path-4)">
        <path id="Path_2882" data-name="Path 2882" d="M304.8,112.428a8.973,8.973,0,0,1,2.113.935c7.283,4.448,1,14.752,3.895,21.426,2.48,5.722.183,10.242-4.7,14.776-2.823,2.623-5.436,4.8-6.671,8.48-.712,2.119-1.1,4.3-1.924,6.395-4.083,10.322-16.476,13.528-25.528,11.287a21.666,21.666,0,0,1-10.459-6.03c-3.216-3.365-7.1-9.136-2.406-13.941a16.367,16.367,0,0,1,5.454-3.4c3.423-1.448,9.169-2.934,10.733-6.885,1.178-2.976-.7-6.1,1.324-8.988,1.58-2.261,4.569-2.95,6.24-5.156,1.443-1.905,1.494-4.352,1.742-6.6,1.373-12.48,12.709-14.531,20.185-12.292" transform="translate(-246.924 -103.348)"/>
        <path id="Path_2883" data-name="Path 2883" d="M250.805,247.262c3.192-9.024,6.542-20.4,9.9-27.815a12.572,12.572,0,0,1,9.7-7.222A170.7,170.7,0,0,1,308.9,210.73a8.606,8.606,0,0,1,7.278,5.465c3.274,8.41,5.334,20.149,7.157,32.537Z" transform="translate(-243.198 -163.153)" fill="#b58caf"/>
        <path id="Path_2884" data-name="Path 2884" d="M322.43,248.4h-.012l-72.534-1.469a.591.591,0,0,1-.544-.787c1.017-2.876,2.075-6.065,3.1-9.149,2.224-6.7,4.524-13.638,6.825-18.714a13.1,13.1,0,0,1,10.158-7.563,169.991,169.991,0,0,1,38.626-1.5,9.139,9.139,0,0,1,7.777,5.839c3.368,8.653,5.447,20.813,7.192,32.665a.591.591,0,0,1-.584.676m-71.707-2.633,71.021,1.439c-1.713-11.563-3.76-23.342-7.021-31.719a7.967,7.967,0,0,0-6.778-5.091,168.836,168.836,0,0,0-38.359,1.491,11.92,11.92,0,0,0-9.249,6.882c-2.275,5.018-4.565,11.922-6.779,18.6-.934,2.817-1.9,5.721-2.835,8.4" transform="translate(-242.288 -162.236)"/>
        <path id="Path_2885" data-name="Path 2885" d="M332.595,178.987l-3.208,12.318-6.189.919a10.1,10.1,0,0,0,9.33,7.94c7.965.546,12.494-5.081,13.33-8.052l-5.608-.806.578-11.956Z" transform="translate(-287.112 -144.202)" fill="#fff"/>
        <path id="Path_2886" data-name="Path 2886" d="M332.691,199.882q-.545,0-1.112-.038c-8.324-.571-9.856-8.343-9.87-8.422a.59.59,0,0,1,.493-.691l5.8-.862,3.109-11.94a.584.584,0,0,1,.6-.441l8.234.363a.591.591,0,0,1,.563.618l-.552,11.42,5.076.73a.591.591,0,0,1,.484.744c-.78,2.77-5.052,8.518-12.826,8.518m-9.672-8.079a9.345,9.345,0,0,0,8.64,6.863,12.542,12.542,0,0,0,12.494-6.981l-4.9-.7a.591.591,0,0,1-.505-.613L339.3,179l-7.165-.316-3.087,11.856a.59.59,0,0,1-.484.435Zm5.459-1.408h0Z" transform="translate(-286.203 -143.293)"/>
        <path id="Path_2887" data-name="Path 2887" d="M353.219,143.945a1.263,1.263,0,0,0-1.026.287c0-.07.007-.141.009-.21l.965-7.441c-9.179,6.1-10.23,2.2-15.756,3.947,0,0-.5,3.458-.552,3.7a1.045,1.045,0,0,0-.947-.283c-.843.2-1.382,1.564-1.2,3.035.172,1.423,1.406,3.005,2.249,2.924.795,3.752,2.956,6.985,5.932,6.985s5.976-3.232,7.743-6.985c.823.081,2.467-1.5,3.007-2.924.559-1.472.372-2.83-.418-3.035" transform="translate(-294.072 -118.479)" fill="#fff"/>
        <path id="Path_2888" data-name="Path 2888" d="M341.974,156.569c-2.906,0-5.4-2.752-6.419-7.049a4.342,4.342,0,0,1-2.349-3.38c-.219-1.816.491-3.4,1.651-3.679a1.494,1.494,0,0,1,.626-.017c.12-.794.3-2.036.43-2.911a.59.59,0,0,1,.406-.477,12.036,12.036,0,0,1,5.044-.447c2.5.185,4.863.36,10.563-3.43a.59.59,0,0,1,.912.567l-.865,6.677a1.405,1.405,0,0,1,1.4.808,3.927,3.927,0,0,1-.1,3.048,5.847,5.847,0,0,1-3.17,3.266c-1.631,3.307-4.674,7.024-8.133,7.024m-5.932-8.165a.591.591,0,0,1,.577.468c.687,3.243,2.609,6.517,5.355,6.517,2.817,0,5.651-3.338,7.209-6.646a.588.588,0,0,1,.592-.336h.018a4.723,4.723,0,0,0,2.38-2.548,2.882,2.882,0,0,0,.153-2.087c-.074-.143-.145-.161-.168-.168a.754.754,0,0,0-.534.2.59.59,0,0,1-.933-.508c0-.085.007-.14.008-.194,0-.021,0-.042.005-.063l.8-6.182c-5.291,3.3-7.8,3.111-10.228,2.931a11.1,11.1,0,0,0-4.251.29c-.143.977-.461,3.148-.5,3.357a.59.59,0,0,1-.967.328.477.477,0,0,0-.419-.153c-.415.1-.916,1.082-.758,2.391a3.125,3.125,0,0,0,1.59,2.408h.016a.557.557,0,0,1,.057,0" transform="translate(-293.159 -117.569)"/>
      </g>
    </g>
    <g id="Group_261" data-name="Group 261">
      <g id="Group_260" data-name="Group 260" clip-path="url(#clip-path)">
        <path id="Path_2890" data-name="Path 2890" d="M249.978,141.855a.555.555,0,0,1-.076-.005.589.589,0,0,1-.509-.661l1.117-8.617a.59.59,0,1,1,1.17.152l-1.117,8.617a.59.59,0,0,1-.584.514" transform="translate(-151.281 -80.107)"/>
        <path id="Path_2891" data-name="Path 2891" d="M315.292,174.722H229.76l5.261-40.6a.59.59,0,0,1,1.17.152L231.1,173.542h83.151l10.8-83.3h-4.476a.59.59,0,1,1,0-1.18h5.819Z" transform="translate(-139.375 -54.027)"/>
        <path id="Path_2892" data-name="Path 2892" d="M256.788,95.1a.553.553,0,0,1-.076-.005.589.589,0,0,1-.509-.661l.7-5.371H302.64a.59.59,0,0,1,0,1.18H257.935l-.563,4.342a.59.59,0,0,1-.584.514" transform="translate(-155.412 -54.028)"/>
        <path id="Path_2893" data-name="Path 2893" d="M308.057,435.835H223.716l10.948-84.478H319Z" transform="translate(-135.708 -213.136)" fill="#f3f8ff"/>
      </g>
    </g>
    <g id="Group_263" data-name="Group 263" transform="translate(88.008 138.22)">
      <g id="Group_262" data-name="Group 262" clip-path="url(#clip-path-6)">
        <path id="Path_2894" data-name="Path 2894" d="M317.151,474.388c-5.1-8.173-7.645-12.259-11.189-14.534-8.405-5.395-18.3-4.129-26.7-3.055-8.282,1.059-17.674,2.26-27.191,9.054-1.24.886-21.389,15.727-20.578,37.534a32.778,32.778,0,0,0,7.5,19.8,36.839,36.839,0,0,1,10.735-8.929c-.006-.021-.013-.041-.018-.062-2.236-8.593.836-18.472,7.928-25.575q-1.6,13.275-3.207,26.551a12.816,12.816,0,0,0,7.041,4.794c7.841,1.893,13.967-5.41,23.911-6.113,3.722-.264,8.954.329,15.1,4.42q-.218-12.209-.436-24.417c.126,1.135.939,7.4,6.515,10.515,1.11.62,5.523,3.084,10.411,1,5.55-2.371,7.491-8.806,7.718-9.6,1.79-6.253-1.292-11.38-7.527-21.378" transform="translate(-228.416 -414.745)" fill="#edb4e5"/>
        <path id="Path_2895" data-name="Path 2895" d="M400.188,531.95c-7.153-4.586-24.7-10.557-24.7-10.557a12.642,12.642,0,0,1-4.683-6.471l-.548-1.717s-2.695-.316-1.335,5.417c-.6-.125-.281-.221-.727-.072a2.162,2.162,0,0,0-1.583,2.788s-1.319,2.058-.386,3.142c0,0-1.142,4.309,3.035,4.51,0,0,18.072,11.567,22.969,12.435s12.584-6.512,7.961-9.476" transform="translate(-309.96 -449.534)" fill="#fff"/>
        <path id="Path_2896" data-name="Path 2896" d="M392.135,541.176a5.3,5.3,0,0,1-.926-.079c-4.79-.849-21.286-11.308-23.054-12.436a3.693,3.693,0,0,1-2.872-1.406,4.79,4.79,0,0,1-.606-3.551c-.713-1.166.043-2.758.385-3.366a2.829,2.829,0,0,1,.208-1.8,2.945,2.945,0,0,1,1.821-1.458l.164-.053c-.42-2.214-.243-3.773.529-4.641a1.955,1.955,0,0,1,1.624-.677.59.59,0,0,1,.493.407l.548,1.717a12.033,12.033,0,0,0,4.395,6.12c1.476.506,17.851,6.168,24.747,10.59a3.5,3.5,0,0,1,1.365,4.542c-1.144,2.927-5.314,6.09-8.822,6.09m-24.626-22.99-.008,0-.037.013a1.823,1.823,0,0,0-1.135.859,1.751,1.751,0,0,0-.077,1.175.591.591,0,0,1-.061.512c-.279.439-.959,1.83-.435,2.439a.591.591,0,0,1,.123.536,3.876,3.876,0,0,0,.36,2.84,2.654,2.654,0,0,0,2.133.93.59.59,0,0,1,.29.092c.18.115,18.027,11.513,22.754,12.35,3.07.544,7.361-2.513,8.443-5.279a2.324,2.324,0,0,0-.9-3.119c-7.01-4.495-24.4-10.436-24.575-10.5a.583.583,0,0,1-.154-.079,13.205,13.205,0,0,1-4.9-6.771l-.392-1.228a.9.9,0,0,0-.284.227c-.324.383-.764,1.461-.07,4.386a.59.59,0,0,1-.7.714,2.494,2.494,0,0,1-.375-.1" transform="translate(-309.045 -448.624)"/>
        <path id="Path_2897" data-name="Path 2897" d="M344.78,391.988a35.131,35.131,0,0,0-1.736-5.1c-.553-.781-.942-1.595,1.345-2.91s8.277-4.835,11.514-4.618,5.111,2.522,3.827,4.027-1.862,2.137-1.111,2.284,1.008,1.081-1.415,2.29-11.079,6.565-12.424,4.031" transform="translate(-295.844 -368.335)"/>
        <path id="Path_2898" data-name="Path 2898" d="M346.178,421.075l.16-7.517c4.3-1.771,3.233-4.625,3.054-6.866-.193-2.411-1.187-7.677-1.187-7.677-3.584,1.732-9.809.8-9.809.8s.637,1.51-.018,2.2a5.127,5.127,0,0,0-.87,2.286,1.815,1.815,0,0,0-2.292-.385c-.766.423-.354,2.437,0,3.573a2.249,2.249,0,0,0,1.511,1.422s.247,1.077.471,2.074l-4.433,11.73-4.545,1.528,13.655,2.7,8.08-5.06Z" transform="translate(-287.108 -380.267)" fill="#fff"/>
        <path id="Path_2899" data-name="Path 2899" d="M340.964,426.625a.594.594,0,0,1-.115-.011l-13.655-2.7a.59.59,0,0,1-.074-1.138l4.28-1.439,4.272-11.3c-.138-.612-.278-1.228-.36-1.586a2.755,2.755,0,0,1-1.571-1.691c-.406-1.31-.911-3.607.28-4.264a2.34,2.34,0,0,1,2.189-.111,4.117,4.117,0,0,1,.83-1.68c.251-.265.1-1.08-.1-1.566a.591.591,0,0,1,.631-.812c.061.009,6.09.88,9.466-.751a.59.59,0,0,1,.836.422c.041.216,1,5.325,1.2,7.74.024.292.063.6.1.9.255,1.985.6,4.683-3.162,6.4l-.142,6.651,3.3.708a.59.59,0,0,1,.19,1.077l-8.08,5.06a.59.59,0,0,1-.313.09M329.6,423.188l11.247,2.223,6.649-4.164-2.353-.5a.591.591,0,0,1-.467-.59l.16-7.516a.59.59,0,0,1,.366-.533c3.307-1.36,3.06-3.28,2.8-5.312-.042-.329-.083-.651-.108-.961-.146-1.825-.769-5.373-1.046-6.895-2.884,1.07-6.8.841-8.552.665a2.189,2.189,0,0,1-.4,1.915,4.374,4.374,0,0,0-.713,1.959.59.59,0,0,1-1.041.295,1.2,1.2,0,0,0-1.551-.242c-.181.128-.245,1.2.277,2.882a1.662,1.662,0,0,0,1.088,1.024.59.59,0,0,1,.434.441s.247,1.078.471,2.076a.589.589,0,0,1-.024.338l-4.433,11.73a.589.589,0,0,1-.364.351Z" transform="translate(-286.199 -379.357)"/>
        <path id="Path_2900" data-name="Path 2900" d="M357.717,432.783a5.882,5.882,0,0,1-2.816-.653,4.719,4.719,0,0,1-2.281-2.711.59.59,0,0,1,1.14-.306,3.522,3.522,0,0,0,1.719,1.988c1.337.705,3.175.668,5.46-.108a.59.59,0,0,1,.379,1.118,11.311,11.311,0,0,1-3.6.673" transform="translate(-301.898 -398.261)"/>
      </g>
    </g>
    <g id="Group_265" data-name="Group 265">
      <g id="Group_264" data-name="Group 264" clip-path="url(#clip-path)">
        <path id="Path_2902" data-name="Path 2902" d="M307.54,435.515H222.009l3.837-29.607a.59.59,0,1,1,1.17.152l-3.664,28.275H306.5l10.8-83.3H301.785a.59.59,0,0,1,0-1.18h16.856Z" transform="translate(-134.673 -212.227)"/>
        <path id="Path_2903" data-name="Path 2903" d="M339.456,351.037H315.067a.59.59,0,1,1,0-1.18h24.389a.59.59,0,0,1,0,1.18" transform="translate(-190.765 -212.227)"/>
        <path id="Path_2904" data-name="Path 2904" d="M579.822,486.534H495.481l10.948-84.478H590.77Z" transform="translate(-300.564 -243.891)" fill="#178bcb"/>
      </g>
    </g>
    <g id="Group_267" data-name="Group 267" transform="translate(194.917 158.165)">
      <g id="Group_266" data-name="Group 266" clip-path="url(#clip-path-8)">
        <path id="Path_2905" data-name="Path 2905" d="M574.877,438.837a15.125,15.125,0,0,1,13.966-4.2c5.189,1.29,7.423,5.811,9,9,2.784,5.636.96,7.764,3.265,11.017,4.082,5.762,11.763,1.848,17.024,5.987,8.025,6.314,6.993,28.605-5.589,37.465-8.391,5.908-18.716,2.955-21.525,2.151-8.526-2.438-18.72-9.661-19.276-19.856-.46-8.431,5.832-15.648,1.854-22.605-1.013-1.771-1.952-2.232-2.614-4.466a15.015,15.015,0,0,1,3.9-14.5" transform="translate(-540.966 -421.601)"/>
        <path id="Path_2906" data-name="Path 2906" d="M609.834,427.015c-1.828-1.547-.1-6.328,1.424-8.925.572-.974,3.129-5.329,5.917-5.248,2.864.083,5.144,4.823,3.737,8.676-1.758,4.817-8.937,7.311-11.078,5.5" transform="translate(-564.371 -408.598)"/>
        <path id="Path_2907" data-name="Path 2907" d="M446.8,494.173s-4.8-5.065-6.182-6.356c-1.576-1.469,2.527-1.952,7.087,2.8Z" transform="translate(-461.992 -453.462)" fill="#fff"/>
        <path id="Path_2908" data-name="Path 2908" d="M446.2,494.445l-.736-.778c-.048-.05-4.8-5.067-6.156-6.33a1.247,1.247,0,0,1-.5-1.231,1.034,1.034,0,0,1,.814-.738c1.481-.394,4.649.848,7.605,3.927l.227.236Zm-6.093-7.976.005.005c1.067.994,4.067,4.13,5.471,5.606l.56-2.2c-2.738-2.753-5.182-3.473-6.037-3.41" transform="translate(-461.082 -452.551)"/>
        <path id="Path_2909" data-name="Path 2909" d="M455.408,494.675c-.068.28-.14.56-.225.838a2.672,2.672,0,0,0,.179,2.328,31,31,0,0,0,4.962,3.256c.482.275-.624,8.456-.624,8.456l5.761-1.971s.527-9.162-.2-12.884-3.69-5.489-4.53-5.373-1.3,1.7-1.3,1.7-1.609-1.382-2.79-.642c-.619.388-.428,1.044-.6,1.679Z" transform="translate(-470.923 -454.99)" fill="#fff"/>
        <path id="Path_2910" data-name="Path 2910" d="M458.081,509.511l.128-.946a62.456,62.456,0,0,0,.73-7.97A27.125,27.125,0,0,1,454,497.3a3.234,3.234,0,0,1-.284-2.874c.077-.25.142-.5.216-.8l.637-2.614a3.037,3.037,0,0,0,.074-.492,1.807,1.807,0,0,1,.785-1.548,2.739,2.739,0,0,1,2.823.233,2.207,2.207,0,0,1,1.5-1.375c1.214-.17,4.414,1.871,5.189,5.845.733,3.752.231,12.654.209,13.031l-.023.4Zm-1.551-19.666a.888.888,0,0,0-.48.129c-.166.1-.195.225-.236.659a3.953,3.953,0,0,1-.106.674l-.633,2.6c-.068.279-.144.578-.235.872s-.346,1.264.074,1.781a26.565,26.565,0,0,0,4.8,3.115c.355.2.793.452-.206,8.1l4.481-1.534c.09-1.789.41-9.168-.21-12.342-.666-3.415-3.337-4.945-3.872-4.9-.257.035-.646.717-.808,1.279l-.255.882-.7-.6a3.2,3.2,0,0,0-1.613-.719" transform="translate(-470.017 -454.082)"/>
        <path id="Path_2911" data-name="Path 2911" d="M464.837,500.141a1.521,1.521,0,0,1-1.353-.863,3.9,3.9,0,0,1-.312-2.663.59.59,0,0,1,1.136.321,2.735,2.735,0,0,0,.222,1.794c.137.262.3.235.363.225.342-.055.928-.593,1.139-1.852.332-1.974-2.164-4.111-2.189-4.132a.59.59,0,0,1,.76-.9c.125.1,3.035,2.59,2.592,5.23-.26,1.55-1.091,2.658-2.117,2.821a1.512,1.512,0,0,1-.243.02" transform="translate(-475.818 -456.575)"/>
        <path id="Path_2912" data-name="Path 2912" d="M616.993,642.256l-5.679,6.675a1.872,1.872,0,0,1-2.845.195l-1.024-1.24c-.692-.839-1.784-2.046-2.937-2.086,0,0-9.162.11-8.509,5.172a1.6,1.6,0,0,0,1.4.881,26.079,26.079,0,0,1,3.583.324l1.5.31a10.638,10.638,0,0,1,2.607,1.467,7.15,7.15,0,0,0,4.84,1.689c2.127-.074,11.72-7.147,11.72-7.147Z" transform="translate(-556.436 -547.764)" fill="#fff"/>
        <path id="Path_2913" data-name="Path 2913" d="M608.778,655.328a7.822,7.822,0,0,1-4.972-1.83,9.954,9.954,0,0,0-2.4-1.353l-1.454-.3a24.345,24.345,0,0,0-3.485-.312,2.18,2.18,0,0,1-1.911-1.209.586.586,0,0,1-.056-.186,3.815,3.815,0,0,1,.914-3.116c2.277-2.621,7.933-2.719,8.173-2.721,1.371.047,2.535,1.253,3.4,2.3l1.024,1.24a1.008,1.008,0,0,0,.79.354h.01a1.532,1.532,0,0,0,1.141-.556l5.68-6.675a.59.59,0,0,1,.922.03l4.661,6.24a.59.59,0,0,1-.123.828c-1.626,1.2-9.851,7.186-12.05,7.262-.089,0-.178,0-.266,0m-13.117-5.447a1.01,1.01,0,0,0,.852.473,26.267,26.267,0,0,1,3.68.336l1.5.31a.588.588,0,0,1,.089.026,11.139,11.139,0,0,1,2.776,1.567A6.525,6.525,0,0,0,609,654.144c1.356-.047,7.21-3.983,10.911-6.682l-3.862-5.17-5.2,6.111a2.689,2.689,0,0,1-2.04.971h-.019a2.171,2.171,0,0,1-1.691-.783l-1.024-1.24c-.415-.5-1.517-1.838-2.5-1.871-.026,0-5.341.095-7.269,2.317a2.629,2.629,0,0,0-.646,2.084" transform="translate(-555.526 -546.854)"/>
        <path id="Path_2914" data-name="Path 2914" d="M531.494,526.538l-.009.023a48.5,48.5,0,0,0-14.675-3.085,66.013,66.013,0,0,0-18.776,1.255,17.937,17.937,0,0,0-7.116,4.415l-3.524,3.547c-3.4,4.973-7.528,8.389-10.28,7.764-2.247-.511-3.084-3.826-4.756-10.457a17.7,17.7,0,0,1-.857-3.949,36.948,36.948,0,0,0-8.747,2.929c-1.153,3.489-1.743,9.647.1,17.343.766,3.192,1.668,6.951,4.5,8.951,4.266,3.013,12.868,2.338,21.643-2.493q-1.51,4.535-3.031,9.022c-5.1,13.6-3.812,18.007-1.766,19.555,3.365,2.544,8.326-2.991,18.518-1.973,5.717.572,6.993,2.6,15.828,3.587,5.656.634,8.517.917,10.156-.688,2.669-2.615,3.3-27.2,3.41-33.244,9.539,9.41,2.744,18.92.3,21.747a1.521,1.521,0,0,0-.236,1.756l4.048,6.793a1.405,1.405,0,0,0,2.021.332,38.379,38.379,0,0,0,12.226-12.724,37.361,37.361,0,0,0,4.294-10.071c3.243-22.1-23.272-30.333-23.272-30.333" transform="translate(-474.973 -475.591)" fill="#fff"/>
        <path id="Path_2915" data-name="Path 2915" d="M523.751,583.156a60.734,60.734,0,0,1-6.168-.509,42.212,42.212,0,0,1-9.8-2.175,25.086,25.086,0,0,0-6.017-1.411,27.344,27.344,0,0,0-11.946,1.651c-2.8.9-5.013,1.609-6.869.206-3.153-2.384-2.64-9,1.568-20.232.8-2.359,1.644-4.862,2.559-7.607-8.235,4.162-16.528,4.9-20.958,1.767-3.015-2.128-3.968-6.1-4.735-9.295-2.313-9.643-.654-15.96-.09-17.666a.589.589,0,0,1,.288-.339,38.385,38.385,0,0,1,8.895-2.982.59.59,0,0,1,.709.5c.05.372.083.631.107.823a4.827,4.827,0,0,0,.2,1c.1.353.256.939.54,2.065,1.561,6.187,2.42,9.595,4.315,10.026,2.347.533,6.227-2.489,9.661-7.521a.613.613,0,0,1,.069-.083l3.525-3.547a18.539,18.539,0,0,1,7.352-4.559l.012.037a63.578,63.578,0,0,1,18.995-1.32,48.836,48.836,0,0,1,14.673,3.063.544.544,0,0,1,.138.024,45.807,45.807,0,0,1,13.038,6.977c8.321,6.446,12,14.747,10.643,24.005a38.14,38.14,0,0,1-4.374,10.293,38.949,38.949,0,0,1-12.4,12.908,2.181,2.181,0,0,1-1.674.329,1.833,1.833,0,0,1-1.179-.851l-4.048-6.793a1.883,1.883,0,0,1-.175-.39c-.535,5.112-1.3,9.193-2.376,10.251-1.037,1.015-2.452,1.362-4.467,1.362m-24.425-5.4c.815,0,1.665.039,2.554.128a26.372,26.372,0,0,1,6.271,1.465,41.205,41.205,0,0,0,9.564,2.122c5.69.638,8.265.861,9.678-.523,1.965-1.925,2.97-18.891,3.233-32.834a.59.59,0,0,1,1-.409c9.932,9.8,2.763,19.74.33,22.553a.944.944,0,0,0-.177,1.068l4.048,6.794a.655.655,0,0,0,.427.3,1,1,0,0,0,.761-.162,37.835,37.835,0,0,0,12.048-12.54,36.678,36.678,0,0,0,4.213-9.848c1.312-8.938-2.119-16.643-10.2-22.9a45.675,45.675,0,0,0-12.514-6.733.585.585,0,0,1-.185-.035,47.975,47.975,0,0,0-14.487-3.051,66.259,66.259,0,0,0-18.6,1.234,17.362,17.362,0,0,0-6.858,4.262l-3.487,3.509c-3.756,5.485-8.018,8.609-10.867,7.961-2.6-.591-3.469-4.032-5.2-10.888-.281-1.115-.439-1.694-.535-2.043a5.813,5.813,0,0,1-.23-1.16c-.006-.053-.014-.11-.022-.175a35.694,35.694,0,0,0-7.759,2.628c-.592,1.917-1.956,7.844.191,16.792.757,3.157,1.616,6.734,4.268,8.606,4.237,2.992,12.88,1.952,21.017-2.528a.59.59,0,0,1,.844.7c-1.1,3.3-2.09,6.253-3.033,9.026-3.9,10.4-4.574,16.923-1.968,18.894,1.367,1.033,3.129.468,5.8-.388a30.644,30.644,0,0,1,9.871-1.83m32.449-28.182c-.118,5.326-.392,13.542-1.025,20.38a2.374,2.374,0,0,1,.316-.467c2.179-2.519,8.439-11.175.709-19.913" transform="translate(-474.072 -474.682)"/>
        <path id="Path_2916" data-name="Path 2916" d="M523.764,583.157a60.977,60.977,0,0,1-6.181-.507,42.21,42.21,0,0,1-9.8-2.175,25.084,25.084,0,0,0-6.017-1.411,27.34,27.34,0,0,0-11.946,1.65c-2.8.9-5.013,1.609-6.869.206-3.153-2.384-2.64-9,1.568-20.232.786-2.313,1.629-4.816,2.559-7.607-8.234,4.162-16.527,4.9-20.958,1.768-3.015-2.129-3.969-6.1-4.735-9.3-2.314-9.642-.654-15.96-.09-17.666a.589.589,0,0,1,.288-.339,38.423,38.423,0,0,1,8.895-2.982.59.59,0,0,1,.709.5c.05.373.083.631.107.823a4.828,4.828,0,0,0,.2,1c.1.353.256.939.54,2.064,1.561,6.187,2.42,9.6,4.315,10.026,2.337.533,6.226-2.489,9.661-7.521a.611.611,0,0,1,.069-.083l3.524-3.547a18.544,18.544,0,0,1,7.352-4.56l.044-.013a67.278,67.278,0,0,1,18.963-1.27,48.838,48.838,0,0,1,14.673,3.063.563.563,0,0,1,.138.024,45.8,45.8,0,0,1,13.039,6.977c8.321,6.446,12,14.747,10.642,24.005a38.141,38.141,0,0,1-4.375,10.293,38.954,38.954,0,0,1-12.4,12.909,2.178,2.178,0,0,1-1.675.328,1.832,1.832,0,0,1-1.179-.851l-4.048-6.793a1.859,1.859,0,0,1-.175-.389c-.122,1.192-.255,2.327-.4,3.377a.59.59,0,1,1-1.168-.163c1.177-8.456,1.523-22.53,1.6-26.642a.59.59,0,0,1,1-.409c9.932,9.8,2.763,19.74.33,22.554a.943.943,0,0,0-.177,1.067l4.048,6.793a.653.653,0,0,0,.427.3,1,1,0,0,0,.761-.162,37.831,37.831,0,0,0,12.048-12.541,36.668,36.668,0,0,0,4.214-9.848c1.31-8.927-2.111-16.626-10.171-22.881a45.757,45.757,0,0,0-12.548-6.756.545.545,0,0,1-.177-.032,47.947,47.947,0,0,0-14.487-3.051,66.164,66.164,0,0,0-18.6,1.234,17.366,17.366,0,0,0-6.859,4.262l-3.486,3.508c-3.756,5.485-8.018,8.609-10.867,7.961-2.6-.591-3.469-4.032-5.2-10.888-.281-1.114-.439-1.693-.535-2.043a5.808,5.808,0,0,1-.23-1.159c-.006-.053-.014-.111-.022-.175a35.764,35.764,0,0,0-7.759,2.627c-.592,1.917-1.956,7.845.191,16.792.757,3.157,1.616,6.734,4.268,8.607,4.237,2.992,12.88,1.952,21.017-2.528a.59.59,0,0,1,.844.7c-1.118,3.362-2.111,6.314-3.033,9.026-3.9,10.4-4.574,16.923-1.968,18.894,1.367,1.033,3.13.468,5.8-.388a28.733,28.733,0,0,1,12.424-1.7,26.373,26.373,0,0,1,6.271,1.465,41.185,41.185,0,0,0,9.564,2.122,35.562,35.562,0,0,0,7.464.418.59.59,0,1,1,.155,1.17,12,12,0,0,1-1.569.091m8.011-33.579c-.1,4.289-.367,13.094-1.028,20.388a2.377,2.377,0,0,1,.32-.474c2.179-2.519,8.438-11.176.708-19.914" transform="translate(-474.072 -474.685)"/>
        <path id="Path_2917" data-name="Path 2917" d="M582.179,493.934l-2.917,11.2-5.629.836a9.182,9.182,0,0,0,8.486,7.221c7.244.5,11.363-4.622,12.124-7.323l-5.1-.733.526-10.874Z" transform="translate(-542.889 -457.79)" fill="#fff"/>
        <path id="Path_2918" data-name="Path 2918" d="M582.183,512.908q-.5,0-1.015-.035a9.846,9.846,0,0,1-9.026-7.7.589.589,0,0,1,.493-.691l5.244-.779,2.819-10.826a.586.586,0,0,1,.6-.441l7.489.33a.59.59,0,0,1,.563.618l-.5,10.338,4.569.657a.59.59,0,0,1,.484.744c-.713,2.533-4.617,7.786-11.717,7.787m-8.727-7.358a8.443,8.443,0,0,0,7.794,6.145,11.358,11.358,0,0,0,11.284-6.253l-4.385-.631a.59.59,0,0,1-.505-.612l.5-10.283-6.42-.283-2.8,10.742a.59.59,0,0,1-.484.435Zm4.9-1.324h0Z" transform="translate(-541.979 -456.88)"/>
        <path id="Path_2919" data-name="Path 2919" d="M600.937,464.821a1.149,1.149,0,0,0-.933.261c0-.064.007-.129.008-.191l.793-4.979c-7.465,2.523-6.634,1.507-14.247,1.8,0,0-.459,3.146-.5,3.365a.95.95,0,0,0-.861-.258c-.767.186-1.257,1.422-1.1,2.76.156,1.294,1.279,2.734,2.046,2.66.723,3.413,2.688,6.353,5.4,6.353s5.435-2.94,7.042-6.353c.748.074,2.244-1.366,2.735-2.66.508-1.338.338-2.574-.38-2.76" transform="translate(-549.219 -437.153)" fill="#fff"/>
        <path id="Path_2920" data-name="Path 2920" d="M590.629,476.274c-2.662,0-4.944-2.507-5.884-6.424a4.039,4.039,0,0,1-2.144-3.107c-.2-1.678.461-3.142,1.543-3.4a1.4,1.4,0,0,1,.537-.026c.108-.723.269-1.817.382-2.594a.59.59,0,0,1,.561-.5c2.156-.083,3.633-.063,4.821-.046,2.982.043,3.988.057,9.258-1.725a.59.59,0,0,1,.772.651l-.669,4.2a1.341,1.341,0,0,1,.367.043,1.358,1.358,0,0,1,.871.725,3.622,3.622,0,0,1-.087,2.815,5.421,5.421,0,0,1-2.9,3c-1.493,3.017-4.271,6.4-7.434,6.4m-5.411-7.531a.606.606,0,0,1,.593.467c.62,2.929,2.351,5.885,4.818,5.885,2.539,0,5.1-3.02,6.508-6.014a.59.59,0,0,1,.592-.336,4.177,4.177,0,0,0,2.125-2.282,2.566,2.566,0,0,0,.142-1.854c-.037-.072-.078-.115-.119-.125a.645.645,0,0,0-.441.17.59.59,0,0,1-.934-.507l.008-.177a.58.58,0,0,1,.007-.078l.64-4.019c-4.68,1.536-5.859,1.52-8.729,1.479-1.082-.015-2.406-.034-4.269.027-.138.943-.4,2.726-.436,2.908a.59.59,0,0,1-.967.33.39.39,0,0,0-.334-.129c-.358.087-.79.955-.649,2.117a2.822,2.822,0,0,0,1.394,2.143h.051" transform="translate(-548.307 -436.242)"/>
        <path id="Path_2921" data-name="Path 2921" d="M595.955,460.31l2.32-4.942-.495,4.626Z" transform="translate(-556.43 -434.396)" fill="#fff"/>
      </g>
    </g>
    <g id="Group_269" data-name="Group 269">
      <g id="Group_268" data-name="Group 268" clip-path="url(#clip-path)">
        <path id="Path_2923" data-name="Path 2923" d="M570.547,401.736H538.474a.59.59,0,1,1,0-1.18h32.073a.59.59,0,1,1,0,1.18" transform="translate(-326.286 -242.981)"/>
        <path id="Path_2924" data-name="Path 2924" d="M510.734,458.011a.568.568,0,0,1-.076-.005.59.59,0,0,1-.51-.661l2.837-21.885a.59.59,0,1,1,1.17.151L511.318,457.5a.589.589,0,0,1-.584.514" transform="translate(-309.458 -263.842)"/>
        <path id="Path_2925" data-name="Path 2925" d="M579.3,515.013H493.773l5.561-42.905a.59.59,0,0,1,1.17.152l-5.388,41.573h83.151l8.461-65.287a.59.59,0,1,1,1.17.152Z" transform="translate(-299.528 -271.78)"/>
        <path id="Path_2926" data-name="Path 2926" d="M588.888,185.808H500.83l11.43-88.2h88.058Z" transform="translate(-303.808 -59.21)" fill="#caddff"/>
      </g>
    </g>
    <g id="Group_271" data-name="Group 271" transform="translate(197.022 38.398)">
      <g id="Group_270" data-name="Group 270" clip-path="url(#clip-path-10)">
        <path id="Path_2927" data-name="Path 2927" d="M708.948,139.264c1.85-2.471,1.2-9.182,1.2-9.182s-.6-3.751-3.749-3.805c-2.053.177-2.454,2.891-2.45,3.125.018,1.063.071,3.895.151,4.639.1.922.164,3.554-1.24,1.531s-3.784-2.163-2.954-1.486,2.3,3.6,2.85,4.384a3.839,3.839,0,0,0,1.531.862,22.982,22.982,0,0,1-1.818,8.718c-1.787,4.238-5.182,11.066-7.455,13.105,1.8,2.967,3.665,9.266,10.528,9.341,4.207-8.5,7.226-23.39,3.411-31.232" transform="translate(-618.621 -114.999)" fill="#fff"/>
        <path id="Path_2928" data-name="Path 2928" d="M704.627,170.174h-.007c-6.071-.066-8.5-4.8-10.115-7.937-.319-.622-.62-1.209-.91-1.687a.59.59,0,0,1,.11-.745c2.205-1.979,5.577-8.8,7.306-12.9a22.355,22.355,0,0,0,1.764-8.092,3.021,3.021,0,0,1-1.417-.92c-.19-.272-.465-.751-.784-1.305a16.012,16.012,0,0,0-1.956-2.959.818.818,0,0,1-.367-.866.737.737,0,0,1,.617-.529,4.434,4.434,0,0,1,3.563,2.086c.069.1.129.18.182.245a6.711,6.711,0,0,0-.013-1.377c-.079-.728-.13-3.253-.155-4.693-.007-.454.511-3.509,2.989-3.723a.513.513,0,0,1,.061,0c2.881.05,4.087,2.836,4.321,4.3.032.308.615,6.528-1.1,9.327,3.551,7.819.954,22.32-3.559,31.441a.591.591,0,0,1-.529.328m-9.786-9.829c.233.416.469.874.714,1.352,1.618,3.15,3.623,7.052,8.708,7.287,3.808-7.927,7-22.647,3.244-30.373a.591.591,0,0,1,.058-.612c1.4-1.875,1.256-6.967,1.08-8.771-.017-.1-.558-3.2-3.14-3.271-1.606.166-1.88,2.517-1.881,2.541.04,2.364.095,4.079.148,4.569.124,1.148.1,2.579-.7,2.878-.756.283-1.378-.611-1.611-.947a4.152,4.152,0,0,0-1.142-1.116c.384.578.809,1.305,1.279,2.122.3.531.568.989.728,1.218a3.341,3.341,0,0,0,1.258.648.591.591,0,0,1,.379.557,23.53,23.53,0,0,1-1.865,8.941c-1.454,3.449-4.757,10.382-7.257,12.978" transform="translate(-617.711 -114.088)"/>
        <path id="Path_2929" data-name="Path 2929" d="M577.955,196.17c-1.777,4.884-4.2,7.081-5.883,8.176-7.433,4.846-16.573-1.267-33.352-1.778a57.312,57.312,0,0,0-10.7.7,53.786,53.786,0,0,0-8.24,2.017,25.889,25.889,0,0,0-12,8.213,47.88,47.88,0,0,0-10.66,26.708c-.31,3.912.017,9.211,2.8,11.335,4.894-5.272,15.695,4.6,16.24,5.235,3.588,4.214,11.37-1.426,27.877-1.678,7.836-.12,12.842,1.048,14.659-1.66,1.309-1.953-.151-4.262-1-7.657-1.044-4.194-1.3-10.668,2.7-20.269a24.494,24.494,0,0,0,28.515-20.8c-4.113.469-10.457-7.659-10.951-8.548" transform="translate(-498.518 -157.396)" fill="#72005d"/>
        <path id="Path_2930" data-name="Path 2930" d="M535.285,301.249h0a.59.59,0,0,1-.587-.593c.03-6.687,1.426-14.642,4.268-24.319a.59.59,0,1,1,1.133.332c-2.81,9.57-4.19,17.418-4.22,23.992a.59.59,0,0,1-.59.587" transform="translate(-521.373 -205.769)"/>
        <path id="Path_2931" data-name="Path 2931" d="M595.553,158.5a5.255,5.255,0,0,0,2.876.706,7.708,7.708,0,0,0,4.825-2.6c1.956-2.116,3.216-5.592,2.056-7.633-.836-1.47-2.2-.916-3.168-2.559-1.1-1.865.473-3.388-.553-5.021-1.181-1.88-4.339-1.736-4.907-1.711-1.948.089-2.3,1.051-4.129,1-1.863-.051-1.988-.992-3.7-1a5.665,5.665,0,0,0-4.519,2.153c-1.374,1.981-.57,4.592.578,5.97,1.378,1.654,2.614.767,4.67,2.114,3.562,2.335,2.1,6.494,5.973,8.585" transform="translate(-551.045 -123.123)"/>
        <path id="Path_2932" data-name="Path 2932" d="M583.732,178.815l1.891-6.52a21.611,21.611,0,0,1-2.317-.472c-1.669-.89-.592-5.376-.592-5.376l-.838-1.187,3.819-6.633c2.8,2.623,4.257.048,7.2,1.338s.806,4.759.806,4.759,2.687-1.121,1.825,1.341a2.565,2.565,0,0,1-2.9,1.9l.209,11.18s5.139,1.519,6.136,1.792c-1.335-.063-11.144,3.981-21.1-.439Z" transform="translate(-547.563 -134.622)" fill="#fff"/>
        <path id="Path_2933" data-name="Path 2933" d="M587.119,182.246a25.461,25.461,0,0,1-10.4-2.118.59.59,0,0,1,.077-1.107l5.55-1.594,1.616-5.572a11.371,11.371,0,0,1-1.843-.423c-1.812-.966-1.211-4.556-.948-5.771l-.686-.972a.589.589,0,0,1-.029-.635l3.818-6.633a.591.591,0,0,1,.915-.137,3.382,3.382,0,0,0,3.5.947,5.666,5.666,0,0,1,3.537.282,2.986,2.986,0,0,1,1.768,1.854,4.244,4.244,0,0,1-.166,2.6,1.545,1.545,0,0,1,1.162.357c.446.421.509,1.1.186,2.02a3.137,3.137,0,0,1-2.855,2.3l.19,10.139c1.243.367,4.9,1.443,5.71,1.667a.59.59,0,0,1-.185,1.159,11.389,11.389,0,0,0-1.487.315,38.573,38.573,0,0,1-9.427,1.314m-8.34-2.566c6.85,2.439,13.471,1.073,16.851.26-1.72-.5-3.739-1.1-3.871-1.139a.59.59,0,0,1-.423-.555l-.209-11.181a.59.59,0,0,1,.64-.6,1.98,1.98,0,0,0,2.293-1.508c.209-.6.117-.772.116-.773a1.911,1.911,0,0,0-1.156.172.59.59,0,0,1-.73-.854,4.129,4.129,0,0,0,.574-2.786,1.834,1.834,0,0,0-1.115-1.122,4.555,4.555,0,0,0-2.872-.2,4.477,4.477,0,0,1-3.932-.775l-3.278,5.694.621.879a.593.593,0,0,1,.092.478c-.387,1.618-.563,4.217.275,4.707.3.1,1.9.393,2.127.418a.589.589,0,0,1,.5.751l-1.891,6.52a.592.592,0,0,1-.4.4Zm4.043-1.776h0Z" transform="translate(-546.653 -133.712)"/>
        <path id="Path_2934" data-name="Path 2934" d="M597.389,190.142a5.794,5.794,0,0,1-.8-.056.59.59,0,1,1,.163-1.169,4.478,4.478,0,0,0,4.1-1.681.59.59,0,0,1,.958.689,5.721,5.721,0,0,1-4.426,2.218" transform="translate(-558.61 -151.829)"/>
      </g>
    </g>
    <g id="Group_273" data-name="Group 273">
      <g id="Group_272" data-name="Group 272" clip-path="url(#clip-path)">
        <path id="Path_2936" data-name="Path 2936" d="M588.371,243.83H499.123l6.613-51.031a.59.59,0,1,1,1.17.152l-6.441,49.7h86.867l2.93-22.6a.59.59,0,1,1,1.17.151Z" transform="translate(-302.773 -116.641)"/>
        <path id="Path_2937" data-name="Path 2937" d="M613.156,120.047a.558.558,0,0,1-.076-.005.589.589,0,0,1-.509-.661l2.863-22.094H528.566l-.536,4.132a.59.59,0,1,1-1.17-.151l.668-5.16h89.248l-3.036,23.426a.59.59,0,0,1-.584.514" transform="translate(-319.596 -58.299)"/>
        <path id="Path_2938" data-name="Path 2938" d="M707.922,345.369a2.532,2.532,0,0,1,2.444,3.048L707.586,369.4a3.48,3.48,0,0,1-3.253,3.049H650.3a2.532,2.532,0,0,1-2.444-3.049l2.78-20.978a3.481,3.481,0,0,1,3.253-3.048Z" transform="translate(-392.979 -209.504)" fill="#fff"/>
        <path id="Path_2939" data-name="Path 2939" d="M703.425,372.125H649.393a2.971,2.971,0,0,1-2.271-1.013,3.405,3.405,0,0,1-.758-2.7l2.781-20.978a4.091,4.091,0,0,1,3.837-3.561h10.659a.59.59,0,0,1,0,1.18H652.982a2.878,2.878,0,0,0-2.667,2.535l-2.781,20.978a2.228,2.228,0,0,0,.476,1.771,1.808,1.808,0,0,0,1.383.61h54.032a2.878,2.878,0,0,0,2.667-2.536l2.78-20.978a2.229,2.229,0,0,0-.476-1.771,1.806,1.806,0,0,0-1.384-.61h-36.19a.59.59,0,0,1,0-1.18h36.19a2.972,2.972,0,0,1,2.271,1.012,3.405,3.405,0,0,1,.758,2.7l-2.78,20.978a4.091,4.091,0,0,1-3.838,3.561" transform="translate(-392.07 -208.595)"/>
        <path id="Path_2940" data-name="Path 2940" d="M675.259,370.753h0Z" transform="translate(-409.619 -224.902)" fill="#fff"/>
        <path id="Path_2941" data-name="Path 2941" d="M717.291,370.433H674.349a.59.59,0,1,1,0-1.18h42.942a.59.59,0,1,1,0,1.18" transform="translate(-408.709 -223.993)"/>
        <path id="Path_2942" data-name="Path 2942" d="M759.524,386.366h0Z" transform="translate(-460.735 -234.373)" fill="#fff"/>
        <path id="Path_2943" data-name="Path 2943" d="M767.593,386.046h-8.979a.59.59,0,1,1,0-1.18h8.979a.59.59,0,1,1,0,1.18" transform="translate(-459.825 -233.464)"/>
        <path id="Path_2944" data-name="Path 2944" d="M673.189,386.366h0Z" transform="translate(-408.363 -234.373)" fill="#fff"/>
        <path id="Path_2945" data-name="Path 2945" d="M700.5,386.046H672.28a.59.59,0,1,1,0-1.18H700.5a.59.59,0,1,1,0,1.18" transform="translate(-407.454 -233.464)"/>
        <path id="Path_2946" data-name="Path 2946" d="M113.413,150.672H67.065c-1.612,0-2.968,1.747-3.022,3.618l-.663,23.27a3.036,3.036,0,0,0,2.828,3.344h5.543l2.253,6.642,5.013-6.642h33.538a3.136,3.136,0,0,0,3.009-3.229l.67-23.465c.053-1.871-1.21-3.538-2.823-3.538" transform="translate(-38.446 -91.399)" fill="#fff"/>
        <path id="Path_2947" data-name="Path 2947" d="M73.1,187.225a.58.58,0,0,1-.094-.008.589.589,0,0,1-.465-.393l-2.117-6.241H65.3a3.234,3.234,0,0,1-2.331-1,4.063,4.063,0,0,1-1.087-2.947l.663-23.269c.065-2.272,1.719-4.191,3.612-4.191H112.5a3.12,3.12,0,0,1,2.236.99,4.351,4.351,0,0,1,1.177,3.155l-.67,23.464a3.745,3.745,0,0,1-3.6,3.8H78.4l-4.836,6.407a.591.591,0,0,1-.471.235m-6.94-36.873c-1.227,0-2.386,1.451-2.432,3.045l-.663,23.269a2.877,2.877,0,0,0,.755,2.091,2.062,2.062,0,0,0,1.484.646h5.543a.59.59,0,0,1,.559.4L73.3,185.39l4.341-5.752a.589.589,0,0,1,.471-.234h33.538a2.545,2.545,0,0,0,2.42-2.656l.67-23.464a3.21,3.21,0,0,0-.843-2.3,1.945,1.945,0,0,0-1.389-.633Z" transform="translate(-37.537 -90.489)"/>
        <path id="Path_2948" data-name="Path 2948" d="M94.062,171.99h27.631a1.65,1.65,0,0,0,1.48-1.589,1.506,1.506,0,0,0-1.357-1.588H94.185A1.65,1.65,0,0,0,92.7,170.4a1.506,1.506,0,0,0,1.357,1.589" transform="translate(-56.235 -102.404)" fill="#6cc3ea"/>
        <path id="Path_2949" data-name="Path 2949" d="M93.557,187.611h27.631a1.4,1.4,0,0,0,1.471-1.324,1.283,1.283,0,0,0-1.366-1.323H93.662a1.4,1.4,0,0,0-1.471,1.323,1.283,1.283,0,0,0,1.366,1.324" transform="translate(-55.923 -112.201)" fill="#6cc3ea"/>
        <path id="Path_2950" data-name="Path 2950" d="M93.033,202.946h27.63a1.649,1.649,0,0,0,1.48-1.589,1.505,1.505,0,0,0-1.357-1.588H93.156a1.649,1.649,0,0,0-1.48,1.588,1.506,1.506,0,0,0,1.357,1.589" transform="translate(-55.611 -121.182)" fill="#6cc3ea"/>
        <path id="Path_2951" data-name="Path 2951" d="M791.223,1.5H744.875c-1.613,0-2.968,1.747-3.022,3.618l-.663,23.27a3.036,3.036,0,0,0,2.829,3.344h5.543l2.253,6.642,5.013-6.642h33.538a3.136,3.136,0,0,0,3.009-3.229l.67-23.465c.054-1.871-1.21-3.538-2.823-3.538" transform="translate(-449.612 -0.91)" fill="#fff"/>
        <path id="Path_2952" data-name="Path 2952" d="M750.905,38.053a.593.593,0,0,1-.559-.4l-2.117-6.241h-5.12a3.234,3.234,0,0,1-2.331-1,4.064,4.064,0,0,1-1.087-2.947l.663-23.269C740.419,1.919,742.074,0,743.966,0h46.347a3.12,3.12,0,0,1,2.236.99,4.351,4.351,0,0,1,1.177,3.155l-.67,23.464a3.745,3.745,0,0,1-3.6,3.8H756.212l-4.836,6.407a.59.59,0,0,1-.471.235M743.966,1.18c-1.227,0-2.386,1.451-2.432,3.045l-.663,23.269a2.878,2.878,0,0,0,.755,2.091,2.062,2.062,0,0,0,1.484.646h5.543a.59.59,0,0,1,.559.4l1.895,5.586,4.341-5.752a.589.589,0,0,1,.471-.234h33.538a2.545,2.545,0,0,0,2.42-2.656l.669-23.464a3.211,3.211,0,0,0-.843-2.3,1.945,1.945,0,0,0-1.39-.633Z" transform="translate(-448.703)"/>
        <path id="Path_2953" data-name="Path 2953" d="M771.872,22.818H799.5a1.65,1.65,0,0,0,1.48-1.589,1.506,1.506,0,0,0-1.357-1.588H772a1.65,1.65,0,0,0-1.48,1.588,1.506,1.506,0,0,0,1.357,1.589" transform="translate(-467.401 -11.914)" fill="#c69ec1"/>
        <path id="Path_2954" data-name="Path 2954" d="M771.366,38.439H799a1.4,1.4,0,0,0,1.471-1.324,1.283,1.283,0,0,0-1.366-1.323h-27.63A1.4,1.4,0,0,0,770,37.115a1.283,1.283,0,0,0,1.366,1.324" transform="translate(-467.089 -21.712)" fill="#c69ec1"/>
        <path id="Path_2955" data-name="Path 2955" d="M770.842,53.774h27.631a1.65,1.65,0,0,0,1.48-1.589A1.506,1.506,0,0,0,798.6,50.6H770.965a1.65,1.65,0,0,0-1.48,1.588,1.506,1.506,0,0,0,1.357,1.589" transform="translate(-466.777 -30.693)" fill="#c69ec1"/>
        <rect id="Rectangle_436" data-name="Rectangle 436" width="8.579" height="10.071" transform="translate(32.926 316.65)" fill="#5479f7"/>
        <rect id="Rectangle_437" data-name="Rectangle 437" width="10.071" height="8.579" transform="translate(55.755 324.855) rotate(-76.718)" fill="#5479f7"/>
        <path id="Path_2956" data-name="Path 2956" d="M63.62,487.3s-2.562,20.254-.6,28.118,6.564,80.532,6.564,100.191H81.15l5.222-92.875,16.135,33.7a14.422,14.422,0,0,1,.852,8.673l-9.528,50.5,10.817.746L122.732,560.9a16.1,16.1,0,0,0,.173-8.446L108.24,493.789Z" transform="translate(-37.781 -295.599)"/>
        <path id="Path_2957" data-name="Path 2957" d="M111.986,560.332a.588.588,0,0,1-.461-.221l-5.968-7.46a.59.59,0,0,1,.921-.737l5.968,7.46a.59.59,0,0,1-.46.959" transform="translate(-63.953 -334.662)" fill="#fff"/>
        <path id="Path_2958" data-name="Path 2958" d="M79.9,824.837H89.97l1.493,7.6a2.331,2.331,0,0,1-2.189,2.842H80.6a2.331,2.331,0,0,1-2.189-2.842Z" transform="translate(-47.533 -500.354)" fill="#fff"/>
        <path id="Path_2959" data-name="Path 2959" d="M88.365,834.961H79.685a2.772,2.772,0,0,1-2.142-1.027,3.028,3.028,0,0,1-.625-2.519l1.493-7.6a.59.59,0,0,1,.579-.476H89.06a.59.59,0,0,1,.579.476l1.493,7.6a3.028,3.028,0,0,1-.625,2.519,2.772,2.772,0,0,1-2.142,1.027m-8.889-10.444-1.4,7.125a1.854,1.854,0,0,0,.379,1.542,1.575,1.575,0,0,0,1.231.6h8.679a1.576,1.576,0,0,0,1.231-.6,1.853,1.853,0,0,0,.378-1.542l-1.4-7.125Z" transform="translate(-46.623 -499.444)"/>
        <path id="Path_2960" data-name="Path 2960" d="M92.719,845.222h0Z" transform="translate(-49.909 -512.72)" fill="#fff"/>
        <path id="Path_2961" data-name="Path 2961" d="M91.809,844.9H81.365a.59.59,0,0,1,0-1.18H91.809a.59.59,0,0,1,0,1.18" transform="translate(-48.999 -511.81)"/>
        <path id="Path_2962" data-name="Path 2962" d="M136.617,819.148,133.86,828.3c-.48,1.592.491,3.276,1.917,3.325l18.945.642c1.172.039,1.64-1.776.65-2.521-3.083-2.317-7.184-5.535-8.311-7.061-2.611-3.537-5.222-.442-5.222-.442s-1.865-3.095-5.222-3.095" transform="translate(-81.125 -496.903)" fill="#fff"/>
        <path id="Path_2963" data-name="Path 2963" d="M153.846,831.948h-.056l-18.945-.641a2.577,2.577,0,0,1-2-1.119,3.421,3.421,0,0,1-.465-2.965l2.758-9.153a.59.59,0,0,1,.565-.42,6.935,6.935,0,0,1,5.309,2.792,3.851,3.851,0,0,1,2.512-.948,4.081,4.081,0,0,1,3.1,1.934c.838,1.135,3.747,3.6,8.191,6.94a2.07,2.07,0,0,1,.646,2.357,1.733,1.733,0,0,1-1.615,1.226m-17.708-13.1-2.626,8.713a2.265,2.265,0,0,0,.293,1.938,1.392,1.392,0,0,0,1.079.627l18.946.641c.333.011.47-.3.518-.438a.908.908,0,0,0-.243-1.021c-3.207-2.41-7.273-5.613-8.432-7.182a2.987,2.987,0,0,0-2.186-1.455,3.073,3.073,0,0,0-2.11,1.043.582.582,0,0,1-.5.207.59.59,0,0,1-.459-.283,6.276,6.276,0,0,0-4.284-2.79" transform="translate(-80.214 -495.993)"/>
        <path id="Path_2964" data-name="Path 2964" d="M155.374,844.072l-17.158-.746Z" transform="translate(-83.843 -511.57)" fill="#fff"/>
        <path id="Path_2965" data-name="Path 2965" d="M154.464,843.752h-.026l-17.158-.746a.591.591,0,0,1-.564-.615.578.578,0,0,1,.615-.564l17.158.746a.59.59,0,0,1-.025,1.18" transform="translate(-82.933 -510.66)"/>
        <path id="Path_2966" data-name="Path 2966" d="M101.081,295.879l-9.325,6.341,25.677-1.229-7.4-4.739-1-4.589c1.313-.195,3.12-.327,3.695-1.042,1.016-1.265.556-5.642.556-5.642l1.113-.875a.47.47,0,0,0,.187-.671c-.945-1.505-1.836-1.992-2.255-3.527-.412-1.513-.23-1.283-1.858-4.543l-9.766-.013-.055,7.319a1.814,1.814,0,0,0-2.448.341c-.69.952.838,4.13,2.077,4.131Z" transform="translate(-55.66 -167.031)" fill="#fff"/>
        <path id="Path_2967" data-name="Path 2967" d="M90.847,301.9a.59.59,0,0,1-.332-1.078l9.037-6.146-.728-7.966a4.075,4.075,0,0,1-1.7-1.85c-.509-1-.857-2.34-.3-3.105a2.147,2.147,0,0,1,2.342-.865l.048-6.453a.59.59,0,0,1,.59-.586h0l9.766.013a.589.589,0,0,1,.528.326,17.13,17.13,0,0,1,1.761,4.127c.04.152.084.323.138.524a4.82,4.82,0,0,0,1.137,1.951,13.218,13.218,0,0,1,1.049,1.417,1.061,1.061,0,0,1-.359,1.477l-.823.647c.094,1.126.283,4.505-.714,5.746-.634.79-2.059.985-3.443,1.17l.809,3.727,7.194,4.607a.59.59,0,0,1-.29,1.086L90.875,301.9h-.028M98.606,282a.99.99,0,0,0-.832.447,2.6,2.6,0,0,0,.4,1.877c.458.9.988,1.317,1.2,1.317a.59.59,0,0,1,.588.537l.8,8.738a.59.59,0,0,1-.256.542L92.91,300.62l21.737-1.04-5.841-3.741a.589.589,0,0,1-.258-.372l-1-4.589a.59.59,0,0,1,.491-.709c.2-.029.4-.057.614-.085.942-.126,2.364-.316,2.707-.743.627-.782.6-3.611.429-5.211a.59.59,0,0,1,.223-.525l1.1-.866a12.64,12.64,0,0,0-.9-1.2,5.962,5.962,0,0,1-1.362-2.389c-.057-.208-.1-.382-.143-.538a14.472,14.472,0,0,0-1.511-3.57l-8.815-.012-.05,6.732a.59.59,0,0,1-.91.491,1.657,1.657,0,0,0-.818-.255" transform="translate(-54.751 -166.121)"/>
        <path id="Path_2968" data-name="Path 2968" d="M104.167,280.14c1.967.655,3.908-.884,4.257-1.161,1.367-1.085,2.485-3.017,1.935-3.871-.3-.468-.84-.212-1.548-.774-1.041-.826-1.337-2.616-.774-3.1.461-.394,1.181.361,1.935,0,.921-.441.449-1.852,1.162-3.1,1.163-2.032,3.873-.806,5.957-2.969,1.361-1.412,1.952-3.765,1.175-5.095a2.725,2.725,0,0,0-1.07-1.005c-3.279-1.806-3.769.666-6.962.693-6.57.056-9.791,1.371-10.98,4.094-.807,1.848.179,4.792.656,6.217a21.21,21.21,0,0,1,.774,2.709c.307,1.461.212,1.837.386,2.709.123.611.776,3.871,3.1,4.644" transform="translate(-60.023 -156.756)"/>
        <path id="Path_2969" data-name="Path 2969" d="M234.875,336.958H210.242a1.26,1.26,0,0,1-1.26-1.26V293.711a1.259,1.259,0,0,1,1.26-1.26h24.633a1.26,1.26,0,0,1,1.26,1.26V335.7a1.26,1.26,0,0,1-1.26,1.26" transform="translate(-126.771 -177.404)" fill="#fff"/>
        <path id="Path_2970" data-name="Path 2970" d="M233.965,336.639H209.332a1.852,1.852,0,0,1-1.85-1.85V292.8a1.852,1.852,0,0,1,1.85-1.85h24.633a1.852,1.852,0,0,1,1.85,1.85v41.988a1.852,1.852,0,0,1-1.85,1.85m-24.633-44.507a.671.671,0,0,0-.67.67v41.988a.67.67,0,0,0,.67.67h24.633a.67.67,0,0,0,.67-.67V292.8a.67.67,0,0,0-.67-.67Z" transform="translate(-125.861 -176.494)"/>
        <path id="Path_2971" data-name="Path 2971" d="M260.278,341.333l2.583-11.17,7.2-6.39s4.1.068-2.611,7.087c0,0,3.2,6.274,1.133,8.764-.6.724-4.055,5.21-4.055,5.21Z" transform="translate(-157.887 -196.404)" fill="#fff"/>
        <path id="Path_2972" data-name="Path 2972" d="M263.619,344.512a.59.59,0,0,1-.375-.135l-4.252-3.5a.591.591,0,0,1-.2-.589l2.583-11.17a.594.594,0,0,1,.183-.308l7.2-6.39a.566.566,0,0,1,.4-.149,1.87,1.87,0,0,1,1.68,1.065c.563,1.346-.613,3.546-3.591,6.719.724,1.521,2.9,6.6.877,9.033-.589.707-4.007,5.148-4.041,5.193a.588.588,0,0,1-.4.226.537.537,0,0,1-.066,0m-3.595-4.314,3.5,2.88c.913-1.185,3.206-4.155,3.7-4.745,1.493-1.794-.364-6.468-1.205-8.118a.59.59,0,0,1,.1-.676c3.9-4.081,3.771-5.432,3.638-5.749a.593.593,0,0,0-.415-.306l-6.854,6.083Z" transform="translate(-156.976 -195.493)"/>
        <path id="Path_2973" data-name="Path 2973" d="M103.276,344.858s-4.2,10.077-10.357,11.2c-11.311,2.057-11.307-18.2-23.026-23.2a5.939,5.939,0,0,0-.791-.308,14.1,14.1,0,0,0-3.749-.76v.061c-8.292-1.262-22.66-2.2-36.552,2.922C16.865,338.126,1.5,351.047,1.5,374.49c0,16.888,24.876,31.193,24.876,31.193l1.876-4.605c8,3.877,21,3.244,26.844,1.763.542-.138,2.785-.729,6.455-1.655,4.2-1.06,7.652-1.9,9.957-2.448a9.512,9.512,0,0,0,4.1-3.357c2.629-4.014.871-9.212,0-12.682-1.284-5.114-.863-7.361-.4-11.415,3.636,3.9,8.116,6.874,13.233,6.6,14.173-.746,17.544-16.337,22.393-30.511ZM17.424,373.605c.243-4.382,3.633-7.369,7.214-9.319-.513,5.21-.264,5.708-1.619,18.786-.183,1.763-.342,3.247-.477,4.513-2.9-3.843-5.408-8.745-5.118-13.979" transform="translate(-0.91 -200.7)" fill="#178bcb"/>
        <path id="Path_2974" data-name="Path 2974" d="M25.466,405.386a.591.591,0,0,1-.294-.079C24.144,404.716,0,390.636,0,373.6c0-10.652,3.218-20.253,9.306-27.764a37.679,37.679,0,0,1,18.4-12.518c14.135-5.2,28.864-4.129,36.557-2.985a.581.581,0,0,1,.219-.026,14.763,14.763,0,0,1,3.9.792,6.46,6.46,0,0,1,.847.332c5.58,2.383,8.6,8.15,11.268,13.239,3.077,5.873,5.736,10.944,11.4,9.915,5.769-1.049,9.877-10.746,9.918-10.844a.59.59,0,0,1,.732-.332l7.558,2.519a.589.589,0,0,1,.371.751c-.533,1.56-1.058,3.164-1.565,4.714-4.1,12.542-8.342,25.511-21.356,26.2-4.352.227-8.664-1.75-12.821-5.887a22.987,22.987,0,0,0,.533,9.964c.083.33.174.676.268,1.035.918,3.487,2.174,8.264-.347,12.113a9.995,9.995,0,0,1-4.352,3.571.551.551,0,0,1-.106.037c-3.274.784-6.622,1.607-9.95,2.447-2.711.684-4.642,1.185-5.684,1.456l-.77.2c-6.085,1.542-18.6,2.073-26.677-1.539l-1.642,4.031a.591.591,0,0,1-.546.367m26.014-74.814a68.134,68.134,0,0,0-23.386,3.865l-.044.015C15.109,338.09,1.18,351.895,1.18,373.6c0,14.925,20.278,28.05,24,30.332l1.616-3.967a.59.59,0,0,1,.8-.308c7.446,3.609,20.141,3.319,26.442,1.722l.764-.2c1.043-.271,2.978-.773,5.692-1.457,3.314-.836,6.647-1.656,9.908-2.437a8.813,8.813,0,0,0,3.8-3.12c2.234-3.41,1.054-7.893.193-11.167-.1-.364-.188-.714-.272-1.048a24.656,24.656,0,0,1-.524-10.71l.105-.914A.59.59,0,0,1,74.728,370c4.177,4.485,8.485,6.644,12.77,6.417,12.207-.642,16.136-12.66,20.3-25.384.448-1.369.909-2.779,1.378-4.166l-6.484-2.162c-.963,2.111-4.917,10.018-10.575,11.048-6.52,1.186-9.5-4.5-12.656-10.529-2.7-5.154-5.493-10.483-10.707-12.711a5.567,5.567,0,0,0-.734-.287,13.56,13.56,0,0,0-3.355-.715.587.587,0,0,1-.308.036,86.512,86.512,0,0,0-12.873-.972M21.633,387.288a.591.591,0,0,1-.472-.235c-3.729-4.949-5.491-9.782-5.236-14.367.217-3.908,2.747-7.206,7.522-9.8a.59.59,0,0,1,.869.576c-.189,1.915-.275,3.2-.375,4.7-.173,2.6-.389,5.833-1.245,14.093-.148,1.42-.279,2.659-.4,3.749l-.081.764a.591.591,0,0,1-.587.528M17.1,372.751c-.218,3.921,1.163,8.069,4.106,12.35.095-.894.2-1.881.312-2.976.854-8.238,1.069-11.46,1.242-14.05.079-1.188.15-2.248.27-3.6-3.76,2.288-5.753,5.067-5.931,8.271" transform="translate(0 -199.812)"/>
        <path id="Path_2975" data-name="Path 2975" d="M62.33,494.626a.583.583,0,0,1-.086-.006c-.113-.016-11.242-1.756-9.8-12.106a.59.59,0,0,1,1.169.163c-1.285,9.2,8.386,10.715,8.8,10.775a.59.59,0,0,1-.084,1.174" transform="translate(-31.737 -292.389)"/>
      </g>
    </g>
  </g>
</svg>
