<svg id="Group_245" data-name="Group 245" xmlns="http://www.w3.org/2000/svg" xmlns:xlink="http://www.w3.org/1999/xlink" width="330.775" height="331.375" viewBox="0 0 330.775 331.375">
  <defs>
    <clipPath id="clip-path">
      <rect id="Rectangle_427" data-name="Rectangle 427" width="330.775" height="331.375" fill="none"/>
    </clipPath>
  </defs>
  <g id="Group_244" data-name="Group 244" clip-path="url(#clip-path)">
    <g id="Group_243" data-name="Group 243">
      <g id="Group_242" data-name="Group 242" clip-path="url(#clip-path)">
        <g id="Group_241" data-name="Group 241" opacity="0.6">
          <g id="Group_240" data-name="Group 240">
            <g id="Group_239" data-name="Group 239" clip-path="url(#clip-path)">
              <path id="Path_2761" data-name="Path 2761" d="M71.478,15c67.178-37.231,157.175,1.449,204.072,44.329,13.4,12.249,45.882,42.808,53.552,91.786,9.529,60.839-21.661,134.583-93.193,166.126-77.861,34.333-164.918,1.794-205.663-51.023C-7.86,216.817-.233,158.653,2.492,137.874,5.688,113.5,15.2,46.188,71.478,15" transform="translate(0 0)" fill="#98d8f4"/>
            </g>
          </g>
        </g>
        <path id="Path_2762" data-name="Path 2762" d="M120.863,322.78v10.829c0,15.52,12.207,28.1,27.266,28.1s27.266,12.581,27.266,28.1a2.5,2.5,0,0,1-2.493,2.5H100.728c-22.574,0-40.875-18.861-40.875-42.128v-28.82a16.513,16.513,0,0,1,16.258-16.756h27.125c9.735,0,17.627,8.134,17.627,18.168" transform="translate(-35.914 -182.776)" fill="#72005d"/>
        <rect id="Rectangle_423" data-name="Rectangle 423" width="7.596" height="82.345" transform="translate(85.056 207.114)" fill="#72005d"/>
        <path id="Path_2763" data-name="Path 2763" d="M204.622,716.206,171,713.243h-3.083L133.6,716.206v2.351h71.021Z" transform="translate(-80.164 -427.967)" fill="#72005d"/>
        <path id="Path_2764" data-name="Path 2764" d="M176.147,527.517l-10.3,6.916,5.216,6.186,11.858-5.812Z" transform="translate(-99.515 -316.526)" fill="#fff"/>
        <path id="Path_2765" data-name="Path 2765" d="M170.166,540.32a.6.6,0,0,1-.459-.213l-5.216-6.186a.6.6,0,0,1,.124-.885l10.3-6.917a.6.6,0,0,1,.774.09l6.778,7.291a.6.6,0,0,1-.175.947l-11.858,5.812a.6.6,0,0,1-.264.061m-4.326-6.661,4.483,5.316,10.712-5.25-5.879-6.324Z" transform="translate(-98.615 -315.626)"/>
        <path id="Path_2766" data-name="Path 2766" d="M158.127,536.783a68.447,68.447,0,0,0-6.731,4.673,3.748,3.748,0,0,0-.786,4.9,146.907,146.907,0,0,0,17.11,21.588,2.623,2.623,0,0,0,3.237.282c5.364-2.914-.365-12.043-4.212-23.767l-2.761-.309a3.672,3.672,0,0,1-3.111-2.618l-1.223-4.159a1.027,1.027,0,0,0-1.524-.59" transform="translate(-90.023 -321.994)" fill="#72005d"/>
        <path id="Path_2767" data-name="Path 2767" d="M168.548,568.34a3.042,3.042,0,0,1-2.156-.876,146.482,146.482,0,0,1-17.191-21.69,4.346,4.346,0,0,1,.916-5.686,69.217,69.217,0,0,1,6.794-4.718,1.627,1.627,0,0,1,2.414.932l1.223,4.158a3.066,3.066,0,0,0,2.6,2.191l3.144.352.12.367c.958,2.919,2.057,5.739,3.027,8.227,3.009,7.719,5.387,13.817.9,16.254a3.741,3.741,0,0,1-1.795.488m-11.007-31.948a68.079,68.079,0,0,0-6.668,4.628,3.144,3.144,0,0,0-.655,4.115,145.092,145.092,0,0,0,17.029,21.486,2.02,2.02,0,0,0,2.523.176c3.557-1.932,1.458-7.315-1.446-14.764-.936-2.4-1.99-5.1-2.929-7.923l-2.378-.266a4.263,4.263,0,0,1-3.62-3.045l-1.223-4.159a.43.43,0,0,0-.26-.284.415.415,0,0,0-.374.035" transform="translate(-89.122 -321.093)"/>
        <path id="Path_2768" data-name="Path 2768" d="M151.749,547.989l-.353.282a3.748,3.748,0,0,0-.785,4.9,146.894,146.894,0,0,0,17.11,21.588,2.623,2.623,0,0,0,3.237.282,7.686,7.686,0,0,0,1.182-.927l-.488-.538a212.169,212.169,0,0,1-19.12-24.423Z" transform="translate(-90.023 -328.81)" fill="#fff"/>
        <path id="Path_2769" data-name="Path 2769" d="M168.548,575.157a3.042,3.042,0,0,1-2.156-.875A146.453,146.453,0,0,1,149.2,552.591a4.346,4.346,0,0,1,.916-5.686c.115-.094.357-.286.357-.286a.6.6,0,0,1,.872.135l.782,1.164a212.307,212.307,0,0,0,19.066,24.354l.488.538a.6.6,0,0,1-.031.838,7.95,7.95,0,0,1-1.308,1.02,3.74,3.74,0,0,1-1.795.487m-17.83-27.185a3.149,3.149,0,0,0-.5,3.981,145.07,145.07,0,0,0,17.029,21.486,2.019,2.019,0,0,0,2.523.176,4.354,4.354,0,0,0,.616-.447l-.08-.088a213.547,213.547,0,0,1-19.174-24.493Z" transform="translate(-89.122 -327.91)"/>
        <path id="Path_2770" data-name="Path 2770" d="M187.748,572.11l-.048,0-5.236-.414a.6.6,0,1,1,.095-1.2l5.236.414a.6.6,0,0,1-.047,1.2" transform="translate(-109.152 -342.314)"/>
        <path id="Path_2771" data-name="Path 2771" d="M187.24,581.8a.6.6,0,0,1,0-1.2l5.112-.014a.607.607,0,0,1,.6.6.6.6,0,0,1-.6.6l-5.112.014Z" transform="translate(-111.99 -348.366)"/>
        <path id="Path_2772" data-name="Path 2772" d="M234.244,413.166c4.226.016,18.565,2.4,18.984,15.532.143,4.476,3.725,12.733-23.092,17.972a228.018,228.018,0,0,0-61.114,21.29,3.3,3.3,0,0,1-2.542.254c-2.683-.824-8.342-3.123-9.053-7.987a2.981,2.981,0,0,1,1.215-2.824l6.6-4.8-6.259-3.351a31.859,31.859,0,0,1-15.358-17.834c-2.294-6.9-3.431-18.707-3.431-18.707Z" transform="translate(-84.121 -247.638)"/>
        <path id="Path_2773" data-name="Path 2773" d="M579.18,568.656l-27.112-93.985-27.112,93.985h-6.5L548.245,462.6l7.641-.011,29.792,106.063Z" transform="translate(-311.089 -277.569)" fill="#fff"/>
        <path id="Path_2774" data-name="Path 2774" d="M387.31,665.024a30.492,30.492,0,0,1,.76,11.82l15.392-2.571a12.971,12.971,0,0,1-7.873-8.489l-.878-2.988Z" transform="translate(-232.398 -397.698)" fill="#fff"/>
        <path id="Path_2775" data-name="Path 2775" d="M387.17,676.544a.6.6,0,0,1-.595-.678,29.737,29.737,0,0,0-.746-11.587.6.6,0,0,1,.407-.728l7.4-2.227a.6.6,0,0,1,.748.405l.878,2.988a12.432,12.432,0,0,0,7.508,8.1.6.6,0,0,1-.112,1.154l-15.392,2.57a.593.593,0,0,1-.1.008m-.036-12.011a30.907,30.907,0,0,1,.727,10.688l12.692-2.119a13.66,13.66,0,0,1-6.438-8.047l-.708-2.408Z" transform="translate(-231.497 -396.798)"/>
        <path id="Path_2776" data-name="Path 2776" d="M384.868,684.289c-.5,1.921-1.516,7.325-1.922,10.572A4.053,4.053,0,0,0,386,699.284c5.611,1.387,18.949,1.047,30.064,1.306a2.858,2.858,0,0,0,2.741-2.228c2.008-6.333-9.985-7.987-21.778-14.239a11.061,11.061,0,0,1-1.693,1.125,7.08,7.08,0,0,1-6.154-.117L386.5,683.6a1.114,1.114,0,0,0-1.633.691" transform="translate(-229.76 -410.091)" fill="#72005d"/>
        <path id="Path_2777" data-name="Path 2777" d="M415.219,700.29h-.064c-2.843-.066-5.873-.094-8.8-.12-8.819-.08-17.148-.155-21.39-1.2a4.649,4.649,0,0,1-3.51-5.08c.4-3.237,1.42-8.651,1.936-10.648a1.714,1.714,0,0,1,2.511-1.061l2.685,1.533a6.466,6.466,0,0,0,5.57.111,10.576,10.576,0,0,0,1.592-1.057l.31-.261.358.19a113.508,113.508,0,0,0,10.575,4.751c7.288,2.965,13.045,5.306,11.494,10.2a3.481,3.481,0,0,1-3.263,2.647m-30.67-16.752c-.5,1.945-1.518,7.384-1.907,10.5a3.45,3.45,0,0,0,2.607,3.766c4.105,1.015,12.751,1.093,21.113,1.169,2.935.026,5.969.054,8.821.12a2.25,2.25,0,0,0,2.155-1.809c1.16-3.658-3.127-5.6-10.8-8.725-3.175-1.292-6.761-2.751-10.339-4.621a12.351,12.351,0,0,1-1.47.941,7.7,7.7,0,0,1-6.738-.123l-2.685-1.534a.515.515,0,0,0-.755.32" transform="translate(-228.86 -409.19)"/>
        <path id="Path_2778" data-name="Path 2778" d="M382.166,712.249c-.01.056-.016.1-.019.114-.255,2.037,1.709,3.245,3.579,4.073,5.66,2.5,28.6.447,28.6.447s3.077.032,3.894-1.821a3.46,3.46,0,0,0,.2-1.013,3.373,3.373,0,0,0-.093-1.079l-.2-.83c-3.123,1.246-17.178,2.195-27.377.927a20.949,20.949,0,0,1-8.185-3.092s-.2,1.11-.4,2.274" transform="translate(-229.286 -426.006)" fill="#fff"/>
        <path id="Path_2779" data-name="Path 2779" d="M396.578,717.38c-5.013,0-9.758-.306-12-1.3-1.838-.813-4.246-2.185-3.931-4.7,0-.024.011-.073.023-.143.2-1.165.4-2.276.4-2.276a.6.6,0,0,1,.857-.432c.286.142.6.32.964.527a17.83,17.83,0,0,0,7.028,2.508c10.092,1.255,24.017.334,27.08-.888a.6.6,0,0,1,.8.414l.2.83a3.982,3.982,0,0,1,.108,1.271,3.862,3.862,0,0,1-.253,1.207c-.926,2.1-4.04,2.177-4.416,2.179-.774.069-9.144.8-16.877.8M382.113,710c-.072.408-.164.926-.258,1.456l-.014.087c-.166,1.322.83,2.386,3.227,3.447,5.455,2.413,28.08.419,28.307.4.02,0,.04,0,.06,0,.742,0,2.8-.247,3.338-1.463a2.674,2.674,0,0,0,.155-.819,2.782,2.782,0,0,0-.077-.887l-.05-.2c-4.138,1.155-17.353,1.953-27.023.751a18.9,18.9,0,0,1-7.473-2.655l-.192-.109m-.848,1.352h0Z" transform="translate(-228.385 -425.106)"/>
        <path id="Path_2780" data-name="Path 2780" d="M420.509,693.933a.6.6,0,0,1-.372-1.07l3.316-2.622a.6.6,0,1,1,.744.941l-3.316,2.622a.6.6,0,0,1-.372.13" transform="translate(-251.958 -414.087)"/>
        <path id="Path_2781" data-name="Path 2781" d="M431.791,698.807a.6.6,0,0,1-.369-1.073l2.9-2.262a.6.6,0,0,1,.738.947l-2.9,2.261a.6.6,0,0,1-.368.127" transform="translate(-258.727 -417.228)"/>
        <path id="Path_2782" data-name="Path 2782" d="M220.217,461.907s11.718,2.589,20.44,8.623c7.557,5.229,15.526,15.23,22.783,67.64.487,3.519-2.516,6.039-4.571,6.518a9.3,9.3,0,0,1-7.763-1.184c-4.194-2.722-20.026-43.034-29.462-51.588s-49.3-10.383-56.987-21.27,11.184-10.888,11.184-10.888Z" transform="translate(-97.694 -275.868)"/>
        <path id="Path_2783" data-name="Path 2783" d="M251.167,515.781a.6.6,0,0,1-.264-1.139q1.154-.566,2.228-1.1c9.487-4.675,15.214-7.5,32.566-10.534a.6.6,0,1,1,.207,1.182c-17.183,3.008-22.852,5.8-32.242,10.428-.719.354-1.461.72-2.231,1.1a.6.6,0,0,1-.264.061" transform="translate(-150.347 -301.816)" fill="#caddff"/>
        <path id="Path_2784" data-name="Path 2784" d="M398.888,432.725H325.251a2.869,2.869,0,0,1-2.869-2.869v-1.409h79.375v1.409a2.869,2.869,0,0,1-2.869,2.869" transform="translate(-193.439 -257.081)" fill="#99b9ff"/>
        <path id="Path_2785" data-name="Path 2785" d="M397.988,432.426H324.351a3.473,3.473,0,0,1-3.469-3.469v-1.409a.6.6,0,0,1,.6-.6h79.375a.6.6,0,0,1,.6.6v1.409a3.473,3.473,0,0,1-3.469,3.469m-75.906-4.278v.809a2.272,2.272,0,0,0,2.269,2.269h73.637a2.272,2.272,0,0,0,2.269-2.269v-.809Z" transform="translate(-192.539 -256.181)"/>
        <path id="Path_2786" data-name="Path 2786" d="M452.7,365.932H407.282l13.437-39.658a4.741,4.741,0,0,1,3.985-2.143H463.1a2.391,2.391,0,0,1,2.3,3.195c-.226.6-12.693,38.606-12.693,38.606" transform="translate(-244.381 -194.488)" fill="#99b9ff"/>
        <path id="Path_2787" data-name="Path 2787" d="M451.8,365.632H406.383a.6.6,0,0,1-.568-.792l13.437-39.658a.593.593,0,0,1,.065-.133,5.314,5.314,0,0,1,4.488-2.417H462.2a3.009,3.009,0,0,1,2.515,1.306,2.93,2.93,0,0,1,.341,2.7c-.209.564-8.388,25.483-12.684,38.58a.6.6,0,0,1-.57.413m-44.582-1.2h44.147c1.422-4.336,12.349-37.644,12.567-38.219a1.728,1.728,0,0,0-.206-1.594,1.825,1.825,0,0,0-1.528-.788H423.805a4.122,4.122,0,0,0-3.442,1.809Z" transform="translate(-243.482 -193.588)"/>
        <path id="Path_2788" data-name="Path 2788" d="M457.558,367.824H420.186L431.7,333.507l37.264-.051Z" transform="translate(-252.124 -200.084)" fill="#fff"/>
        <path id="Path_2789" data-name="Path 2789" d="M438.7,402.6h-4.367l1.346-4.01,4.354-.006Z" transform="translate(-260.615 -239.163)" fill="#caddff"/>
        <path id="Path_2790" data-name="Path 2790" d="M458.5,392.853h-4.678l3.523-10.5,4.645-.016Z" transform="translate(-272.306 -229.415)" fill="#99b9ff"/>
        <path id="Path_2791" data-name="Path 2791" d="M480.612,377.438h-5.034l6.966-20.758,4.968-.031Z" transform="translate(-285.361 -214)" fill="#72005d"/>
        <path id="Path_2792" data-name="Path 2792" d="M95.386,276.364c1.983-4.382,7.26-7.213,11.363-8.822a27.263,27.263,0,0,1,8.885-1.837l10.757-.423a57.38,57.38,0,0,1,14.076.828,29.253,29.253,0,0,1,17.6,10.548c2,2.49,3.768,4.647,3.911,4.691,5.817,8.2,6.6,9.642,10.807,12.7,7.02,5.108,19.307.943,19.307.943,4.094-.615,5.579,2.453,6.325,4.158.9,2.048.028,4.546-.762,6.15a4.669,4.669,0,0,1-2.425,2.26c-5.268,2.155-23.185,8.873-31.4,4.2-6.847-3.9-11.448-12.027-15.116-16.022a.57.57,0,0,0-.987.442c.777,8.974,8.143,19.627,10.386,22.686a2.426,2.426,0,0,0,1.682.978L176,321.7a1.849,1.849,0,0,1,.706.238,3.79,3.79,0,0,1,1.914,2.856c.256,1.916.095,5.51-.492,6.668l-.556,1.1a2.669,2.669,0,0,1-2.336,1.466c-8.617.141-47.453.154-58,.094-9.644-.055-13.519-4.829-18.666-18.33-2.045-5.365-8.479-27.726-3.186-39.423" transform="translate(-56.01 -159.1)" fill="#118bcb"/>
        <path id="Path_2793" data-name="Path 2793" d="M136.006,333.852c-8.39,0-15.853-.012-19.681-.034C105.96,333.759,102.018,328,97.1,315.1c-2.049-5.376-8.594-27.9-3.172-39.884l.547.247-.547-.247c2.067-4.57,7.5-7.489,11.691-9.133a27.783,27.783,0,0,1,9.08-1.878l10.757-.423a58.427,58.427,0,0,1,14.2.836,29.834,29.834,0,0,1,17.961,10.764c2.754,3.425,3.525,4.308,3.739,4.53l.076.023.119.167c.6.842,1.141,1.611,1.641,2.32,4.312,6.105,5.337,7.556,9.03,10.243,6.684,4.864,18.641.9,18.761.86l.1-.025c4.682-.7,6.34,3.085,6.964,4.511.974,2.226.117,4.848-.773,6.656a5.272,5.272,0,0,1-2.737,2.55c-4.008,1.639-15.174,5.847-24.075,5.848a15.965,15.965,0,0,1-7.85-1.683c-4.983-2.835-8.8-7.862-11.866-11.9-1.19-1.567-2.314-3.049-3.336-4.17.8,8.8,8.055,19.287,10.264,22.3a1.832,1.832,0,0,0,1.266.737l16.214,1.853a2.363,2.363,0,0,1,.922.306,4.392,4.392,0,0,1,2.225,3.3c.252,1.89.132,5.67-.552,7.019l-.556,1.1a3.262,3.262,0,0,1-2.862,1.795c-5.489.09-23.382.128-38.334.128m-6.949-68.995c-1.2,0-2.385.041-3.533.124l-10.776.424a26.6,26.6,0,0,0-8.689,1.8c-3.985,1.563-9.134,4.308-11.035,8.511-5.2,11.492,1.31,34.005,3.2,38.962,5.351,14.036,9.244,17.893,18.109,17.943,10.646.061,49.425.046,57.988-.094a2.066,2.066,0,0,0,1.811-1.138l.556-1.1c.511-1.008.68-4.469.433-6.318a3.188,3.188,0,0,0-1.6-2.407,1.253,1.253,0,0,0-.467-.168l-16.238-1.855a3.038,3.038,0,0,1-2.1-1.219c-2.263-3.087-9.71-13.867-10.5-22.989a1.17,1.17,0,0,1,2.026-.9c1.075,1.171,2.237,2.7,3.468,4.322,3,3.952,6.734,8.871,11.5,11.584,7.969,4.533,25.649-2.093,30.878-4.232a4.07,4.07,0,0,0,2.114-1.969c.778-1.58,1.54-3.842.75-5.645-.941-2.151-2.347-4.283-5.635-3.813-1.01.335-12.774,4.068-19.8-1.044-3.853-2.8-4.9-4.285-9.3-10.521-.49-.694-1.022-1.447-1.6-2.267-.354-.328-1.212-1.337-3.925-4.712A28.632,28.632,0,0,0,139.451,265.8a59.733,59.733,0,0,0-10.394-.944" transform="translate(-55.1 -158.202)"/>
        <path id="Path_2794" data-name="Path 2794" d="M315.855,429.642h18.82v-.011a5.8,5.8,0,0,0-5.8-5.8h-7.221a5.8,5.8,0,0,0-5.8,5.8Z" transform="translate(-189.522 -254.311)" fill="#72005d"/>
        <path id="Path_2795" data-name="Path 2795" d="M333.775,429.343h-18.82a.6.6,0,0,1-.6-.6v-.012a6.407,6.407,0,0,1,6.4-6.4h7.22a6.407,6.407,0,0,1,6.4,6.4.61.61,0,0,1-.6.612m-18.187-1.2h17.553a5.208,5.208,0,0,0-5.166-4.611h-7.22a5.208,5.208,0,0,0-5.167,4.611" transform="translate(-188.622 -253.412)"/>
        <path id="Path_2796" data-name="Path 2796" d="M294.887,407.708a2.891,2.891,0,0,1,1.579-1.418,11.155,11.155,0,0,0,1.44-.658l6.4-3.407c1.2-.589,2.915.784,4.16,1.194,3.758,1.238,11.539,4.153,10.9,6.892-.692,2.955-7.379,1.556-9.752.96-.542-.136-5.456,1.648-7.009,1.766a5.056,5.056,0,0,1-3.691-.937,3.406,3.406,0,0,0-1.589-.37,2.915,2.915,0,0,1-2.279-1.071l-.013-.016a2.5,2.5,0,0,1-.272-2.689Z" transform="translate(-176.702 -241.26)" fill="#fff"/>
        <path id="Path_2797" data-name="Path 2797" d="M301,412.768a4.845,4.845,0,0,1-2.819-.786c-.141-.081-.287-.165-.447-.249a2.8,2.8,0,0,0-1.314-.3,3.51,3.51,0,0,1-2.744-1.3,3.107,3.107,0,0,1-.351-3.352l.126-.247a3.473,3.473,0,0,1,1.91-1.71,10.427,10.427,0,0,0,1.362-.624l6.4-3.407c1.126-.554,2.385.08,3.495.64a9.178,9.178,0,0,0,1.134.514c8.053,2.653,11.853,5.209,11.294,7.6a2.477,2.477,0,0,1-1.181,1.586c-2.165,1.319-6.708.467-9.256-.17a25.088,25.088,0,0,0-2.69.721,27.288,27.288,0,0,1-4.172,1.05c-.272.021-.521.03-.751.03m3.071-10.985a.888.888,0,0,0-.4.083l-6.387,3.4a11.618,11.618,0,0,1-1.519.693,2.279,2.279,0,0,0-1.248,1.126l-.126.247a1.9,1.9,0,0,0,.206,2.041,2.325,2.325,0,0,0,1.827.862,4.022,4.022,0,0,1,1.865.439c.173.091.332.182.485.27a4.04,4.04,0,0,0,2.881.6,28.678,28.678,0,0,0,3.921-1c2.284-.681,2.908-.84,3.28-.746,3.951.992,7.086,1.112,8.385.32a1.3,1.3,0,0,0,.637-.835c.36-1.538-3.762-3.965-10.5-6.185a9.943,9.943,0,0,1-1.3-.582,5.363,5.363,0,0,0-2.011-.726M293.99,406.81h0Z" transform="translate(-175.805 -240.362)"/>
        <path id="Path_2798" data-name="Path 2798" d="M369.179,341.926a.859.859,0,0,0-.316-1.331L357.5,335.614a6.8,6.8,0,0,0-5.06-.179c-1.679.612-4.1,1.42-6.87,2.123-7.155,1.815-7.691,11.262-.29,7.625,2.355-1.158,3.77-2.033,3.77-2.033a6.143,6.143,0,0,0,7.022,2,12.578,12.578,0,0,0,3.982-2.307,2.523,2.523,0,0,1,2.321-.56c1.959.512,4.834,2.021,6.8-.356" transform="translate(-203.987 -201.029)" fill="#fff"/>
        <path id="Path_2799" data-name="Path 2799" d="M341.441,345.709a3.034,3.034,0,0,1-1.917-.6,3.256,3.256,0,0,1-.962-3.384,7.909,7.909,0,0,1,5.957-5.652c2.816-.714,5.258-1.539,6.812-2.105a7.371,7.371,0,0,1,5.506.193l11.364,4.982a1.458,1.458,0,0,1,.537,2.263c-1.907,2.3-4.517,1.464-6.423.854-.355-.114-.691-.221-1-.3a1.919,1.919,0,0,0-1.769.426,13.2,13.2,0,0,1-4.169,2.422,6.532,6.532,0,0,1-6.777-1.221,8.017,8.017,0,0,1-.6-.558c-.6.349-1.762,1-3.365,1.79a7.394,7.394,0,0,1-3.2.892m12.391-10.983a6.1,6.1,0,0,0-2.091.369c-1.58.576-4.063,1.414-6.928,2.14a6.693,6.693,0,0,0-5.077,4.734,2.124,2.124,0,0,0,.523,2.191c.738.573,2.143.42,3.852-.421,2.3-1.132,3.7-2,3.719-2.005a.6.6,0,0,1,.69.042.59.59,0,0,1,.135.152,5.507,5.507,0,0,0,6.3,1.755,12.007,12.007,0,0,0,3.793-2.193,3.113,3.113,0,0,1,2.874-.694c.336.088.687.2,1.058.319,2.192.7,3.843,1.078,5.133-.477a.258.258,0,0,0-.095-.4l-11.364-4.981a6.283,6.283,0,0,0-2.523-.534" transform="translate(-203.084 -200.125)"/>
        <path id="Path_2800" data-name="Path 2800" d="M366.006,344.548a3.813,3.813,0,0,1-2.637-1.26.6.6,0,1,1,.89-.8c.053.058,1.351,1.446,2.633.574a3.919,3.919,0,0,1,3.328-.736c2.315.9,3.217.459,3.369.213a.644.644,0,0,0,.087-.541,1.6,1.6,0,0,0-.88-.722l-3.245-1.326a.6.6,0,1,1,.454-1.111l3.269,1.337a2.652,2.652,0,0,1,1.535,1.432,1.846,1.846,0,0,1-.156,1.483c-.076.171-.973,1.872-4.87.354a2.832,2.832,0,0,0-2.218.61,2.732,2.732,0,0,1-1.561.5" transform="translate(-217.94 -203.284)"/>
        <path id="Path_2801" data-name="Path 2801" d="M184.768,362.54a.609.609,0,0,1-.081-.006c-.977-.132-2.213-.254-3.646-.4-6.273-.622-15.753-1.563-24.8-5.122C145.271,352.7,138.126,345.666,135,336.1a.6.6,0,0,1,1.141-.373c7.01,21.449,32.682,23.995,45.019,25.219,1.443.143,2.69.267,3.687.4a.6.6,0,0,1-.079,1.195" transform="translate(-80.986 -201.197)"/>
        <path id="Path_2802" data-name="Path 2802" d="M155.955,227.219a1.47,1.47,0,0,1,1.348-1.072l4.723-.156a1.356,1.356,0,0,0,1.258-1.049l1.274-5.4,2.127-.968a.341.341,0,0,0,.173-.441l-1.671-4.03c-.5-1.481-.482-4.658-1.252-4.675,0,0-14.428-6.3-17.561.9a4.824,4.824,0,0,0-.123,3.45l.77,2.3a10.06,10.06,0,0,1-.167,7.067,26.913,26.913,0,0,1-2.131,3.8,18.1,18.1,0,0,1-4.656,4.145,1.546,1.546,0,0,0-.11,2.482,27.3,27.3,0,0,0,5.622,3.73c4.015,1.624,6.04,2.044,8.091,1.817a3.043,3.043,0,0,0,2.437-4.158,12.975,12.975,0,0,1-.152-7.75" transform="translate(-83.636 -124.137)" fill="#fff"/>
        <path id="Path_2803" data-name="Path 2803" d="M151.744,238.884c-1.877,0-3.909-.552-7.29-1.919a27.573,27.573,0,0,1-5.774-3.82,2.145,2.145,0,0,1,.153-3.447,17.47,17.47,0,0,0,4.489-3.977,26.434,26.434,0,0,0,2.078-3.7,9.433,9.433,0,0,0,.151-6.644l-.769-2.3a5.408,5.408,0,0,1,.142-3.88,5.839,5.839,0,0,1,3.353-3.177c5.248-2.063,13.891,1.489,14.911,1.924.866.142,1.048,1.425,1.277,3.028a13.611,13.611,0,0,0,.384,2.025l1.663,4.009a.937.937,0,0,1-.479,1.217l-1.859.846-1.207,5.11a1.962,1.962,0,0,1-1.817,1.511l-4.728.156a.867.867,0,0,0-.791.636l-.008.025a12.473,12.473,0,0,0,.147,7.355,3.789,3.789,0,0,1-.32,3.317,3.511,3.511,0,0,1-2.615,1.643,9.938,9.938,0,0,1-1.091.061m.354-32.308c-3.139,0-5.176,1.037-6.074,3.1a4.211,4.211,0,0,0-.1,3.02l.77,2.3a10.633,10.633,0,0,1-.182,7.489,27.437,27.437,0,0,1-2.183,3.9A18.558,18.558,0,0,1,139.5,230.7a.946.946,0,0,0-.066,1.518,25.607,25.607,0,0,0,5.469,3.64c3.832,1.55,5.8,2,7.8,1.777a2.289,2.289,0,0,0,1.727-1.084,2.6,2.6,0,0,0,.212-2.273,13.479,13.479,0,0,1-.162-8.133,2.066,2.066,0,0,1,1.9-1.493l4.728-.156a.757.757,0,0,0,.694-.587l1.274-5.4a.6.6,0,0,1,.336-.408l1.9-.864-1.575-3.8a.419.419,0,0,1-.015-.039,13.947,13.947,0,0,1-.44-2.255,9.378,9.378,0,0,0-.42-2.037c-.021-.007-.042-.014-.062-.023a36.581,36.581,0,0,0-7.484-2.21,19.553,19.553,0,0,0-3.213-.3m2.957,19.742h0Z" transform="translate(-82.735 -123.235)"/>
        <path id="Path_2804" data-name="Path 2804" d="M169.375,177.723c-3.385-1.229-.11,3.637-11.742-3.914-4.632-3.007-3.828,3.727-5.032,2.95-4.445-2.869-4.291-2.776-6.85-2.856-1.7-.053-3.581,2.562-3.93,4.833-.46,3,2.219,10.207,4.314,15.731,1.079,2.845,5.027,4.3,6.778.95.484-.924-1.585-3.854.016-5.054,2.945-2.206,3.014,2.378,5.294,1.746a29.743,29.743,0,0,0,5.65-2.3c2.995-1.419,5.923,3.112,8.742-1.282,1.47-2.291,1.393-9.119-3.242-10.8" transform="translate(-85.066 -103.824)"/>
        <path id="Path_2805" data-name="Path 2805" d="M118.028,566.739l-27.112-94-27.112,94H57.3L87.094,460.673l7.641-.011,29.792,106.078Z" transform="translate(-34.385 -276.41)" fill="#fff"/>
        <path id="Path_2806" data-name="Path 2806" d="M124.131,566.437h-7.742L89.728,474,63.067,566.437H55.325L85.451,459.171,94,459.159Zm-6.839-1.2h5.256L93.093,460.361l-6.732.01L56.908,565.238h5.256l27.564-95.565Z" transform="translate(-33.197 -275.509)"/>
        <rect id="Rectangle_424" data-name="Rectangle 424" width="251.023" height="10.213" transform="translate(22.86 175.638)" fill="#fff"/>
        <path id="Path_2807" data-name="Path 2807" d="M307.876,449.04H55.653V437.627H307.876Zm-251.023-1.2H306.676v-9.013H56.853Z" transform="translate(-33.393 -262.589)"/>
        <path id="Path_2808" data-name="Path 2808" d="M207.706,449.831a.6.6,0,0,1-.6-.6v-5.687a.6.6,0,1,1,1.2,0v5.687a.6.6,0,0,1-.6.6" transform="translate(-124.27 -265.78)" fill="#72005d"/>
        <path id="Path_2809" data-name="Path 2809" d="M533.574,666.752l1.455,16.535-15.6,1.643,4.843-6.622a7.4,7.4,0,0,0,1.208-6.15l-1.324-5.338Z" transform="translate(-311.674 -400.071)" fill="#fff"/>
        <path id="Path_2810" data-name="Path 2810" d="M516.223,684.762l5.643-7.715a6.784,6.784,0,0,0,1.109-5.651l-1.508-6.077,10.731-.078,1.555,17.674ZM523,666.508l1.141,4.6a7.978,7.978,0,0,1-1.305,6.649l-4.044,5.53,13.665-1.44-1.355-15.4Z" transform="translate(-309.749 -399.164)"/>
        <path id="Path_2811" data-name="Path 2811" d="M516.875,695.454l1.3,6.8a2.76,2.76,0,0,1-2.348,2.921c-3.29.565-16.09,2.32-25.161.673a3.85,3.85,0,0,1-3.189-2.366C487,701.6,488.207,698.9,492,697.5c6.771-2.5,9.353-3.323,12.648-5.558a1.9,1.9,0,0,1,2.336.692,7.221,7.221,0,0,1,1.177,3.583.916.916,0,0,0,1.281.841l5.776-2.483a1.2,1.2,0,0,1,1.657.884" transform="translate(-292.442 -415.066)" fill="#72005d"/>
        <path id="Path_2812" data-name="Path 2812" d="M498.753,706.245a51.993,51.993,0,0,1-9.092-.7A4.41,4.41,0,0,1,486,702.732c-.546-2.151.753-5.165,4.9-6.7.766-.284,1.478-.545,2.143-.79,5.159-1.9,7.513-2.761,10.376-4.7a2.46,2.46,0,0,1,3.151.827,7.786,7.786,0,0,1,1.3,3.95.3.3,0,0,0,.138.256.321.321,0,0,0,.307.029l5.776-2.483a1.8,1.8,0,0,1,2.483,1.322l1.31,6.87a3.316,3.316,0,0,1-2.845,3.555,107.933,107.933,0,0,1-16.278,1.376m5.67-14.8a.589.589,0,0,0-.336.092c-2.984,2.023-5.382,2.9-10.635,4.835l-2.141.789c-3.448,1.276-4.568,3.63-4.15,5.277a3.3,3.3,0,0,0,2.715,1.924c8.081,1.467,19.855.2,24.952-.674a2.132,2.132,0,0,0,1.853-2.256l-1.294-6.762a.605.605,0,0,0-.312-.424.6.6,0,0,0-.519-.021l-5.776,2.483a1.518,1.518,0,0,1-1.445-.132,1.5,1.5,0,0,1-.672-1.266,6.6,6.6,0,0,0-1.072-3.238,1.659,1.659,0,0,0-1.168-.626" transform="translate(-291.542 -414.166)"/>
        <path id="Path_2813" data-name="Path 2813" d="M505.176,720.341a64.228,64.228,0,0,1-8.513-.534.6.6,0,1,1,.16-1.189,80.155,80.155,0,0,0,23.081-.79.6.6,0,1,1,.237,1.176,85.311,85.311,0,0,1-14.964,1.337" transform="translate(-297.7 -430.711)"/>
        <path id="Path_2814" data-name="Path 2814" d="M626.025,653.924a27.146,27.146,0,0,0,3.982,11.416l-7.317,5.551-5.537-5.484c1.293-1.768,2.449-5.91.707-11.374Z" transform="translate(-370.311 -392.374)" fill="#fff"/>
        <path id="Path_2815" data-name="Path 2815" d="M621.455,670.772l-6.274-6.214.305-.417c1.054-1.441,2.37-5.345.619-10.838l-.246-.771,9.536-.128.044.56a26.643,26.643,0,0,0,3.882,11.128l.316.47Zm-4.712-6.355,4.816,4.77,6.459-4.9A28.175,28.175,0,0,1,624.3,653.62l-6.818.091c1.34,4.831.518,8.649-.736,10.706" transform="translate(-369.127 -391.462)"/>
        <path id="Path_2816" data-name="Path 2816" d="M609.7,677.129l3.029,5.36a2.832,2.832,0,0,1-1.173,3.656A106.413,106.413,0,0,1,595.582,694c-2.628.975-10.268,1.487-12.066-.862-1.208-1.577-.744-3.631,2.415-5.323,7.057-3.78,8.7-9.638,9.713-11.009,1.55-2.092,4.2,1.565,4.913,4.354a.939.939,0,0,0,1.5.5l5.95-4.849a1.126,1.126,0,0,1,1.693.321" transform="translate(-349.759 -405.731)" fill="#72005d"/>
        <path id="Path_2817" data-name="Path 2817" d="M588.72,694.524c-2.741,0-5.485-.492-6.581-1.924a3.221,3.221,0,0,1-.666-2.693c.283-1.309,1.415-2.528,3.274-3.523a19.919,19.919,0,0,0,8.732-9.43,10.61,10.61,0,0,1,.782-1.408,1.876,1.876,0,0,1,1.92-.826c1.834.358,3.535,3.359,4.057,5.388a.343.343,0,0,0,.226.244.33.33,0,0,0,.318-.06l5.95-4.85a1.727,1.727,0,0,1,2.595.491l3.05,5.4a3.388,3.388,0,0,1-1.408,4.426,106.12,106.12,0,0,1-16.077,7.9,20.294,20.294,0,0,1-6.17.864m7.1-18.639a.739.739,0,0,0-.593.376,10.2,10.2,0,0,0-.674,1.232,21.008,21.008,0,0,1-9.238,9.949c-1.539.824-2.461,1.764-2.668,2.719a2.031,2.031,0,0,0,.446,1.71c1.506,1.965,8.737,1.645,11.382.664a104.857,104.857,0,0,0,15.879-7.8,2.206,2.206,0,0,0,.945-2.868l-3.016-5.338a.527.527,0,0,0-.792-.151l-5.95,4.85a1.539,1.539,0,0,1-2.464-.815c-.533-2.072-2.081-4.305-3.124-4.509a.7.7,0,0,0-.133-.014" transform="translate(-348.858 -404.831)"/>
        <path id="Path_2818" data-name="Path 2818" d="M594.275,702.32a11.746,11.746,0,0,1-2.4-.216.6.6,0,1,1,.25-1.174,17.9,17.9,0,0,0,6.811-.369,42.831,42.831,0,0,0,15.531-7.747.6.6,0,1,1,.774.917,43.3,43.3,0,0,1-16.019,8,22.122,22.122,0,0,1-4.951.593" transform="translate(-354.86 -415.624)"/>
        <path id="Path_2819" data-name="Path 2819" d="M575.941,471.182c-1.182,12.943,9.6,42.967,13.583,52.621a2.937,2.937,0,0,0,2.7,1.9H601.4a2.688,2.688,0,0,0,2.795-2.6c-.1-10.178-4.721-38.9,2.109-49.582,3.954-6.185,15.7-3.575,20.544-6.518,11.624-7.065,7.248-30.071,7.248-30.071s-56.509,16.2-58.157,34.245" transform="translate(-345.528 -262.175)" fill="#fff"/>
        <path id="Path_2820" data-name="Path 2820" d="M600.5,525.17H591.32a3.516,3.516,0,0,1-3.252-2.275c-3.92-9.5-14.839-39.617-13.626-52.9,1.666-18.247,56.265-34.1,58.589-34.767l.632-.181.123.646c.182.956,4.317,23.5-7.525,30.7-2.028,1.233-5.079,1.535-8.309,1.856-4.82.478-9.8.973-12.041,4.472-5.131,8.027-3.621,27-2.621,39.549.312,3.924.582,7.313.606,9.7a3.05,3.05,0,0,1-.9,2.188,3.518,3.518,0,0,1-2.492,1.018m-25.462-55.125.6.054c-1.1,12.076,8.646,40.476,13.54,52.338a2.35,2.35,0,0,0,2.143,1.533H600.5a2.313,2.313,0,0,0,1.639-.662,1.861,1.861,0,0,0,.556-1.331c-.024-2.349-.292-5.719-.6-9.62-1.012-12.713-2.542-31.924,2.806-40.291,2.55-3.989,8.066-4.537,12.933-5.02,3.091-.306,6.01-.6,7.8-1.687,10.056-6.112,7.667-25.023,7.079-28.791-6.255,1.869-55.581,17.122-57.079,33.533Z" transform="translate(-344.626 -261.038)"/>
        <path id="Path_2821" data-name="Path 2821" d="M541.491,442.37s-38.325.318-50.41,13.7c-10.861,12.024,5.24,66.555,8.612,77.15a2.771,2.771,0,0,0,2.681,1.85h14.4a.529.529,0,0,0,.549-.507l-2.291-20.732c-2.454-27.517.537-33.336.537-33.336,2.424-7.783,23.171-7.451,34.45-7.373,35.818.247,25.293-31.208,25.293-31.208Z" transform="translate(-292.436 -265.16)" fill="#fff"/>
        <path id="Path_2822" data-name="Path 2822" d="M515.867,534.758h-14.4a3.35,3.35,0,0,1-3.253-2.268,358.264,358.264,0,0,1-9.661-38.11c-3.951-21.054-3.556-34.385,1.176-39.623,12.122-13.419,49.274-13.881,50.85-13.895l34.256-.465.139.415c.185.554,4.458,13.665-2.341,23.041-4.367,6.021-12.277,9.037-23.526,8.958l-.784-.006c-10.782-.078-30.852-.224-33.089,6.957l-.04.1c-.026.054-2.864,6.2-.473,33.008l2.293,20.786a1.13,1.13,0,0,1-1.149,1.106m24.723-92.7c-.381,0-38.2.47-49.97,13.5-4.4,4.875-4.71,18.222-.887,38.6a356.891,356.891,0,0,0,9.626,37.968,2.184,2.184,0,0,0,2.109,1.431H515.8l-2.273-20.573c-2.349-26.347.261-32.941.574-33.622,2.558-7.988,22.379-7.844,34.23-7.758l.784.006c10.827.076,18.415-2.771,22.542-8.457,5.786-7.973,2.966-19.25,2.3-21.545Zm-.005-.6h0Z" transform="translate(-291.53 -264.251)"/>
        <path id="Path_2823" data-name="Path 2823" d="M516.747,377.114c-.241-.063-5.7.206-6.213.031-2.575-.874-8-2.841-10.55-2.859a37.4,37.4,0,0,1-7.266-.847c-1-.212-1.714.191-1.9.838a1.827,1.827,0,0,0,1.489,2.217c1.709.388,3.409.818,4.864,1.162.458.108.93.126.5.278-1.006.353-2.1.922-2.166,1.737-.131,1.531,3.651,5.018,7.809,5.273,3.566.219,4.551-1.537,5.915-1.793.226-.043,6.163.1,6.425.049,2.69-.557,2.544-5.708,1.1-6.086" transform="translate(-294.474 -224.041)" fill="#fff"/>
        <path id="Path_2824" data-name="Path 2824" d="M503.011,384.665c-.2,0-.414-.006-.634-.02a11.273,11.273,0,0,1-7.345-3.669,3.453,3.453,0,0,1-1.025-2.254,2.179,2.179,0,0,1,1.177-1.608l-.756-.184c-1.008-.245-2.079-.506-3.153-.749a2.494,2.494,0,0,1-1.669-1.158,2.417,2.417,0,0,1-.264-1.812,2.075,2.075,0,0,1,2.6-1.257,36.768,36.768,0,0,0,7.146.834c2.38.016,6.866,1.559,9.835,2.581l.9.31c.342.071,2.751,0,4.045-.034a11.959,11.959,0,0,1,2.126-.01c1.066.278,1.507,1.821,1.471,3.228-.041,1.618-.746,3.643-2.6,4.026-.162.034-.606.036-3.625-.012-1.156-.018-2.588-.041-2.837-.03a3.851,3.851,0,0,0-1.1.533,7.5,7.5,0,0,1-4.3,1.284m-11.7-11.579a.764.764,0,0,0-.813.461,1.215,1.215,0,0,0,.146.868,1.325,1.325,0,0,0,.9.6c1.08.245,2.157.507,3.171.754.592.144,1.162.282,1.7.41.1.023.2.042.286.058.321.06.8.152.843.656.017.228-.068.537-.57.713-1.263.444-1.741.923-1.767,1.222a2.409,2.409,0,0,0,.738,1.367,10.143,10.143,0,0,0,6.511,3.255,6.376,6.376,0,0,0,4.242-1.094,4.661,4.661,0,0,1,1.524-.69c.137-.026.415-.028,3.052.014,1.312.021,3.1.049,3.388.032,1.144-.257,1.585-1.706,1.615-2.876s-.326-1.916-.546-2.025c-.232-.008-1.072.016-1.818.037a24.1,24.1,0,0,1-4.464-.029l-.909-.312c-2.719-.936-7.269-2.5-9.453-2.515a37.981,37.981,0,0,1-7.386-.86,1.865,1.865,0,0,0-.388-.043" transform="translate(-293.576 -223.143)"/>
        <path id="Path_2825" data-name="Path 2825" d="M577.089,292.488c-7.553,5.922-10.024,23.059-14.858,26.928-4.191,3.355-19.2,4.421-19.2,4.421l-.113,9.619,13.1.51c7.883.3,15.431-2.9,18.221-5.523,9.281-8.719,28.581-27.162,33.451-39.468l-13.55-1.421a22.852,22.852,0,0,0-17.048,4.934" transform="translate(-325.765 -172.433)"/>
        <path id="Path_2826" data-name="Path 2826" d="M619.735,323.1a16.416,16.416,0,0,0,.652,7.834,14.8,14.8,0,0,1-3.526,15.246,19.03,19.03,0,0,1-5.565,3.973s.951,5.886,9.876,6.713c3.629.336,13.217,1.144,20.379,1.078a101,101,0,0,0,17.067-1.547l1.393-45.275s1.44-19.008-11.674-21.6l-18.895-1.182Z" transform="translate(-366.796 -173.011)"/>
        <path id="Path_2827" data-name="Path 2827" d="M628.479,363.61a.6.6,0,0,1-.441-1.007,50.605,50.605,0,0,0,9.19-13.457.6.6,0,1,1,1.1.483,51.781,51.781,0,0,1-9.407,13.788.6.6,0,0,1-.441.193" transform="translate(-376.746 -209.283)" fill="#caddff"/>
        <path id="Path_2828" data-name="Path 2828" d="M623.55,185.827s-4.759.145-4.093-8.305c.671-8.508,9.979-7.994,13.191-9.121s8.521-7.989,10.565-9.819,8.346-9.446,21.352-2.223c0,0,2.291,2.157,11.071-.2,7.639-2.052,22.112-.064,19.385,11.144a13.015,13.015,0,0,1-5.384,7.743c-.48.322-1.01.646-1.593.961a5.648,5.648,0,0,0-2.915,4.692c-.363,6.587-3.765,19.8-26.35,11.306a5.483,5.483,0,0,0-5.029.575c-1.812,1.223-3.363,4.95-13.065,5.288-6.232.217-9.319-6.108-11.449-8.851a7.689,7.689,0,0,0-5.686-3.188" transform="translate(-371.654 -91.988)"/>
        <path id="Path_2829" data-name="Path 2829" d="M631.733,234.625s-.017,1.512-.036,2.177a11.023,11.023,0,0,1-.944,5.1.517.517,0,0,0,.2.648l1.671,1.05a.485.485,0,0,1,.219.324c.153.832.722,3.886.921,4.439a2.314,2.314,0,0,0,1.145,1.231c.754.256,3.662-.652,3.662-.652s-.429-.548,1.888,3.457c1.631,2.817-1.854,7.435-1.854,7.435s13.135,5.3,20.5-1.041a.808.808,0,0,0-.33-1.357c-6.961-1.724-7.883-5.228-10.626-10.67a.87.87,0,0,0-.724-.4c-1.173-.1-4.247.011-5.287-4.916a.749.749,0,0,1,.019-.382c.327-1.026,1.727-6.014-2.769-3.912a3.851,3.851,0,0,1-5.25-1.531,1.44,1.44,0,0,0-.875-.621Z" transform="translate(-378.444 -140.782)" fill="#fff"/>
        <path id="Path_2830" data-name="Path 2830" d="M648.484,261.627a32.7,32.7,0,0,1-11-2.138.6.6,0,0,1-.254-.918c.9-1.2,2.985-4.749,1.813-6.773-.776-1.342-1.329-2.319-1.645-2.907l-.064-.122a8.423,8.423,0,0,1-3.515.491,2.881,2.881,0,0,1-1.516-1.6c-.2-.549-.669-3.022-.938-4.484l-1.629-1.023a1.118,1.118,0,0,1-.425-1.408,9.989,9.989,0,0,0,.89-4.528c0-.136,0-.248,0-.336.019-.662.036-2.166.036-2.167a.6.6,0,0,1,.743-.576l1.527.376a2.027,2.027,0,0,1,1.238.882,3.258,3.258,0,0,0,4.489,1.31c1.52-.71,2.653-.751,3.37-.121,1.185,1.041.649,3.429.225,4.759a.154.154,0,0,0,0,.075c.88,4.17,3.232,4.335,4.5,4.423l.258.02a1.432,1.432,0,0,1,1.206.729c.312.618.6,1.211.876,1.779,2.155,4.438,3.457,7.118,9.36,8.579a1.407,1.407,0,0,1,.576,2.394,15.174,15.174,0,0,1-10.11,3.281m-9.845-2.992c2.789.96,13.129,4.008,19.172-1.2.06-.052.039-.154.035-.174a.193.193,0,0,0-.116-.146c-6.448-1.6-8-4.794-10.151-9.219-.273-.563-.558-1.151-.868-1.763a.478.478,0,0,0-.242-.074l-.235-.018c-1.352-.094-4.518-.316-5.586-5.372a1.353,1.353,0,0,1,.034-.688c.529-1.657.581-3.093.127-3.493-.312-.274-1.067-.163-2.071.306a4.478,4.478,0,0,1-6.011-1.754.845.845,0,0,0-.512-.359l-.794-.2c-.007.48-.016,1.075-.026,1.43,0,.075,0,.172,0,.288a11.12,11.12,0,0,1-.966,4.972l1.611,1.012a1.091,1.091,0,0,1,.491.723c.424,2.308.776,4.013.9,4.344a1.808,1.808,0,0,0,.774.867,10.464,10.464,0,0,0,3.087-.6l.016-.011a.643.643,0,0,1,.838.152.6.6,0,0,1,.124.3c.128.261.535,1.022,1.812,3.229,1.434,2.477-.5,5.988-1.44,7.437M631.4,243.207h0Z" transform="translate(-377.544 -139.882)"/>
        <path id="Path_2831" data-name="Path 2831" d="M653.3,250.279a1.809,1.809,0,0,1-1.453-.573.6.6,0,0,1,.947-.729,1.223,1.223,0,0,0,.887.035,1.279,1.279,0,0,0,.706-.973.6.6,0,1,1,1.163.294,2.307,2.307,0,0,1-1.879,1.917,2.35,2.35,0,0,1-.372.029m-.441-1.218h0" transform="translate(-391.069 -148.559)"/>
        <path id="Path_2832" data-name="Path 2832" d="M625.189,243.947a2.5,2.5,0,0,1-1.717-.641c-1.555-1.4-1.4-4.567-1.374-4.923a.6.6,0,0,1,.586-.561l11.112-.232a.6.6,0,1,1,.025,1.2l-10.538.221c.014,1.022.2,2.7.991,3.406a1.424,1.424,0,0,0,1.268.3.6.6,0,1,1,.2,1.182,3.3,3.3,0,0,1-.558.049" transform="translate(-373.268 -142.56)"/>
        <path id="Path_2833" data-name="Path 2833" d="M654.209,256.472a.815.815,0,1,1,.892.746.825.825,0,0,1-.892-.746" transform="translate(-392.542 -153.349)" fill="#72005d"/>
        <path id="Path_2834" data-name="Path 2834" d="M587.356,325.654v10.829c0,15.52-12.207,28.1-27.266,28.1s-27.266,12.581-27.266,28.1a2.5,2.5,0,0,0,2.493,2.5h72.174c22.574,0,40.875-18.861,40.875-42.128v-28.82a16.512,16.512,0,0,0-16.258-16.756H604.983c-9.735,0-17.627,8.134-17.627,18.168" transform="translate(-319.71 -184.501)" fill="#72005d"/>
        <path id="Path_2835" data-name="Path 2835" d="M573.093,403.039a.6.6,0,0,1-.49-.945c3.825-5.448,9.929-8.571,18.142-9.281a34.089,34.089,0,0,0,12.948-3.567c8.415-4.625,19.6-12.818,19.6-30.489v-2.039c0-17.861,6.17-18.768,16.238-18.768a.6.6,0,1,1,0,1.2c-9.881,0-15.038.782-15.038,17.568v2.039c0,18.307-11.542,26.768-20.223,31.54a35.319,35.319,0,0,1-13.423,3.711c-7.953.688-13.6,3.559-17.263,8.775a.6.6,0,0,1-.492.255" transform="translate(-343.513 -202.78)" fill="#caddff"/>
        <rect id="Rectangle_425" data-name="Rectangle 425" width="7.596" height="82.345" transform="translate(271.085 208.449)" fill="#72005d"/>
        <path id="Path_2836" data-name="Path 2836" d="M598.247,719.544l33.618-2.963h3.083l34.321,2.963v2.351H598.247Z" transform="translate(-358.966 -429.97)" fill="#72005d"/>
      </g>
    </g>
  </g>
</svg>
