<svg xmlns="http://www.w3.org/2000/svg" width="36" height="36" viewBox="0 0 36 36"><g transform="translate(-551 -3666)"><rect width="36" height="36" rx="5" transform="translate(551 3666)" fill="#71005d"/><g transform="translate(558.217 3674)"><path d="M2.846,16.9a.573.573,0,0,1-.581-.576V13.327a.2.2,0,0,0-.2-.2H.515A.515.515,0,0,1,0,12.611V.555A.556.556,0,0,1,.555,0h16.43a.556.556,0,0,1,.555.555v7.8a.316.316,0,1,1-.633,0V.853a.22.22,0,0,0-.22-.22H.853a.22.22,0,0,0-.22.22V12.291a.2.2,0,0,0,.2.2H2.448a.45.45,0,0,1,.45.45v2.674a.2.2,0,0,0,.2.205.2.2,0,0,0,.153-.071l2.8-3.259H7.927a.316.316,0,0,1,0,.633H6.436a.2.2,0,0,0-.151.069l-3.01,3.5a.56.56,0,0,1-.429.2Z" fill="#fff" stroke="#fff" stroke-width="0.5"/><path d="M69.082,72.769a.346.346,0,0,1-.265-.125L66.44,69.877H58.523v-9.41H70.932a.1.1,0,0,1,.1.1v9.306H69.443v2.536a.342.342,0,0,1-.11.259A.372.372,0,0,1,69.082,72.769Zm-.273-1.1V69.244H70.4V61.555a.456.456,0,0,0-.456-.456H59.157v8.144h7.574l2.079,2.421Z" transform="translate(-49.471 -51.113)" fill="#fff" stroke="#fff" stroke-width="0.5"/><path d="M30.748,26.756H18.829v.633H30.748Z" transform="translate(-15.916 -22.617)" fill="#fff" stroke="#fff" stroke-width="0.5"/><path d="M26.989,39.776H18.829v.633h8.159Z" transform="translate(-15.916 -33.623)" fill="#fff" stroke="#fff" stroke-width="0.5"/><path d="M74.858,86.593a.927.927,0,1,1,.927-.927A.928.928,0,0,1,74.858,86.593Zm0-1.411a.484.484,0,1,0,.484.484A.484.484,0,0,0,74.858,85.183Z" transform="translate(-62.495 -71.632)" fill="#fff" stroke="#fff" stroke-width="0.5"/><path d="M94.077,86.593A.927.927,0,1,1,95,85.666.928.928,0,0,1,94.077,86.593Zm0-1.411a.484.484,0,1,0,.484.484A.484.484,0,0,0,94.077,85.183Z" transform="translate(-78.741 -71.632)" fill="#fff" stroke="#fff" stroke-width="0.5"/><path d="M113.293,86.593a.927.927,0,1,1,.927-.927A.928.928,0,0,1,113.293,86.593Zm0-1.411a.484.484,0,1,0,.484.484A.484.484,0,0,0,113.293,85.183Z" transform="translate(-94.984 -71.632)" fill="#fff" stroke="#fff" stroke-width="0.5"/></g></g></svg>