<svg xmlns="http://www.w3.org/2000/svg" width="36" height="36" viewBox="0 0 36 36"><g transform="translate(-861 -3666)"><rect width="36" height="36" rx="5" transform="translate(861 3666)" fill="#71005d"/><path d="M9.287,21.733a.258.258,0,0,1-.258-.258v-1.69l-.157-.03a9.292,9.292,0,0,1-3.789-1.676l-.309-.232v.306l-.652.648a.258.258,0,0,1-.362.006L2.48,17.528a.26.26,0,0,1-.077-.184.257.257,0,0,1,.076-.183l.843-.827-.1-.136a9.206,9.206,0,0,1-1.769-4.231L1.428,11.8H.258A.258.258,0,0,1,0,11.544V9.738A.258.258,0,0,1,.258,9.48H1.41l.024-.166A9.205,9.205,0,0,1,3.2,5.083l.1-.134-.823-.828A.261.261,0,0,1,2.4,3.937a.257.257,0,0,1,.076-.183L3.753,2.48a.258.258,0,0,1,.367,0l.827.843.136-.1A9.207,9.207,0,0,1,9.314,1.452l.166-.024V.258A.258.258,0,0,1,9.738,0h1.806A.258.258,0,0,1,11.8.258V1.41l.166.024A9.207,9.207,0,0,1,16.2,3.2l.134.1.828-.823a.258.258,0,0,1,.367,0l1.259,1.273a.258.258,0,0,1,0,.368l-.824.829.1.134a9.245,9.245,0,0,1,1.769,4.231l.024.166h1.165a.258.258,0,0,1,.258.258v1.806a.258.258,0,0,1-.258.258H19.872l-.024.166A9.244,9.244,0,0,1,18.08,16.2l-.1.134.823.828a.257.257,0,0,1,.077.184.26.26,0,0,1-.076.183l-.057.057h0L17.528,18.8a.258.258,0,0,1-.361.007l-.835-.829-.134.1a9.289,9.289,0,0,1-3.789,1.676l-.157.03v1.69a.258.258,0,0,1-.258.258H9.287ZM8.642,14.9h.645a.258.258,0,0,1,.258.258v6.062h2.193V15.155A.258.258,0,0,1,12,14.9h.645V11.8h-4Zm-3.7,2.486a.255.255,0,0,1,.163.058,8.812,8.812,0,0,0,3.693,1.782l.234.051V17.488l-.145-.038a7.03,7.03,0,1,1,3.515,0l-.145.038v1.776l.234-.051a8.81,8.81,0,0,0,3.693-1.782.26.26,0,0,1,.167-.062.256.256,0,0,1,.185.078l.812.807.909-.909-.8-.809a.258.258,0,0,1-.019-.347,8.665,8.665,0,0,0,1.934-4.672.257.257,0,0,1,.257-.232h1.143V10H19.625a.258.258,0,0,1-.259-.232,8.664,8.664,0,0,0-1.944-4.672.257.257,0,0,1,.019-.345l.8-.81-.909-.909-.809.8a.258.258,0,0,1-.347.019,8.7,8.7,0,0,0-4.662-1.934.257.257,0,0,1-.232-.258V.516H10V1.657a.257.257,0,0,1-.232.259A8.7,8.7,0,0,0,5.1,3.851a.26.26,0,0,1-.167.062.256.256,0,0,1-.175-.068l-.822-.816-.909.909.8.809a.257.257,0,0,1,.019.346A8.7,8.7,0,0,0,1.917,9.764.257.257,0,0,1,1.66,10H.516v1.29H1.658a.258.258,0,0,1,.259.232A8.7,8.7,0,0,0,3.851,16.19a.257.257,0,0,1-.019.345l-.8.81.907.907.818-.792a.259.259,0,0,1,.185-.078Zm7.314-.424.249-.074a6.514,6.514,0,1,0-3.722,0l.249.074V15.413H8.384a.258.258,0,0,1-.258-.258V11.544a.258.258,0,0,1,.258-.258H12.9a.258.258,0,0,1,.258.258v3.611a.258.258,0,0,1-.258.258h-.645v1.546ZM10.641,10a2.064,2.064,0,1,1,1.459-.6A2.05,2.05,0,0,1,10.641,10Zm0-3.611a1.548,1.548,0,1,0,1.094.453A1.538,1.538,0,0,0,10.641,6.385Z" transform="translate(868.359 3673.108)" fill="#fff" stroke="#fff" stroke-width="0.5"/></g></svg>