<svg xmlns="http://www.w3.org/2000/svg" width="36" height="36" viewBox="0 0 36 36"><g transform="translate(-1171 -3666)"><rect width="36" height="36" rx="5" transform="translate(1171 3666)" fill="#71005d"/><g transform="translate(310 -66)"><path d="M81.36,14.063a.256.256,0,0,0,.2-.3A3.729,3.729,0,0,0,77.9,10.724a.256.256,0,1,0,0,.512,3.22,3.22,0,0,1,3.162,2.622.256.256,0,0,0,.253.208.193.193,0,0,0,.045,0Z" transform="translate(803.104 3729.985)" fill="#fff" stroke="#fff" stroke-width="0.5"/><path d="M40.061,57.146l-.768-.109a4.108,4.108,0,0,0-.324-.789l.464-.621a.259.259,0,0,0-.024-.335l-1.263-1.267A.259.259,0,0,0,37.81,54l-.625.465a4.464,4.464,0,0,0-.789-.328l-.113-.772a.254.254,0,0,0-.253-.219H34.242a.254.254,0,0,0-.253.219l-.113.772a4,4,0,0,0-.789.328L32.467,54a.259.259,0,0,0-.335.024l-1.263,1.267a.259.259,0,0,0-.024.335l.464.621a4.123,4.123,0,0,0-.324.789l-.768.109A.254.254,0,0,0,30,57.4v1.793a.254.254,0,0,0,.219.253l.772.109a4.493,4.493,0,0,0,.324.789l-.464.621a.259.259,0,0,0,.024.335l1.263,1.267a.259.259,0,0,0,.335.024l.618-.458a4.365,4.365,0,0,0,.789.328l.113.772a.254.254,0,0,0,.253.218h1.789a.254.254,0,0,0,.253-.218l.113-.775a4.368,4.368,0,0,0,.789-.328l.625.468a.259.259,0,0,0,.335-.024L39.409,61.3a.259.259,0,0,0,.024-.335l-.464-.621a4.027,4.027,0,0,0,.324-.789l.772-.109a.254.254,0,0,0,.218-.253V57.4A.261.261,0,0,0,40.061,57.146Zm-.29,1.823-.714.1a.256.256,0,0,0-.212.188,3.793,3.793,0,0,1-.4.973.252.252,0,0,0,.014.283l.434.577-.953.953-.577-.434a.259.259,0,0,0-.283-.017,3.788,3.788,0,0,1-.977.4.256.256,0,0,0-.188.212l-.106.717H34.461l-.106-.717A.256.256,0,0,0,34.167,62a4.1,4.1,0,0,1-.977-.4.259.259,0,0,0-.283.017l-.577.434-.953-.953.434-.577a.253.253,0,0,0,.014-.283,3.79,3.79,0,0,1-.4-.973.256.256,0,0,0-.212-.188l-.714-.1V57.624l.714-.1a.256.256,0,0,0,.212-.188,3.774,3.774,0,0,1,.4-.973.252.252,0,0,0-.014-.283l-.434-.577.953-.953.577.434a.26.26,0,0,0,.283.017,3.869,3.869,0,0,1,.973-.4.256.256,0,0,0,.188-.212l.106-.717H35.8l.106.717a.256.256,0,0,0,.188.212,3.825,3.825,0,0,1,.973.4.253.253,0,0,0,.283-.017l.577-.434.953.953-.434.577a.253.253,0,0,0-.014.283,3.67,3.67,0,0,1,.4.973.256.256,0,0,0,.212.188l.714.1V58.97Z" transform="translate(843.863 3693.694)" fill="#fff" stroke="#fff" stroke-width="0.5"/><path d="M52.2,73.155a2.257,2.257,0,1,0,2.254,2.26A2.263,2.263,0,0,0,52.2,73.155Zm0,4a1.745,1.745,0,1,1,1.741-1.741A1.748,1.748,0,0,1,52.2,77.157Z" transform="translate(826.806 3676.578)" fill="#fff" stroke="#fff" stroke-width="0.5"/><path d="M57.945,128.473v-.3a.256.256,0,0,0-.512,0v.3a1.328,1.328,0,1,0,.512,0Zm-.256,2.12a.816.816,0,1,1,.816-.816A.816.816,0,0,1,57.689,130.593Z" transform="translate(821.311 3629.736)" fill="#fff" stroke="#fff" stroke-width="0.5"/><path d="M104.388,90.5v-3.24a.258.258,0,0,0-.256-.256h-.7a.256.256,0,1,0,0,.512h.444V90.5a1.329,1.329,0,1,0,.512,0Zm-.256,2.12a.816.816,0,1,1,.816-.816A.816.816,0,0,1,104.132,92.616Z" transform="translate(781.581 3664.735)" fill="#fff" stroke="#fff" stroke-width="0.5"/><path d="M11.505,90.5V87.512h.546a.256.256,0,0,0,0-.512h-.8a.258.258,0,0,0-.256.256V90.5a1.328,1.328,0,1,0,.512,0Zm-.256,2.12a.816.816,0,1,1,.816-.816A.816.816,0,0,1,11.249,92.616Z" transform="translate(861.038 3664.735)" fill="#fff" stroke="#fff" stroke-width="0.5"/><path d="M16.643,4.176A5.277,5.277,0,0,0,7.014,2.469,3.385,3.385,0,0,0,2.643,5.719v.01a3.117,3.117,0,0,0,.475,6.2h.444a.256.256,0,1,0,0-.512H3.117a2.6,2.6,0,0,1-.188-5.2A.253.253,0,0,0,3.1,6.123a.275.275,0,0,0,.061-.191c-.007-.068-.01-.137-.01-.2a2.881,2.881,0,0,1,3.886-2.7.254.254,0,0,0,.311-.113,4.767,4.767,0,0,1,8.816,1.5.267.267,0,0,0,.147.188,3.564,3.564,0,0,1-.96,6.792.255.255,0,0,0,.068.505,4.077,4.077,0,0,0,1.219-7.714Z" transform="translate(869.524 3739.159)" fill="#fff" stroke="#fff" stroke-width="0.5"/></g></g></svg>