<svg xmlns="http://www.w3.org/2000/svg" width="58" height="58" viewBox="0 0 58 58">
  <g id="Group_769" data-name="Group 769" transform="translate(-444 -3265)">
    <g id="Rectangle_14" data-name="Rectangle 14" transform="translate(444 3265)" fill="#e9eef1" stroke="#dee2e6" stroke-width="1">
      <rect width="58" height="58" rx="5" stroke="none"/>
      <rect x="0.5" y="0.5" width="57" height="57" rx="4.5" fill="none"/>
    </g>
    <path id="clipboard-edit-outline" d="M36.16,21.459a.98.98,0,0,1,.7.312l2.353,2.353a.977.977,0,0,1,0,1.415l-1.838,1.838-3.768-3.768,1.838-1.838a1.021,1.021,0,0,1,.717-.312m-3.621,3.217,3.768,3.768L25.168,39.6H21.382V35.815L32.539,24.675M17.705,34.087l-3.676,3.676H6.676A3.687,3.687,0,0,1,3,34.087V8.353A3.687,3.687,0,0,1,6.676,4.676H14.36a5.493,5.493,0,0,1,10.367,0H32.41a3.687,3.687,0,0,1,3.676,3.676v7.353L32.41,19.382V8.353H28.734v3.676H10.353V8.353H6.676V34.087H17.705m1.838-29.41a1.838,1.838,0,1,0,1.838,1.838A1.844,1.844,0,0,0,19.543,4.676Z" transform="translate(451.693 3273.65)" fill="#71005d"/>
  </g>
</svg>
