<svg xmlns="http://www.w3.org/2000/svg" width="58" height="58" viewBox="0 0 58 58">
  <g id="Group_770" data-name="Group 770" transform="translate(-639 -3265)">
    <g id="Rectangle_16" data-name="Rectangle 16" transform="translate(639 3265)" fill="#e9eef1" stroke="#dee2e6" stroke-width="1">
      <rect width="58" height="58" rx="5" stroke="none"/>
      <rect x="0.5" y="0.5" width="57" height="57" rx="4.5" fill="none"/>
    </g>
    <path id="sitemap-outline" d="M35.6,26.219v-5.19a3.448,3.448,0,0,0-3.46-3.46H21.759V12.38h3.46V2H14.839V12.38H18.3v5.19H7.92a3.448,3.448,0,0,0-3.46,3.46v5.19H1V36.6H11.38V26.219H7.92v-5.19H18.3v5.19h-3.46V36.6h10.38V26.219h-3.46v-5.19h10.38v5.19h-3.46V36.6h10.38V26.219H35.6M18.3,5.46h3.46V8.92H18.3V5.46M7.92,33.139H4.46v-3.46H7.92v3.46m13.839,0H18.3v-3.46h3.46v3.46m13.839,0h-3.46v-3.46H35.6Z" transform="translate(647.701 3314.029) rotate(-90)" fill="#71005d"/>
  </g>
</svg>
