<svg xmlns="http://www.w3.org/2000/svg" width="58" height="58" viewBox="0 0 58 58">
  <g id="Group_775" data-name="Group 775" transform="translate(-1419 -3265)">
    <g id="Rectangle_20" data-name="Rectangle 20" transform="translate(1419 3265)" fill="#e9eef1" stroke="#dee2e6" stroke-width="1">
      <rect width="58" height="58" rx="5" stroke="none"/>
      <rect x="0.5" y="0.5" width="57" height="57" rx="4.5" fill="none"/>
    </g>
    <path id="read" d="M38.838,20.013l2.793,2.793L22.815,41.621,12.754,31.54l2.793-2.793,7.269,7.288L38.838,20.013M4,28.747V3h9.9a7.927,7.927,0,0,1,3.664,14.953l6.239,10.794H19.844l-5.724-9.9H7.961v9.9H4M7.961,14.883H13.9a3.961,3.961,0,1,0,0-7.922H7.961Z" transform="translate(1425.185 3271.677)" fill="#71005d"/>
  </g>
</svg>
