<svg xmlns="http://www.w3.org/2000/svg" width="58" height="58" viewBox="0 0 58 58">
  <g id="Group_772" data-name="Group 772" transform="translate(-1029 -3265)">
    <g id="Rectangle_18" data-name="Rectangle 18" transform="translate(1029 3265)" fill="#e9eef1" stroke="#dee2e6" stroke-width="1">
      <rect width="58" height="58" rx="5" stroke="none"/>
      <rect x="0.5" y="0.5" width="57" height="57" rx="4.5" fill="none"/>
    </g>
    <path id="numeric-2-box-multiple-outline" d="M29.074,22.056H22.056V18.546h3.509a3.509,3.509,0,0,0,3.509-3.509V11.528a3.508,3.508,0,0,0-3.509-3.509H18.546v3.509h7.019v3.509H22.056a3.509,3.509,0,0,0-3.509,3.509v7.019H29.074m7.019,3.509H11.528V4.509H36.093m0-3.509H11.528A3.509,3.509,0,0,0,8.019,4.509V29.074a3.509,3.509,0,0,0,3.509,3.509H36.093A3.509,3.509,0,0,0,39.6,29.074V4.509A3.509,3.509,0,0,0,36.093,1M4.509,8.019H1V36.093A3.509,3.509,0,0,0,4.509,39.6H32.584V36.093H4.509Z" transform="translate(1037.699 3273.699)" fill="#71005d"/>
  </g>
</svg>
