<svg xmlns="http://www.w3.org/2000/svg" width="58" height="58" viewBox="0 0 58 58">
  <g id="Group_771" data-name="Group 771" transform="translate(-834 -3265)">
    <g id="Rectangle_17" data-name="Rectangle 17" transform="translate(834 3265)" fill="#e9eef1" stroke="#dee2e6" stroke-width="1">
      <rect width="58" height="58" rx="5" stroke="none"/>
      <rect x="0.5" y="0.5" width="57" height="57" rx="4.5" fill="none"/>
    </g>
    <path id="briefcase-check-outline" d="M36.77,9.727a3.613,3.613,0,0,1,2.743,1.14,3.845,3.845,0,0,1,1.12,2.724V34.838a3.845,3.845,0,0,1-1.12,2.724A3.613,3.613,0,0,1,36.77,38.7H5.863a3.613,3.613,0,0,1-2.743-1.14A3.845,3.845,0,0,1,2,34.838V13.59a3.845,3.845,0,0,1,1.12-2.724,3.613,3.613,0,0,1,2.743-1.14H13.59V5.863A3.668,3.668,0,0,1,14.71,3.12,3.668,3.668,0,0,1,17.453,2H25.18a3.668,3.668,0,0,1,2.743,1.12,3.668,3.668,0,0,1,1.12,2.743V9.727H36.77M5.863,13.59V34.838H36.77V13.59H5.863M25.18,9.727V5.863H17.453V9.727H25.18M18.342,31.941l12.73-12.73-2.724-2.724L18.342,26.474,14.3,22.456,11.581,25.18Z" transform="translate(841.684 3273.649)" fill="#71005d"/>
  </g>
</svg>
