<svg xmlns="http://www.w3.org/2000/svg" xmlns:xlink="http://www.w3.org/1999/xlink" width="36" height="36" viewBox="0 0 36 36"><defs><clipPath id="a"><rect width="24" height="26.242" fill="#fff"/></clipPath></defs><g transform="translate(-400 -3146)"><rect width="36" height="36" rx="5" transform="translate(400 3146)" fill="#71005d"/><g transform="translate(406 3150.879)"><g clip-path="url(#a)"><path d="M19.48,16.623c-.063-.015-.126-.028-.191-.04-1.642-1.518-.521-7.852-.521-7.852C18.768.662,14.208,0,12.708,0a3.577,3.577,0,0,0-.471.026L12,.015c-.078,0-.157.006-.237.01A3.586,3.586,0,0,0,11.291,0c-1.5,0-6.06.663-6.06,8.732,0,0,1.121,6.334-.521,7.852-.064.013-.128.026-.19.04-.542.126-3.056.287-4.417,4.968a2.562,2.562,0,0,0,.181,1.894c1.114,2.106,6.967,2.756,11.7,2.756h.025c4.737,0,10.59-.65,11.7-2.756a2.564,2.564,0,0,0,.18-1.894c-1.36-4.681-3.874-4.842-4.416-4.968Zm-3.043-.357a1.029,1.029,0,0,1-.227.508,5.722,5.722,0,0,1-8.421,0,1.025,1.025,0,0,1-.225-.508h0c.03-.01.1-.034.186-.074.037-.017.077-.037.12-.058a1.472,1.472,0,0,0,.884-1.27h0a5.656,5.656,0,0,0,1.865,1.27,3.694,3.694,0,0,0,2.812,0,5.655,5.655,0,0,0,1.849-1.254l.012.006a1.621,1.621,0,0,0,1.146,1.367A.068.068,0,0,0,16.437,16.266Zm1.031-6.584a1.971,1.971,0,0,1-.492,1.09.336.336,0,0,1-.212.091.244.244,0,0,1-.038,0A.241.241,0,0,1,16.6,10.8a7.816,7.816,0,0,1-2.442,3.7,3.5,3.5,0,0,1-2.134.8,3.509,3.509,0,0,1-2.146-.813A7.816,7.816,0,0,1,7.45,10.8a.25.25,0,0,1-.125.065l-.038,0a.374.374,0,0,1-.252-.13,2.088,2.088,0,0,1-.453-1.052,1.511,1.511,0,0,1,.194-1.317.221.221,0,0,1,.1-.041.246.246,0,0,1,.037,0,.328.328,0,0,1,.2.084s0-.006,0-.019c.027-.259.361-3.073,2.412-3.073.071,0,.144,0,.219.01l6.876,3.539.557-.538a.2.2,0,0,1,.056.018c.246.114.351.686.234,1.339Z" transform="translate(0 0.001)" fill="#fff"/></g></g></g></svg>