<svg xmlns="http://www.w3.org/2000/svg" xmlns:xlink="http://www.w3.org/1999/xlink" width="36" height="36" viewBox="0 0 36 36"><defs><clipPath id="a"><rect width="27.764" height="26.754" fill="#fff"/></clipPath></defs><g transform="translate(-678 -3146)"><rect width="36" height="36" rx="5" transform="translate(678 3146)" fill="#71005d"/><g transform="translate(-3.995 -36.047)"><g transform="translate(686.113 3186.67)"><g clip-path="url(#a)"><path d="M198.424,368.565a3.317,3.317,0,1,1-3.317-3.317,3.317,3.317,0,0,1,3.317,3.317" transform="translate(-181.225 -345.127)" fill="#fff"/><path d="M390.214,368.565a3.317,3.317,0,1,1-3.317-3.317,3.317,3.317,0,0,1,3.317,3.317" transform="translate(-362.45 -345.127)" fill="#fff"/><path d="M6.634,368.565a3.317,3.317,0,1,1-3.317-3.317,3.317,3.317,0,0,1,3.317,3.317" transform="translate(0 -345.127)" fill="#fff"/><path d="M23.017,18.55a.391.391,0,0,0,.134.09.412.412,0,0,0,.321,0,.433.433,0,0,0,.112-.074c.007-.006.016-.008.023-.015l1.735-1.735a.416.416,0,0,0-.589-.589L23.728,17.25V14.324a2.034,2.034,0,0,1,2.032-2.031h5.668a3.328,3.328,0,0,0,2.032-.654v5.612l-1.024-1.024a.416.416,0,1,0-.589.589l1.735,1.735a.411.411,0,0,0,.135.09.429.429,0,0,0,.159.032.421.421,0,0,0,.159-.032.4.4,0,0,0,.135-.09l1.735-1.735a.416.416,0,1,0-.589-.589l-1.024,1.024V11.638a3.332,3.332,0,0,0,2.032.654h5.668a2.035,2.035,0,0,1,2.032,2.032v2.925L43,16.225a.417.417,0,0,0-.589.589l1.735,1.735c.006.006.017.008.023.015a.411.411,0,0,0,.111.075.433.433,0,0,0,.161.032.419.419,0,0,0,.3-.122l1.735-1.735a.416.416,0,1,0-.589-.589l-1.024,1.024V14.324A2.868,2.868,0,0,0,42,11.459H36.326c-1.1,0-2.032-.63-2.032-1.375V8.292c0-.007,0-.014,0-.021a4.146,4.146,0,1,0-.824,0c0,.007,0,.013,0,.021v1.792c0,.746-.931,1.375-2.032,1.375H25.761A2.869,2.869,0,0,0,22.9,14.324v2.925l-1.024-1.024a.416.416,0,1,0-.589.589Z" transform="translate(-19.995)" fill="#fff"/></g></g></g></g></svg>