<svg xmlns="http://www.w3.org/2000/svg" xmlns:xlink="http://www.w3.org/1999/xlink" width="36" height="36" viewBox="0 0 36 36"><defs><clipPath id="a"><rect width="24" height="24" fill="#fff"/></clipPath></defs><g transform="translate(-400 -3214)"><rect width="36" height="36" rx="5" transform="translate(400 3214)" fill="#71005d"/><g transform="translate(405.621 3219.621)"><g transform="translate(0.379 0.379)" clip-path="url(#a)"><path d="M10.253,16.9a6.006,6.006,0,0,0-1.719,1.382,5.821,5.821,0,0,0-1.515,3.54,2.323,2.323,0,0,0,1.762,2.358,11.306,11.306,0,0,0,3.5.387,11.306,11.306,0,0,0,3.5-.387,2.323,2.323,0,0,0,1.762-2.358,5.821,5.821,0,0,0-1.515-3.541A6.011,6.011,0,0,0,14.313,16.9a3.509,3.509,0,1,0-4.061,0Zm1.245.754a4.38,4.38,0,0,0-2.082,1.4,4.6,4.6,0,0,0-1.227,2.772,1.255,1.255,0,0,0,.98,1.254,10.134,10.134,0,0,0,3.114.321,10.134,10.134,0,0,0,3.114-.321,1.256,1.256,0,0,0,.98-1.254A4.6,4.6,0,0,0,15.15,19.05a4.38,4.38,0,0,0-2.082-1.4l.963,3.32a.585.585,0,0,1-.165.5L12.7,22.64a.584.584,0,0,1-.827,0L10.7,21.47a.584.584,0,0,1-.166-.5Zm7.065-6.123-.049,0a1.75,1.75,0,0,0-1.807,1.414,11.6,11.6,0,0,0-.329,2.184,3.31,3.31,0,0,0,1.57,2.739,4.864,4.864,0,0,0,2.524.854A4.859,4.859,0,0,0,23,17.862a3.309,3.309,0,0,0,1.57-2.739,11.6,11.6,0,0,0-.334-2.2,1.746,1.746,0,0,0-1.8-1.4l-.042,0h0a.5.5,0,0,1-.252-.12c-.182-.12-.363-.275-.545-.412a1.964,1.964,0,0,0-1.118-.471A1.963,1.963,0,0,0,19.354,11c-.182.137-.363.292-.545.412a.522.522,0,0,1-.247.12ZM.585,14.623v2.34a1.17,1.17,0,0,0,1.17,1.17H3.509v-1.17a.585.585,0,1,1,1.17,0v1.17H6.434a1.17,1.17,0,0,0,1.17-1.17v-2.34a.585.585,0,0,0,.374-1.034L4.468,10.664a.585.585,0,0,0-.749,0L.21,13.588a.585.585,0,0,0,.374,1.034Zm11.7,1.755A2.341,2.341,0,0,0,14.6,14.35a1.667,1.667,0,0,1-.832.273,1.869,1.869,0,0,1-.887-.281c-.141-.079-.281-.168-.422-.238a.313.313,0,0,0-.386,0c-.141.069-.281.158-.422.238a1.869,1.869,0,0,1-.887.281,1.63,1.63,0,0,1-.8-.251A2.341,2.341,0,0,0,12.283,16.377Zm8.774-2.34v-.585a.585.585,0,1,0-1.17,0v.585H19.3a.585.585,0,1,0,0,1.17h.585v.585a.585.585,0,0,0,1.17,0v-.585h.585a.585.585,0,1,0,0-1.17ZM4.094,12.283a.585.585,0,1,1-.585.585.585.585,0,0,1,.585-.585M19.887,7.946l-.171-.171a.585.585,0,0,0-.827.827l1.17,1.17a.584.584,0,0,0,.827,0l1.17-1.17a.585.585,0,0,0-.827-.827l-.171.171V5.278a1.768,1.768,0,0,0-1.768-1.768h-.572a.584.584,0,0,0-.584.584h0a.585.585,0,0,0,.585.585h.571a.6.6,0,0,1,.6.6Zm-16.378,0V5.278A1.767,1.767,0,0,1,5.277,3.509h.572a.584.584,0,0,1,.584.584h0a.585.585,0,0,1-.585.585H5.277a.6.6,0,0,0-.6.6V7.946l.171-.171a.585.585,0,0,1,.827.827l-1.17,1.17a.584.584,0,0,1-.827,0L2.511,8.6a.585.585,0,0,1,.827-.827ZM12.283,0a4.679,4.679,0,1,0,4.679,4.679A4.682,4.682,0,0,0,12.283,0m.59,2.34c0-.241,0-.484,0-.575a.6.6,0,0,0-.211-.457.585.585,0,0,0-.958.516l0,.545A1.461,1.461,0,0,0,10.528,3.8h0a1.461,1.461,0,0,0,1.461,1.461h.586a.293.293,0,1,1,0,.585H11.113a.585.585,0,1,0,0,1.17H11.7l0,.577a.585.585,0,1,0,1.17.016s0-.315.006-.623a1.462,1.462,0,0,0,1.164-1.432h0a1.462,1.462,0,0,0-1.461-1.461H11.99a.292.292,0,1,1,0-.585h1.462a.585.585,0,1,0,0-1.17Z" transform="translate(-0.283 -0.284)" fill="#fff" fill-rule="evenodd"/></g></g></g></svg>