<svg xmlns="http://www.w3.org/2000/svg" xmlns:xlink="http://www.w3.org/1999/xlink" width="36" height="36" viewBox="0 0 36 36"><defs><clipPath id="a"><rect width="24" height="24.591" fill="#fff"/></clipPath></defs><g transform="translate(-678 -3214)"><rect width="36" height="36" rx="5" transform="translate(678 3214)" fill="#71005d"/><g transform="translate(0.291 0.444)"><g transform="translate(683.709 3219.556)"><g clip-path="url(#a)"><path d="M22.363,11.342a3.184,3.184,0,0,0-1.6-5.965L19.469.544A.734.734,0,0,0,18.231.227C15.748,2.574,13.1,7.3,9.275,6.692a1.293,1.293,0,0,0-.727.083L2.783,8.319h0a.734.734,0,0,0-.519.9l.144.537-1.863.5a.733.733,0,0,0-.519.9l1.49,5.559a.733.733,0,0,0,.9.519l1.864-.5.144.536a.733.733,0,0,0,.9.519l1.082-.29,1.756,6.553a.733.733,0,0,0,.9.519l2.515-.674a.733.733,0,0,0,.519-.9l-1.756-6.553,1.436-.507c3.014-2.426,7.688.363,11.017,1.145a.735.735,0,0,0,.875-.9ZM3.9,15.313h0l-1.156.31-1.11-4.143,1.156-.309L3.9,15.312h0Zm1.75.865q-.891-3.315-1.778-6.632L8.548,8.292h0l1.777,6.632L5.647,16.178m4.835,6.487-1.1.295L7.816,17.115l1.1-.295ZM11.66,14.24l-1.613-6.02h0c3.7-.011,6.073-3.584,8.337-6.058l3.524,13.152c-3.2-1.009-7.036-2.918-10.249-1.074m10.3-4.395-.8-2.973a1.716,1.716,0,0,1,.8,2.973" transform="translate(0 0)" fill="#fff"/></g></g></g></g></svg>