<svg xmlns="http://www.w3.org/2000/svg" xmlns:xlink="http://www.w3.org/1999/xlink" width="36" height="36" viewBox="0 0 36 36"><defs><clipPath id="a"><rect width="28" height="22.83" fill="#fff"/></clipPath></defs><g transform="translate(-678 -3282)"><rect width="36" height="36" rx="5" transform="translate(678 3282)" fill="#71005d"/><g transform="translate(-8.252 111.623)"><g transform="translate(690.252 3177.377)"><g clip-path="url(#a)"><path d="M3.976,156.666l3.976,5.806H4.959A9.042,9.042,0,0,0,20.308,168.1l1.687,1.714a11.446,11.446,0,0,1-19.455-7.339H0Z" transform="translate(0 -150.279)" fill="#fff" fill-rule="evenodd"/><path d="M165.316,16.442l-3.976-5.806h2.993a9.042,9.042,0,0,0-15.35-5.625L147.3,3.3a11.445,11.445,0,0,1,19.455,7.339h2.54Z" transform="translate(-141.292)" fill="#fff" fill-rule="evenodd"/></g></g></g></g></svg>