<svg xmlns="http://www.w3.org/2000/svg" xmlns:xlink="http://www.w3.org/1999/xlink" width="36" height="36" viewBox="0 0 36 36"><defs><clipPath id="a"><rect width="19.095" height="24" fill="#fff"/></clipPath></defs><g transform="translate(-400 -3350)"><rect width="36" height="36" rx="5" transform="translate(400 3350)" fill="#71005d"/><g transform="translate(408 3354)"><g clip-path="url(#a)"><path d="M18.209,7.789H16.287L12.164,4.021a3,3,0,0,0,.253-1.163A2.858,2.858,0,0,0,6.7,2.833,3,3,0,0,0,6.955,4L2.832,7.789H.91A.907.907,0,0,0,0,8.7V23.09A.907.907,0,0,0,.91,24H18.183a.907.907,0,0,0,.91-.91V8.7a.886.886,0,0,0-.885-.91ZM9.559,1.8A1.042,1.042,0,0,1,10.6,2.833,1.063,1.063,0,0,1,9.559,3.895,1.042,1.042,0,0,1,8.523,2.858,1.063,1.063,0,0,1,9.559,1.8M8.194,5.336a2.817,2.817,0,0,0,1.366.354,3.126,3.126,0,0,0,1.366-.354L13.58,7.789H5.538Zm9.079,16.843H1.846V9.61H17.3V22.179Z" fill="#fff"/><path d="M120.007,287.268a.918.918,0,0,0,.658.278.876.876,0,0,0,.657-.278l4.249-4.552a.913.913,0,1,0-1.34-1.239l-3.566,3.844-1.77-1.9a.913.913,0,1,0-1.34,1.239Z" transform="translate(-112.015 -268.478)" fill="#fff"/></g></g></g></svg>