<svg xmlns="http://www.w3.org/2000/svg" xmlns:xlink="http://www.w3.org/1999/xlink" width="36" height="36" viewBox="0 0 36 36">
  <defs>
    <clipPath id="clip-path">
      <rect id="Rectangle_1056" data-name="Rectangle 1056" width="24.03" height="19.484" fill="#fff"/>
    </clipPath>
  </defs>
  <g id="Group_1020" data-name="Group 1020" transform="translate(-678 -2795)">
    <rect id="Rectangle_127" data-name="Rectangle 127" width="36" height="36" rx="5" transform="translate(678 2795)" fill="#71005d"/>
    <g id="Group_1055" data-name="Group 1055" transform="translate(683.985 2803.258)">
      <g id="Group_1054" data-name="Group 1054" clip-path="url(#clip-path)">
        <path id="Path_6052" data-name="Path 6052" d="M23.381,19.484H.649A.651.651,0,0,1,0,18.834V15.262a.651.651,0,0,1,.649-.649H23.381a.651.651,0,0,1,.649.649v3.572a.651.651,0,0,1-.649.649M1.3,18.185H22.731V15.912H1.3Zm22.082-5.2H17.535a.649.649,0,1,1,0-1.3h5.845a.649.649,0,1,1,0,1.3m-8.768,0H.974a.651.651,0,0,1-.649-.649V6.495a.651.651,0,0,1,.649-.649H14.613a.651.651,0,0,1,.649.649V12.34A.651.651,0,0,1,14.613,12.989ZM1.624,11.69h12.34V7.144H1.624Zm10.716-.65a.64.64,0,0,1-.455-.195l-.357-.357-.357.357a.643.643,0,0,1-.909-.909l.357-.357-.357-.357a.643.643,0,1,1,.909-.909l.357.357.357-.357a.643.643,0,0,1,.909.909l-.357.357.357.357a.628.628,0,0,1,0,.909A.641.641,0,0,1,12.34,11.041Zm11.041-.974H17.535a.649.649,0,0,1,0-1.3h5.845a.649.649,0,0,1,0,1.3M8.443,9.417h-5.2a.649.649,0,0,1,0-1.3h5.2a.649.649,0,1,1,0,1.3M23.381,7.144H17.535a.649.649,0,0,1,0-1.3h5.845a.649.649,0,0,1,0,1.3m0-2.922H.974a.649.649,0,0,1,0-1.3H23.381a.649.649,0,0,1,0,1.3m0-2.923H17.535a.649.649,0,0,1,0-1.3h5.845a.649.649,0,0,1,0,1.3m-8.768,0H.974a.649.649,0,0,1,0-1.3H14.613a.649.649,0,1,1,0,1.3" fill="#fff"/>
      </g>
    </g>
  </g>
</svg>
