<svg xmlns="http://www.w3.org/2000/svg" xmlns:xlink="http://www.w3.org/1999/xlink" width="36" height="36" viewBox="0 0 36 36">
  <defs>
    <clipPath id="clip-path">
      <rect id="Rectangle_1089" data-name="Rectangle 1089" width="26.371" height="14.679" fill="#fff"/>
    </clipPath>
  </defs>
  <g id="Group_1147" data-name="Group 1147" transform="translate(-408 -3795)">
    <rect id="Rectangle_703" data-name="Rectangle 703" width="36" height="36" rx="5" transform="translate(408 3795)" fill="#71005d"/>
    <g id="Group_1119" data-name="Group 1119" transform="translate(412.814 3805.66)">
      <g id="Group_1118" data-name="Group 1118" clip-path="url(#clip-path)">
        <path id="Path_6138" data-name="Path 6138" d="M49.508,25.883l-.752.752,1.27,1.271.752-.752h0a2.528,2.528,0,0,0,.256.1v1.064h1.8V27.259a2.559,2.559,0,0,0,.256-.1l.752.752,1.271-1.271-.752-.752h0a2.463,2.463,0,0,0,.106-.256h1.064v-1.8H54.465a2.529,2.529,0,0,0-.105-.256l.752-.752-1.271-1.27-.752.752h0a2.532,2.532,0,0,0-.256-.105V21.134h-1.8V22.2a2.508,2.508,0,0,0-.256.105l-.752-.752-1.27,1.27.752.752h0a2.527,2.527,0,0,0-.105.256H48.34v1.8H49.4A2.578,2.578,0,0,0,49.508,25.883Zm1.528-1.155a.9.9,0,1,1,.9.9.9.9,0,0,1-.9-.9" transform="translate(-38.751 -16.942)" fill="#fff"/>
        <path id="Path_6139" data-name="Path 6139" d="M4.2,14.679a4.2,4.2,0,0,1-.839-8.308l.238-.049V5.99a3.3,3.3,0,0,1,4.242-3.16l.212.063.121-.186a5.993,5.993,0,0,1,10.024,0l.122.185.212-.064a3.3,3.3,0,0,1,4.242,3.16v.333l.238.049a4.2,4.2,0,0,1-.834,8.308Zm.009-7.189a2.994,2.994,0,0,0-.011,5.987H22.169a2.994,2.994,0,1,0,0-5.987h-.031a.681.681,0,0,1-.113.01.614.614,0,0,1-.476-.225.6.6,0,0,1-.1-.6,1.923,1.923,0,0,0,.12-.691,2.095,2.095,0,0,0-2.095-2.091,2,2,0,0,0-1.083.307.6.6,0,0,1-.872-.248,4.791,4.791,0,0,0-8.672,0,.6.6,0,0,1-.87.25,2,2,0,0,0-1.068-.309,2.1,2.1,0,0,0-1.5.614A2.08,2.08,0,0,0,4.8,5.99a1.893,1.893,0,0,0,.119.688.607.607,0,0,1-.091.6.6.6,0,0,1-.467.223.608.608,0,0,1-.1-.008l-.031,0Z" fill="#fff"/>
      </g>
    </g>
  </g>
</svg>
