<svg xmlns="http://www.w3.org/2000/svg" xmlns:xlink="http://www.w3.org/1999/xlink" width="36" height="36" viewBox="0 0 36 36">
  <defs>
    <clipPath id="clip-path">
      <rect id="Rectangle_1039" data-name="Rectangle 1039" width="24" height="24" fill="none"/>
    </clipPath>
  </defs>
  <g id="Group_875" data-name="Group 875" transform="translate(-400 -3146)">
    <rect id="Rectangle_15" data-name="Rectangle 15" width="36" height="36" rx="5" transform="translate(400 3146)" fill="#71005d"/>
    <g id="Group_1006" data-name="Group 1006" transform="translate(406 3153)">
      <g id="Group_1005" data-name="Group 1005" transform="translate(0 0)" clip-path="url(#clip-path)">
        <path id="Path_5975" data-name="Path 5975" d="M12,24a2.407,2.407,0,0,1-1.927-.968L8.641,21.1A.8.8,0,0,0,8,20.775H4.006A4,4,0,0,1,0,16.786V4.035A4,4,0,0,1,4.006,0H20A4,4,0,0,1,24,4v12.75a4,4,0,0,1-4,4H16a.8.8,0,0,0-.645.322l-1.432,1.927A2.408,2.408,0,0,1,12,24ZM4.006,1.6A2.4,2.4,0,0,0,1.606,4v12.75a2.4,2.4,0,0,0,2.4,2.4H8a2.409,2.409,0,0,1,1.927.968l1.432,1.935a.833.833,0,0,0,1.283,0l1.432-1.927h0A2.414,2.414,0,0,1,16,19.156h3.99a2.4,2.4,0,0,0,2.4-2.4V4.005h0a2.4,2.4,0,0,0-2.4-2.4Z" transform="translate(0 0)" fill="#fff"/>
        <rect id="Rectangle_1037" data-name="Rectangle 1037" width="7.192" height="1.597" transform="translate(12 6.39)" fill="#fff"/>
        <rect id="Rectangle_1038" data-name="Rectangle 1038" width="7.192" height="1.597" transform="translate(12 12.787)" fill="#fff"/>
        <path id="Path_5976" data-name="Path 5976" d="M15.14,32.539h-1.6a1.6,1.6,0,0,1-1.6-1.6V29.306a1.6,1.6,0,0,1,1.6-1.6h1.6a1.6,1.6,0,0,1,1.6,1.6v1.6a1.6,1.6,0,0,1-1.6,1.635Zm-1.6-1.635h1.6v-1.6h-1.6Z" transform="translate(-7.137 -16.557)" fill="#fff"/>
        <path id="Path_5977" data-name="Path 5977" d="M13.662,16.262a.8.8,0,0,1-.555-.225l-1.665-1.6,1.11-1.147,1.1,1.05,1.83-1.837,1.11,1.125-2.385,2.4A.8.8,0,0,1,13.662,16.262Z" transform="translate(-6.837 -7.471)" fill="#fff"/>
      </g>
    </g>
  </g>
</svg>
