<svg xmlns="http://www.w3.org/2000/svg" xmlns:xlink="http://www.w3.org/1999/xlink" width="36" height="36" viewBox="0 0 36 36">
  <defs>
    <clipPath id="clip-path">
      <rect id="Rectangle_1071" data-name="Rectangle 1071" width="23" height="23" fill="none"/>
    </clipPath>
  </defs>
  <g id="Group_879" data-name="Group 879" transform="translate(-400 -3282)">
    <rect id="Rectangle_132" data-name="Rectangle 132" width="36" height="36" rx="5" transform="translate(400 3282)" fill="#71005d"/>
    <g id="Group_1080" data-name="Group 1080" transform="translate(406.289 3288.289)">
      <g id="Group_1079" data-name="Group 1079" transform="translate(0 0)" clip-path="url(#clip-path)">
        <path id="Path_6087" data-name="Path 6087" d="M8.945,2.811a6.133,6.133,0,1,0,6.133,6.133A6.151,6.151,0,0,0,8.945,2.811m4.6,7.36h-1a2.713,2.713,0,0,1-.179.485l.69.69a.494.494,0,0,1,0,.715l-1,1a.494.494,0,0,1-.716,0l-.613-.613a3.794,3.794,0,0,1-.562.256v.843a.513.513,0,0,1-.511.511H8.255a.512.512,0,0,1-.511-.511V12.7a3.764,3.764,0,0,1-.563-.256l-.613.613a.494.494,0,0,1-.716,0l-1-1a.494.494,0,0,1,0-.715l.69-.69a2.713,2.713,0,0,1-.179-.485H4.345a.513.513,0,0,1-.511-.511V8.255a.512.512,0,0,1,.511-.511h1.15c.051-.1.1-.23.153-.332L4.8,6.568a.494.494,0,0,1,0-.716l1-1a.494.494,0,0,1,.716,0l.92.92c.077-.026.179-.077.256-.1V4.345A.512.512,0,0,1,8.2,3.834H9.609a.513.513,0,0,1,.511.511v1.3a1.067,1.067,0,0,1,.256.1l.92-.92a.494.494,0,0,1,.716,0l1,1a.494.494,0,0,1,0,.716l-.843.843c.051.1.1.23.153.332h1.227a.513.513,0,0,1,.511.511V9.635A.519.519,0,0,1,13.545,10.171Zm8.945,9.864L18.3,15.845a1.713,1.713,0,0,0-2.044-.307l-.639-.639a8.953,8.953,0,1,0-.716.716l.639.639a1.714,1.714,0,0,0,.306,2.044l4.191,4.191A1.765,1.765,0,0,0,21.262,23a1.721,1.721,0,0,0,1.227-.511A1.765,1.765,0,0,0,23,21.263,1.721,1.721,0,0,0,22.489,20.036ZM8.945,16.1A7.156,7.156,0,1,1,16.1,8.945,7.177,7.177,0,0,1,8.945,16.1m2.581-7.718a2.166,2.166,0,0,0-.383-.767.507.507,0,0,1,.051-.664l.767-.767L11.679,5.9l-.818.818a.463.463,0,0,1-.588.1,2.345,2.345,0,0,0-.741-.281.523.523,0,0,1-.409-.511V4.856H8.74V6.031a.538.538,0,0,1-.409.511,2.605,2.605,0,0,0-.741.281A.475.475,0,0,1,7,6.722L6.185,5.9,5.9,6.185l.767.767a.507.507,0,0,1,.051.664,2.4,2.4,0,0,0-.384.767.522.522,0,0,1-.485.358H4.83v.384h.895a.52.52,0,0,1,.511.434,2.791,2.791,0,0,0,.306.92.538.538,0,0,1-.077.613l-.588.588.281.281.537-.537a.507.507,0,0,1,.664-.051,2.579,2.579,0,0,0,.971.434.522.522,0,0,1,.409.511v.716h.384v-.716a.538.538,0,0,1,.409-.511,2.768,2.768,0,0,0,.971-.434.507.507,0,0,1,.664.051l.537.537.281-.281-.588-.588a.5.5,0,0,1-.077-.613,2.783,2.783,0,0,0,.306-.92.5.5,0,0,1,.511-.434h.895V8.74H12.012A.514.514,0,0,1,11.526,8.382ZM8.945,10.989A1.789,1.789,0,1,1,10.733,9.2a1.778,1.778,0,0,1-1.789,1.789M9.711,9.2a.767.767,0,1,1-1.533,0,.767.767,0,1,1,1.533,0" transform="translate(0 0)" fill="#fff"/>
      </g>
    </g>
  </g>
</svg>
