<svg xmlns="http://www.w3.org/2000/svg" xmlns:xlink="http://www.w3.org/1999/xlink" width="36" height="36" viewBox="0 0 36 36">
  <defs>
    <clipPath id="clip-path">
      <rect id="Rectangle_1061" data-name="Rectangle 1061" width="22" height="22.001" fill="#fff"/>
    </clipPath>
  </defs>
  <g id="Group_879" data-name="Group 879" transform="translate(-400 -3282)">
    <rect id="Rectangle_132" data-name="Rectangle 132" width="36" height="36" rx="5" transform="translate(400 3282)" fill="#71005d"/>
    <g id="Group_1065" data-name="Group 1065" transform="translate(407 3289)">
      <g id="Group_1064" data-name="Group 1064" clip-path="url(#clip-path)">
        <path id="Path_6073" data-name="Path 6073" d="M57.952,90.252h0a1.436,1.436,0,1,1-1.436,1.436,1.436,1.436,0,0,1,1.436-1.436" transform="translate(-46.952 -74.978)" fill="#fff"/>
        <path id="Path_6074" data-name="Path 6074" d="M57.952,30.371h0a1.436,1.436,0,0,1,1.436,1.436v5.744a1.436,1.436,0,0,1-2.872,0V31.807a1.436,1.436,0,0,1,1.436-1.436" transform="translate(-46.952 -25.231)" fill="#fff"/>
        <path id="Path_6075" data-name="Path 6075" d="M3.311,22a3.314,3.314,0,0,1-2.959-4.8L8.042,1.829a3.308,3.308,0,0,1,5.917,0L21.28,16.471l.367.735A3.314,3.314,0,0,1,18.688,22ZM11,1.286A2.028,2.028,0,0,0,9.188,2.4L1.5,17.782a2.027,2.027,0,0,0,1.812,2.933H18.689A2.028,2.028,0,0,0,20.5,17.78L12.813,2.4A2.028,2.028,0,0,0,11,1.286" transform="translate(0)" fill="#fff"/>
      </g>
    </g>
  </g>
</svg>
