<svg xmlns="http://www.w3.org/2000/svg" xmlns:xlink="http://www.w3.org/1999/xlink" width="36" height="36" viewBox="0 0 36 36">
  <defs>
    <clipPath id="clip-path">
      <rect id="Rectangle_1043" data-name="Rectangle 1043" width="24" height="25.396" fill="#fff"/>
    </clipPath>
  </defs>
  <g id="Group_879" data-name="Group 879" transform="translate(-400 -3282)">
    <rect id="Rectangle_132" data-name="Rectangle 132" width="36" height="36" rx="5" transform="translate(400 3282)" fill="#71005d"/>
    <g id="Group_1014" data-name="Group 1014" transform="translate(406 3287.302)">
      <g id="Group_1013" data-name="Group 1013" transform="translate(0 0)" clip-path="url(#clip-path)">
        <path id="Path_6000" data-name="Path 6000" d="M26.028,21.347a5.777,5.777,0,0,0,.2-1.56,6.509,6.509,0,0,0-13.019,0,5.678,5.678,0,0,0,.2,1.534,5.977,5.977,0,0,0,.9,2.035c.054.109.12.218.19.334.038.063.077.127.124.21s.1.159.141.237c.081.141.16.277.233.376l.032.053a3.609,3.609,0,0,1,.767,2.176v2.524a1.67,1.67,0,0,0,1.14,1.6,2.772,2.772,0,0,0,2.792,2.306,2.739,2.739,0,0,0,2.8-2.308,1.694,1.694,0,0,0,1.134-1.6V26.74a3.676,3.676,0,0,1,.805-2.238c.1-.18.231-.386.376-.618.039-.068.078-.133.116-.2.07-.116.136-.226.195-.34a5.947,5.947,0,0,0,.883-2m-3.953,8.12a.236.236,0,0,1-.125.039H17.493a.212.212,0,0,1-.215-.215v-.832h4.887v.832a.148.148,0,0,1,0,.03.2.2,0,0,1-.088.146m-1.038,1.286a1.444,1.444,0,0,1-.485.72,1.515,1.515,0,0,1-.831.235,1.268,1.268,0,0,1-1.224-.785,2.27,2.27,0,0,1-.119-.342h2.712a1.312,1.312,0,0,0-.053.173m1.127-3.985v.617H17.3v-.617a1.435,1.435,0,0,0-.027-.349h4.913c0,.107-.027.215-.027.349M17.381,24.9a7.512,7.512,0,0,0-.736-1.375c-.044-.077-.091-.153-.14-.231-.068-.108-.138-.219-.209-.36-.109-.191-.218-.382-.3-.513a4.715,4.715,0,0,1-.682-1.536,4.274,4.274,0,0,1-.147-1.1,4.606,4.606,0,0,1,9.213-.027,10.253,10.253,0,0,1-.2,1.17,4.583,4.583,0,0,1-.665,1.472c-.081.121-.148.242-.221.373l-.082.148c-.066.106-.126.211-.183.311s-.107.191-.17.286l-.032.053a9.544,9.544,0,0,0-.707,1.33Z" transform="translate(-7.735 -7.773)" fill="#fff"/>
        <path id="Path_6001" data-name="Path 6001" d="M51.78,26.962a.944.944,0,0,0-.672-.279H48.879a.952.952,0,0,0,0,1.9h2.229a.951.951,0,0,0,.672-1.624" transform="translate(-28.059 -15.622)" fill="#fff"/>
        <path id="Path_6002" data-name="Path 6002" d="M42.6,11.324a.943.943,0,0,0,.669-.283l1.584-1.584A.946.946,0,1,0,43.512,8.12L41.927,9.7a.951.951,0,0,0,.669,1.62" transform="translate(-24.381 -4.588)" fill="#fff"/>
        <path id="Path_6003" data-name="Path 6003" d="M27.571,4.131a.952.952,0,0,0,.951-.951V.951a.951.951,0,0,0-1.9,0V3.18a.952.952,0,0,0,.951.951" transform="translate(-15.585 0)" fill="#fff"/>
        <path id="Path_6004" data-name="Path 6004" d="M9.641,11.041A.946.946,0,1,0,10.979,9.7L9.394,8.119A.946.946,0,0,0,8.057,9.457Z" transform="translate(-4.552 -4.588)" fill="#fff"/>
        <path id="Path_6005" data-name="Path 6005" d="M4.131,27.635a.952.952,0,0,0-.951-.951H.951a.951.951,0,0,0,0,1.9H3.18a.952.952,0,0,0,.951-.951" transform="translate(0 -15.622)" fill="#fff"/>
        <path id="Path_6006" data-name="Path 6006" d="M10.3,41.709a.882.882,0,0,0-.659.283L8.057,43.576a.946.946,0,1,0,1.338,1.338l1.584-1.584a.936.936,0,0,0,0-1.338.968.968,0,0,0-.679-.283" transform="translate(-4.552 -24.419)" fill="#fff"/>
        <path id="Path_6007" data-name="Path 6007" d="M43.267,41.992a.946.946,0,1,0-1.338,1.338l1.584,1.584a.946.946,0,1,0,1.338-1.338Z" transform="translate(-24.382 -24.419)" fill="#fff"/>
      </g>
    </g>
  </g>
</svg>
