<svg xmlns="http://www.w3.org/2000/svg" xmlns:xlink="http://www.w3.org/1999/xlink" width="36" height="36" viewBox="0 0 36 36">
  <defs>
    <clipPath id="clip-path">
      <rect id="Rectangle_1045" data-name="Rectangle 1045" width="22" height="24.044" fill="#fff"/>
    </clipPath>
  </defs>
  <g id="Group_880" data-name="Group 880" transform="translate(-678 -3282)">
    <rect id="Rectangle_131" data-name="Rectangle 131" width="36" height="36" rx="5" transform="translate(678 3282)" fill="#71005d"/>
    <g id="Group_1033" data-name="Group 1033" transform="translate(685 3287.977)">
      <g id="Group_1032" data-name="Group 1032" transform="translate(0 0)" clip-path="url(#clip-path)">
        <path id="Path_6009" data-name="Path 6009" d="M17.183,0H4.817a.687.687,0,0,0-.687.687V1.712A3.3,3.3,0,0,0,2.306,1.18a1.987,1.987,0,0,0-1.467.8c-.927,1.2-1.3,5.369,0,8.232a5.023,5.023,0,0,0,4.011,3.138,6.879,6.879,0,0,0,5.46,3.785v2.783H6.878a2.751,2.751,0,0,0-2.748,2.748v.687a.687.687,0,0,0,.687.687H17.183a.687.687,0,0,0,.687-.687v-.687a2.751,2.751,0,0,0-2.748-2.748H11.687V17.14a6.877,6.877,0,0,0,5.46-3.785,5.024,5.024,0,0,0,4.011-3.138c1.3-2.863.931-7.029,0-8.232a1.986,1.986,0,0,0-1.467-.8,3.313,3.313,0,0,0-1.824.533V.687A.687.687,0,0,0,17.183,0ZM16.5,22.67H5.5A1.375,1.375,0,0,1,6.878,21.3h8.244A1.375,1.375,0,0,1,16.5,22.67M2.093,9.649c-1.2-2.643-.626-6.229-.166-6.824a.608.608,0,0,1,.47-.274,3.068,3.068,0,0,1,1.733.844V10.3A6.852,6.852,0,0,0,4.3,11.822,3.8,3.8,0,0,1,2.093,9.649ZM11,15.8a5.5,5.5,0,0,1-5.5-5.5V1.374H16.5V10.3A5.5,5.5,0,0,1,11,15.8M19.6,2.551a.608.608,0,0,1,.471.273c.46.6,1.032,4.182-.167,6.825A3.8,3.8,0,0,1,17.7,11.822,6.859,6.859,0,0,0,17.87,10.3V3.4A3.1,3.1,0,0,1,19.6,2.551Z" transform="translate(0 0)" fill="#fff"/>
      </g>
    </g>
  </g>
</svg>
