<svg xmlns="http://www.w3.org/2000/svg" width="36" height="36" viewBox="0 0 36 36">
  <g id="Group_1030" data-name="Group 1030" transform="translate(-1008 -1213)">
    <rect id="Rectangle_163" data-name="Rectangle 163" width="36" height="36" rx="5" transform="translate(1008 1213)" fill="#71005d"/>
    <g id="Group_30878" data-name="Group 30878" transform="translate(1014.497 1219.498)">
      <path id="Path_1884" data-name="Path 1884" d="M11.509,23a11.5,11.5,0,1,1,11.3-9.381A11.51,11.51,0,0,1,11.509,23ZM11.5,1.968a9.534,9.534,0,1,0,9.374,11.293l.967.181-.967-.181A9.539,9.539,0,0,0,11.5,1.968Z" transform="translate(0 0)" fill="#fff"/>
      <path id="Path_1885" data-name="Path 1885" d="M39.561,42.674a3.122,3.122,0,1,0-3.122-3.122A3.122,3.122,0,0,0,39.561,42.674Z" transform="translate(-28.057 -28.05)" fill="#fff"/>
    </g>
  </g>
</svg>
