<svg xmlns="http://www.w3.org/2000/svg" xmlns:xlink="http://www.w3.org/1999/xlink" width="36" height="36" viewBox="0 0 36 36">
  <defs>
    <clipPath id="clip-path">
      <rect id="Rectangle_1060" data-name="Rectangle 1060" width="24.27" height="24.27" fill="#fff"/>
    </clipPath>
  </defs>
  <g id="Group_877" data-name="Group 877" transform="translate(-678 -3214)">
    <rect id="Rectangle_127" data-name="Rectangle 127" width="36" height="36" rx="5" transform="translate(678 3214)" fill="#71005d"/>
    <g id="Group_1063" data-name="Group 1063" transform="translate(683.865 3219.865)">
      <g id="Group_1062" data-name="Group 1062" clip-path="url(#clip-path)">
        <path id="Path_6066" data-name="Path 6066" d="M40.854,70.371h8.253a.534.534,0,0,0,.558-.558.528.528,0,0,0-.52-.558H40.854a.558.558,0,1,0,0,1.116" transform="translate(-32.865 -56.483)" fill="#fff"/>
        <path id="Path_6067" data-name="Path 6067" d="M63.332,44.653H67.44A.539.539,0,0,0,68,44.1a.528.528,0,0,0-.52-.558H63.332a.558.558,0,1,0,0,1.116" transform="translate(-51.197 -35.508)" fill="#fff"/>
        <path id="Path_6068" data-name="Path 6068" d="M40.854,83.128h8.253a.534.534,0,0,0,.558-.558.528.528,0,0,0-.52-.558H40.854a.558.558,0,1,0,0,1.116" transform="translate(-32.865 -66.887)" fill="#fff"/>
        <path id="Path_6069" data-name="Path 6069" d="M40.854,57.41h8.253a.534.534,0,0,0,.558-.558.528.528,0,0,0-.52-.558H40.854a.558.558,0,1,0,0,1.116" transform="translate(-32.865 -45.912)" fill="#fff"/>
        <path id="Path_6070" data-name="Path 6070" d="M40.854,96.089h8.253a.534.534,0,0,0,.558-.558.528.528,0,0,0-.52-.558H40.854a.558.558,0,1,0,0,1.116" transform="translate(-32.865 -77.458)" fill="#fff"/>
        <path id="Path_6071" data-name="Path 6071" d="M63.332,31.694H67.44A.534.534,0,0,0,68,31.136a.528.528,0,0,0-.52-.558H63.332a.558.558,0,1,0,0,1.116" transform="translate(-51.197 -24.939)" fill="#fff"/>
        <path id="Path_6072" data-name="Path 6072" d="M24.27,13.927V10.3a.534.534,0,0,0-.558-.558H19.94a.534.534,0,0,0-.558.558v1.272h-.752V5.114a1.269,1.269,0,0,0-1.267-1.267H10.342a.525.525,0,0,0-.392.166L7.429,6.534,4.888,3.992V.558A.534.534,0,0,0,4.33,0H.558A.534.534,0,0,0,0,.558V4.18a.534.534,0,0,0,.558.558H4.1L6.646,7.28,5.8,8.121a.525.525,0,0,0-.166.392v9.447L4.1,19.494H.558A.534.534,0,0,0,0,20.052v3.66a.534.534,0,0,0,.558.558H4.33a.534.534,0,0,0,.558-.558v-3.4l.8-.8a1.27,1.27,0,0,0,1.216.91H17.363a1.269,1.269,0,0,0,1.267-1.267V12.693h.752v1.235a.534.534,0,0,0,.558.558h1.309v5.046H19.94a.534.534,0,0,0-.558.558v3.622a.534.534,0,0,0,.558.558h3.772a.534.534,0,0,0,.558-.558V20.089a.534.534,0,0,0-.558-.558H22.4V14.485h1.31a.534.534,0,0,0,.558-.558M23.154,10.9v2.506H20.5V10.9ZM20.5,23.154V20.648h2.656v2.507ZM6.755,9.071H9.633A1.269,1.269,0,0,0,10.9,7.8V4.963h6.463a.15.15,0,0,1,.152.152V19.156a.15.15,0,0,1-.152.152H6.907a.15.15,0,0,1-.152-.152ZM9.785,7.8a.15.15,0,0,1-.152.152H7.576L9.785,5.746ZM1.116,3.623V1.116H3.772V3.623ZM3.772,23.154H1.116V20.648H3.772Z" fill="#fff"/>
      </g>
    </g>
  </g>
</svg>
