<svg xmlns="http://www.w3.org/2000/svg" xmlns:xlink="http://www.w3.org/1999/xlink" width="36" height="36" viewBox="0 0 36 36">
  <defs>
    <clipPath id="clip-path">
      <rect id="Rectangle_1092" data-name="Rectangle 1092" width="24.03" height="24.85" fill="#fff"/>
    </clipPath>
  </defs>
  <g id="Group_1152" data-name="Group 1152" transform="translate(-984 -3897)">
    <rect id="Rectangle_705" data-name="Rectangle 705" width="36" height="36" rx="5" transform="translate(984 3897)" fill="#71005d"/>
    <g id="Group_1125" data-name="Group 1125" transform="translate(990 3903)">
      <g id="Group_1124" data-name="Group 1124" clip-path="url(#clip-path)">
        <path id="Path_6142" data-name="Path 6142" d="M18.974,24.85a5.055,5.055,0,0,1-5.054-4.958l-.01-.5L8,17.752l-.27.386a4.243,4.243,0,0,1-3.468,1.808H4.239a4.238,4.238,0,1,1,1.694-8.123l.435.19,3.854-4.207L9.9,7.367A4.647,4.647,0,0,1,10.877.934a4.642,4.642,0,0,1,3.4-.894A4.647,4.647,0,0,1,16.61,8.246l-.355.29,2.061,6.2h.66a5.055,5.055,0,0,1,.063,10.11Zm0-8.172a3.117,3.117,0,1,0,2.2.913,3.095,3.095,0,0,0-2.2-.913M4.265,13.408a2.3,2.3,0,1,0,0,4.6,2.314,2.314,0,0,0,1.626-.674,2.3,2.3,0,0,0,0-3.253,2.315,2.315,0,0,0-1.626-.674m3.544-.09.219.416A4.17,4.17,0,0,1,8.5,15.413l.032.471,5.911,1.639.264-.418a5.067,5.067,0,0,1,1.377-1.446l.407-.286-2.04-6.052h-.792a4.6,4.6,0,0,1-1.426-.232l-.407-.134ZM13.663,1.967a2.708,2.708,0,0,0-2.708,2.709,2.691,2.691,0,0,0,.794,1.915,2.709,2.709,0,0,0,3.83,0,2.693,2.693,0,0,0,.793-1.915,2.707,2.707,0,0,0-2.709-2.709" transform="translate(0)" fill="#fff"/>
      </g>
    </g>
  </g>
</svg>
