<svg xmlns="http://www.w3.org/2000/svg" xmlns:xlink="http://www.w3.org/1999/xlink" width="36" height="36" viewBox="0 0 36 36">
  <defs>
    <clipPath id="clip-path">
      <rect id="Rectangle_1086" data-name="Rectangle 1086" width="22.936" height="22.909" fill="#fff"/>
    </clipPath>
  </defs>
  <g id="Group_1143" data-name="Group 1143" transform="translate(-408 -3999)">
    <rect id="Rectangle_711" data-name="Rectangle 711" width="36" height="36" rx="5" transform="translate(408 3999)" fill="#71005d"/>
    <g id="Group_1113" data-name="Group 1113" transform="translate(415 4006)">
      <g id="Group_1112" data-name="Group 1112" clip-path="url(#clip-path)">
        <path id="Path_6134" data-name="Path 6134" d="M18.754,8.323a4.161,4.161,0,1,0-4.161-4.161,4.093,4.093,0,0,0,.184,1.157L7.373,8.8a4.161,4.161,0,1,0,0,5.293l7.4,3.479a4.093,4.093,0,0,0-.184,1.157,4.172,4.172,0,1,0,1.242-2.96L8.272,12.213a3.834,3.834,0,0,0,0-1.539L15.834,7.12a4.141,4.141,0,0,0,2.919,1.2Zm0-6.242a2.081,2.081,0,1,1-1.471.609,2.081,2.081,0,0,1,1.471-.609M4.189,13.525a2.081,2.081,0,1,1,1.471-.609,2.081,2.081,0,0,1-1.471.609m14.565,3.121h0a2.081,2.081,0,1,1-1.471.609,2.08,2.08,0,0,1,1.471-.609Z" fill="#fff"/>
      </g>
    </g>
  </g>
</svg>
