<svg xmlns="http://www.w3.org/2000/svg" xmlns:xlink="http://www.w3.org/1999/xlink" width="36" height="36" viewBox="0 0 36 36">
  <defs>
    <clipPath id="clip-path">
      <rect id="Rectangle_146" data-name="Rectangle 146" width="22.06" height="23.988" fill="#fff"/>
    </clipPath>
  </defs>
  <g id="Group_1018" data-name="Group 1018" transform="translate(-400 -2795)">
    <rect id="Rectangle_128" data-name="Rectangle 128" width="36" height="36" rx="5" transform="translate(400 2795)" fill="#71005d"/>
    <g id="Group_79" data-name="Group 79" transform="translate(406.97 2801.006)">
      <g id="Group_78" data-name="Group 78" clip-path="url(#clip-path)">
        <path id="Path_1682" data-name="Path 1682" d="M20.047,134.823H12.589V131.1a.5.5,0,0,0-.186-.389,2.629,2.629,0,0,0-3.281,0,.5.5,0,0,0-.186.389v3.727H2.013A2.015,2.015,0,0,0,0,136.835v3.208a.5.5,0,0,0,.5.5l.63.006v5.315a2.22,2.22,0,0,0,2.218,2.218H18.716a2.22,2.22,0,0,0,2.218-2.218v-5.2h.626a.5.5,0,0,0,.5-.5v-3.325a2.015,2.015,0,0,0-2.013-2.013M9.935,131.356a1.629,1.629,0,0,1,1.654,0v3.467H9.935Zm10,14.508a1.22,1.22,0,0,1-1.218,1.218H3.343a1.22,1.22,0,0,1-1.218-1.218v-5.305l.411,0a3.394,3.394,0,0,0,3.563-.186l.107-.074a2.4,2.4,0,0,1,2.724,0,3.4,3.4,0,0,0,3.863,0,2.4,2.4,0,0,1,2.723,0l.169.117a3.366,3.366,0,0,0,3.459.241h.79Zm1.126-6.2H19.02a.5.5,0,0,0-.243.063,2.373,2.373,0,0,1-2.522-.125l-.169-.117a3.4,3.4,0,0,0-3.863,0,2.4,2.4,0,0,1-2.724,0,3.4,3.4,0,0,0-3.863,0l-.107.074a2.392,2.392,0,0,1-2.6.081.5.5,0,0,0-.254-.072L1,139.549v-2.713a1.014,1.014,0,0,1,1.013-1.013H20.047a1.014,1.014,0,0,1,1.013,1.013Z" transform="translate(0 -124.094)" fill="#fff"/>
        <path id="Path_1683" data-name="Path 1683" d="M199.167,5.449a1.6,1.6,0,0,0,.183-.01,1.388,1.388,0,0,0,.286-.007,1.322,1.322,0,0,0,.725-.317c.815-.72.631-2.3-.563-4.828a.5.5,0,0,0-.893-.022c-1.225,2.293-1.529,3.806-.928,4.625a1.449,1.449,0,0,0,1.19.559m.15-3.773c.768,1.909.53,2.5.424,2.642a.338.338,0,0,1-.287.124.483.483,0,0,0-.2,0c-.033,0-.342.042-.476-.147-.1-.147-.332-.736.536-2.62" transform="translate(-188.505 0)" fill="#fff"/>
      </g>
    </g>
  </g>
</svg>
