<svg xmlns="http://www.w3.org/2000/svg" xmlns:xlink="http://www.w3.org/1999/xlink" width="36" height="36" viewBox="0 0 36 36">
  <defs>
    <clipPath id="clip-path">
      <rect id="Rectangle_1077" data-name="Rectangle 1077" width="24" height="25.861" fill="#fff"/>
    </clipPath>
  </defs>
  <g id="Group_1090" data-name="Group 1090" transform="translate(-678 -2727)">
    <g id="Group_1026" data-name="Group 1026">
      <rect id="Rectangle_124" data-name="Rectangle 124" width="36" height="36" rx="5" transform="translate(678 2727)" fill="#71005d"/>
      <g id="Group_1092" data-name="Group 1092" transform="translate(684.001 2732.07)">
        <g id="Group_1091" data-name="Group 1091" clip-path="url(#clip-path)">
          <path id="Path_6102" data-name="Path 6102" d="M20.95,17.848V3.871a.262.262,0,0,0-.012-.084.447.447,0,0,0-.024-.1.333.333,0,0,0-.048-.092.366.366,0,0,0-.053-.081L17.839.17,17.823.155A.618.618,0,0,0,17.744.1.353.353,0,0,0,17.67.05a.4.4,0,0,0-.092-.029l-.013,0A.421.421,0,0,0,17.5,0a.317.317,0,0,0-.052,0H3.156a.544.544,0,0,0-.543.543V16.216A5.158,5.158,0,0,0,5.16,25.861H19.928a4.072,4.072,0,0,0,1.022-8.013M17.988,1.97,19.2,3.328H17.988ZM3.7,1.086H16.9V3.871a.544.544,0,0,0,.543.543h2.419v13.3h-.5A6.465,6.465,0,1,0,6.617,15.539H5.16a5.092,5.092,0,0,0-1.461.215ZM19.928,24.774H5.16a4.074,4.074,0,1,1,0-8.149H7.1a.545.545,0,0,0,.541-.5A5.378,5.378,0,1,1,18.151,18.1a.543.543,0,0,0,.519.7h1.257a2.985,2.985,0,0,1,0,5.971" transform="translate(0.001)" fill="#fff"/>
          <path id="Path_6103" data-name="Path 6103" d="M23.507,18.983H34.136a.543.543,0,0,0,0-1.087H23.507a.543.543,0,1,0,0,1.086" transform="translate(-18.695 -14.569)" fill="#fff"/>
          <path id="Path_6104" data-name="Path 6104" d="M23.507,32.105H37.621a.543.543,0,0,0,0-1.086H23.507a.543.543,0,1,0,0,1.086" transform="translate(-18.695 -25.252)" fill="#fff"/>
          <path id="Path_6105" data-name="Path 6105" d="M36.525,45.067a.543.543,0,0,0-.385-.927H23.507a.543.543,0,1,0,0,1.086H36.141a.539.539,0,0,0,.384-.159" transform="translate(-18.695 -35.933)" fill="#fff"/>
        </g>
      </g>
    </g>
    <rect id="Rectangle_152" data-name="Rectangle 152" width="24" height="24" transform="translate(684 2733)" fill="none"/>
  </g>
</svg>
