<svg xmlns="http://www.w3.org/2000/svg" xmlns:xlink="http://www.w3.org/1999/xlink" width="36" height="36" viewBox="0 0 36 36">
  <defs>
    <clipPath id="clip-path">
      <rect id="Rectangle_1076" data-name="Rectangle 1076" width="27.114" height="24" fill="#fff"/>
    </clipPath>
  </defs>
  <g id="Group_1024" data-name="Group 1024" transform="translate(-400 -2727)">
    <rect id="Rectangle_15" data-name="Rectangle 15" width="36" height="36" rx="5" transform="translate(400 2727)" fill="#71005d"/>
    <g id="Group_1089" data-name="Group 1089" transform="translate(404.443 2733)">
      <g id="Group_1088" data-name="Group 1088" clip-path="url(#clip-path)">
        <path id="Path_6101" data-name="Path 6101" d="M25.935,15.433a5.984,5.984,0,0,0-.736-1.775l.565-1.107-1.476-1.478-1.107.565a5.919,5.919,0,0,0-.953-.474l1.841-5.811a.43.43,0,0,0-.063-.38.425.425,0,0,0-.342-.174H20.989V2.841a.423.423,0,0,0-.422-.422H9.007L7.3.17A.425.425,0,0,0,6.961,0H.425A.426.426,0,0,0,0,.426V16.863a.423.423,0,0,0,.422.422H12.832V17.9l1.179.382a6.144,6.144,0,0,0,.736,1.775l-.565,1.107,1.481,1.476,1.1-.562a6.114,6.114,0,0,0,1.775.736L18.925,24h2.089l.385-1.182a6.025,6.025,0,0,0,1.775-.736l1.107.565,1.476-1.478-.565-1.107a6.005,6.005,0,0,0,.736-1.775l1.185-.379V15.819ZM.848.849h5.9L8.459,3.1a.425.425,0,0,0,.337.168H20.138V4.8H4.6a.426.426,0,0,0-.405.3L.848,15.653Zm.639,15.589L4.906,5.65H23.081l-1.667,5.257a.01.01,0,0,1-.008,0s0,0-.006,0L21.015,9.72H18.928L18.546,10.9a6.045,6.045,0,0,0-1.775.736l-.831-.425-.274-.14-.99.988-.274.271-.217.217.565,1.107a6.078,6.078,0,0,0-.736,1.775l-.888.288-.291.094v.622H1.487Zm24.779.853-1.062.345-.049.246a5.166,5.166,0,0,1-.8,1.924l-.14.208.508,1-.605.605-1-.508-.206.14a5.168,5.168,0,0,1-1.924.8l-.243.049L20.4,23.157h-.856L19.2,22.092l-.243-.049a5.2,5.2,0,0,1-1.924-.8l-.209-.14-1,.508L15.217,21l.508-1-.14-.208a5.259,5.259,0,0,1-.8-1.927l-.049-.243-1.062-.345v-.856l.825-.268.237-.077.049-.243a5.254,5.254,0,0,1,.8-1.927l.14-.208-.114-.223-.391-.767.608-.608,1,.508.209-.14.057-.034a5.263,5.263,0,0,1,1.864-.762l.243-.049.077-.234v0l.271-.828H20.4l.271.828v0l.077.234.243.049s0,0,.006,0c.154.032.3.069.451.111l.083.023a5.157,5.157,0,0,1,1.384.662l.206.14,1-.508.607.6-.511,1,.14.209a5.144,5.144,0,0,1,.8,1.924l.049.246,1.062.345Zm-6.293-4.5a4.07,4.07,0,1,0,4.067,4.07,4.073,4.073,0,0,0-4.067-4.07m0,7.289a3.222,3.222,0,1,1,3.219-3.222,3.224,3.224,0,0,1-3.219,3.222" transform="translate(0 -0.001)" fill="#fff"/>
      </g>
    </g>
  </g>
</svg>
