<svg xmlns="http://www.w3.org/2000/svg" xmlns:xlink="http://www.w3.org/1999/xlink" width="36" height="36" viewBox="0 0 36 36">
  <defs>
    <clipPath id="clip-path">
      <rect id="Rectangle_1065" data-name="Rectangle 1065" width="24" height="22.639" transform="translate(0 0)" fill="#fffcfc"/>
    </clipPath>
  </defs>
  <g id="Group_875" data-name="Group 875" transform="translate(-400 -3146)">
    <rect id="Rectangle_15" data-name="Rectangle 15" width="36" height="36" rx="5" transform="translate(400 3146)" fill="#71005d"/>
    <g id="Group_1072" data-name="Group 1072" transform="translate(406 3152.681)">
      <g id="Group_1071" data-name="Group 1071" transform="translate(0 -0.001)" clip-path="url(#clip-path)">
        <path id="Path_6076" data-name="Path 6076" d="M277.508,3.815c-.237,0-.316-.158-.554-.158-1.423-.4-1.819.554-.791,1.028a3.585,3.585,0,0,1,1.5.87c1.423,1.581-.949,2.53-1.028,2.688-.316.474.4.87-.633.87-.4,0-.4-.316-.4-.87-.474-.237-.712-.079-1.344-.474a3.35,3.35,0,0,1,.316-.949c.554.158,1.265.712,1.977.237.316-.237.4-.712-.316-1.028-.633-.4-1.9-.712-1.9-1.819,0-1.028.633-1.186,1.423-1.66V1.839a2.632,2.632,0,0,1,.791,0c0,.158,0,.633.158.712.079.079.712.158.949.316.158.079.158.158.079.237a1.1,1.1,0,0,1-.237.712Zm-.079,6.879a5.323,5.323,0,0,1-4.586-1.028c-4.586-3.479-1.028-10.911,4.665-9.488a6.36,6.36,0,0,1,1.819.87,5.413,5.413,0,0,1-1.9,9.646Z" transform="translate(-258.015 0.001)" fill="#fffcfc" fill-rule="evenodd"/>
        <path id="Path_6077" data-name="Path 6077" d="M5.972,253.556c-.87,0-1.5-.316-1.66-1.186h.87c.712,0,.712.079.712-.554,0-.079-.079-.158-.237-.158h-1.5v-.4h1.5c.237,0,.237-.316.237-.633,0-.237-.4-.158-.712-.158H4.391c0-.237.316-.554.474-.712.791-.554,2.056,0,2.372,0a2.136,2.136,0,0,0,.4-.87l-.237-.237a3.363,3.363,0,0,0-3.242.4,2.791,2.791,0,0,0-.949,1.423c-.87,0-.87-.158-.87.554,0,.237.4.237.712.237v.316c-.791,0-.712,0-.712.633,0,.316.554.158.87.158a2.443,2.443,0,0,0,.87,1.581A3.186,3.186,0,0,0,7,254.425c.712-.158.712-.237.4-.791-.237-.712-.316-.079-1.423-.079ZM.6,249.128a5.524,5.524,0,0,1,4.665-3.163c7.2,0,7.591,9.488,1.739,10.911-4.586,1.107-8.539-3.637-6.4-7.749Z" transform="translate(0 -234.4)" fill="#fffcfc" fill-rule="evenodd"/>
        <path id="Path_6078" data-name="Path 6078" d="M273.247,290v-1.66h4.823v-3.084h-4.823v-1.74c0-.316-.158-.554-.474-.554-.237,0-5.456,3.084-5.93,3.4-.158.079-.237.158-.237.316v.237a.424.424,0,0,0,.237.316c1.66.949,3.4,1.9,5.061,2.926.237.079.633.4.87.4.316,0,.474-.237.474-.554Z" transform="translate(-254.07 -269.661)" fill="#fffcfc" fill-rule="evenodd"/>
        <path id="Path_6079" data-name="Path 6079" d="M11.554,41.245c-.791.4-5.14,3-5.377,3-.4,0-.554-.158-.554-.554v-1.66H.879c0-1.265.079-1.5,0-2.926H5.623V37.37c0-.554.474-.633.949-.316.158.079.237.079.4.158,1.423.87,3.084,1.819,4.507,2.688.949.474,1.107.791.079,1.344Z" transform="translate(-0.838 -35.135)" fill="#fffcfc" fill-rule="evenodd"/>
      </g>
    </g>
  </g>
</svg>
