<svg xmlns="http://www.w3.org/2000/svg" xmlns:xlink="http://www.w3.org/1999/xlink" width="36" height="36" viewBox="0 0 36 36">
  <defs>
    <clipPath id="clip-path">
      <rect id="Rectangle_1054" data-name="Rectangle 1054" width="24" height="24" fill="none"/>
    </clipPath>
  </defs>
  <g id="Group_1015" data-name="Group 1015" transform="translate(-400 -2727)">
    <rect id="Rectangle_15" data-name="Rectangle 15" width="36" height="36" rx="5" transform="translate(400 2727)" fill="#71005d"/>
    <g id="Group_1051" data-name="Group 1051" transform="translate(406 2733)">
      <g id="Group_1050" data-name="Group 1050" transform="translate(0 0)" clip-path="url(#clip-path)">
        <path id="Path_6042" data-name="Path 6042" d="M23.334,6.8H19.041L13.705,2.357A1.721,1.721,0,0,0,13.8,1.8a1.8,1.8,0,0,0-3.6,0,1.72,1.72,0,0,0,.093.558L4.959,6.8H.665A.666.666,0,0,0,0,7.466V23.335A.666.666,0,0,0,.665,24h22.67A.666.666,0,0,0,24,23.335V7.467a.667.667,0,0,0-.666-.666m-10.648-5A.687.687,0,1,1,12,1.112a.687.687,0,0,1,.687.687M12,3.6a1.76,1.76,0,0,0,.852-.219L16.963,6.8H7.037l4.111-3.422A1.761,1.761,0,0,0,12,3.6M1.33,8.132H22.669V22.67H1.33Z" transform="translate(0 0)" fill="#fff"/>
        <path id="Path_6043" data-name="Path 6043" d="M18.475,56.326h5.668a.666.666,0,0,0,.665-.665V51.127a.666.666,0,0,0-.665-.665H18.475a.666.666,0,0,0-.665.665V55.66a.662.662,0,0,0,.665.666m5-1.331H19.14v-3.2h4.337Z" transform="translate(-14.409 -40.827)" fill="#fff"/>
        <path id="Path_6044" data-name="Path 6044" d="M21.605,86.079H12.537a.666.666,0,0,0-.665.665v3.4a.666.666,0,0,0,.665.665h9.068a.666.666,0,0,0,.665-.665v-3.4a.666.666,0,0,0-.665-.665m-8.4,1.33H20.94v2.07H13.2Z" transform="translate(-9.605 -69.643)" fill="#fff"/>
        <path id="Path_6045" data-name="Path 6045" d="M78.235,53.824V48.156a.666.666,0,0,0-.665-.665H71.9a.666.666,0,0,0-.665.665v5.667a.662.662,0,0,0,.665.665H77.57a.666.666,0,0,0,.665-.665M76.9,53.159H72.567V48.822H76.9Z" transform="translate(-57.635 -38.423)" fill="#fff"/>
        <path id="Path_6046" data-name="Path 6046" d="M85.339,89.049H80.8a.666.666,0,0,0-.665.665v3.4a.666.666,0,0,0,.665.665h4.534A.666.666,0,0,0,86,93.115v-3.4a.666.666,0,0,0-.665-.665m-3.869,1.33h3.2v2.07h-3.2Z" transform="translate(-64.838 -72.046)" fill="#fff"/>
      </g>
    </g>
  </g>
</svg>
