<svg xmlns="http://www.w3.org/2000/svg" xmlns:xlink="http://www.w3.org/1999/xlink" width="36" height="36" viewBox="0 0 36 36">
  <defs>
    <clipPath id="clip-path">
      <rect id="Rectangle_1053" data-name="Rectangle 1053" width="25.37" height="24.538" fill="#fff"/>
    </clipPath>
  </defs>
  <g id="Group_1040" data-name="Group 1040" transform="translate(-400 -3214)">
    <rect id="Rectangle_128" data-name="Rectangle 128" width="36" height="36" rx="5" transform="translate(400 3214)" fill="#71005d"/>
    <g id="Group_1048" data-name="Group 1048" transform="translate(405.315 3219.731)">
      <g id="Group_1047" data-name="Group 1047" clip-path="url(#clip-path)">
        <path id="Path_6036" data-name="Path 6036" d="M54.178,54.145a2.078,2.078,0,1,0,1.467.609,2.064,2.064,0,0,0-1.467-.609m-.592,1.484a.837.837,0,1,1-.245.592.842.842,0,0,1,.245-.592" transform="translate(-41.493 -43.12)" fill="#fff"/>
        <path id="Path_6037" data-name="Path 6037" d="M54.178,82.749a2.078,2.078,0,1,0,1.467.609,2.064,2.064,0,0,0-1.467-.609m-.592,1.484a.836.836,0,0,1,1.428.592.832.832,0,0,1-.245.592.837.837,0,0,1-1.183-1.183" transform="translate(-41.493 -65.899)" fill="#fff"/>
        <path id="Path_6038" data-name="Path 6038" d="M21.487,54.145a2.078,2.078,0,1,0,1.467.609,2.064,2.064,0,0,0-1.467-.609M20.9,55.629a.837.837,0,1,1,0,1.183.832.832,0,0,1-.245-.592.843.843,0,0,1,.245-.592" transform="translate(-15.458 -43.12)" fill="#fff"/>
        <path id="Path_6039" data-name="Path 6039" d="M21.487,82.749a2.078,2.078,0,1,0,1.467.609,2.064,2.064,0,0,0-1.467-.609M20.9,84.233a.836.836,0,0,1,1.428.592.832.832,0,0,1-.245.592A.837.837,0,0,1,20.9,84.233" transform="translate(-15.458 -65.899)" fill="#fff"/>
        <path id="Path_6040" data-name="Path 6040" d="M88.945,56.221a2.076,2.076,0,1,0-.608,1.468,2.063,2.063,0,0,0,.608-1.468m-2.667-.591a.837.837,0,1,1-.245.592.842.842,0,0,1,.245-.592" transform="translate(-67.527 -43.12)" fill="#fff"/>
        <path id="Path_6041" data-name="Path 6041" d="M24.7,3.167a2.273,2.273,0,0,0-1.614-.67H20.793V2.285a2.284,2.284,0,0,0-4.568,0V2.5H9.144V2.285a2.284,2.284,0,0,0-4.568,0V2.5H2.283A2.286,2.286,0,0,0,0,4.781V22.255a2.286,2.286,0,0,0,2.284,2.283H19.758a.615.615,0,0,0,.438-.181l4.992-4.993a.615.615,0,0,0,.181-.438V4.781a2.273,2.273,0,0,0-.67-1.614m-4.739,15.76a.213.213,0,0,1,.212-.212h3.913L19.961,22.84Zm-1.239,0V23.3H2.284a1.044,1.044,0,0,1-1.045-1.044V9.145H24.131v8.33H20.174a1.442,1.442,0,0,0-1.027.425,1.462,1.462,0,0,0-.425,1.027m-13-13A2.284,2.284,0,0,0,9.144,3.949V3.737h7.082v.212a2.284,2.284,0,0,0,4.568,0V3.737h2.293a1.037,1.037,0,0,1,.739.306,1.052,1.052,0,0,1,.306.739V7.906H1.239V4.781a1.053,1.053,0,0,1,.306-.739,1.038,1.038,0,0,1,.739-.306H4.576v.212A2.29,2.29,0,0,0,5.718,5.927M7.9,2.285V3.949a1.044,1.044,0,1,1-2.089,0V2.285a1.044,1.044,0,1,1,2.089,0m10.083-.9a1.045,1.045,0,0,1,1.567.9V3.949a1.044,1.044,0,1,1-2.089,0V2.285a1.047,1.047,0,0,1,.522-.9" transform="translate(0 -0.001)" fill="#fff"/>
      </g>
    </g>
  </g>
</svg>
