<svg xmlns="http://www.w3.org/2000/svg" xmlns:xlink="http://www.w3.org/1999/xlink" width="36" height="36" viewBox="0 0 36 36">
  <defs>
    <clipPath id="clip-path">
      <rect id="Rectangle_1099" data-name="Rectangle 1099" width="24" height="23.991" transform="translate(0 0)" fill="#fff"/>
    </clipPath>
  </defs>
  <g id="Group_1158" data-name="Group 1158" transform="translate(-984 -3795)">
    <rect id="Rectangle_701" data-name="Rectangle 701" width="36" height="36" rx="5" transform="translate(984 3795)" fill="#71005d"/>
    <g id="Group_1137" data-name="Group 1137" transform="translate(990 3801)">
      <g id="Group_1136" data-name="Group 1136" transform="translate(0 0)" clip-path="url(#clip-path)">
        <path id="Path_6154" data-name="Path 6154" d="M4.074,23.991a4.075,4.075,0,0,1-1.826-7.718,4.075,4.075,0,0,1,3.712.03l.211.11L16.415,6.168l-.11-.211A4.075,4.075,0,0,1,19.916,0h.017a4.076,4.076,0,0,1,3.948,5.045A4.074,4.074,0,0,1,19.923,8.15a4.093,4.093,0,0,1-1.89-.464l-.211-.11L7.578,17.819l.11.211a4.076,4.076,0,0,1-3.614,5.961m0-6.162a2.084,2.084,0,1,0,2.084,2.084,2.1,2.1,0,0,0-.611-1.474,2.071,2.071,0,0,0-1.474-.61M19.916,1.991a2.084,2.084,0,0,0-2.084,2.084,2.085,2.085,0,0,0,2.084,2.084,2.084,2.084,0,1,0,0-4.168" transform="translate(0 0.001)" fill="#fff"/>
        <path id="Path_6155" data-name="Path 6155" d="M54.979,65.761V63.769h6.275a2.541,2.541,0,0,0,1.785-.739,2.507,2.507,0,0,0,.739-1.785V54.97H65.77v6.275a4.516,4.516,0,0,1-4.515,4.515Z" transform="translate(-43.098 -43.091)" fill="#fff"/>
        <path id="Path_6156" data-name="Path 6156" d="M6.117,16.9V10.622a4.516,4.516,0,0,1,4.515-4.515h6.275V8.1H10.632a2.508,2.508,0,0,0-1.785.739,2.541,2.541,0,0,0-.739,1.785V16.9Z" transform="translate(-4.795 -4.787)" fill="#fff"/>
      </g>
    </g>
  </g>
</svg>
