<svg xmlns="http://www.w3.org/2000/svg" xmlns:xlink="http://www.w3.org/1999/xlink" width="36" height="36" viewBox="0 0 36 36">
  <defs>
    <clipPath id="clip-path">
      <rect id="Rectangle_1087" data-name="Rectangle 1087" width="24" height="24" fill="#fff"/>
    </clipPath>
  </defs>
  <g id="Group_1146" data-name="Group 1146" transform="translate(-408 -3693)">
    <rect id="Rectangle_15" data-name="Rectangle 15" width="36" height="36" rx="5" transform="translate(408 3693)" fill="#71005d"/>
    <g id="Group_1115" data-name="Group 1115" transform="translate(414 3699)">
      <g id="Group_1114" data-name="Group 1114" transform="translate(0 0)" clip-path="url(#clip-path)">
        <path id="Path_6135" data-name="Path 6135" d="M44.726,53.1v-1.9h5.237a1.133,1.133,0,0,0,1.132-1.131V44.9h1.9v5.177A3.032,3.032,0,0,1,49.963,53.1Z" transform="translate(-28.992 -29.102)" fill="#fff"/>
        <path id="Path_6136" data-name="Path 6136" d="M10.83,24A3.032,3.032,0,0,1,7.8,20.972V17.5H3.549A3.553,3.553,0,0,1,0,13.951V3.549A3.553,3.553,0,0,1,3.549,0h10.4A3.553,3.553,0,0,1,17.5,3.549V7.8h3.472A3.032,3.032,0,0,1,24,10.83v2.961H22.1V10.83A1.133,1.133,0,0,0,20.971,9.7H17.5v4.252A3.553,3.553,0,0,1,13.95,17.5H9.7v3.472A1.133,1.133,0,0,0,10.83,22.1h2.9V24ZM9.7,15.6H13.95A1.653,1.653,0,0,0,15.6,13.951V9.7H10.83A1.133,1.133,0,0,0,9.7,10.83v.624H7.8V10.83A3.033,3.033,0,0,1,10.83,7.8H15.6V3.549A1.654,1.654,0,0,0,13.95,1.9H3.549A1.654,1.654,0,0,0,1.9,3.549v10.4A1.654,1.654,0,0,0,3.549,15.6H7.8V13.458H9.7Z" transform="translate(0 0)" fill="#fff"/>
      </g>
    </g>
  </g>
</svg>
