<svg xmlns="http://www.w3.org/2000/svg" width="36" height="36" viewBox="0 0 36 36">
  <g id="Group_1031" data-name="Group 1031" transform="translate(-1008 -1313)">
    <rect id="Rectangle_165" data-name="Rectangle 165" width="36" height="36" rx="5" transform="translate(1008 1313)" fill="#71005d"/>
    <path id="Group_30973" data-name="Group 30973" d="M21.349,0a2.37,2.37,0,0,0-1.682,4.037L17.109,7.6a2.356,2.356,0,0,0-.456-.152A8.418,8.418,0,0,0,8.424.808a8.429,8.429,0,1,0,3.915,15.887l.957.9a1.3,1.3,0,0,0,.89.353,1.272,1.272,0,0,0,.342-.049l4.526,4.964a2.69,2.69,0,1,0,3.837-3.769,1.207,1.207,0,0,0-.161-.143l-5.269-4.24a1.282,1.282,0,0,0-.4-1.128l-.954-.894q.126-.282.227-.564a2.367,2.367,0,0,0,1.548-3.972l2.571-3.584A2.372,2.372,0,1,0,21.349,0ZM8.417,16.717a7.48,7.48,0,0,1-5.446-12.6A7.482,7.482,0,0,1,15.684,7.44a2.348,2.348,0,0,0-1.376.836L11.983,7.068a2.369,2.369,0,1,0-4.27.627,2.524,2.524,0,0,0,.211.273L6.711,9.561a2.37,2.37,0,1,0,.755.575L8.679,8.544a2.333,2.333,0,0,0,2.866-.634l2.326,1.21a2.356,2.356,0,0,0,1.5,2.887,7.491,7.491,0,0,1-6.955,4.71h0Zm2.552-9.641a1.423,1.423,0,1,1-.063-1.423,1.425,1.425,0,0,1,.063,1.423ZM5.683,13.116h0a1.423,1.423,0,0,1,0-2.846A1.423,1.423,0,0,1,5.682,13.116Zm16.483,6.594a1.743,1.743,0,1,1-2.41,2.51l-4.447-4.877,1.685-1.793Zm-5.75-5.436a.348.348,0,0,1,.068.418.231.231,0,0,1-.052.072l-2,2.13-.016.015-.01.008-.032.02a.347.347,0,0,1-.426-.04l-.757-.709.027-.021a8.669,8.669,0,0,0,2.442-2.6l.759.711Zm.5-3.309c-1.681,1.081-3.255-1.713-1.308-2.513A1.423,1.423,0,0,1,16.913,10.966Zm5.2-7.4A1.423,1.423,0,1,1,22.549,1.6a1.423,1.423,0,0,1-.431,1.965Z" transform="translate(1014 1319.637)" fill="#fff"/>
  </g>
</svg>
