<svg xmlns="http://www.w3.org/2000/svg" xmlns:xlink="http://www.w3.org/1999/xlink" width="36" height="36" viewBox="0 0 36 36">
  <defs>
    <clipPath id="clip-path">
      <rect id="Rectangle_1051" data-name="Rectangle 1051" width="21.666" height="27.82" fill="#fff"/>
    </clipPath>
  </defs>
  <g id="Group_876" data-name="Group 876" transform="translate(-678 -3146)">
    <rect id="Rectangle_124" data-name="Rectangle 124" width="36" height="36" rx="5" transform="translate(678 3146)" fill="#71005d"/>
    <g id="Group_1044" data-name="Group 1044" transform="translate(685.167 3150.09)">
      <g id="Group_1043" data-name="Group 1043" clip-path="url(#clip-path)">
        <path id="Path_6024" data-name="Path 6024" d="M20.064,0H1.6A1.6,1.6,0,0,0,0,1.6V26.218a1.6,1.6,0,0,0,1.6,1.6H20.064a1.6,1.6,0,0,0,1.6-1.6V1.6a1.6,1.6,0,0,0-1.6-1.6M1.6,1.446H20.064a.157.157,0,0,1,.157.156V26.219a.157.157,0,0,1-.157.156H1.6a.157.157,0,0,1-.157-.156V1.6A.157.157,0,0,1,1.6,1.446" transform="translate(0)" fill="#fff"/>
        <path id="Path_6025" data-name="Path 6025" d="M21.228,25.179h5.936a1.6,1.6,0,0,0,1.6-1.6V15.8a1.6,1.6,0,0,0-1.6-1.6H21.228a1.6,1.6,0,0,0-1.6,1.6v7.779a1.6,1.6,0,0,0,1.6,1.6M27.32,15.8v7.778a.156.156,0,0,1-.156.156H21.228a.157.157,0,0,1-.157-.156V15.8a.157.157,0,0,1,.157-.157h5.936a.157.157,0,0,1,.157.157" transform="translate(-16.23 -11.74)" fill="#fff"/>
        <path id="Path_6026" data-name="Path 6026" d="M81.123,25.181h1.433a1.6,1.6,0,0,0,1.6-1.6V15.8a1.6,1.6,0,0,0-1.6-1.6H81.123a1.6,1.6,0,0,0-1.6,1.6v7.779a1.6,1.6,0,0,0,1.6,1.6m1.589-9.38v7.778a.157.157,0,0,1-.157.156H81.123a.156.156,0,0,1-.156-.156V15.8a.157.157,0,0,1,.157-.157h1.433a.157.157,0,0,1,.157.157" transform="translate(-65.762 -11.742)" fill="#fff"/>
        <path id="Path_6027" data-name="Path 6027" d="M20.458,89.56H33.666a.832.832,0,1,0,0-1.665H20.458a.832.832,0,1,0,0,1.665" transform="translate(-16.229 -72.686)" fill="#fff"/>
        <path id="Path_6028" data-name="Path 6028" d="M20.458,109.882H33.666a.832.832,0,1,0,0-1.665H20.458a.832.832,0,1,0,0,1.665" transform="translate(-16.229 -89.492)" fill="#fff"/>
        <path id="Path_6029" data-name="Path 6029" d="M20.458,130.206H33.666a.832.832,0,1,0,0-1.665H20.458a.832.832,0,1,0,0,1.665" transform="translate(-16.229 -106.299)" fill="#fff"/>
      </g>
    </g>
  </g>
</svg>
