<svg xmlns="http://www.w3.org/2000/svg" xmlns:xlink="http://www.w3.org/1999/xlink" width="36" height="36" viewBox="0 0 36 36">
  <defs>
    <clipPath id="clip-path">
      <rect id="Rectangle_1093" data-name="Rectangle 1093" width="19.284" height="22.251" transform="translate(0 0)" fill="#fff"/>
    </clipPath>
  </defs>
  <g id="Group_1155" data-name="Group 1155" transform="translate(-984 -3795)">
    <rect id="Rectangle_701" data-name="Rectangle 701" width="36" height="36" rx="5" transform="translate(984 3795)" fill="#71005d"/>
    <g id="Group_1128" data-name="Group 1128" transform="translate(992.358 3801.875)">
      <g id="Group_1127" data-name="Group 1127" transform="translate(0 0)" clip-path="url(#clip-path)">
        <path id="Path_6143" data-name="Path 6143" d="M18.543,0H.742A.742.742,0,0,0,0,.742V21.509a.741.741,0,0,0,.742.742h17.8a.77.77,0,0,0,.723-.6.712.712,0,0,0,0-.1l.019-.045V.742A.742.742,0,0,0,18.543,0ZM1.483,20.768V16.625l4.854-4.854,10.236,9Zm16.317-.9L10.547,13.5l3.215-3.215L17.8,13.7Zm0-8.118L14.2,8.708a.742.742,0,0,0-1.005.041L9.431,12.513,6.794,10.2a.742.742,0,0,0-1.013.033l-4.3,4.294V1.483H17.8Z" transform="translate(0 0)" fill="#fff"/>
      </g>
    </g>
  </g>
</svg>
