<svg xmlns="http://www.w3.org/2000/svg" xmlns:xlink="http://www.w3.org/1999/xlink" width="36" height="36" viewBox="0 0 36 36">
  <defs>
    <clipPath id="clip-path">
      <rect id="Rectangle_1080" data-name="Rectangle 1080" width="24" height="23.999" fill="#fff"/>
    </clipPath>
  </defs>
  <g id="Group_1138" data-name="Group 1138" transform="translate(-408 -3693)">
    <rect id="Rectangle_15" data-name="Rectangle 15" width="36" height="36" rx="5" transform="translate(408 3693)" fill="#71005d"/>
    <g id="Group_1098" data-name="Group 1098" transform="translate(414 3699)">
      <g id="Group_1097" data-name="Group 1097" clip-path="url(#clip-path)">
        <path id="Path_6111" data-name="Path 6111" d="M24,15.756V3.037A1.439,1.439,0,0,0,22.563,1.6H18.519V.48a.48.48,0,0,0-.48-.48H5.961a.48.48,0,0,0-.48.48V1.6H1.437A1.439,1.439,0,0,0,0,3.037V15.76s0,0,0,.007V18.4A1.439,1.439,0,0,0,1.438,19.84H9.219a4.632,4.632,0,0,1-1.474,3.2H6.784a.48.48,0,0,0,0,.96H17.216a.48.48,0,0,0,0-.96h-.96a4.656,4.656,0,0,1-1.47-3.2h7.777A1.439,1.439,0,0,0,24,18.4V15.76s0,0,0,0m-9,7.284H9.008a5.262,5.262,0,0,0,1.172-3.2h3.644A5.283,5.283,0,0,0,15,23.039M22.563,2.56a.478.478,0,0,1,.477.477V15.28h-4.52V2.56ZM6.441.96H17.559V15.28H6.441Zm-5,1.6H5.48V15.28H.96V3.037a.478.478,0,0,1,.477-.477M23.039,18.4a.478.478,0,0,1-.477.477H1.437A.478.478,0,0,1,.96,18.4V16.24H23.039Z" fill="#fff"/>
        <path id="Path_6112" data-name="Path 6112" d="M55.286,29.654Z" transform="translate(-46.879 -25.145)" fill="#fff"/>
        <path id="Path_6113" data-name="Path 6113" d="M49.17,13.36l-1.2,1.2-.493-.493a.48.48,0,0,0-.679.679l.832.832a.48.48,0,0,0,.679,0l1.539-1.539a.48.48,0,1,0-.679-.679" transform="translate(-39.563 -11.209)" fill="#fff"/>
        <path id="Path_6114" data-name="Path 6114" d="M74.918,19.243h4.625a.48.48,0,1,0,0-.96H74.918a.48.48,0,0,0,0,.96" transform="translate(-63.118 -15.503)" fill="#fff"/>
        <path id="Path_6115" data-name="Path 6115" d="M49.17,39.7l-1.2,1.2-.493-.493a.48.48,0,0,0-.679.679l.832.832a.48.48,0,0,0,.679,0l1.539-1.539a.48.48,0,1,0-.679-.679" transform="translate(-39.563 -33.54)" fill="#fff"/>
        <path id="Path_6116" data-name="Path 6116" d="M79.543,44.62H74.918a.48.48,0,1,0,0,.96h4.625a.48.48,0,0,0,0-.96" transform="translate(-63.118 -37.835)" fill="#fff"/>
        <path id="Path_6117" data-name="Path 6117" d="M49.17,66.032l-1.2,1.2-.493-.493a.48.48,0,1,0-.679.679l.832.832a.479.479,0,0,0,.339.141h0a.479.479,0,0,0,.339-.141l1.539-1.539a.48.48,0,1,0-.679-.679" transform="translate(-39.563 -55.871)" fill="#fff"/>
        <path id="Path_6118" data-name="Path 6118" d="M79.543,70.952H74.918a.48.48,0,1,0,0,.96h4.625a.48.48,0,0,0,0-.96" transform="translate(-63.118 -60.162)" fill="#fff"/>
      </g>
    </g>
  </g>
</svg>
