<svg xmlns="http://www.w3.org/2000/svg" xmlns:xlink="http://www.w3.org/1999/xlink" width="36" height="36" viewBox="0 0 36 36">
  <defs>
    <clipPath id="clip-path">
      <rect id="Rectangle_1084" data-name="Rectangle 1084" width="20.093" height="27" transform="translate(0 0)" fill="#fff"/>
    </clipPath>
  </defs>
  <g id="Group_1142" data-name="Group 1142" transform="translate(-408 -3897)">
    <g id="Group_1141" data-name="Group 1141">
      <rect id="Rectangle_707" data-name="Rectangle 707" width="36" height="36" rx="5" transform="translate(408 3897)" fill="#71005d"/>
      <g id="Group_1108" data-name="Group 1108" transform="translate(4.01 6.007)">
        <g id="Group_1107" data-name="Group 1107" transform="translate(411.943 3895.493)">
          <g id="Group_1106" data-name="Group 1106" transform="translate(0 0)" clip-path="url(#clip-path)">
            <path id="Path_6126" data-name="Path 6126" d="M4.4,0a.638.638,0,0,0-.628.628v.628H2.512A2.52,2.52,0,0,0,0,3.768V24.489A2.52,2.52,0,0,0,2.512,27h15.07a2.52,2.52,0,0,0,2.512-2.512V3.768a2.52,2.52,0,0,0-2.512-2.512H16.326V.629A.652.652,0,0,0,15.7,0Zm.628,1.256H15.07V3.14H12.48a.647.647,0,0,0-.608.471,1.885,1.885,0,0,1-3.65,0,.647.647,0,0,0-.608-.471H5.023V1.257ZM2.511,2.512H3.767V3.768a.653.653,0,0,0,.628.628H7.211a3.075,3.075,0,0,0,5.67,0H15.7a.653.653,0,0,0,.628-.628V2.512h1.256a1.239,1.239,0,0,1,1.256,1.256V24.489a1.24,1.24,0,0,1-1.256,1.256H2.511a1.24,1.24,0,0,1-1.256-1.256V3.768A1.24,1.24,0,0,1,2.511,2.512ZM11.3,11.931a.631.631,0,0,0-.442.186.622.622,0,0,0,0,.883l2.07,2.07H5.651a.628.628,0,1,0,0,1.256h7.28l-2.07,2.07a.624.624,0,1,0,.883.883c1.033-1.037,2.07-2.089,3.11-3.11a.624.624,0,0,0,.216-.471.616.616,0,0,0-.226-.471c-.983-1.041-2.081-2.07-3.1-3.11a.613.613,0,0,0-.442-.186Z" transform="translate(0 -0.001)" fill="#fff"/>
          </g>
        </g>
      </g>
    </g>
  </g>
</svg>
