<svg xmlns="http://www.w3.org/2000/svg" xmlns:xlink="http://www.w3.org/1999/xlink" width="36" height="36" viewBox="0 0 36 36">
  <defs>
    <clipPath id="clip-path">
      <rect id="Rectangle_1082" data-name="Rectangle 1082" width="18.613" height="23" transform="translate(0 0)" fill="#fff"/>
    </clipPath>
  </defs>
  <g id="Group_1140" data-name="Group 1140" transform="translate(-408 -3795)">
    <rect id="Rectangle_703" data-name="Rectangle 703" width="36" height="36" rx="5" transform="translate(408 3795)" fill="#71005d"/>
    <g id="Group_1102" data-name="Group 1102" transform="translate(416.693 3801.5)">
      <g id="Group_1101" data-name="Group 1101" transform="translate(0 0)" clip-path="url(#clip-path)">
        <path id="Path_6121" data-name="Path 6121" d="M43.359,68.244a1.461,1.461,0,0,1-.727,1.272h0V71.9a.727.727,0,0,1-1.454,0V69.516h0a1.462,1.462,0,0,1,.727-2.726A1.419,1.419,0,0,1,43.359,68.244Z" transform="translate(-32.599 -53.824)" fill="#fff"/>
        <path id="Path_6122" data-name="Path 6122" d="M2.739,23A2.742,2.742,0,0,1,0,20.262V11.488A2.742,2.742,0,0,1,2.739,8.749H3.66V5.777A5.575,5.575,0,0,1,9.28,0a5.537,5.537,0,0,1,5.672,5.776v3h.921a2.734,2.734,0,0,1,1.934.794,2.679,2.679,0,0,1,.805,1.919v8.774A2.742,2.742,0,0,1,15.874,23Zm0-13.161a1.65,1.65,0,0,0-1.648,1.648v8.774a1.65,1.65,0,0,0,1.648,1.648H15.874a1.649,1.649,0,0,0,1.648-1.648V11.488A1.65,1.65,0,0,0,15.874,9.84ZM9.28,1.066A4.483,4.483,0,0,0,4.725,5.777V8.749h9.162V5.777A4.507,4.507,0,0,0,9.28,1.066" transform="translate(0 -0.001)" fill="#fff"/>
      </g>
    </g>
  </g>
</svg>
