<svg xmlns="http://www.w3.org/2000/svg" width="36" height="36" viewBox="0 0 36 36">
  <g id="Group_1029" data-name="Group 1029" transform="translate(-376 -1313)">
    <rect id="Rectangle_167" data-name="Rectangle 167" width="36" height="36" rx="5" transform="translate(376 1313)" fill="#71005d"/>
    <g id="Group_151" data-name="Group 151" transform="translate(-78.336)">
      <g id="Group_30971" data-name="Group 30971" transform="translate(459.939 1318.603)">
        <path id="Path_1886" data-name="Path 1886" d="M19.081,72.379a.413.413,0,0,0-.646.515,10.023,10.023,0,0,0,3.279,2.675.413.413,0,0,0,.374-.737,9.19,9.19,0,0,1-3.007-2.453Z" transform="translate(-13.8 -54.321)" fill="#fff"/>
        <path id="Path_1887" data-name="Path 1887" d="M17.553,19.8a9.953,9.953,0,0,0-1.867,2.231.413.413,0,0,0,.705.431A9.131,9.131,0,0,1,18.1,20.419a.413.413,0,1,0-.55-.617Z" transform="translate(-11.751 -14.813)" fill="#fff"/>
        <path id="Path_1888" data-name="Path 1888" d="M79.787,26.956a.413.413,0,0,0,.372-.6,9.94,9.94,0,0,0-1.17-1.841.413.413,0,1,0-.645.517,9.128,9.128,0,0,1,1.074,1.687.413.413,0,0,0,.368.231Z" transform="translate(-58.852 -18.324)" fill="#fff"/>
        <path id="Path_1889" data-name="Path 1889" d="M67.835,74.445a.413.413,0,0,0,.566.146,9.91,9.91,0,0,0,2.9-2.6.413.413,0,1,0-.661-.5,9.086,9.086,0,0,1-2.662,2.381.413.413,0,0,0-.146.566Z" transform="translate(-50.973 -53.646)" fill="#fff"/>
        <path id="Path_1890" data-name="Path 1890" d="M36.431,0H31.24A1.24,1.24,0,0,0,30,1.24V5.893a1.24,1.24,0,0,0,1.24,1.24H31.7a1.131,1.131,0,0,0,2.107,0h4.2a1.131,1.131,0,0,0,2.107,0h.745a.413.413,0,0,0,.413-.413V4.24a.4.4,0,0,0-.036-.168l-.889-1.993a.775.775,0,0,0-.7-.459H37.671V1.24A1.24,1.24,0,0,0,36.431,0h0Zm.413,6.306H33.811a1.134,1.134,0,0,0-2.114,0H31.24a.413.413,0,0,1-.413-.413V4.959h6.017Zm3.6-1.517V6.306h-.331a1.133,1.133,0,0,0-2.113,0h-.335V4.789Zm-.841-2.343.676,1.517H37.671V2.446Z" transform="translate(-22.562)" fill="#fff"/>
        <path id="Path_1891" data-name="Path 1891" d="M79.53,40H73.745a.413.413,0,0,0-.413.413V46.2a.413.413,0,0,0,.413.413H79.53a.413.413,0,0,0,.413-.413V40.413A.413.413,0,0,0,79.53,40Zm-1.368,2.161a.413.413,0,0,1-.413.413H75.526a.413.413,0,0,1-.413-.413V40.826h.826v.921h1.4v-.921h.826Z" transform="translate(-55.15 -30.082)" fill="#fff"/>
        <path id="Path_1892" data-name="Path 1892" d="M.413,39.092H8.678a.413.413,0,0,0,.413-.413V32.76a.413.413,0,0,0-.6-.368L6.23,33.544,6.3,32.8h0a.413.413,0,0,0-.606-.4L3.232,33.708l-.381-3.341A.413.413,0,0,0,2.44,30H.864a.413.413,0,0,0-.41.367L0,34.312H0a.357.357,0,0,0,0,.047v4.32a.413.413,0,0,0,.413.413h0ZM7.025,36.2a.413.413,0,1,1-.413.413A.413.413,0,0,1,7.025,36.2Zm-2.479,0a.413.413,0,1,1-.413.413A.413.413,0,0,1,4.545,36.2Zm-2.479,0a.413.413,0,1,1-.413.413A.413.413,0,0,1,2.066,36.2Z" transform="translate(0 -22.562)" fill="#fff"/>
        <path id="Path_1893" data-name="Path 1893" d="M37.535,85.578a4.026,4.026,0,0,0-1.9,3.068.418.418,0,0,0,.413.463H42.48a.418.418,0,0,0,.413-.463A4.031,4.031,0,0,0,41,85.578a.431.431,0,0,0-.514.061,1.942,1.942,0,0,1-2.433,0,.431.431,0,0,0-.515-.061Z" transform="translate(-26.801 -64.316)" fill="#fff"/>
        <path id="Path_1894" data-name="Path 1894" d="M47.889,73.912v-1.6c0-.441-.525-.8-1.172-.8s-1.172.358-1.172.8v1.6c0,.441.525.8,1.172.8S47.889,74.354,47.889,73.912Z" transform="translate(-34.253 -53.784)" fill="#fff"/>
      </g>
    </g>
  </g>
</svg>
