<svg xmlns="http://www.w3.org/2000/svg" xmlns:xlink="http://www.w3.org/1999/xlink" width="36" height="36" viewBox="0 0 36 36">
  <defs>
    <clipPath id="clip-path">
      <rect id="Rectangle_1041" data-name="Rectangle 1041" width="24" height="24" fill="#fff"/>
    </clipPath>
  </defs>
  <g id="Group_878" data-name="Group 878" transform="translate(-400 -3214)">
    <rect id="Rectangle_128" data-name="Rectangle 128" width="36" height="36" rx="5" transform="translate(400 3214)" fill="#71005d"/>
    <g id="Group_1010" data-name="Group 1010" transform="translate(406 3220)">
      <g id="Group_1009" data-name="Group 1009" transform="translate(0 0)" clip-path="url(#clip-path)">
        <path id="Path_5990" data-name="Path 5990" d="M14.585,18.864A1.989,1.989,0,1,0,12.6,16.875a1.991,1.991,0,0,0,1.989,1.989" transform="translate(-6.949 -8.213)" fill="#fff"/>
        <path id="Path_5991" data-name="Path 5991" d="M34.053,18.864a1.989,1.989,0,1,0-1.989-1.989,1.991,1.991,0,0,0,1.989,1.989" transform="translate(-17.689 -8.213)" fill="#fff"/>
        <path id="Path_5992" data-name="Path 5992" d="M24.305,31.4h-.049a.95.95,0,0,0-.762.463,5.755,5.755,0,0,1-9.7.006.974.974,0,0,0-.811-.441c-.03,0-.061,0-.094,0a.988.988,0,0,0-.695,1.5,7.671,7.671,0,0,0,12.891,0l.014-.021.012-.023a1.041,1.041,0,0,0,.017-1.011.994.994,0,0,0-.829-.477" transform="translate(-6.645 -17.324)" fill="#fff"/>
        <path id="Path_5993" data-name="Path 5993" d="M12,0A12,12,0,1,0,24,12,12.013,12.013,0,0,0,12,0m0,22.077A10.077,10.077,0,1,1,22.077,12,10.088,10.088,0,0,1,12,22.077" transform="translate(0 0)" fill="#fff"/>
      </g>
    </g>
  </g>
</svg>
