<svg xmlns="http://www.w3.org/2000/svg" xmlns:xlink="http://www.w3.org/1999/xlink" width="36" height="36" viewBox="0 0 36 36">
  <defs>
    <clipPath id="clip-path">
      <rect id="Rectangle_1057" data-name="Rectangle 1057" width="29.08" height="14.88" transform="translate(0 0)" fill="#fff"/>
    </clipPath>
  </defs>
  <g id="Group_875" data-name="Group 875" transform="translate(-400 -3146)">
    <rect id="Rectangle_15" data-name="Rectangle 15" width="36" height="36" rx="5" transform="translate(400 3146)" fill="#71005d"/>
    <g id="Group_1057" data-name="Group 1057" transform="translate(403.46 3156.56)">
      <g id="Group_1056" data-name="Group 1056" transform="translate(0 0)" clip-path="url(#clip-path)">
        <path id="Path_6053" data-name="Path 6053" d="M72.792,50.317H84.871a.629.629,0,0,1,0,1.258H72.792a.629.629,0,0,1,0-1.258" transform="translate(-63.048 -43.962)" fill="#fff"/>
        <path id="Path_6054" data-name="Path 6054" d="M29.06,14.138,26.635.521A.629.629,0,0,0,26.006,0H3.094a.629.629,0,0,0-.657.519L.011,12.94a.629.629,0,0,0,.629.749H4.814l.119.673a.629.629,0,0,0,.629.519H28.441a.629.629,0,0,0,.629-.739ZM1.379,12.43,3.053,3.858,4.578,12.43Zm4.69,1.189L3.867,1.26h21.62l2.2,12.359Z" transform="translate(0 -0.001)" fill="#fff"/>
      </g>
    </g>
  </g>
</svg>
