<svg xmlns="http://www.w3.org/2000/svg" xmlns:xlink="http://www.w3.org/1999/xlink" width="36" height="36" viewBox="0 0 36 36">
  <defs>
    <clipPath id="clip-path">
      <rect id="Rectangle_1068" data-name="Rectangle 1068" width="26" height="20.225" fill="#fff"/>
    </clipPath>
  </defs>
  <g id="Group_876" data-name="Group 876" transform="translate(-678 -3146)">
    <rect id="Rectangle_124" data-name="Rectangle 124" width="36" height="36" rx="5" transform="translate(678 3146)" fill="#71005d"/>
    <g id="Group_1074" data-name="Group 1074" transform="translate(685 3153.665)">
      <g id="Group_1073" data-name="Group 1073" clip-path="url(#clip-path)">
        <path id="Path_6080" data-name="Path 6080" d="M15.847,133.845a4.636,4.636,0,0,1,3.6,1.359,4.584,4.584,0,0,1,0,6.555,4.72,4.72,0,0,1-3.278,1.359H4.656a4.72,4.72,0,0,1-3.278-1.359,4.544,4.544,0,0,1-.4-6.075,4.622,4.622,0,0,1,1.839-1.439,5.581,5.581,0,0,1,1.839-4.876,7.052,7.052,0,0,1,9.273,0,5.656,5.656,0,0,1,1.919,4.477Zm-1.2,1.119c.24-1.919.16-3.357-1.439-4.8a5.763,5.763,0,0,0-7.754,0,4.457,4.457,0,0,0-1.439,4.8,3.618,3.618,0,0,0-2.158,1.359A3.541,3.541,0,0,0,4.656,142H16.167a3.519,3.519,0,0,0,2.478-6.075c-1.2-1.119-2.558-.959-4-.959Z" transform="translate(0 -122.893)" fill="#fff"/>
        <path id="Path_6081" data-name="Path 6081" d="M574.17,379.079l1.6,1.6-.719.8-1.6-1.6c.24-.24.48-.56.719-.8" transform="translate(-552.167 -365.009)" fill="#fff"/>
        <rect id="Rectangle_1066" data-name="Rectangle 1066" width="2.238" height="1.039" transform="translate(23.762 8.873)" fill="#fff"/>
        <path id="Path_6082" data-name="Path 6082" d="M573.44,66.22l1.679-1.6.719.719-1.6,1.679a3.784,3.784,0,0,0-.8-.8Z" transform="translate(-552.157 -62.223)" fill="#fff"/>
        <rect id="Rectangle_1067" data-name="Rectangle 1067" width="1.119" height="2.238" transform="translate(16.008)" fill="#fff"/>
        <path id="Path_6083" data-name="Path 6083" d="M258.425,66.936l-1.6-1.6.8-.719,1.6,1.519a7.529,7.529,0,0,0-.8.8" transform="translate(-247.294 -62.22)" fill="#fff"/>
        <path id="Path_6084" data-name="Path 6084" d="M326.089,90.462a6.073,6.073,0,0,1,6.075,6.075,6.15,6.15,0,0,1-2.318,4.717,8.746,8.746,0,0,0-.48-.879,5.262,5.262,0,0,0,1.759-3.837,5.015,5.015,0,0,0-5.036-5.036,5.147,5.147,0,0,0-3.757,1.679,8.7,8.7,0,0,0-.879-.48,6.037,6.037,0,0,1,4.636-2.238Z" transform="translate(-309.522 -87.104)" fill="#fff" fill-rule="evenodd"/>
      </g>
    </g>
  </g>
</svg>
