<svg xmlns="http://www.w3.org/2000/svg" width="36" height="36" viewBox="0 0 36 36">
  <g id="Group_1026" data-name="Group 1026" transform="translate(-678 -2727)">
    <rect id="Rectangle_124" data-name="Rectangle 124" width="36" height="36" rx="5" transform="translate(678 2727)" fill="#71005d"/>
    <path id="Path_1692" data-name="Path 1692" d="M12.228,0A12.228,12.228,0,1,0,24.456,12.228,12.239,12.239,0,0,0,12.228,0m5.2,10.477-5.277,5.663a1.563,1.563,0,0,1-1.158.515,1.523,1.523,0,0,1-1.158-.515L7.028,13.155a1.585,1.585,0,0,1,2.317-2.162l1.622,1.75,4.119-4.428a1.585,1.585,0,0,1,2.24-.077,1.564,1.564,0,0,1,.1,2.24Z" transform="translate(683.772 2732.772)" fill="#fff"/>
  </g>
</svg>
