<svg xmlns="http://www.w3.org/2000/svg" width="581" height="299.75" viewBox="0 0 581 299.75">
  <g id="Group_883" data-name="Group 883" transform="translate(-947.5 -3137.5)">
    <g id="Rectangle_21" data-name="Rectangle 21" transform="translate(948 3138)" fill="#ecebec" stroke="#f5f5f5" stroke-width="1">
      <rect width="580" height="299" stroke="none"/>
      <rect x="0.5" y="0.5" width="579" height="298" fill="none"/>
    </g>
    <path id="Path_1491" data-name="Path 1491" d="M684.4,29.951v6.877h-580V24.67H677.84C681.464,24.67,684.4,27.034,684.4,29.951Z" transform="translate(843.599 3113.33)" fill="#fff" stroke="#cdccd6" stroke-width="1"/>
    <path id="Path_1493" data-name="Path 1493" d="M759.975,105.415H619.92a2.432,2.432,0,0,0-2.432,2.432v25.045a2.432,2.432,0,0,0,2.432,2.432H759.975a2.432,2.432,0,0,0,2.432-2.432V107.847A2.432,2.432,0,0,0,759.975,105.415Z" transform="translate(765.207 3087.637)" fill="#fff" stroke="#e4e4e4" stroke-width="0.5"/>
    <path id="Path_1494" data-name="Path 1494" d="M664.621,129.717h-19.7v2.918h19.7Z" transform="translate(754.79 3078.41)" fill="#cdccd6"/>
    <path id="Path_1495" data-name="Path 1495" d="M657.083,136.38H644.926V139.3h12.157Z" transform="translate(754.79 3075.88)" fill="#f3f3f3"/>
    <path id="Path_1496" data-name="Path 1496" d="M629.583,137.051a4.255,4.255,0,1,0-4.255-4.255A4.255,4.255,0,0,0,629.583,137.051Z" transform="translate(762.23 3078.857)" fill="#118bcb"/>
    <path id="Path_1497" data-name="Path 1497" d="M796.7,136.148a2.432,2.432,0,1,0-2.432-2.432A2.432,2.432,0,0,0,796.7,136.148Z" transform="translate(698.091 3077.815)" fill="#118bcb"/>
    <path id="Path_1498" data-name="Path 1498" d="M810.416,136.148a2.432,2.432,0,1,0-2.432-2.432A2.432,2.432,0,0,0,810.416,136.148Z" transform="translate(692.883 3077.815)" fill="#118bcb"/>
    <path id="Path_1499" data-name="Path 1499" d="M824.135,136.148a2.432,2.432,0,1,0-2.432-2.432A2.432,2.432,0,0,0,824.135,136.148Z" transform="translate(687.674 3077.815)" fill="#118bcb"/>
    <path id="Path_1500" data-name="Path 1500" d="M837.855,136.148a2.432,2.432,0,1,0-2.432-2.432A2.432,2.432,0,0,0,837.855,136.148Z" transform="translate(682.465 3077.815)" fill="#118bcb"/>
    <path id="Path_1501" data-name="Path 1501" d="M116.559,24.67H104.4V319.894h12.158Z" transform="translate(843.599 3113.33)" fill="#72005d"/>
    <path id="Path_1502" data-name="Path 1502" d="M379.142,28.2H502.177a3.89,3.89,0,0,1,0,7.781H379.142a3.89,3.89,0,0,1,0-7.781Z" transform="translate(740.767 3111.991)" fill="none" stroke="#cdccd6" stroke-width="1"/>
    <path id="Path_1503" data-name="Path 1503" d="M836.072,31.725H811.513v3.647h24.559Z" transform="translate(688.134 3110.652)" fill="#72005d"/>
    <path id="Path_1504" data-name="Path 1504" d="M571.316,30.549a2.432,2.432,0,1,1-2.432,2.432A2.432,2.432,0,0,1,571.316,30.549Z" transform="translate(667.252 3111.098)" fill="#cdccd6"/>
    <path id="Path_1505" data-name="Path 1505" d="M112.713,35.412a2.432,2.432,0,1,0-2.432-2.432A2.432,2.432,0,0,0,112.713,35.412Z" transform="translate(841.367 3111.098)" fill="#fff"/>
    <path id="Path_1506" data-name="Path 1506" d="M797.522,35.884a3.647,3.647,0,1,0-3.648-3.647A3.647,3.647,0,0,0,797.522,35.884Z" transform="translate(694.831 3111.842)" fill="#72005d"/>
    <path id="Path_1507" data-name="Path 1507" d="M112.713,55.011a2.432,2.432,0,1,0-2.432-2.432A2.432,2.432,0,0,0,112.713,55.011Z" transform="translate(841.367 3103.657)" fill="#fff"/>
    <path id="Path_1508" data-name="Path 1508" d="M112.713,74.609a2.432,2.432,0,1,0-2.432-2.432A2.432,2.432,0,0,0,112.713,74.609Z" transform="translate(841.367 3096.217)" fill="#fff"/>
    <path id="Path_1509" data-name="Path 1509" d="M112.713,94.207a2.432,2.432,0,1,0-2.432-2.432A2.432,2.432,0,0,0,112.713,94.207Z" transform="translate(841.367 3088.775)" fill="#fff"/>
    <path id="Path_1510" data-name="Path 1510" d="M112.713,113.806a2.432,2.432,0,1,0-2.432-2.432A2.432,2.432,0,0,0,112.713,113.806Z" transform="translate(841.367 3081.335)" fill="#fff"/>
    <path id="Path_1511" data-name="Path 1511" d="M112.713,483.413a2.432,2.432,0,1,0-2.432-2.432A2.432,2.432,0,0,0,112.713,483.413Z" transform="translate(841.367 2945.351)" fill="#fff"/>
    <path id="Path_1512" data-name="Path 1512" d="M132.231,29.978h1.283l.924,3.856,1.031-3.856h.993l1.031,3.856.923-3.856H139.7l-1.473,5.509h-1.39l-.87-3.25-.87,3.25H133.7l-1.473-5.509Z" transform="translate(833.033 3111.315)" fill="#72005d"/>
    <path id="Path_1513" data-name="Path 1513" d="M148.633,34.274v1.212h-3.36V29.978h3.321v1.212h-2.1V32.1H148.4v1.2H146.5v.976Z" transform="translate(828.082 3111.315)" fill="#72005d"/>
    <path id="Path_1514" data-name="Path 1514" d="M164.635,34.274v1.212h-3.13V29.978h1.221v4.3Z" transform="translate(821.918 3111.315)" fill="#72005d"/>
    <path id="Path_1515" data-name="Path 1515" d="M170.977,34.274v1.212h-3.13V29.978h1.222v4.3Z" transform="translate(819.511 3111.315)" fill="#72005d"/>
    <path id="Path_1516" data-name="Path 1516" d="M156.714,33.4a1.571,1.571,0,0,1-1.515,1.747,1.551,1.551,0,0,1-1.6-1.738,1.567,1.567,0,1,1,3.117-.008Z" transform="translate(824.921 3110.673)" fill="#72005d"/>
    <path id="Path_1517" data-name="Path 1517" d="M155.5,35.129a.043.043,0,0,0-.03.005l-.063.034c-.042.022-.084.043-.126.062a2.272,2.272,0,0,1-.461.151,2.4,2.4,0,0,1-.5.052,2.345,2.345,0,0,1-2.478-2.5,2.666,2.666,0,0,1,.2-1.039c.016,0,.032,0,.048,0a.728.728,0,0,0,.718-.738.8.8,0,0,0-.1-.369.723.723,0,0,0-.406-.335.656.656,0,0,0-.214-.035.727.727,0,0,0-.717.738.76.76,0,0,0,.054.283,2.25,2.25,0,0,0,.366-.363.313.313,0,0,1,.132-.182c.02-.031.039-.062.058-.1-.019.032-.038.063-.058.1a.3.3,0,0,1,.158-.048.316.316,0,0,1,.175.048.308.308,0,0,1,.118.137.315.315,0,0,1,.022.18.312.312,0,0,1-.242.249.315.315,0,0,1-.181-.016.309.309,0,0,1-.141-.114.313.313,0,0,1-.053-.173.307.307,0,0,1,.012-.082,2.282,2.282,0,0,1-.365.364.809.809,0,0,0,.053.1,3.388,3.388,0,0,0-.281,1.379,2.97,2.97,0,0,0,3.138,3.17,3.044,3.044,0,0,0,.5-.041,2.934,2.934,0,0,0,.468-.118,2.843,2.843,0,0,0,.432-.19c.043-.024.086-.048.128-.073.021-.013.042-.025.061-.039a.069.069,0,0,0,.029-.024c.009-.016,0-.023-.012-.034l-.047-.052-.218-.227-.1-.106c-.02-.021-.045-.054-.074-.06Zm-3.4-4.564,0,.008Zm-.071.143,0,0Z" transform="translate(825.833 3111.148)" fill="#118bcb"/>
    <path id="Path_1518" data-name="Path 1518" d="M158.16,32.529a3.057,3.057,0,0,0-3-3.156,3.3,3.3,0,0,0-.55.045,3.191,3.191,0,0,0-.629.173,3.139,3.139,0,0,0-.293.132c-.047.024-.094.05-.14.077-.024.014-.119.053-.1.093a.106.106,0,0,0,.014.014l.259.275.105.111c.022.024.048.071.086.067a.191.191,0,0,0,.064-.027l.073-.036a2.487,2.487,0,0,1,.966-.243c.045,0,.09,0,.135,0a2.415,2.415,0,0,1,2.368,2.492,2.821,2.821,0,0,1-.18,1.007.712.712,0,0,0-.3.033.723.723,0,0,0-.438.406.714.714,0,0,0-.055.3.759.759,0,0,0,.055.285.728.728,0,0,0,.5.439.706.706,0,0,0,.163.02.734.734,0,0,0,.722-.742.755.755,0,0,0-.1-.371,3.516,3.516,0,0,0,.273-1.388Zm-.905,2.071a.31.31,0,0,1-.291-.394.315.315,0,0,1,.132-.183.3.3,0,0,1,.159-.048.312.312,0,0,1,0,.624Z" transform="translate(824.979 3111.544)" fill="#118bcb"/>
    <path id="Path_1519" data-name="Path 1519" d="M536.736,50.148H133.217c-1.843,0-3.338,1.089-3.338,2.432v89.479c0,1.343,1.494,2.432,3.338,2.432H536.736c1.844,0,3.338-1.089,3.338-2.432V52.58C540.074,51.237,538.58,50.148,536.736,50.148Z" transform="translate(834.121 3106.759)" fill="#fff"/>
    <path id="Path_1520" data-name="Path 1520" d="M563.47,210.071H377.253c-1.755,0-3.178,1.089-3.178,2.432v63.219c0,1.343,1.423,2.432,3.178,2.432H563.47c1.755,0,3.178-1.089,3.178-2.432V212.5C566.648,211.16,565.225,210.071,563.47,210.071Z" transform="translate(807.352 3048.523)" fill="#fff" stroke="#e4e4e4" stroke-width="0.5"/>
    <path id="Path_1521" data-name="Path 1521" d="M478.552,235.157H382.307v2.918h96.245Z" transform="translate(804.226 3038.999)" fill="#cdccd6"/>
    <path id="Path_1522" data-name="Path 1522" d="M511.491,274.354H382.307v2.917H511.491Z" transform="translate(804.226 3024.117)" fill="#cdccd6"/>
    <path id="Path_1523" data-name="Path 1523" d="M448.826,254.755H382.307v2.918h66.519Z" transform="translate(804.226 3031.558)" fill="#cdccd6"/>
    <path id="Path_1524" data-name="Path 1524" d="M477.4,293.952h-95.09v2.918H477.4Z" transform="translate(804.226 3016.677)" fill="#cdccd6"/>
    <path id="Path_1525" data-name="Path 1525" d="M759.975,50.148H619.92a2.432,2.432,0,0,0-2.432,2.432V77.138a2.432,2.432,0,0,0,2.432,2.432H759.975a2.432,2.432,0,0,0,2.432-2.432V52.58A2.432,2.432,0,0,0,759.975,50.148Z" transform="translate(765.207 3106.759)" fill="#fff" stroke="#e4e4e4" stroke-width="0.5"/>
    <path id="Path_1526" data-name="Path 1526" d="M723.076,73.274H625.328v2.918h97.748Z" transform="translate(762.23 3097.979)" fill="#cdccd6"/>
    <path id="Path_1527" data-name="Path 1527" d="M685.63,79.937h-60.3v2.918h60.3Z" transform="translate(762.23 3095.449)" fill="#f3f3f3"/>
    <path id="Path_1528" data-name="Path 1528" d="M336.254,210.071H133.383c-1.935,0-3.5,1.089-3.5,2.432v87.954c0,1.343,1.569,2.432,3.5,2.432H336.254c1.935,0,3.5-1.089,3.5-2.432V212.5C339.758,211.16,338.189,210.071,336.254,210.071Z" transform="translate(833.926 3047.903)" fill="#fff"/>
    <path id="Path_1529" data-name="Path 1529" d="M227,231.237H137.72v2.918H227Z" transform="translate(830.949 3039.867)" fill="#cdccd6"/>
    <path id="Path_1530" data-name="Path 1530" d="M218.788,308.063H137.72v2.918h81.068Z" transform="translate(830.949 3010.699)" fill="#cdccd6"/>
    <path id="Path_1531" data-name="Path 1531" d="M242.858,269.65H137.72v2.918H242.858Z" transform="translate(830.949 3025.283)" fill="#cdccd6"/>
    <path id="Path_1532" data-name="Path 1532" d="M208.218,250.444h-70.5v2.918h70.5Z" transform="translate(830.949 3032.575)" fill="#cdccd6"/>
    <path id="Path_1533" data-name="Path 1533" d="M233.236,327.27H137.72v2.918h95.516Z" transform="translate(830.949 3003.406)" fill="#cdccd6"/>
    <path id="Path_1534" data-name="Path 1534" d="M197.559,288.856H137.72v2.918h59.839Z" transform="translate(830.949 3017.991)" fill="#cdccd6"/>
    <path id="Path_1535" data-name="Path 1535" d="M190.653,237.9H137.72v2.918h52.933Z" transform="translate(830.949 3037.337)" fill="#f3f3f3"/>
    <path id="Path_1536" data-name="Path 1536" d="M160.333,314.727H137.72v2.918h22.613Z" transform="translate(830.949 3008.168)" fill="#f3f3f3"/>
    <path id="Path_1537" data-name="Path 1537" d="M160.333,276.313H137.72v2.918h22.613Z" transform="translate(830.949 3022.753)" fill="#f3f3f3"/>
    <path id="Path_1538" data-name="Path 1538" d="M160.333,257.107H137.72v2.918h22.613Z" transform="translate(830.949 3030.045)" fill="#f3f3f3"/>
    <path id="Path_1539" data-name="Path 1539" d="M207.414,333.932H137.72v2.918h69.694Z" transform="translate(830.949 3000.877)" fill="#f3f3f3"/>
    <path id="Path_1540" data-name="Path 1540" d="M160.333,295.52H137.72v2.918h22.613Z" transform="translate(830.949 3015.461)" fill="#f3f3f3"/>
    <path id="Path_1541" data-name="Path 1541" d="M626.265,60.187v2h-.43V59.358h.353l1.544,2.046V59.361h.434v2.827h-.377l-1.523-2Z" transform="translate(762.038 3103.262)" fill="#455a64"/>
    <path id="Path_1542" data-name="Path 1542" d="M631.318,62.675a1.034,1.034,0,0,1-.424-.084,1,1,0,0,1-.329-.234,1.056,1.056,0,0,1-.213-.341,1.12,1.12,0,0,1-.075-.409,1.107,1.107,0,0,1,.131-.534,1.025,1.025,0,0,1,.365-.39,1,1,0,0,1,.549-.148.981.981,0,0,1,.543.148,1.024,1.024,0,0,1,.356.389,1.1,1.1,0,0,1,.127.517.794.794,0,0,1,0,.089c0,.028,0,.051-.007.069h-1.609a.649.649,0,0,0,.1.317.624.624,0,0,0,.221.212.57.57,0,0,0,.288.077.627.627,0,0,0,.32-.088.45.45,0,0,0,.206-.231l.36.107a.81.81,0,0,1-.2.274.989.989,0,0,1-.313.191,1.08,1.08,0,0,1-.392.07Zm-.6-1.22h1.213a.64.64,0,0,0-.1-.311.627.627,0,0,0-.219-.211.583.583,0,0,0-.294-.077.572.572,0,0,0-.29.077.62.62,0,0,0-.217.211.658.658,0,0,0-.1.311Z" transform="translate(760.352 3102.815)" fill="#455a64"/>
    <path id="Path_1543" data-name="Path 1543" d="M636.49,60.585h.4l-.845,2.07h-.36l-.361-.934-.361.934H634.6l-.849-2.07h.4l.645,1.646.284-.764-.346-.878h.357l.227.645.223-.645h.357l-.341.878.284.764.641-1.646Z" transform="translate(759.031 3102.796)" fill="#455a64"/>
    <path id="Path_1544" data-name="Path 1544" d="M639.854,62.674a1.35,1.35,0,0,1-.48-.086,1.021,1.021,0,0,1-.388-.257l.158-.3a1.169,1.169,0,0,0,.347.231.917.917,0,0,0,.347.072.543.543,0,0,0,.288-.069.222.222,0,0,0,.112-.2.178.178,0,0,0-.058-.146.531.531,0,0,0-.167-.082c-.073-.024-.161-.05-.263-.079a2.324,2.324,0,0,1-.36-.141.559.559,0,0,1-.22-.18.475.475,0,0,1-.073-.272.583.583,0,0,1,.1-.344.626.626,0,0,1,.278-.217,1.046,1.046,0,0,1,.412-.076,1.136,1.136,0,0,1,.405.07.894.894,0,0,1,.329.216l-.18.292a.934.934,0,0,0-.275-.187.757.757,0,0,0-.3-.06.711.711,0,0,0-.176.022.292.292,0,0,0-.14.079.218.218,0,0,0-.055.159.191.191,0,0,0,.046.134.346.346,0,0,0,.138.087c.061.024.136.05.226.079a4.1,4.1,0,0,1,.4.14.644.644,0,0,1,.255.177.447.447,0,0,1,.091.3.56.56,0,0,1-.217.468A.922.922,0,0,1,639.854,62.674Z" transform="translate(757.045 3102.816)" fill="#455a64"/>
    <path id="Path_1545" data-name="Path 1545" d="M626.623,114.732h.4l.338.961.342-.961h.4l-.468,1.26.407,1.042.849-2.313h.472l-1.117,2.831h-.372l-.511-1.268-.514,1.268h-.376l-1.114-2.831h.468l.852,2.313.408-1.042Z" transform="translate(762.217 3084.104)" fill="#455a64"/>
    <path id="Path_1546" data-name="Path 1546" d="M632.705,118.038a1.032,1.032,0,0,1-.424-.085,1,1,0,0,1-.328-.234,1.061,1.061,0,0,1-.213-.341,1.157,1.157,0,0,1,.055-.944,1.035,1.035,0,0,1,.365-.39,1,1,0,0,1,.55-.148.982.982,0,0,1,.543.148,1.028,1.028,0,0,1,.355.389,1.1,1.1,0,0,1,.127.517c0,.032,0,.061,0,.089s0,.051-.008.069h-1.609a.656.656,0,0,0,.1.317.617.617,0,0,0,.221.212.568.568,0,0,0,.288.078.631.631,0,0,0,.32-.088.443.443,0,0,0,.205-.231l.361.108a.808.808,0,0,1-.2.274.993.993,0,0,1-.313.191,1.079,1.079,0,0,1-.392.07Zm-.6-1.221h1.213a.651.651,0,0,0-.1-.311.632.632,0,0,0-.22-.211.585.585,0,0,0-.293-.076.569.569,0,0,0-.29.076.624.624,0,0,0-.217.211A.671.671,0,0,0,632.1,116.817Z" transform="translate(759.825 3083.657)" fill="#455a64"/>
    <path id="Path_1547" data-name="Path 1547" d="M635.372,117.392a.568.568,0,0,1,.109-.346.71.71,0,0,1,.3-.23,1.14,1.14,0,0,1,.446-.081,1.984,1.984,0,0,1,.274.02,1.073,1.073,0,0,1,.248.064v-.131a.448.448,0,0,0-.127-.338.508.508,0,0,0-.365-.121.834.834,0,0,0-.319.061,1.982,1.982,0,0,0-.319.173l-.142-.295a1.579,1.579,0,0,1,.4-.208,1.333,1.333,0,0,1,.424-.068.891.891,0,0,1,.635.218.812.812,0,0,1,.233.622v.769a.179.179,0,0,0,.025.107.112.112,0,0,0,.087.035V118a1.021,1.021,0,0,1-.1.016l-.077,0a.277.277,0,0,1-.2-.068.266.266,0,0,1-.081-.159l-.011-.12a.869.869,0,0,1-.334.271.958.958,0,0,1-.411.1.741.741,0,0,1-.357-.085.62.62,0,0,1-.334-.559Zm1.279.125a.536.536,0,0,0,.073-.1.2.2,0,0,0,.027-.091v-.235a1.142,1.142,0,0,0-.226-.065,1.323,1.323,0,0,0-.234-.022.675.675,0,0,0-.375.094.293.293,0,0,0-.144.259.335.335,0,0,0,.048.172.367.367,0,0,0,.138.133.449.449,0,0,0,.225.051.66.66,0,0,0,.265-.055.571.571,0,0,0,.2-.141Z" transform="translate(758.417 3083.658)" fill="#455a64"/>
    <path id="Path_1548" data-name="Path 1548" d="M640.142,117.5a1.327,1.327,0,0,1-.134.06,1.3,1.3,0,0,1-.182.056.93.93,0,0,1-.209.024.612.612,0,0,1-.242-.048.388.388,0,0,1-.178-.153.491.491,0,0,1-.067-.272v-1.3h-.266v-.339h.266v-.686h.422v.686h.437v.339h-.437v1.158a.2.2,0,0,0,.215.21.444.444,0,0,0,.169-.032,1.221,1.221,0,0,0,.119-.051l.088.346Z" transform="translate(757.092 3084.059)" fill="#455a64"/>
    <path id="Path_1549" data-name="Path 1549" d="M643.244,117.5h-.422v-1.156a.713.713,0,0,0-.1-.417.326.326,0,0,0-.28-.138.494.494,0,0,0-.23.062.72.72,0,0,0-.212.171.694.694,0,0,0-.135.249V117.5h-.422V114.59h.422v1.26a.866.866,0,0,1,.315-.33.826.826,0,0,1,.43-.12.644.644,0,0,1,.311.067.507.507,0,0,1,.194.184.774.774,0,0,1,.1.269,1.72,1.72,0,0,1,.029.321V117.5Z" transform="translate(756.112 3084.153)" fill="#455a64"/>
    <path id="Path_1550" data-name="Path 1550" d="M646.018,118.038a1.028,1.028,0,0,1-.424-.085,1,1,0,0,1-.329-.234,1.061,1.061,0,0,1-.213-.341,1.162,1.162,0,0,1,.056-.944,1.025,1.025,0,0,1,.365-.39,1,1,0,0,1,.549-.148.981.981,0,0,1,.543.148,1.03,1.03,0,0,1,.355.389,1.1,1.1,0,0,1,.127.517.776.776,0,0,1,0,.089c0,.028,0,.051-.007.069h-1.609a.656.656,0,0,0,.1.317.618.618,0,0,0,.221.212.577.577,0,0,0,.288.078.634.634,0,0,0,.321-.088.448.448,0,0,0,.205-.231l.361.108a.811.811,0,0,1-.2.274.986.986,0,0,1-.313.191,1.075,1.075,0,0,1-.391.07Zm-.6-1.221h1.213a.645.645,0,0,0-.1-.311.63.63,0,0,0-.219-.211.587.587,0,0,0-.294-.076.57.57,0,0,0-.29.076.625.625,0,0,0-.217.211A.665.665,0,0,0,645.415,116.817Z" transform="translate(754.77 3083.657)" fill="#455a64"/>
    <path id="Path_1551" data-name="Path 1551" d="M650.049,116.288a.87.87,0,0,0-.435.115.625.625,0,0,0-.271.315V118h-.422v-2.069h.392v.45a.931.931,0,0,1,.272-.344.645.645,0,0,1,.357-.142H650a.225.225,0,0,1,.044,0v.395Z" transform="translate(753.273 3083.66)" fill="#455a64"/>
    <path id="Path_1552" data-name="Path 1552" d="M384.08,220.033a.587.587,0,0,0-.111-.094,1.07,1.07,0,0,0-.173-.094,1.2,1.2,0,0,0-.215-.073,1.014,1.014,0,0,0-.238-.028.64.64,0,0,0-.4.1.347.347,0,0,0-.13.287.3.3,0,0,0,.073.213.549.549,0,0,0,.223.128c.1.035.225.072.376.112a2.785,2.785,0,0,1,.48.161.756.756,0,0,1,.311.249.707.707,0,0,1,.107.409.824.824,0,0,1-.077.369.669.669,0,0,1-.215.253.964.964,0,0,1-.319.143,1.612,1.612,0,0,1-.388.045,1.885,1.885,0,0,1-.789-.173,1.674,1.674,0,0,1-.336-.209l.2-.383a.849.849,0,0,0,.144.114,1.546,1.546,0,0,0,.218.118,1.656,1.656,0,0,0,.273.094,1.2,1.2,0,0,0,.3.037.7.7,0,0,0,.393-.093.336.336,0,0,0,.048-.5.706.706,0,0,0-.257-.145q-.169-.06-.4-.119a2.686,2.686,0,0,1-.449-.165.6.6,0,0,1-.361-.591.823.823,0,0,1,.13-.471.81.81,0,0,1,.355-.29,1.251,1.251,0,0,1,.5-.1,1.421,1.421,0,0,1,.349.042,1.55,1.55,0,0,1,.309.114,1.534,1.534,0,0,1,.263.164l-.2.366Z" transform="translate(804.244 3045.002)" fill="#455a64"/>
    <path id="Path_1553" data-name="Path 1553" d="M387.169,222.7a1.032,1.032,0,0,1-.424-.085,1.008,1.008,0,0,1-.328-.233,1.066,1.066,0,0,1-.213-.341,1.16,1.16,0,0,1,.055-.945,1.033,1.033,0,0,1,.365-.39,1,1,0,0,1,.55-.148.979.979,0,0,1,.543.148,1.024,1.024,0,0,1,.355.389,1.1,1.1,0,0,1,.127.517c0,.032,0,.061,0,.089s-.006.051-.008.069h-1.609a.654.654,0,0,0,.1.317.623.623,0,0,0,.221.212.564.564,0,0,0,.288.077.629.629,0,0,0,.32-.087.445.445,0,0,0,.205-.231l.361.107a.8.8,0,0,1-.2.273.952.952,0,0,1-.313.192,1.079,1.079,0,0,1-.392.07Zm-.6-1.221h1.213a.643.643,0,0,0-.1-.311.63.63,0,0,0-.219-.211.577.577,0,0,0-.293-.076.568.568,0,0,0-.29.076.624.624,0,0,0-.217.211A.662.662,0,0,0,386.566,221.478Z" transform="translate(802.775 3044.542)" fill="#455a64"/>
    <path id="Path_1554" data-name="Path 1554" d="M391.2,220.95a.869.869,0,0,0-.435.115.622.622,0,0,0-.27.315v1.277h-.422v-2.07h.392v.451a.937.937,0,0,1,.272-.344.644.644,0,0,1,.357-.142h.063a.238.238,0,0,1,.044,0v.4Z" transform="translate(801.278 3044.544)" fill="#455a64"/>
    <path id="Path_1555" data-name="Path 1555" d="M392.871,222.678l-.764-2.07h.438l.572,1.666.572-1.666h.407l-.764,2.07h-.46Z" transform="translate(800.506 3044.522)" fill="#455a64"/>
    <path id="Path_1556" data-name="Path 1556" d="M395.852,219.734v-.482h.422v.482Zm0,2.429v-2.086h.422v2.086Z" transform="translate(799.084 3045.037)" fill="#455a64"/>
    <path id="Path_1557" data-name="Path 1557" d="M398.229,222.7a1.027,1.027,0,0,1-.424-.085.991.991,0,0,1-.329-.235,1.079,1.079,0,0,1-.213-.343,1.123,1.123,0,0,1-.075-.411,1.11,1.11,0,0,1,.129-.533,1.057,1.057,0,0,1,1.447-.391.857.857,0,0,1,.336.377l-.411.135a.506.506,0,0,0-.194-.206.528.528,0,0,0-.274-.073.547.547,0,0,0-.305.088.608.608,0,0,0-.215.244.839.839,0,0,0,0,.715.656.656,0,0,0,.216.252.535.535,0,0,0,.305.092.569.569,0,0,0,.373-.141.386.386,0,0,0,.1-.146l.415.127a.785.785,0,0,1-.194.275.964.964,0,0,1-.3.19,1.048,1.048,0,0,1-.39.069Z" transform="translate(798.577 3044.542)" fill="#455a64"/>
    <path id="Path_1558" data-name="Path 1558" d="M401.707,222.7a1.032,1.032,0,0,1-.424-.085,1.007,1.007,0,0,1-.328-.233,1.067,1.067,0,0,1-.213-.341,1.16,1.16,0,0,1,.055-.945,1.034,1.034,0,0,1,.365-.39,1,1,0,0,1,.549-.148.978.978,0,0,1,.543.148,1.026,1.026,0,0,1,.355.389,1.1,1.1,0,0,1,.127.517c0,.032,0,.061,0,.089s-.006.051-.008.069h-1.609a.655.655,0,0,0,.1.317.621.621,0,0,0,.22.212.567.567,0,0,0,.288.077.63.63,0,0,0,.321-.087.445.445,0,0,0,.205-.231l.361.107a.807.807,0,0,1-.2.273.948.948,0,0,1-.313.192A1.076,1.076,0,0,1,401.707,222.7Zm-.6-1.221h1.213a.65.65,0,0,0-.1-.311.637.637,0,0,0-.22-.211.577.577,0,0,0-.293-.076.569.569,0,0,0-.29.076.63.63,0,0,0-.217.211.662.662,0,0,0-.1.311Z" transform="translate(797.256 3044.542)" fill="#455a64"/>
    <path id="Path_1559" data-name="Path 1559" d="M408.513,219.381v2.831h-.434v-1.248H406.7v1.248h-.43v-2.831h.43v1.184h1.375v-1.184Z" transform="translate(795.127 3044.988)" fill="#455a64"/>
    <path id="Path_1560" data-name="Path 1560" d="M411.6,222.7a1.027,1.027,0,0,1-.426-.085.979.979,0,0,1-.324-.235,1.054,1.054,0,0,1-.209-.341,1.133,1.133,0,0,1-.073-.409,1.146,1.146,0,0,1,.073-.41,1.022,1.022,0,0,1,.209-.341.962.962,0,0,1,.326-.233,1.094,1.094,0,0,1,.849,0,.97.97,0,0,1,.326.233,1.038,1.038,0,0,1,.209.341,1.16,1.16,0,0,1,.073.41,1.146,1.146,0,0,1-.073.409,1.064,1.064,0,0,1-.209.341.968.968,0,0,1-.326.235A1.032,1.032,0,0,1,411.6,222.7Zm-.6-1.068a.762.762,0,0,0,.081.354.651.651,0,0,0,.215.248.526.526,0,0,0,.3.091.533.533,0,0,0,.3-.092.645.645,0,0,0,.217-.252.813.813,0,0,0,0-.706.669.669,0,0,0-.217-.249.525.525,0,0,0-.3-.092.517.517,0,0,0-.3.094.688.688,0,0,0-.215.25A.758.758,0,0,0,411,221.632Z" transform="translate(793.496 3044.541)" fill="#455a64"/>
    <path id="Path_1561" data-name="Path 1561" d="M414.524,221.875v-1.266h.422v1.177a.727.727,0,0,0,.1.417.326.326,0,0,0,.286.14.56.56,0,0,0,.233-.051.656.656,0,0,0,.207-.152.761.761,0,0,0,.152-.241v-1.29h.422v1.576a.164.164,0,0,0,.027.107.121.121,0,0,0,.088.035v.351c-.044.008-.079.012-.108.016a.723.723,0,0,1-.081,0,.289.289,0,0,1-.192-.065.251.251,0,0,1-.088-.168l-.007-.207a.9.9,0,0,1-.349.342.97.97,0,0,1-.472.117.562.562,0,0,1-.476-.214,1.029,1.029,0,0,1-.161-.629Z" transform="translate(791.995 3044.522)" fill="#455a64"/>
    <path id="Path_1562" data-name="Path 1562" d="M419.5,220.95a.869.869,0,0,0-.435.115.623.623,0,0,0-.271.315v1.277h-.422v-2.07h.392v.451a.937.937,0,0,1,.272-.344.646.646,0,0,1,.357-.142h.063a.23.23,0,0,1,.044,0v.4Z" transform="translate(790.533 3044.544)" fill="#455a64"/>
    <path id="Path_1563" data-name="Path 1563" d="M421.36,222.7a1.331,1.331,0,0,1-.48-.086,1.014,1.014,0,0,1-.388-.257l.158-.295a1.171,1.171,0,0,0,.347.231.9.9,0,0,0,.347.073.539.539,0,0,0,.288-.069.222.222,0,0,0,.112-.2.178.178,0,0,0-.058-.146.528.528,0,0,0-.167-.083c-.073-.024-.161-.05-.263-.079a2.447,2.447,0,0,1-.361-.141.565.565,0,0,1-.219-.18.475.475,0,0,1-.073-.272.578.578,0,0,1,.1-.343.625.625,0,0,1,.278-.218,1.058,1.058,0,0,1,.413-.076,1.146,1.146,0,0,1,.405.07.885.885,0,0,1,.328.217l-.18.292a.949.949,0,0,0-.274-.187.764.764,0,0,0-.3-.06.715.715,0,0,0-.177.022.293.293,0,0,0-.14.079.218.218,0,0,0-.056.159.2.2,0,0,0,.046.135.361.361,0,0,0,.138.087q.092.035.227.078a4.154,4.154,0,0,1,.4.14.656.656,0,0,1,.256.177.454.454,0,0,1,.091.3.559.559,0,0,1-.217.467.925.925,0,0,1-.578.167Z" transform="translate(789.729 3044.542)" fill="#455a64"/>
    <path id="Path_1564" data-name="Path 1564" d="M377.253,329.066H563.47a3.465,3.465,0,0,1,3.178,3.693v96.025a3.466,3.466,0,0,1-3.178,3.694H377.253a3.465,3.465,0,0,1-3.178-3.694V332.759A3.464,3.464,0,0,1,377.253,329.066Z" transform="translate(807.352 3003.965)" fill="#fff" stroke="#e4e4e4" stroke-width="0.5"/>
    <path id="Path_1565" data-name="Path 1565" d="M513.966,354.152H382.307v2.918H513.966Z" transform="translate(804.226 2994.441)" fill="#cdccd6"/>
    <path id="Path_1566" data-name="Path 1566" d="M500.479,393.349H382.307v2.918H500.479Z" transform="translate(804.226 2979.56)" fill="#cdccd6"/>
    <path id="Path_1567" data-name="Path 1567" d="M481.694,373.75H382.307v2.918h99.387Z" transform="translate(804.226 2987)" fill="#cdccd6"/>
    <path id="Path_1568" data-name="Path 1568" d="M466.748,412.947H382.307v2.918h84.441Z" transform="translate(804.226 2972.119)" fill="#cdccd6"/>
    <path id="Path_1569" data-name="Path 1569" d="M479.446,431.271H382.307v2.918h97.139Z" transform="translate(804.226 2965.162)" fill="#cdccd6"/>
    <path id="Path_1570" data-name="Path 1570" d="M453.654,450.869H382.307v2.918h71.347Z" transform="translate(804.226 2957.721)" fill="#cdccd6"/>
    <path id="Path_1571" data-name="Path 1571" d="M507.174,469.193H382.307v2.918H507.174Z" transform="translate(804.226 2950.764)" fill="#cdccd6"/>
    <path id="Path_1572" data-name="Path 1572" d="M383.21,338.376h.407l1.06,2.831h-.453l-.266-.77h-1.09l-.267.77h-.457l1.067-2.831Zm.633,1.73-.429-1.24-.432,1.24Z" transform="translate(804.288 3000.431)" fill="#455a64"/>
    <path id="Path_1573" data-name="Path 1573" d="M388.535,341.653h-.422V340.5a.771.771,0,0,0-.091-.422.3.3,0,0,0-.266-.135.524.524,0,0,0-.244.063.736.736,0,0,0-.217.17.653.653,0,0,0-.138.249v1.228h-.422v-2.069h.384V340a.81.81,0,0,1,.2-.239.941.941,0,0,1,.282-.156.993.993,0,0,1,.334-.055.59.59,0,0,1,.3.067.49.49,0,0,1,.184.184.776.776,0,0,1,.092.269,2.042,2.042,0,0,1,.025.321v1.26Z" transform="translate(802.545 2999.984)" fill="#455a64"/>
    <path id="Path_1574" data-name="Path 1574" d="M392.28,341.653h-.422V340.5a.771.771,0,0,0-.09-.422.3.3,0,0,0-.267-.135.526.526,0,0,0-.244.063.734.734,0,0,0-.216.17.644.644,0,0,0-.138.249v1.228h-.422v-2.069h.383V340a.8.8,0,0,1,.2-.239.945.945,0,0,1,.282-.156,1,1,0,0,1,.334-.055.59.59,0,0,1,.3.067.49.49,0,0,1,.184.184.776.776,0,0,1,.092.269,1.964,1.964,0,0,1,.025.321v1.26Z" transform="translate(801.124 2999.984)" fill="#455a64"/>
    <path id="Path_1575" data-name="Path 1575" d="M395.047,341.694a1.027,1.027,0,0,1-.426-.084.976.976,0,0,1-.325-.235,1.055,1.055,0,0,1-.209-.341,1.145,1.145,0,0,1-.073-.409,1.158,1.158,0,0,1,.073-.411,1.034,1.034,0,0,1,.209-.341.979.979,0,0,1,.326-.233,1.1,1.1,0,0,1,.849,0,.966.966,0,0,1,.326.233,1.029,1.029,0,0,1,.209.341,1.145,1.145,0,0,1,.073.411,1.133,1.133,0,0,1-.073.409,1.054,1.054,0,0,1-.209.341.963.963,0,0,1-.326.235A1.029,1.029,0,0,1,395.047,341.694Zm-.6-1.066a.762.762,0,0,0,.081.354.644.644,0,0,0,.215.247.533.533,0,0,0,.3.091.526.526,0,0,0,.3-.093.648.648,0,0,0,.217-.252.806.806,0,0,0,0-.705.66.66,0,0,0-.217-.25.538.538,0,0,0-.605,0,.68.68,0,0,0-.215.25A.757.757,0,0,0,394.448,340.627Z" transform="translate(799.782 2999.983)" fill="#455a64"/>
    <path id="Path_1576" data-name="Path 1576" d="M397.969,340.871V339.6h.422v1.177a.731.731,0,0,0,.1.417.327.327,0,0,0,.286.141.552.552,0,0,0,.233-.052.657.657,0,0,0,.208-.151.769.769,0,0,0,.151-.241V339.6h.422v1.576a.166.166,0,0,0,.027.107.121.121,0,0,0,.088.035v.352c-.043.007-.079.012-.107.016s-.055,0-.081,0a.284.284,0,0,1-.192-.066.243.243,0,0,1-.088-.167l-.007-.206a.906.906,0,0,1-.35.342.977.977,0,0,1-.472.117.562.562,0,0,1-.476-.213,1.033,1.033,0,0,1-.161-.628Z" transform="translate(798.28 2999.964)" fill="#455a64"/>
    <path id="Path_1577" data-name="Path 1577" d="M403.618,341.653H403.2V340.5a.771.771,0,0,0-.09-.422.3.3,0,0,0-.267-.135.521.521,0,0,0-.244.063.736.736,0,0,0-.217.17.653.653,0,0,0-.138.249v1.228h-.422v-2.069h.384V340a.81.81,0,0,1,.2-.239.944.944,0,0,1,.283-.156.987.987,0,0,1,.334-.055.59.59,0,0,1,.3.067.49.49,0,0,1,.184.184.764.764,0,0,1,.092.269,1.9,1.9,0,0,1,.025.321v1.26Z" transform="translate(796.819 2999.984)" fill="#455a64"/>
    <path id="Path_1578" data-name="Path 1578" d="M406.392,341.693a1.028,1.028,0,0,1-.424-.084,1,1,0,0,1-.329-.235,1.068,1.068,0,0,1-.213-.344,1.174,1.174,0,0,1,.053-.944,1.058,1.058,0,0,1,1.447-.391.863.863,0,0,1,.336.377l-.411.136a.515.515,0,0,0-.194-.205.526.526,0,0,0-.275-.074.548.548,0,0,0-.305.088.611.611,0,0,0-.215.244.782.782,0,0,0-.078.36.772.772,0,0,0,.081.355.655.655,0,0,0,.217.252.532.532,0,0,0,.305.092.568.568,0,0,0,.373-.141.386.386,0,0,0,.1-.146l.414.128a.8.8,0,0,1-.194.275.985.985,0,0,1-.3.189,1.058,1.058,0,0,1-.39.069Z" transform="translate(795.477 2999.983)" fill="#455a64"/>
    <path id="Path_1579" data-name="Path 1579" d="M409.871,341.693a1.048,1.048,0,0,1-.425-.084,1.009,1.009,0,0,1-.328-.234,1.059,1.059,0,0,1-.213-.341,1.157,1.157,0,0,1,.055-.944,1.023,1.023,0,0,1,.365-.39,1.006,1.006,0,0,1,.549-.148.978.978,0,0,1,.543.148,1.025,1.025,0,0,1,.355.389,1.094,1.094,0,0,1,.127.517c0,.032,0,.061,0,.089s0,.051-.007.069h-1.609a.656.656,0,0,0,.1.318.633.633,0,0,0,.221.212.58.58,0,0,0,.288.077.629.629,0,0,0,.32-.087.451.451,0,0,0,.206-.231l.361.107a.816.816,0,0,1-.2.274.993.993,0,0,1-.313.191,1.078,1.078,0,0,1-.391.069Zm-.6-1.22h1.213a.642.642,0,0,0-.1-.31.633.633,0,0,0-.22-.212.577.577,0,0,0-.293-.076.57.57,0,0,0-.29.076.621.621,0,0,0-.217.212.654.654,0,0,0-.1.31Z" transform="translate(794.157 2999.984)" fill="#455a64"/>
    <path id="Path_1580" data-name="Path 1580" d="M415.844,341.652h-.422V340.5a.758.758,0,0,0-.092-.422.305.305,0,0,0-.269-.135.486.486,0,0,0-.329.136.732.732,0,0,0-.213.353v1.221H414.1V340.5a.752.752,0,0,0-.092-.422.3.3,0,0,0-.265-.134.491.491,0,0,0-.329.133.736.736,0,0,0-.217.349v1.228h-.422v-2.069h.384V340a.869.869,0,0,1,.313-.334.853.853,0,0,1,.444-.117.556.556,0,0,1,.394.134.583.583,0,0,1,.178.336.976.976,0,0,1,.321-.349.793.793,0,0,1,.435-.121.6.6,0,0,1,.3.067.472.472,0,0,1,.184.184.879.879,0,0,1,.094.269,1.786,1.786,0,0,1,.028.322v1.26Z" transform="translate(792.66 2999.985)" fill="#455a64"/>
    <path id="Path_1581" data-name="Path 1581" d="M419.389,341.693a1.043,1.043,0,0,1-.424-.084,1.009,1.009,0,0,1-.328-.234,1.048,1.048,0,0,1-.213-.341,1.158,1.158,0,0,1,.055-.944,1.021,1.021,0,0,1,.365-.39,1.007,1.007,0,0,1,.549-.148.978.978,0,0,1,.543.148,1.024,1.024,0,0,1,.355.389,1.087,1.087,0,0,1,.127.517c0,.032,0,.061,0,.089l-.007.069H418.8a.657.657,0,0,0,.1.318.627.627,0,0,0,.22.212.58.58,0,0,0,.288.077.632.632,0,0,0,.321-.087.45.45,0,0,0,.205-.231l.361.107a.807.807,0,0,1-.2.274.986.986,0,0,1-.313.191,1.074,1.074,0,0,1-.391.069Zm-.6-1.22H420a.641.641,0,0,0-.317-.522.578.578,0,0,0-.293-.076.57.57,0,0,0-.29.076.621.621,0,0,0-.217.212.655.655,0,0,0-.1.31Z" transform="translate(790.542 2999.984)" fill="#455a64"/>
    <path id="Path_1582" data-name="Path 1582" d="M424.092,341.653h-.422V340.5a.771.771,0,0,0-.091-.422.3.3,0,0,0-.267-.135.521.521,0,0,0-.244.063.736.736,0,0,0-.217.17.653.653,0,0,0-.138.249v1.228h-.422v-2.069h.384V340a.8.8,0,0,1,.2-.239.949.949,0,0,1,.282-.156.992.992,0,0,1,.334-.055.593.593,0,0,1,.3.067.494.494,0,0,1,.184.184.8.8,0,0,1,.092.269,2.042,2.042,0,0,1,.025.321v1.26Z" transform="translate(789.046 2999.984)" fill="#455a64"/>
    <path id="Path_1583" data-name="Path 1583" d="M427.031,341.153c-.036.019-.081.038-.134.06a1.3,1.3,0,0,1-.182.055.9.9,0,0,1-.209.024.6.6,0,0,1-.242-.047.394.394,0,0,1-.179-.153.5.5,0,0,1-.067-.273v-1.3h-.265v-.339h.265V338.5h.422v.686h.438v.339h-.438v1.158a.224.224,0,0,0,.067.159.219.219,0,0,0,.148.052.458.458,0,0,0,.169-.032c.054-.022.094-.038.119-.052l.088.347Z" transform="translate(787.731 3000.385)" fill="#455a64"/>
    <path id="Path_1584" data-name="Path 1584" d="M140.506,220.131v-2.017l-.8,1.531h-.253l-.806-1.531v2.017h-.43V217.3h.461l.9,1.731.9-1.731h.461v2.831Z" transform="translate(830.762 3045.158)" fill="#455a64"/>
    <path id="Path_1585" data-name="Path 1585" d="M144.336,220.618a1.033,1.033,0,0,1-.424-.085,1.008,1.008,0,0,1-.328-.233,1.059,1.059,0,0,1-.213-.341,1.159,1.159,0,0,1,.055-.944,1.034,1.034,0,0,1,.365-.39,1.006,1.006,0,0,1,.55-.148.984.984,0,0,1,.543.148,1.038,1.038,0,0,1,.355.389,1.1,1.1,0,0,1,.127.517c0,.032,0,.061,0,.089s-.006.05-.007.069h-1.609a.654.654,0,0,0,.1.317.621.621,0,0,0,.22.212.563.563,0,0,0,.288.077.624.624,0,0,0,.321-.087.445.445,0,0,0,.205-.231l.361.107a.8.8,0,0,1-.2.274.968.968,0,0,1-.313.191,1.075,1.075,0,0,1-.391.07Zm-.6-1.221h1.213a.643.643,0,0,0-.1-.31.621.621,0,0,0-.219-.212.582.582,0,0,0-.293-.076.574.574,0,0,0-.29.076.616.616,0,0,0-.217.212A.655.655,0,0,0,143.733,219.4Z" transform="translate(828.832 3044.711)" fill="#455a64"/>
    <path id="Path_1586" data-name="Path 1586" d="M149.038,220.578h-.422v-1.155a.771.771,0,0,0-.091-.422.3.3,0,0,0-.267-.134.53.53,0,0,0-.244.063.756.756,0,0,0-.217.17.661.661,0,0,0-.138.249v1.228h-.422v-2.069h.384v.418a.818.818,0,0,1,.2-.239.948.948,0,0,1,.282-.156,1.008,1.008,0,0,1,.334-.055.59.59,0,0,1,.3.067.486.486,0,0,1,.184.184.773.773,0,0,1,.092.269,1.972,1.972,0,0,1,.025.322v1.26Z" transform="translate(827.335 3044.711)" fill="#455a64"/>
    <path id="Path_1587" data-name="Path 1587" d="M150.952,219.794v-1.266h.422V219.7a.733.733,0,0,0,.1.417.327.327,0,0,0,.286.14.547.547,0,0,0,.232-.051.64.64,0,0,0,.208-.151.763.763,0,0,0,.151-.242v-1.29h.422V220.1a.165.165,0,0,0,.027.107.122.122,0,0,0,.088.035v.35c-.044.008-.079.013-.108.016a.727.727,0,0,1-.081,0,.288.288,0,0,1-.192-.065.248.248,0,0,1-.088-.168l-.008-.206a.911.911,0,0,1-.349.342.981.981,0,0,1-.472.117.56.56,0,0,1-.476-.214,1.031,1.031,0,0,1-.161-.629Z" transform="translate(825.926 3044.692)" fill="#455a64"/>
    <path id="Path_1588" data-name="Path 1588" d="M210.764,235.258c.123.123-.181.44-.311.3s-1.423-1.553-1.423-1.553l.22-.252c0,.006,1.391,1.377,1.514,1.5Z" transform="translate(952.722 3038.91)" fill="#72005d"/>
    <path id="Path_1589" data-name="Path 1589" d="M207.4,232.349l-.414-.459a.479.479,0,0,1-.615-.058c-.13-.175-.6-.757-.6-.757-.038-.058.039-.123.078-.071l.459.479c.064.025.136-.058.11-.11l-.466-.478c-.025-.051.039-.1.078-.064l.459.46a.08.08,0,0,0,.116-.11s-.414-.434-.446-.466.038-.11.084-.065.453.466.453.466c.065.045.142-.045.1-.1,0,0-.395-.408-.446-.459s.032-.123.09-.078l.712.647a.578.578,0,0,1,.038.608l.42.4-.22.22Z" transform="translate(953.96 3040.162)" fill="#72005d"/>
    <path id="Path_1590" data-name="Path 1590" d="M208.633,232.4a.274.274,0,0,1-.408-.064c-.012-.013-.032-.026-.051,0l-.116.135-.337.369c-.3.323-1.28,1.352-1.391,1.462-.129.129-.42-.149-.291-.285s1.216-1.242,1.475-1.507l.265-.265s1.319-1.339,1.585-1.61.44.55.129.867S208.633,232.4,208.633,232.4Z" transform="translate(953.87 3040.114)" fill="#72005d"/>
    <path id="Path_1591" data-name="Path 1591" d="M210.764,254.463c.123.123-.181.44-.311.3s-1.423-1.553-1.423-1.553l.22-.252c0,.007,1.391,1.378,1.514,1.5Z" transform="translate(952.722 3031.618)" fill="#72005d"/>
    <path id="Path_1592" data-name="Path 1592" d="M207.4,251.555l-.414-.459a.479.479,0,0,1-.615-.058c-.13-.175-.6-.757-.6-.757-.038-.058.039-.123.078-.071l.459.478c.064.026.136-.058.11-.11l-.466-.478c-.025-.051.039-.1.078-.064l.459.46a.08.08,0,0,0,.116-.11s-.414-.434-.446-.466.038-.11.084-.064.453.466.453.466c.065.045.142-.045.1-.1,0,0-.395-.408-.446-.459s.032-.123.09-.078l.712.647a.578.578,0,0,1,.038.608l.42.4-.22.22Z" transform="translate(953.96 3032.87)" fill="#72005d"/>
    <path id="Path_1593" data-name="Path 1593" d="M208.633,251.61a.274.274,0,0,1-.408-.065c-.012-.012-.032-.025-.051,0l-.116.136-.337.368c-.3.323-1.28,1.352-1.391,1.462-.129.129-.42-.149-.291-.285s1.216-1.242,1.475-1.507l.265-.265s1.319-1.339,1.585-1.61.44.55.129.867S208.633,251.61,208.633,251.61Z" transform="translate(953.87 3032.822)" fill="#72005d"/>
    <path id="Path_1594" data-name="Path 1594" d="M210.764,273.67c.123.123-.181.44-.311.3s-1.423-1.553-1.423-1.553l.22-.252c0,.006,1.391,1.378,1.514,1.5Z" transform="translate(952.722 3024.326)" fill="#72005d"/>
    <path id="Path_1595" data-name="Path 1595" d="M207.4,270.762l-.414-.46a.479.479,0,0,1-.615-.058c-.13-.175-.6-.757-.6-.757-.038-.058.039-.123.078-.071l.459.478c.064.026.136-.058.11-.11l-.466-.478c-.025-.052.039-.1.078-.065l.459.46a.08.08,0,0,0,.116-.11s-.414-.434-.446-.466.038-.11.084-.065.453.466.453.466c.065.045.142-.046.1-.1l-.446-.46c-.052-.051.032-.123.09-.078l.712.647a.577.577,0,0,1,.038.608l.42.4-.22.22Z" transform="translate(953.96 3025.578)" fill="#72005d"/>
    <path id="Path_1596" data-name="Path 1596" d="M208.633,270.816a.274.274,0,0,1-.408-.064c-.012-.012-.032-.025-.051,0l-.116.136-.337.368c-.3.323-1.28,1.352-1.391,1.461-.129.13-.42-.149-.291-.284s1.216-1.242,1.475-1.507l.265-.265s1.319-1.339,1.585-1.61.44.55.129.866S208.633,270.816,208.633,270.816Z" transform="translate(953.87 3025.53)" fill="#72005d"/>
    <path id="Path_1597" data-name="Path 1597" d="M210.764,292.877c.123.123-.181.44-.311.3s-1.423-1.553-1.423-1.553l.22-.252c0,.006,1.391,1.378,1.514,1.5Z" transform="translate(952.722 3017.034)" fill="#72005d"/>
    <path id="Path_1598" data-name="Path 1598" d="M207.4,289.969l-.414-.46a.478.478,0,0,1-.615-.058c-.13-.174-.6-.756-.6-.756-.038-.058.039-.123.078-.071l.459.478c.064.026.136-.058.11-.11l-.466-.478c-.025-.052.039-.1.078-.065l.459.459a.08.08,0,0,0,.116-.11s-.414-.434-.446-.466.038-.11.084-.064.453.465.453.465c.065.046.142-.045.1-.1,0,0-.395-.408-.446-.46s.032-.123.09-.078.712.647.712.647a.577.577,0,0,1,.038.607l.42.4-.22.22Z" transform="translate(953.96 3018.286)" fill="#72005d"/>
    <path id="Path_1599" data-name="Path 1599" d="M208.633,290.023a.275.275,0,0,1-.408-.064c-.012-.012-.032-.026-.051,0l-.116.136-.337.368c-.3.323-1.28,1.352-1.391,1.462-.129.13-.42-.149-.291-.285s1.216-1.242,1.475-1.507l.265-.265s1.319-1.339,1.585-1.611.44.55.129.867S208.633,290.023,208.633,290.023Z" transform="translate(953.87 3018.238)" fill="#72005d"/>
    <path id="Path_1600" data-name="Path 1600" d="M210.764,312.083c.123.123-.181.44-.311.3s-1.423-1.552-1.423-1.552l.22-.252c0,.006,1.391,1.378,1.514,1.5Z" transform="translate(952.722 3009.742)" fill="#72005d"/>
    <path id="Path_1601" data-name="Path 1601" d="M207.4,309.175l-.414-.46a.479.479,0,0,1-.615-.058c-.13-.174-.6-.757-.6-.757-.038-.058.039-.123.078-.071l.459.478c.064.025.136-.058.11-.11l-.466-.479c-.025-.051.039-.1.078-.064l.459.459a.08.08,0,0,0,.116-.11s-.414-.434-.446-.466.038-.11.084-.064.453.465.453.465c.065.045.142-.045.1-.1,0,0-.395-.408-.446-.459s.032-.123.09-.078.712.647.712.647a.576.576,0,0,1,.038.607l.42.4-.22.22Z" transform="translate(953.96 3010.994)" fill="#72005d"/>
    <path id="Path_1602" data-name="Path 1602" d="M208.633,309.23a.275.275,0,0,1-.408-.065c-.012-.013-.032-.026-.051,0l-.116.136-.337.368c-.3.323-1.28,1.352-1.391,1.461-.129.13-.42-.149-.291-.285s1.216-1.242,1.475-1.507l.265-.265s1.319-1.339,1.585-1.61.44.55.129.867S208.633,309.23,208.633,309.23Z" transform="translate(953.87 3010.946)" fill="#72005d"/>
    <path id="Path_1603" data-name="Path 1603" d="M210.764,331.29c.123.123-.181.44-.311.3s-1.423-1.553-1.423-1.553l.22-.252c0,.006,1.391,1.377,1.514,1.5Z" transform="translate(952.722 3002.45)" fill="#72005d"/>
    <path id="Path_1604" data-name="Path 1604" d="M207.4,328.381l-.414-.459a.479.479,0,0,1-.615-.058c-.13-.175-.6-.757-.6-.757-.038-.058.039-.123.078-.071l.459.479c.064.025.136-.058.11-.11l-.466-.478c-.025-.051.039-.1.078-.064l.459.46a.08.08,0,0,0,.116-.11s-.414-.434-.446-.466.038-.11.084-.065.453.466.453.466c.065.045.142-.045.1-.1,0,0-.395-.408-.446-.459s.032-.123.09-.078l.712.647a.578.578,0,0,1,.038.608l.42.4-.22.22Z" transform="translate(953.96 3003.702)" fill="#72005d"/>
    <path id="Path_1605" data-name="Path 1605" d="M208.633,328.436a.275.275,0,0,1-.408-.065c-.012-.013-.032-.026-.051,0l-.116.135-.337.369c-.3.323-1.28,1.352-1.391,1.462-.129.129-.42-.149-.291-.285s1.216-1.242,1.475-1.507l.265-.266s1.319-1.339,1.585-1.61.44.55.129.867S208.633,328.436,208.633,328.436Z" transform="translate(953.87 3003.654)" fill="#72005d"/>
    <path id="Path_1606" data-name="Path 1606" d="M759.789,160.574H620.106a2.618,2.618,0,0,0-2.618,2.617v72.5a2.618,2.618,0,0,0,2.618,2.617H759.789a2.617,2.617,0,0,0,2.618-2.617v-72.5A2.617,2.617,0,0,0,759.789,160.574Z" transform="translate(765.207 3069.176)" fill="#fff" stroke="#e4e4e4" stroke-width="0.5"/>
    <path id="Path_1607" data-name="Path 1607" d="M759.509,294.331h-139.4a2.618,2.618,0,0,0-2.618,2.618v117.8a2.618,2.618,0,0,0,2.618,2.618h139.4a2.618,2.618,0,0,0,2.618-2.618v-117.8A2.618,2.618,0,0,0,759.509,294.331Z" transform="translate(765.207 3019.634)" fill="#fff" stroke="#e4e4e4" stroke-width="0.5"/>
    <path id="Path_1608" data-name="Path 1608" d="M757.581,319.226H628.123A2.7,2.7,0,0,0,625.506,322v96.023a2.7,2.7,0,0,0,2.617,2.776H757.581a2.7,2.7,0,0,0,2.617-2.776V322A2.7,2.7,0,0,0,757.581,319.226Z" transform="translate(762.163 3010.183)" fill="#e9eef1"/>
    <path id="Path_1609" data-name="Path 1609" d="M737.419,390.339l-17.275,9.974V380.365Z" transform="translate(726.232 2986.97)" fill="#fff"/>
    <path id="Path_1610" data-name="Path 1610" d="M628.784,172.7a.69.69,0,0,1-.118.4.8.8,0,0,1-.317.268.993.993,0,0,1-.437.1H626.5V170.5h1.479a.575.575,0,0,1,.359.113.669.669,0,0,1,.236.285.828.828,0,0,1,.084.36.789.789,0,0,1-.112.411.676.676,0,0,1-.315.28.724.724,0,0,1,.4.28.765.765,0,0,1,.151.477Zm-.382-.067a.531.531,0,0,0-.063-.256.479.479,0,0,0-.162-.189.394.394,0,0,0-.236-.071h-1.062v1.022h1.033a.447.447,0,0,0,.249-.071.51.51,0,0,0,.176-.184.5.5,0,0,0,.065-.251Zm-1.523-1.813v.993h.947a.4.4,0,0,0,.233-.067.462.462,0,0,0,.165-.18.506.506,0,0,0,.063-.248.522.522,0,0,0-.06-.251.436.436,0,0,0-.154-.18.381.381,0,0,0-.223-.067Zm2.382-.411h.369v2.492c0,.12.015.194.05.222a.187.187,0,0,0,.123.042.789.789,0,0,0,.167-.017c.052-.014.1-.028.133-.042l.058.3a1.189,1.189,0,0,1-.217.063,1.143,1.143,0,0,1-.222.025.465.465,0,0,1-.337-.122.457.457,0,0,1-.123-.339v-2.626Zm2.146,3.1a1.12,1.12,0,0,1-.45-.088,1.1,1.1,0,0,1-.346-.247,1.157,1.157,0,0,1-.228-.365,1.241,1.241,0,0,1,0-.867,1.111,1.111,0,0,1,.228-.36,1.011,1.011,0,0,1,.346-.247,1.1,1.1,0,0,1,.453-.092,1.077,1.077,0,0,1,.793.339,1.116,1.116,0,0,1,.23.36,1.231,1.231,0,0,1,0,.867,1.156,1.156,0,0,1-.228.365,1.063,1.063,0,0,1-.8.335Zm-.725-1.127a.854.854,0,0,0,.1.411.81.81,0,0,0,.262.293.663.663,0,0,0,.367.1.652.652,0,0,0,.364-.109.775.775,0,0,0,.264-.293.882.882,0,0,0,.1-.414.857.857,0,0,0-.1-.411.773.773,0,0,0-.264-.293.647.647,0,0,0-.364-.109.627.627,0,0,0-.367.113.81.81,0,0,0-.262.293A.864.864,0,0,0,630.681,172.387Zm3.146,1.11a.957.957,0,0,1-.408-.088,1.021,1.021,0,0,1-.32-.248,1.218,1.218,0,0,1-.21-.36,1.254,1.254,0,0,1-.071-.419,1.33,1.33,0,0,1,.071-.436,1.144,1.144,0,0,1,.21-.36.987.987,0,0,1,.322-.248.914.914,0,0,1,.411-.092.835.835,0,0,1,.474.135,1.2,1.2,0,0,1,.343.339v-.435h.327v2.161a.876.876,0,0,1-.151.524.9.9,0,0,1-.4.323,1.355,1.355,0,0,1-.563.113,1.238,1.238,0,0,1-.6-.13,1.164,1.164,0,0,1-.39-.352l.214-.189a.805.805,0,0,0,.335.288,1.051,1.051,0,0,0,.442.1.908.908,0,0,0,.37-.075.6.6,0,0,0,.272-.222.638.638,0,0,0,.1-.377v-.385a.926.926,0,0,1-.78.435Zm.115-.3a.606.606,0,0,0,.225-.042.875.875,0,0,0,.2-.109.779.779,0,0,0,.155-.159.5.5,0,0,0,.084-.18v-.628a.831.831,0,0,0-.413-.444.65.65,0,0,0-.285-.067.623.623,0,0,0-.3.071.687.687,0,0,0-.223.192.879.879,0,0,0-.144.264.977.977,0,0,0-.05.3.832.832,0,0,0,.06.31.921.921,0,0,0,.157.256.7.7,0,0,0,.241.176.689.689,0,0,0,.293.063Z" transform="translate(761.785 3065.44)" fill="#455a64"/>
    <path id="Path_1611" data-name="Path 1611" d="M755.384,185.469H647.024v3.141h108.36Z" transform="translate(753.994 3059.725)" fill="#cdccd6"/>
    <path id="Path_1612" data-name="Path 1612" d="M755.384,227.663H647.024V230.8h108.36Z" transform="translate(753.994 3043.705)" fill="#cdccd6"/>
    <path id="Path_1613" data-name="Path 1613" d="M735.688,206.566H647.024v3.141h88.664Z" transform="translate(753.994 3051.715)" fill="#cdccd6"/>
    <path id="Path_1614" data-name="Path 1614" d="M744.975,248.762H647.024V251.9h97.951Z" transform="translate(753.994 3035.695)" fill="#cdccd6"/>
    <path id="Path_1615" data-name="Path 1615" d="M703.084,192.642h-56.06v3.141h56.06Z" transform="translate(753.994 3057.001)" fill="#f3f3f3"/>
    <path id="Path_1616" data-name="Path 1616" d="M686.23,234.837H647.024v3.141H686.23Z" transform="translate(753.994 3040.981)" fill="#f3f3f3"/>
    <path id="Path_1617" data-name="Path 1617" d="M724.538,213.739H647.024v3.141h77.514Z" transform="translate(753.994 3048.991)" fill="#f3f3f3"/>
    <path id="Path_1618" data-name="Path 1618" d="M710.084,255.934h-63.06v3.141h63.06Z" transform="translate(753.994 3032.972)" fill="#f3f3f3"/>
    <path id="Path_1619" data-name="Path 1619" d="M630.508,194.63a4.581,4.581,0,1,0-4.58-4.581A4.581,4.581,0,0,0,630.508,194.63Z" transform="translate(762.003 3059.725)" fill="#72005d"/>
    <path id="Path_1620" data-name="Path 1620" d="M630.508,236.825a4.581,4.581,0,1,0-4.58-4.581A4.581,4.581,0,0,0,630.508,236.825Z" transform="translate(762.003 3043.705)" fill="#72005d"/>
    <path id="Path_1621" data-name="Path 1621" d="M630.508,215.728a4.58,4.58,0,1,0-4.58-4.58A4.581,4.581,0,0,0,630.508,215.728Z" transform="translate(762.003 3051.715)" fill="#72005d"/>
    <path id="Path_1622" data-name="Path 1622" d="M630.508,257.922a4.58,4.58,0,1,0-4.58-4.581A4.581,4.581,0,0,0,630.508,257.922Z" transform="translate(762.003 3035.694)" fill="#72005d"/>
    <path id="Path_1623" data-name="Path 1623" d="M626.487,304.47l.822,2.284.818-2.284h.457l-1.071,2.831h-.408l-1.075-2.831Z" transform="translate(761.964 3016.405)" fill="#455a64"/>
    <path id="Path_1624" data-name="Path 1624" d="M630.648,304.823v-.482h.422v.482Zm0,2.429v-2.085h.422v2.085Z" transform="translate(760.21 3016.454)" fill="#455a64"/>
    <path id="Path_1625" data-name="Path 1625" d="M631.991,306.221a1.222,1.222,0,0,1,.117-.539.984.984,0,0,1,.321-.388.791.791,0,0,1,.468-.144.742.742,0,0,1,.417.123.9.9,0,0,1,.29.307v-1.24h.422v2.416a.167.167,0,0,0,.027.107.12.12,0,0,0,.088.036v.351a1.206,1.206,0,0,1-.184.019.3.3,0,0,1-.2-.071.235.235,0,0,1-.086-.172l0-.155a.843.843,0,0,1-.718.419.881.881,0,0,1-.382-.083.914.914,0,0,1-.3-.233,1.094,1.094,0,0,1-.2-.343,1.187,1.187,0,0,1-.071-.411Zm1.613.287v-.538a.615.615,0,0,0-.137-.227.744.744,0,0,0-.211-.159.516.516,0,0,0-.233-.058.506.506,0,0,0-.244.058.6.6,0,0,0-.188.158.713.713,0,0,0-.121.225.807.807,0,0,0-.042.263.747.747,0,0,0,.046.266.685.685,0,0,0,.132.22.622.622,0,0,0,.2.149.587.587,0,0,0,.248.053.509.509,0,0,0,.171-.031.711.711,0,0,0,.165-.087.591.591,0,0,0,.134-.13.463.463,0,0,0,.079-.161Z" transform="translate(759.701 3016.454)" fill="#455a64"/>
    <path id="Path_1626" data-name="Path 1626" d="M637.018,307.787a1.033,1.033,0,0,1-.424-.086,1.009,1.009,0,0,1-.329-.233,1.059,1.059,0,0,1-.213-.341,1.129,1.129,0,0,1-.074-.41,1.1,1.1,0,0,1,.13-.534,1.029,1.029,0,0,1,.364-.39,1,1,0,0,1,.549-.148.979.979,0,0,1,.543.148,1.021,1.021,0,0,1,.355.388,1.092,1.092,0,0,1,.127.517c0,.032,0,.061,0,.089s-.006.051-.008.069h-1.608a.663.663,0,0,0,.1.317.626.626,0,0,0,.22.212.567.567,0,0,0,.288.077.638.638,0,0,0,.321-.087.448.448,0,0,0,.205-.231l.361.108a.818.818,0,0,1-.2.274.982.982,0,0,1-.313.191,1.075,1.075,0,0,1-.391.07Zm-.6-1.221h1.213a.641.641,0,0,0-.1-.311.631.631,0,0,0-.219-.211.573.573,0,0,0-.294-.076.563.563,0,0,0-.29.076.624.624,0,0,0-.217.211.666.666,0,0,0-.1.311Z" transform="translate(758.187 3015.338)" fill="#455a64"/>
    <path id="Path_1627" data-name="Path 1627" d="M640.742,307.788a1.032,1.032,0,0,1-.426-.086.961.961,0,0,1-.324-.234,1.071,1.071,0,0,1-.21-.342,1.143,1.143,0,0,1-.073-.408,1.163,1.163,0,0,1,.073-.411,1.055,1.055,0,0,1,.21-.341.965.965,0,0,1,.326-.233,1.03,1.03,0,0,1,.424-.085,1.041,1.041,0,0,1,.425.085.985.985,0,0,1,.326.233,1.062,1.062,0,0,1,.209.341,1.162,1.162,0,0,1,.073.411,1.142,1.142,0,0,1-.073.408,1.078,1.078,0,0,1-.209.342.965.965,0,0,1-.326.234A1.036,1.036,0,0,1,640.742,307.788Zm-.6-1.067a.761.761,0,0,0,.081.354.65.65,0,0,0,.215.247.546.546,0,0,0,.6,0,.653.653,0,0,0,.217-.252.812.812,0,0,0,0-.706.656.656,0,0,0-.217-.25.521.521,0,0,0-.3-.092.514.514,0,0,0-.3.094.677.677,0,0,0-.215.25A.759.759,0,0,0,640.144,306.721Z" transform="translate(756.771 3015.337)" fill="#455a64"/>
    <path id="Path_1628" data-name="Path 1628" d="M646.37,307.308a1.109,1.109,0,0,1-.5-.116,1.286,1.286,0,0,1-.409-.319,1.529,1.529,0,0,1-.272-.462,1.55,1.55,0,0,1-.1-.55,1.515,1.515,0,0,1,.1-.546,1.487,1.487,0,0,1,.272-.454,1.257,1.257,0,0,1,.411-.311,1.31,1.31,0,0,1,1.171.058,1.077,1.077,0,0,1,.4.449l-.33.247a.759.759,0,0,0-.305-.347.838.838,0,0,0-.432-.116.731.731,0,0,0-.349.084.821.821,0,0,0-.27.23,1.026,1.026,0,0,0-.171.331,1.3,1.3,0,0,0-.058.388,1.205,1.205,0,0,0,.066.4,1.033,1.033,0,0,0,.184.329.864.864,0,0,0,.28.221.777.777,0,0,0,.35.079.824.824,0,0,0,.424-.118,1.3,1.3,0,0,0,.378-.353v.455a1.074,1.074,0,0,1-.837.418Zm.8-1.12h-.572v-.331h.933v1.431h-.361Z" transform="translate(754.729 3015.797)" fill="#455a64"/>
    <path id="Path_1629" data-name="Path 1629" d="M649.538,307.143a.568.568,0,0,1,.109-.346.71.71,0,0,1,.3-.23,1.142,1.142,0,0,1,.446-.081,1.989,1.989,0,0,1,.274.02,1.013,1.013,0,0,1,.248.064v-.131a.447.447,0,0,0-.127-.338.5.5,0,0,0-.364-.122.823.823,0,0,0-.319.062,1.933,1.933,0,0,0-.319.173l-.142-.3a1.6,1.6,0,0,1,.4-.208,1.332,1.332,0,0,1,.424-.068.888.888,0,0,1,.636.22.809.809,0,0,1,.233.621v.768a.174.174,0,0,0,.025.107.112.112,0,0,0,.086.035v.351a.833.833,0,0,1-.1.016l-.078,0a.28.28,0,0,1-.2-.068.267.267,0,0,1-.081-.159l-.011-.12a.875.875,0,0,1-.334.271.96.96,0,0,1-.411.1.74.74,0,0,1-.357-.086.61.61,0,0,1-.246-.231.617.617,0,0,1-.088-.328Zm1.279.125a.5.5,0,0,0,.073-.1.2.2,0,0,0,.027-.091v-.234a1.147,1.147,0,0,0-.226-.065,1.324,1.324,0,0,0-.234-.022.68.68,0,0,0-.375.094.294.294,0,0,0-.143.259.336.336,0,0,0,.048.172.357.357,0,0,0,.138.133.449.449,0,0,0,.225.051.645.645,0,0,0,.264-.055.559.559,0,0,0,.2-.141Z" transform="translate(753.039 3015.339)" fill="#455a64"/>
    <path id="Path_1630" data-name="Path 1630" d="M653.32,304.341h.422v2.316a.3.3,0,0,0,.046.2.161.161,0,0,0,.115.045.623.623,0,0,0,.144-.016.6.6,0,0,0,.117-.04l.061.347a1.192,1.192,0,0,1-.219.068,1.069,1.069,0,0,1-.226.029.45.45,0,0,1-.338-.127.479.479,0,0,1-.123-.35v-2.475Z" transform="translate(751.603 3015.834)" fill="#455a64"/>
    <path id="Path_1631" data-name="Path 1631" d="M655.232,304.341h.422v2.316a.3.3,0,0,0,.046.2.162.162,0,0,0,.115.045.624.624,0,0,0,.144-.016.6.6,0,0,0,.117-.04l.061.347a1.193,1.193,0,0,1-.219.068,1.068,1.068,0,0,1-.226.029.449.449,0,0,1-.338-.127.479.479,0,0,1-.123-.35v-2.475Z" transform="translate(750.877 3015.834)" fill="#455a64"/>
    <path id="Path_1632" data-name="Path 1632" d="M657.969,307.787a1.036,1.036,0,0,1-.425-.086,1.006,1.006,0,0,1-.328-.233,1.059,1.059,0,0,1-.213-.341,1.116,1.116,0,0,1-.075-.41,1.1,1.1,0,0,1,.13-.534,1.029,1.029,0,0,1,.364-.39,1,1,0,0,1,.55-.148.979.979,0,0,1,.543.148,1.031,1.031,0,0,1,.355.388,1.1,1.1,0,0,1,.127.517c0,.032,0,.061,0,.089s-.006.051-.008.069h-1.609a.663.663,0,0,0,.1.317.627.627,0,0,0,.221.212.564.564,0,0,0,.288.077.636.636,0,0,0,.32-.087.448.448,0,0,0,.205-.231l.361.108a.815.815,0,0,1-.2.274,1,1,0,0,1-.313.191,1.078,1.078,0,0,1-.392.07Zm-.6-1.221h1.214a.649.649,0,0,0-.1-.311.631.631,0,0,0-.219-.211.572.572,0,0,0-.293-.076.564.564,0,0,0-.29.076.631.631,0,0,0-.217.211.66.66,0,0,0-.1.311Z" transform="translate(750.233 3015.338)" fill="#455a64"/>
    <path id="Path_1633" data-name="Path 1633" d="M662,306.039a.875.875,0,0,0-.435.116.619.619,0,0,0-.271.316v1.275h-.422v-2.069h.392v.45a.948.948,0,0,1,.272-.344.643.643,0,0,1,.357-.141h.064a.227.227,0,0,1,.044,0v.395Z" transform="translate(748.737 3015.34)" fill="#455a64"/>
    <path id="Path_1634" data-name="Path 1634" d="M663.171,308.258l.113.018a.578.578,0,0,0,.09.01.166.166,0,0,0,.114-.042.462.462,0,0,0,.1-.151c.034-.074.074-.181.123-.32l-.825-2.074h.441l.615,1.63.546-1.63h.407l-.91,2.555a.731.731,0,0,1-.123.212.574.574,0,0,1-.2.153.691.691,0,0,1-.377.047c-.033-.006-.07-.014-.111-.024v-.383Z" transform="translate(747.973 3015.318)" fill="#455a64"/>
    <path id="Path_1635" data-name="Path 1635" d="M354.926,130.589a2.473,2.473,0,0,1-2.465-2.465V110.371a2.472,2.472,0,0,1,2.465-2.465H372.68a2.473,2.473,0,0,1,2.464,2.465v17.753a2.473,2.473,0,0,1-2.464,2.465Zm0-21.818a1.6,1.6,0,0,0-1.6,1.6v17.754a1.6,1.6,0,0,0,1.6,1.6H372.68a1.6,1.6,0,0,0,1.6-1.6V110.371a1.6,1.6,0,0,0-1.6-1.6Zm2.635,19.4a2.682,2.682,0,0,1-2.677-2.678V113.005a2.685,2.685,0,0,1,2.676-2.676h12.487a2.686,2.686,0,0,1,2.676,2.678v12.485a2.682,2.682,0,0,1-2.677,2.677Zm-1.812-2.677a1.826,1.826,0,0,0,1.812,1.817h12.486a1.819,1.819,0,0,0,1.812-1.813v-6.224a7.236,7.236,0,0,0-1.258-.4,7.394,7.394,0,0,0-1.589-.171,7.335,7.335,0,0,0-6.469,3.871,6.271,6.271,0,0,1,1.573,2.348.432.432,0,0,1-.252.557l-.041.016-.11.012a.434.434,0,0,1-.4-.279,5.37,5.37,0,0,0-.645-1.21,5.425,5.425,0,0,0-.933-1.011,5.352,5.352,0,0,0-3.449-1.252,5.344,5.344,0,0,0-2.531.63v3.11Zm2.532-4.606a6.228,6.228,0,0,1,3.582,1.131,8.2,8.2,0,0,1,8.924-3.988,8.056,8.056,0,0,1,1.071.315v-5.337a1.818,1.818,0,0,0-1.812-1.812H357.56a1.816,1.816,0,0,0-1.811,1.812v8.415a6.169,6.169,0,0,1,.878-.314,6.264,6.264,0,0,1,1.653-.222Zm1.3-3.567a1.985,1.985,0,0,1,0-3.971h.006a1.985,1.985,0,0,1-.006,3.971Zm0-2.994a1,1,0,1,0,.715.293A1.019,1.019,0,0,0,359.576,114.325Z" transform="translate(805.539 3084.83)" fill="#374151" fill-rule="evenodd"/>
    <path id="Path_1640" data-name="Path 1640" d="M133.824,366.38H336.163a3.558,3.558,0,0,1,3.775,3.293v72.94a3.558,3.558,0,0,1-3.775,3.293H133.824a3.559,3.559,0,0,1-3.775-3.293v-72.94A3.558,3.558,0,0,1,133.824,366.38Z" transform="translate(833.862 2991.039)" fill="#fff"/>
    <path id="Path_1641" data-name="Path 1641" d="M191.271,393.407H159.61v3.143h31.661Z" transform="translate(822.638 2980.778)" fill="#cdccd6"/>
    <path id="Path_1642" data-name="Path 1642" d="M207.6,435.637H159.61v3.144H207.6Z" transform="translate(822.638 2964.745)" fill="#cdccd6"/>
    <path id="Path_1643" data-name="Path 1643" d="M329,393.407h-13.36v3.143H329Z" transform="translate(835.401 2980.778)" fill="#cdccd6"/>
    <path id="Path_1644" data-name="Path 1644" d="M329,435.637h-13.36v3.144H329Z" transform="translate(835.401 2964.745)" fill="#cdccd6"/>
    <path id="Path_1645" data-name="Path 1645" d="M229.027,414.522H159.61v3.143h69.417Z" transform="translate(822.638 2972.761)" fill="#cdccd6"/>
    <path id="Path_1646" data-name="Path 1646" d="M221.039,456.752H159.61V459.9h61.429Z" transform="translate(822.638 2956.729)" fill="#cdccd6"/>
    <path id="Path_1647" data-name="Path 1647" d="M329,414.522h-13.36v3.143H329Z" transform="translate(835.401 2972.761)" fill="#cdccd6"/>
    <path id="Path_1648" data-name="Path 1648" d="M329,456.752h-13.36V459.9H329Z" transform="translate(835.401 2956.729)" fill="#cdccd6"/>
    <path id="Path_1649" data-name="Path 1649" d="M177.395,400.586H159.61v3.144h17.785Z" transform="translate(822.638 2978.053)" fill="#f3f3f3"/>
    <path id="Path_1650" data-name="Path 1650" d="M172.709,442.817h-13.1v3.143h13.1Z" transform="translate(822.638 2962.019)" fill="#f3f3f3"/>
    <path id="Path_1651" data-name="Path 1651" d="M189.541,421.7H159.61v3.144h29.931Z" transform="translate(822.638 2970.036)" fill="#f3f3f3"/>
    <path id="Path_1652" data-name="Path 1652" d="M202.032,463.932H159.61v3.143h42.422Z" transform="translate(822.638 2954.002)" fill="#f3f3f3"/>
    <path id="Path_1653" data-name="Path 1653" d="M143.08,402.576a4.585,4.585,0,1,0-4.585-4.585A4.585,4.585,0,0,0,143.08,402.576Z" transform="translate(830.655 2980.778)" fill="#72005d"/>
    <path id="Path_1654" data-name="Path 1654" d="M143.08,444.806a4.585,4.585,0,1,0-4.585-4.584A4.585,4.585,0,0,0,143.08,444.806Z" transform="translate(830.655 2964.745)" fill="#72005d"/>
    <path id="Path_1655" data-name="Path 1655" d="M143.08,423.691a4.585,4.585,0,1,0-4.585-4.585A4.585,4.585,0,0,0,143.08,423.691Z" transform="translate(830.655 2972.761)" fill="#72005d"/>
    <path id="Path_1656" data-name="Path 1656" d="M143.08,465.922a4.585,4.585,0,1,0-4.585-4.585A4.585,4.585,0,0,0,143.08,465.922Z" transform="translate(830.655 2956.729)" fill="#72005d"/>
    <path id="Path_1657" data-name="Path 1657" d="M141.513,378.678a.667.667,0,0,1-.114.39.731.731,0,0,1-.305.252,1.015,1.015,0,0,1-.422.087h-1.3v-2.831h1.405a.535.535,0,0,1,.333.105.69.69,0,0,1,.215.271.82.82,0,0,1,.075.344.777.777,0,0,1-.1.389.629.629,0,0,1-.29.269.7.7,0,0,1,.371.261A.77.77,0,0,1,141.513,378.678Zm-1.713-1.715v.833h.791a.343.343,0,0,0,.192-.055.38.38,0,0,0,.134-.147.445.445,0,0,0,.05-.213.485.485,0,0,0-.046-.218.368.368,0,0,0-.125-.147.317.317,0,0,0-.182-.054Zm1.271,1.63a.489.489,0,0,0-.048-.216.442.442,0,0,0-.131-.16.315.315,0,0,0-.194-.061h-.9v.865h.872a.373.373,0,0,0,.205-.058.41.41,0,0,0,.142-.156.452.452,0,0,0,.051-.213Z" transform="translate(830.323 2987.168)" fill="#455a64"/>
    <path id="Path_1658" data-name="Path 1658" d="M143.511,376.93v-.483h.422v.483Zm0,2.429v-2.085h.422v2.085Z" transform="translate(828.75 2987.217)" fill="#455a64"/>
    <path id="Path_1659" data-name="Path 1659" d="M146.188,378.145a.872.872,0,0,0-.436.115.623.623,0,0,0-.27.316v1.276h-.422v-2.069h.391v.45a.943.943,0,0,1,.272-.344.646.646,0,0,1,.357-.142h.063a.235.235,0,0,1,.045,0v.395Z" transform="translate(828.163 2986.724)" fill="#455a64"/>
    <path id="Path_1660" data-name="Path 1660" d="M148.441,379.354a1.338,1.338,0,0,1-.134.06,1.3,1.3,0,0,1-.182.056.938.938,0,0,1-.209.024.612.612,0,0,1-.242-.048.39.39,0,0,1-.178-.153.5.5,0,0,1-.068-.272v-1.3h-.265v-.339h.265V376.7h.422v.685h.438v.339h-.438v1.158a.222.222,0,0,0,.068.158.218.218,0,0,0,.148.052.446.446,0,0,0,.169-.032,1.282,1.282,0,0,0,.12-.052l.088.347Z" transform="translate(827.364 2987.122)" fill="#455a64"/>
    <path id="Path_1661" data-name="Path 1661" d="M151.544,379.358h-.422V378.2a.714.714,0,0,0-.1-.418.326.326,0,0,0-.28-.138.488.488,0,0,0-.23.063.711.711,0,0,0-.212.171.675.675,0,0,0-.134.249v1.228h-.422v-2.911h.422v1.26a.867.867,0,0,1,.315-.33.823.823,0,0,1,.429-.12.646.646,0,0,1,.311.067.512.512,0,0,1,.194.184.8.8,0,0,1,.1.269,1.725,1.725,0,0,1,.029.321v1.261Z" transform="translate(826.384 2987.217)" fill="#455a64"/>
    <path id="Path_1662" data-name="Path 1662" d="M153.284,378.328a1.225,1.225,0,0,1,.117-.54.986.986,0,0,1,.321-.387.793.793,0,0,1,.468-.143.738.738,0,0,1,.416.123.9.9,0,0,1,.29.308v-1.241h.422v2.416a.169.169,0,0,0,.027.108.12.12,0,0,0,.088.035v.351a1.226,1.226,0,0,1-.184.02.3.3,0,0,1-.2-.072.237.237,0,0,1-.087-.171l0-.156a.84.84,0,0,1-.718.419.881.881,0,0,1-.382-.083.906.906,0,0,1-.3-.233,1.1,1.1,0,0,1-.2-.343,1.192,1.192,0,0,1-.071-.411Zm1.613.287v-.539a.615.615,0,0,0-.136-.226.743.743,0,0,0-.211-.159.517.517,0,0,0-.233-.058.506.506,0,0,0-.244.058.6.6,0,0,0-.188.158.71.71,0,0,0-.121.224.808.808,0,0,0-.042.263.75.75,0,0,0,.046.266.7.7,0,0,0,.132.22.62.62,0,0,0,.2.149.579.579,0,0,0,.248.053.5.5,0,0,0,.171-.032.711.711,0,0,0,.165-.086.581.581,0,0,0,.134-.13.465.465,0,0,0,.079-.161Z" transform="translate(825.041 2987.217)" fill="#455a64"/>
    <path id="Path_1663" data-name="Path 1663" d="M157.245,379.25a.565.565,0,0,1,.109-.345.711.711,0,0,1,.3-.23,1.154,1.154,0,0,1,.446-.081,2,2,0,0,1,.275.02,1.075,1.075,0,0,1,.248.064v-.131a.445.445,0,0,0-.127-.337.5.5,0,0,0-.364-.122.833.833,0,0,0-.319.061,1.943,1.943,0,0,0-.319.174l-.142-.3a1.58,1.58,0,0,1,.4-.208,1.333,1.333,0,0,1,.424-.068.891.891,0,0,1,.636.219.81.81,0,0,1,.233.621v.769a.174.174,0,0,0,.025.107.112.112,0,0,0,.086.035v.351a.984.984,0,0,1-.1.016l-.078,0a.277.277,0,0,1-.2-.068.266.266,0,0,1-.081-.159l-.011-.12a.867.867,0,0,1-.334.27.96.96,0,0,1-.411.1.74.74,0,0,1-.357-.085.62.62,0,0,1-.334-.559Zm1.279.125a.493.493,0,0,0,.073-.1.2.2,0,0,0,.027-.091v-.235a1.187,1.187,0,0,0-.226-.064,1.322,1.322,0,0,0-.234-.022.675.675,0,0,0-.375.094.293.293,0,0,0-.143.259.334.334,0,0,0,.048.172.363.363,0,0,0,.138.133.449.449,0,0,0,.225.051.656.656,0,0,0,.264-.055.574.574,0,0,0,.2-.141Z" transform="translate(823.536 2986.722)" fill="#455a64"/>
    <path id="Path_1664" data-name="Path 1664" d="M160.838,380.365l.113.018a.579.579,0,0,0,.09.01.165.165,0,0,0,.114-.042.459.459,0,0,0,.1-.152q.05-.111.123-.319l-.825-2.074h.441l.615,1.63.546-1.63h.407l-.91,2.554a.723.723,0,0,1-.123.212.566.566,0,0,1-.2.153.663.663,0,0,1-.28.055.586.586,0,0,1-.1-.008c-.033-.006-.07-.013-.111-.024v-.383Z" transform="translate(822.281 2986.701)" fill="#455a64"/>
    <path id="Path_1665" data-name="Path 1665" d="M164.872,379.894a1.345,1.345,0,0,1-.48-.086,1.023,1.023,0,0,1-.388-.257l.158-.3a1.178,1.178,0,0,0,.347.231.91.91,0,0,0,.347.072.545.545,0,0,0,.288-.068.223.223,0,0,0,.111-.2.181.181,0,0,0-.057-.146.523.523,0,0,0-.167-.082c-.073-.024-.161-.05-.263-.079a2.341,2.341,0,0,1-.361-.141.554.554,0,0,1-.219-.179.475.475,0,0,1-.073-.273.581.581,0,0,1,.1-.343.631.631,0,0,1,.279-.218,1.056,1.056,0,0,1,.413-.075,1.146,1.146,0,0,1,.405.069.894.894,0,0,1,.328.217l-.181.292a.936.936,0,0,0-.275-.187.749.749,0,0,0-.3-.06.71.71,0,0,0-.176.022.3.3,0,0,0-.14.078.221.221,0,0,0-.055.159.2.2,0,0,0,.046.135.356.356,0,0,0,.138.087c.061.024.137.05.226.079a4.073,4.073,0,0,1,.4.14.643.643,0,0,1,.255.177.452.452,0,0,1,.09.3.557.557,0,0,1-.216.467.923.923,0,0,1-.578.167Z" transform="translate(820.97 2986.721)" fill="#455a64"/>
  </g>
</svg>
