<svg xmlns="http://www.w3.org/2000/svg" xmlns:xlink="http://www.w3.org/1999/xlink" width="36" height="36" viewBox="0 0 36 36">
  <defs>
    <clipPath id="clip-path">
      <rect id="Rectangle_1073" data-name="Rectangle 1073" width="26.95" height="18.329" transform="translate(0 0)" fill="#fff"/>
    </clipPath>
  </defs>
  <g id="Group_1069" data-name="Group 1069" transform="translate(-400 -3282)">
    <rect id="Rectangle_132" data-name="Rectangle 132" width="36" height="36" rx="5" transform="translate(400 3282)" fill="#71005d"/>
    <g id="Group_1084" data-name="Group 1084" transform="translate(404.999 3291)">
      <g id="Group_1083" data-name="Group 1083" transform="translate(0 0)" clip-path="url(#clip-path)">
        <path id="Path_6095" data-name="Path 6095" d="M9.256.654a.647.647,0,0,0-.194-.46.642.642,0,0,0-.921,0L.164,8.278l-.012.016a.675.675,0,0,0,.021.88L8.112,18.1a.569.569,0,0,0,.49.227h0a.557.557,0,0,0,.451-.222.709.709,0,0,0,.183-.4.6.6,0,0,0-.167-.482L1.546,8.733l7.516-7.62a.647.647,0,0,0,.194-.46" transform="translate(0 0)" fill="#fff"/>
        <path id="Path_6096" data-name="Path 6096" d="M126.8,8.263l-8-8.069a.65.65,0,0,0-.92.918l7.551,7.62-7.606,8.5-.008.01a.674.674,0,0,0,.523,1.081.622.622,0,0,0,.46-.194l8-8.96a.641.641,0,0,0-.006-.912" transform="translate(-100.045 0)" fill="#fff"/>
        <path id="Path_6097" data-name="Path 6097" d="M73.924,14.367a.672.672,0,0,0-.775.472L69.934,26.92a.6.6,0,0,0,.044.483.644.644,0,0,0,.431.326l.029.006h.136a.718.718,0,0,0,.622-.413l.014-.028L74.4,15.176a.594.594,0,0,0-.044-.482.643.643,0,0,0-.431-.327" transform="translate(-59.424 -12.202)" fill="#fff"/>
      </g>
    </g>
  </g>
</svg>
