<svg xmlns="http://www.w3.org/2000/svg" xmlns:xlink="http://www.w3.org/1999/xlink" width="36" height="36" viewBox="0 0 36 36">
  <defs>
    <clipPath id="clip-path">
      <rect id="Rectangle_1055" data-name="Rectangle 1055" width="21" height="26.439" fill="#fff"/>
    </clipPath>
  </defs>
  <g id="Group_1019" data-name="Group 1019" transform="translate(-678 -2727)">
    <rect id="Rectangle_124" data-name="Rectangle 124" width="36" height="36" rx="5" transform="translate(678 2727)" fill="#71005d"/>
    <g id="Group_1053" data-name="Group 1053" transform="translate(685.5 2731.781)">
      <g id="Group_1052" data-name="Group 1052" clip-path="url(#clip-path)">
        <path id="Path_6047" data-name="Path 6047" d="M38.776,44.5h5.381a.605.605,0,1,0,0-1.21H38.776a.605.605,0,1,0,0,1.21" transform="translate(-30.966 -35.116)" fill="#fff"/>
        <path id="Path_6048" data-name="Path 6048" d="M26.247,55.967a.605.605,0,1,0,0,1.21h10.11a.605.605,0,1,0,0-1.21Z" transform="translate(-20.802 -45.403)" fill="#fff"/>
        <path id="Path_6049" data-name="Path 6049" d="M36.357,68.642H26.247a.605.605,0,1,0,0,1.21h10.11a.605.605,0,1,0,0-1.21" transform="translate(-20.802 -55.686)" fill="#fff"/>
        <path id="Path_6050" data-name="Path 6050" d="M36.357,81.323H26.247a.605.605,0,1,0,0,1.21h10.11a.605.605,0,1,0,0-1.21" transform="translate(-20.802 -65.973)" fill="#fff"/>
        <path id="Path_6051" data-name="Path 6051" d="M21,4.415a3.358,3.358,0,0,0-3.354-3.354H16.16A1.338,1.338,0,0,0,14.843,0H6.156A1.345,1.345,0,0,0,4.837,1.062H3.35A3.355,3.355,0,0,0,0,4.415V23.089a3.353,3.353,0,0,0,3.35,3.35h14.3A3.356,3.356,0,0,0,21,23.089ZM7.758,2.323h5.484a.416.416,0,1,1,0,.833H7.758a.416.416,0,1,1,0-.833m-1.6,3.16h8.687A1.348,1.348,0,0,0,16.176,4.35h.338a1.2,1.2,0,0,1,1.194,1.2V18.49H14.756a2.019,2.019,0,0,0-2.017,2.017v2.639H4.486a1.2,1.2,0,0,1-1.194-1.194V5.548a1.2,1.2,0,0,1,1.194-1.2h.337A1.347,1.347,0,0,0,6.156,5.483m11.49,19.745H3.349A2.142,2.142,0,0,1,1.21,23.089V4.416A2.144,2.144,0,0,1,3.349,2.272H4.8V3.14H4.486a2.409,2.409,0,0,0-2.4,2.408v16.4a2.407,2.407,0,0,0,2.4,2.4h8.421a2.438,2.438,0,0,0,1.641-.642L18.184,20.3a2.409,2.409,0,0,0,.734-1.724V5.548a2.409,2.409,0,0,0-2.4-2.408H16.2V2.272h1.448a2.146,2.146,0,0,1,2.143,2.143V23.089a2.144,2.144,0,0,1-2.143,2.139" fill="#fff"/>
      </g>
    </g>
  </g>
</svg>
