<svg xmlns="http://www.w3.org/2000/svg" xmlns:xlink="http://www.w3.org/1999/xlink" width="36" height="36" viewBox="0 0 36 36">
  <defs>
    <clipPath id="clip-path">
      <rect id="Rectangle_1042" data-name="Rectangle 1042" width="24" height="23.348" fill="none"/>
    </clipPath>
  </defs>
  <g id="Group_877" data-name="Group 877" transform="translate(-678 -3214)">
    <rect id="Rectangle_127" data-name="Rectangle 127" width="36" height="36" rx="5" transform="translate(678 3214)" fill="#71005d"/>
    <g id="Group_1012" data-name="Group 1012" transform="translate(684 3220.326)">
      <g id="Group_1011" data-name="Group 1011" transform="translate(0 0)" clip-path="url(#clip-path)">
        <path id="Path_5994" data-name="Path 5994" d="M4.513,34.438h-2.5A1.44,1.44,0,0,1,.573,33.121L.036,26.9a1.44,1.44,0,0,1,1.435-1.563H5.049A1.438,1.438,0,0,1,6.483,26.9l-.537,6.224A1.438,1.438,0,0,1,4.513,34.438Z" transform="translate(-0.013 -11.09)" fill="#fff"/>
        <path id="Path_5995" data-name="Path 5995" d="M1.245,15.514l0,0-.019.012-.021.008,0,0a2.558,2.558,0,0,0-.883,3.411A4.833,4.833,0,0,0,2.364,20.4a1.432,1.432,0,0,0,1.414-.084v0L3.8,20.3l.02-.01v0a1.433,1.433,0,0,0,.849-1.133,4.825,4.825,0,0,0-.088-2.5A2.557,2.557,0,0,0,1.245,15.514Z" transform="translate(0 -6.69)" fill="#fff"/>
        <path id="Path_5996" data-name="Path 5996" d="M31.71,33.122,31.173,26.9a1.439,1.439,0,0,1,1.434-1.563h3.579A1.439,1.439,0,0,1,37.62,26.9l-.537,6.224a1.44,1.44,0,0,1-1.435,1.316h-2.5A1.439,1.439,0,0,1,31.71,33.122Z" transform="translate(-13.643 -11.09)" fill="#fff"/>
        <path id="Path_5997" data-name="Path 5997" d="M37.716,15.514l0,0,.019.012.021.008,0,0a2.558,2.558,0,0,1,.883,3.411A4.833,4.833,0,0,1,36.6,20.4a1.432,1.432,0,0,1-1.414-.084v0l-.019-.012-.021-.01,0,0a1.433,1.433,0,0,1-.85-1.133,4.825,4.825,0,0,1,.088-2.5A2.558,2.558,0,0,1,37.716,15.514Z" transform="translate(-14.961 -6.69)" fill="#fff"/>
        <path id="Path_5998" data-name="Path 5998" d="M19.13.006V0L19.1,0l-.027,0V.005a3.046,3.046,0,0,0-2.851,3.078,5.746,5.746,0,0,0,1.321,2.675,1.7,1.7,0,0,0,1.529.709v0l.027,0,.027,0v0a1.7,1.7,0,0,0,1.53-.709A5.753,5.753,0,0,0,21.98,3.083,3.045,3.045,0,0,0,19.13.006Z" transform="translate(-7.102 0)" fill="#fff"/>
        <path id="Path_5999" data-name="Path 5999" d="M23.262,4.018a1.56,1.56,0,0,0-2.206,0L15.831,8.936H10.154L4.93,4.018A1.56,1.56,0,0,0,2.723,6.224l4.892,5.2.9,11.261a2.4,2.4,0,0,0,2.392,2.21H15.08a2.4,2.4,0,0,0,2.392-2.21l.9-11.261,4.892-5.2a1.561,1.561,0,0,0,0-2.206Z" transform="translate(-0.992 -1.559)" fill="#fff"/>
      </g>
    </g>
  </g>
</svg>
