<svg xmlns="http://www.w3.org/2000/svg" xmlns:xlink="http://www.w3.org/1999/xlink" width="36" height="36" viewBox="0 0 36 36">
  <defs>
    <clipPath id="clip-path">
      <rect id="Rectangle_149" data-name="Rectangle 149" width="25.154" height="24" fill="#fff"/>
    </clipPath>
  </defs>
  <g id="Group_1020" data-name="Group 1020" transform="translate(-678 -2795)">
    <rect id="Rectangle_127" data-name="Rectangle 127" width="36" height="36" rx="5" transform="translate(678 2795)" fill="#71005d"/>
    <g id="Group_87" data-name="Group 87" transform="translate(683 2801)">
      <g id="Group_86" data-name="Group 86" clip-path="url(#clip-path)">
        <path id="Path_1689" data-name="Path 1689" d="M25.116,9.11a.786.786,0,0,0-.651-.537L16.633,7.6,13.289.453a.786.786,0,0,0-1.424,0L8.522,7.6.69,8.573A.786.786,0,0,0,.25,9.927l5.766,5.389-1.5,7.749a.786.786,0,0,0,1.152.837l6.907-3.818L19.484,23.9a.786.786,0,0,0,1.152-.837l-1.5-7.749,5.766-5.389a.787.787,0,0,0,.21-.817Zm-7.367,5.354a.785.785,0,0,0-.235.723l1.26,6.525L12.958,18.5a.787.787,0,0,0-.761,0L6.381,21.712l1.261-6.525a.786.786,0,0,0-.235-.723L2.551,9.926l6.6-.817a.787.787,0,0,0,.616-.447l2.816-6.02,2.816,6.02a.786.786,0,0,0,.616.447l6.6.817Z" transform="translate(0)" fill="#fff"/>
      </g>
    </g>
  </g>
</svg>
