<svg xmlns="http://www.w3.org/2000/svg" xmlns:xlink="http://www.w3.org/1999/xlink" width="36" height="36" viewBox="0 0 36 36">
  <defs>
    <clipPath id="clip-path">
      <rect id="Rectangle_1059" data-name="Rectangle 1059" width="24.08" height="24.12" fill="#fff"/>
    </clipPath>
  </defs>
  <g id="Group_878" data-name="Group 878" transform="translate(-400 -3214)">
    <rect id="Rectangle_128" data-name="Rectangle 128" width="36" height="36" rx="5" transform="translate(400 3214)" fill="#71005d"/>
    <g id="Group_1061" data-name="Group 1061" transform="translate(406 3220)">
      <g id="Group_1060" data-name="Group 1060" clip-path="url(#clip-path)">
        <path id="Path_6059" data-name="Path 6059" d="M72.816,55.72v6.327a.224.224,0,0,0,.329.2l4.606-2.1a.226.226,0,0,0,.127-.2V53.62a.224.224,0,0,0-.329-.2l-4.606,2.1A.258.258,0,0,0,72.816,55.72Z" transform="translate(-60.007 -44)" fill="#fff"/>
        <path id="Path_6060" data-name="Path 6060" d="M51.557,35.282,47.23,33.308a.279.279,0,0,0-.2,0L42.7,35.282a.221.221,0,0,0,0,.4l4.328,1.974a.279.279,0,0,0,.2,0l4.328-1.974a.221.221,0,0,0,0-.4" transform="translate(-35.079 -27.433)" fill="#fff"/>
        <path id="Path_6061" data-name="Path 6061" d="M35.883,53.431a.233.233,0,0,0-.329.2V59.96a.2.2,0,0,0,.127.2l4.606,2.1a.233.233,0,0,0,.329-.2V55.733a.2.2,0,0,0-.126-.2Z" transform="translate(-29.3 -44.013)" fill="#fff"/>
        <path id="Path_6062" data-name="Path 6062" d="M12.341,8.911a.6.6,0,0,0,.2.051.572.572,0,0,0,.532-.354,9.472,9.472,0,0,1,7.668-5.972v.886a.418.418,0,0,0,.228.38.48.48,0,0,0,.2.051.352.352,0,0,0,.228-.076l2.2-1.544a.443.443,0,0,0,.177-.354.531.531,0,0,0-.177-.354L21.4.079a.383.383,0,0,0-.43-.025.436.436,0,0,0-.228.379V1.5a10.515,10.515,0,0,0-8.706,6.681.559.559,0,0,0,.3.734Z" transform="translate(-9.883 0)" fill="#fff"/>
        <path id="Path_6063" data-name="Path 6063" d="M8.582,68.732A9.472,9.472,0,0,1,2.61,61.064H3.5a.418.418,0,0,0,.38-.228.437.437,0,0,0-.025-.43L2.306,58.2a.427.427,0,0,0-.683,0l-1.544,2.2a.384.384,0,0,0-.025.43.437.437,0,0,0,.38.228H1.5A10.516,10.516,0,0,0,8.177,69.77a.6.6,0,0,0,.2.051.561.561,0,0,0,.2-1.088Z" transform="translate(0 -47.825)" fill="#fff"/>
        <path id="Path_6064" data-name="Path 6064" d="M69.437,86.178a.58.58,0,0,0-.734.329,9.471,9.471,0,0,1-7.668,5.972v-.886a.417.417,0,0,0-.228-.379.437.437,0,0,0-.43.025l-2.2,1.544a.443.443,0,0,0-.177.354.531.531,0,0,0,.177.354l2.2,1.544a.408.408,0,0,0,.228.076.6.6,0,0,0,.2-.051.436.436,0,0,0,.228-.38V93.619a10.588,10.588,0,0,0,8.705-6.706A.559.559,0,0,0,69.437,86.178Z" transform="translate(-47.797 -70.991)" fill="#fff"/>
        <path id="Path_6065" data-name="Path 6065" d="M95.012,21a.436.436,0,0,0-.38-.228H93.569a10.443,10.443,0,0,0-6.656-8.68.569.569,0,1,0-.4,1.063,9.471,9.471,0,0,1,5.972,7.668H91.6a.418.418,0,0,0-.38.228.432.432,0,0,0,.026.43l1.543,2.2a.444.444,0,0,0,.354.177.532.532,0,0,0,.354-.177l1.544-2.2A.628.628,0,0,0,95.012,21Z" transform="translate(-70.992 -9.933)" fill="#fff"/>
      </g>
    </g>
  </g>
</svg>
