<svg xmlns="http://www.w3.org/2000/svg" xmlns:xlink="http://www.w3.org/1999/xlink" width="36" height="36" viewBox="0 0 36 36">
  <defs>
    <clipPath id="clip-path">
      <rect id="Rectangle_1079" data-name="Rectangle 1079" width="27" height="14.021" fill="#fff"/>
    </clipPath>
  </defs>
  <g id="Group_1087" data-name="Group 1087" transform="translate(-400 -2795)">
    <rect id="Rectangle_128" data-name="Rectangle 128" width="36" height="36" rx="5" transform="translate(400 2795)" fill="#71005d"/>
    <g id="Group_1096" data-name="Group 1096" transform="translate(404.499 2805.989)">
      <g id="Group_1095" data-name="Group 1095" transform="translate(0 0)" clip-path="url(#clip-path)">
        <path id="Path_6109" data-name="Path 6109" d="M13.5,14.021C8.226,14,3.688,11.143.809,8.746a2.269,2.269,0,0,1,0-3.473C3.688,2.877,8.227.017,13.5,0c5.273.017,9.812,2.877,12.691,5.274l.022.019a2.269,2.269,0,0,1-.022,3.454C23.314,11.143,18.776,14,13.5,14.021M9.379,2.286a.343.343,0,0,0-.4-.154,23.3,23.3,0,0,0-7.3,4.175l-.05.042a1.573,1.573,0,0,0,0,1.324h0l.05.042a22.628,22.628,0,0,0,8.189,4.445.343.343,0,0,0,.289-.61,5.791,5.791,0,0,1-.806-8.83.34.34,0,0,0,.048-.409Zm8.228.024a.34.34,0,0,0,.048.409,5.791,5.791,0,0,1-.806,8.83.343.343,0,0,0,.289.61,22.608,22.608,0,0,0,8.189-4.444l.05-.042a1.571,1.571,0,0,0,0-1.324h0l-.05-.042a23.283,23.283,0,0,0-7.3-4.175.344.344,0,0,0-.4.154ZM13.5,2.3A4.485,4.485,0,1,0,17.986,6.79,4.5,4.5,0,0,0,13.5,2.3Z" transform="translate(-0.001 0)" fill="#fff"/>
        <path id="Path_6110" data-name="Path 6110" d="M74.664,31.951a2.968,2.968,0,1,1,2.968-2.968,2.971,2.971,0,0,1-2.968,2.968" transform="translate(-61.164 -22.194)" fill="#fff"/>
      </g>
    </g>
  </g>
</svg>
