<svg xmlns="http://www.w3.org/2000/svg" xmlns:xlink="http://www.w3.org/1999/xlink" width="36" height="36" viewBox="0 0 36 36">
  <defs>
    <clipPath id="clip-path">
      <rect id="Rectangle_1083" data-name="Rectangle 1083" width="24" height="24" fill="#fff"/>
    </clipPath>
  </defs>
  <g id="Group_1144" data-name="Group 1144" transform="translate(-984 -3795)">
    <rect id="Rectangle_701" data-name="Rectangle 701" width="36" height="36" rx="5" transform="translate(984 3795)" fill="#71005d"/>
    <g id="Group_1105" data-name="Group 1105" transform="translate(22 44)">
      <g id="Group_1104" data-name="Group 1104" transform="translate(968 3757)">
        <g id="Group_1103" data-name="Group 1103" transform="translate(0 0)" clip-path="url(#clip-path)">
          <path id="Path_6123" data-name="Path 6123" d="M23.52,9.6H21.792a9.982,9.982,0,0,0-1.174-2.824l1.225-1.225a.479.479,0,0,0,0-.679L19.128,2.157a.48.48,0,0,0-.679,0L17.224,3.382A9.968,9.968,0,0,0,14.4,2.208V.48A.48.48,0,0,0,13.92,0H10.08A.48.48,0,0,0,9.6.48V2.208A9.96,9.96,0,0,0,6.776,3.382L5.551,2.157a.479.479,0,0,0-.679,0L2.158,4.873a.479.479,0,0,0,0,.679L3.383,6.776A9.975,9.975,0,0,0,2.209,9.6H.48a.48.48,0,0,0-.48.48v3.84a.48.48,0,0,0,.48.48H2.208a9.969,9.969,0,0,0,1.174,2.824L2.157,18.449a.479.479,0,0,0,0,.679l2.715,2.715a.479.479,0,0,0,.679,0l1.225-1.225A9.975,9.975,0,0,0,9.6,21.791V23.52a.48.48,0,0,0,.48.48h3.84a.479.479,0,0,0,.48-.48V21.792a9.991,9.991,0,0,0,2.824-1.174l1.225,1.225a.479.479,0,0,0,.679,0l2.715-2.715a.479.479,0,0,0,0-.679l-1.225-1.225A9.978,9.978,0,0,0,21.791,14.4H23.52a.48.48,0,0,0,.48-.48V10.08A.48.48,0,0,0,23.52,9.6Zm-.48,3.84H21.408a.48.48,0,0,0-.47.384,9.035,9.035,0,0,1-1.33,3.2.48.48,0,0,0,.061.6l1.157,1.157-2.036,2.036-1.157-1.157a.48.48,0,0,0-.6-.061,9.036,9.036,0,0,1-3.2,1.33.481.481,0,0,0-.385.471V23.04H10.56V21.408a.479.479,0,0,0-.384-.47,9.027,9.027,0,0,1-3.2-1.33.48.48,0,0,0-.6.061L5.211,20.825,3.175,18.789l1.157-1.157a.48.48,0,0,0,.061-.6,9.048,9.048,0,0,1-1.33-3.2.48.48,0,0,0-.471-.385H.96V10.56H2.592a.48.48,0,0,0,.47-.384,9.034,9.034,0,0,1,1.33-3.2.48.48,0,0,0-.061-.6L3.175,5.212,5.211,3.175,6.369,4.333a.48.48,0,0,0,.6.061,9.035,9.035,0,0,1,3.2-1.33.48.48,0,0,0,.385-.471V.96h2.88V2.592a.48.48,0,0,0,.384.47,9.033,9.033,0,0,1,3.2,1.33.481.481,0,0,0,.6-.061l1.157-1.157,2.036,2.037L19.667,6.369a.479.479,0,0,0-.061.6,9.028,9.028,0,0,1,1.33,3.2.481.481,0,0,0,.471.385H23.04Z" transform="translate(0 0)" fill="#fff"/>
          <path id="Path_6124" data-name="Path 6124" d="M31.535,24.335a7.2,7.2,0,1,0,7.2,7.2,7.208,7.208,0,0,0-7.2-7.2m0,13.44a6.24,6.24,0,1,1,6.24-6.24,6.247,6.247,0,0,1-6.24,6.24" transform="translate(-19.535 -19.535)" fill="#fff"/>
          <path id="Path_6125" data-name="Path 6125" d="M51.729,43.851a.48.48,0,0,0-.644.214L48.5,49.23l-1.449-1.449a.48.48,0,0,0-.679.679l1.92,1.92a.479.479,0,0,0,.768-.124l2.88-5.76A.48.48,0,0,0,51.729,43.851Z" transform="translate(-37.115 -35.161)" fill="#fff"/>
        </g>
      </g>
    </g>
  </g>
</svg>
