<svg xmlns="http://www.w3.org/2000/svg" xmlns:xlink="http://www.w3.org/1999/xlink" width="36" height="36" viewBox="0 0 36 36">
  <defs>
    <clipPath id="clip-path">
      <rect id="Rectangle_1087" data-name="Rectangle 1087" width="24" height="24" fill="#fff"/>
    </clipPath>
    <clipPath id="clip-path-2">
      <rect id="Rectangle_1096" data-name="Rectangle 1096" width="23.181" height="23.322" fill="#fff"/>
    </clipPath>
  </defs>
  <g id="Group_1156" data-name="Group 1156" transform="translate(-408 -3693)">
    <g id="Group_1115" data-name="Group 1115" transform="translate(414 3699)">
      <g id="Group_1114" data-name="Group 1114" transform="translate(0 0)" clip-path="url(#clip-path)">
        <path id="Path_6135" data-name="Path 6135" d="M44.726,53.1v-1.9h5.237a1.133,1.133,0,0,0,1.132-1.131V44.9h1.9v5.177A3.032,3.032,0,0,1,49.963,53.1Z" transform="translate(-28.992 -29.102)" fill="#fff"/>
        <path id="Path_6136" data-name="Path 6136" d="M10.83,24A3.032,3.032,0,0,1,7.8,20.972V17.5H3.549A3.553,3.553,0,0,1,0,13.951V3.549A3.553,3.553,0,0,1,3.549,0h10.4A3.553,3.553,0,0,1,17.5,3.549V7.8h3.472A3.032,3.032,0,0,1,24,10.83v2.961H22.1V10.83A1.133,1.133,0,0,0,20.971,9.7H17.5v4.252A3.553,3.553,0,0,1,13.95,17.5H9.7v3.472A1.133,1.133,0,0,0,10.83,22.1h2.9V24ZM9.7,15.6H13.95A1.653,1.653,0,0,0,15.6,13.951V9.7H10.83A1.133,1.133,0,0,0,9.7,10.83v.624H7.8V10.83A3.033,3.033,0,0,1,10.83,7.8H15.6V3.549A1.654,1.654,0,0,0,13.95,1.9H3.549A1.654,1.654,0,0,0,1.9,3.549v10.4A1.654,1.654,0,0,0,3.549,15.6H7.8V13.458H9.7Z" transform="translate(0 0)" fill="#fff"/>
      </g>
    </g>
    <g id="Group_1126" data-name="Group 1126" transform="translate(8 411)">
      <rect id="Rectangle_132" data-name="Rectangle 132" width="36" height="36" rx="5" transform="translate(400 3282)" fill="#71005d"/>
      <g id="Group_1131" data-name="Group 1131" transform="translate(406.409 3288.339)">
        <rect id="Rectangle_1094" data-name="Rectangle 1094" width="18.577" height="4.017" transform="translate(3.111 16.761) rotate(-45)" fill="#fff"/>
        <path id="Path_6144" data-name="Path 6144" d="M8.879,103.246l1.406,1.406,2.31-.879-2.837-2.837Z" transform="translate(-7.342 -83.458)" fill="#fff"/>
        <path id="Path_6145" data-name="Path 6145" d="M3.66,120.778l1.431-.376-1.08-1.055Z" transform="translate(-3.026 -98.68)" fill="#fff"/>
        <rect id="Rectangle_1095" data-name="Rectangle 1095" width="1.004" height="4.017" transform="translate(16.966 2.903) rotate(-45)" fill="#fff"/>
        <g id="Group_1130" data-name="Group 1130">
          <g id="Group_1129" data-name="Group 1129" clip-path="url(#clip-path-2)">
            <path id="Path_6146" data-name="Path 6146" d="M110.071,3.27a1.531,1.531,0,0,0,0-2.134l-.7-.7a1.531,1.531,0,0,0-2.134,0l-1.079,1.054,2.837,2.837Z" transform="translate(-87.772 0)" fill="#fff"/>
            <path id="Path_6147" data-name="Path 6147" d="M2.692,6.519l5.046,5.046,2.837-2.837L5.529,3.683a2.674,2.674,0,0,0-.8-1.858A2.769,2.769,0,0,0,.809,5.741a3,3,0,0,0,1.883.778ZM1.537,2.5A1.757,1.757,0,0,1,4.022,4.988a1.773,1.773,0,0,1-2.485,0A1.728,1.728,0,0,1,1.537,2.5Z" transform="translate(0.001 -0.839)" fill="#fff"/>
            <path id="Path_6148" data-name="Path 6148" d="M79.449,75.173a3.631,3.631,0,0,0-3.289-1L72.169,70.2l-2.837,2.837L73.3,77.005A3.66,3.66,0,0,0,77.591,81.3l-2.234-2.234.326-1.381.2-.929.929-.2,1.381-.326,2.234,2.234A3.6,3.6,0,0,0,79.449,75.173Z" transform="translate(-57.326 -58.045)" fill="#fff"/>
          </g>
        </g>
      </g>
    </g>
  </g>
</svg>
