<svg xmlns="http://www.w3.org/2000/svg" xmlns:xlink="http://www.w3.org/1999/xlink" width="36" height="36" viewBox="0 0 36 36">
  <defs>
    <clipPath id="clip-path">
      <rect id="Rectangle_1040" data-name="Rectangle 1040" width="24" height="20.691" transform="translate(0 0)" fill="none"/>
    </clipPath>
  </defs>
  <g id="Group_876" data-name="Group 876" transform="translate(-678 -3146)">
    <rect id="Rectangle_124" data-name="Rectangle 124" width="36" height="36" rx="5" transform="translate(678 3146)" fill="#71005d"/>
    <g id="Group_1008" data-name="Group 1008" transform="translate(684 3153.655)">
      <g id="Group_1007" data-name="Group 1007" transform="translate(0 0)" clip-path="url(#clip-path)">
        <path id="Path_5978" data-name="Path 5978" d="M6.114,41.331a.723.723,0,0,0-.707-.707H1.718a.723.723,0,0,0-.707.707v6.189A3.6,3.6,0,0,0,0,50a3.562,3.562,0,1,0,6.114-2.476ZM3.562,52.75a2.779,2.779,0,1,1,2.779-2.779A2.771,2.771,0,0,1,3.562,52.75" transform="translate(0 -32.868)" fill="#fff"/>
        <path id="Path_5979" data-name="Path 5979" d="M11.831,82.334a.556.556,0,1,1-.556-.556.556.556,0,0,1,.556.556" transform="translate(-8.673 -66.165)" fill="#fff"/>
        <path id="Path_5980" data-name="Path 5980" d="M21.755,92.259A.556.556,0,1,1,21.2,91.7a.556.556,0,0,1,.556.556" transform="translate(-16.702 -74.196)" fill="#fff"/>
        <path id="Path_5981" data-name="Path 5981" d="M13.479,81.778a.325.325,0,0,0-.253.1l-2.274,2.274a.325.325,0,0,0-.1.253.387.387,0,0,0,.1.253.324.324,0,0,0,.253.1.387.387,0,0,0,.253-.1l2.274-2.274a.324.324,0,0,0,.1-.253.387.387,0,0,0-.1-.253.326.326,0,0,0-.253-.1" transform="translate(-8.78 -66.165)" fill="#fff"/>
        <path id="Path_5982" data-name="Path 5982" d="M50.311.708A.723.723,0,0,0,49.6,0H45.916a.723.723,0,0,0-.707.707V14.653a3.6,3.6,0,0,0-1.01,2.476,3.562,3.562,0,1,0,6.114-2.476ZM47.76,19.883A2.779,2.779,0,1,1,50.539,17.1a2.771,2.771,0,0,1-2.779,2.779" transform="translate(-35.76 -0.001)" fill="#fff"/>
        <path id="Path_5983" data-name="Path 5983" d="M56.028,82.334a.556.556,0,1,1-.556-.556.556.556,0,0,1,.556.556" transform="translate(-44.432 -66.165)" fill="#fff"/>
        <path id="Path_5984" data-name="Path 5984" d="M66.085,92.259a.556.556,0,1,1-.556-.556.556.556,0,0,1,.556.556" transform="translate(-52.569 -74.196)" fill="#fff"/>
        <path id="Path_5985" data-name="Path 5985" d="M57.676,81.778a.325.325,0,0,0-.253.1L55.15,84.153a.325.325,0,0,0-.1.253.387.387,0,0,0,.1.253.324.324,0,0,0,.253.1.387.387,0,0,0,.253-.1l2.274-2.274a.324.324,0,0,0,.1-.253.387.387,0,0,0-.1-.253.294.294,0,0,0-.253-.1" transform="translate(-44.539 -66.165)" fill="#fff"/>
        <path id="Path_5986" data-name="Path 5986" d="M94.508,35.53V26.511A.723.723,0,0,0,93.8,25.8H90.112a.723.723,0,0,0-.707.707V35.5a3.6,3.6,0,0,0-1.011,2.476,3.562,3.562,0,0,0,7.124,0,3.479,3.479,0,0,0-1.011-2.45Zm-2.552,5.23a2.779,2.779,0,1,1,2.779-2.779,2.771,2.771,0,0,1-2.779,2.779" transform="translate(-71.518 -20.878)" fill="#fff"/>
        <path id="Path_5987" data-name="Path 5987" d="M100.357,82.334a.556.556,0,1,1-.556-.556.556.556,0,0,1,.556.556" transform="translate(-80.298 -66.165)" fill="#fff"/>
        <path id="Path_5988" data-name="Path 5988" d="M110.282,92.259a.556.556,0,1,1-.556-.556.556.556,0,0,1,.556.556" transform="translate(-88.328 -74.196)" fill="#fff"/>
        <path id="Path_5989" data-name="Path 5989" d="M101.873,81.778a.325.325,0,0,0-.253.1l-2.274,2.274a.324.324,0,0,0-.1.253.387.387,0,0,0,.1.253.324.324,0,0,0,.253.1.387.387,0,0,0,.253-.1l2.274-2.274a.324.324,0,0,0,.1-.253.387.387,0,0,0-.1-.253A.294.294,0,0,0,101.873,81.778Z" transform="translate(-80.299 -66.165)" fill="#fff"/>
      </g>
    </g>
  </g>
</svg>
