<svg xmlns="http://www.w3.org/2000/svg" xmlns:xlink="http://www.w3.org/1999/xlink" width="36" height="36" viewBox="0 0 36 36">
  <defs>
    <clipPath id="clip-path">
      <rect id="Rectangle_1044" data-name="Rectangle 1044" width="20" height="22.918" fill="none"/>
    </clipPath>
  </defs>
  <g id="Group_882" data-name="Group 882" transform="translate(-400 -3350)">
    <rect id="Rectangle_136" data-name="Rectangle 136" width="36" height="36" rx="5" transform="translate(400 3350)" fill="#71005d"/>
    <g id="Group_1017" data-name="Group 1017" transform="translate(408 3356.542)">
      <g id="Group_1016" data-name="Group 1016" transform="translate(0 0)" clip-path="url(#clip-path)">
        <path id="Path_6008" data-name="Path 6008" d="M8.125,2.736A7.5,7.5,0,0,0,2.5,10v5a.834.834,0,0,1-.832.835A1.668,1.668,0,0,0,0,17.5v1.251a.415.415,0,0,0,.418.415H19.583A.418.418,0,0,0,20,18.752V17.5a1.669,1.669,0,0,0-1.667-1.666A.832.832,0,0,1,17.5,15V10a7.5,7.5,0,0,0-5.625-7.263V1.875a1.875,1.875,0,1,0-3.75,0ZM7.083,20h5.833a2.917,2.917,0,1,1-5.833,0" transform="translate(0 0)" fill="#fff" fill-rule="evenodd"/>
      </g>
    </g>
  </g>
</svg>
