<svg xmlns="http://www.w3.org/2000/svg" xmlns:xlink="http://www.w3.org/1999/xlink" width="36" height="36" viewBox="0 0 36 36">
  <defs>
    <clipPath id="clip-path">
      <rect id="Rectangle_1058" data-name="Rectangle 1058" width="21" height="21.001" fill="#fff"/>
    </clipPath>
  </defs>
  <g id="Group_876" data-name="Group 876" transform="translate(-678 -3146)">
    <rect id="Rectangle_124" data-name="Rectangle 124" width="36" height="36" rx="5" transform="translate(678 3146)" fill="#71005d"/>
    <g id="Group_1059" data-name="Group 1059" transform="translate(684 3154)">
      <g id="Group_1058" data-name="Group 1058" clip-path="url(#clip-path)">
        <path id="Path_6055" data-name="Path 6055" d="M.875,1.751H2.844L6.158,13.367A.875.875,0,0,0,7,14H17.5a.876.876,0,0,0,.829-.6l2.625-7.875a.875.875,0,0,0-1.66-.555L16.87,12.251H7.657L4.34.635A.875.875,0,0,0,3.5,0H.875a.875.875,0,1,0,0,1.75Z" transform="translate(0 -0.001)" fill="#fff"/>
        <path id="Path_6056" data-name="Path 6056" d="M41.364,108.987a2.625,2.625,0,1,0,.769-1.856A2.625,2.625,0,0,0,41.364,108.987Zm3.5,0a.875.875,0,1,1-.256-.619.875.875,0,0,1,.256.619" transform="translate(-35.239 -90.612)" fill="#fff"/>
        <path id="Path_6057" data-name="Path 6057" d="M91.261,106.362a2.625,2.625,0,1,0,1.856.769A2.625,2.625,0,0,0,91.261,106.362Zm0,3.5a.875.875,0,1,1,.619-.256.874.874,0,0,1-.619.256" transform="translate(-75.51 -90.612)" fill="#fff"/>
        <path id="Path_6058" data-name="Path 6058" d="M62.588,0a.875.875,0,0,0-.875.875V7.512L60.582,6.381h0a.875.875,0,1,0-1.238,1.238l2.625,2.625h0a.875.875,0,0,0,1.238,0l2.625-2.625h0a.875.875,0,0,0-1.238-1.238L63.463,7.512V.875A.875.875,0,0,0,62.588,0Z" transform="translate(-50.337 0)" fill="#fff"/>
      </g>
    </g>
  </g>
</svg>
