<svg xmlns="http://www.w3.org/2000/svg" xmlns:xlink="http://www.w3.org/1999/xlink" width="36" height="36" viewBox="0 0 36 36">
  <defs>
    <clipPath id="clip-path">
      <rect id="Rectangle_1050" data-name="Rectangle 1050" width="21.9" height="21.9" transform="translate(0 0)" fill="#fff"/>
    </clipPath>
  </defs>
  <g id="Group_875" data-name="Group 875" transform="translate(-400 -3146)">
    <rect id="Rectangle_15" data-name="Rectangle 15" width="36" height="36" rx="5" transform="translate(400 3146)" fill="#71005d"/>
    <g id="Group_1042" data-name="Group 1042" transform="translate(407.049 3153.05)">
      <g id="Group_1041" data-name="Group 1041" transform="translate(0 0)" clip-path="url(#clip-path)">
        <path id="Path_6020" data-name="Path 6020" d="M44.666,38.739H39.2a.437.437,0,0,0-.46.459v5.47a.436.436,0,0,0,.46.459h5.47a.436.436,0,0,0,.459-.459V39.2A.436.436,0,0,0,44.666,38.739Z" transform="translate(-27.798 -27.8)" fill="#fff"/>
        <path id="Path_6021" data-name="Path 6021" d="M16.576,19.771H28.434a.436.436,0,0,0,.459-.459V16.576a.425.425,0,0,0-.459-.459H16.575a.436.436,0,0,0-.459.459v2.735a.436.436,0,0,0,.459.459Z" transform="translate(-11.565 -11.566)" fill="#fff"/>
        <path id="Path_6022" data-name="Path 6022" d="M16.576,45.127h2.735a.437.437,0,0,0,.46-.459V39.2a.426.426,0,0,0-.46-.459H16.576a.436.436,0,0,0-.459.459v5.47A.448.448,0,0,0,16.576,45.127Z" transform="translate(-11.566 -27.799)" fill="#fff"/>
        <path id="Path_6023" data-name="Path 6023" d="M20.959,0H.919A.925.925,0,0,0,0,.919V20.981a.925.925,0,0,0,.919.919H20.981a.925.925,0,0,0,.919-.919V.919A.959.959,0,0,0,20.959,0Zm-.9,20.062H1.816V1.816H20.04V20.063Z" transform="translate(0 0)" fill="#fff"/>
      </g>
    </g>
  </g>
</svg>
