<svg xmlns="http://www.w3.org/2000/svg" xmlns:xlink="http://www.w3.org/1999/xlink" width="36" height="36" viewBox="0 0 36 36">
  <defs>
    <clipPath id="clip-path">
      <rect id="Rectangle_1088" data-name="Rectangle 1088" width="24" height="24" fill="#fff"/>
    </clipPath>
  </defs>
  <g id="Group_1150" data-name="Group 1150" transform="translate(-984 -3693)">
    <rect id="Rectangle_698" data-name="Rectangle 698" width="36" height="36" rx="5" transform="translate(984 3693)" fill="#71005d"/>
    <g id="Group_1117" data-name="Group 1117" transform="translate(990 3699)">
      <g id="Group_1116" data-name="Group 1116" clip-path="url(#clip-path)">
        <path id="Path_6137" data-name="Path 6137" d="M23.8,11.288,22.718,9.53h0a1.361,1.361,0,0,1-.2-.75l.057-2.063h0a1.359,1.359,0,0,0-.712-1.233L20.047,4.5a1.36,1.36,0,0,1-.549-.549l-.983-1.815h0a1.359,1.359,0,0,0-1.2-.712h-.038l-2.063.057h-.038a1.356,1.356,0,0,1-.712-.2L12.712.2a1.36,1.36,0,0,0-1.424,0L9.529,1.282a1.356,1.356,0,0,1-.712.2H8.78L6.717,1.426H6.68a1.359,1.359,0,0,0-1.2.712L4.5,3.953a1.36,1.36,0,0,1-.549.549l-1.815.983a1.359,1.359,0,0,0-.712,1.233L1.483,8.78a1.361,1.361,0,0,1-.2.75L.2,11.288h0a1.36,1.36,0,0,0,0,1.424L1.282,14.47h0a1.361,1.361,0,0,1,.2.749l-.057,2.063h0a1.359,1.359,0,0,0,.712,1.233l1.815.983a1.36,1.36,0,0,1,.549.549l.983,1.815h0a1.359,1.359,0,0,0,1.2.712h.038l2.063-.057h.038a1.358,1.358,0,0,1,.712.2L11.288,23.8h0a1.36,1.36,0,0,0,1.424,0l1.759-1.081a1.356,1.356,0,0,1,.712-.2h.038l2.063.057h.038a1.36,1.36,0,0,0,1.2-.712l.983-1.815h0a1.36,1.36,0,0,1,.549-.549l1.815-.983a1.359,1.359,0,0,0,.712-1.233l-.057-2.063a1.361,1.361,0,0,1,.2-.749L23.8,12.712h0a1.36,1.36,0,0,0,0-1.424Zm-6.658-1.157-5.438,6.8h0a1.361,1.361,0,0,1-.986.507l-.076,0a1.354,1.354,0,0,1-.961-.4L6.96,14.321A1.359,1.359,0,0,1,8.882,12.4l1.645,1.645,4.489-5.612a1.36,1.36,0,0,1,2.125,1.7Z" fill="#fff"/>
      </g>
    </g>
  </g>
</svg>
