<svg xmlns="http://www.w3.org/2000/svg" xmlns:xlink="http://www.w3.org/1999/xlink" width="36" height="36" viewBox="0 0 36 36">
  <defs>
    <clipPath id="clip-path">
      <rect id="Rectangle_1052" data-name="Rectangle 1052" width="26.99" height="22.083" fill="#fff"/>
    </clipPath>
  </defs>
  <g id="Group_878" data-name="Group 878" transform="translate(-400 -3214)">
    <rect id="Rectangle_128" data-name="Rectangle 128" width="36" height="36" rx="5" transform="translate(400 3214)" fill="#71005d"/>
    <g id="Group_1046" data-name="Group 1046" transform="translate(404.505 3220.959)">
      <g id="Group_1045" data-name="Group 1045" clip-path="url(#clip-path)">
        <path id="Path_6030" data-name="Path 6030" d="M19.889,19.874a1.842,1.842,0,0,0,1.84-1.84,1.811,1.811,0,0,0-.026-.258l2.462-1.462h0a1.813,1.813,0,0,0,2.333.129l2.606,1.45c0,.047-.014.093-.014.141a1.84,1.84,0,0,0,3.68,0c0-.016,0-.031,0-.047l2.155-.774h0a1.848,1.848,0,1,0-.292-1.2l-2.307.829h0a1.82,1.82,0,0,0-2.719-.078l-2.417-1.344a1.808,1.808,0,0,0,.064-.455,1.84,1.84,0,1,0-3.68,0,1.811,1.811,0,0,0,.026.258l-2.462,1.462h0a1.838,1.838,0,1,0-1.245,3.187ZM36.451,15.58a.613.613,0,1,1-.614.613.613.613,0,0,1,.614-.613m-5.521,1.84a.613.613,0,1,1-.613.613.613.613,0,0,1,.613-.613M25.41,14.353a.613.613,0,1,1-.613.614.613.613,0,0,1,.613-.614M19.889,17.42a.613.613,0,1,1-.613.613.613.613,0,0,1,.613-.613" transform="translate(-14.675 -10.672)" fill="#fff"/>
        <path id="Path_6031" data-name="Path 6031" d="M26.99,20.856V1.227A1.229,1.229,0,0,0,25.763,0H1.227A1.229,1.229,0,0,0,0,1.227V20.856a1.229,1.229,0,0,0,1.227,1.227H25.763a1.229,1.229,0,0,0,1.227-1.227M1.227,1.227H25.763V20.856H1.227Z" fill="#fff"/>
        <path id="Path_6032" data-name="Path 6032" d="M49.619,45.939H46.552a.613.613,0,0,0-.613.614v9.814a.613.613,0,0,0,.613.614h3.067a.613.613,0,0,0,.613-.614V46.553a.613.613,0,0,0-.613-.614m-.613,9.815h-1.84V47.166h1.84Z" transform="translate(-37.351 -37.351)" fill="#fff"/>
        <path id="Path_6033" data-name="Path 6033" d="M20.087,62.346H17.02a.613.613,0,0,0-.613.613v6.748a.613.613,0,0,0,.613.614h3.067a.613.613,0,0,0,.613-.614V62.959a.613.613,0,0,0-.613-.613m-.614,6.747h-1.84V63.573h1.84Z" transform="translate(-13.34 -50.691)" fill="#fff"/>
        <path id="Path_6034" data-name="Path 6034" d="M79.151,62.346H76.084a.613.613,0,0,0-.613.613v6.748a.613.613,0,0,0,.613.614h3.067a.613.613,0,0,0,.614-.614V62.959a.613.613,0,0,0-.614-.613m-.613,6.747H76.7V63.573h1.84Z" transform="translate(-61.363 -50.691)" fill="#fff"/>
        <path id="Path_6035" data-name="Path 6035" d="M108.683,52.5h-3.067a.613.613,0,0,0-.614.613V61.7a.613.613,0,0,0,.614.614h3.067a.613.613,0,0,0,.614-.614V53.115a.613.613,0,0,0-.614-.613m-.613,8.588h-1.84V53.729h1.84Z" transform="translate(-85.374 -42.687)" fill="#fff"/>
      </g>
    </g>
  </g>
</svg>
