<svg xmlns="http://www.w3.org/2000/svg" xmlns:xlink="http://www.w3.org/1999/xlink" width="36" height="36" viewBox="0 0 36 36">
  <defs>
    <clipPath id="clip-path">
      <rect id="Rectangle_1069" data-name="Rectangle 1069" width="24" height="24.043" fill="#fff"/>
    </clipPath>
  </defs>
  <g id="Group_878" data-name="Group 878" transform="translate(-400 -3214)">
    <rect id="Rectangle_128" data-name="Rectangle 128" width="36" height="36" rx="5" transform="translate(400 3214)" fill="#71005d"/>
    <g id="Group_1076" data-name="Group 1076" transform="translate(406 3219.979)">
      <g id="Group_1075" data-name="Group 1075" clip-path="url(#clip-path)">
        <path id="Path_6085" data-name="Path 6085" d="M23.325,2.858H21.239V.994A1,1,0,0,0,20.245,0H18.624a1,1,0,0,0-1,.994V2.858H6.381V.994a1,1,0,0,0-1-.994H3.763a1,1,0,0,0-1,.994V2.858H.675A.675.675,0,0,0,0,3.533V23.367a.676.676,0,0,0,.675.675H23.325A.675.675,0,0,0,24,23.367V3.533a.675.675,0,0,0-.675-.675ZM19.888,5.152H18.97v-3.8h.919ZM5.03,5.168H4.112V1.351H5.03ZM2.761,4.209V5.843a.675.675,0,0,0,.675.675H5.706a.675.675,0,0,0,.675-.675V4.209H17.619V5.843a.675.675,0,0,0,.675.675h2.269a.675.675,0,0,0,.675-.675V4.209h1.41v3.1H1.351v-3.1ZM1.351,8.661h21.3V22.692H1.351Zm10.041,2.477a.675.675,0,0,1-.675.675H8.488a.675.675,0,0,1,0-1.351h2.226a.675.675,0,0,1,.678.675Zm4.8,0h0a.676.676,0,0,1-.675.675H13.283a.675.675,0,1,1,0-1.351h2.229a.675.675,0,0,1,.675.675Zm4.795,0h0a.675.675,0,0,1-.675.675H18.081a.675.675,0,1,1,0-1.351h2.226a.675.675,0,0,1,.675.675ZM6.6,14.163a.675.675,0,0,1-.675.675H3.693a.675.675,0,0,1,0-1.351H5.919a.675.675,0,0,1,.678.675Zm4.8,0a.675.675,0,0,1-.675.675H8.488a.675.675,0,1,1,0-1.351h2.226a.675.675,0,0,1,.678.675Zm4.795,0h0a.675.675,0,0,1-.675.675H13.283a.675.675,0,0,1,0-1.351h2.229a.675.675,0,0,1,.675.675Zm4.8,0h0a.675.675,0,0,1-.675.675H18.08a.675.675,0,0,1,0-1.351h2.226a.675.675,0,0,1,.675.675ZM6.6,17.189a.675.675,0,0,1-.675.675H3.692a.675.675,0,1,1,0-1.351H5.918a.675.675,0,0,1,.678.675Zm4.8,0a.675.675,0,0,1-.675.675H8.487a.675.675,0,0,1,0-1.351h2.226a.675.675,0,0,1,.678.675Zm4.8,0h0a.676.676,0,0,1-.675.675H13.283a.675.675,0,1,1,0-1.351h2.229a.675.675,0,0,1,.675.675Zm4.795,0h0a.676.676,0,0,1-.675.675H18.08a.675.675,0,1,1,0-1.351h2.226a.675.675,0,0,1,.675.675ZM6.6,20.215a.676.676,0,0,1-.675.675H3.692a.675.675,0,0,1,0-1.351H5.918a.676.676,0,0,1,.678.675Zm4.795,0a.675.675,0,0,1-.675.675H8.487a.675.675,0,0,1,0-1.351h2.226a.675.675,0,0,1,.678.675Zm4.8,0h0a.676.676,0,0,1-.675.675H13.282a.675.675,0,0,1,0-1.351h2.229a.676.676,0,0,1,.675.675Z" transform="translate(0 0)" fill="#fff"/>
      </g>
    </g>
  </g>
</svg>
