<svg xmlns="http://www.w3.org/2000/svg" xmlns:xlink="http://www.w3.org/1999/xlink" width="36" height="36" viewBox="0 0 36 36">
  <defs>
    <clipPath id="clip-path">
      <rect id="Rectangle_1081" data-name="Rectangle 1081" width="19.76" height="27.262" transform="translate(0 0)" fill="#fff"/>
    </clipPath>
  </defs>
  <g id="Group_1139" data-name="Group 1139" transform="translate(-984 -3693)">
    <rect id="Rectangle_698" data-name="Rectangle 698" width="36" height="36" rx="5" transform="translate(984 3693)" fill="#71005d"/>
    <g id="Group_1100" data-name="Group 1100" transform="translate(992.12 3697.368)">
      <g id="Group_1099" data-name="Group 1099" transform="translate(0 0)" clip-path="url(#clip-path)">
        <path id="Path_6119" data-name="Path 6119" d="M19.76,4.23a.456.456,0,0,0-.153-.328l0,0-.042-.041c-.011-.008-.017-.022-.028-.029L15.843.137a.457.457,0,0,0-.213-.114.285.285,0,0,0-.058-.011A.48.48,0,0,0,15.511,0H1.381A1.382,1.382,0,0,0,0,1.381v24.5a1.382,1.382,0,0,0,1.381,1.381h16.98a1.382,1.382,0,0,0,1.381-1.381V4.321a.484.484,0,0,0,.018-.091ZM15.981,1.6,18.136,3.76H15.981ZM18.36,26.322H1.38a.441.441,0,0,1-.441-.441V1.381A.441.441,0,0,1,1.38.94H15.04V4.23a.47.47,0,0,0,.47.47H18.8V25.88a.441.441,0,0,1-.441.441Z" transform="translate(0 0)" fill="#fff"/>
        <path id="Path_6120" data-name="Path 6120" d="M26.934,28.824H25.188a1.229,1.229,0,0,0-1.208-1.075H16.93a1.244,1.244,0,0,0-1.243,1.242V30.67a1.243,1.243,0,0,0,1.243,1.242h7.05a1.243,1.243,0,0,0,1.242-1.242v-.907h1.712a.571.571,0,0,1,.571.571v2.216a.571.571,0,0,1-.571.57h-3.29a1.512,1.512,0,0,0-1.51,1.51v2.787h-.6a.47.47,0,0,0-.47.47v3.357a1.412,1.412,0,0,0,1.41,1.41h.268a1.412,1.412,0,0,0,1.41-1.41V37.886a.47.47,0,0,0-.47-.47h-.6V34.629a.571.571,0,0,1,.571-.57h3.29a1.512,1.512,0,0,0,1.511-1.51V30.333A1.511,1.511,0,0,0,26.934,28.824Zm-2.653,1.847a.3.3,0,0,1-.3.3h-7.05a.3.3,0,0,1-.3-.3V28.992a.3.3,0,0,1,.3-.3h7.05a.3.3,0,0,1,.3.3ZM23.206,41.247a.471.471,0,0,1-.47.47h-.268a.471.471,0,0,1-.47-.47V38.36h1.208Z" transform="translate(-12.195 -21.572)" fill="#fff"/>
      </g>
    </g>
  </g>
</svg>
