<svg xmlns="http://www.w3.org/2000/svg" xmlns:xlink="http://www.w3.org/1999/xlink" width="36" height="36" viewBox="0 0 36 36">
  <defs>
    <clipPath id="clip-path">
      <rect id="Rectangle_1070" data-name="Rectangle 1070" width="24" height="24" transform="translate(0 0)" fill="#fff"/>
    </clipPath>
  </defs>
  <g id="Group_877" data-name="Group 877" transform="translate(-678 -3214)">
    <rect id="Rectangle_127" data-name="Rectangle 127" width="36" height="36" rx="5" transform="translate(678 3214)" fill="#71005d"/>
    <g id="Group_1078" data-name="Group 1078" transform="translate(684 3220)">
      <g id="Group_1077" data-name="Group 1077" transform="translate(0 0)" clip-path="url(#clip-path)">
        <path id="Path_6086" data-name="Path 6086" d="M3.674,24A3.678,3.678,0,0,1,0,20.326V17.55a3.678,3.678,0,0,1,3.674-3.674H6.449a3.679,3.679,0,0,1,3.674,3.674v2.775A3.679,3.679,0,0,1,6.449,24Zm0-8.326A1.878,1.878,0,0,0,1.8,17.55v2.775A1.878,1.878,0,0,0,3.674,22.2H6.449a1.878,1.878,0,0,0,1.877-1.876V17.55a1.879,1.879,0,0,0-1.877-1.877ZM18.938,24a.9.9,0,0,1-.891-.781l-.007-.132v-3.25H14.775a.9.9,0,0,1-.118-1.79l.132-.008h3.25V14.775a.9.9,0,0,1,1.79-.118l.008.132v3.25H23.1a.9.9,0,0,1,.118,1.79l-.132.008h-3.25V23.1a.9.9,0,0,1-.9.9M17.55,10.123a3.678,3.678,0,0,1-3.674-3.674V3.674A3.678,3.678,0,0,1,17.55,0h2.775A3.678,3.678,0,0,1,24,3.674V6.449a3.678,3.678,0,0,1-3.674,3.674Zm0-8.326a1.878,1.878,0,0,0-1.877,1.876V6.449A1.879,1.879,0,0,0,17.55,8.326h2.775A1.878,1.878,0,0,0,22.2,6.449V3.674A1.878,1.878,0,0,0,20.326,1.8ZM3.674,10.123A3.678,3.678,0,0,1,0,6.449V3.674A3.678,3.678,0,0,1,3.674,0H6.449a3.679,3.679,0,0,1,3.674,3.674V6.449a3.679,3.679,0,0,1-3.674,3.674Zm0-8.326A1.878,1.878,0,0,0,1.8,3.674V6.449A1.878,1.878,0,0,0,3.674,8.326H6.449A1.879,1.879,0,0,0,8.326,6.449V3.674A1.878,1.878,0,0,0,6.449,1.8Z" transform="translate(0 0)" fill="#fff"/>
      </g>
    </g>
  </g>
</svg>
