<svg xmlns="http://www.w3.org/2000/svg" xmlns:xlink="http://www.w3.org/1999/xlink" width="36" height="36" viewBox="0 0 36 36">
  <defs>
    <clipPath id="clip-path">
      <rect id="Rectangle_1098" data-name="Rectangle 1098" width="24" height="24" fill="#fff"/>
    </clipPath>
  </defs>
  <g id="Group_1157" data-name="Group 1157" transform="translate(-408 -3795)">
    <g id="Group_1015" data-name="Group 1015" transform="translate(8 1068)">
      <rect id="Rectangle_15" data-name="Rectangle 15" width="36" height="36" rx="5" transform="translate(400 2727)" fill="#71005d"/>
      <g id="Group_1135" data-name="Group 1135" transform="translate(406 2733)">
        <g id="Group_1134" data-name="Group 1134" clip-path="url(#clip-path)">
          <path id="Path_6153" data-name="Path 6153" d="M.574,24a.574.574,0,0,1,0-1.148h.3V13.757a.575.575,0,0,1,.574-.574h4.7V5.847a.575.575,0,0,1,.574-.574H9.67L9.7,5a5.575,5.575,0,0,1,5.545-5h0a5.537,5.537,0,0,1,3.942,1.633,5.605,5.605,0,0,1,.546,7.25l-.156.211.446.446.18-.061a1.687,1.687,0,0,1,1.735.4l1.572,1.572a1.685,1.685,0,1,1-2.383,2.383l-1.572-1.571a1.677,1.677,0,0,1-.4-1.735l.061-.179-.446-.447-.211.156a5.593,5.593,0,0,1-.55.358l-.154.088V15.82h4.7a.575.575,0,0,1,.574.574v6.458h.3a.574.574,0,0,1,0,1.148Zm17.273-1.148h4.126V16.968H17.847Zm-15.821,0H6.152v-8.52H2.027Zm10.547,0H16.7V10.968l-.364.072A5.593,5.593,0,0,1,13,10.68l-.428-.187Zm-5.274,0h4.126V9.639L11.3,9.516A5.548,5.548,0,0,1,9.775,6.666l-.049-.246H7.3ZM20.743,10.537a.537.537,0,0,0-.38.917l1.572,1.572a.537.537,0,1,0,.759-.76l-1.571-1.571a.534.534,0,0,0-.38-.157m-5.5-9.39A4.427,4.427,0,0,0,12.112,8.7a4.427,4.427,0,0,0,6.261-6.26,4.4,4.4,0,0,0-3.13-1.3" transform="translate(0 0.001)" fill="#fff" fill-rule="evenodd"/>
        </g>
      </g>
    </g>
  </g>
</svg>
