<svg xmlns="http://www.w3.org/2000/svg" xmlns:xlink="http://www.w3.org/1999/xlink" width="36" height="36" viewBox="0 0 36 36">
  <defs>
    <clipPath id="clip-path">
      <rect id="Rectangle_1090" data-name="Rectangle 1090" width="20.559" height="21.091" transform="translate(0 0)" fill="#fff"/>
    </clipPath>
  </defs>
  <g id="Group_1151" data-name="Group 1151" transform="translate(-984 -3795)">
    <rect id="Rectangle_701" data-name="Rectangle 701" width="36" height="36" rx="5" transform="translate(984 3795)" fill="#71005d"/>
    <g id="Group_1121" data-name="Group 1121" transform="translate(992 3802)">
      <g id="Group_1120" data-name="Group 1120" transform="translate(0 0)" clip-path="url(#clip-path)">
        <path id="Path_6140" data-name="Path 6140" d="M20.384,9.6H10.71v2.871h6.861c-.339,4.026-3.688,5.743-6.85,5.743a7.544,7.544,0,0,1-7.574-7.643A7.558,7.558,0,0,1,10.73,2.879,7.447,7.447,0,0,1,15.9,4.954l2.01-2.082A10.219,10.219,0,0,0,10.627,0,10.72,10.72,0,0,0,0,10.519,10.686,10.686,0,0,0,10.78,21.091c5.646,0,9.779-3.868,9.779-9.587a8.6,8.6,0,0,0-.175-1.9Z" transform="translate(0 0)" fill="#fff"/>
      </g>
    </g>
  </g>
</svg>
