<svg xmlns="http://www.w3.org/2000/svg" xmlns:xlink="http://www.w3.org/1999/xlink" width="36" height="36" viewBox="0 0 36 36">
  <defs>
    <clipPath id="clip-path">
      <rect id="Rectangle_139" data-name="Rectangle 139" width="18" height="24" transform="translate(0 0)" fill="#fff"/>
    </clipPath>
  </defs>
  <g id="Group_1049" data-name="Group 1049" transform="translate(-400 -3282)">
    <rect id="Rectangle_132" data-name="Rectangle 132" width="36" height="36" rx="5" transform="translate(400 3282)" fill="#71005d"/>
    <g id="Group_60" data-name="Group 60" transform="translate(409.648 3287.802)">
      <g id="Group_59" data-name="Group 59" transform="translate(-0.648 0.198)" clip-path="url(#clip-path)">
        <path id="Path_1670" data-name="Path 1670" d="M6.883,0a.765.765,0,0,0-.765.765V3.824a2.293,2.293,0,0,1-1.53,2.16V.765a.765.765,0,0,0-1.53,0V5.984a2.3,2.3,0,0,1-1.53-2.16V.765A.765.765,0,0,0,0,.765V3.824A3.832,3.832,0,0,0,3.059,7.572v4.665H2.294A.765.765,0,0,0,1.53,13V22.18a2.294,2.294,0,1,0,4.589,0V13a.765.765,0,0,0-.765-.765H4.589V7.572A3.83,3.83,0,0,0,7.648,3.824V.765A.765.765,0,0,0,6.883,0M4.589,22.18a.765.765,0,0,1-1.53,0V13.767h1.53ZM16.061,0a5.36,5.36,0,0,0-5.354,5.354v5.354a1.532,1.532,0,0,0,1.53,1.53V22.18a2.294,2.294,0,1,0,4.589,0V.765A.765.765,0,0,0,16.061,0M12.237,5.354A3.832,3.832,0,0,1,15.3,1.606V12.237h-1.53a1.532,1.532,0,0,0-1.53-1.53ZM15.3,22.18a.765.765,0,0,1-1.53,0V13.767H15.3Z" transform="translate(0.587 -0.237)" fill="#fff"/>
      </g>
    </g>
  </g>
</svg>
